<svg width="130" height="56" viewBox="0 0 130 56" fill="none" xmlns="http://www.w3.org/2000/svg"><path fill-rule="evenodd" clip-rule="evenodd" d="M55.432.919C71.04 4.014 83.286 14.602 89.803 23.405a1 1 0 01-1.607 1.19C81.88 16.064 70.026 5.852 55.043 2.88 40.58.013 23.002 3.85 4.416 22.915l6.543-.228a1 1 0 01.07 1.999l-8.994.313A1 1 0 011 24.035L.687 15.04a1 1 0 011.999-.07l.23 6.618C21.918 2.065 40.178-2.106 55.432.918z" fill="#111"/><path d="M118.471 20.642l6.735-3.123.592 1.278-5.225 2.422 1.48 3.194 4.297-1.992.592 1.277-4.297 1.992 2.073 4.471-1.51.7-4.737-10.22zm-8.123 3.765l6.735-3.122.592 1.277-5.226 2.422 1.481 3.194 4.297-1.992.592 1.278-4.297 1.991 2.073 4.471-1.51.7-4.737-10.22zm-6.327 2.791c1.016-.47 2.009-.649 2.979-.534a5.047 5.047 0 012.603 1.086c.774.605 1.385 1.392 1.834 2.36.449.967.654 1.942.615 2.924a5.043 5.043 0 01-.853 2.688c-.539.814-1.317 1.457-2.333 1.928-1.016.471-2.01.65-2.98.535a5.154 5.154 0 01-2.616-1.08c-.765-.61-1.372-1.398-1.82-2.366-.449-.968-.659-1.94-.63-2.918a5.16 5.16 0 01.867-2.694c.54-.815 1.318-1.457 2.334-1.929zm4.253 9.175c.706-.328 1.24-.787 1.601-1.377a3.71 3.71 0 00.56-1.988c.002-.73-.167-1.463-.508-2.199-.341-.735-.791-1.338-1.349-1.808a3.708 3.708 0 00-1.879-.857c-.684-.106-1.379.004-2.086.332-.706.327-1.245.789-1.616 1.384a3.744 3.744 0 00-.545 1.98c-.003.73.167 1.464.507 2.2.341.735.791 1.337 1.35 1.807s1.18.758 1.864.864c.694.102 1.394-.01 2.101-.338zM87.6 40.454a2.41 2.41 0 01-1.287.226 2.41 2.41 0 01-1.182-.457 2.83 2.83 0 01-.828-1.063 2.699 2.699 0 01-.262-1.289 2.37 2.37 0 01.408-1.212c.24-.37.573-.653.999-.85.416-.194.838-.26 1.265-.2.433.047.825.206 1.175.48.355.258.63.6.828 1.026.202.435.29.877.262 1.325a2.3 2.3 0 01-.4 1.19c-.236.356-.561.63-.977.824zm1.579 6.181l1.766-13.234 1.161-.538-1.766 13.234-1.161.538zm-2.023-7.104c.329-.152.542-.416.639-.79a1.7 1.7 0 00-.124-1.142 1.635 1.635 0 00-.785-.817c-.352-.178-.693-.19-1.022-.038-.33.153-.54.42-.633.805-.097.374-.058.75.117 1.127.175.377.44.655.792.832.348.168.687.176 1.016.023zm8.71 4.145a2.409 2.409 0 01-1.287.227 2.41 2.41 0 01-1.182-.457 2.83 2.83 0 01-.828-1.063 2.699 2.699 0 01-.263-1.29 2.38 2.38 0 01.409-1.211c.24-.37.573-.654.998-.851.416-.193.838-.26 1.266-.199a2.26 2.26 0 011.174.479c.355.258.632.6.829 1.026.202.436.289.878.261 1.325-.022.434-.155.83-.4 1.191-.235.356-.56.63-.976.823zm-.445-.922c.33-.153.542-.416.64-.79a1.7 1.7 0 00-.124-1.142 1.635 1.635 0 00-.785-.818c-.353-.177-.694-.19-1.023-.037-.329.152-.54.42-.632.804-.097.374-.058.75.117 1.128.175.377.439.654.792.832.348.168.686.175 1.015.023zM77.89 39.311c.842-.39 1.663-.495 2.465-.313.796.171 1.528.584 2.196 1.239.673.64 1.243 1.463 1.71 2.47.466 1.006.729 1.978.787 2.915.063.923-.095 1.749-.475 2.477-.383.72-.996 1.274-1.838 1.664-.842.39-1.662.5-2.458.328-.801-.181-1.538-.592-2.212-1.232-.667-.655-1.235-1.485-1.701-2.492-.467-1.006-.732-1.97-.795-2.894-.058-.937.105-1.765.489-2.483.38-.729.99-1.288 1.832-1.679zm4.252 9.175c.823-.382 1.286-1.031 1.39-1.95.113-.922-.109-1.983-.665-3.183-.556-1.2-1.223-2.055-2-2.565-.767-.514-1.562-.58-2.385-.2-.823.382-1.29 1.034-1.404 1.956-.103.919.123 1.978.68 3.178.556 1.2 1.218 2.057 1.985 2.57.777.51 1.577.575 2.4.194zm-13.532.277c.14-.406.379-.781.713-1.124a4.097 4.097 0 011.199-.838 4.016 4.016 0 011.8-.376 3.33 3.33 0 011.78.568c.558.365 1.01.92 1.355 1.665.314.677.465 1.36.454 2.046-.005.673-.21 1.309-.614 1.908-.4.584-1.025 1.074-1.876 1.469-.794.368-1.539.537-2.235.507-.686-.035-1.286-.239-1.8-.612-.504-.378-.909-.895-1.214-1.554l1.365-.632c.251.542.65.945 1.195 1.21.556.26 1.254.194 2.096-.196.804-.373 1.29-.869 1.462-1.49.176-.633.114-1.275-.187-1.923-.287-.62-.722-1.052-1.307-1.299-.58-.26-1.266-.207-2.06.161-.57.265-.957.585-1.159.961-.206.366-.322.802-.346 1.307l-1.365.632-1.995-6.13 5.821-2.697.593 1.277-4.69 2.173.659 1.953c.097.26.146.543.147.849a.838.838 0 01-.02.15.418.418 0 00-.01.128c.009.02.035.037.077.052l.072.003c.029-.014.059-.063.09-.148z" fill="#111"/></svg>