<svg width="20" height="21" viewBox="0 0 20 21" fill="none" xmlns="http://www.w3.org/2000/svg"><g clip-path="url(#clip0_27435_10095)"><path d="M10.204 8.349V12.3h5.492a4.705 4.705 0 01-2.05 3.071l3.311 2.57C18.887 16.16 20 13.544 20 10.436c0-.724-.065-1.42-.186-2.087h-9.61z" fill="#4285F4"/><path d="M4.485 12.146l-.746.572-2.644 2.06c1.679 3.33 5.12 5.63 9.109 5.63 2.755 0 5.065-.909 6.753-2.467l-3.312-2.57c-.909.613-2.068.984-3.441.984-2.653 0-4.907-1.79-5.714-4.203l-.005-.005z" fill="#34A853"/><path d="M1.095 5.63A10.078 10.078 0 000 10.205c0 1.651.399 3.2 1.095 4.573 0 .01 3.395-2.634 3.395-2.634a6.114 6.114 0 01-.325-1.939c0-.677.12-1.327.325-1.939L1.095 5.631z" fill="#FBBC05"/><path d="M10.204 4.063c1.503 0 2.839.52 3.906 1.521l2.922-2.922C15.26 1.012 12.959 0 10.204 0c-3.989 0-7.43 2.291-9.11 5.63L4.49 8.266c.807-2.412 3.061-4.202 5.714-4.202z" fill="#EA4335"/></g><defs><clipPath id="clip0_27435_10095"><path fill="#fff" d="M0 0h20v21H0z"/></clipPath></defs></svg>