<svg width="1200" height="800" viewBox="0 0 1200 800" fill="none" xmlns="http://www.w3.org/2000/svg"><g clip-path="url(#clip0_27603_7963)"><path d="M1022.54 138.12H249.312v564.288h773.228V138.12z" fill="#FFEEDF"/><mask id="a" fill="#fff"><path d="M248.144 537c28.288-31.744 25.52-77.552 14.784-116.8-1.792-6.544-2.72-13.664-7.232-18.72-4.512-5.056-12.8-7.248-18.032-3.072-4.352 3.472-5.136 9.6-6.752 15.056a39.588 39.588 0 01-11.968 18.448c-3.68 3.2-8.56 5.76-13.248 4.448-6.4-1.776-8.992-9.488-10.512-16a30623.245 30623.245 0 00-8.48-36.8c-1.6-6.576-3.104-13.28-6.624-19.024-3.52-5.744-9.408-10.464-16-10.72-6.592-.256-13.52 5.168-13.312 11.904 0 2.8 1.296 5.456 1.76 8.224.464 2.768-.096 6.08-2.496 7.456-2.4 1.376-5.504.144-8-1.296-8.336-5.024-14.976-12.464-21.28-19.936-6.304-7.472-12.56-15.168-20.416-20.912s-17.728-9.472-27.2-7.776c-9.472 1.696-18.16 9.888-18.336 19.68-.176 9.792 7.44 17.92 15.104 24a150.514 150.514 0 0037.296 21.856c2.416.976 5.04 2.032 6.4 4.272 2.48 4.032-.64 9.36-4.624 11.824-4.496 2.8-9.936 3.552-14.896 5.376-4.96 1.824-9.984 5.392-10.784 10.688-1.088 7.344 6.192 13.04 12.8 16.336a129 129 0 0042.24 12.608c5.248.624 10.688.976 15.392 3.44 4.704 2.464 8.448 7.808 7.2 12.992-1.248 5.184-6.88 8.048-12.128 8.352-5.248.304-10.464-1.392-15.712-2.064-9.824-1.264-21.328 2.128-25.248 11.296-2.592 6.016-1.216 13.232 2.144 18.88 3.36 5.648 8.528 10 13.808 13.856 18.496 13.536 40.24 22.784 62.896 25.072 22.656 2.288 42.496-.352 61.488-12.912"/></mask><path d="M262.928 420.2l.964-.264-.964.264zm-25.264-21.792l.623.782h.001l-.624-.782zm-6.752 15.056l.957.29.002-.006-.959-.284zm-11.968 18.448l-.655-.756-.001.002.656.754zm-13.248 4.448l.269-.963h-.002l-.267.963zm-10.512-16l-.975.224.001.003.974-.227zm-8.48-36.8l.974-.225-.002-.011-.972.236zm-35.936-17.84h1v-.015l-.001-.016-.999.031zm-8.736 14.384l-.516.857.008.005.008.004.5-.866zm-72.128-4.944l.624-.781-.003-.002-.621.783zm37.296 21.856l-.377.927h.002l.375-.927zm6.4 4.272l-.855.519.003.005.852-.524zm-4.624 11.824l-.526-.85-.003.001.529.849zm-25.68 16.064l-.989-.149v.003l.989.146zm12.8 16.336l-.447.895h.001l.446-.895zm42.24 12.608l-.118.993.118-.993zm-5.248 22.72l-.128.992h.001l.127-.992zm-25.248 11.296l.918.396.001-.003-.919-.393zm15.952 32.736l.59-.807-.59.807zm125.098 12.793c28.648-32.148 25.756-78.415 15.002-117.729l-1.929.528c10.718 39.183 13.362 84.531-14.566 115.871l1.493 1.33zm15.002-117.729c-.864-3.156-1.586-6.723-2.607-9.955-1.04-3.294-2.454-6.489-4.843-9.167l-1.492 1.332c2.122 2.379 3.429 5.272 4.428 8.437 1.02 3.229 1.658 6.494 2.585 9.881l1.929-.528zm-7.45-19.122c-2.402-2.691-5.796-4.612-9.296-5.312-3.505-.701-7.206-.19-10.106 2.125l1.248 1.563c2.332-1.861 5.39-2.342 8.466-1.727 3.079.616 6.086 2.319 8.196 4.683l1.492-1.332zm-19.402-3.188c-2.384 1.903-3.75 4.502-4.72 7.231-.486 1.366-.88 2.785-1.25 4.186-.373 1.413-.719 2.792-1.117 4.137l1.918.568c.409-1.383.768-2.815 1.132-4.194.368-1.392.745-2.744 1.201-4.027.913-2.567 2.116-4.767 4.083-6.337l-1.247-1.564zm-7.085 15.548a38.58 38.58 0 01-11.666 17.982l1.31 1.512a40.588 40.588 0 0012.27-18.914l-1.914-.58zm-11.667 17.984c-3.617 3.145-8.144 5.409-12.323 4.239l-.539 1.926c5.197 1.455 10.431-1.401 14.174-4.656l-1.312-1.509zm-12.325 4.239c-2.845-.79-4.912-2.911-6.478-5.744-1.569-2.84-2.572-6.286-3.327-9.52l-1.948.454c.765 3.278 1.818 6.944 3.525 10.033 1.71 3.094 4.138 5.717 7.693 6.704l.535-1.927zm-9.805-15.261a28815.69 28815.69 0 00-8.48-36.801l-1.948.45c2.837 12.277 5.663 24.544 8.479 36.799l1.949-.448zm-8.482-36.812c-1.589-6.529-3.125-13.405-6.744-19.31l-1.705 1.045c3.421 5.582 4.894 12.114 6.505 18.738l1.944-.473zm-6.744-19.31c-3.622-5.912-9.77-10.924-16.813-11.197l-.078 1.998c6.141.239 11.769 4.667 15.186 10.244l1.705-1.045zm-16.813-11.197c-3.572-.139-7.193 1.256-9.895 3.57-2.706 2.316-4.571 5.628-4.456 9.364l1.999-.062c-.092-3 1.403-5.768 3.757-7.783 2.358-2.019 5.497-3.208 8.517-3.091l.078-1.998zm-14.351 12.903c0 1.545.357 3.021.743 4.395.397 1.413.81 2.681 1.031 3.994l1.972-.33c-.244-1.455-.71-2.898-1.077-4.205-.378-1.346-.669-2.599-.669-3.854h-2zm1.774 8.389c.212 1.268.184 2.635-.15 3.812-.333 1.173-.946 2.089-1.858 2.612l.995 1.735c1.489-.854 2.356-2.282 2.787-3.801.43-1.515.45-3.188.198-4.688l-1.972.33zm-2.008 6.424c-.907.52-2.002.583-3.244.3-1.247-.284-2.547-.896-3.758-1.595l-1 1.732c1.285.742 2.785 1.465 4.314 1.813 1.534.349 3.191.34 4.683-.515l-.995-1.735zm-6.986-1.285c-8.179-4.93-14.725-12.25-21.032-19.725l-1.528 1.29c6.301 7.469 13.035 15.029 21.528 20.148l1.032-1.713zm-21.032-19.725c-6.277-7.44-12.616-15.244-20.59-21.074l-1.18 1.614c7.738 5.658 13.911 13.247 20.242 20.75l1.528-1.29zm-20.59-21.074c-7.983-5.837-18.13-9.715-27.966-7.953l.352 1.969c9.107-1.631 18.704 1.947 26.434 7.598l1.18-1.614zm-27.966-7.953c-9.83 1.76-18.973 10.27-19.16 20.646l2 .036c.165-9.208 8.397-17.081 17.512-18.713l-.352-1.969zM53.8 351.142c-.185 10.316 7.812 18.717 15.482 24.802l1.243-1.567c-7.658-6.075-14.892-13.931-14.725-23.199l-2-.036zm15.48 24.799a151.521 151.521 0 0037.543 22.002l.753-1.853a149.527 149.527 0 01-37.048-21.711l-1.248 1.562zm37.545 22.002c2.496 1.008 4.764 1.96 5.92 3.864l1.71-1.038c-1.564-2.576-4.544-3.736-6.881-4.68l-.749 1.854zm5.923 3.869c1.015 1.65.93 3.622.052 5.565-.88 1.95-2.516 3.75-4.35 4.885l1.052 1.701c2.149-1.33 4.066-3.426 5.121-5.763 1.059-2.346 1.293-5.054-.171-7.436l-1.704 1.048zm-4.301 10.451c-2.133 1.329-4.515 2.187-7.034 2.946-2.475.746-5.163 1.416-7.678 2.341l.69 1.877c2.445-.899 4.957-1.517 7.565-2.303 2.566-.773 5.152-1.692 7.515-3.163l-1.058-1.698zm-14.712 5.287c-5.053 1.858-10.543 5.617-11.428 11.477l1.978.299c.715-4.733 5.273-8.109 10.14-9.899l-.69-1.877zm-11.428 11.48c-.604 4.072 1.134 7.62 3.764 10.506 2.624 2.879 6.215 5.193 9.579 6.871l.892-1.79c-3.245-1.618-6.597-3.8-8.993-6.428-2.39-2.623-3.749-5.594-3.264-8.866l-1.978-.293zm13.343 17.377a129.966 129.966 0 0042.568 12.706l.236-1.986a127.987 127.987 0 01-41.913-12.51l-.89 1.79zm42.568 12.706c5.341.635 10.547.976 15.046 3.333l.928-1.772c-4.909-2.571-10.584-2.934-15.738-3.547l-.236 1.986zm15.046 3.333c4.477 2.345 7.791 7.304 6.692 11.872l1.944.468c1.396-5.8-2.778-11.529-7.708-14.112l-.928 1.772zm6.692 11.872c-1.098 4.561-6.166 7.295-11.214 7.588l.116 1.997c5.448-.316 11.644-3.31 13.042-9.117l-1.944-.468zm-11.214 7.588c-2.504.145-5.027-.186-7.621-.652-2.554-.459-5.251-1.066-7.906-1.406l-.254 1.984c2.593.332 5.128.909 7.806 1.39 2.638.474 5.347.839 8.091.681l-.116-1.997zm-15.527-2.058c-5.061-.651-10.566-.107-15.336 1.8-4.776 1.908-8.869 5.209-10.959 10.095l1.839.786c1.831-4.282 5.449-7.261 9.862-9.024 4.418-1.766 9.576-2.286 14.339-1.673l.255-1.984zm-26.294 11.892c-2.756 6.399-1.264 13.959 2.203 19.787l1.719-1.022c-3.252-5.468-4.512-12.34-2.085-17.973l-1.837-.792zm2.203 19.787c3.469 5.83 8.776 10.281 14.078 14.153l1.18-1.615c-5.258-3.84-10.287-8.094-13.539-13.56l-1.719 1.022zm14.077 14.152c18.618 13.625 40.528 22.952 63.386 25.26l.201-1.99c-22.453-2.267-44.031-11.437-62.406-24.884l-1.181 1.614zm63.386 25.26c22.806 2.303 42.898-.347 62.14-13.073l-1.103-1.668c-18.742 12.395-38.329 15.024-60.836 12.751l-.201 1.99z" fill="#000" fill-opacity=".5" mask="url(#a)"/><path d="M255.632 566.232A297.329 297.329 0 00232 514.68a602.19 602.19 0 00-38.4-57.776c-3.648-4.928-7.28-9.808-10.832-14.624-3.552-4.816-7.12-9.6-10.864-13.984a299.803 299.803 0 00-23.008-24.24c-7.68-7.36-15.248-14.064-22.4-20.288-7.152-6.224-13.904-11.856-20.288-16.752a240.293 240.293 0 00-31.792-20.8 278.342 278.342 0 00-9.168-4.8l-2.336-1.216a3.808 3.808 0 00-.832-.352c.246.179.509.335.784.464l2.352 1.28a376.71 376.71 0 019.056 4.96 254.659 254.659 0 0131.488 21.168c6.4 4.928 13.04 10.608 20.144 16.832 7.104 6.224 14.608 12.976 22.256 20.336a306.303 306.303 0 0122.864 24.208c3.728 4.416 7.232 9.12 10.8 13.936 3.568 4.816 7.184 9.68 10.832 14.624a617.15 617.15 0 0138.4 57.6 301.395 301.395 0 0123.744 51.2" fill="#8D8D8D"/><path d="M171.6 428.328c.1-.979.1-1.965 0-2.944 0-1.904-.304-4.64-.608-8-.624-6.752-1.808-16-3.2-26.304-1.392-10.304-2.384-19.536-2.912-26.288-.272-3.376-.464-6.112-.56-8a12.936 12.936 0 00-.32-2.928c-.162.972-.216 1.96-.16 2.944 0 1.904 0 4.64.176 8 .288 6.784 1.2 16.128 2.544 26.4 1.344 10.272 2.576 19.2 3.504 26.24.4 3.2.736 5.824 1.008 8 .057.978.234 1.945.528 2.88z" fill="#8D8D8D"/><path d="M83.456 432.616a19.487 19.487 0 003.472-.4c2.208-.32 5.408-.8 9.376-1.264 8-1.008 18.928-2.016 31.104-2.592 12.176-.576 23.232-.576 31.232-.368 4 .08 7.232.224 9.472.32 1.16.118 2.328.118 3.488 0a20.794 20.794 0 00-3.456-.512c-2.24-.24-5.472-.512-9.472-.704-8-.448-19.104-.544-31.328 0a305.335 305.335 0 00-31.168 2.96c-3.968.576-7.152 1.2-9.344 1.6-1.151.222-2.28.543-3.376.96zm147.184 80.752a3.81 3.81 0 00.336-1.168l.72-3.392c.608-2.944 1.376-7.248 2.256-12.56 1.776-10.64 3.76-25.408 5.744-41.728s3.824-31.104 5.376-41.76c.768-5.184 1.392-9.44 1.872-12.608l.48-3.44c.075-.401.108-.808.096-1.216-.167.371-.28.765-.336 1.168-.192.928-.432 2.032-.72 3.392-.608 2.96-1.376 7.248-2.272 12.56-1.776 10.64-3.76 25.408-5.728 41.744s-3.824 31.088-5.376 41.744c-.768 5.184-1.408 9.456-1.872 12.624-.192 1.36-.352 2.496-.496 3.424a4.105 4.105 0 00-.08 1.216z" fill="#8D8D8D"/><path d="M109.92 503.88c.394.124.803.189 1.216.192l3.52.32 12.928 1.04c10.928.88 25.984 2.256 42.64 3.824s31.744 2.8 42.688 3.456c5.472.32 9.904.544 12.96.64h3.536c.409.058.823.058 1.232 0a6.248 6.248 0 00-1.216-.192l-3.52-.32-12.928-1.04c-10.928-.864-26-2.256-42.656-3.808s-31.744-2.816-42.672-3.456c-5.472-.336-9.904-.56-12.976-.64l-3.52-.096a4.285 4.285 0 00-1.232.08z" fill="#8D8D8D"/><path d="M1098.06 204.392a9.006 9.006 0 00-1.6-.688 11.5 11.5 0 00-5.04-.48c-2.76.386-5.4 1.398-7.71 2.96a38.656 38.656 0 00-8.35 7.84c-5.52 6.752-10.34 16.4-16 27.648a523.585 523.585 0 00-8.67 18.272c-2.96 6.56-6 13.568-8.77 21.12a11.845 11.845 0 01-3.02 3.008c-.61.445-1.3.754-2.04.906-.73.152-1.49.143-2.22-.026a7.679 7.679 0 01-3.57-2.608c-.97-1.12-1.87-2.288-2.77-3.472a70.547 70.547 0 00-5.76-6.96 18.538 18.538 0 00-3.55-2.88 8.23 8.23 0 00-4.29-1.344 9.623 9.623 0 00-4.43 1.216c-1.4.749-2.64 1.766-3.65 2.992a18.96 18.96 0 00-3.56 8.976c-1.11 6.608.09 13.504.51 20.56.41 7.056 1.1 14.288 1.6 21.68.29 3.696.57 7.424.86 11.2.16 1.888.31 3.776.45 5.696.21.989.2 2.01-.01 2.998a7.242 7.242 0 01-1.24 2.73 2.77 2.77 0 01-1.41.809c-.54.123-1.11.081-1.63-.121a7.51 7.51 0 01-2.526-1.696l-4.32-4.016a105.55 105.55 0 00-9.12-7.664 37.475 37.475 0 00-10.528-5.76 13.004 13.004 0 00-5.904-.592 8.844 8.844 0 00-5.2 2.736c-2.784 2.976-3.888 7.216-4.4 11.328a66.004 66.004 0 00-.128 12.704 161.061 161.061 0 004.384 25.728 32.436 32.436 0 011.328 6.608 4.47 4.47 0 01-1.184 3.344 4.073 4.073 0 01-.72.576 2.604 2.604 0 01-.896.448 2.876 2.876 0 01-1.824-.656 35.345 35.345 0 01-4.8-4.8l-4.464-5.12a75.187 75.187 0 00-9.6-9.6 22.393 22.393 0 00-5.824-3.44 7.775 7.775 0 00-3.212-.631 7.78 7.78 0 00-3.188.743 9.265 9.265 0 00-4.16 5.088 9.73 9.73 0 00-.544 1.6 15.078 15.078 0 00-.464 1.6 34.182 34.182 0 00-.56 3.44 57.379 57.379 0 00.272 14.048 120.712 120.712 0 007.216 27.712 201.458 201.458 0 0012.32 26.512A145.014 145.014 0 00952 459.4l8.176 12.512.096.144-.368-.192 14.944-.56c4.942-.046 9.877-.367 14.784-.96a199.728 199.728 0 0028.798-5.376 120.345 120.345 0 0026.75-10.24 57.475 57.475 0 0011.6-8 27.999 27.999 0 004.58-5.184 9.147 9.147 0 001.71-6.4 7.668 7.668 0 00-1.24-3.042 7.769 7.769 0 00-2.39-2.254c-1.91-1.224-4-2.146-6.19-2.736a73.45 73.45 0 00-13.44-2.256l-6.77-.656a34.112 34.112 0 01-6.74-1.152 2.87 2.87 0 01-1.6-1.104 1.45 1.45 0 01-.12-.544 1.68 1.68 0 010-.448 3.48 3.48 0 010-.912c.12-.598.36-1.164.71-1.665.35-.501.8-.925 1.32-1.247a32.148 32.148 0 016.16-2.768 160.593 160.593 0 0023.47-11.392 64.902 64.902 0 0010.27-7.488c3.06-2.816 5.86-6.176 6.66-10.176.39-1.972.1-4.021-.82-5.808a13.143 13.143 0 00-3.92-4.464 37.652 37.652 0 00-10.81-5.216c-3.79-1.202-7.64-2.19-11.54-2.96l-5.78-1.168a7.96 7.96 0 01-2.84-1.088 2.809 2.809 0 01-1.19-2.88c.32-.96.83-1.843 1.52-2.59a7.208 7.208 0 012.43-1.746l4.9-2.96 9.6-5.808 18.62-11.2c5.99-3.744 12.28-6.784 17.01-11.536a18.888 18.888 0 005.23-8.128c.42-1.527.52-3.121.31-4.688a9.737 9.737 0 00-1.6-4.32 8.102 8.102 0 00-3.6-2.704c-1.41-.582-2.88-.99-4.39-1.216a71.434 71.434 0 00-9-.624c-1.49 0-2.96-.096-4.44-.24a7.848 7.848 0 01-4.2-1.392 5.24 5.24 0 01-1.76-3.968c-.03-1.439.21-2.87.7-4.224 4.53-6.624 8.43-13.184 12.06-19.376 3.64-6.192 6.87-12.112 9.81-17.6 5.89-11.088 10.91-20.608 13.25-28.992a40.086 40.086 0 001.6-11.312 18.497 18.497 0 00-1.89-8 10.95 10.95 0 00-3.2-3.872c-.46-.35-.95-.65-1.47-.896.54.205 1.05.485 1.52.832a10.958 10.958 0 013.31 3.872 18.676 18.676 0 011.97 8.096c.03 3.855-.51 7.694-1.6 11.392-2.3 8.432-7.31 18-13.15 29.088a520.844 520.844 0 01-9.78 17.696c-3.6 6.224-7.5 12.8-12.05 19.44a11.587 11.587 0 00-.65 4c-.01.679.14 1.351.41 1.972.28.62.68 1.175 1.19 1.628a7.218 7.218 0 003.92 1.264c1.44.128 2.91.176 4.4.224 3.03.012 6.06.22 9.07.624 1.56.222 3.09.642 4.54 1.248a8.582 8.582 0 013.83 2.88 11.718 11.718 0 011.72 4.602 11.6 11.6 0 01-.33 4.902 19.49 19.49 0 01-5.36 8.416c-4.8 4.8-11.2 7.888-17.12 11.648l-18.59 11.2-9.6 5.824-4.9 2.96c-.82.439-1.58.976-2.27 1.6a4.79 4.79 0 00-1.34 2.288c-.09.41-.05.837.11 1.223.17.387.44.714.8.937.78.502 1.67.834 2.59.976l5.76 1.168c3.93.764 7.8 1.752 11.62 2.96a38.106 38.106 0 0111.02 5.312 13.924 13.924 0 014.16 4.72 9.59 9.59 0 01.86 6.272c-.45 2.1-1.34 4.08-2.62 5.808a30.206 30.206 0 01-4.27 4.8 66.766 66.766 0 01-10.39 7.6 160.343 160.343 0 01-23.58 11.456c-2.08.69-4.09 1.591-5.98 2.688-.44.263-.82.611-1.11 1.024-.3.412-.51.88-.62 1.376-.03.25-.03.502 0 .752-.03.175-.03.356.02.527.05.172.14.33.26.463s.26.237.43.304c.16.067.34.095.52.082 2.14.589 4.33.964 6.54 1.12l6.77.64c4.6.337 9.15 1.103 13.6 2.288a23.13 23.13 0 016.4 2.832 8.673 8.673 0 012.62 2.502 8.678 8.678 0 011.35 3.354 9.937 9.937 0 01-1.84 6.88 28.698 28.698 0 01-4.7 5.36 58.604 58.604 0 01-11.75 8 121.533 121.533 0 01-26.94 10.32 201.15 201.15 0 01-28.882 5.408c-4.917.593-9.864.913-14.816.96l-14.96.576h-.24l-.128-.192-.096-.144-8.176-12.544a142.554 142.554 0 01-7.792-12.64 201.389 201.389 0 01-12.384-26.624 121.498 121.498 0 01-7.248-27.904 58.229 58.229 0 01-.256-14.256c.12-1.179.313-2.349.576-3.504.122-.584.277-1.161.464-1.728.153-.578.346-1.144.576-1.696a9.95 9.95 0 014.528-5.488 8.53 8.53 0 017.072-.16 23.193 23.193 0 016.048 3.568 74.695 74.695 0 019.744 9.728l4.464 5.12a34.277 34.277 0 004.704 4.688c.351.301.787.485 1.248.528.212-.076.412-.184.592-.32.217-.127.416-.284.592-.464a3.753 3.753 0 00.96-2.8 32.322 32.322 0 00-1.296-6.4 163.406 163.406 0 01-4.4-25.84 67.663 67.663 0 01.144-12.8 29.769 29.769 0 011.392-6.24 15.208 15.208 0 013.2-5.504 9.597 9.597 0 015.616-2.96c2.1-.268 4.234-.055 6.24.624a38.064 38.064 0 0110.736 5.888 104.785 104.785 0 019.168 7.728l4.3 4c.65.685 1.43 1.23 2.29 1.6a2.053 2.053 0 002.31-.496c.58-.684.95-1.523 1.07-2.416.13-.924.13-1.86 0-2.784-.15-1.92-.29-3.808-.43-5.696-.29-3.792-.58-7.52-.87-11.2-.55-7.392-1.09-14.613-1.6-21.664-.4-7.04-1.6-13.968-.48-20.72a19.652 19.652 0 013.73-9.248 11.72 11.72 0 018.53-4.416 8.9 8.9 0 014.59 1.44 20 20 0 013.65 2.96c2.06 2.172 4 4.464 5.79 6.864.9 1.184 1.79 2.352 2.74 3.456a7.15 7.15 0 003.31 2.448c.66.152 1.34.159 2.01.021a4.73 4.73 0 001.83-.821 10.882 10.882 0 002.88-2.864c2.8-7.584 5.89-14.576 8.83-21.152 2.94-6.576 5.92-12.64 8.74-18.256 5.64-11.2 10.51-20.88 16.09-27.648a38.926 38.926 0 018.45-7.84 18.271 18.271 0 017.82-2.928c1.71-.199 3.44-.008 5.06.56.53.209 1.04.483 1.5.816z" fill="#263238"/><path d="M1082.56 234.6c-.07.216-.16.425-.27.624l-.91 1.824-3.54 6.944-13.15 25.472-43.06 84.208c-16.75 32.928-31.998 62.656-43.31 84.096l-13.424 25.328-3.712 6.848-.976 1.776a3.182 3.182 0 01-.368.576c.075-.214.166-.423.272-.624.224-.448.528-1.056.896-1.824.848-1.6 2.032-3.968 3.552-6.928 3.2-6.064 7.616-14.768 13.152-25.472 11.104-21.52 26.308-51.296 43.058-84.224 16.75-32.928 32-62.656 43.31-84.08l13.42-25.328 3.7-6.864.99-1.76c.1-.212.22-.41.37-.592z" fill="#263238"/><path d="M1075.28 314.6c-2 1.046-4.07 1.96-6.19 2.736l-15.04 6.4c-5.86 2.496-11.2 4.72-15.11 6.192-1.96.752-3.55 1.312-4.67 1.6-.57.234-1.16.385-1.77.448 0-.128 2.35-1.088 6.19-2.752l14.99-6.4c5.87-2.48 11.2-4.624 15.15-6.08 1.97-.72 3.57-1.28 4.67-1.6.57-.27 1.16-.454 1.78-.544zm-44.51 15.744c-.24.096-4.58-11.008-9.6-24.8-5.03-13.792-9.01-25.056-8.77-25.152.24-.096 4.59 11.024 9.6 24.816s9.02 25.056 8.77 25.136zm-26.82 59.456s-.51-.432-1.29-1.328c-.79-.896-1.89-2.224-3.205-3.888-2.656-3.344-6.224-8-9.872-13.456-3.648-5.456-6.736-10.448-8.848-14.16a110.663 110.663 0 01-2.416-4.448 6.425 6.425 0 01-.752-1.696 60.752 60.752 0 013.76 5.792c2.256 3.616 5.408 8.592 9.056 13.968 3.648 5.376 7.104 10.128 9.6 13.568a57.466 57.466 0 013.967 5.648zm43.39-5.392c-2.07.512-4.18.865-6.3 1.056-3.9.512-9.31 1.184-15.28 1.84-5.97.656-11.39 1.232-15.33 1.6-2.12.285-4.26.408-6.4.368 2.07-.521 4.17-.874 6.29-1.056 3.92-.528 9.33-1.184 15.3-1.856 5.96-.672 11.39-1.216 15.32-1.6 2.12-.29 4.26-.408 6.4-.352zm-16.94 55.504c-.7.221-1.43.361-2.16.416l-5.94.768c-5 .592-11.95 1.36-19.61 2.144-7.667.784-14.627 1.44-19.651 1.872l-5.968.448c-.734.08-1.474.08-2.208 0a10.322 10.322 0 012.16-.416l5.936-.752c5.024-.608 11.952-1.376 19.631-2.16 7.68-.784 14.61-1.44 19.65-1.856l5.97-.464c.73-.08 1.46-.08 2.19 0zm-54.304 5.168a9.153 9.153 0 01-1.6-1.792c-.944-1.184-2.256-2.944-3.856-5.12-3.2-4.384-7.472-10.528-11.904-17.488-4.432-6.96-8.241-13.424-10.865-18.16a171.455 171.455 0 01-3.039-5.648 10.61 10.61 0 01-.977-2.144c.5.607.94 1.26 1.312 1.952l3.296 5.488c2.768 4.64 6.64 11.04 11.088 17.984 4.448 6.944 8.625 13.136 11.649 17.6l3.6 5.296c.5.631.934 1.312 1.296 2.032z" fill="#263238"/><mask id="b" fill="#fff"><path d="M968.816 568.168c-21.952-28.176-17.12-66.416-5.952-98.704 1.856-5.392 3.04-11.312 7.104-15.296s11.104-5.376 15.28-1.6c3.456 3.2 3.76 8.4 4.8 12.992a33.3 33.3 0 009.008 16.128c2.914 2.864 6.864 5.296 10.864 4.464 5.5-1.152 8-7.472 9.7-12.896 3.04-10.112 6.08-20.245 9.13-30.4 1.6-5.424 3.33-10.96 6.59-15.584 3.27-4.624 8.47-8.256 14.07-8.112 5.6.144 11.05 5.088 10.51 10.72a53.524 53.524 0 01-1.92 6.8c-.54 2.288-.27 5.104 1.68 6.4 1.95 1.296 4.59.432 6.7-.656 7.28-3.744 13.25-9.6 18.95-15.536 5.69-5.936 11.36-12.016 18.27-16.416s15.38-6.976 23.28-5.024 14.67 9.296 14.29 17.504c-.39 8.208-7.23 14.624-13.99 19.312a127.31 127.31 0 01-32.52 16.336 10.448 10.448 0 00-5.62 3.2c-2.29 3.2 0 7.888 3.2 10.176 3.62 2.592 8.13 3.52 12.21 5.328 4.08 1.808 8 5.072 8.43 9.6.51 6.224-5.9 10.592-11.63 12.992a108.287 108.287 0 01-36.11 8.24c-4.44.24-9.03.224-13.09 2.032-4.07 1.808-7.52 6.08-6.75 10.496.76 4.416 5.37 7.168 9.77 7.68 4.4.512 8.85-.608 13.3-.88 8.3-.512 17.76 2.96 20.54 10.864 1.83 5.2.29 11.2-2.85 15.728a41.354 41.354 0 01-12.33 10.848 109.067 109.067 0 01-54.11 17.6c-19.11.656-35.604-2.656-50.836-14.224"/></mask><path d="M968.816 568.168c-21.952-28.176-17.12-66.416-5.952-98.704 1.856-5.392 3.04-11.312 7.104-15.296s11.104-5.376 15.28-1.6c3.456 3.2 3.76 8.4 4.8 12.992a33.3 33.3 0 009.008 16.128c2.914 2.864 6.864 5.296 10.864 4.464 5.5-1.152 8-7.472 9.7-12.896 3.04-10.112 6.08-20.245 9.13-30.4 1.6-5.424 3.33-10.96 6.59-15.584 3.27-4.624 8.47-8.256 14.07-8.112 5.6.144 11.05 5.088 10.51 10.72a53.524 53.524 0 01-1.92 6.8c-.54 2.288-.27 5.104 1.68 6.4 1.95 1.296 4.59.432 6.7-.656 7.28-3.744 13.25-9.6 18.95-15.536 5.69-5.936 11.36-12.016 18.27-16.416s15.38-6.976 23.28-5.024 14.67 9.296 14.29 17.504c-.39 8.208-7.23 14.624-13.99 19.312a127.31 127.31 0 01-32.52 16.336 10.448 10.448 0 00-5.62 3.2c-2.29 3.2 0 7.888 3.2 10.176 3.62 2.592 8.13 3.52 12.21 5.328 4.08 1.808 8 5.072 8.43 9.6.51 6.224-5.9 10.592-11.63 12.992a108.287 108.287 0 01-36.11 8.24c-4.44.24-9.03.224-13.09 2.032-4.07 1.808-7.52 6.08-6.75 10.496.76 4.416 5.37 7.168 9.77 7.68 4.4.512 8.85-.608 13.3-.88 8.3-.512 17.76 2.96 20.54 10.864 1.83 5.2.29 11.2-2.85 15.728a41.354 41.354 0 01-12.33 10.848 109.067 109.067 0 01-54.11 17.6c-19.11.656-35.604-2.656-50.836-14.224" fill="#EAFF8C"/><path d="M962.864 469.464l.945.327v-.001l-.945-.326zm22.384-16.896l.679-.734-.009-.008-.67.742zm4.8 12.992l-.976.221.002.006.974-.227zm9.008 16.128l-.704.711.002.002.702-.713zm10.864 4.464l.2.979-.2-.979zm9.7-12.896l.95.299v-.011l-.95-.288zm9.13-30.4l.96.288v-.005l-.96-.283zm31.17-12.976l.98.209.01-.056v-.057l-.99-.096zm-1.92 6.8l-.94-.333-.02.05-.01.052.97.231zm8.38 5.744l-.45-.889.45.889zm60.8-.16l-.57-.821v.001l.57.82zm-32.52 16.336l.2.979.06-.012.05-.018-.31-.949zm-5.62 3.2l-.74-.673-.04.044-.03.047.81.582zm3.2 10.176l.58-.813-.58.813zm20.64 14.928l1-.082v-.013l-1 .095zm-11.63 12.992l.38.923v-.001l-.38-.922zm-36.11 8.24l-.06-.999v.001l.06.998zm3.23 19.328l.06.998-.06-.998zm20.54 10.864l.95-.331-.01-.001-.94.332zm-2.85 15.728l.8.605.01-.017.02-.019-.83-.569zm-12.33 10.848l-.5-.867-.03.014-.02.016.55.837zm-54.11 17.6l.03.999h.02l-.05-.999zm-50.016-14.95c-21.619-27.75-16.941-65.54-5.795-97.763l-1.891-.654c-11.19 32.353-16.176 71.043 6.109 99.646l1.577-1.229zm-5.795-97.764c.965-2.804 1.677-5.493 2.71-8.138 1.011-2.589 2.26-4.918 4.149-6.77l-1.4-1.428c-2.175 2.132-3.551 4.755-4.612 7.47-1.038 2.659-1.847 5.626-2.738 8.215l1.891.651zm6.859-14.908c1.876-1.84 4.453-3.087 7.03-3.433 2.573-.345 5.059.215 6.879 1.861l1.341-1.484c-2.356-2.13-5.478-2.762-8.485-2.359-3.003.402-5.978 1.843-8.165 3.987l1.4 1.428zm13.9-1.58c1.535 1.421 2.408 3.318 3.023 5.51.307 1.095.544 2.242.772 3.421.226 1.166.445 2.379.709 3.548l1.951-.442c-.255-1.127-.464-2.286-.696-3.486-.23-1.188-.48-2.402-.811-3.581-.661-2.356-1.667-4.658-3.589-6.438l-1.359 1.468zm4.506 12.485a34.306 34.306 0 009.278 16.612l1.407-1.422a32.303 32.303 0 01-8.737-15.643l-1.948.453zm9.28 16.614c2.966 2.918 7.256 5.67 11.766 4.73l-.4-1.958c-3.49.725-7.11-1.388-9.963-4.198l-1.403 1.426zm11.766 4.73c3.12-.652 5.32-2.76 6.92-5.289 1.6-2.521 2.68-5.565 3.53-8.287l-1.91-.597c-.84 2.701-1.86 5.529-3.31 7.812-1.44 2.275-3.25 3.903-5.64 4.403l.41 1.958zm10.45-13.587c3.04-10.112 6.09-20.245 9.14-30.4l-1.92-.576c-3.05 10.155-6.09 20.288-9.13 30.4l1.91.576zm9.14-30.405c1.61-5.439 3.3-10.82 6.45-15.29l-1.63-1.154c-3.38 4.778-5.14 10.469-6.74 15.878l1.92.566zm6.45-15.29c3.15-4.461 8.07-7.822 13.22-7.689l.05-2c-6.05-.155-11.52 3.748-14.9 8.535l1.63 1.154zm13.22-7.689c2.53.065 5.05 1.218 6.89 3.016 1.83 1.794 2.89 4.155 2.65 6.608l1.99.192c.31-3.179-1.08-6.106-3.24-8.228-2.16-2.118-5.16-3.508-8.24-3.588l-.05 2zm9.56 9.511a53.262 53.262 0 01-1.88 6.676l1.88.667a55.48 55.48 0 001.96-6.925l-1.96-.418zm-1.91 6.778c-.3 1.258-.39 2.686-.1 4.01.28 1.329.94 2.622 2.2 3.454l1.1-1.666c-.7-.464-1.14-1.227-1.35-2.202-.21-.98-.15-2.104.09-3.134l-1.94-.462zm2.1 7.464c1.25.833 2.68.935 4 .72 1.32-.214 2.61-.754 3.71-1.32l-.91-1.778c-1.02.522-2.1.958-3.12 1.124-1.01.165-1.88.051-2.58-.412l-1.1 1.666zm7.71-.6c7.45-3.828 13.51-9.798 19.21-15.733l-1.44-1.384c-5.7 5.937-11.57 11.679-18.68 15.339l.91 1.778zm19.21-15.733c5.72-5.962 11.3-11.942 18.09-16.264l-1.08-1.687c-7.03 4.477-12.78 10.657-18.45 16.567l1.44 1.384zm18.09-16.264c6.77-4.315 14.95-6.76 22.5-4.897l.48-1.942c-8.26-2.04-17.01.666-24.06 5.152l1.08 1.687zm22.5-4.897c7.55 1.864 13.89 8.858 13.53 16.486l2 .094c.41-8.788-6.79-16.482-15.05-18.522l-.48 1.942zm13.53 16.486c-.36 7.685-6.81 13.853-13.56 18.538l1.14 1.643c6.76-4.692 14.01-11.355 14.42-20.087l-2-.094zm-13.56 18.539a126.16 126.16 0 01-32.27 16.207l.63 1.898c11.66-3.89 22.7-9.434 32.79-16.465l-1.15-1.64zm-32.16 16.177a11.442 11.442 0 00-6.15 3.506l1.48 1.346a9.427 9.427 0 015.08-2.894l-.41-1.958zm-6.22 3.597c-1.4 1.952-1.35 4.298-.59 6.358.76 2.056 2.26 3.959 4.02 5.214l1.16-1.627c-1.44-1.034-2.69-2.619-3.3-4.279-.61-1.656-.56-3.254.33-4.502l-1.62-1.164zm3.43 11.571c1.91 1.374 4.05 2.291 6.16 3.082 2.15.806 4.22 1.458 6.22 2.347l.81-1.828c-2.07-.919-4.3-1.635-6.33-2.393-2.07-.773-4-1.616-5.7-2.834l-1.16 1.626zm12.38 5.429c3.97 1.76 7.46 4.802 7.84 8.781l2-.19c-.49-5.077-4.84-8.563-9.03-10.419l-.81 1.828zm7.84 8.768c.23 2.709-1.04 5.081-3.17 7.127-2.13 2.052-5.05 3.686-7.85 4.861l.77 1.844c2.93-1.225 6.09-2.975 8.47-5.263 2.38-2.294 4.07-5.218 3.78-8.733l-2 .164zm-11.02 11.988a107.274 107.274 0 01-35.78 8.163l.11 1.998a109.268 109.268 0 0036.44-8.316l-.77-1.845zm-35.78 8.164c-4.33.234-9.16.214-13.44 2.116l.81 1.828c3.86-1.714 8.21-1.702 12.74-1.947l-.11-1.997zm-13.44 2.116c-2.19.976-4.22 2.612-5.6 4.615-1.39 2.007-2.17 4.441-1.73 6.966l1.97-.342c-.33-1.891.24-3.801 1.4-5.486 1.17-1.689 2.9-3.092 4.77-3.925l-.81-1.828zm-7.33 11.581c.88 5.046 6.04 7.966 10.65 8.502l.23-1.986c-4.2-.488-8.25-3.072-8.91-6.858l-1.97.342zm10.65 8.502c2.31.27 4.61.107 6.85-.145 2.28-.257 4.43-.596 6.62-.73l-.12-1.996c-2.26.138-4.56.495-6.72.738-2.2.248-4.32.389-6.4.147l-.23 1.986zm13.47-.875c4-.247 8.27.47 11.85 2.18 3.57 1.708 6.41 4.376 7.69 8.018l1.88-.664c-1.5-4.262-4.78-7.282-8.71-9.158-3.92-1.874-8.53-2.637-12.83-2.372l.12 1.996zm19.54 10.197c1.69 4.812.28 10.478-2.73 14.828l1.65 1.138c3.26-4.706 4.93-11.04 2.97-16.628l-1.89.662zm-2.7 14.792a40.448 40.448 0 01-12.04 10.586l1 1.734c4.91-2.822 9.2-6.6 12.63-11.11l-1.59-1.21zm-12.09 10.616a108.017 108.017 0 01-53.61 17.438l.1 1.998a110.039 110.039 0 0054.6-17.762l-1.09-1.674zm-53.6 17.438c-18.95.651-35.198-2.634-50.192-14.021l-1.209 1.592c15.47 11.749 32.221 15.089 51.471 14.427l-.07-1.998z" fill="#000" fill-opacity=".5" mask="url(#b)"/><path d="M960.943 592.232a249.643 249.643 0 0122.608-41.92 508.77 508.77 0 0135.359-46.304l9.91-11.664c3.2-3.824 6.4-7.616 9.87-11.12a247.745 247.745 0 0120.62-19.056c6.85-5.744 13.55-10.944 19.87-15.776 6.32-4.832 12.31-9.168 17.92-12.912a201.36 201.36 0 0127.81-15.712c3.41-1.6 6.11-2.736 8-3.488l2.1-.848.72-.256s-.23.144-.69.352l-2.05.944c-1.81.816-4.46 2.032-7.85 3.664a213.792 213.792 0 00-27.57 16c-5.57 3.776-11.51 8.176-17.81 13.008-6.3 4.832-12.96 10.064-19.78 15.808a255.906 255.906 0 00-20.49 19.04c-3.38 3.488-6.56 7.248-9.83 11.072l-9.88 11.664a522.7 522.7 0 00-35.381 46.176 253.62 253.62 0 00-22.72 41.6" fill="#263238"/><path d="M1038.98 481.272c-.03-.831.04-1.662.19-2.48.17-1.6.51-3.856.96-6.672.89-5.632 2.4-13.36 4.08-21.888 1.68-8.528 3.09-16.24 3.89-21.872.41-2.816.73-5.088.92-6.672.05-.828.19-1.649.42-2.448.1.824.1 1.656 0 2.48 0 1.6-.27 3.904-.59 6.736-.63 5.664-1.91 13.456-3.6 21.984-1.7 8.528-3.2 16-4.39 21.808-.51 2.624-.94 4.8-1.28 6.608-.1.828-.3 1.639-.6 2.416z" fill="#263238"/><path d="M1112.62 489.72c-.97-.084-1.94-.261-2.88-.528-1.82-.384-4.48-.96-7.79-1.6-6.57-1.28-15.74-2.72-25.93-3.872-10.2-1.152-19.44-1.776-26.16-2.032-3.35-.16-6.07-.208-8-.256-.98.023-1.96-.036-2.93-.176.96-.179 1.94-.26 2.93-.24 1.88 0 4.6-.144 8 0 6.73 0 16 .592 26.25 1.728 8.72.963 17.39 2.367 25.97 4.208 3.3.704 5.92 1.392 7.74 1.92.96.191 1.9.475 2.8.848zM984.8 549.304a3.975 3.975 0 01-.224-.992c-.112-.784-.24-1.744-.4-2.896-.352-2.512-.768-6.144-1.216-10.656-.896-9.008-1.744-21.504-2.512-35.296-.768-13.792-1.488-26.272-2.192-35.296-.368-4.384-.656-8-.88-10.672-.08-1.168-.16-2.128-.224-2.912a4.177 4.177 0 010-1.024c.116.32.192.653.224.992.112.784.24 1.728.4 2.896.352 2.496.768 6.144 1.216 10.656.896 9.008 1.744 21.488 2.496 35.296s1.504 26.272 2.208 35.296c.368 4.384.656 8 .88 10.672 0 1.168.16 2.128.224 2.912.042.34.042.684 0 1.024z" fill="#263238"/><path d="M1086.53 548.008c-.34.072-.69.104-1.04.096h-2.96l-10.9.16c-9.21.128-21.92.464-35.95.848-14.03.384-26.78.608-35.984.544-4.608 0-8.336-.08-10.896-.176l-2.976-.128c-.345.01-.69-.027-1.024-.112a4.376 4.376 0 011.04-.096l2.96-.08 10.896-.144c9.204-.144 21.924-.48 35.954-.864 14.03-.384 26.77-.592 35.98-.544 4.59 0 8.32.096 10.9.176l2.96.128c.35.008.7.073 1.04.192z" fill="#263238"/><path d="M984.655 125.832H197.151v537.136h787.504V125.832z" fill="#fff"/><path d="M984.656 662.968c0-2.736-.144-210.112-.336-537.136l.336.336h-787.44l.416-.416v537.136l-.384-.384 787.504.384-787.6.512h-.352V125.464h788.24v.336c-.256 327.056-.384 534.4-.384 537.168z" fill="#263238"/><path d="M984.656 156.088c0 .24-176.24.416-393.6.416s-393.6-.176-393.6-.416 176.208-.416 393.6-.416c217.392 0 393.6.192 393.6.416zM220.608 141.8a4.068 4.068 0 01-2.509 3.755 4.068 4.068 0 01-4.429-.881 4.059 4.059 0 01.616-6.253 4.059 4.059 0 015.131.505 4.067 4.067 0 011.191 2.874zm11.152 0a4.068 4.068 0 01-2.509 3.755 4.068 4.068 0 01-4.429-.881 4.072 4.072 0 01-.881-4.429 4.07 4.07 0 013.755-2.509 4.066 4.066 0 014.064 4.064zm7.216 4.096a4.063 4.063 0 10.001-8.127 4.063 4.063 0 00-.001 8.127zm595.519 466.72a25.997 25.997 0 01-3.12 3.776c-2 2.256-4.8 5.344-8 8.72l-.304.32-.304-.304-.224-.224c-3.344-3.312-6.4-6.4-8.464-8.56a28.167 28.167 0 01-3.344-3.728c1.343.999 2.6 2.107 3.76 3.312a517.68 517.68 0 018.64 8.384l.224.224h-.592c3.2-3.392 6.048-6.4 8.16-8.56a31.4 31.4 0 013.568-3.36z" fill="#263238"/><path d="M644.384 196.408H328.432v2.992l-.432-3.664h-51.856v52.944h52.288v327.152h335.28V215.72a19.304 19.304 0 00-5.662-13.661 19.307 19.307 0 00-13.666-5.651z" fill="#FFEEDF"/><path d="M281.696 328.712h-26.688c-6.23 0-11.28 5.05-11.28 11.28v26.688c0 6.23 5.05 11.28 11.28 11.28h26.688c6.229 0 11.28-5.05 11.28-11.28v-26.688c0-6.23-5.051-11.28-11.28-11.28z" fill="#44D08D"/><path opacity=".3" d="M281.696 328.712h-26.688c-6.23 0-11.28 5.05-11.28 11.28v26.688c0 6.23 5.05 11.28 11.28 11.28h26.688c6.229 0 11.28-5.05 11.28-11.28v-26.688c0-6.23-5.051-11.28-11.28-11.28z" fill="#000"/><path d="M274.224 328.712h-26.688c-6.23 0-11.28 5.05-11.28 11.28v26.688c0 6.23 5.05 11.28 11.28 11.28h26.688c6.23 0 11.28-5.05 11.28-11.28v-26.688c0-6.23-5.05-11.28-11.28-11.28zm7.472-63.344h-26.688c-6.23 0-11.28 5.05-11.28 11.28v26.688c0 6.23 5.05 11.28 11.28 11.28h26.688c6.229 0 11.28-5.05 11.28-11.28v-26.688c0-6.23-5.051-11.28-11.28-11.28z" fill="#44D08D"/><path opacity=".3" d="M281.696 265.368h-26.688c-6.23 0-11.28 5.05-11.28 11.28v26.688c0 6.23 5.05 11.28 11.28 11.28h26.688c6.229 0 11.28-5.05 11.28-11.28v-26.688c0-6.23-5.051-11.28-11.28-11.28z" fill="#000"/><path d="M274.224 265.368h-26.688c-6.23 0-11.28 5.05-11.28 11.28v26.688c0 6.23 5.05 11.28 11.28 11.28h26.688c6.23 0 11.28-5.05 11.28-11.28v-26.688c0-6.23-5.05-11.28-11.28-11.28z" fill="#44D08D"/><path d="M277.776 357.528a31.542 31.542 0 00-3.488-4.688 17.983 17.983 0 00-25.232-1.008 31.336 31.336 0 00-3.84 4.4 4.47 4.47 0 01.688-1.44 16.155 16.155 0 012.768-3.392 17.977 17.977 0 0126.048 1.04 16.418 16.418 0 012.48 3.6c.281.457.476.961.576 1.488z" fill="#FFEEDF"/><path d="M267.072 355.992s0-.544-.352-1.472a6.405 6.405 0 00-2.272-3.2 5.954 5.954 0 00-5.552-.768 5.85 5.85 0 00-3.769 5.891 5.842 5.842 0 004.584 5.282 5.831 5.831 0 004.737-1.029 6.196 6.196 0 002.272-3.2c.272-.912.272-1.472.352-1.472a3.356 3.356 0 010 1.6 6.26 6.26 0 01-2.24 3.616 6.396 6.396 0 01-6.16 1.024 6.557 6.557 0 01-3.168-9.97 6.559 6.559 0 013.168-2.398 6.409 6.409 0 016.16 1.024 6.228 6.228 0 012.24 3.6c.111.485.111.988 0 1.472zm5.968-55.424a7.517 7.517 0 01-1.6.816 46.435 46.435 0 01-4.672 1.6 61.109 61.109 0 01-3.328.88c-.631.16-1.273.273-1.92.336a2.238 2.238 0 01-2.144-.816 2.819 2.819 0 01-.096-2.352l.528-2.16c.368-1.456.768-2.96 1.216-4.496a149.723 149.723 0 015.328-15.456c.784-1.936 1.488-3.472 1.968-4.544a9.114 9.114 0 01.864-1.6 6.57 6.57 0 01-.56 1.728 559.768 559.768 0 01-1.728 4.64c-1.44 3.904-3.328 9.344-5.072 15.456-.416 1.6-.832 3.024-1.232 4.48-.176.72-.368 1.44-.544 2.128a2.238 2.238 0 000 1.76 1.598 1.598 0 001.456.512 14.429 14.429 0 001.824-.304 44.461 44.461 0 003.312-.768c3.952-.976 6.336-1.968 6.4-1.84z" fill="#FFEEDF"/><path d="M281.696 391.688h-26.688c-6.23 0-11.28 5.05-11.28 11.28v26.688c0 6.23 5.05 11.28 11.28 11.28h26.688c6.229 0 11.28-5.05 11.28-11.28v-26.688c0-6.23-5.051-11.28-11.28-11.28z" fill="#44D08D"/><path opacity=".3" d="M281.696 391.688h-26.688c-6.23 0-11.28 5.05-11.28 11.28v26.688c0 6.23 5.05 11.28 11.28 11.28h26.688c6.229 0 11.28-5.05 11.28-11.28v-26.688c0-6.23-5.051-11.28-11.28-11.28z" fill="#000"/><path d="M274.224 391.688h-26.688c-6.23 0-11.28 5.05-11.28 11.28v26.688c0 6.23 5.05 11.28 11.28 11.28h26.688c6.23 0 11.28-5.05 11.28-11.28v-26.688c0-6.23-5.05-11.28-11.28-11.28z" fill="#44D08D"/><path d="M277.28 409.112c0 .176-2.224-.384-5.776-.608a13.386 13.386 0 00-6.032.976 8.196 8.196 0 00-2.88 2.064 12.409 12.409 0 01-2.944 2.912 6.396 6.396 0 01-4.192.272 6.23 6.23 0 00-3.488.176 8.175 8.175 0 00-4.256 4.112 24.036 24.036 0 00-1.488 3.952 6.082 6.082 0 01-.512 1.488 5.927 5.927 0 01.208-1.6c.252-1.42.671-2.806 1.248-4.128a8.67 8.67 0 014.528-4.576 6.972 6.972 0 013.888-.256 5.807 5.807 0 003.616-.096 12.216 12.216 0 002.736-2.72 8.726 8.726 0 013.2-2.224 13.307 13.307 0 016.4-.864c1.431.133 2.849.379 4.24.736.516.061 1.022.19 1.504.384zm-6.672 5.6c.125.326.174.676.144 1.024a9.604 9.604 0 01-.4 2.752 10.612 10.612 0 01-10.517 7.741 10.605 10.605 0 01-4.507-1.149 9.433 9.433 0 01-2.304-1.6c-.464-.464-.672-.768-.64-.8a26.78 26.78 0 003.2 1.84 10.518 10.518 0 0014.224-6.24 29.61 29.61 0 00.8-3.568z" fill="#FFEEDF"/><path d="M281.696 457.416h-26.688c-6.23 0-11.28 5.05-11.28 11.28v26.688c0 6.23 5.05 11.28 11.28 11.28h26.688c6.229 0 11.28-5.05 11.28-11.28v-26.688c0-6.23-5.051-11.28-11.28-11.28z" fill="#44D08D"/><path opacity=".3" d="M281.696 457.416h-26.688c-6.23 0-11.28 5.05-11.28 11.28v26.688c0 6.23 5.05 11.28 11.28 11.28h26.688c6.229 0 11.28-5.05 11.28-11.28v-26.688c0-6.23-5.051-11.28-11.28-11.28z" fill="#000"/><path d="M274.224 457.416h-26.688c-6.23 0-11.28 5.05-11.28 11.28v26.688c0 6.23 5.05 11.28 11.28 11.28h26.688c6.23 0 11.28-5.05 11.28-11.28v-26.688c0-6.23-5.05-11.28-11.28-11.28z" fill="#44D08D"/><path d="M273.472 472.664a29.619 29.619 0 00-2.192-2.8 13.169 13.169 0 00-8.416-4.192 10.179 10.179 0 00-11.088 6.832 21.262 21.262 0 00.544 16.944 17.431 17.431 0 005.584 6.912 8.287 8.287 0 003.84 1.6 6.898 6.898 0 003.84-.768 14.172 14.172 0 005.312-5.248 21.417 21.417 0 002.704-6.144 23.832 23.832 0 00.608-9.6c-.32-2.272-.768-3.488-.688-3.52.161.274.279.571.352.88.296.843.516 1.71.656 2.592a23.41 23.41 0 01-.352 9.808 22.57 22.57 0 01-2.64 6.304 14.924 14.924 0 01-5.552 5.568 7.615 7.615 0 01-4.272.88 9.136 9.136 0 01-4.224-1.6 18.052 18.052 0 01-5.872-7.232 21.826 21.826 0 01-.496-17.6 11.778 11.778 0 015.088-5.968 11.505 11.505 0 016.768-1.136 13.265 13.265 0 018.592 4.544 11.909 11.909 0 011.6 2.192c.136.235.239.488.304.752z" fill="#FFEEDF"/><path d="M250.896 485.8s-.192.16-.528.384c-.481.369-.989.7-1.52.992-.442.2-.937.245-1.408.128a3.204 3.204 0 01-1.344-.848 5.102 5.102 0 01-1.456-3.104 4.061 4.061 0 011.008-3.328 2.78 2.78 0 012.864-.272c1.6.64 1.904 1.696 1.808 1.712a7.835 7.835 0 00-2-1.168 2.284 2.284 0 00-2.144.288 3.56 3.56 0 00-.704 2.688c.192 2.032 1.904 3.952 3.2 3.344.64-.224 1.184-.576 1.6-.72.416-.144.624-.096.624-.096zm22.976 0s.256 0 .64.112.864.528 1.456.736c.592.208 1.184-.096 1.696-.8a5.07 5.07 0 00.96-2.592 4.1 4.1 0 00-.544-2.608 1.604 1.604 0 00-1.888-.352 6.423 6.423 0 00-1.808 1.168c-.08 0 .192-1.04 1.6-1.728a3.07 3.07 0 011.264-.256 1.962 1.962 0 011.424.672c.643.936.921 2.074.784 3.2a5.442 5.442 0 01-1.184 2.992 3 3 0 01-1.168.928 1.6 1.6 0 01-1.36 0 10.16 10.16 0 01-1.392-.992c-.304-.272-.496-.368-.48-.48z" fill="#FFEEDF"/><path d="M281.696 528.088h-26.688c-6.23 0-11.28 5.05-11.28 11.28v26.688c0 6.23 5.05 11.28 11.28 11.28h26.688c6.229 0 11.28-5.05 11.28-11.28v-26.688c0-6.23-5.051-11.28-11.28-11.28z" fill="#44D08D"/><path opacity=".3" d="M281.696 528.088h-26.688c-6.23 0-11.28 5.05-11.28 11.28v26.688c0 6.23 5.05 11.28 11.28 11.28h26.688c6.229 0 11.28-5.05 11.28-11.28v-26.688c0-6.23-5.051-11.28-11.28-11.28z" fill="#000"/><path d="M274.224 528.088h-26.688c-6.23 0-11.28 5.05-11.28 11.28v26.688c0 6.23 5.05 11.28 11.28 11.28h26.688c6.23 0 11.28-5.05 11.28-11.28v-26.688c0-6.23-5.05-11.28-11.28-11.28z" fill="#44D08D"/><path d="M275.024 567.704a7.153 7.153 0 01-.256-1.12c-.16-.8-.368-1.84-.624-3.2-.512-2.768-1.248-6.656-2.16-11.488l-.097-.464.465.16 4.8 1.6-.384.192 2.64-7.664.224.448-12.576-4.24.528-.288a6.757 6.757 0 01-1.904 3.472 5.955 5.955 0 01-3.808 1.6 5.106 5.106 0 01-3.952-1.472 16.379 16.379 0 01-2.48-3.408l.544.16-3.344 1.696-8.96 4.512.176-.56 4.16 7.696-.512-.176 5.568-2.4.528-.224v.56c.08 2.912.176 5.696.256 8.336 0 1.328 0 2.608.08 3.856V569a.122.122 0 000 .08.331.331 0 01-.109.08.312.312 0 01-.131.028.313.313 0 01-.24-.108l-.4-.464h.64l15.536-.704 4.304-.176h1.6s-.464 0-1.424.144l-4.225.32-15.727 1.056v-.32h-.304v-3.504c0-1.248-.08-2.528-.112-3.84-.112-2.64-.208-5.44-.32-8.352l.528.336-5.552 2.448-.336.144-.177-.32c-1.344-2.496-2.751-5.056-4.175-7.696l-.208-.368.383-.192 8.897-4.528 3.328-1.696.352-.176.192.336a15.983 15.983 0 002.336 3.2 4.228 4.228 0 003.36 1.264 5.189 5.189 0 003.296-1.312 5.833 5.833 0 001.6-3.056l.112-.432.416.144 12.544 4.32.336.112-.128.336c-.976 2.736-1.888 5.312-2.736 7.648l-.096.304-.304-.112-4.8-1.696.368-.32c.8 4.928 1.44 8.896 1.888 11.728.208 1.28.352 2.32.48 3.088.128.768.112.976.096.96z" fill="#FFEEDF"/><path d="M280.416 198.824h-26.688c-6.23 0-11.28 5.05-11.28 11.28v26.688c0 6.23 5.05 11.28 11.28 11.28h26.688c6.23 0 11.28-5.05 11.28-11.28v-26.688c0-6.23-5.05-11.28-11.28-11.28z" fill="#455A64"/><path d="M255.999 225.816a29.058 29.058 0 002.768 7.056 15.625 15.625 0 005.648 5.712 6.772 6.772 0 004.48.784 8.986 8.986 0 004.336-2.448 17.596 17.596 0 004.8-8.576 20.6 20.6 0 00.368-8.144 32.027 32.027 0 00-2.304-7.216 7.981 7.981 0 011.088 1.76 20.171 20.171 0 011.6 13.744 18.106 18.106 0 01-4.96 9.008 9.76 9.76 0 01-4.8 2.64 7.506 7.506 0 01-5.008-.912 15.65 15.65 0 01-5.792-6.096 19.432 19.432 0 01-2-5.28 7.136 7.136 0 01-.224-2.032z" fill="#FFEEDF"/><path d="M276.144 212.296c.057.269.057.547 0 .816a8.84 8.84 0 01-.384 2.288 10.787 10.787 0 01-4.992 6.24l-.528.304v-.608c0-.624-.112-1.28-.16-1.952l.752.16a11.342 11.342 0 01-7.216 5.6l-.624.144.128-.624c.24-1.04.464-2.048.672-2.992l.608.336a19.636 19.636 0 01-5.632 3.728 7.107 7.107 0 01-2.464.768 28.926 28.926 0 007.584-5.024l.864-.832-.24 1.168c-.192.96-.4 1.968-.608 3.024l-.48-.48a10.838 10.838 0 006.704-5.2l.656-1.216.096 1.376c0 .672.096 1.328.128 1.952l-.56-.304a10.91 10.91 0 004.912-5.728c.672-1.792.656-2.96.784-2.944z" fill="#FFEEDF"/><path d="M262.256 238.568s-.144.08-.448.16c-.456.066-.92.066-1.376 0a5.676 5.676 0 01-4.336-2.672l.48-.112c0 .512-.08 1.04-.112 1.6v.496l-.464-.24a6.241 6.241 0 01-2.512-3.776h.64a79.454 79.454 0 01-.704 1.92l-.256.736-.384-.688a23.746 23.746 0 013.6-27.456 14.19 14.19 0 018.768-5.008 6.797 6.797 0 016.112 2.8 4.35 4.35 0 01.72 1.728v.656a7.062 7.062 0 00-1.008-2.208 6.581 6.581 0 00-5.808-2.384 13.827 13.827 0 00-8.256 4.944 23.436 23.436 0 00-3.536 26.592h-.64l.736-1.92.416-1.088.224 1.136a5.792 5.792 0 002.176 3.44l-.448.208.176-1.6.08-.8.4.704a5.501 5.501 0 003.92 2.656 10.92 10.92 0 001.84.176z" fill="#FFEEDF"/><path d="M275.711 233.96a1.784 1.784 0 00.8 1.136 1.968 1.968 0 001.6.208 3.625 3.625 0 001.728-1.312 17.231 17.231 0 002.784-12.8 26.052 26.052 0 00-2.176-7.088 10.591 10.591 0 00-3.648-4.624 5.553 5.553 0 00-3.808-.832c-.482.116-.958.26-1.424.432 0 0 .368-.464 1.36-.752a5.585 5.585 0 014.176.656 10.735 10.735 0 014 4.8 25.21 25.21 0 012.32 7.28 17.115 17.115 0 01-.223 6.964 17.117 17.117 0 01-2.977 6.3 3.95 3.95 0 01-2.064 1.392 2.236 2.236 0 01-1.856-.384c-.864-.656-.624-1.44-.592-1.376zM934.64 458.152h-83.792c-9.164 0-16.592 7.429-16.592 16.592v83.792c0 9.164 7.428 16.592 16.592 16.592h83.792c9.163 0 16.592-7.428 16.592-16.592v-83.792c0-9.163-7.429-16.592-16.592-16.592z" fill="#FFEEDF"/><path d="M869.44 528.216a13.2 13.2 0 01-12.288-13.616 16.454 16.454 0 01-9.977-16.527 16.45 16.45 0 0112.601-14.625 18.867 18.867 0 0123.617-18.859 18.867 18.867 0 019.711 6.155 17.414 17.414 0 019.191-4.817 17.405 17.405 0 0120.489 18.257 15.874 15.874 0 0113.697 14.854 15.873 15.873 0 01-11.985 16.266 17.411 17.411 0 01-7.928 19.831 17.405 17.405 0 01-21.176-2.775" fill="#263238"/><path d="M858.736 508.952s-.816-.304-1.424-1.6a4.085 4.085 0 01-.272-2.432 4.387 4.387 0 011.712-2.656v.672a6.898 6.898 0 01-2.992-2.592 6.737 6.737 0 01-1.056-4.384 6.85 6.85 0 011.392-3.408 4.464 4.464 0 012.704-1.904 11.999 11.999 0 00-2.224 2.256 6.642 6.642 0 00-1.104 3.2 6.24 6.24 0 00.992 3.872 6.394 6.394 0 002.608 2.336l.64.288-.576.384a3.744 3.744 0 00-1.424 4.272c.281.6.624 1.168 1.024 1.696z" fill="#455A64"/><path d="M894.96 569.112c7.904.32 14.592-6.624 15.104-18.8l2.384-57.6a4.947 4.947 0 00-4.576-4.896l-24.544-1.872a14.896 14.896 0 00-16 14.4c-.32 9.424-.336 20.928.992 27.904 2.656 14.048 13.52 15.52 13.52 15.52l-.576 10.256a14.404 14.404 0 003.714 10.409 14.389 14.389 0 009.998 4.711l-.016-.032z" fill="#FFBE9D"/><path d="M872.288 507.608a1.823 1.823 0 001.792 1.776 1.736 1.736 0 001.268-.465 1.738 1.738 0 00.556-1.231 1.822 1.822 0 00-1.792-1.776 1.736 1.736 0 00-1.268.465 1.738 1.738 0 00-.556 1.231z" fill="#263238"/><path d="M869.984 506.216c.224.24 1.6-.816 3.52-.864 1.92-.048 3.392.88 3.6.624.208-.256-.144-.528-.768-.96a5.108 5.108 0 00-2.896-.8 4.909 4.909 0 00-2.8.992c-.576.48-.768.912-.656 1.008zm21.583 1.392a1.812 1.812 0 001.792 1.776 1.726 1.726 0 001.808-1.696 1.822 1.822 0 00-1.792-1.776 1.721 1.721 0 00-1.659 1.026 1.72 1.72 0 00-.149.67z" fill="#263238"/><path d="M889.12 506.024c.24.224 1.6-.832 3.52-.88 1.92-.048 3.408.88 3.6.64.192-.24-.128-.528-.768-.96a4.919 4.919 0 00-2.896-.8 4.695 4.695 0 00-2.8.992c-.576.48-.768.912-.656 1.008zm-6.64 14.64a12.423 12.423 0 00-3.2-.48c-.512 0-.976-.112-1.072-.448a2.523 2.523 0 01.288-1.488c.432-1.216.88-2.496 1.36-3.824a63.835 63.835 0 003.008-10 65.273 65.273 0 00-3.808 9.728l-1.296 3.856c-.3.605-.369 1.3-.192 1.952a1.243 1.243 0 00.832.704c.279.059.563.091.848.096 1.077.11 2.163.077 3.232-.096z" fill="#263238"/><path d="M881.824 543.736a35.824 35.824 0 0018.736-5.6s-4.8 9.904-18.928 9.008l.192-3.408zm1.631-16.336a1.717 1.717 0 01-.057-2.013 1.706 1.706 0 011.897-.675 1.056 1.056 0 010-1.312 1.415 1.415 0 011.248-.576c.48.037.935.227 1.296.544a2.98 2.98 0 011.041 2.223 2.975 2.975 0 01-5.425 1.729" fill="#EB996E"/><path d="M888.256 521.848c-.32 0-.272 2.096-2.032 3.648s-4.016 1.392-4.032 1.68c-.016.288.528.4 1.472.4a5.3 5.3 0 003.36-1.28 4.564 4.564 0 001.6-3.072c.016-.88-.224-1.392-.368-1.376zm-.112-19.2c.208.512 2.144.208 4.432.416 2.288.208 4.16.784 4.448.288.128-.224-.208-.72-.96-1.2a7.356 7.356 0 00-3.328-1.056 7.265 7.265 0 00-3.44.512c-.832.352-1.296.784-1.152 1.04zm-17.616-2.08c.352.432 1.6 0 3.296-.128 1.696-.128 2.992.208 3.28-.272.144-.224-.096-.656-.704-1.056a4.724 4.724 0 00-5.296.32c-.56.464-.704.928-.576 1.136zm22 18.608a.385.385 0 11-.545-.545.385.385 0 01.545.545z" fill="#263238"/><path d="M863.232 490.152a11.713 11.713 0 0018.704 4.8 12.369 12.369 0 0020.688.752 16.494 16.494 0 00-.208 8.896 7.422 7.422 0 006.4 5.408 16.545 16.545 0 00-2.864 9.024 7.515 7.515 0 005.312 7.152 7.18 7.18 0 007.008-3.04 12.993 12.993 0 002.16-7.632c0-4.336-1.184-8.704-.432-12.976.336-1.984 1.104-3.888 1.44-5.872a14.242 14.242 0 00-17.888-16.128 18.774 18.774 0 00-13.584-6.512 10.015 10.015 0 00-5.584 1.248 5.308 5.308 0 00-2.64 4.8 11.615 11.615 0 00-18.512 9.872" fill="#263238"/><path d="M897.151 482.6a8.31 8.31 0 00-2.688-3.024 6.241 6.241 0 00-4.336-.944 6.598 6.598 0 00-4.592 3.2l-.384.72-.288-.768a11.054 11.054 0 00-7.552-6.576 10.799 10.799 0 00-9.12 2.08 10.435 10.435 0 00-3.904 6.688 11.731 11.731 0 00.432 5.36c.4 1.216.768 1.84.704 1.872-.064.032-.128-.128-.32-.416a7.002 7.002 0 01-.688-1.36 11.199 11.199 0 013.296-12.8 11.466 11.466 0 019.792-2.288 11.683 11.683 0 014.863 2.591 11.685 11.685 0 013.137 4.529h-.688a7.13 7.13 0 015.168-3.424 6.656 6.656 0 014.672 1.184 6.402 6.402 0 012.064 2.368c.222.297.37.643.432 1.008zm32.737 8c.258.268.44.599.528.96a4.978 4.978 0 010 3.04 4.804 4.804 0 01-3.2 3.2 5.336 5.336 0 01-2.985 0 5.334 5.334 0 01-2.519-1.6l.736-.24a7.068 7.068 0 01-1.488 3.824 7.417 7.417 0 01-6.528 2.88 7.14 7.14 0 01-4.896-3.2 7.031 7.031 0 01-1.184-3.76 2.908 2.908 0 01.256-1.424c.025.469.025.939 0 1.408a7.432 7.432 0 001.344 3.44 6.207 6.207 0 0010.272.128 6.218 6.218 0 001.344-3.36v-1.024l.64.8a4.688 4.688 0 004.672 1.488 4.339 4.339 0 002.96-2.72 5.249 5.249 0 00.24-2.8c-.08-.608-.256-.944-.192-1.04z" fill="#455A64"/><path d="M799.008 456.872h-87.024c-8.271 0-14.976 6.705-14.976 14.976v87.024c0 8.271 6.705 14.976 14.976 14.976h87.024c8.271 0 14.976-6.705 14.976-14.976v-87.024c0-8.271-6.705-14.976-14.976-14.976z" fill="#FFEEDF"/><path d="M749.136 468.392c-18.064 2.944-23.68 20.96-25.12 29.408-1.44 8.448-2.496 17.6-8.144 24a54.56 54.56 0 0029.296 9.296 6.082 6.082 0 004.176-.992 6.485 6.485 0 001.6-4.944 179.515 179.515 0 00-6.48-52" fill="#263238"/><path d="M731.408 503.4c-8-17.152 1.968-28.048 8.576-32a28.304 28.304 0 0113.248-3.2 48.575 48.575 0 0113.536.848 24.176 24.176 0 0111.888 6.24c5.664 5.728 7.184 14.4 6.912 22.4a63.424 63.424 0 01-7.216 27.28 6.741 6.741 0 01-2.272 2.8 2.482 2.482 0 01-3.2-.496" fill="#263238"/><path d="M759.04 562.776c7.904.32 14.608-6.624 15.12-18.784l2.384-57.6a4.965 4.965 0 00-1.342-3.343 4.965 4.965 0 00-3.25-1.553l-24.544-1.872a14.908 14.908 0 00-11.071 3.788 14.9 14.9 0 00-4.929 10.612c-.304 9.408-.32 20.928.992 27.904 2.656 14.032 13.52 15.52 13.52 15.52l-.576 10.256a14.308 14.308 0 003.69 10.426 14.302 14.302 0 0010.022 4.678l-.016-.032z" fill="#FFBE9D"/><path d="M736.368 501.288c.013.471.209.919.546 1.248.338.328.791.512 1.262.512a1.712 1.712 0 001.808-1.6 1.806 1.806 0 00-1.792-1.776 1.76 1.76 0 00-1.824 1.616z" fill="#263238"/><path d="M734.064 499.896c.24.24 1.6-.816 3.52-.88 1.92-.064 3.408.88 3.616.64.208-.24-.144-.528-.784-.96a4.914 4.914 0 00-2.896-.8 4.703 4.703 0 00-2.784.992c-.592.48-.784.912-.672 1.008zm21.583 1.392a1.813 1.813 0 001.792 1.76c.225.015.451-.014.665-.086a1.708 1.708 0 001.159-1.514 1.822 1.822 0 00-1.792-1.776 1.746 1.746 0 00-1.824 1.616z" fill="#263238"/><path d="M753.216 499.704c.224.224 1.6-.832 3.52-.88 1.92-.048 3.392.88 3.6.64.208-.24-.144-.528-.784-.976a5.023 5.023 0 00-2.896-.8 4.894 4.894 0 00-2.784.992c-.576.48-.768.912-.656 1.024zm-6.641 14.64a12.785 12.785 0 00-3.2-.48c-.496 0-.975-.128-1.055-.464a2.47 2.47 0 01.288-1.472c.437-1.216.885-2.496 1.344-3.84a67.39 67.39 0 003.023-9.984 62.512 62.512 0 00-3.807 9.728c-.47 1.344-.902 2.624-1.296 3.84a2.91 2.91 0 00-.208 1.968 1.248 1.248 0 00.832.704c.278.062.563.089.848.08 1.076.107 2.162.08 3.231-.08z" fill="#263238"/><path d="M745.904 537.416a35.996 35.996 0 0018.736-5.6s-4.8 9.904-18.928 8.992l.192-3.392zM747.552 521a1.76 1.76 0 010-2c.21-.29.502-.511.838-.634a1.8 1.8 0 011.05-.054 1.105 1.105 0 010-1.328 1.486 1.486 0 011.248-.576c.482.04.937.236 1.296.56a3.056 3.056 0 01.96 3.056 2.976 2.976 0 01-5.344.896" fill="#EB996E"/><path d="M752.335 515.512c-.32 0-.256 2.112-2.016 3.664s-4.016 1.392-4.032 1.68c-.016.288.512.4 1.472.4a5.256 5.256 0 003.36-1.296 4.506 4.506 0 001.6-3.056c.016-.88-.24-1.408-.384-1.392zm-.095-19.2c.208.528 2.144.224 4.432.432 2.288.208 4.16.768 4.448.288.128-.224-.208-.72-.976-1.2a7.277 7.277 0 00-3.312-1.056 7.605 7.605 0 00-3.456.496c-.816.368-1.232.8-1.136 1.04zm-17.616-2.064c.352.432 1.68 0 3.296-.144 1.616-.144 2.976.208 3.28-.256.128-.224-.096-.672-.704-1.072a4.802 4.802 0 00-5.312.32c-.544.48-.784.944-.56 1.152zm22 18.592a.387.387 0 01-.132.09.387.387 0 01-.313 0 .393.393 0 01-.131-.09.417.417 0 01.521-.645.419.419 0 01.174.432.423.423 0 01-.119.213z" fill="#263238"/><path d="M729.872 490.2l19.408 1.504a24.788 24.788 0 012.112-7.472c-.24 2.96-.272 6.4 1.968 8.304a9.38 9.38 0 004.432 1.696L771.616 497c.171 5.085 1.878 10 4.896 14.096.336-5.776 2.016-11.424 2.24-17.2.224-5.776-1.392-12.144-6.128-15.472-3.2-2.224-7.168-2.752-11.024-2.912a69.341 69.341 0 00-21.536 2.288" fill="#263238"/><path d="M744.352 490.6a3.646 3.646 0 01-.096-1.328c.021-1.222.166-2.439.432-3.632a22.408 22.408 0 015.632-10.624 22.175 22.175 0 0110.368-6.064 19.252 19.252 0 013.6-.592 4.042 4.042 0 011.344 0c0 .16-1.888.224-4.8 1.12a23.845 23.845 0 00-9.936 6.08 23.61 23.61 0 00-5.648 10.176c-.752 2.976-.752 4.864-.896 4.864z" fill="#455A64"/><path d="M735.824 490.936a5.1 5.1 0 01.192-1.52c.299-1.35.711-2.672 1.232-3.952a27.207 27.207 0 018.103-10.968 27.208 27.208 0 0112.409-5.656 24.429 24.429 0 014.128-.4 5.182 5.182 0 011.52.128c0 .16-2.16.096-5.536.848a28.616 28.616 0 00-20.08 16.272c-1.424 3.152-1.792 5.28-1.968 5.248z" fill="#455A64"/><path d="M763.408 487.4c1.792 7.392 3.616 14.864 3.696 22.48.08 7.616-1.712 15.472-6.4 21.424a45.507 45.507 0 0026.816-9.408 18.747 18.747 0 007.2-9.392c1.104-4.064 0-8.352-1.264-12.368a72.35 72.35 0 00-9.04-18.72c-3.856-5.808-11.44-13.344-18.4-12.8" fill="#263238"/><path d="M775.696 526.248a5.178 5.178 0 002.192-.848 9.184 9.184 0 002.96-5.616c.725-3.146.92-6.39.576-9.6a46.125 46.125 0 00-2.832-11.568c-1.504-3.984-3.2-7.664-4.8-11.008-1.6-3.344-2.976-6.4-4-9.008a56.373 56.373 0 01-2.112-6.32 12.038 12.038 0 01-.48-2.4c.317.748.579 1.518.784 2.304a78.806 78.806 0 002.352 6.192c1.104 2.576 2.528 5.568 4.144 8.896 1.616 3.328 3.408 7.024 4.912 11.056a44.552 44.552 0 012.832 11.792c.315 3.311.05 6.652-.784 9.872a16.59 16.59 0 01-1.36 3.584 5.707 5.707 0 01-1.984 2.16 3.85 3.85 0 01-1.728.608 1.497 1.497 0 01-.672-.096z" fill="#455A64"/><path d="M770.048 475.304c.502.457.952.966 1.344 1.52.832 1.008 1.984 2.496 3.392 4.368a81.642 81.642 0 019.44 15.6 40.272 40.272 0 013.568 17.808 26.438 26.438 0 01-.816 5.488 7.813 7.813 0 01-.672 1.936c.477-2.45.777-4.931.896-7.424a42.248 42.248 0 00-3.76-17.504 93.605 93.605 0 00-9.152-15.6l-3.2-4.512c-.4-.525-.749-1.088-1.04-1.68z" fill="#455A64"/><path d="M941.968 327.624H843.52a9.264 9.264 0 00-9.264 9.264v98.448a9.264 9.264 0 009.264 9.264h98.448a9.264 9.264 0 009.264-9.264v-98.448a9.264 9.264 0 00-9.264-9.264z" fill="#FFEEDF"/><path d="M864.272 354.36c1.488 3.2-1.968 3.792-4.256 6.56-2.288 2.768-5.088 5.472-5.536 9.04-.512 3.984 2.112 8 1.04 11.888-1.296 4.672-7.376 6.864-8.4 11.6-1.2 5.568 5.344 10.576 4.288 16.176a23.19 23.19 0 01-2.56 5.456 14.107 14.107 0 00-.096 12.048c1.76 3.76 5.328 8.608 13.952 10.544l18.896-12.576-17.328-70.736z" fill="#263238"/><path d="M877.92 351.112c-2.512-3.024-7.424-3.2-10.704-1.024a14.736 14.736 0 00-5.872 9.824 73.49 73.49 0 00-.688 11.728 24.002 24.002 0 01-2.624 11.328c-1.6 2.896-4.464 5.52-4.336 8.864.16 3.84 4.128 6.528 4.96 10.288 1.008 4.512-2.72 8.56-4.464 12.8-2.768 6.832.864 20.336 8 22.544a21.713 21.713 0 0018.944-2.864c6.832-4.576 10.112-12.88 11.952-20.896a96.936 96.936 0 00-2.688-52.528" fill="#263238"/><path d="M892.144 435.096c7.904.32 14.608-6.624 15.104-18.8l2.4-57.6a4.992 4.992 0 00-4.592-4.912l-24.544-1.856a14.896 14.896 0 00-16 14.4c-.32 9.408-.32 20.912.992 27.904 2.656 14.032 13.52 15.504 13.52 15.504l-.576 10.256a14.404 14.404 0 003.714 10.409 14.404 14.404 0 009.998 4.711l-.016-.016z" fill="#FFBE9D"/><path d="M869.472 373.592a1.822 1.822 0 001.792 1.776 1.729 1.729 0 001.824-1.6 1.812 1.812 0 00-1.792-1.776 1.73 1.73 0 00-1.824 1.6z" fill="#263238"/><path d="M867.199 372.2c.224.224 1.6-.832 3.52-.88 1.92-.048 3.392.88 3.6.64.208-.24-.144-.528-.768-.96a4.799 4.799 0 00-2.896-.8 4.688 4.688 0 00-2.8.992c-.656.48-.8.912-.656 1.008zm21.553 1.392a1.806 1.806 0 001.792 1.776 1.763 1.763 0 001.824-1.6 1.807 1.807 0 00-1.808-1.776 1.712 1.712 0 00-1.808 1.6z" fill="#263238"/><path d="M886.304 372.008c.24.24 1.6-.816 3.52-.864 1.92-.048 3.408.864 3.616.624.208-.24-.144-.528-.784-.96a5.025 5.025 0 00-2.896-.8 4.8 4.8 0 00-2.784.992c-.576.48-.784.912-.672 1.008zm-6.64 14.592a12.933 12.933 0 00-3.2-.464c-.496 0-.976-.128-1.072-.464a2.555 2.555 0 01.288-1.488l1.36-3.824a63.137 63.137 0 003.008-10 66.173 66.173 0 00-3.808 9.728l-1.296 3.856a2.958 2.958 0 00-.192 1.952 1.243 1.243 0 00.832.704c.276.075.562.107.848.096 1.077.111 2.163.078 3.232-.096z" fill="#263238"/><path d="M879.007 409.72a35.88 35.88 0 0018.736-5.52s-4.8 9.904-18.928 8.992l.192-3.472zm1.649-16.368a1.761 1.761 0 010-2.016 1.733 1.733 0 011.888-.672 1.092 1.092 0 010-1.328 1.44 1.44 0 011.248-.576c.48.034.936.225 1.296.544.427.374.742.859.908 1.402.167.543.18 1.121.036 1.67a2.983 2.983 0 01-2.383 2.142 2.978 2.978 0 01-2.945-1.262" fill="#EB996E"/><path d="M885.44 387.832c-.32 0-.256 2.096-2.032 3.648s-4.016 1.392-4.016 1.696c0 .304.512.384 1.456.384a5.327 5.327 0 003.376-1.28 4.608 4.608 0 001.6-3.056c.016-.896-.24-1.408-.384-1.392zm-.113-19.2c.208.528 2.144.208 4.448.416 2.304.208 4.144.784 4.432.304.128-.24-.208-.72-.96-1.216a7.547 7.547 0 00-3.328-1.056 7.304 7.304 0 00-3.44.512c-.832.368-1.232.784-1.152 1.04zm-17.615-2.08c.368.432 1.696 0 3.296-.128 1.6-.128 2.992.208 3.296-.256.304-.464-.096-.672-.704-1.072a4.794 4.794 0 00-2.704-.643 4.793 4.793 0 00-2.608.963c-.56.464-.72.928-.576 1.136zm22 18.608a.403.403 0 11-.56-.576.392.392 0 01.127-.09.398.398 0 01.305 0 .396.396 0 01.128.09.402.402 0 010 .576z" fill="#263238"/><path d="M869.007 356.2a9.503 9.503 0 01-1.696-7.52 14.053 14.053 0 013.68-6.128 18.788 18.788 0 0110.144-5.728 13.462 13.462 0 0111.12 2.832 45.285 45.285 0 004.656 4.448c3.552 2.32 8.304 1.392 12.32 2.752a11.42 11.42 0 017.408 11.584c-.4 4.032-3.008 8-2.064 11.856.864 3.568 4.288 5.776 6.624 8.608a16.114 16.114 0 011.824 17.216c-1.344 2.592-3.472 4.976-3.552 7.904-.08 2.928 2.16 5.76 4.112 8.208a28.216 28.216 0 015.584 10.176 13.585 13.585 0 01-1.6 11.2 14.573 14.573 0 01-8.72 5.392 19.781 19.781 0 01-15.824-2.848 16.175 16.175 0 01-6.832-14.288c.608-6.56 5.584-12.464 4.688-18.976-.72-5.2-5.104-9.52-5.04-14.752a17.147 17.147 0 013.392-8.704c1.696-2.656 3.2-5.184 3.008-8.336-.192-3.152-1.104-4.56-3.872-6.592-2.288-1.68-4.624-.672-7.392-.128-5.44 1.056-10.272-1.296-12.32-7.52 0 0-1.344-4.112-4.8-3.84a6.04 6.04 0 00-4.848 3.184z" fill="#263238"/><path d="M915.2 356.728c-1.328 2.864.16 6.4 2.496 8.496a38.577 38.577 0 008.175 4.8c2.784 1.488 5.536 3.568 6.496 6.576 1.216 3.84-.816 8 0 12 .704 3.2 3.2 5.744 5.296 8.336 3.36 4.176 5.904 9.296 5.712 14.656-.192 5.36-3.68 10.8-8.912 12-5.232 1.2-11.056-2.368-14.288-6.96a25.452 25.452 0 01-4.016-19.872c.784-3.616 2.4-7.28 1.6-10.912-.8-3.632-3.663-6.112-5.071-9.408-2.384-5.648-.097-12.096 2.175-17.792" fill="#263238"/><path d="M925.759 421.8s.417.256 1.265.496a5.324 5.324 0 003.727-.448 6.256 6.256 0 003.504-4.64 11.2 11.2 0 00-1.759-7.68 64.298 64.298 0 00-6.4-7.616 22.137 22.137 0 01-3.2-4.672 11.352 11.352 0 01-1.184-5.904c.144-2.08.783-4.096 1.055-6.144a10.926 10.926 0 00-.831-6.112 10.823 10.823 0 00-4.144-4.8 31.136 31.136 0 01-5.825-3.824 6.798 6.798 0 01-1.727-3.2 11.927 11.927 0 01-.24-3.52c.283-2.186.32-4.397.112-6.592a5.777 5.777 0 00-1.264-2.736 6.169 6.169 0 00-2.465-1.6 14.816 14.816 0 00-5.967-.56 46.39 46.39 0 01-5.937.368 8.844 8.844 0 01-5.391-1.84 15.962 15.962 0 01-3.2-4.24 9.753 9.753 0 00-3.088-3.424 9.371 9.371 0 00-7.729-.624 13.284 13.284 0 00-5.088 3.328 37.649 37.649 0 00-3.295 4.112 17.333 17.333 0 013.056-4.352 13.944 13.944 0 015.168-3.536 9.807 9.807 0 018.192.576 10.123 10.123 0 013.328 3.584 15.615 15.615 0 003.039 4.048 8.115 8.115 0 004.977 1.6 41.348 41.348 0 005.84-.4 15.27 15.27 0 016.304.592 6.953 6.953 0 012.8 1.856 6.783 6.783 0 011.471 3.12 31.921 31.921 0 01-.096 6.784 7.727 7.727 0 001.729 6.128 32.214 32.214 0 005.679 3.712 11.827 11.827 0 015.313 11.744c-.304 2.144-.928 4.128-1.072 6.08a10.514 10.514 0 001.072 5.536 22.48 22.48 0 003.04 4.544 61.29 61.29 0 016.4 7.76 11.588 11.588 0 011.712 8.08 6.593 6.593 0 01-1.311 2.871 6.587 6.587 0 01-2.497 1.929 5.343 5.343 0 01-3.92.32 3.431 3.431 0 01-1.153-.704z" fill="#455A64"/><path d="M915.2 437.96a4.69 4.69 0 01-1.328 0 8.572 8.572 0 01-7.504-5.824 8.928 8.928 0 011.2-7.872c1.776-2.48 5.088-3.984 5.968-7.344a12.802 12.802 0 00-2.16-10.288c-2.048-3.28-5.056-6.192-7.2-9.984a15.208 15.208 0 01-2.08-6.32 14.392 14.392 0 011.44-6.672 43.837 43.837 0 002.464-6.16 16.93 16.93 0 00.512-6.304 12.453 12.453 0 00-6.176-9.68 10.346 10.346 0 00-5.328-1.28c-1.824 0-3.616.24-5.392.288a10.117 10.117 0 01-5.072-.96 7.999 7.999 0 01-3.2-3.52c-.72-1.328-1.248-2.64-1.888-3.792a7.844 7.844 0 00-2.352-2.752 7.137 7.137 0 00-5.648-.8 6.694 6.694 0 00-3.2 1.856c-.608.608-.8 1.04-.848 1.008-.048-.032 0-.096.144-.304.156-.295.35-.57.576-.816a6.588 6.588 0 013.2-2.048 7.272 7.272 0 015.984.72 8.314 8.314 0 012.56 2.88c.688 1.168 1.232 2.48 1.936 3.76a7.491 7.491 0 002.992 3.2c1.5.69 3.155.977 4.8.832 1.712 0 3.504-.32 5.408-.336a11.028 11.028 0 015.696 1.344 13.222 13.222 0 016.624 10.256 18.158 18.158 0 01-.528 6.608 43.505 43.505 0 01-2.496 6.272 13.225 13.225 0 00-1.376 6.304c.21 2.107.876 4.144 1.952 5.968 2.048 3.664 5.056 6.592 7.152 9.984a13.51 13.51 0 012.25 5.208 13.507 13.507 0 01-.09 5.672 9.26 9.26 0 01-2.88 4.288 25.863 25.863 0 00-3.2 3.2 8.515 8.515 0 00-1.248 7.392 8.19 8.19 0 003.568 4.544 8.985 8.985 0 003.52 1.248c.72.208 1.248.176 1.248.224z" fill="#455A64"/><path d="M867.936 350.792a4.489 4.489 0 01-.352.848c-.288.624-.672 1.392-1.12 2.352-1.072 2.112-2.512 5.008-4.288 8.544a48.083 48.083 0 00-2.752 5.952 10.623 10.623 0 00-.64 3.488c.032 1.266.242 2.521.624 3.728.425 1.327.74 2.686.944 4.064a8.762 8.762 0 01-.656 4.368c-1.152 2.816-3.2 5.072-4.8 7.632a11.345 11.345 0 00-1.6 4.032 8.001 8.001 0 00.48 4.144c.976 2.656 2.704 4.96 3.536 7.6a8.263 8.263 0 01.32 4.032 10.9 10.9 0 01-1.408 3.52 45.246 45.246 0 00-3.296 5.664 14.993 14.993 0 00-.576 9.232c.339 1.115.739 2.21 1.2 3.28a4.887 4.887 0 01-.496-.768 13.064 13.064 0 01-1.008-2.416 14.844 14.844 0 01.336-9.6 43.37 43.37 0 013.2-5.792 10.343 10.343 0 001.296-3.296 7.603 7.603 0 00-.336-3.664c-.784-2.48-2.512-4.8-3.568-7.552a8.938 8.938 0 01-.528-4.56 11.954 11.954 0 011.792-4.352c1.6-2.64 3.744-4.8 4.8-7.488a8.228 8.228 0 00.624-3.984 25.485 25.485 0 00-.896-3.936 13.833 13.833 0 01-.624-3.936 12.04 12.04 0 01.72-3.712 46.751 46.751 0 012.88-6l4.528-8.432 1.264-2.272c.106-.254.24-.496.4-.72z" fill="#455A64"/><path d="M806.368 327.624h-97.456c-5.39 0-9.76 4.37-9.76 9.76v97.456c0 5.39 4.37 9.76 9.76 9.76h97.456c5.391 0 9.76-4.37 9.76-9.76v-97.456c0-5.39-4.369-9.76-9.76-9.76z" fill="#FFEEDF"/><path d="M748.224 369.304c-1.696 2.336-1.056 5.616.096 8.256 1.152 2.64 2.8 5.184 2.96 8 .224 4.08-2.56 7.84-2.512 11.936 0 4.56 3.632 8.528 3.68 13.088 0 4.032-2.72 7.856-1.968 11.824a14.526 14.526 0 002.384 4.96 12.271 12.271 0 012.224 5.04 4.465 4.465 0 01-2.256 4.656 6.532 6.532 0 01-2.144.384c-12.064.816-24.336 1.6-36.128-1.056a28.471 28.471 0 01-2.928-9.872 12.636 12.636 0 013.104-9.6c2.08-2.128 5.184-3.392 6.4-6.112 2.064-4.64-2.704-10.208-.768-14.896 1.264-3.056 4.944-4.48 6.512-7.392 1.344-2.464.928-5.472.72-8.272-.208-2.8 0-6 2.064-7.856 1.6-1.36 3.808-1.712 5.2-3.2 2.352-2.528 1.264-7.168 3.888-9.408" fill="#263238"/><path d="M729.601 373.416c-8.112-17.344 2-28.352 8.672-32.4 3.968-2.4 8.752-3.024 13.392-3.2a49.607 49.607 0 0113.696.848 24.453 24.453 0 0112.016 6.32c5.728 5.792 7.264 14.56 6.976 22.704a63.716 63.716 0 01-7.28 27.568 6.641 6.641 0 01-2.304 2.848 2.495 2.495 0 01-3.296-.512" fill="#263238"/><path d="M757.072 433c7.904.32 14.608-6.624 15.12-18.8l2.56-61.872-.176 4.272a4.943 4.943 0 00-4.592-4.896l-24.528-1.904a14.899 14.899 0 00-16 14.4c-.32 9.424-.336 20.928.976 27.904 2.656 14.048 13.52 15.52 13.52 15.52l-.576 10.256a14.405 14.405 0 008.243 13.762 14.41 14.41 0 005.469 1.358h-.016z" fill="#FFBE9D"/><path d="M734.4 371.48a1.794 1.794 0 001.792 1.776A1.726 1.726 0 00738 371.56a1.789 1.789 0 00-1.792-1.76 1.715 1.715 0 00-1.808 1.68z" fill="#263238"/><path d="M732.097 370.104c.24.224 1.6-.832 3.52-.88 1.92-.048 3.408.88 3.616.624.208-.256-.144-.528-.784-.96a5.023 5.023 0 00-2.896-.8 4.803 4.803 0 00-2.784.992c-.592.48-.784.912-.672 1.024zm21.584 1.376a1.821 1.821 0 001.808 1.776 1.721 1.721 0 001.262-.466 1.72 1.72 0 00.546-1.23 1.813 1.813 0 00-1.792-1.76 1.73 1.73 0 00-1.824 1.68z" fill="#263238"/><path d="M751.248 369.896c.224.224 1.6-.816 3.52-.88 1.92-.064 3.392.88 3.6.64.208-.24-.144-.528-.784-.96a4.899 4.899 0 00-2.88-.8 4.8 4.8 0 00-2.8.992c-.576.48-.768.912-.656 1.008zm-6.64 14.64a12.785 12.785 0 00-3.2-.48c-.496 0-.976-.112-1.056-.448a2.523 2.523 0 01.288-1.488c.432-1.216.88-2.496 1.36-3.824a68.171 68.171 0 003.008-10 63.3 63.3 0 00-3.808 9.728 220.675 220.675 0 00-1.296 3.856 2.846 2.846 0 00-.208 1.952 1.283 1.283 0 00.848.704c.277.068.562.1.848.096 1.071.108 2.153.076 3.216-.096z" fill="#263238"/><path d="M744.001 407.608a35.83 35.83 0 0018.736-5.6s-4.8 9.904-18.928 9.008l.192-3.408zm1.6-16.384a1.693 1.693 0 01.777-2.659 1.695 1.695 0 011.063-.013 1.087 1.087 0 01-.08-1.328 1.438 1.438 0 011.248-.576c.48.034.935.225 1.296.544a3.091 3.091 0 01.96 3.072 2.987 2.987 0 01-2.393 2.137 2.99 2.99 0 01-2.951-1.257" fill="#EB996E"/><path d="M750.4 385.72c-.32 0-.256 2.096-2.016 3.648s-4.016 1.392-4.032 1.68c-.016.288.512.4 1.472.4a5.295 5.295 0 003.36-1.28 4.64 4.64 0 001.6-3.072c-.016-.88-.272-1.392-.384-1.376zm-.128-19.2c.208.512 2.144.208 4.432.416 2.288.208 4.16.784 4.448.304.288-.48-.208-.72-.976-1.216a7.687 7.687 0 00-6.752-.544c-.832.32-1.248.784-1.152 1.04zm-17.616-2.08c.352.432 1.6 0 3.296-.128 1.696-.128 2.976.208 3.2-.272.128-.224-.096-.656-.704-1.056a4.608 4.608 0 00-2.704-.656 4.53 4.53 0 00-2.592.976c-.48.464-.656.896-.496 1.136zm22.001 18.608a.374.374 0 01-.125.083.375.375 0 01-.294 0 .393.393 0 01-.238-.355.39.39 0 01.113-.272.385.385 0 01.544 0 .384.384 0 010 .544z" fill="#263238"/><path d="M736.816 344.6a41.407 41.407 0 0041.296 26.816c.728-4.465.841-9.008.336-13.504a19.087 19.087 0 00-6.048-11.808c-4.32-3.616-10.256-4.384-15.84-4.992a44.139 44.139 0 00-10.368-.336 14.76 14.76 0 00-9.184 4.368" fill="#263238"/><path d="M770.304 369.4c1.68 2.336 1.056 5.616-.096 8.256-1.152 2.64-2.8 5.184-2.96 8-.24 4.08 2.56 7.84 2.512 11.936 0 4.56-3.632 8.528-3.68 13.088 0 4.032 2.72 7.856 1.968 11.824a14.508 14.508 0 01-2.384 4.96 12.297 12.297 0 00-2.224 5.04 4.436 4.436 0 002.256 4.656 6.532 6.532 0 002.144.384c12.064.816 24.336 1.6 36.128-1.056a28.428 28.428 0 002.928-9.872 12.55 12.55 0 00-3.104-9.6c-2.08-2.144-5.184-3.408-6.4-6.128-2.064-4.64 2.704-10.208.768-14.896-1.264-3.056-4.944-4.48-6.528-7.392-1.344-2.464-.912-5.472-.704-8.272.208-2.8 0-6-2.064-7.856-1.6-1.344-3.808-1.712-5.2-3.2-2.352-2.528-1.264-7.168-3.888-9.408" fill="#263238"/><path d="M782.577 367.688a6.05 6.05 0 013.2-7.744 8.929 8.929 0 018.8 1.52 8.475 8.475 0 013.456 6.16 8.838 8.838 0 01-1.904 5.408 9.988 9.988 0 01-8 4.368 6.606 6.606 0 01-6.4-5.696" fill="#263238"/><path d="M783.552 360.008a2.821 2.821 0 01-.512.272c-.519.224-1.054.412-1.6.56a18.464 18.464 0 01-6 .8 20.696 20.696 0 01-8.719-2.144 19.154 19.154 0 01-4.448-2.976 24.045 24.045 0 01-3.729-4.368 49.598 49.598 0 00-6.4-8.672 9.965 9.965 0 00-7.744-3.2 7.115 7.115 0 00-4.96 2.704 8.628 8.628 0 00-.96 1.936v-.576a4.591 4.591 0 01.641-1.6 7.203 7.203 0 012.237-2.114 7.203 7.203 0 012.915-.99 10.352 10.352 0 018.335 3.2c2.592 2.304 4.449 5.6 6.609 8.752a20.057 20.057 0 007.823 7.136 20.697 20.697 0 008.416 2.24c2.733.11 5.466-.214 8.096-.96zm1.457 3.68a4.291 4.291 0 01-.976 2.432 11.201 11.201 0 01-4.912 3.984 18.903 18.903 0 01-6.128 1.44 7.325 7.325 0 01-2.608 0 9.306 9.306 0 012.528-.528 24.367 24.367 0 005.872-1.6 13.086 13.086 0 004.8-3.568c.944-1.28 1.296-2.208 1.424-2.16zm9.631-1.584c.112 0 .272.64.096 1.68a6.612 6.612 0 01-5.6 5.408c-1.04.128-1.6 0-1.6-.16s.64-.16 1.6-.416a7.84 7.84 0 003.2-1.824 7.616 7.616 0 001.92-3.2c.208-.864.256-1.488.384-1.488zm2.657 5.872a7.235 7.235 0 01-8.576 3.6 22.868 22.868 0 004.624-1.008 23.423 23.423 0 003.952-2.592zm-5.984 69.264a6.7 6.7 0 002.448-1.712 5.027 5.027 0 001.232-3.2 5.212 5.212 0 00-1.76-4.032 18.27 18.27 0 01-2.096-1.904 3.923 3.923 0 01-.736-2.992c.184-1.085.452-2.155.8-3.2a9.61 9.61 0 00.368-3.2 9.414 9.414 0 00-2.928-6.224c-1.776-1.696-4.368-2.72-6.16-4.976a5.644 5.644 0 01-1.376-3.984 7.196 7.196 0 011.696-3.68 15.127 15.127 0 002.016-3.04 7.707 7.707 0 00.365-4.777 7.708 7.708 0 00-2.525-4.071 14.384 14.384 0 01-4.16-4.144 8.765 8.765 0 01-.432-4.8c.192-1.173.251-2.365.176-3.552a5.507 5.507 0 00-1.024-2.8s.256.144.56.576c.428.656.701 1.4.8 2.176a15.673 15.673 0 010 3.648 8.334 8.334 0 00.496 4.528 14.393 14.393 0 004.08 3.872 8.295 8.295 0 013.056 6 8.525 8.525 0 01-.608 3.696 16.132 16.132 0 01-2.096 3.2 6.49 6.49 0 00-1.6 3.2 4.994 4.994 0 001.216 3.408c1.6 2.032 4.128 3.072 6.064 4.88a10.119 10.119 0 013.12 6.784 9.821 9.821 0 01-.416 3.504 20.83 20.83 0 00-.816 3.056 3.345 3.345 0 00.608 2.608 18.078 18.078 0 001.92 1.792 5.696 5.696 0 011.824 4.496 5.36 5.36 0 01-3.36 4.672c-.464.192-.752.224-.752.192z" fill="#455A64"/><path d="M939.84 197.096h-94.896c-6.097 0-11.04 4.943-11.04 11.04v94.896c0 6.097 4.943 11.04 11.04 11.04h94.896c6.098 0 11.04-4.943 11.04-11.04v-94.896c0-6.097-4.942-11.04-11.04-11.04z" fill="#FFEEDF"/><path d="M866.688 246.536c-8-17.152 1.968-28.048 8.576-32 3.936-2.384 8.656-2.992 13.248-3.2a48.573 48.573 0 0113.536.848 24.171 24.171 0 0111.888 6.24c5.664 5.728 7.184 14.4 6.912 22.4-.336 9.488-2.256 12.368-6.688 20.8a59.46 59.46 0 01-6.88 8.432c-1.04.624-14.224-1.904-14.88-2.928" fill="#263238"/><path d="M911.168 229.896a4.924 4.924 0 00-4.528-4.8l-24.272-1.84a14.726 14.726 0 00-14.472 8.463 14.74 14.74 0 00-1.368 5.745c-.32 9.312-.336 20.688.976 27.6 2.624 13.872 13.36 15.344 13.36 15.344l-.56 10.144a14.173 14.173 0 003.649 10.308 14.159 14.159 0 009.903 4.636c7.824.32 14.4-6.544 14.944-18.592" fill="#FFBE9D"/><path d="M871.44 244.632a1.793 1.793 0 001.776 1.744 1.71 1.71 0 001.808-1.6 1.806 1.806 0 00-1.776-1.76 1.726 1.726 0 00-1.808 1.616z" fill="#263238"/><path d="M869.168 243.256c.224.224 1.601-.816 3.473-.864 1.872-.048 3.36.864 3.568.624.208-.24-.144-.512-.768-.944a4.967 4.967 0 00-2.864-.8 4.634 4.634 0 00-2.752.992c-.592.464-.769.896-.657.992zm21.345 1.376a1.766 1.766 0 001.101 1.616c.214.087.444.13.675.128a1.687 1.687 0 001.627-.958c.096-.201.152-.419.165-.642a1.812 1.812 0 00-1.776-1.76 1.71 1.71 0 00-1.792 1.616z" fill="#263238"/><path d="M888.096 243.064c.224.224 1.6-.816 3.472-.864 1.872-.048 3.36.864 3.568.624.208-.24-.128-.528-.768-.96a4.926 4.926 0 00-2.864-.784 4.806 4.806 0 00-2.752.976c-.576.544-.752.912-.656 1.008zm-6.496 14.48a12.122 12.122 0 00-3.2-.48c-.496 0-.96-.112-1.056-.448a2.478 2.478 0 01.288-1.472l1.344-3.776a64.194 64.194 0 002.976-9.888 63.286 63.286 0 00-3.76 9.6c-.448 1.328-.88 2.592-1.28 3.808a2.818 2.818 0 00-.208 1.936 1.243 1.243 0 00.832.704c.276.036.556.036.832 0 1.072.144 2.158.15 3.232.016z" fill="#263238"/><path d="M880.864 280.36a35.55 35.55 0 0018.528-5.536s-4.8 9.792-18.72 8.896l.192-3.36zm1.616-18.208a3.452 3.452 0 013.072-1.376 3.2 3.2 0 012.224 1.104 1.997 1.997 0 01.208 2.288 2.29 2.29 0 01-2.496.72 7.48 7.48 0 01-2.512-1.392 2.327 2.327 0 01-.56-.56.626.626 0 010-.72" fill="#EB996E"/><path d="M887.232 258.712c-.32 0-.256 2.08-2 3.616s-3.984 1.36-3.984 1.6.512.384 1.44.384a5.267 5.267 0 003.344-1.28 4.512 4.512 0 001.6-3.024c-.016-.816-.256-1.312-.4-1.296zm-.112-18.992c.208.512 2.128.208 4.4.416 2.272.208 4.112.768 4.384.288.128-.224-.192-.704-.944-1.2a7.485 7.485 0 00-3.296-1.04 7.15 7.15 0 00-3.408.512c-.816.352-1.216.704-1.136 1.024zm-17.408-2.048c.352.416 1.6 0 3.2-.144s2.96.208 3.2-.256c.144-.224-.096-.656-.688-1.056a4.72 4.72 0 00-5.248.32c-.448.464-.624.928-.464 1.136z" fill="#263238"/><path d="M867.376 225a20.28 20.28 0 0013.216 10.672 5.22 5.22 0 003.904-.192 2.194 2.194 0 00.608-3.376 31.568 31.568 0 007.344 4.448 11.072 11.072 0 004.256 1.072 4.8 4.8 0 003.888-1.728 31.393 31.393 0 003.872 17.6 6.097 6.097 0 003.952 3.536 4.36 4.36 0 003.68-1.456 10.81 10.81 0 002.064-3.52 43.839 43.839 0 003.2-14.704c.224-5.184-.656-10.752-4.176-14.56a21.576 21.576 0 00-8.768-5.104 40.811 40.811 0 00-12-2.624 22.656 22.656 0 00-11.904 2.576" fill="#263238"/><path d="M908.449 219.784a11.453 11.453 0 011.888-12.8 13.202 13.202 0 0112.608-3.6 15.571 15.571 0 0110.144 8.576 11.596 11.596 0 01-6.816 16.88 17.48 17.48 0 01-14.736-1.408" fill="#263238"/><path d="M931.696 210.808a6.39 6.39 0 01-.64 3.04 14.203 14.203 0 01-4.496 5.984 19.002 19.002 0 01-3.552 2.144 8.09 8.09 0 01-3.344.736 6.191 6.191 0 01-3.056-.576c0-.144 1.2.112 3.024 0a8.752 8.752 0 003.056-.848 20.685 20.685 0 003.36-2.112 15.902 15.902 0 004.464-5.568c.8-1.68 1.056-2.816 1.184-2.8z" fill="#455A64"/><path d="M933.744 213.8a7.591 7.591 0 01-.704 3.2 12.384 12.384 0 01-4.944 6.16 17.6 17.6 0 01-4.016 1.776 8.094 8.094 0 01-3.616.176 6.926 6.926 0 01-3.056-1.2c0-.144 1.216.368 3.2.608a8.272 8.272 0 003.328-.32 19.809 19.809 0 003.792-1.744 13.183 13.183 0 004.8-5.696c.784-1.872 1.088-3.072 1.216-2.96z" fill="#455A64"/><path d="M920.176 232.488c-.144 0-.304-1.36-.912-3.456a25.083 25.083 0 00-3.808-7.552 24.6 24.6 0 00-6.16-5.776c-1.84-1.184-3.104-1.728-3.04-1.856a9.481 9.481 0 013.344 1.36 21.464 21.464 0 0110.224 13.68 9.584 9.584 0 01.352 3.6z" fill="#44D08D"/><path d="M917.808 224.504c.173.344.271.72.288 1.104a15.698 15.698 0 010 3.2 16.574 16.574 0 01-4.032 9.392 16.402 16.402 0 01-8.864 5.088 12.851 12.851 0 01-3.104.304 2.755 2.755 0 01-1.136-.144c0-.144 1.6 0 4.112-.72a16.675 16.675 0 0012.432-13.984c.416-2.624.16-4.224.304-4.24z" fill="#455A64"/><path d="M915.009 222.168a7.498 7.498 0 01.432 3.6 13.54 13.54 0 01-10.768 12.528 7.183 7.183 0 01-3.616.096c0-.144 1.376-.096 3.472-.672a13.957 13.957 0 0010.336-12.016c.336-2.16 0-3.52.144-3.536z" fill="#455A64"/><path d="M891.345 256.728a.403.403 0 01-.56 0 .415.415 0 010-.576.377.377 0 01.283-.154.38.38 0 01.3.116.379.379 0 01.057.461.405.405 0 01-.112.121l.032.032z" fill="#263238"/><path d="M711.68 197.596h91.92c6.643 0 12.028 5.385 12.028 12.028v91.92c0 6.643-5.385 12.028-12.028 12.028h-91.92c-6.643 0-12.028-5.385-12.028-12.028v-91.92c0-6.643 5.385-12.028 12.028-12.028z" fill="#EAFF8C" stroke="#000"/><path d="M734.4 213.08c-11.6.832-14.032 16.496-13.008 25.376.496 4.208 1.904 8.752-.128 12.464-1.44 2.64-4.368 4.272-5.552 7.04-1.44 3.344.128 7.136 1.328 10.576 1.2 3.44 1.776 7.824-.928 10.256a100.52 100.52 0 0020.144 3.2 33.82 33.82 0 0019.536-4.896" fill="#263238"/><path d="M726.897 244.424c-8.112-17.344 2-28.352 8.672-32.4 3.968-2.4 8.752-3.024 13.392-3.2a49.727 49.727 0 0113.696.864 24.625 24.625 0 0112.016 6.304c5.728 5.792 7.264 14.56 6.976 22.704a64.012 64.012 0 01-7.248 27.504 6.931 6.931 0 01-2.304 2.832 2.51 2.51 0 01-3.312-.496" fill="#263238"/><path d="M754.368 303.992c7.904.32 14.608-6.624 15.12-18.8l2.56-61.856-.176 4.272a4.994 4.994 0 00-4.592-4.912l-24.544-1.856a14.899 14.899 0 00-16 14.4c-.304 9.408-.32 20.912.992 27.904 2.656 14.032 13.52 15.504 13.52 15.504l-.576 10.256a14.397 14.397 0 0013.712 15.12l-.016-.032z" fill="#FFBE9D"/><path d="M731.696 242.488a1.826 1.826 0 001.808 1.776 1.728 1.728 0 001.808-1.6 1.793 1.793 0 00-1.792-1.776 1.729 1.729 0 00-1.824 1.6z" fill="#263238"/><path d="M729.393 241.112c.24.224 1.6-.832 3.52-.88 1.92-.048 3.408.88 3.6.64.192-.24-.128-.528-.768-.96a4.799 4.799 0 00-2.896-.8 4.589 4.589 0 00-2.784.992c-.592.464-.784.896-.672 1.008zm21.584 1.376a1.822 1.822 0 001.792 1.776 1.73 1.73 0 001.824-1.6 1.812 1.812 0 00-1.792-1.776 1.726 1.726 0 00-.665.086 1.708 1.708 0 00-1.159 1.514z" fill="#263238"/><path d="M748.544 240.904c.224.24 1.6-.816 3.504-.864 1.904-.048 3.408.864 3.616.624.208-.24-.144-.528-.784-.96a5.02 5.02 0 00-2.896-.8 4.806 4.806 0 00-2.784.992c-.592.48-.768.912-.656 1.008zm-6.639 14.64a13.42 13.42 0 00-3.2-.464c-.496 0-.976-.128-1.072-.464a2.684 2.684 0 01.288-1.488c.432-1.216.896-2.48 1.36-3.824a63.169 63.169 0 003.008-10 67.298 67.298 0 00-3.792 9.728 220.675 220.675 0 00-1.296 3.856 2.863 2.863 0 00-.208 1.952 1.243 1.243 0 00.832.704c.276.074.562.106.848.096 1.077.108 2.163.075 3.232-.096z" fill="#263238"/><path d="M741.232 278.616A35.888 35.888 0 00760 273s-4.8 9.904-18.928 8.992l.16-3.376zm1.649-16.368a1.785 1.785 0 010-2.016c.207-.293.5-.514.838-.634a1.735 1.735 0 011.05-.038 1.103 1.103 0 010-1.328c.146-.189.336-.34.553-.441.217-.1.456-.146.695-.135.48.034.935.225 1.296.544a3.091 3.091 0 01.96 3.072 2.987 2.987 0 01-2.393 2.137 2.99 2.99 0 01-2.951-1.257" fill="#EB996E"/><path d="M747.664 256.728c-.32 0-.256 2.096-2.016 3.664s-4.032 1.376-4.032 1.6c0 .224.512.384 1.472.384a5.23 5.23 0 003.36-1.28 4.606 4.606 0 001.6-3.056c.016-.816-.24-1.328-.384-1.312zm-.096-19.2c.208.528 2.144.208 4.432.416 2.288.208 4.16.784 4.448.304.128-.24-.208-.72-.976-1.216a7.478 7.478 0 00-3.312-1.056 7.372 7.372 0 00-3.456.512c-.816.368-1.232.784-1.136 1.04zm-17.616-2.08c.352.432 1.6 0 3.296-.128 1.696-.128 2.976.208 3.28-.256.304-.464-.096-.672-.704-1.072a4.796 4.796 0 00-5.312.32c-.544.464-.72.928-.56 1.136z" fill="#263238"/><path d="M737.105 211.144c13.456-8 28.272-3.056 39.616 7.76 2.512 2.384 4.8 5.2 8 6.48 3.456 1.376 8 1.024 10.144 4.096 2.496 3.584-.592 8.832 1.264 12.8 1.696 3.632 6.784 4.576 8.752 8 1.6 2.752.72 6.16.096 9.264-.624 3.104-.768 6.784 1.6 8.88l-29.104 11.936a7.487 7.487 0 01-4.128.56c-4.192-.72-4.592-4.576-4.288-7.792.224-2.4.688-4.944-.384-7.104-1.264-2.56-4.336-3.856-5.472-6.4-2.032-4.608 3.104-9.6 2.336-14.56-.48-3.12-3.2-5.44-6.16-6.624-2.96-1.184-6.128-1.504-9.152-2.4-6.992-2.032-12.88-8.224-16-15.216a7.647 7.647 0 012.912-9.6l-.032-.08zM752 254.056a.4.4 0 01-.56 0 .417.417 0 010-.576.38.38 0 01.584-.038.39.39 0 01.056.461.38.38 0 01-.112.121l.032.032z" fill="#263238"/><path d="M789.169 274.808s.112-1.248.208-3.52a21.187 21.187 0 00-.224-4.096 8.61 8.61 0 00-2.272-4.8 16.808 16.808 0 00-5.696-3.12 12.28 12.28 0 01-3.28-1.92 7.338 7.338 0 01-2.192-3.456 26.169 26.169 0 01-.24-8.528c.16-2.864 0-6-2.096-8.256a15.684 15.684 0 00-7.584-4.288 83.107 83.107 0 01-8.112-2.48 44.226 44.226 0 01-12.32-7.376 41.522 41.522 0 01-6.608-7.056c-.672-.928-1.168-1.6-1.472-2.176a3.377 3.377 0 01-.432-.816s.736 1.024 2.16 2.8a45.922 45.922 0 006.736 6.8 44.655 44.655 0 0012.224 7.104 81.283 81.283 0 008 2.416 16.24 16.24 0 018 4.528 8.953 8.953 0 012.032 4.432c.256 1.5.331 3.026.224 4.544-.384 2.748-.33 5.54.16 8.272a6.39 6.39 0 001.936 3.12 11.45 11.45 0 003.088 1.84 17.413 17.413 0 015.84 3.344 9.046 9.046 0 012.304 5.072c.183 1.385.209 2.785.08 4.176a32.908 32.908 0 01-.32 2.608 3.617 3.617 0 01-.144.832z" fill="#455A64"/><path d="M800 271.784a6.163 6.163 0 002.128-2.912 7.867 7.867 0 00.192-4.208 11.203 11.203 0 00-2.704-4.912c-1.392-1.6-3.2-3.088-5.072-4.8a16.01 16.01 0 01-4.704-6.672c-.912-2.896-.112-5.984-.08-8.976a8.002 8.002 0 00-1.024-4.32 8.24 8.24 0 00-3.408-3.024 43.719 43.719 0 00-9.04-2.784 62.71 62.71 0 01-8.48-2.912c-4.66-2-9.051-4.574-13.072-7.664a58.544 58.544 0 01-7.536-6.896c-.816-.88-1.408-1.6-1.792-2.112a5.253 5.253 0 01-.576-.768s.928.96 2.608 2.656a65.246 65.246 0 007.648 6.656 62.714 62.714 0 0013.024 7.408 59.256 59.256 0 008.384 2.832 45.625 45.625 0 019.216 2.832 9.153 9.153 0 013.744 3.36 8.814 8.814 0 011.12 4.8c0 3.2-.832 6.112 0 8.752a15.547 15.547 0 004.448 6.4 67.562 67.562 0 015.04 4.944 11.615 11.615 0 012.72 5.2 8.3 8.3 0 01-.336 4.416 5.366 5.366 0 01-1.6 2.288c-.255.189-.542.33-.848.416z" fill="#455A64"/><path d="M344.576 575.128c0-3.456 11.904-100.528 87.824-120.736C504 435.352 521.6 441 521.6 441s40.224-1.6 82.464 26.032c49.296 32.16 54.08 108.032 54.08 108.032l-313.568.064z" fill="#44D08D"/><path d="M434.72 248.68c-31.2 2.224-37.712 44.336-34.96 68.192 1.312 11.328 5.088 23.536-.368 33.6-3.872 7.072-11.744 11.472-14.912 18.896-3.856 9.008.368 19.2 3.568 28.448 3.2 9.248 4.8 21.008-2.496 27.568 17.856 4.128 35.856 8.272 54.16 8.72 18.304.448 37.2-3.056 52.48-13.168" fill="#263238"/><path d="M414.641 332.952c-21.808-46.64 5.344-76.24 23.28-87.104 10.688-6.4 23.552-8.128 36.032-8.8 12.48-.672 24.768-.464 36.8 2.288 12.032 2.752 23.648 8.224 32.288 16.976 15.408 15.552 19.52 39.136 18.768 61.008a171.672 171.672 0 01-19.6 74.08c-1.6 2.928-3.328 5.936-6.176 7.616-2.848 1.68-7.104 1.456-8.88-1.344" fill="#263238"/><path d="M488.48 493.032c21.232.88 39.248-17.792 40.608-50.512L536 276.2l-.464 11.488A13.345 13.345 0 00523.2 274.6l-65.968-5.024a39.994 39.994 0 00-29.786 10.106 40.014 40.014 0 00-13.27 28.518c-.848 25.312-.896 56.256 2.656 75.008 7.136 37.728 36.32 41.696 36.32 41.696l-1.6 27.568a38.493 38.493 0 0036.8 40.624l.128-.064z" fill="#FFBE9D"/><path d="M427.552 327.736a4.796 4.796 0 004.8 4.8 4.65 4.65 0 003.392-1.238c.455-.421.821-.93 1.076-1.495a4.674 4.674 0 00.412-1.795 4.8 4.8 0 00-4.8-4.8 4.61 4.61 0 00-3.402 1.227 4.623 4.623 0 00-1.478 3.301z" fill="#263238"/><path d="M421.344 324.024c.624.608 4.224-2.224 9.456-2.352 5.232-.128 9.152 2.352 9.696 1.696.272-.288-.384-1.408-2.08-2.576a13.301 13.301 0 00-7.792-2.16 12.802 12.802 0 00-7.504 2.672c-1.568 1.296-2.08 2.448-1.776 2.72zm58 3.712a4.796 4.796 0 004.8 4.8 4.655 4.655 0 004.896-4.528 4.8 4.8 0 00-4.8-4.8 4.65 4.65 0 00-3.403 1.231 4.659 4.659 0 00-1.493 3.297z" fill="#263238"/><path d="M472.8 323.48c.624.624 4.224-2.208 9.456-2.352 5.232-.144 9.136 2.368 9.6 1.712.272-.304-.368-1.424-2.08-2.592a13.294 13.294 0 00-7.776-2.144 12.8 12.8 0 00-7.504 2.656c-1.488 1.296-2 2.448-1.696 2.72zm-17.856 39.36c0-.304-3.2-.768-8.528-1.28-1.344-.096-2.624-.336-2.864-1.232a6.775 6.775 0 01.768-3.984c1.173-3.286 2.389-6.715 3.648-10.288 5.072-14.656 8.688-26.672 8.096-26.864-.592-.192-5.168 11.504-10.24 26.144l-3.472 10.336a7.758 7.758 0 00-.544 5.264 3.292 3.292 0 002.256 1.888c.743.184 1.507.27 2.272.256 5.312.128 8.608.064 8.608-.24z" fill="#263238"/><path d="M453.153 424.84a96.5 96.5 0 0050.368-15.024s-12.8 26.608-50.88 24.192l.512-9.168zm4.447-49.44a9.428 9.428 0 018.352-3.76 8.692 8.692 0 016.032 3.024 5.47 5.47 0 01.592 6.224c-1.344 2.016-4.288 2.56-6.8 1.936a19.843 19.843 0 01-6.8-3.792 6.307 6.307 0 01-1.6-1.504 1.781 1.781 0 010-1.952" fill="#EB996E"/><path d="M470.401 366.008c-.848 0-.688 5.648-5.44 9.824-4.752 4.176-10.8 3.728-10.816 4.528 0 .352 1.376 1.056 3.936 1.056a14.241 14.241 0 009.12-3.456 12.26 12.26 0 004.192-8.24c.128-2.32-.544-3.76-.992-3.712zm-.225-51.616c.56 1.408 5.76.576 11.92 1.136 6.16.56 11.2 2.096 11.952.8.336-.624-.56-1.936-2.608-3.2a20.8 20.8 0 00-18.176-1.456c-2.224.912-3.328 2.048-3.088 2.72zm-47.344-5.568c.944 1.168 4.512-.176 8.848-.368 4.336-.192 8 .576 8.832-.704.352-.608-.256-1.776-1.888-2.864a12.318 12.318 0 00-7.264-1.728 12.173 12.173 0 00-6.992 2.592c-1.504 1.264-1.968 2.448-1.536 3.072z" fill="#263238"/><path d="M442.065 243.496c36.176-21.632 76-8.24 106.496 20.8 6.72 6.4 12.8 14 21.472 17.424 9.328 3.712 21.6 2.752 27.296 11.008 6.672 9.6-1.6 23.728 3.376 34.352 4.56 9.792 18.224 12.288 23.536 21.712 4.176 7.376 1.936 16.544.272 24.864s-2.112 18.288 4.288 23.904l-78.24 32.096a20.287 20.287 0 01-11.072 1.504c-11.28-1.936-12.368-12.304-11.552-20.928.624-6.4 1.84-13.312-1.024-19.12-3.392-6.848-11.664-10.368-14.72-17.376-5.424-12.368 8.368-25.76 6.304-39.12-1.28-8.384-8.688-14.64-16.56-17.808-7.872-3.168-16.48-4.064-24.624-6.4-18.8-5.472-34.592-22.128-43.056-40.912a20.475 20.475 0 017.808-25.968v-.032z" fill="#263238"/><path d="M584.4 414.728c.132-.18.282-.346.448-.496.304-.304.752-.784 1.296-1.44a21.652 21.652 0 003.648-6.4 20.645 20.645 0 00.736-11.536 21.059 21.059 0 00-8.464-12.544 37.529 37.529 0 00-8.128-3.92 51.18 51.18 0 01-9.056-4.064 17.754 17.754 0 01-4.048-3.408 16.62 16.62 0 01-2.784-4.72 27.552 27.552 0 01-1.52-11.2c.16-3.888.912-7.776 1.456-11.744a38.05 38.05 0 00.176-12.128c-1.392-8.176-7.008-15.488-14.192-20.432-7.184-4.944-15.712-7.504-23.824-9.216-8.112-1.712-16.192-2.608-23.728-4.16a98.138 98.138 0 01-10.912-2.816c-1.744-.56-3.408-1.264-5.056-1.904-1.648-.64-3.2-1.456-4.8-2.24a69.357 69.357 0 01-15.456-11.104 68.139 68.139 0 01-15.68-22.496c-.672-1.488-1.152-2.848-1.6-4.032a31.097 31.097 0 01-.96-3.024c-.224-.832-.384-1.408-.512-1.872a5.686 5.686 0 01-.144-.656c.098.2.178.409.24.624l.576 1.856c.24.832.576 1.824 1.04 2.992.464 1.168.928 2.512 1.6 3.984a69.167 69.167 0 0031.152 33.12 84.699 84.699 0 004.688 2.192 54.757 54.757 0 005.008 1.872 100.233 100.233 0 0010.832 2.752c7.504 1.52 15.536 2.432 23.76 4.112 8.224 1.68 16.704 4.224 24.128 9.328a37.8 37.8 0 019.456 9.216A28.375 28.375 0 01558.848 331a39.028 39.028 0 01-.208 12.368c-.544 3.984-1.312 7.856-1.472 11.664a26.793 26.793 0 001.44 10.896 15.51 15.51 0 002.64 4.512 16.878 16.878 0 003.872 3.296 51.427 51.427 0 008.928 4.032 37.785 37.785 0 018.352 4.032 21.6 21.6 0 018.576 12.944 20.807 20.807 0 01-.88 11.744 21.318 21.318 0 01-3.824 6.4 14.091 14.091 0 01-1.872 1.84z" fill="#455A64"/><path d="M615.056 410.264c.061-.215.141-.424.24-.624l.784-1.84a35.467 35.467 0 001.984-7.376 38.717 38.717 0 000-12.032 37.24 37.24 0 00-5.824-14.736 34.987 34.987 0 00-6.176-6.896c-2.432-2.128-5.2-4.08-8-6.208a46.89 46.89 0 01-8-7.36 25.365 25.365 0 01-4.992-10.448c-1.824-7.824-.8-16.224-1.808-24.672a27.2 27.2 0 00-4.064-12.112 25.707 25.707 0 00-10.016-8.464 46.744 46.744 0 00-12.688-4.048c-4.336-.816-8.672-1.296-12.928-1.904a139.73 139.73 0 01-24.176-5.744 144.659 144.659 0 01-20.608-8.816 152.009 152.009 0 01-16.592-10.384 139.366 139.366 0 01-21.072-18.8c-1.104-1.248-2.128-2.336-2.944-3.328l-2.032-2.528-1.248-1.6a4.814 4.814 0 01-.4-.544c.174.146.33.312.464.496l1.312 1.504 2.096 2.48c.832.976 1.872 2.032 2.992 3.2a143.462 143.462 0 0021.168 18.544 155.864 155.864 0 0016.576 10.176 147.158 147.158 0 0020.544 8.704 140.03 140.03 0 0024 5.696c4.24.608 8.576 1.088 12.96 1.904a47.97 47.97 0 0112.912 4.112 26.506 26.506 0 0110.32 8.752A28.078 28.078 0 01584 317.96c1.008 8.592 0 16.96 1.744 24.608a24.416 24.416 0 004.8 10.16 45.804 45.804 0 008 7.28c2.768 2.128 5.536 4.096 8 6.272a35.454 35.454 0 016.224 7.04 37.595 37.595 0 015.808 14.992 38.044 38.044 0 01-.112 12.16 34.222 34.222 0 01-2.144 7.392l-.864 1.808c-.106.214-.24.414-.4.592z" fill="#455A64"/><path d="M354.16 606.52h-32.112v32.112h32.112V606.52z" fill="#263238"/><path d="M399.392 606.52H367.28v32.112h32.112V606.52zm44.495 0h-32.112v32.112h32.112V606.52z" fill="#44D08D"/><path opacity=".2" d="M443.887 606.52h-32.112v32.112h32.112V606.52z" fill="#000"/><path d="M488.4 606.52h-32.112v32.112H488.4V606.52zm44.512 0H500.8v32.112h32.112V606.52zm44.496 0h-32.112v32.112h32.112V606.52zm44.512 0h-32.112v32.112h32.112V606.52zm44.512 0H634.32v32.112h32.112V606.52z" fill="#44D08D"/><path opacity=".4" d="M399.392 606.52H367.28v32.112h32.112V606.52z" fill="#000"/><path opacity=".2" d="M532.912 606.52H500.8v32.112h32.112V606.52z" fill="#fff"/><path opacity=".4" d="M577.408 606.52h-32.112v32.112h32.112V606.52z" fill="#fff"/><path opacity=".6" d="M621.92 606.52h-32.112v32.112h32.112V606.52z" fill="#fff"/><path opacity=".8" d="M666.432 606.52H634.32v32.112h32.112V606.52z" fill="#fff"/></g><defs><clipPath id="clip0_27603_7963"><path fill="#fff" d="M0 0h1200v800H0z"/></clipPath></defs></svg>