<svg width="1200" height="800" viewBox="0 0 1200 800" fill="none" xmlns="http://www.w3.org/2000/svg"><g clip-path="url(#clip0_27603_7805)"><path d="M959.19 683.335c0 .256-180.392.476-402.838.476-222.446 0-402.874-.183-402.874-.476 0-.294 180.337-.477 402.874-.477 222.538 0 402.838.22 402.838.477z" fill="#263238"/><path d="M408.587 169.356l5.906 8.602a1.977 1.977 0 001.632.862h10.417a1.999 1.999 0 011.577 3.209l-6.345 8.253a1.944 1.944 0 00-.312 1.834l3.191 9.904a2.004 2.004 0 01-.511 2.042 2.005 2.005 0 01-2.057.452l-9.812-3.485a1.987 1.987 0 00-1.834.257l-8.436 6.107a1.995 1.995 0 01-2.899-.606 2.012 2.012 0 01-.274-1.063l.294-10.398a2 2 0 00-.826-1.669l-8.418-6.144a2.002 2.002 0 01-.299-2.936c.247-.277.567-.48.923-.585l9.94-2.88a1.965 1.965 0 001.339-1.284l3.228-9.903a2.004 2.004 0 012.716-1.282c.348.151.647.399.86.713zm460.792 209.663l7.336 3.815a1.6 1.6 0 001.467 0l7.336-3.907a1.598 1.598 0 012.21.805c.113.273.148.572.101.864l-1.357 8.18a1.61 1.61 0 00.477 1.412l5.979 5.759a1.592 1.592 0 01.421 1.635 1.594 1.594 0 01-1.283 1.098l-8.217 1.228a1.581 1.581 0 00-1.192.881l-3.668 7.464a1.575 1.575 0 01-2.842 0l-3.668-7.428a1.62 1.62 0 00-1.211-.862l-8.216-1.155a1.581 1.581 0 01-.899-2.696l5.924-5.832a1.6 1.6 0 00.391-.653 1.6 1.6 0 00.049-.759l-1.449-8.18a1.581 1.581 0 01.628-1.565 1.574 1.574 0 011.683-.104zM457.793 134.253l1.559 4.75a1.011 1.011 0 00.641.606l4.787 1.412a.956.956 0 01.617 1.274.957.957 0 01-.323.413l-4.017 2.935a.984.984 0 00-.403.806l.146 4.989a.933.933 0 01-1.014.979.944.944 0 01-.489-.19l-4.054-2.916a1.017 1.017 0 00-.88-.129l-4.695 1.687a.951.951 0 01-1.247-.668.953.953 0 01.018-.524l1.522-4.75a1.01 1.01 0 00-.146-.88l-3.045-3.943a.951.951 0 01.752-1.541h4.989a.922.922 0 00.77-.403l2.824-4.127a.955.955 0 011.688.22z" fill="#44D08D"/><path d="M594.995 106.707l62.612 126.876a27.142 27.142 0 0020.413 14.818l140.007 20.34a27.11 27.11 0 0121.898 18.454 27.113 27.113 0 01-6.877 27.799l-101.31 98.743a27.14 27.14 0 00-7.795 23.988l40.458 148.077c1.064 19.221-29.105 32.297-55.864 19.936l-125.225-65.822a27.013 27.013 0 00-25.218 0l-125.225 65.822a27.105 27.105 0 01-39.321-28.574L417.39 437.78a27.142 27.142 0 00-7.776-24.062l-101.255-98.724a27.112 27.112 0 01-6.867-27.813 27.112 27.112 0 0121.924-18.44l140.007-20.34a27.077 27.077 0 0020.394-14.818l60.871-123.318c7.574-15.351 16.781-21.403 45.85-21.403 9.555 0-.514 7.776 4.457 17.845z" fill="#44D08D"/><path opacity=".3" d="M594.995 106.707l62.612 126.876a27.142 27.142 0 0020.413 14.818l140.007 20.34a27.11 27.11 0 0121.898 18.454 27.113 27.113 0 01-6.877 27.799l-101.31 98.743a27.14 27.14 0 00-7.795 23.988l40.458 148.077c1.064 19.221-29.105 32.297-55.864 19.936l-125.225-65.822a27.013 27.013 0 00-25.218 0l-125.225 65.822a27.105 27.105 0 01-39.321-28.574L417.39 437.78a27.142 27.142 0 00-7.776-24.062l-101.255-98.724a27.112 27.112 0 01-6.867-27.813 27.112 27.112 0 0121.924-18.44l140.007-20.34a27.077 27.077 0 0020.394-14.818l60.871-123.318c7.574-15.351 16.781-21.403 45.85-21.403 9.555 0-.514 7.776 4.457 17.845z" fill="#000"/><path d="M425.698 411.554a46.095 46.095 0 01-9.06 1.486c-3.03.499-6.103.683-9.17.55a45.288 45.288 0 019.06-1.504 43.716 43.716 0 019.17-.532zm2.843 11.848a13.329 13.329 0 01-4.934 1.045 13.032 13.032 0 01-5.025 0 13.994 13.994 0 014.933-1.027 13.697 13.697 0 015.026-.018zm-11.591-22.063a54.19 54.19 0 01-9.941 1.595 54.361 54.361 0 01-10.05.661 50.665 50.665 0 019.94-1.596 54.285 54.285 0 0110.051-.66zm-9.831-9.775a50.663 50.663 0 01-9.94 1.595 54.274 54.274 0 01-10.05.66 50.663 50.663 0 019.94-1.595 54.28 54.28 0 0110.05-.66zm-9.811-9.775a50.738 50.738 0 01-9.94 1.595 54.285 54.285 0 01-10.051.66 54.19 54.19 0 019.941-1.595 54.274 54.274 0 0110.05-.66zm-9.813-9.776a51.45 51.45 0 01-9.94 1.614c-3.323.52-6.687.735-10.05.642a54.266 54.266 0 019.94-1.596 54.28 54.28 0 0110.05-.66zm-9.811-9.775a51.462 51.462 0 01-9.94 1.614c-3.324.52-6.688.735-10.051.642a54.19 54.19 0 019.941-1.596 54.274 54.274 0 0110.05-.66zm-9.812-9.757a54.252 54.252 0 01-9.94 1.596 53.161 53.161 0 01-10.05.641 54.179 54.179 0 019.94-1.595 51.472 51.472 0 0110.05-.642zm-9.812-9.775a54.192 54.192 0 01-9.94 1.595 53.095 53.095 0 01-10.051.642 54.19 54.19 0 019.941-1.595 51.472 51.472 0 0110.05-.642zm-9.812-9.775a54.165 54.165 0 01-9.94 1.595 51.472 51.472 0 01-10.05.642 54.179 54.179 0 019.94-1.595 51.472 51.472 0 0110.05-.642zm-28.83-42.494a44.872 44.872 0 01-9.299.88 44.338 44.338 0 01-9.335-.092 47.337 47.337 0 019.299-.862 46.894 46.894 0 019.335.074zm3.026-10.417a39.195 39.195 0 01-8.767.256 41.488 41.488 0 01-8.73-.696c2.904-.414 5.844-.5 8.767-.257a41.428 41.428 0 018.73.697zm9.537-9.831a24.922 24.922 0 01-6.951.624 24.93 24.93 0 01-6.951-.348 26.013 26.013 0 016.933-.606 26.469 26.469 0 016.969.33zm6.455 52.966a54.109 54.109 0 01-9.94 1.596 51.482 51.482 0 01-10.051.642 54.19 54.19 0 019.941-1.596 51.472 51.472 0 0110.05-.642zm-8.711-10.527a52.133 52.133 0 01-9.959 1.614 55.15 55.15 0 01-10.05.642 54.266 54.266 0 019.94-1.596 54.478 54.478 0 0110.069-.66zm-8.143-10.472a53.715 53.715 0 01-9.904 1.596 52.672 52.672 0 01-9.995.642 53.67 53.67 0 019.885-1.596 54.753 54.753 0 0110.014-.642zM719.56 592.863a45.205 45.205 0 01-8.088 4.31 44.325 44.325 0 01-8.492 3.448 88.284 88.284 0 0116.506-7.758h.074zm6.455 10.326a13.76 13.76 0 01-4.328 2.549 13.545 13.545 0 01-4.732 1.688 26.51 26.51 0 019.06-4.237zm-18.064-17.185a54.069 54.069 0 01-8.914 4.695 52.29 52.29 0 01-9.316 3.834 106.665 106.665 0 0118.23-8.529zm-12.416-6.125a105.009 105.009 0 01-18.23 8.546 53.313 53.313 0 018.913-4.713 53.939 53.939 0 019.317-3.833zm-12.435-6.108a52.572 52.572 0 01-8.913 4.696 53.368 53.368 0 01-9.317 3.851 52.616 52.616 0 018.913-4.713 54.716 54.716 0 019.317-3.834zm-12.416-6.125a104.828 104.828 0 01-18.23 8.546 108.61 108.61 0 0118.23-8.546zm-12.435-6.107a53.313 53.313 0 01-8.913 4.713 54.04 54.04 0 01-9.316 3.833 53.274 53.274 0 018.913-4.713 53.961 53.961 0 019.316-3.833zm-12.434-6.107a104.93 104.93 0 01-18.23 8.528 54.957 54.957 0 018.913-4.695 52.913 52.913 0 019.317-3.833zm-12.453-6.126a104.862 104.862 0 01-18.23 8.546 52.567 52.567 0 018.913-4.695 53.368 53.368 0 019.317-3.851zm-12.398-6.107a52.529 52.529 0 01-8.913 4.695 53.26 53.26 0 01-9.317 3.851 104.862 104.862 0 0118.23-8.546zm-12.416-6.107a106.66 106.66 0 01-18.23 8.528 54.069 54.069 0 018.914-4.695 52.211 52.211 0 019.316-3.833zm-11.646-7.171a53.352 53.352 0 01-8.913 4.713 54.083 54.083 0 01-9.317 3.833 104.794 104.794 0 0118.23-8.546zm-15.259-5.301a13.537 13.537 0 01-4.346 2.568 13.882 13.882 0 01-4.769 1.706 13.516 13.516 0 014.365-2.568 13.854 13.854 0 014.75-1.706z" fill="#44D08D"/><path d="M614.729 103.974l62.649 126.858a27.041 27.041 0 0020.394 14.818l140.008 20.358a27.088 27.088 0 0115.02 46.217l-101.31 98.761a27.105 27.105 0 00-7.794 23.988l23.842 139.384a27.087 27.087 0 01-10.763 26.494 27.092 27.092 0 01-28.521 2.08L603.028 537.11a27.013 27.013 0 00-25.218 0l-125.225 65.822a27.083 27.083 0 01-37.678-13.748 27.087 27.087 0 01-1.625-14.771l23.842-139.384a27.096 27.096 0 00-7.794-23.988L328.02 312.28a27.08 27.08 0 01-6.864-27.78 27.08 27.08 0 0121.884-18.437l140.008-20.358a27.033 27.033 0 0020.394-14.818l62.613-126.858a27.104 27.104 0 0148.674-.055z" fill="#EAFF8C"/><path d="M497.151 238.498a44.57 44.57 0 01-4.218-8.143 43.69 43.69 0 01-3.338-8.546 44.633 44.633 0 014.218 8.143 43.728 43.728 0 013.338 8.546zm-10.399 6.364a13.657 13.657 0 01-2.494-4.365 13.452 13.452 0 01-1.651-4.75 12.827 12.827 0 012.513 4.365 13.641 13.641 0 011.632 4.75zm17.404-17.9a53.667 53.667 0 01-4.585-8.968 50.587 50.587 0 01-3.668-9.372 53.555 53.555 0 014.585 8.968 53.813 53.813 0 013.668 9.372zm6.328-12.306a52.823 52.823 0 01-4.603-8.968 53.952 53.952 0 01-3.668-9.354 54.368 54.368 0 014.603 8.968 53.984 53.984 0 013.668 9.354zm6.199-12.343a53.517 53.517 0 01-4.585-8.968 53.782 53.782 0 01-3.668-9.372 53.63 53.63 0 014.585 8.968 53.972 53.972 0 013.668 9.372zm6.272-12.343a55.315 55.315 0 01-4.603-8.968 54.487 54.487 0 01-3.668-9.372 52.795 52.795 0 014.603 8.969 53.93 53.93 0 013.668 9.371zm6.272-12.361a51.296 51.296 0 01-4.603-8.968 54.719 54.719 0 01-3.668-9.353 52.665 52.665 0 014.585 8.968 53.257 53.257 0 013.686 9.353zm6.255-12.343a53.478 53.478 0 01-4.585-8.968 52.084 52.084 0 01-3.668-9.372 53.676 53.676 0 014.585 8.969 53.93 53.93 0 013.668 9.371zm6.272-12.361a54.41 54.41 0 01-4.604-8.968 54.113 54.113 0 01-3.668-9.354 54.42 54.42 0 014.604 8.969 54.103 54.103 0 013.668 9.353zm6.254-12.343a53.507 53.507 0 01-4.512-8.968 53.91 53.91 0 01-3.668-9.372 53.526 53.526 0 014.585 8.969 52.124 52.124 0 013.595 9.371zm6.271-12.361a53.629 53.629 0 01-4.585-8.968 53.374 53.374 0 01-3.668-9.353 51.161 51.161 0 014.604 8.968 54.01 54.01 0 013.649 9.353zm7.3-11.536a53.478 53.478 0 01-4.585-8.968 53.918 53.918 0 01-3.668-9.372 53.507 53.507 0 014.585 8.969 52.177 52.177 0 013.668 9.371zm5.502-15.203a13.309 13.309 0 01-2.531-4.384 13.815 13.815 0 01-1.632-4.787 14.36 14.36 0 012.586 4.457 14.078 14.078 0 011.577 4.714z" fill="#44D08D"/><path d="M464.544 251.914s-.532.11-1.54.257l-4.475.587-16.415 1.944-54.158 6.144-29.784 3.191c-4.585.495-8.95.935-12.966 1.687a44.028 44.028 0 00-10.784 3.32 24.925 24.925 0 00-11.738 11.004 23.106 23.106 0 00-1.834 5.722 1.186 1.186 0 010-.403c0-.276 0-.661.129-1.174a17.754 17.754 0 011.357-4.31 24.792 24.792 0 0111.774-11.426 43.707 43.707 0 0111.004-3.485c4.053-.806 8.436-1.283 13.021-1.834l29.84-3.301 54.249-5.813 16.506-1.651 4.475-.404a7.99 7.99 0 011.339-.055zm202.933-38.199s-.279-.466-.749-1.37l-2.027-4.032-7.239-14.86-23.627-49.118-12.817-27.075c-1.977-4.166-3.829-8.143-5.861-11.688a44.023 44.023 0 00-6.684-9.09 24.926 24.926 0 00-14.254-7.462 23.107 23.107 0 00-6.007.151 1.19 1.19 0 01.381-.132c.26-.09.623-.218 1.15-.265a17.756 17.756 0 014.517-.137 24.798 24.798 0 0114.665 7.357 43.696 43.696 0 016.912 9.244c2.096 3.562 3.989 7.544 6.018 11.692l12.938 27.09 23.346 49.313 6.992 15.043 1.854 4.093c.199.401.364.818.492 1.246zm100.287 184.104s.342-.421 1.03-1.174l3.092-3.287 11.474-11.898 38.028-39.047 21.033-21.329c3.235-3.287 6.335-6.391 8.967-9.516a44.027 44.027 0 006.245-9.398 24.925 24.925 0 002.118-15.949 23.105 23.105 0 00-2.204-5.59c.102.089.189.195.256.312.174.213.418.511.643.99a17.769 17.769 0 011.679 4.195 24.796 24.796 0 01-1.879 16.299 43.67 43.67 0 01-6.311 9.665c-2.626 3.191-5.717 6.335-8.917 9.664l-21.005 21.449-38.309 38.85-11.731 11.728-3.208 3.146a7.825 7.825 0 01-1.001.89z" fill="#626262"/><path d="M469.255 593.017c-.118-.226 17.713-10.115 39.875-22.067 22.162-11.953 40.171-21.469 40.305-21.234.133.236-17.714 10.114-39.876 22.067s-40.233 21.43-40.304 21.234z" fill="#7D7D7D"/><path d="M608.15 538.807a52.145 52.145 0 00-9.17-2.953 49.06 49.06 0 00-23.054 1.467 107.007 107.007 0 00-21.439 9.61l-6.217 3.522c-.736.472-1.516.872-2.33 1.192a14.699 14.699 0 012.146-1.522c1.412-.917 3.466-2.22 6.052-3.76a95.628 95.628 0 0121.422-9.904 47.304 47.304 0 0123.456-1.229 32.668 32.668 0 016.786 2.33c.596.263 1.173.57 1.724.917.44.22.642.33.624.33z" fill="#7D7D7D"/><path d="M854.248 209.319l20.028-6.199a53.518 53.518 0 0071.311-11.312 53.516 53.516 0 10-85.158-1.93l-6.181 19.441z" fill="#fff"/><path d="M854.249 209.319s.091-.404.348-1.229l1.119-3.668 4.475-14.672a.219.219 0 01.107-.13.227.227 0 01.168-.017l-.312.294a53.188 53.188 0 01-9.977-25.181 53.943 53.943 0 018.143-35.415 54.59 54.59 0 0114.911-15.35 53.67 53.67 0 0121.311-8.657 54.912 54.912 0 0124.318 1.504 56.667 56.667 0 0111.683 4.97 56.409 56.409 0 0118.487 17.79 56.609 56.609 0 015.502 11.426 54.433 54.433 0 012.476 24.117 52.72 52.72 0 01-7.666 21.586 53.976 53.976 0 01-32.224 23.769 54.694 54.694 0 01-17.294 1.577 53.177 53.177 0 01-25.676-8.785h.183l-15.039 4.567-3.815 1.137-1.247.367 19.973-6.493a.164.164 0 01.091-.027c.033 0 .065.009.092.027a53.445 53.445 0 0025.474 8.51 55.52 55.52 0 0017.056-1.632 54.12 54.12 0 0017.35-8.161 53.407 53.407 0 0014.324-15.314 52 52 0 007.519-21.238 53.615 53.615 0 00-2.476-23.695 54.03 54.03 0 00-23.493-28.702 55.667 55.667 0 00-11.481-4.879 54.107 54.107 0 00-23.842-1.522 53.32 53.32 0 00-35.708 23.567 52.973 52.973 0 00-8.528 30.182 52.974 52.974 0 0010.032 29.716.248.248 0 01.019.147.236.236 0 01-.204.193.243.243 0 01-.145-.028l.348-.092c-4.035 12.233-5.924 18.01-6.382 19.441z" fill="#263238"/><path d="M914.312 173.519l.477-21.641s-4.75-1.046-8.859-7.611a36.077 36.077 0 01-4.401-9.739 2.444 2.444 0 00-2.568-1.834 3.775 3.775 0 00-3.319 2.293c-1.522 3.264.513 11.334.513 11.334s.844 1.632-1.412 1.577l-8.033-.183a4.417 4.417 0 00-2.879.972 3.208 3.208 0 00-1.247 2.806c.183 3.062 1.834 4.475 1.742 5.117a5.793 5.793 0 00-.33 3.668c.605 1.834 1.009 1.724.99 2.604-.03 1.533.18 3.062.624 4.53a6.452 6.452 0 001.173 2.036 11.093 11.093 0 00.459 4.603c.77 1.706 4.127 2.659 5.245 2.678 1.119.018 9.17-1.394 11.481-1.834 2.311-.441 8.161-2.458 10.344-1.376zm4.09-22.041l-.497 22.241 8.27.184.496-22.241-8.269-.184z" fill="#44D08D"/><path d="M307.093 385.603h-155.89v82.438h114.625c3.393 5.209 10.564 17.075 10.564 17.075l8.253-17.075h22.448v-82.438z" fill="#fff"/><path d="M307.093 385.603v22.063c0 14.305.11 34.938.184 60.375v.349H284.48l.349-.22c-2.586 5.355-5.356 11.132-8.235 17.074l-.33.679-.385-.642-10.564-17.038.348.183H150.635v-83.355h.44l112.369.183 32.187.147h10.71-10.82l-32.15.147-112.241.183.44-.44v82.438l-.477-.476h114.9l.129.201c3.668 5.943 7.336 11.72 10.545 17.093h-.715c2.879-5.942 5.667-11.719 8.271-17.074l.11-.22h22.687l-.367.366c0-25.345.147-45.85.202-60.173v-20.798c0-.99.238-1.045.238-1.045z" fill="#263238"/><path d="M187.572 426.189a7.334 7.334 0 004.419-6.657 6.852 6.852 0 00-1.812-5.095 6.87 6.87 0 00-4.941-2.198 6.864 6.864 0 00-4.998 2.065 6.856 6.856 0 00-1.949 5.044 7.335 7.335 0 004.292 6.86c-10.545 1.504-10.16 12.966-10.16 12.966l24.924.33s.66-11.664-9.775-13.315z" fill="#44D08D"/><path d="M285.342 414.543c0 .147-15.901.276-35.507.276-19.605 0-35.506-.129-35.506-.276 0-.146 15.901-.293 35.506-.293 19.606 0 35.507.128 35.507.293zm0 8.492c0 .165-15.901.293-35.507.293-19.605 0-35.506-.128-35.506-.293 0-.165 15.901-.275 35.506-.275 19.606 0 35.507.128 35.507.275zm0 8.51c0 .146-15.901.275-35.507.275-19.605 0-35.506-.129-35.506-.275 0-.147 15.901-.294 35.506-.294 19.606 0 35.507.129 35.507.294zm-28.556 10.747c0 .165-9.5.293-21.219.293-11.719 0-21.238-.128-21.238-.293 0-.165 9.5-.293 21.238-.293 11.737 0 21.219.128 21.219.293z" fill="#263238"/><path d="M751.857 334.801c-2.549-20.816-5.722-42.292-16.91-60.045-11.187-17.753-32.553-30.775-52.911-25.786-3.668 21.696-7.684 44.731 4.677 62.961 2.843 4.2 6.529 8.051 7.795 12.966 1.357 5.337-.367 10.894-1.651 16.231-9.738 39.945 3.668 81.485 16.946 120.402 14.489 42.494 29.528 85.997 57.991 120.696-.22-10.509-2.017-18.432-3.319-26.355-2.073-12.581-4.218-24.373-7.043-40.824-3.228-18.854-11.004-59.899-13.865-81.155a27.759 27.759 0 012.384-15.369 34.61 34.61 0 018.088-9.995l3.668-3.503c-2.402-32.113-1.944-38.312-5.85-70.224z" fill="#000" opacity=".3"/><path d="M827.16 640.877l-21.109 31.747s25.071 32.076 21.751 38.312l-62.851-38.734 30.866-50.655 31.343 19.33z" fill="#44D08D"/><path d="M827.16 640.877l-21.109 31.747s25.071 32.076 21.751 38.312l-62.851-38.734 30.866-50.655 31.343 19.33z" fill="#000" opacity=".3"/><path d="M788.299 657.824a3.022 3.022 0 00-3.668 1.834 2.913 2.913 0 001.834 3.576 3.193 3.193 0 003.778-1.962 3.01 3.01 0 00-2.275-3.503" fill="#E0E0E0"/><path d="M764.951 672.111l3.32-4.989 59 39.009s2.054 2.935.531 4.714l-62.851-38.734z" fill="#fff" opacity=".6"/><path d="M807.262 672.825c-.202.312-1.834-.495-3.943-.44-2.109.055-3.668.844-3.925.551-.257-.294 1.339-1.834 3.907-1.834 2.567 0 4.291 1.522 3.961 1.723zm4.915 6.805c-.128.33-1.834 0-3.668.697s-2.989 1.834-3.283 1.632c-.293-.202.569-2.054 2.88-2.824 2.31-.771 4.236.183 4.071.495zm-1.119 10.197c-.33-.11.184-1.834 2.018-3.1 1.834-1.265 3.668-.99 3.668-.642 0 .349-1.486.679-2.953 1.688-1.467 1.008-2.421 2.2-2.733 2.054zm.202-24.741c-.312.202-1.449-1.082-3.265-2.036-1.815-.953-3.502-1.247-3.484-1.595.018-.349 1.962-.661 4.09.495 2.127 1.155 2.971 2.989 2.659 3.136zm4.145-6.456c0 .129-1.394-.44-3.136-1.962a16.696 16.696 0 01-2.66-3.044 17.143 17.143 0 01-1.228-2.073 4.988 4.988 0 01-.496-1.32 1.576 1.576 0 01.881-1.724 2.004 2.004 0 011.834.128c.4.242.759.545 1.063.899a12.184 12.184 0 011.559 1.834 13.114 13.114 0 011.724 3.668 6.34 6.34 0 01.275 3.668c-.201 0-.33-1.376-1.118-3.411a15.255 15.255 0 00-1.834-3.32 13.689 13.689 0 00-1.468-1.669c-.55-.587-1.118-.935-1.467-.752-.348.184-.165.129-.146.404.071.341.195.668.366.972.33.697.697 1.357 1.064 1.98a21.292 21.292 0 002.329 3.027c1.431 1.705 2.568 2.53 2.458 2.695z" fill="#263238"/><path d="M814.744 658.814c-.146 0 0-1.486 1.046-3.54a11.77 11.77 0 014.53-4.603 3.015 3.015 0 012.989-.349 1.832 1.832 0 01.77 1.688 5.01 5.01 0 01-.385 1.339 9.05 9.05 0 01-1.302 2.127 8.455 8.455 0 01-3.356 2.421c-2.238.88-3.668.458-3.668.33a29.35 29.35 0 003.338-1.137 8.41 8.41 0 002.824-2.348 7.343 7.343 0 001.046-1.834c.33-.715.403-1.412.11-1.503a2.132 2.132 0 00-1.743.348 13.04 13.04 0 00-1.834 1.229 12.974 12.974 0 00-2.549 2.769c-1.247 1.779-1.632 3.118-1.816 3.063z" fill="#263238"/><path d="M821.347 647.553l6.859 37.414s40.348 5.502 42.292 12.379l-72.076 15.919-13.095-57.862 36.02-7.85z" fill="#44D08D"/><path d="M805.226 686.764a3.031 3.031 0 00-1.368 1.663 3.03 3.03 0 00.085 2.152 2.896 2.896 0 003.759 1.32 3.211 3.211 0 001.357-4.053 3.042 3.042 0 00-4.071-.935" fill="#E0E0E0"/><path d="M798.422 713.265l-1.101-5.887 69.527-13.058s3.503.697 3.668 3.026l-72.094 15.919z" fill="#fff" opacity=".6"/><path d="M829.288 684.343c0 .349-1.65.899-3.136 2.421-1.485 1.522-2.072 3.191-2.421 3.136-.348-.055-.293-2.219 1.541-4.034 1.834-1.816 4.035-1.853 4.016-1.523zm8.253 1.467c.165.312-1.228 1.248-2.09 3.008-.862 1.761-.862 3.393-1.229 3.466-.367.074-1.009-1.834.11-4.034 1.119-2.201 3.136-2.788 3.209-2.44zm6.291 8.088c-.294.147-1.174-1.504-.697-3.668s1.962-3.246 2.164-2.989c.202.257-.568 1.504-.935 3.264-.367 1.761-.092 3.283-.532 3.393zm-17.038-17.9c-.092.349-1.834.22-3.76.789-1.926.569-3.374 1.541-3.668 1.284-.293-.257.972-1.834 3.283-2.494 2.311-.661 4.255.091 4.145.421zm-1.541-7.537a6.817 6.817 0 01-3.668.788 15.975 15.975 0 01-4.016-.33 16.902 16.902 0 01-2.329-.642 5.172 5.172 0 01-1.266-.605 1.595 1.595 0 01-.587-1.834 1.975 1.975 0 011.376-1.155 4.698 4.698 0 011.394-.11c.807.014 1.612.106 2.402.275 1.34.278 2.628.767 3.815 1.449 2.017 1.173 2.879 2.366 2.769 2.457-.11.092-1.192-.77-3.173-1.669a15.344 15.344 0 00-3.668-1.1 14.462 14.462 0 00-2.219-.183c-.807 0-1.467.11-1.577.495-.11.385 0 .201.165.385.294.182.608.33.935.44a17.72 17.72 0 002.146.66c1.244.312 2.516.502 3.796.569a28.287 28.287 0 013.705.11z" fill="#263238"/><path d="M824.924 669.066c-.129.091-1.101-1.027-1.724-3.265a12.072 12.072 0 01-.385-4.071c.061-.808.208-1.608.44-2.384a3.04 3.04 0 011.834-2.33 1.84 1.84 0 011.742.661c.276.383.498.803.66 1.247a8.537 8.537 0 01-.183 6.492c-.99 2.183-2.366 2.934-2.421 2.824-.055-.11.917-1.1 1.596-3.136a8.53 8.53 0 00.385-3.668 7.76 7.76 0 00-.514-2.072c-.293-.734-.715-1.284-.99-1.155-.275.128-.825.788-.99 1.467a10.42 10.42 0 00-.459 2.145 13.197 13.197 0 00.092 3.76c.422 2.164 1.082 3.375.917 3.485z" fill="#263238"/><path d="M807.023 335.7l87.72 135.331c8.363 12.251 13.113 24.85 11.866 39.394a56.28 56.28 0 01-9.39 26.116l-71.526 125.06-35.708-36.514 52.709-111.379-50.288-67.712L765.703 335.7h41.32z" fill="#263238"/><path d="M832.314 673.926l-44.163-305.361-2.457-30.976-75.579-4.09s-12.196 39.138-13.205 59.403c-1.009 20.266 44.97 127.977 44.97 127.977l10.692 53.883 30.646 109.306 49.096-10.142z" fill="#263238"/><path d="M704.32 327.208c-1.357-2.219 9.023-11.004 25.676-24.539l13.645-11.169a70.49 70.49 0 0119.33-11.994 47.575 47.575 0 0127.052-1.834 45.542 45.542 0 0113.718 5.502 36.458 36.458 0 0111.719 11.187 24.369 24.369 0 012.274 4.31 16.522 16.522 0 011.248 6.749 14.184 14.184 0 01-3.008 8.217 13.254 13.254 0 01-3.998 3.356c-.86.459-1.771.816-2.715 1.064-.874.234-1.772.369-2.677.403a14.32 14.32 0 01-7.758-2.017c-1.486-.881-2.293-1.486-2.733-1.834-.44-.349-.293-.165-.165-.11.154.057.314.094.477.11.312 0 .312 0 0 0a31.089 31.089 0 00-4.402 1.137 36.132 36.132 0 01-3.668.825c-1.247.183-2.512.349-3.668.404a64.98 64.98 0 01-12.562-.789 93.792 93.792 0 00-9.427-1.045 23.29 23.29 0 00-7.336.825 66.03 66.03 0 00-14.25 6.877 81.674 81.674 0 01-13.92 6.988 33.766 33.766 0 01-12.27 2.237 16.501 16.501 0 01-7.776-1.834c-1.596-.935-2.201-1.834-1.999-2.421.44-1.338 3.833-1.008 8.84-2.824a41.067 41.067 0 008.73-4.42 119.826 119.826 0 0011.004-8.418 67.145 67.145 0 0116.506-10.564 37.27 37.27 0 0112.104-2.622 88.99 88.99 0 0111.499.348c3.138.332 6.3.375 9.445.128.679 0 1.284-.183 1.926-.293.642-.11 1.1-.257 1.834-.495a43.046 43.046 0 016.786-1.834 17.522 17.522 0 015.887 0c1.133.201 2.24.527 3.301.972a18.28 18.28 0 012.476 1.229c1.265.77 2.091 1.32 2.348 1.43v.184l-.441.935c-.36.731-.672 1.484-.935 2.256a8.577 8.577 0 00-.348 1.357c-.018.164-.018.33 0 .495-.11-.422.146.55.128.44-.018-.11 0 0 0-.146a2.288 2.288 0 00-.624-.697 2.216 2.216 0 00-.605-.367h.312-1.155a5.8 5.8 0 00-1.559.165c-.447.089-.888.205-1.321.348l-.403.129a7.22 7.22 0 00-.642-1.137c-2.696-4.255-8.327-7.648-14.14-9.17a32.442 32.442 0 00-17.332.275 63.68 63.68 0 00-15.864 8.289c-5.3 3.485-10.472 6.75-15.204 9.519-19.22 11.206-32.076 16.029-33.36 13.883z" fill="#F5F5F5"/><path d="M779.587 180.231c1.559.276 16.616 6.603 23.438 9.482a9.883 9.883 0 014.97 4.677l33.563 67.748-25.952 18.01s3.045 52.911-3.668 55.588c-2.512.991-93.24.826-93.24.826s-9.812 3.484-13.315 0c-2.714-2.678-1.669-7.905-1.669-7.905V218.195l-4.897-30.407s46.822-13.554 80.77-7.557z" fill="#455A64"/><path d="M716.681 211.299l1.43 54.929-46.803 4.475c0-.294-5.044-71.196 27.51-82.915l17.863 23.511z" fill="#455A64"/><path d="M813.663 270.703c-.276-1.834-.587-3.851-1.083-7.208-.715-4.952-1.632-11.389-2.659-18.486-1.027-7.098-1.834-13.517-2.604-18.487-.294-2.201-.55-4.072-.77-5.612a8.338 8.338 0 01-.165-2.073c.269.64.454 1.312.55 1.999.275 1.321.66 3.21 1.063 5.502.844 4.714 1.834 11.243 2.898 18.469 1.064 7.226 1.834 13.773 2.366 18.542.275 2.365.44 4.291.532 5.63v1.797s0 .165-.165 0c.018-.018.018-.073.037-.073z" fill="#263238"/><path d="M810.673 302.046a23.829 23.829 0 00-13.113-13.7 44.683 44.683 0 00-19.055-3.338 62.133 62.133 0 00-32.37 8.913c-14.36 9.17-23.971 25.181-39.761 31.472l-1.944 2.769a64.433 64.433 0 0035.213-8.418c6.932-3.98 13.204-9.298 20.779-11.884 6.694-2.274 13.92-2.238 20.981-2.183 6.675 0 13.791.257 19.33 3.98a11.403 11.403 0 005.19 2.678 5.352 5.352 0 005.025-3.668c.647-2.177.55-4.506-.275-6.621z" fill="#000" opacity=".3"/><path d="M790.371 263.99l5.612-14.177a3.67 3.67 0 013.485-2.384h26.629c.44-.002.873.102 1.263.305a2.698 2.698 0 011.268 3.363l-17.093 46.327a1.388 1.388 0 01-1.302.917h-31.526a1.391 1.391 0 01-1.341-1.192 1.398 1.398 0 01.057-.642l12.948-32.517z" fill="#263238"/><path d="M823.805 293.408l3.155-17.24-2.605-13.572-4.163 11.298v4.567c-1.54-.404-15.827-12.508-19.66-9.904-3.833 2.604-13.645 16.909-13.645 16.909s17.258 16.873 20.027 18.139c0 0 .917 10.655 1.045 16.157.11 4.677.991 6.456 7.061 8.492 6.071 2.035 13.774-8.547 13.774-17.992 0-5.887-4.989-16.854-4.989-16.854z" fill="#FFBE9D"/><path d="M712.609 267.31l1.504 18.12 43.631-15.938 19.422-8.986 8.491 2.127s26.722 1.834 26.96 3.448c.238 1.614 1.449 3.155 0 3.411-1.449.257-22.577 1.211-22.577 1.211s22.779 1.449 23.274 3.154c.495 1.706-.22 4.365-1.431 4.365h-24.759s23.311 1.468 23.549 2.44c.238.972 1.944 2.659-.238 3.392-2.183.734-23.549 1.449-23.549 1.449l20.174 3.668s.734 3.155-.954 3.155c-1.687 0-45.666 2.916-45.666 2.916s-51.462 32.828-61.183 35.213c-9.72 2.384-18.211-8.859-19.422-16.8-1.834-11.976-3.466-43.154-3.466-43.154l36.24-3.191z" fill="#FFBE9D"/><path d="M760.404 295.187l.898-.11 2.623-.22 10.069-.734 15.919-1.1 9.922-.679 5.502-.367a4.078 4.078 0 002.421-.623c.421-.44-.239-1.394-.881-1.963l.184.092-20.174-3.668a.423.423 0 01-.241-.678.423.423 0 01.241-.147l11.939-.532 6.217-.367c1.064 0 2.109-.165 3.173-.275 1.064-.11 2.201-.128 2.769-.697.569-.568.276-1.724-.366-2.109a9.882 9.882 0 00-1.449-.238l-1.632-.202-6.676-.697-13.774-1.284a.475.475 0 01-.321-.166.459.459 0 01-.1-.347.458.458 0 01.476-.441h24.649c.331 0 .716-.403.954-.898a2.126 2.126 0 00-.495-2.843 13.296 13.296 0 00-2.623-.568l-2.824-.404-5.649-.679-11.15-1.155a.495.495 0 01-.441-.532.53.53 0 01.459-.44l14.378-.679 6.988-.403c.498.004.993-.07 1.467-.22a1.058 1.058 0 00.385-1.064 2.065 2.065 0 00-.642-1.192 3.178 3.178 0 00-1.357-.532c-4.346-.898-8.803-1.32-13.058-1.834-4.255-.513-8.473-.88-12.544-1.247l-8.51-2.164h.275l-19.44 8.932-31.967 11.517-8.712 3.081-2.274.789a4.388 4.388 0 01-.788.22c.242-.129.493-.239.752-.33l2.237-.862 8.657-3.265 31.746-11.719 19.404-9.023a.329.329 0 01.257 0l8.509 2.127c4.072.349 8.272.752 12.563 1.192 4.292.44 8.693.899 13.205 1.834a3.93 3.93 0 011.742.752c.532.472.866 1.127.936 1.834a2 2 0 01-.807 1.981 4.822 4.822 0 01-1.834.348l-7.006.422-14.379.697v-.972l11.169 1.156 5.649.678 2.861.404c1.016.106 2.014.34 2.971.697a2.642 2.642 0 011.266 1.944 3.947 3.947 0 01-.386 2.164 3.146 3.146 0 01-.641.935 1.582 1.582 0 01-.514.385 1.438 1.438 0 01-.679.147h-24.777v-.972l13.773 1.302 6.676.715 1.651.202c.624.036 1.24.153 1.834.348a2.454 2.454 0 011.119 1.651 2.075 2.075 0 01-.551 1.834 3.079 3.079 0 01-1.705.77c-.532 0-1.082.147-1.614.184-1.082.11-2.146.183-3.191.256l-6.254.367-11.958.477v-.825l20.174 3.668a.33.33 0 01.165 0c.389.359.722.773.99 1.229a1.556 1.556 0 010 1.834 4.328 4.328 0 01-2.897.862l-5.502.33-9.941.587-15.919.935-10.087.55-2.641.11a5.546 5.546 0 01-.843-.073zm-60.138 10.82a11.142 11.142 0 01.33-3.814 24.583 24.583 0 013.485-8.584 23.47 23.47 0 016.602-6.492 11.014 11.014 0 013.43-1.724c.238.312-5.264 2.861-9.17 8.767a28.633 28.633 0 00-3.668 8.198 21.472 21.472 0 01-1.009 3.649z" fill="#EB996E"/><path d="M812.397 259.185a2.332 2.332 0 01-1.453 3.347 2.329 2.329 0 01-1.518-4.392 2.24 2.24 0 012.971 1.045z" fill="#FFEEDF"/><path d="M817.551 276.755c.202-.913.478-1.809.825-2.678l2.586-7.171 3.925-10.582c.385-1.008.77-2.017 1.155-3.063.385-1.045 1.046-2.255.752-2.916-.128-.275-.55-.421-1.1-.385h-25.401a2.08 2.08 0 00-2.073.862c-.348.66-.66 1.559-.972 2.256a1301.165 1301.165 0 01-2.952 7.043c-.33.873-.729 1.72-1.192 2.531.216-.908.505-1.797.861-2.66l2.678-7.152c.283-.817.608-1.619.972-2.403a2.809 2.809 0 011.156-1.009 3.485 3.485 0 011.522-.238h25.382a1.834 1.834 0 011.926.899 2.521 2.521 0 01-.11 1.999l-.605 1.577-1.192 3.044-4.127 10.546c-1.155 2.879-2.109 5.263-2.861 7.079-.31.841-.697 1.651-1.155 2.421z" fill="#455A64"/><path d="M740.908 75.584c-4.475-2.843-5.502-9.409-3.136-14.104a17.253 17.253 0 0112.838-8.38 24.264 24.264 0 0120.871 6.969c2.879 2.971 5.208 6.84 9.17 8.198 3.429 1.192 7.226.11 10.82.568a16.509 16.509 0 0111.445 8.253 35.262 35.262 0 014.071 13.92c.532 4.439.862 9.299 3.943 12.545 3.081 3.246 7.758 3.833 11.481 6.071a15.72 15.72 0 014.677 21.457c-1.486 2.165-3.668 4.127-3.778 6.75-.11 2.622 1.375 4.493 2.109 6.767a10.63 10.63 0 01-1.549 8.646 10.619 10.619 0 01-7.53 4.522c-3.099.184-6.419-1.027-9.17.349-2.751 1.375-3.778 4.713-5.502 7.226a13.238 13.238 0 01-16.157 4.181c-2.274-1.119-4.438-2.953-6.969-2.788-2.531.165-4.512 2.33-6.988 2.806-3.264.624-6.346-1.834-8.29-4.456-1.944-2.623-3.282-5.869-5.758-8.07-3.228-2.879-7.795-3.668-11.885-5.007a33.552 33.552 0 01-20.211-19.185 33.568 33.568 0 011.248-27.838" fill="#263238"/><path d="M788.078 133.886a9.304 9.304 0 013.668-2.384h-.293l.788-.128a3.67 3.67 0 012.825.348 6.677 6.677 0 013.668 3.191 7.887 7.887 0 01-.936 8.162 6.652 6.652 0 01-6.565 2.714 6.736 6.736 0 01-4.549-4.787 7.55 7.55 0 011.394-7.116z" fill="#455A64"/><path d="M729.244 181.314l-4.75-86.987a7.337 7.337 0 016.4-7.666l38.881-11.004c12.508-1.687 21.293 13.535 22.448 26.098 1.284 13.956 2.293 31.049.917 41.54-2.732 21.072-18.743 24.209-18.743 24.209l.238 12.012-1.265 32.774-44.126-30.976z" fill="#FFBE9D"/><path d="M786.795 119.966a2.678 2.678 0 01-2.513 2.788 2.57 2.57 0 01-2.843-2.347 2.698 2.698 0 012.513-2.788 2.57 2.57 0 012.843 2.347zm1.962-9.225c-.312.367-2.403-1.1-5.3-1.008-2.898.091-4.97 1.613-5.301 1.265-.33-.348.165-.807 1.064-1.504a7.334 7.334 0 014.237-1.43 6.97 6.97 0 014.236 1.228c.899.661 1.229 1.284 1.064 1.449zm-28.72 9.225a2.676 2.676 0 01-2.531 2.788 2.57 2.57 0 01-2.843-2.348 2.719 2.719 0 012.531-2.787 2.564 2.564 0 011.015.097 2.578 2.578 0 011.828 2.25zm.274-7.886c-.33.367-2.421-1.082-5.3-.99-2.879.092-4.989 1.595-5.3 1.247-.312-.349.146-.789 1.063-1.486a7.484 7.484 0 014.237-1.448 7.018 7.018 0 014.218 1.247c.917.66 1.229 1.283 1.082 1.43zm11.115 21.183a19.72 19.72 0 014.677-.972c.752-.11 1.43-.275 1.559-.77a3.859 3.859 0 00-.569-2.183 140.954 140.954 0 00-2.347-5.502c-3.265-7.923-5.649-14.452-5.319-14.58.33-.129 3.228 6.18 6.492 14.122.771 1.962 1.541 3.814 2.256 5.612.484.877.647 1.895.459 2.879a1.846 1.846 0 01-1.192 1.119 4.902 4.902 0 01-1.248.22c-1.58.224-3.183.242-4.768.055z" fill="#263238"/><path d="M774.397 167.485a53.532 53.532 0 01-28.317-6.694s7.226 14.214 28.189 11.665l.128-4.971zm-3.21-27.326a7.135 7.135 0 00-5.942-2.935 4.665 4.665 0 00-3.76 2.183 4.255 4.255 0 004.952 6.235 10.586 10.586 0 004.2-2.769c.37-.298.671-.674.88-1.1a1.466 1.466 0 00-.165-1.468" fill="#EB996E"/><path d="M762.971 135.519c.459 0 .55 3.099 3.32 5.245 2.769 2.146 6.089 1.724 6.125 2.164.037.44-.733.624-2.146.715a7.918 7.918 0 01-5.116-1.632 6.875 6.875 0 01-2.586-4.402c-.147-1.32.183-2.109.403-2.09zm-1.724-35.397c-.257.807-3.154.514-6.547 1.009-3.393.495-6.107 1.522-6.584.825-.202-.33.256-1.082 1.338-1.834a10.882 10.882 0 014.842-1.834c1.73-.27 3.499-.113 5.154.459 1.265.403 1.907 1.009 1.797 1.375zm26.171.679c-.495.679-2.494 0-4.897.092-2.402.092-4.42.55-4.915-.11-.202-.33.092-1.009.954-1.65a6.856 6.856 0 013.961-1.193 6.748 6.748 0 013.943 1.21c.954.66 1.211 1.266.954 1.651z" fill="#263238"/><path d="M806.363 97.317a14.362 14.362 0 00-5.502-7.942 48.778 48.778 0 01-4.658-2.714c-3.045-2.44-3.668-6.713-5.612-10.124a15.888 15.888 0 00-12.068-8.014c-4.163-.422-8.455.825-12.508-.202-2.99-.752-5.612-2.696-8.638-3.265-5.924-1.137-11.408 3.118-15.699 7.336 0 4.237 3.356 7.061 6.602 9.776a14.669 14.669 0 0011.884 3.136c3.228-.587 6.768-2.22 9.556-.495 2.787 1.724 3.062 6.235 5.667 8.491 3.668 3.246 9.665.202 14.397 1.614 3.668 1.082 5.923 4.567 8.363 7.519 2.439 2.953 6.052 5.722 9.701 4.64a41.668 41.668 0 00-1.485-9.756z" fill="#263238"/><path d="M762.347 78.408c-2.769-.789-8.418-2.586-9.904-4.97a16.926 16.926 0 00-14.672-8.455 13.922 13.922 0 00-12.544 11.004 20.031 20.031 0 00-17.24 11.004c-.423.83-.79 1.688-1.1 2.567a15.328 15.328 0 00-1.027 12.839c.972 2.494 2.586 5.281 1.302 7.629-1.284 2.347-4.604 2.458-7.171 3.338a10.103 10.103 0 00-6.382 11.316c.6 1.591.868 3.289.788 4.988a10.794 10.794 0 01-2.971 4.31 12.604 12.604 0 00-2.241 12.373 12.6 12.6 0 009.577 8.149c2.003.078 3.974.526 5.814 1.321 1.944 1.21 2.806 3.558 4.181 5.392a10.897 10.897 0 0011.775 3.668 9.593 9.593 0 002.366-1.192 7.806 7.806 0 006.932 3.063l-.789-46.162a3.802 3.802 0 002.788 2.182c7.336 1.688 8.492-13.59 6.841-17.735a42.158 42.158 0 007.428-7.812 30.93 30.93 0 003.411-14.984c2.677.183 14.067-3.576 12.838-3.833z" fill="#263238"/><path d="M731.995 123.561c-.22-4.493-5.722-5.502-9.629-3.21-2.127 1.248-3.668 3.668-3.576 8.51.532 12.728 13.205 9.574 13.205 9.17 0-.403.275-9.206 0-14.47z" fill="#FFBE9D"/><path d="M727.904 133.428s-.201.165-.568.348a2.255 2.255 0 01-1.669.11 5.499 5.499 0 01-2.733-4.823 7.06 7.06 0 01.495-3.21 2.554 2.554 0 011.596-1.834 1.116 1.116 0 011.321.551c.201.348.128.605.183.623.055.018.275-.22.147-.752a1.412 1.412 0 00-.532-.77 1.653 1.653 0 00-1.247-.275 3.163 3.163 0 00-2.238 2.072 7.797 7.797 0 00-.623 3.577c.201 2.567 1.614 4.915 3.466 5.373a2.36 2.36 0 002.017-.422c.385-.275.44-.568.385-.568z" fill="#EB996E"/><path d="M744.448 76.005a7.551 7.551 0 00-2.549 2.128 11.848 11.848 0 00-.936 8.803v.312l-.312.091a12.234 12.234 0 00-8.198 7.226 8.942 8.942 0 00-.66 3.1c.024 1.128.153 2.252.385 3.356.263 1.208.429 2.434.496 3.668a6.018 6.018 0 01-1.009 3.76 15.471 15.471 0 01-6.327 4.75 21.53 21.53 0 00-5.906 3.87 15.882 15.882 0 00-4.75 10.674c-.093 2.719.48 5.42 1.669 7.867.844 1.724 1.559 2.568 1.486 2.623a3.026 3.026 0 01-.532-.587 11.775 11.775 0 01-1.266-1.834 16.14 16.14 0 012.806-19.275 21.812 21.812 0 016.107-4.072 14.871 14.871 0 005.961-4.456c1.412-1.834.77-4.457.403-6.731a19.134 19.134 0 01-.385-3.54c.053-1.164.301-2.31.734-3.393a12.84 12.84 0 018.821-7.574l-.238.403a11.85 11.85 0 01-.289-4.715 11.85 11.85 0 011.573-4.455 5.386 5.386 0 011.999-1.632c.623-.312.899-.403.917-.367zm-21.22 62.173a9.34 9.34 0 013.668-2.384h-.275c.26-.062.523-.105.789-.129a3.66 3.66 0 012.824.349 6.677 6.677 0 013.668 3.191 7.886 7.886 0 01-.935 8.161 6.66 6.66 0 01-6.566 2.715 6.734 6.734 0 01-4.548-4.806 7.515 7.515 0 011.375-7.097zm109.087 535.748c-.275 0-10.656-69.399-23.201-155.046-12.544-85.648-22.503-155.175-22.228-155.212.276-.036 10.638 69.38 23.182 155.065 12.545 85.684 22.503 155.156 22.247 155.193zm-76.809-334.503a4.97 4.97 0 01-.183 1.632 24.784 24.784 0 01-1.284 4.273 29.903 29.903 0 01-21.715 18.34 28.3 28.3 0 01-4.438.55 5.263 5.263 0 01-1.632-.091c0-.165 2.329-.202 5.924-1.119a31.42 31.42 0 0021.237-18.01c1.504-3.319 1.926-5.612 2.091-5.575zm24.008 2.476a4.528 4.528 0 00-2.183 1.54 3.298 3.298 0 00-.495 2.641 3.003 3.003 0 002.451 1.876 3.008 3.008 0 002.813-1.271 3.34 3.34 0 00.11-2.677 4.53 4.53 0 00-1.834-1.999s.311 0 .807.128a3.5 3.5 0 011.558 1.596 3.836 3.836 0 010 3.374 3.826 3.826 0 01-3.704 1.79 3.838 3.838 0 01-3.191-2.597 3.795 3.795 0 01.825-3.264 3.355 3.355 0 011.834-1.192c.715-.092 1.009 0 1.009.055zm79.613 165.518c0 .275-3.668 1.357-8.216 3.191-4.549 1.834-7.978 3.668-8.125 3.43a25.523 25.523 0 017.758-4.328 25.917 25.917 0 018.583-2.293z" fill="#455A64"/><path d="M717.947 245.009a6.13 6.13 0 01-2.018-.551 20.044 20.044 0 01-4.915-2.971c-1.834-1.504-3.943-3.539-6.254-5.703a25.187 25.187 0 00-8.271-5.704 15.334 15.334 0 00-9.849 0 27.273 27.273 0 00-7.336 3.668c-3.906 2.732-6.144 4.713-6.254 4.585-.11-.129.477-.587 1.467-1.504a53.303 53.303 0 014.384-3.668 26.974 26.974 0 017.519-4.017 15.85 15.85 0 0110.436 0 25.071 25.071 0 018.583 5.961c2.274 2.219 4.236 4.291 6.052 5.814a25.71 25.71 0 006.456 4.09zm89.792-12.765s-.991-.954-2.916-2.439a28.108 28.108 0 00-9.17-4.549 26.325 26.325 0 00-14.966.147c-5.502 1.687-10.802 5.282-16.506 8.73a51.13 51.13 0 01-8.821 4.347 44.56 44.56 0 01-8.914 2.2c-5.12.674-10.3.772-15.442.294-4.402-.367-7.904-.881-10.344-1.247l-2.787-.459a4.873 4.873 0 01-.954-.22c.329-.045.662-.045.99 0l2.806.275c2.44.257 5.961.66 10.326.935a73.352 73.352 0 0015.277-.476 44.713 44.713 0 008.711-2.219 51.454 51.454 0 008.675-4.292c5.686-3.411 11.004-7.043 16.763-8.748a26.842 26.842 0 0124.594 4.952c.73.605 1.416 1.261 2.054 1.962.238.244.448.515.624.807zm18.908-.605a5.608 5.608 0 01-.807 3.026 11.952 11.952 0 01-5.373 5.373 11.754 11.754 0 01-7.52.954 5.671 5.671 0 01-2.916-1.21c0-.147 1.174.33 3.008.55a12.294 12.294 0 0012.196-5.979c.972-1.596 1.266-2.751 1.412-2.714z" fill="#fff"/><path d="M671.308 270.703c1.1-.241 2.215-.412 3.338-.514l9.17-1.027c7.721-.825 18.339-1.834 30.169-3.026l4.108-.385-.44.495c-.275-10.894-.477-20.596-.569-27.51v-8.216a18.66 18.66 0 01.11-3.008c.157.989.243 1.988.257 2.99.092 2.09.22 4.86.367 8.234.275 6.951.587 16.653.88 27.51v.44h-.458l-4.108.386c-11.793 1.137-22.467 2.109-30.206 2.751l-9.17.715a21.256 21.256 0 01-3.448.165z" fill="#263238"/><path d="M277.566 655.256l-39.743 22.32-36.496 8.601a4.678 4.678 0 00-3.393 5.924 4.7 4.7 0 003.007 3.063c9.17 2.989 42.861 13.113 45.08 12.104 3.521-1.595 44.016-20.797 44.016-20.797l-12.471-31.215z" fill="#44D08D"/><path d="M197.933 692.101l51.352 13.7-1.687.899a7.447 7.447 0 01-4.805.678c-4.365-.953-16.341-3.869-41.834-12.104a4.658 4.658 0 01-3.063-3.173h.037zm59.972-1.467a2.825 2.825 0 00-3.668 1.045 2.713 2.713 0 001.009 3.668 2.987 2.987 0 003.815-1.137 2.826 2.826 0 00-1.449-3.668" fill="#fff" opacity=".6"/><path d="M233.257 690.084a39.237 39.237 0 000-5.613 37.785 37.785 0 00-1.688-5.502 9.17 9.17 0 012.476 5.502 7.962 7.962 0 01-.788 5.613zm9.463-2.275c-.293 0-.55-2.677-1.981-5.63-1.43-2.953-3.356-4.86-3.154-5.08a11.52 11.52 0 015.135 10.71zm8.179-3.814a22.498 22.498 0 00-1.834-5.924 22.011 22.011 0 00-4.181-4.622c0-.11.788 0 1.834.697a10.142 10.142 0 013.228 3.43 9.93 9.93 0 011.357 4.493c-.055 1.211-.275 1.944-.404 1.926zm.129-8.602s.458-.422 1.485-.862a12.078 12.078 0 014.622-.917 5.342 5.342 0 013.32.826 1.833 1.833 0 01.623 2.054 3.12 3.12 0 01-1.485 1.614 6.602 6.602 0 01-8.107-2.238 7.648 7.648 0 010-8.51 2.648 2.648 0 011.834-1.155 1.834 1.834 0 011.834 1.247 6.59 6.59 0 010 3.375 13.438 13.438 0 01-1.669 4.401c-.587.954-1.008 1.394-1.063 1.357a20.938 20.938 0 002.017-5.868 5.953 5.953 0 000-2.953.97.97 0 00-.954-.679 1.836 1.836 0 00-1.21.825 6.858 6.858 0 000 7.336 5.738 5.738 0 006.951 2.036 2.14 2.14 0 001.063-1.063 1.022 1.022 0 00-.311-1.156 4.902 4.902 0 00-2.788-.734 17.592 17.592 0 00-6.162 1.064z" fill="#263238"/><path d="M299.097 665.38l26.666 23.42s-14.855 34.956-10.344 39.761l47.244-50.068-40.036-38.184-23.53 25.071z" fill="#44D08D"/><path d="M338.198 671.267a2.81 2.81 0 013.668.788 2.677 2.677 0 01-.752 3.668 2.937 2.937 0 01-3.87-.843 2.805 2.805 0 011.192-3.668" fill="#E0E0E0"/><path d="M362.664 678.493l-4.182-3.668-43.741 49.371s-1.118 3.154.679 4.383l47.244-50.086z" fill="#fff" opacity=".6"/><path d="M324.736 689.368c.257.22 1.522-.898 3.448-1.357 1.926-.458 3.54-.128 3.668-.458.129-.33-1.65-1.284-3.961-.679s-3.43 2.256-3.155 2.494zm-2.787 7.3c.183.275 1.613-.385 3.429-.239 1.816.147 3.136.936 3.356.679.22-.257-1.027-1.724-3.283-1.834-2.255-.11-3.723 1.192-3.502 1.394zm3.484 8.968c.257-.184-.642-1.669-2.586-2.311-1.944-.642-3.54 0-3.43.312.111.312 1.486.257 3.063.807 1.577.55 2.77 1.357 2.953 1.192zm-6.181-22.283c.33.11 1.046-1.339 2.44-2.623 1.393-1.284 2.842-1.962 2.769-2.292-.073-.331-1.944-.11-3.576 1.43-1.633 1.541-1.944 3.43-1.633 3.485zm-5.282-4.824c.092 0 1.156-.715 2.348-2.512a15.833 15.833 0 001.596-3.393c.249-.706.445-1.429.586-2.164.115-.424.158-.864.129-1.302a1.452 1.452 0 00-1.192-1.339 1.841 1.841 0 00-.853.076 1.846 1.846 0 00-.725.456c-.29.324-.542.681-.751 1.063a13.687 13.687 0 00-.936 2.073 12.486 12.486 0 00-.66 3.668 5.745 5.745 0 00.642 3.393c.183 0 0-1.321.183-3.338.134-1.175.418-2.327.844-3.43a14.46 14.46 0 01.917-1.834c.367-.66.789-1.119 1.155-1.027.367.092.165 0 .22.312.05.322.05.65 0 .972a16.412 16.412 0 01-.495 2.036 18.861 18.861 0 01-1.357 3.301c-.972 1.871-1.797 2.861-1.651 2.989z" fill="#263238"/><path d="M314.612 678.548c.129 0-.293-1.376-1.834-2.953a11.542 11.542 0 00-3.062-2.256 12.22 12.22 0 00-2.128-.789 2.807 2.807 0 00-2.769.404 1.585 1.585 0 00-.294 1.706c.168.405.397.782.679 1.118a7.349 7.349 0 001.687 1.596 7.793 7.793 0 003.668 1.375 4.433 4.433 0 003.412-.586 31.533 31.533 0 01-3.265-.221 7.99 7.99 0 01-3.118-1.43 6.81 6.81 0 01-1.394-1.412c-.458-.587-.696-1.192-.458-1.339a1.94 1.94 0 011.651-.092c.667.159 1.318.38 1.944.66a12.224 12.224 0 012.952 1.834c1.504 1.358 2.164 2.476 2.329 2.385z" fill="#263238"/><path d="M299.097 592.643l-29.858-29.527 60.376-110.884a51.233 51.233 0 0120.449-14.213l18.761-7.135 47.024-3.888 28.941 8.382c8.363 3.283 18.908 9.316 17.863 18.248l-10.344 75.396-5.098 94.946-126.546-31.178 28.078-36.35-10.124-43.227-39.522 79.43z" fill="#455A64"/><path d="M345.534 577.384l65.272-26.098c5.851-2.365 7.813-8.839 8.29-15.13l5.319-69.692s-.624-29.656 17.899-31.086l10.528 4.144c13.608 7.226 16.982 27.052 15.13 42.348-2.623 21.751-3.668 52.507-6.676 71.379-2.402 15.442-11.682 27.657-26.354 33.012l-82.182 17.606-7.226-26.483z" fill="#455A64"/><path d="M347.992 579.695h-8.803s-19.863-7.189-23.842-6.492c-3.668.605-17.148 9.555-19.789 11.334-.295.193-.52.476-.642.807a2.898 2.898 0 001.614 3.668l.275.11-.128.403a5.18 5.18 0 00-.202 1.614 1.947 1.947 0 001.507 1.842 1.949 1.949 0 002.161-.998l-.514.899c-.2.37-.295.789-.275 1.21v.807a2.164 2.164 0 001.522 1.981 2.208 2.208 0 002.311-.605c1.706-1.834 5.392-5.649 7.886-6.053a60.547 60.547 0 018.143-.421 2.788 2.788 0 012.568 1.834c-1.486.091-11.793 5.502-15.442 7.336a3.874 3.874 0 00-2.128 2.934c-.128 1.155.44 2.347 2.696 1.834a99.907 99.907 0 0013.59-5.154s4.512-1.283 7.336.771c4.108 2.897 5.979 3.961 9.5 2.806a29.896 29.896 0 006.126-2.861l6.951-.679s6.565-16.414-2.421-18.927z" fill="#916B5C"/><path d="M321.766 583.033c0 .092-1.412-.367-3.668-.514a19.87 19.87 0 00-8.859 1.504 19.61 19.61 0 00-7.189 5.356c-1.504 1.834-2.146 3.081-2.219 3.044.116-.32.264-.627.44-.917.455-.807.976-1.573 1.559-2.293a18.6 18.6 0 0116.286-6.95c.922.079 1.836.232 2.733.458.316.069.624.173.917.312z" fill="#6D5046"/><path d="M319.748 578.21a17.205 17.205 0 00-3.888-.661 16.93 16.93 0 00-9.042 2.55 36.807 36.807 0 00-7.336 6.162l-1.98 2.109a4.94 4.94 0 01-.771.752c.203-.295.424-.576.661-.844.44-.532 1.082-1.283 1.834-2.2a32.987 32.987 0 017.336-6.291 16.505 16.505 0 019.17-2.513 10.62 10.62 0 012.897.532c.331.092.569.22.734.275l.385.129z" fill="#6D5046"/><path d="M429.641 477.083a9.318 9.318 0 00-.22 1.595l-.44 4.604c-.349 4.071-.844 9.83-1.431 16.891-.587 7.061-1.265 15.662-2.017 25.089-.184 2.347-.386 4.768-.569 7.336a57.065 57.065 0 01-.88 7.464 12.593 12.593 0 01-3.375 6.529 22.675 22.675 0 01-6.272 4.164c-18.744 8.674-36.02 15.845-48.564 20.87l-14.948 5.759-4.053 1.596a9.293 9.293 0 00-1.393.623 7.436 7.436 0 001.448-.421l4.109-1.431c3.557-1.265 8.693-3.154 15.002-5.502a817.569 817.569 0 0048.729-20.633 23.611 23.611 0 006.511-4.346 13.593 13.593 0 003.668-7.024c.445-2.511.732-5.047.862-7.593.183-2.458.367-4.878.532-7.244.696-9.427 1.302-17.937 1.834-25.108.531-7.171.862-12.838 1.137-16.928.11-1.834.201-3.466.275-4.603.054-.561.072-1.124.055-1.687z" fill="#263238"/><path d="M440.205 563.758a10.991 10.991 0 00-1.339-3.888 25.01 25.01 0 00-14.672-12.6 11.003 11.003 0 00-4.035-.697c0 .165 1.504.477 3.815 1.357a28.848 28.848 0 018.235 4.897 28.542 28.542 0 016.125 7.336c1.174 2.183 1.706 3.65 1.871 3.595z" fill="#263238"/><path d="M363.195 571.259c7.776-4.402 15.369-7.776 23.494-11.463 8.124-3.686 16.102-8.436 21.421-15.607 10.032-13.517 8.877-33.012 19.147-46.382-.66 8.962-1.327 17.937-1.999 26.923-.624 8.217.642 16.36-4.658 22.008-4.457 4.714-13.169 8.327-19.331 10.362-12.379 4.072-25.676 10.142-38.074 14.232" fill="#000" opacity=".3"/><path d="M217.997 567.646s-15.864 5.648-15.937 23.438c-.129 34.076 68.83 71.636 68.83 71.636l91.791-60.815 5.741-2.329s-123.868-46.547-150.425-31.93z" fill="#263238"/><path d="M316.19 632.624a18.635 18.635 0 01-2.403-1.632c-1.504-1.082-3.668-2.714-6.272-4.732-5.245-4.071-12.398-9.83-20.174-16.506-7.776-6.675-14.452-12.838-19.257-17.368a282.677 282.677 0 01-5.649-5.502 18.044 18.044 0 01-1.962-2.109 15.467 15.467 0 012.219 1.834l5.905 5.319a984.06 984.06 0 0019.441 17.166c7.684 6.603 14.672 12.416 19.899 16.598 2.457 2.036 4.511 3.668 6.088 4.97.776.591 1.5 1.248 2.165 1.962zm-72.296-52.25a18.02 18.02 0 018.839.807 17.86 17.86 0 017.868 4.126c-.146.239-3.503-1.834-8.124-3.228-4.622-1.394-8.583-1.412-8.583-1.705z" fill="#455A64"/><path d="M251.89 575a11.1 11.1 0 015.502 4.09 11.25 11.25 0 012.861 6.18c-.276.092-1.284-2.769-3.668-5.593-2.385-2.825-4.934-4.439-4.695-4.677z" fill="#455A64"/><path d="M224.545 519.246l26.116 70.334a10.124 10.124 0 009.628 6.603l143.731-1.834v-11.004l-53.333 1.944-22.65-70.206a5.715 5.715 0 00-5.502-3.979l-92.653.311a5.747 5.747 0 00-4.735 2.508 5.733 5.733 0 00-.602 5.323z" fill="#E0E0E0"/><path d="M224.545 519.247v-.22c0-.147-.128-.367-.183-.661a5.859 5.859 0 010-2.641 5.724 5.724 0 012.531-3.393 5.51 5.51 0 012.604-.825h92.195a6.179 6.179 0 013.833.844 5.5 5.5 0 012.366 3.118c6.841 21.237 14.452 44.841 22.577 70.095v.147h.165l53.479-2.109-.238-.22v11.004l.238-.22-90.379 1.21-39.285.532-9.06.128h-4.401a10.682 10.682 0 01-4.182-.605 9.89 9.89 0 01-5.758-5.502l-2.825-7.574-17.239-46.236-4.769-12.526a350.602 350.602 0 00-1.669-4.346s.532 1.522 1.578 4.383l4.621 12.563 17.093 46.272 2.806 7.501a10.327 10.327 0 005.942 5.758 11.09 11.09 0 004.31.642h4.402l9.06-.11 39.284-.495 90.38-1.174h.22v-11.389h-.239l-53.333 1.963.239.146a83625.961 83625.961 0 01-22.632-70.059 6.028 6.028 0 00-2.549-3.337 6.69 6.69 0 00-4.035-.899h-23.218l-27.107.22-38.679.183h-3.191a5.793 5.793 0 00-5.117 4.292 5.666 5.666 0 000 2.678c.031.291.087.579.165.862z" fill="#263238"/><path d="M288.277 545.84a6.46 6.46 0 00-6.988.751 5.637 5.637 0 00-1.357 6.181 6.07 6.07 0 005.245 3.668 5.503 5.503 0 005.502-3.668 6.18 6.18 0 00-2.439-6.932" fill="#fff"/><path d="M255.43 666.535s129.517-82.952 135.239-86.198c4.86-2.769 17.881-10.784 30.701-7.244 12.82 3.539 24.337 15.057 30.096 31.856 3.283 9.611 4.842 26.007 5.502 38.294.88 14.672-1.045 26.923-10.656 38.074a36.164 36.164 0 01-16.157 11.481 48.098 48.098 0 01-4.2 1.1c-24.521 5.301-52.342-3.282-66.116-24.245l-3.026-4.603s-84.822 31.178-86.198 30.719l-15.185-29.234z" fill="#263238"/><path d="M415.849 643.133l-.715.312-2.127.844-8.217 3.172-30.554 11.5a5863.897 5863.897 0 01-45.96 16.946 3181.774 3181.774 0 01-57.404 20.284l-.386.128-.183-.348c-3.246-6.181-6.657-12.728-10.124-19.349-1.834-3.375-3.539-6.731-5.172-9.867l-.201-.385.366-.22 98.908-62.796 29.711-18.762 8.07-5.044 2.109-1.283c.476-.294.733-.422.733-.422s-.22.183-.678.495l-2.073 1.357-8.014 5.227-29.546 18.982-98.724 63.034.165-.605c1.65 3.118 3.393 6.474 5.172 9.849l10.123 19.367-.568-.239c20.632-6.969 39.981-13.883 57.441-20.174l46.015-16.762 30.646-11.243 8.29-3.007 2.145-.752c.246-.096.497-.175.752-.239z" fill="#455A64"/><path d="M345.883 347.364s-7.777 33.397-7.777 56.854v7.813s20.064 15.589 36.497 16.047l12.636-34.222-41.356-46.492z" fill="#263238"/><path d="M433.346 364.86c-4.273-16.029-6.309-34.846-20.082-44.878-10.215-7.482-21.641-9.298-34.277-8.363-6.218.477-13.169 3.668-18.487 6.823-7.336 4.456-10.179 13.095-13.517 20.981-6.694 15.772-5.098 36.79 0 42.475l66.024 32.205c12.747-7.171 20.78-10.123 22.302-27.51a63.53 63.53 0 00-1.963-21.733z" fill="#263238"/><path d="M412.273 332.857L371.1 322.128c-13.242-1.485-22.155 14.764-23.09 28.042-1.027 14.764-1.706 32.81 0 43.833 3.356 22.173 20.321 25.107 20.321 25.107s0 .33.128 6.914l-.092 10.674a18.337 18.337 0 003.998 11.939c6.291 7.612 17.313 8.308 30.115 3.082 7.336-3.008 12.452-8.767 12.838-16.415l4.034-94.487a7.792 7.792 0 00-7.079-7.96z" fill="#fff"/><path d="M353.31 371.628a2.859 2.859 0 002.714 2.898 2.744 2.744 0 002.012-.655 2.749 2.749 0 00.941-1.895 2.841 2.841 0 00-2.714-2.879 2.705 2.705 0 00-2.016.636 2.696 2.696 0 00-.937 1.895zm-1.522-8.235c.349.367 2.513-1.21 5.502-1.174 2.99.037 5.282 1.578 5.631 1.192.348-.385-.202-.825-1.174-1.54a7.878 7.878 0 00-4.494-1.431 7.502 7.502 0 00-4.438 1.413c-.88.715-1.21 1.375-1.027 1.54zm28.482 8.235a2.862 2.862 0 002.732 2.898 2.709 2.709 0 002.005-.656 2.712 2.712 0 00.93-1.894 2.822 2.822 0 00-2.714-2.879 2.705 2.705 0 00-2.673 1.491 2.715 2.715 0 00-.28 1.04zm1.559-8.858c.349.385 2.513-1.193 5.502-1.174 2.99.018 5.3 1.577 5.631 1.21.33-.367-.184-.843-1.174-1.559a7.72 7.72 0 00-4.493-1.412 7.51 7.51 0 00-4.439 1.394c-.88.715-1.21 1.449-1.027 1.541zm-11.261 20.192a19.648 19.648 0 00-4.952-.935c-.788-.092-1.522-.239-1.65-.771a3.969 3.969 0 01.55-2.311c.734-1.834 1.522-3.869 2.348-5.942 3.264-8.436 5.63-15.369 5.281-15.497-.348-.128-3.264 6.602-6.529 15.039l-2.255 5.96a4.624 4.624 0 00-.422 3.063 1.937 1.937 0 001.284 1.155c.43.122.873.19 1.32.202a20.36 20.36 0 005.025.037z" fill="#263238"/><path d="M368.221 419.11a56.345 56.345 0 0029.711-7.703s-7.336 15.442-29.583 13.223l-.128-5.52zm12.416-30.371a4.888 4.888 0 00-4.035-2.219 6.34 6.34 0 00-5.832 2.843 3.868 3.868 0 00-.275 2.861c.201.495 0 .256.421.587a11.023 11.023 0 004.549 2.861 4.736 4.736 0 005.062-1.834 4.889 4.889 0 00.11-5.099z" fill="#6D5046"/><path d="M380.105 385.254c-.496 0-.551 3.283-3.412 5.594-2.861 2.311-6.4 1.834-6.419 2.384 0 .202.771.642 2.256.697a8.267 8.267 0 005.374-1.834 7.208 7.208 0 002.641-4.713c.147-1.321-.275-2.146-.44-2.128zm.165-33.58c.238.844 3.319.66 6.859 1.32 3.539.661 6.382 1.834 6.914 1.101.238-.33-.22-1.156-1.339-2.018a12.077 12.077 0 00-10.49-1.834c-1.303.385-1.944.991-1.944 1.431zm-28.5 3.503c.715.568 2.897-.55 5.685-1.082s5.209-.459 5.63-1.266c.184-.385-.311-1.008-1.467-1.467a9.177 9.177 0 00-9.17 1.834c-.807.917-1.008 1.687-.678 1.981zm19.734-35.451c-.04.163-.07.328-.092.495l.092-.495z" fill="#263238"/><path d="M403.598 426.868c.441-5.814-2.09-11.573-1.595-17.386.513-6.163 4.31-11.554 5.759-17.588 2.31-9.629-1.614-19.679-3.247-29.509a23.44 23.44 0 01-14.672-7.832c-4.603-5.025-7.482-11.352-10.307-17.569a29.897 29.897 0 006.584 17.001 8.05 8.05 0 01-6.969-2.018 17.77 17.77 0 01-4.255-6.143 49.037 49.037 0 01-4.493-17.57 63.802 63.802 0 003.668 25.676 11 11 0 00-4.805.33 5.248 5.248 0 01-4.603-.825 5.503 5.503 0 01-1.339-2.898 65.898 65.898 0 01-1.467-22.503 68.09 68.09 0 00-4.677 12.654 24.152 24.152 0 00.33 13.315 1.942 1.942 0 01-2.733 0 4.716 4.716 0 01-1.302-2.751 34.528 34.528 0 01.367-11.224c-2.091 3.998-2.678 8.565-3.76 12.93-1.082 4.365-2.879 8.876-6.565 11.481a59.269 59.269 0 010-17.001 51.448 51.448 0 014.53-13.645 40.337 40.337 0 018.564-12.838c6.346-5.924 9.17-3.558 13.389-1.523l.495.202a1.626 1.626 0 010-.312l.165-.898a62.54 62.54 0 0133.012.476 44.026 44.026 0 0122.008 17.148l.257.404c9.793 16.396 17.331 39.981 11.572 78.513l-33.911 11.903z" fill="#263238"/><path d="M342.434 471.617c-3.521 10.491-7.061 21.146-7.629 32.187-.569 11.041 2.219 22.742 9.885 30.72" fill="#455A64"/><path d="M344.691 534.524s-.202-.11-.532-.422a18.954 18.954 0 01-1.321-1.412 30.038 30.038 0 01-3.998-5.943 45.443 45.443 0 01-4.42-22.98 92.615 92.615 0 014.769-23.016c.935-2.861 1.742-5.154 2.329-6.713.262-.836.599-1.646 1.008-2.421-.147.86-.361 1.706-.641 2.531-.551 1.834-1.229 4.072-2.055 6.804a102.321 102.321 0 00-4.548 22.944 46.737 46.737 0 004.163 22.613 47.532 47.532 0 005.246 8.015zm123.611-57.441c.032.403.032.807 0 1.21 0 .881-.092 2.036-.147 3.448-.146 2.99-.421 7.336-.825 12.655-.789 10.692-2.274 25.419-3.668 41.687a129.183 129.183 0 01-3.668 22.814 44.656 44.656 0 01-3.374 9.537 26.542 26.542 0 01-5.502 6.933 28.697 28.697 0 01-11.151 6.052c-1.108.32-2.235.571-3.375.752-.4.072-.804.115-1.21.128 0-.11 1.632-.33 4.475-1.247a29.058 29.058 0 0010.802-6.199 25.66 25.66 0 005.264-6.786c1.42-3 2.503-6.15 3.227-9.39a136.627 136.627 0 003.65-22.668c1.376-16.286 2.971-30.994 3.925-41.668.477-5.246.862-9.519 1.137-12.618.128-1.412.238-2.549.312-3.448.002-.401.046-.8.128-1.192z" fill="#263238"/></g><defs><clipPath id="clip0_27603_7805"><path fill="#fff" d="M0 0h1200v800H0z"/></clipPath></defs></svg>