<svg width="1200" height="800" viewBox="0 0 1200 800" fill="none" xmlns="http://www.w3.org/2000/svg"><g clip-path="url(#clip0_27603_7647)"><mask id="a" fill="#fff"><path d="M1152.45 201.488s-13.38-8.16-28.16 23.648c-14.79 31.808-20.18 50.064-20.18 50.064s-3.98 6.688-8.62 2.576c-4.64-4.112-11.2-16-18.82-13.568-7.84 2.544-10.13 11.488-8.14 24.432 1.98 12.944 5.26 41.456 5.57 44.032.3 2.576-1.04 6.4-4.66 4.032-3.62-2.368-24.74-24.176-34.53-13.536-9.79 10.64 1.6 45.792 2.85 49.6s.46 5.552-1.36 6.592-8.22-6.992-14.4-12.976c-6.18-5.984-14.58-11.808-19.7-5.2-5.116 6.608-5.884 33.328 21.04 75.696l13.76 18.816 23.32-2.144c49.6-7.616 69.21-25.76 70.81-33.968 1.6-8.208-8.25-10.64-16.86-11.408-8.61-.768-18.88-.336-19.3-2.384-.41-2.048.39-3.696 4.08-5.344 3.7-1.648 37.67-16.176 39.25-30.56 1.58-14.384-28.8-15.856-32.91-17.072-4.11-1.216-2.13-4.704 0-6.16 2.13-1.456 25.77-17.76 36.8-24.784 11.02-7.024 16.11-14.592 12.91-22.176-3.2-7.312-16.43-4.432-22.59-5.232-6.16-.8-3.73-8.192-3.73-8.192s10.19-16 24.4-48.112c14.21-32.112-1.14-36.8-1.14-36.8"/></mask><path d="M1104.11 275.2l.86.512.07-.108.03-.121-.96-.283zm-27.44-10.992l-.3-.953-.01.002.31.951zm-53.33 172.672l-.84.536.02.028.02.026.8-.59zm13.76 18.816l-.8.59.33.458.57-.052-.1-.996zm23.32-2.144l.09.996.03-.003.03-.004-.15-.989zm94.78-153.856l.92-.389v-.012l-.92.401zm-26.32-13.424l-.84-.537-.07.106-.04.119.95.312zm23.57-84.784l.52-.855-.01-.001v-.004c-.01-.002-.01-.005-.02-.008-.01-.007-.02-.016-.04-.026l-.15-.08c-.13-.064-.3-.148-.53-.24-.45-.184-1.1-.4-1.92-.548-1.64-.297-3.96-.315-6.74.721-5.55 2.069-12.74 8.259-20.18 24.268l1.81.843c7.35-15.8 14.24-21.434 19.07-23.237 2.41-.9 4.36-.866 5.69-.627.66.12 1.18.293 1.52.431.17.069.29.129.37.169.04.02.06.035.08.044.01.004.01.006.01.007v-.002l.52-.855zm-29.07 23.227c-7.4 15.928-12.46 28.468-15.66 37.031a293.11 293.11 0 00-3.48 9.788c-.37 1.11-.64 1.953-.82 2.52-.09.283-.16.498-.2.642-.02.072-.04.127-.05.163-.01.019-.01.033-.01.042 0 .005-.01.009-.01.011v.004l.96.284.96.283v-.011c.01-.008.01-.021.02-.038.01-.034.02-.086.04-.155.04-.139.11-.348.2-.626.17-.556.44-1.387.8-2.486.74-2.197 1.87-5.462 3.46-9.72 3.19-8.517 8.22-21.01 15.6-36.889l-1.81-.843zm-19.27 50.485l-.86-.512v-.001.01a.132.132 0 00-.03.043c-.02.04-.06.102-.12.18-.1.157-.26.381-.47.64-.41.522-.99 1.156-1.68 1.664-.7.51-1.44.849-2.2.885-.74.035-1.61-.202-2.6-1.081l-1.33 1.496c1.33 1.177 2.7 1.646 4.02 1.583 1.29-.061 2.41-.623 3.29-1.271.89-.65 1.59-1.431 2.07-2.034.24-.304.43-.571.56-.763.07-.097.12-.175.15-.231.02-.028.03-.05.04-.066.01-.008.01-.015.01-.02.01-.002.01-.005.01-.006v-.003l-.86-.513zm-7.96 1.828c-1.09-.969-2.32-2.419-3.72-4.091-1.38-1.646-2.9-3.477-4.53-5.105-3.17-3.184-7.12-5.987-11.53-4.577l.61 1.906c3.19-1.022 6.34.903 9.51 4.083 1.55 1.554 3.01 3.314 4.4 4.978 1.38 1.637 2.71 3.215 3.93 4.302l1.33-1.496zm-19.79-13.771c-4.28 1.388-7.01 4.541-8.4 8.969-1.37 4.379-1.42 10.024-.42 16.566l1.98-.303c-.99-6.403-.89-11.702.35-15.667 1.22-3.916 3.55-6.507 7.11-7.663l-.62-1.902zm-8.82 25.535c1.98 12.921 5.26 41.408 5.56 43.997l1.99-.234c-.3-2.563-3.59-31.1-5.57-44.066l-1.98.303zm5.56 43.997c.14 1.132-.12 2.44-.66 3.146-.24.321-.51.474-.81.506-.32.034-.85-.058-1.64-.573l-1.1 1.673c1.02.668 2.01.987 2.95.889.96-.1 1.69-.619 2.19-1.281.96-1.257 1.23-3.15 1.06-4.594l-1.99.234zm-3.11 3.079c-.39-.255-1.06-.807-2.02-1.623-.94-.795-2.11-1.809-3.43-2.918-2.65-2.221-5.98-4.869-9.51-7.113-3.52-2.235-7.32-4.12-10.93-4.738-3.65-.626-7.19.041-9.92 3.015l1.47 1.354c2.16-2.346 4.94-2.942 8.11-2.398 3.22.552 6.76 2.272 10.2 4.455 3.42 2.174 6.66 4.757 9.29 6.959 1.32 1.102 2.47 2.097 3.42 2.907.93.788 1.71 1.435 2.22 1.773l1.1-1.673zm-35.81-13.377c-2.69 2.917-3.83 7.397-4.13 12.321-.29 4.957.26 10.551 1.16 15.884 1.79 10.67 4.97 20.469 5.6 22.384l1.9-.623c-.62-1.893-3.76-11.575-5.53-22.093-.88-5.261-1.41-10.688-1.13-15.433.28-4.778 1.39-8.683 3.6-11.086l-1.47-1.354zm2.63 50.589c.6 1.826.65 2.998.45 3.773-.18.718-.62 1.217-1.36 1.638l1 1.738c1.08-.619 1.95-1.512 2.3-2.878.34-1.309.16-2.912-.49-4.894l-1.9.623zm-.91 5.411c.15-.083.2.006-.05-.084-.23-.084-.56-.272-1.01-.6-.88-.65-2-1.695-3.3-3.004-2.53-2.555-5.77-6.156-8.84-9.137l-1.4 1.436c3.1 3.003 6.15 6.41 8.82 9.108 1.3 1.316 2.52 2.458 3.54 3.209.5.372 1.02.688 1.51.867.47.173 1.12.286 1.73-.057l-1-1.738zm-13.2-12.825c-3.11-3.013-6.87-6.081-10.58-7.535-1.86-.731-3.78-1.081-5.63-.748-1.87.338-3.56 1.362-4.98 3.189l1.58 1.225c1.15-1.477 2.42-2.204 3.76-2.446 1.36-.246 2.89-.005 4.54.642 3.32 1.303 6.85 4.138 9.91 7.109l1.4-1.436zm-21.19-5.094c-1.44 1.868-2.482 4.997-2.861 9.179-.382 4.211-.106 9.592 1.176 16.065 2.565 12.95 9.165 30.337 22.675 51.6l1.69-1.072c-13.42-21.104-19.9-38.261-22.4-50.916-1.26-6.328-1.51-11.514-1.15-15.496.36-4.011 1.34-6.7 2.45-8.135l-1.58-1.225zm21.03 76.898l13.76 18.816 1.61-1.18-13.76-18.816-1.61 1.18zm14.66 19.222l23.31-2.144-.19-1.992-23.31 2.144.19 1.992zm23.37-2.151c24.89-3.823 42.32-10.296 53.75-16.884 5.72-3.294 9.95-6.626 12.87-9.683 2.9-3.037 4.57-5.877 5.02-8.199l-1.96-.382c-.35 1.782-1.73 4.288-4.51 7.2-2.76 2.891-6.83 6.111-12.42 9.331-11.17 6.439-28.35 12.846-53.06 16.64l.31 1.977zm71.64-34.766c.45-2.267.1-4.213-.87-5.841-.96-1.606-2.48-2.814-4.25-3.732-3.52-1.824-8.31-2.636-12.63-3.022l-.18 1.992c4.28.382 8.73 1.171 11.89 2.806 1.57.812 2.75 1.799 3.45 2.982.7 1.161.99 2.596.63 4.433l1.96.382zm-17.75-12.595c-4.3-.383-9.14-.476-12.75-.714-1.84-.121-3.37-.28-4.44-.521-.54-.122-.9-.251-1.12-.37-.23-.128-.13-.15-.1.018l-1.96.398c.14.68.65 1.093 1.1 1.336.45.252 1.03.431 1.64.569 1.24.278 2.9.444 4.75.566 3.79.25 8.39.325 12.7.71l.18-1.992zm-18.41-1.587c-.17-.827-.08-1.454.34-2.051.46-.653 1.38-1.385 3.17-2.181l-.82-1.826c-1.91.852-3.23 1.768-3.99 2.863-.8 1.151-.91 2.372-.66 3.593l1.96-.398zm3.51-4.232c1.84-.82 11.31-4.889 20.53-10.565 4.61-2.837 9.19-6.099 12.73-9.584 3.52-3.461 6.14-7.271 6.57-11.214l-1.98-.219c-.36 3.248-2.58 6.649-5.99 10.008-3.39 3.336-7.83 6.506-12.38 9.306-9.08 5.595-18.44 9.614-20.3 10.442l.82 1.826zm39.83-31.363c.45-4.021-1.38-7.119-4.26-9.452-2.84-2.303-6.77-3.919-10.77-5.092-4.02-1.177-8.2-1.932-11.62-2.468-1.7-.267-3.24-.484-4.44-.666-1.25-.188-2.09-.335-2.53-.463l-.57 1.918c.6.176 1.6.341 2.8.523 1.24.187 2.73.397 4.43.664 3.39.531 7.47 1.271 11.37 2.412 3.91 1.145 7.54 2.67 10.07 4.726 2.51 2.027 3.88 4.508 3.54 7.679l1.98.219zm-33.62-18.141c-.89-.264-1.31-.609-1.49-.879-.18-.252-.23-.557-.15-.95.18-.867.99-1.907 1.92-2.547l-1.13-1.65c-1.19.816-2.43 2.249-2.75 3.794-.17.812-.08 1.698.46 2.488.53.771 1.41 1.318 2.57 1.662l.57-1.918zm.28-4.376c2.14-1.464 25.77-17.753 36.78-24.766l-1.08-1.686c-11.04 7.035-34.71 23.354-36.83 24.802l1.13 1.65zm36.78-24.766c5.57-3.55 9.74-7.298 12.1-11.203 2.39-3.949 2.93-8.074 1.19-12.205l-1.84.778c1.46 3.453 1.05 6.904-1.06 10.391-2.13 3.531-6.02 7.079-11.47 10.553l1.08 1.686zm13.29-23.42c-1.86-4.24-6.56-5.361-11.04-5.655-2.29-.15-4.67-.092-6.81-.049-2.18.044-4.08.07-5.53-.119l-.26 1.984c1.63.211 3.69.177 5.83.135 2.17-.044 4.45-.099 6.64.045 4.47.294 7.99 1.389 9.33 4.461l1.84-.802zm-23.38-5.823c-1.32-.171-2.08-.673-2.53-1.246-.47-.599-.71-1.383-.78-2.241-.07-.854.03-1.707.15-2.362.06-.324.12-.59.17-.773.03-.092.05-.162.06-.207.01-.023.01-.039.02-.049v-.011.001l-.95-.312-.95-.312v.011c-.01.005-.01.013-.01.022-.01.018-.01.043-.02.075-.02.063-.05.153-.08.265-.06.224-.14.541-.21.923-.14.756-.26 1.801-.17 2.895.09 1.09.4 2.304 1.2 3.317.82 1.037 2.08 1.759 3.84 1.988l.26-1.984zm-3.86-7.2l.84.537v-.001l.01-.003v-.009c.01-.009.01-.021.03-.037l.09-.145c.08-.127.19-.317.35-.57.31-.505.76-1.261 1.36-2.267 1.18-2.012 2.9-5.026 5.07-9.044 4.34-8.036 10.45-20.088 17.56-36.168l-1.82-.81c-7.1 16.032-13.19 28.036-17.5 36.028a271.645 271.645 0 01-5.04 8.98 84.99 84.99 0 01-1.34 2.236c-.15.248-.26.433-.34.556l-.09.137c-.01.015-.01.026-.02.033v.01l.84.537zm25.31-47.707c7.16-16.165 6.98-25.669 4.78-31.216-1.1-2.776-2.7-4.506-4.04-5.546a9.862 9.862 0 00-1.72-1.078c-.22-.108-.4-.185-.54-.237-.06-.026-.12-.045-.16-.059-.02-.007-.03-.012-.05-.017 0-.002-.01-.003-.01-.005l-.01-.002v-.001l-.3.956-.29.956v-.001c0-.001 0-.001 0 0a1.187 1.187 0 01.1.038c.09.033.22.088.39.17.34.165.82.439 1.37.862 1.09.843 2.44 2.292 3.4 4.702 1.92 4.826 2.31 13.721-4.74 29.668l1.82.81z" fill="#000" fill-opacity=".5" mask="url(#a)"/><path d="M1139.2 229.952s-.08.24-.27.688c-.19.448-.48 1.152-.83 2l-3.3 7.6c-2.88 6.608-7.1 16.144-12.37 27.904-10.53 23.52-25.34 55.872-41.82 91.552-16.48 35.68-31.43 68.032-42.08 91.504l-12.59 27.792-3.43 7.552c-.4.832-.7 1.488-.91 1.952-.1.224-.21.443-.34.656.07-.235.16-.464.26-.688.21-.48.48-1.136.83-1.984.77-1.776 1.89-4.336 3.3-7.616 2.88-6.608 7.1-16.128 12.37-27.888 10.52-23.52 25.34-55.872 41.82-91.568s31.38-68.016 42.03-91.472c5.31-11.696 9.6-21.184 12.59-27.776l3.44-7.552c.39-.848.69-1.488.92-1.968.22-.48.38-.688.38-.688z" fill="#E4C7BA"/><path d="M1085.23 281.232c.29.502.51 1.04.66 1.6.38 1.008.88 2.496 1.49 4.336 1.18 3.696 2.7 8.816 4.27 14.512l3.95 14.592c.48 1.744.88 3.2 1.22 4.416.19.514.31 1.052.36 1.6-.28-.502-.5-1.04-.65-1.6-.39-1.008-.88-2.496-1.47-4.352-1.16-3.696-2.61-8.848-4.18-14.544l-4.05-14.56-1.23-4.4a7.319 7.319 0 01-.37-1.6zm14.11 41.392c0-.208 10.37-3.808 23.32-8 12.94-4.192 23.5-7.504 23.56-7.296.07.208-10.36 3.808-23.31 8-12.94 4.192-23.5 7.504-23.57 7.296zm-27.79 53.664a8.505 8.505 0 011.73-.144l4.67-.16c3.94-.144 9.39-.352 15.39-.816 6-.464 11.43-1.008 15.36-1.456l4.64-.528a6.73 6.73 0 011.73-.096c-.52.188-1.05.322-1.6.4-1.09.208-2.67.48-4.62.768-3.91.592-9.35 1.264-15.36 1.712-6.02.448-11.49.576-15.46.56-1.97 0-3.57 0-4.67-.08-.61.03-1.22-.024-1.81-.16zm-20.99-34.624c.37.381.69.805.96 1.264.58.832 1.41 2.064 2.4 3.6 2 3.056 4.7 7.312 7.65 12.032 2.94 4.72 5.58 9.024 7.45 12.16.95 1.6 1.68 2.848 2.18 3.744.3.44.54.919.72 1.424a5.6 5.6 0 01-.98-1.264c-.57-.848-1.39-2.064-2.4-3.6a931.514 931.514 0 01-7.64-12.048c-2.96-4.736-5.59-9.024-7.46-12.16-.93-1.6-1.6-2.848-2.18-3.728a6.823 6.823 0 01-.7-1.424zM1020 385.92c.47.488.88 1.024 1.23 1.6l3.09 4.608c2.56 3.904 6.08 9.328 9.92 15.344s7.28 11.504 9.73 15.488l2.88 4.8c.37.568.69 1.167.96 1.792a9.229 9.229 0 01-1.23-1.6l-3.08-4.608c-2.57-3.92-6.09-9.344-9.93-15.36s-7.27-11.504-9.73-15.488a211.399 211.399 0 01-2.86-4.8 9.348 9.348 0 01-.98-1.776zm27.44 42.384c.71-.162 1.43-.248 2.16-.256l5.92-.416c4.99-.352 11.9-.864 19.5-1.6 7.6-.736 14.4-1.6 19.44-2.288l5.88-.784c.71-.129 1.44-.194 2.17-.192-.69.237-1.4.403-2.13.496-1.37.272-3.37.624-5.84 1.024-4.96.816-11.82 1.776-19.44 2.544-7.61.768-14.54 1.2-19.55 1.408-2.51.096-4.53.16-5.93.16-.73.03-1.46-.002-2.18-.096z" fill="#E4C7BA"/><mask id="b" fill="#fff"><path d="M199.664 359.088c37.328-24.912 46.4-72 45.648-114.544-.144-7.104.768-14.56-2.56-20.8-3.328-6.24-11.2-10.656-17.712-7.76-5.36 2.4-7.792 8.496-10.848 13.52a41.969 41.969 0 01-17.104 15.632c-4.608 2.272-10.288 3.616-14.768 1.088-6.144-3.456-6.752-11.92-6.592-18.976l.864-39.424c.144-7.056.288-14.256-1.84-20.992-2.128-6.736-6.928-13.008-13.696-14.992-6.768-1.984-15.232 1.76-16.784 8.64-.64 2.864-.096 5.856-.336 8.784-.24 2.928-1.6 6.144-4.512 6.912-2.912.768-5.68-1.264-7.792-3.344-7.264-7.248-12.128-16.48-16.656-25.6-4.528-9.12-8.944-18.608-15.504-26.464-6.56-7.856-15.744-14.16-25.968-14.896-10.224-.736-21.216 5.36-24 15.232-2.784 9.872 2.976 20.08 9.248 28.224a158.628 158.628 0 0032.752 31.632c2.24 1.6 4.64 3.344 5.472 5.968 1.472 4.8-3.104 9.328-7.84 10.816-5.36 1.6-11.2 1.04-16.704 1.6-5.504.56-11.664 2.896-13.856 8-3.024 7.168 2.96 14.816 8.896 19.856a137.132 137.132 0 0040 23.632c5.232 1.984 10.736 3.728 14.912 7.44s6.656 10.08 4.016 15.008c-2.64 4.928-9.248 6.4-14.736 5.344-5.488-1.056-10.368-4.112-15.584-6.144-9.776-3.808-22.4-3.328-28.88 4.96-4.224 5.44-4.704 13.104-2.72 19.696 1.984 6.592 6.144 12.304 10.56 17.6 15.456 18.464 35.392 33.44 58.048 41.6 22.656 8.16 43.728 10.56 66.496 2.72"/></mask><path d="M245.312 244.544l1-.018v-.002l-1 .02zm-20.272-28.56l-.406-.914-.003.001.409.913zm-10.848 13.52l.852.523.002-.003-.854-.52zm-17.104 15.632l.442.897.003-.001-.445-.896zm-14.768 1.088l.491-.871-.001-.001-.49.872zm-6.592-18.976l1 .023v-.001l-1-.022zm.864-39.424l1 .022v-.002l-1-.02zm-1.84-20.992l.954-.301-.954.301zm-30.48-6.352l-.975-.22-.001.002.976.218zm-12.64 12.352l-.706.708.004.004.702-.712zm-72.88-23.504l-.792.61.001.002.791-.612zm32.752 31.632l-.584.812.003.002.581-.814zm5.472 5.968l.956-.293-.003-.009-.953.302zm-7.84 10.816l.286.958.007-.002.007-.002-.3-.954zm-30.56 9.6l-.919-.395-.002.006.921.389zm8.896 19.856l-.647.762.647-.762zm40 23.632l-.355.935.355-.935zM96.08 272.48l.363-.932-.363.932zm-28.88 4.96l-.788-.616-.002.003.79.613zm7.84 37.296l-.768.64.001.002.767-.642zm125.179 45.184c37.779-25.213 46.846-72.779 46.093-115.394l-2 .036c.751 42.473-8.326 89.083-45.203 113.694l1.11 1.664zm46.093-115.396c-.07-3.426.118-7.232-.088-10.762-.21-3.601-.829-7.188-2.59-10.489l-1.764.942c1.567 2.939 2.156 6.2 2.358 9.663.206 3.534.01 7.008.084 10.686l2-.04zm-2.678-21.251c-1.765-3.31-4.725-6.125-8.114-7.738-3.395-1.616-7.302-2.059-10.886-.465l.812 1.828c2.928-1.302 6.213-.986 9.214.443 3.007 1.431 5.647 3.944 7.21 6.874l1.764-.942zm-19.003-8.202c-2.924 1.309-5 3.607-6.707 6.128-.854 1.262-1.629 2.6-2.373 3.919-.749 1.33-1.461 2.629-2.213 3.866l1.708 1.04c.776-1.275 1.514-2.623 2.248-3.924.739-1.312 1.48-2.589 2.286-3.779 1.613-2.383 3.433-4.334 5.869-5.424l-.818-1.826zm-11.291 13.91a40.967 40.967 0 01-16.697 15.259l.89 1.792a42.964 42.964 0 0017.511-16.005l-1.704-1.046zm-16.694 15.258c-4.536 2.237-9.807 3.387-13.835 1.114l-.982 1.742c4.932 2.783 11.021 1.245 15.701-1.062l-.884-1.794zm-13.836 1.113c-2.751-1.547-4.322-4.24-5.183-7.52-.863-3.289-.979-7.054-.899-10.561l-2-.046c-.08 3.549.028 7.544.965 11.115.939 3.58 2.744 6.847 6.137 8.756l.98-1.744zm-6.082-18.082l.864-39.424-2-.044-.864 39.424 2 .044zm.864-39.426c.143-7.025.3-14.394-1.886-21.313l-1.908.602c2.07 6.553 1.939 13.584 1.794 20.671l2 .04zm-1.886-21.313c-2.19-6.93-7.174-13.542-14.369-15.651l-.562 1.92c6.341 1.858 10.957 7.791 13.023 14.333l1.908-.602zm-14.369-15.651c-3.645-1.068-7.709-.59-11.069 1.058-3.363 1.65-6.114 4.523-6.971 8.322l1.95.44c.696-3.081 2.952-5.52 5.901-6.966 2.953-1.448 6.504-1.85 9.627-.934l.562-1.92zm-18.041 9.382c-.347 1.555-.368 3.12-.342 4.604.027 1.518.1 2.918-.015 4.316l1.994.164c.125-1.53.046-3.09.021-4.516-.026-1.46.001-2.823.294-4.132l-1.952-.436zm-.357 8.92c-.111 1.354-.479 2.738-1.122 3.846-.638 1.1-1.512 1.882-2.648 2.181l.51 1.934c1.776-.469 3.038-1.679 3.868-3.111.825-1.424 1.257-3.112 1.386-4.686l-1.994-.164zm-3.77 6.027c-1.147.303-2.31.071-3.487-.528-1.187-.605-2.322-1.551-3.348-2.562l-1.404 1.425c1.086 1.07 2.391 2.18 3.844 2.919 1.463.745 3.14 1.145 4.905.68l-.51-1.934zm-6.831-3.085c-7.134-7.118-11.935-16.211-16.466-25.337l-1.792.89c4.526 9.114 9.452 18.485 16.846 25.863l1.412-1.416zm-16.466-25.337c-4.507-9.076-8.979-18.692-15.632-26.66l-1.536 1.282c6.467 7.744 10.827 17.104 15.376 26.268l1.792-.89zm-15.632-26.66c-6.665-7.981-16.078-14.49-26.664-15.252l-.144 1.994c9.862.71 18.817 6.809 25.272 14.54l1.536-1.282zm-26.664-15.252c-10.582-.762-22.093 5.526-25.034 15.958l1.925.542c2.626-9.312 13.1-15.216 22.965-14.506l.144-1.994zm-25.034 15.958c-1.47 5.208-.669 10.459 1.258 15.395 1.926 4.93 4.997 9.604 8.16 13.71l1.584-1.22c-3.11-4.038-6.054-8.54-7.88-13.218-1.825-4.672-2.513-9.461-1.197-14.125l-1.925-.542zm9.42 29.107a159.652 159.652 0 0032.958 31.832l1.168-1.624a157.601 157.601 0 01-32.545-31.432l-1.582 1.224zm32.96 31.834c2.302 1.644 4.387 3.205 5.1 5.456l1.907-.604c-.95-2.997-3.665-4.924-5.844-6.48l-1.162 1.628zm5.098 5.447c.61 1.992-.004 3.986-1.413 5.728-1.417 1.751-3.572 3.15-5.77 3.841l.599 1.908c2.537-.797 5.038-2.406 6.725-4.491 1.695-2.094 2.632-4.764 1.771-7.572l-1.912.586zm-7.17 9.565c-2.56.764-5.262 1.02-8.058 1.149-2.753.127-5.675.131-8.461.414l.202 1.99c2.718-.277 5.468-.273 8.351-.406 2.84-.131 5.739-.395 8.538-1.231l-.572-1.916zm-16.52 1.563c-2.843.289-5.887 1.039-8.527 2.402-2.642 1.365-4.933 3.374-6.146 6.198l1.838.79c.979-2.28 2.864-3.991 5.226-5.211 2.364-1.22 5.152-1.919 7.812-2.189l-.202-1.99zm-14.675 8.606c-1.671 3.961-.816 7.995 1.13 11.591 1.94 3.588 5.021 6.853 8.04 9.416l1.294-1.524c-2.917-2.477-5.797-5.556-7.575-8.844-1.775-3.28-2.4-6.654-1.047-9.861l-1.842-.778zm9.17 21.007a138.134 138.134 0 0040.292 23.805l.71-1.87a136.129 136.129 0 01-39.708-23.459l-1.294 1.524zm40.292 23.805c5.324 2.019 10.6 3.694 14.603 7.252l1.328-1.494c-4.349-3.867-10.081-5.679-15.221-7.628l-.71 1.87zm14.603 7.252c1.958 1.741 3.516 4.106 4.271 6.592.754 2.481.694 5.02-.472 7.197l1.762.944c1.474-2.751 1.494-5.86.624-8.723-.869-2.858-2.639-5.533-4.857-7.504l-1.328 1.494zm3.799 13.789c-1.168 2.179-3.236 3.641-5.723 4.435-2.492.796-5.345.899-7.943.399l-.378 1.964c2.89.556 6.085.451 8.929-.457 2.849-.91 5.405-2.648 6.877-5.397l-1.762-.944zm-13.666 4.834c-2.628-.506-5.135-1.495-7.673-2.636-2.501-1.125-5.1-2.43-7.737-3.458l-.726 1.864c2.579 1.004 5.028 2.243 7.643 3.418 2.578 1.159 5.255 2.226 8.115 2.776l.378-1.964zm-15.41-6.094c-5.026-1.958-10.795-2.82-16.169-2.116-5.38.706-10.422 2.993-13.862 7.392l1.576 1.232c3.04-3.889 7.55-5.986 12.546-6.641 5.002-.655 10.433.146 15.183 1.997l.726-1.864zm-30.033 5.279c-4.48 5.77-4.934 13.798-2.888 20.597l1.916-.576c-1.922-6.386-1.416-13.685 2.552-18.795l-1.58-1.226zm-2.888 20.597c2.046 6.796 6.319 12.638 10.75 17.952l1.536-1.28c-4.4-5.278-8.448-10.86-10.37-17.248l-1.916.576zm10.751 17.954c15.553 18.58 35.631 33.671 58.476 41.899l.678-1.882c-22.467-8.092-42.261-22.953-57.62-41.301l-1.534 1.284zm58.476 41.899c22.797 8.211 44.113 10.661 67.161 2.724l-.652-1.891c-22.488 7.744-43.316 5.394-65.831-2.715l-.678 1.882z" fill="#000" fill-opacity=".5" mask="url(#b)"/><path d="M196.8 359.904c-6-21.52-22.4-72.16-32.24-96l-7.312-17.6c-2.416-5.776-4.8-11.488-7.504-16.944a316.574 316.574 0 00-17.28-30.4c-5.984-9.44-12-18.176-17.6-26.32-5.6-8.144-11.2-15.584-16.448-22.192a251.76 251.76 0 00-27.2-29.296c-3.472-3.2-6.24-5.6-8.144-7.2L60.8 112c-.496-.4-.768-.592-.768-.592s.224.24.688.672l2.112 1.888c1.84 1.6 4.576 4.096 8 7.344a267.115 267.115 0 0126.88 29.456c5.216 6.624 10.624 14.112 16.304 22.24 5.68 8.128 11.632 16.896 17.6 26.32a317.495 317.495 0 0117.168 30.4c2.672 5.44 5.056 11.2 7.472 16.912 2.416 5.712 4.8 11.664 7.312 17.6 9.776 23.808 26.224 74.4 32.272 95.856" fill="#E4C7BA"/><path d="M149.408 229.248c.331-.978.567-1.985.704-3.008.384-1.952.864-4.8 1.408-8.288 1.104-7.008 2.304-16.736 3.6-27.472 1.296-10.736 2.656-20.416 3.904-27.392.608-3.488 1.136-6.304 1.6-8.24.25-.998.416-2.015.496-3.04-.391.95-.691 1.936-.896 2.944-.528 1.92-1.168 4.8-1.872 8.208-1.552 6.944-2.992 16.656-4.288 27.44-1.296 10.784-2.416 20.272-3.28 27.504-.432 3.36-.8 6.16-1.088 8.32-.181.998-.277 2.01-.288 3.024zm-91.616-18.32c.306.098.623.151.944.16l2.72.272c2.368.24 5.776.56 9.968 1.088 8.4.992 19.968 2.8 32.64 5.344 12.672 2.544 24 5.408 32.16 7.696 4.08 1.12 7.36 2.112 9.6 2.784l2.624.768c.297.115.61.185.928.208a3.204 3.204 0 00-.864-.4c-.704-.272-1.6-.592-2.56-.96-2.224-.8-5.488-1.92-9.6-3.2-8.112-2.48-19.472-5.44-32.16-8-12.688-2.56-24.192-4.176-32.688-4.992-4.208-.432-7.648-.64-10.016-.736h-2.736a3.857 3.857 0 00-.96-.032zm130.08 119.68c.244-.346.453-.716.624-1.104l1.6-3.2c1.376-2.848 3.2-7.008 5.568-12.176 4.576-10.32 10.448-24.784 16.736-40.816 6.288-16.032 12.032-30.592 16.4-40.992l5.248-12.288c.576-1.376 1.056-2.48 1.424-3.344.181-.386.326-.787.432-1.2a4.524 4.524 0 00-.624 1.104l-1.6 3.2c-1.376 2.848-3.28 7.008-5.552 12.16-4.576 10.336-10.464 24.8-16.736 40.832s-12.048 30.528-16.448 40.928L189.696 326l-1.408 3.344c-.19.403-.33.827-.416 1.264zM66.384 289.952c.383.2.785.361 1.2.48l3.536 1.2L84.144 296c10.992 3.68 26.112 8.944 42.8 14.8s31.872 11.008 42.928 14.512c5.52 1.744 10.016 3.12 13.12 4.016l3.6 1.008c.415.141.844.237 1.28.288a6.865 6.865 0 00-1.216-.496l-3.536-1.2-13.024-4.336c-10.992-3.68-26.112-8.944-42.8-14.8S95.44 298.768 84.384 295.28c-5.536-1.744-10.016-3.12-13.136-4.016l-3.584-1.024a6.682 6.682 0 00-1.28-.288z" fill="#E4C7BA"/><path d="M814.016 112.592h201.714l-39.458 28.048v23.424a43.65 43.65 0 01-43.968 43.312H805.728a43.648 43.648 0 01-43.968-43.312 51.86 51.86 0 0132.377-47.677 51.861 51.861 0 0119.879-3.795z" fill="#fff"/><path d="M814.012 113.092h200.148l-38.178 27.14-.21.15v23.68a43.15 43.15 0 01-43.465 42.814H805.724a43.15 43.15 0 01-43.464-42.812 51.345 51.345 0 0132.065-47.213 51.354 51.354 0 0119.687-3.759z" stroke="#000" stroke-opacity=".5"/><path d="M953.24 140.904c0 .224-33.6.416-75.2.416s-75.2-.192-75.2-.416c0-.224 33.6-.416 75.2-.416s75.2.176 75.2.416zm-9 18.584c0 .224-33.6.416-75.2.416s-75.2-.192-75.2-.416c0-.224 33.6-.416 75.2-.416s75.2.176 75.2.416zm-12 19c0 .224-33.6.416-75.2.416s-75.2-.192-75.2-.416c0-.224 33.6-.416 75.2-.416s75.2.176 75.2.416z" fill="#C5C5C5"/><path d="M507.984 592.672H269.296l38.88 28.128V676a11.519 11.519 0 0011.536 11.52h188.272A11.518 11.518 0 00519.52 676v-71.808a11.535 11.535 0 00-11.536-11.52z" fill="#fff"/><path d="M308.676 620.8v-.256l-.207-.149-37.629-27.223h237.144a11.033 11.033 0 0111.036 11.021V676a11.028 11.028 0 01-6.814 10.185 11.013 11.013 0 01-4.221.835H319.711A11.022 11.022 0 01308.676 676v-55.2z" stroke="#000" stroke-opacity=".5"/><path d="M498.032 631.68c0 .24-36 .416-80.4.416-44.4 0-80.4-.176-80.4-.416s35.984-.416 80.4-.416c44.416 0 80.4.192 80.4.416zm0 21.2c0 .224-36 .416-80.4.416-44.4 0-80.4-.192-80.4-.416 0-.224 35.984-.416 80.4-.416 44.416 0 80.4.192 80.4.416z" fill="#C5C5C5"/><path d="M995.328 320.64H715.984c-34.277 0-62.064 27.787-62.064 62.064v227.36c0 34.277 27.787 62.064 62.064 62.064h279.344c34.272 0 62.062-27.787 62.062-62.064v-227.36c0-34.277-27.79-62.064-62.062-62.064z" fill="#FADACC"/><path d="M1057.28 443.168h60.43l-61.79 61.808 1.36-61.808z" fill="#44D08D"/><path d="M1057.28 443.168h60.43l-61.79 61.808 1.36-61.808z" fill="#FADACC"/><path d="M644.256 481.168l-25.328-28.8c-6.848-6.848-9.2-10.144-7.824-11.344 1.824-1.6 1.04-1.072 15.264 9.6 0 0-20.16-15.408-13.168-15.504 1.232 0 4.656 1.984 8.32 4.384-4.992-4.24-6.4-7.104-5.424-8.464 1.6-2.368 13.952 6.192 19.632 10.304-4.64-3.456-13.488-10.16-15.04-12.272-2.144-2.88 2.192-2.64 5.712-1.44 3.952 1.344 25.792 12.496 32.256 15.376a4.177 4.177 0 006.016-2.032c2.384-10.016 9.6-16.528 12.352-17.376 2.752-.848 4.88 2.672 2.912 5.232a38.124 38.124 0 00-4.256 9.568 24.725 24.725 0 00-1.296 8.208c0 3.2.224 5.968.432 8.288l23.152 31.76-38.72 22.4-14.992-27.888z" fill="#FFEAE2"/><path d="M635.2 455.104c-.256.352-4.8-2.736-10.048-6.912s-9.344-7.856-9.04-8.192c.304-.336 4.8 2.768 10.048 6.912s9.264 7.824 9.04 8.192zm4.896-5.056c-.256.368-5.232-2.672-11.12-6.768-5.888-4.096-10.464-7.728-10.208-8.08.256-.352 5.232 2.656 11.12 6.752 5.888 4.096 10.464 7.728 10.208 8.096zm3.584-5.376c-.256.368-5.024-2.416-10.64-6.224-5.616-3.808-9.968-7.184-9.728-7.568.24-.384 5.008 2.416 10.64 6.224 5.632 3.808 9.968 7.2 9.728 7.568z" fill="#E2BBAF"/><path d="M676.976 459.2l92.288 117.024-21.136 49.2s-25.312-5.6-32.992-16.256c-7.68-10.656-70.88-128-70.88-128l32.72-21.968z" fill="#FFEAE2"/><path d="M911.248 295.488c6.64 5.76 6.624 15.904 5.856 24.656-.768 8.752-1.36 18.72 4.704 25.088 5.008 5.248 14.08 7.536 15.232 14.688a8.236 8.236 0 01-4.169 8.544 8.242 8.242 0 01-9.447-1.072c1.952 5.648.608 12.704-4.288 16.128-4.896 3.424-13.104 1.312-14.624-4.464a7.243 7.243 0 01-.912 5.716 7.255 7.255 0 01-4.807 3.225 7.247 7.247 0 01-8.505-6.349M816.16 354.56a8.754 8.754 0 11-16.16-6.736c1.52-3.328 5.12-5.728 5.472-9.376.416-4.4-4.08-7.552-8-9.472s-8.656-4.416-9.088-8.832c-.432-4.416 3.392-7.568 6.576-10.416 3.184-2.848 6.4-7.264 4.368-11.056-1.008-1.952-3.104-3.056-4.464-4.8-2.992-3.808-1.424-9.872 2.4-12.8 3.824-2.928 9.104-3.392 13.872-2.544 4.768.848 9.248 2.832 13.888 4.224a57.947 57.947 0 0046.144-6.048" fill="#263238"/><path d="M844.496 457.744a32.128 32.128 0 0037.744-24.64l22.704-104.096a46.197 46.197 0 00-6.02-35.447 46.198 46.198 0 00-29.612-20.393l-2.368-.352a46.495 46.495 0 00-52.08 35.6c-5.056 21.968-10.352 46.304-11.952 58.256-3.312 24.752 20.8 32.208 20.8 32.208l-4.336 20.8a32.117 32.117 0 004.643 24.222 32.137 32.137 0 0020.445 13.794l.032.048z" fill="#FFEAE2"/><path d="M819.312 324.8a3.583 3.583 0 002.88 4.064 3.4 3.4 0 002.603-.458 3.412 3.412 0 001.493-2.182 3.552 3.552 0 00-2.864-4.064 3.415 3.415 0 00-2.61.457 3.424 3.424 0 00-1.502 2.183z" fill="#263238"/><path d="M818.4 321.28c.368.528 3.328-1.072 7.136-.496 3.808.576 6.288 2.864 6.768 2.464.24-.176-.096-1.072-1.168-2.128a9.788 9.788 0 00-5.344-2.544 9.422 9.422 0 00-5.76.96c-1.296.736-1.808 1.504-1.632 1.744zm38.015 9.6a3.567 3.567 0 002.88 4.064c.444.1.904.111 1.352.032a3.41 3.41 0 002.744-2.688 3.549 3.549 0 00-2.88-4.048 3.405 3.405 0 00-2.607.452 3.39 3.39 0 00-1.489 2.188z" fill="#263238"/><path d="M855.615 327.456c.368.512 3.328-1.072 7.12-.496 3.792.576 6.304 2.864 6.784 2.464.224-.176-.096-1.072-1.184-2.128a9.788 9.788 0 00-5.344-2.544 9.422 9.422 0 00-5.76.96c-1.232.688-1.808 1.504-1.616 1.744zM837.712 353.6c0-.224-2.256-.976-6-2.016-.96-.24-1.84-.576-1.904-1.264a5.025 5.025 0 011.056-2.768 786.867 786.867 0 003.952-6.96c5.52-9.936 9.6-18.144 9.264-18.368-.336-.224-5.2 7.648-10.72 17.6l-3.84 7.008a5.762 5.762 0 00-1.056 3.744 2.454 2.454 0 001.392 1.6c.512.219 1.05.375 1.6.464 2.037.578 4.139.901 6.256.96zm19.088-41.168c.224 1.088 4.096 1.152 8.464 2.336s7.792 2.928 8.528 2.096c.32-.4-.16-1.472-1.456-2.672a15.226 15.226 0 00-12.944-3.376c-1.792.416-2.672 1.184-2.592 1.616zm-35.392-1.936c.544.96 3.2.448 6.4.864s5.728 1.44 6.4.624c.336-.4 0-1.328-.992-2.32a9.397 9.397 0 00-10.4-1.184c-1.152.72-1.648 1.552-1.408 2.016zm60.688-12.512l.112.128a19.62 19.62 0 015.376 13.632v.496c0 7.2-1.296 14.4-1.28 21.52.016 7.12 1.392 14.704 5.888 20.304 1.84 2.32 5.424 4.24 7.52 2.16a6.086 6.086 0 001.36-3.104c3.808-16.816 10.656-31.216 13.232-49.008a15.15 15.15 0 00-4.432-13.12c-3.328-3.2-7.472-6.656-11.904-5.296-4.432 1.36-10.912 8.32-14.608 11.2" fill="#263238"/><path d="M894.976 338.96c.448-.128 17.712-2.544 14.688 14.272-3.024 16.816-19.2 10.32-19.2 9.824 0-.496 4.512-24.096 4.512-24.096z" fill="#FFEAE2"/><path d="M896.736 357.616s.256.256.704.56a2.992 2.992 0 002.192.448c1.888-.336 3.888-2.88 4.512-5.904a9.852 9.852 0 000-4.336 3.454 3.454 0 00-1.808-2.64 1.504 1.504 0 00-1.872.496c-.304.416-.256.784-.352.784-.096 0-.304-.336 0-1.008.166-.399.466-.727.848-.928a2.255 2.255 0 011.696-.144 4.215 4.215 0 012.592 3.2 10.1 10.1 0 01.176 4.8c-.72 3.376-3.024 6.224-5.568 6.496a3.204 3.204 0 01-2.608-.928c-.56-.496-.576-.88-.512-.896z" fill="#E2BBAF"/><path d="M898.16 288.4c5.152-6.16-4.8-17.52-12.8-21.376-8-3.856-19.52-1.392-28.224.144-5.488.976-11.056 2.64-16.528 1.6a37.259 37.259 0 01-10.304-4.304 27.867 27.867 0 00-10.464-3.664 10.303 10.303 0 00-9.712 4.336c-1.904 3.2-.576 8.208 3.008 9.248a8.387 8.387 0 00-7.679-1.29 8.377 8.377 0 00-5.428 5.582 8.384 8.384 0 008.643 10.748c-2.128-2.176-6.256.304-6.4 3.344-.144 3.04 2.256 5.616 4.8 7.232 6.576 4.128 14.928 4.336 22.576 2.96 7.648-1.376 14.976-4.224 22.592-5.792 7.616-1.568 20.4-4.544 27.28-.912 5.056 2.656 7.84 9.6 11.056 8.656a10.449 10.449 0 006.4-6.816 30.384 30.384 0 001.072-9.6" fill="#263238"/><path d="M931.072 366.4c.315-.072.613-.202.88-.384a5.01 5.01 0 001.824-2.08 7.35 7.35 0 00.544-4.352 8.735 8.735 0 00-3.008-4.928 21.907 21.907 0 00-6.064-3.536 39.402 39.402 0 01-7.088-3.424 14.14 14.14 0 01-5.136-6.672 23.4 23.4 0 01-1.488-9.088c.16-6.4 1.936-12.4 2.368-18.048.432-5.648-.288-10.944-2.688-14.608a13.55 13.55 0 00-8-6 9.334 9.334 0 00-2.736-.272c-.32.005-.637.053-.944.144a13.918 13.918 0 013.6.448 13.502 13.502 0 017.552 6c2.224 3.552 2.992 8.704 2.432 14.224s-2.272 11.52-2.464 18.096a23.992 23.992 0 001.6 9.408 14.908 14.908 0 005.488 7.024 40.403 40.403 0 007.248 3.424 21.887 21.887 0 015.936 3.328 8.394 8.394 0 012.944 4.576 6.944 6.944 0 01-.384 4.112 5.506 5.506 0 01-2.416 2.608zm-118.48-92.416a2.92 2.92 0 00-.736-.4 6.074 6.074 0 00-.928-.368 7.972 7.972 0 00-1.36-.336 10.122 10.122 0 00-8.48 2.592 13.576 13.576 0 00-3.008 10.016 16.665 16.665 0 006.176 11.408 25.812 25.812 0 0013.984 5.616 57.025 57.025 0 0016.608-1.008 75.073 75.073 0 0024.48-9.472c3.232-2 6.613-3.749 10.112-5.232a26.865 26.865 0 019.6-1.968 28.645 28.645 0 0113.792 3.2 48.008 48.008 0 014.464 2.832 19.588 19.588 0 00-4.304-3.2 28.219 28.219 0 00-13.968-3.568 27.554 27.554 0 00-9.856 1.904 75.5 75.5 0 00-10.224 5.232 75.55 75.55 0 01-24.256 9.296 56.648 56.648 0 01-16.368 1.04 25.207 25.207 0 01-13.584-5.376 16.08 16.08 0 01-6.016-10.896 13.034 13.034 0 012.752-9.6 9.942 9.942 0 018.096-2.672c1.035.226 2.048.548 3.024.96z" fill="#455A64"/><path d="M821.952 259.984a9.602 9.602 0 00.592 3.776 15.868 15.868 0 006.624 8 19.855 19.855 0 006.704 2.784 28.47 28.47 0 008.32.432c5.872-.432 12.016-2.448 18.464-4.112 6.448-1.664 12.896-2.544 18.464-1.056a23.994 23.994 0 0112.544 8.144 24.938 24.938 0 014.8 9.024c.64 2.352.72 3.728.832 3.712.022-.33.022-.662 0-.992a19.943 19.943 0 00-.464-2.8 24.133 24.133 0 00-4.656-9.328 24.458 24.458 0 00-12.8-8.528c-5.76-1.6-12.384-.688-18.864.992s-12.576 3.696-18.32 4.16c-2.706.28-5.438.167-8.112-.336a19.927 19.927 0 01-6.528-2.592 15.996 15.996 0 01-6.624-7.584 22.81 22.81 0 01-.976-3.696z" fill="#455A64"/><path d="M830.127 366.16a18.24 18.24 0 001.296 4.8 5.877 5.877 0 003.6 3.2 5.247 5.247 0 004.8-1.456 8.494 8.494 0 002.256-4.704c.256-1.6 0-3.6-1.6-4.112a4.094 4.094 0 00-1.968 0l-8.864 1.6" fill="#E2BBAF"/><path d="M831.68 372.88c1.409.542 2.905.824 4.416.832a6.272 6.272 0 004.128-1.888 6.66 6.66 0 001.776-5.168 5.857 5.857 0 00-.32-1.408c-.208-.432-.144-.4-.512-.448-.368-.048-.944 0-1.424.08l-1.488.112c-1.92.144-3.648.256-5.104.336a15.246 15.246 0 01-4.8-.096 16.26 16.26 0 014.656-.96c1.44-.208 3.2-.416 5.072-.64l1.472-.16c.53-.078 1.064-.126 1.6-.144.423.011.832.157 1.168.416.298.264.524.6.656.976.217.576.357 1.179.416 1.792a7.865 7.865 0 01-2.288 6.288 7.154 7.154 0 01-5.072 1.968 6.623 6.623 0 01-3.488-.976c-.544-.448-.912-.848-.864-.912z" fill="#263238"/><path d="M823.744 398.88s16.128 6.112 31.824 1.6c0 0-11.84 9.936-33.44 6.128l1.616-7.728z" fill="#E2BBAF"/><path d="M848.352 628.272a18.589 18.589 0 01-2.208-1.696c-.688-.56-1.6-1.248-2.576-1.984s-2.16-1.6-3.52-2.48c-1.36-.88-2.768-1.84-4.416-2.752a186.383 186.383 0 00-5.264-2.832 82.116 82.116 0 00-26.112-7.808c-2.096-.224-4.08-.48-5.952-.528-1.872-.048-3.616-.128-5.2-.112s-3.04.096-4.304.144a43.075 43.075 0 00-3.2.24c-.916.14-1.842.204-2.768.192.9-.231 1.814-.402 2.736-.512 1.06-.182 2.128-.31 3.2-.384 1.264-.096 2.704-.272 4.32-.272s3.36-.096 5.248 0c1.888.096 3.904.256 6.016.448a87.603 87.603 0 0113.536 2.784 84.743 84.743 0 0112.8 5.104c1.872.992 3.68 1.904 5.264 2.928s3.088 1.936 4.4 2.864c1.312.928 2.464 1.824 3.472 2.592a33.638 33.638 0 012.496 2.112c.731.593 1.41 1.246 2.032 1.952z" fill="#FFEEDF"/><path d="M754.32 546.096l13.12-56.848c5.024-21.376 10.976-41.92 20.976-44.352v6.608l-4.288 162.416s-26.736 30.4-60.8 13.536c-10.656-5.296-30.096-42.496-30.096-42.496S648 504.256 649.888 500.592c1.888-3.664 29.52-39.28 32.336-41.056l72.096 86.56z" fill="#44D08D"/><path d="M889.327 428.8c26.08 4.992 55.44 20.208 68.96 59.2 4.928 14.24 40.832 119.216 40.832 119.216l-61.232-1.28-9.888-21.616 4.8 35.12 4.144 50.08-154.624 2.608 1.088-75.456 1.488-150.08s1.728-2.272 28.4-16.976c16.544-9.136 76.032-.816 76.032-.816z" fill="#44D08D"/><path d="M904.751 529.184c2.544 31.68 5.456 41.472 8 73.152.061 3 .601 5.971 1.6 8.8a9.609 9.609 0 006.4 5.84c4.512.912 10.368 4.176 11.632-.24l-4.271-30.512a60.227 60.227 0 00-4.224-12.88c-9.488-21.072-12.992-22.304-19.2-44.16" fill="#000" opacity=".2"/><path d="M813.279 445.856l.512-3.296 4.944-31.616a3.684 3.684 0 013.936-3.104l60.88 5.088a6.992 6.992 0 016.4 7.488l-1.36 18.368-19.008 24.8-27.376 4.272" fill="#44D08D"/><path d="M782.704 505.296c.24 0 .416 24.768.416 55.312 0 30.544-.176 55.312-.416 55.312s-.416-24.768-.416-55.312c0-30.544.192-55.312.416-55.312zM939.2 611.024s0-.112-.192-.352-.304-.64-.512-1.088l-1.856-4.208-6.672-15.536-21.744-51.376c-4.224-10.048-8.24-19.616-11.888-28.336a53.37 53.37 0 01-3.936-12.8 70.473 70.473 0 01-1.056-11.68 47.092 47.092 0 012.432-16.72l.496-1.328.56-1.12a9.773 9.773 0 01.96-1.696l.672-.992a2.72 2.72 0 01.256-.32 32.748 32.748 0 00-2.64 5.568 48.372 48.372 0 00-2.144 16.608 61.048 61.048 0 005.104 24.24l11.952 28.304 21.52 51.472 6.4 15.632 1.712 4.272.432 1.12c.058.107.106.22.144.336z" fill="#263238"/><path d="M908.304 434.384a20.243 20.243 0 01-1.776 1.6 27.53 27.53 0 01-5.84 3.408 43.848 43.848 0 01-10.272 2.88 127.542 127.542 0 01-14.08 1.392c-5.248.224-10.976.128-17.12.24a79.216 79.216 0 00-19.36 2.368 35.677 35.677 0 00-18.208 10.736 25.142 25.142 0 00-5.056 9.984c-.977 3.76-.91 7.715.192 11.44a18.167 18.167 0 002.672 5.12 13.488 13.488 0 004.32 3.648 9.412 9.412 0 005.344 1.12 7.312 7.312 0 004.704-2.4 12.798 12.798 0 002.368-10.128 16.627 16.627 0 00-1.6-4.992 24.384 24.384 0 00-2.832-4.304 30.144 30.144 0 00-16.416-9.712 34.86 34.86 0 00-16.784.192 46.02 46.02 0 00-12.8 5.488 61.17 61.17 0 00-8.512 6.4c-2.192 1.92-3.744 3.584-4.8 4.672l-1.184 1.28a2.932 2.932 0 01-.432.416 52.206 52.206 0 016.24-6.608 57.526 57.526 0 018.48-6.496 45.92 45.92 0 0112.96-5.664 35.207 35.207 0 0117.088-.288 30.73 30.73 0 0116.848 9.904 25.084 25.084 0 012.912 4.32 17.327 17.327 0 011.6 5.232c.28 1.853.247 3.741-.096 5.584a11.09 11.09 0 01-2.448 5.2 8.116 8.116 0 01-5.216 2.672 10.124 10.124 0 01-5.824-1.2 14.411 14.411 0 01-4.592-3.872 18.974 18.974 0 01-2.816-5.376 22.08 22.08 0 01-.192-11.888 25.6 25.6 0 015.232-10.32 36.611 36.611 0 0118.624-10.96A79.521 79.521 0 01859.2 443.2c6.16-.096 11.888 0 17.104-.144a128.31 128.31 0 0014.032-1.264 45.407 45.407 0 0010.24-2.72 29.217 29.217 0 005.856-3.2c.64-.432 1.072-.832 1.392-1.056.146-.159.306-.304.48-.432zm52.911 66.592a3.08 3.08 0 01-.688.112c-.448 0-1.104.112-1.968.144-2.417.08-4.837.021-7.248-.176-3.056-.224-6.672-.688-10.672-1.248-4-.56-8.384-1.152-13.024-1.392a50.222 50.222 0 00-12.944.976 32.632 32.632 0 00-9.888 3.76 28.483 28.483 0 00-7.296 6.4 2.3 2.3 0 01.352-.592c.338-.565.723-1.101 1.152-1.6a22.044 22.044 0 015.488-4.8 32.154 32.154 0 0110.016-4 49.073 49.073 0 0113.168-1.056c4.688.24 9.088.88 13.088 1.472s7.584 1.12 10.608 1.408c3.024.288 5.504.416 7.2.432.888-.001 1.775.052 2.656.16zm-38.447 71.728a32.231 32.231 0 00-9.184-.784 49.848 49.848 0 00-10.672 1.904c-4.08 1.104-8.64 2.72-13.76 4.304a56.66 56.66 0 01-17.248 2.992 49.41 49.41 0 01-19.648-4.08 48.882 48.882 0 01-17.92-13.024 37.26 37.26 0 01-6.4-9.952 22.748 22.748 0 01-1.84-12.016 17.49 17.49 0 015.68-10.704 12.457 12.457 0 015.392-2.752 12.62 12.62 0 0111.088 2.992 9.596 9.596 0 012.88 4.976 9.708 9.708 0 01-.432 5.616 13.5 13.5 0 01-2.992 4.592 23.857 23.857 0 01-8.784 5.584 26.785 26.785 0 01-4.8 1.328c-.8.144-1.6.32-2.384.432l-2.384.288a51.954 51.954 0 01-17.456-1.232 54.437 54.437 0 01-13.488-5.184 49.814 49.814 0 01-8.976-6.208l-1.6-1.392-1.312-1.328a22.231 22.231 0 01-1.984-2.144l-1.152-1.376a3.381 3.381 0 01-.352-.48c.155.133.299.277.432.432l1.2 1.312a23.746 23.746 0 002.032 2.08l1.328 1.296 1.6 1.36a50.561 50.561 0 008.976 6.032A54.382 54.382 0 00812 552.592a51.395 51.395 0 0017.264 1.12l2.336-.288c.784-.128 1.6-.304 2.368-.448 1.6-.289 3.17-.729 4.688-1.312a23.225 23.225 0 008.496-5.424 12.8 12.8 0 002.816-4.336 9.161 9.161 0 00.4-5.168 10.01 10.01 0 00-7.472-7.168 11.197 11.197 0 00-10.576 2.416 16.531 16.531 0 00-5.392 10.192 22.19 22.19 0 001.76 11.568 37.15 37.15 0 006.208 9.744 48.23 48.23 0 0017.6 12.8 49.072 49.072 0 0019.344 4.096 56.257 56.257 0 0017.088-2.88c5.104-1.6 9.6-3.104 13.808-4.176a49.486 49.486 0 0110.768-1.776 31.903 31.903 0 013.984 0c1.136.176 2.112.256 2.88.432l1.744.432c.231.065.452.162.656.288zm-140.592-17.072c-.144 0-.88-1.6-2.432-4.288a41.762 41.762 0 00-17.072-15.92c-2.72-1.376-4.512-1.984-4.464-2.128a4.78 4.78 0 011.312.304 26.08 26.08 0 013.408 1.28 37.384 37.384 0 019.984 6.672 36.788 36.788 0 017.344 9.504 27.9 27.9 0 011.6 3.296c.163.41.271.841.32 1.28zm-62.08 68.48s-.112-.128-.256-.4c-.144-.272-.384-.704-.656-1.2a153.483 153.483 0 01-2.432-4.688 109.76 109.76 0 01-7.328-18.032 58.307 58.307 0 01-2.288-13.264 41.455 41.455 0 01.304-7.52 44.882 44.882 0 011.888-7.76 33.827 33.827 0 019.392-14.208 22.99 22.99 0 0117.072-6 12.669 12.669 0 018.416 4.096 10.343 10.343 0 012.204 4.1c.413 1.517.474 3.108.18 4.652a7.773 7.773 0 01-2.272 3.952 9.26 9.26 0 01-3.904 2.128 11.52 11.52 0 01-8.368-1.008 19.104 19.104 0 01-6.096-5.2 28.035 28.035 0 01-3.856-6.512A28.806 28.806 0 01720 544a27.205 27.205 0 013.2-10.64 27.767 27.767 0 015.024-6.72 26.146 26.146 0 014.112-3.344c.496-.336.912-.544 1.184-.704l.416-.208s-.512.368-1.504 1.056a29.143 29.143 0 00-3.984 3.424 28.455 28.455 0 00-4.8 6.704 26.893 26.893 0 00-2.992 10.464 28.096 28.096 0 002.176 12.96 27.643 27.643 0 003.776 6.32 18.52 18.52 0 005.888 4.976 10.72 10.72 0 007.808.928 7.52 7.52 0 005.584-5.504 9.6 9.6 0 00-2.208-8 11.835 11.835 0 00-7.872-3.808 22.177 22.177 0 00-16.448 5.776 33.337 33.337 0 00-9.2 13.856 43.309 43.309 0 00-1.904 7.6 41.52 41.52 0 00-.336 7.392 58.612 58.612 0 002.176 13.136 116.99 116.99 0 007.04 18.048l2.288 4.8c.24.512.432.928.592 1.248.16.32.08.352.08.352zm-19.76-141.248s.08.224.144.656c.113.646.193 1.297.24 1.952.211 2.39.211 4.794 0 7.184a45.666 45.666 0 01-25.792 37.488 41.19 41.19 0 01-6.704 2.576c-.8.256-1.456.368-1.888.48-.432.112-.672.128-.672.096.802-.346 1.625-.64 2.464-.88a50.46 50.46 0 006.544-2.8 46.835 46.835 0 0025.472-37.024c.252-2.359.343-4.733.272-7.104a20.344 20.344 0 01-.08-2.624zm274.879 69.376a23.388 23.388 0 00-6.176 5.632c-1.6 2.064-3.2 4.8-5.008 7.68a59.201 59.201 0 01-6.832 9.04 57.604 57.604 0 01-16.4 12.336 48.101 48.101 0 01-5.728 2.448c-.715.28-1.454.495-2.208.64a12.244 12.244 0 012.08-.944c1.344-.592 3.296-1.424 5.584-2.672a61.575 61.575 0 0016-12.368 60.769 60.769 0 006.8-8.88 83.497 83.497 0 015.2-7.648 20.23 20.23 0 014.592-4.24c.472-.314.97-.587 1.488-.816.416-.16.608-.24.608-.208z" fill="#FFEEDF"/><path d="M888.752 430.72c-.234.1-.482.165-.736.192l-2.128.384a299.76 299.76 0 01-7.856 1.152 444.537 444.537 0 01-26.096 2.704c-4.787.437-9.594.608-14.4.512a40.862 40.862 0 01-11.664-2 25.912 25.912 0 01-7.12-3.6 17.59 17.59 0 01-1.696-1.36c-.352-.352-.528-.528-.512-.56.016-.032.832.64 2.384 1.6a28.551 28.551 0 007.12 3.296 41.466 41.466 0 0011.52 1.792 142.42 142.42 0 0014.4-.576 683.91 683.91 0 0026.064-2.448l7.888-.896c.938-.13 1.885-.194 2.832-.192z" fill="#263238"/><path d="M998.4 618.544a43.002 43.002 0 01-.504 18.685 43.012 43.012 0 01-8.386 16.704 42.991 42.991 0 01-32.886 15.811l-121.2-1.344 3.2-39.248L942.4 613.568" fill="#FFEAE2"/><path d="M846.048 630.864c-.56.176-7.552-2.96-13.824-5.856a45.188 45.188 0 00-21.28-4.128l-28.896 1.472s1.776 4.8 4.8 6.4c3.024 1.6 21.152 2.112 21.152 2.112l-.928.944a20.801 20.801 0 01-14.4 6.304h-2.768a26.849 26.849 0 01-6.032-1.184l-7.12-2.88c-2.16-.96-4.432-.816-5.376 1.36s-.224 4.672 5.664 7.632c3.28 1.6 15.472 5.872 15.472 5.872.084 1.736.324 3.46.72 5.152.528 1.776 5.312 3.552 5.312 3.552a63.757 63.757 0 004.256 7.616c.56.64 4.896 2 9.52 3.296a41.112 41.112 0 0022.768-.176l11.008-3.296v-33.6" fill="#FFEAE2"/><path d="M806.528 652.8a32.746 32.746 0 01-14.576-3.84c0-.192 3.2 1.024 7.248 2.064s7.344 1.536 7.328 1.776zm-1.024 6.736a7.398 7.398 0 01-4.064-.304 7.504 7.504 0 01-3.648-1.792 24.06 24.06 0 013.84 1.104c1.314.231 2.609.562 3.872.992zm5.28-31.28c-.632.89-1.38 1.691-2.224 2.384a35.7 35.7 0 01-6.304 4.8 24.831 24.831 0 01-7.376 2.848 10.662 10.662 0 01-3.2.352 42.155 42.155 0 0010.272-3.824 49.135 49.135 0 006.32-4.528 18.092 18.092 0 012.512-2.032z" fill="#E2BBAF"/><path d="M848.992 625.6l-2.944 44.384h114.16a42.642 42.642 0 0022-6.096 42.69 42.69 0 0019.902-44.8 131.167 131.167 0 00-7.358-24.624l-57.408 9.456 1.84 7.136-90.192 14.544z" fill="#44D08D"/><path d="M965.631 607.328a9.436 9.436 0 01-1.152.256l-3.344.608-12.336 2.048-40.576 6.4-40.624 6.224-12.32 1.792-3.36.448c-.392.054-.787.086-1.184.096.379-.132.77-.223 1.168-.272l3.328-.592 12.288-2.064 40.576-6.4 40.704-6.272 12.32-1.792 3.36-.448a5.413 5.413 0 011.152-.032z" fill="#263238"/><path d="M907.2 670.016c-.208 0 .688-3.2.8-8.432a36.434 36.434 0 00-.176-4.256 39.831 39.831 0 00-.704-4.8A44.681 44.681 0 00903.408 642a48.181 48.181 0 00-6.24-9.28l-1.6-1.872c-.544-.608-1.136-1.136-1.68-1.68-1.072-1.104-2.208-1.984-3.2-2.832-4.08-3.2-6.976-4.8-6.88-4.944.708.283 1.388.631 2.032 1.04.796.415 1.566.88 2.304 1.392.848.608 1.904 1.2 2.912 2.064a36.771 36.771 0 013.296 2.784c.56.544 1.184 1.056 1.744 1.6l1.744 1.888a46.916 46.916 0 016.4 9.392 44.303 44.303 0 013.712 10.752 35.76 35.76 0 01.64 4.944 30.532 30.532 0 010 4.32 28.237 28.237 0 01-.32 3.568 17.77 17.77 0 01-.464 2.64 13.46 13.46 0 01-.608 2.24zm69.503-3.344a24.03 24.03 0 01-5.296-.624 27.454 27.454 0 01-5.92-2.096 23.527 23.527 0 01-6.672-4.96 21.252 21.252 0 01-4.912-8.8 23.734 23.734 0 01-.848-5.6 21.796 21.796 0 01.48-5.968 17.613 17.613 0 012.368-5.872 13.287 13.287 0 014.8-4.576 11.898 11.898 0 016.704-1.6 8.938 8.938 0 016.256 3.2 8.76 8.76 0 012.112 6.736 7.99 7.99 0 01-3.936 5.632 18.753 18.753 0 01-12.608 1.728 26.32 26.32 0 01-22.256-25.216 18.933 18.933 0 01.448-5.312 44.78 44.78 0 00-.128 5.296 27.21 27.21 0 004.56 13.472 26.11 26.11 0 0017.472 11.088c4.086.878 8.349.312 12.064-1.6a7.192 7.192 0 003.552-5.04 8.339 8.339 0 00-1.939-6.105 8.366 8.366 0 00-5.693-2.935 11.051 11.051 0 00-6.224 1.424 14.405 14.405 0 00-6.8 9.888 20.998 20.998 0 00-.496 5.792c.045 1.833.308 3.653.784 5.424a20.577 20.577 0 004.672 8.592 23.357 23.357 0 006.4 4.944 28.157 28.157 0 005.792 2.192c3.36.752 5.28.784 5.264.896z" fill="#FFEEDF"/><path d="M523.856 183.152H237.952a63.008 63.008 0 00-63.008 63.008v101.888h-61.68l61.68 61.68v69.264A63.007 63.007 0 00237.952 542h285.904a63.005 63.005 0 0063.008-63.008V246.16a63.008 63.008 0 00-63.008-63.008z" fill="#EAFF8C"/><path d="M174.944 348.548h.5V246.16a62.507 62.507 0 0162.508-62.508h285.904a62.507 62.507 0 0162.508 62.508v232.832a62.508 62.508 0 01-62.508 62.508H237.952a62.51 62.51 0 01-62.508-62.508v-69.471l-.147-.146-60.826-60.827h60.473z" stroke="#000" stroke-opacity=".5"/><path d="M407.055 193.92c-1.808 4.688 1.296 9.792 4.8 13.408 3.504 3.616 7.696 7.04 8.8 11.936.912 4.112-.608 8.384-.24 12.576s2.688 8.144 4 12.24c2.384 7.424 1.424 15.536-.704 23.04a42.336 42.336 0 01-8.576 16.976 22.62 22.62 0 01-16.768 8 6.629 6.629 0 01-4.96-1.792 8.01 8.01 0 01-1.424-4.4 429.014 429.014 0 010-96.96m11.696 108.8c13.92-.608 26.784 12.72 25.68 26.608 14.096 3.44 24 18.944 21.296 33.184-.912 4.704-3.008 9.184-3.296 13.952-.32 5.216 1.6 10.288 2.544 15.408a48.535 48.535 0 01-2.784 27.776c-2.192 5.296-6.288 10.768-12.016 10.928a11.842 11.842 0 01-9.6-5.648 29.779 29.779 0 01-3.872-10.928c-2.48-12.512-3.2-25.36-6.656-37.632-3.456-12.272-10.176-24.368-21.264-30.592-6.128-3.456-13.488-5.088-18.368-10.16a19.958 19.958 0 01-3.6-20.64 26.315 26.315 0 0115.68-14.64" fill="#263238"/><path d="M307.327 205.392c-.16-5.952 5.328-10.544 10.864-12.8 5.536-2.256 11.696-3.008 16.624-6.4 4.384-2.944 7.312-7.536 11.008-11.2a36.618 36.618 0 0152.237.083 36.618 36.618 0 019.363 16.717c2.128 8.464.672 18.48-6 24.112-7.744 6.528-19.2 5.072-29.168 3.04s-21.168-4.032-29.456 1.808c-4.992 3.504-7.872 9.232-10.928 14.528-3.056 5.296-6.88 10.688-12.656 12.688-5.776 2-13.632-1.456-13.856-7.552" fill="#263238"/><path d="M330.784 206.608a9.953 9.953 0 00-8.88 10.112l5.936 134.4c.256 15.872 23.456 24.784 40.448 24.384 17.168-.4 17.712-8.816 17.936-23.92.352-25.216.32-34.688.336-34.544.016.144 21.68-3.648 26.112-32 2.192-14.064 1.44-37.136.208-56-1.104-16.976-12.4-37.776-29.312-35.952l-52.784 13.52z" fill="#FFBE9D"/><path d="M408 246.864a3.633 3.633 0 01-3.488 3.664 3.444 3.444 0 01-2.542-.816 3.458 3.458 0 01-1.202-2.384 3.617 3.617 0 013.488-3.664 3.463 3.463 0 012.542.816 3.46 3.46 0 011.202 2.384zm-.096-5.76c-.448.48-3.2-1.6-7.104-1.6s-6.768 1.984-7.2 1.504c-.208-.208.256-1.072 1.504-1.984a9.898 9.898 0 015.744-1.776 9.6 9.6 0 015.664 1.808c1.2.944 1.616 1.84 1.392 2.048zm-37.425 5.76a3.633 3.633 0 01-3.488 3.664 3.448 3.448 0 01-2.542-.816 3.46 3.46 0 01-1.202-2.384 3.617 3.617 0 013.488-3.664 3.463 3.463 0 013.383 1.887c.206.41.329.856.361 1.313zm-.879-4.944c-.448.48-3.2-1.6-7.104-1.6s-6.768 1.984-7.184 1.504c-.208-.208.24-1.072 1.488-1.984a9.945 9.945 0 015.744-1.792 9.602 9.602 0 015.664 1.824c1.12.976 1.536 1.84 1.392 2.048zm14.159 28.928c0-.224 2.4-.64 6.4-1.152.992-.112 1.936-.32 2.112-.992a5.225 5.225 0 00-.672-2.96l-2.976-7.584c-4.112-10.8-7.104-19.68-6.656-19.84.448-.16 4.128 8.464 8.24 19.2l2.848 7.632a5.867 5.867 0 01.528 3.904 2.534 2.534 0 01-1.6 1.472 6.222 6.222 0 01-1.6.224c-4.16.288-6.608.32-6.624.096z" fill="#263238"/><path d="M386.56 317.056a71.998 71.998 0 01-37.92-10.032s9.232 19.424 37.552 16.704l.368-6.672zm-4.432-36.8a7.02 7.02 0 00-6.4-2.592 6.394 6.394 0 00-4.433 2.384 4.064 4.064 0 00-.287 4.656 4.682 4.682 0 005.12 1.28 14.645 14.645 0 004.976-2.992c.443-.309.823-.7 1.12-1.152a1.301 1.301 0 000-1.456" fill="#EB996E"/><path d="M372.271 273.6c.64 0 .656 4.208 4.288 7.2s8.144 2.528 8.176 3.2c0 .272-1.008.832-2.912.88a10.548 10.548 0 01-6.832-2.352 9.204 9.204 0 01-3.312-6.048c-.176-1.872.304-2.88.592-2.88zm-1.071-38.528c-.384 1.072-4.288.576-8.864 1.136-4.576.56-8.288 1.824-8.896.864-.272-.448.368-1.456 1.856-2.48a15.55 15.55 0 0113.536-1.6c1.744.752 2.592 1.584 2.368 2.08zm35.2-5.264c-.688.88-3.376 0-6.624 0-3.248 0-5.968.608-6.592-.32-.288-.448.144-1.328 1.344-2.176a9.595 9.595 0 0110.64.304c1.232.848 1.568 1.76 1.232 2.192z" fill="#263238"/><path d="M311.024 299.696a25.098 25.098 0 0022.038-6.193 25.111 25.111 0 006.519-9.804A25.116 25.116 0 00340.912 272c-.88-6.96-4.624-14.016-2.208-20.608 3.2-8.688 15.376-11.36 18.608-20.048 1.872-5.04.192-10.944 2.32-15.888 2-4.64 6.896-7.312 11.664-9.04 4.768-1.728 9.856-2.912 13.856-6.016s6.48-8.96 3.904-13.328a267.974 267.974 0 00-61.824 15.024c-4.624 1.728-9.472 3.808-12.208 7.904-2.88 4.352-2.736 9.952-2.496 15.168 1.184 25.408-2.688 49.2-1.504 74.608" fill="#263238"/><path d="M304.288 291.728a1.604 1.604 0 01-.464-.144 5.855 5.855 0 01-1.296-.64 9.386 9.386 0 01-3.52-4.16 13.95 13.95 0 01-.928-8.592 27.343 27.343 0 015.136-10.288c2.48-3.456 5.632-6.96 7.776-11.424a17.597 17.597 0 001.872-7.296 24.256 24.256 0 00-1.6-7.872 23.907 23.907 0 01-1.68-8.544 19.196 19.196 0 019.2-15.456 22.012 22.012 0 019.328-2.656 39.225 39.225 0 009.328-1.6 12.174 12.174 0 006.56-5.904 45.222 45.222 0 003.104-8.352 45.186 45.186 0 013.2-8 30.26 30.26 0 0110.608-11.92 22.943 22.943 0 0113.424-3.488 17.27 17.27 0 0110.576 4.336 16.701 16.701 0 014.72 7.264 13.46 13.46 0 01.656 5.44 8.225 8.225 0 01-.32 1.888s.112-.656.16-1.904a14.16 14.16 0 00-.8-5.328 16.612 16.612 0 00-15.024-11.104 22.4 22.4 0 00-13.024 3.488 29.571 29.571 0 00-10.304 11.68 44.03 44.03 0 00-3.104 8 45.517 45.517 0 01-3.2 8.496 14.528 14.528 0 01-2.864 3.776 12.134 12.134 0 01-4.128 2.512 39.339 39.339 0 01-9.6 1.696 21.118 21.118 0 00-8.992 2.544 18.376 18.376 0 00-6.24 6.281 18.377 18.377 0 00-2.576 8.471c.028 2.837.57 5.645 1.6 8.288a24.513 24.513 0 011.68 8.128 18.378 18.378 0 01-1.984 7.584c-2.24 4.576-5.424 8-7.92 11.472a26.822 26.822 0 00-5.152 10.032 13.567 13.567 0 00.752 8.352 9.596 9.596 0 003.328 4.176c1.072.544 1.728.704 1.712.768z" fill="#455A64"/><path d="M386.512 168.352a2.64 2.64 0 011.104.336c.96.407 1.859.946 2.672 1.6a13.711 13.711 0 012.8 18.736 12.171 12.171 0 01-2.08 2.32c-.576.48-.928.688-.96.64a39.792 39.792 0 002.544-3.2 13.806 13.806 0 00-2.672-17.968 36.593 36.593 0 00-3.408-2.464zm62.687 194.192c.338-.984.61-1.989.816-3.008a13.851 13.851 0 00-1.392-8.144 18.898 18.898 0 00-8.928-8.32 37.115 37.115 0 00-6.96-2.48c-2.496-.64-5.136-1.168-7.776-2.032a17.604 17.604 0 01-7.152-3.904 11.942 11.942 0 01-3.376-6.784c-.432-2.384-.576-4.64-1.104-6.656a13.052 13.052 0 00-2.576-5.088 14.7 14.7 0 00-6.848-4.656c-1.904-.576-3.04-.576-3.04-.672a4.12 4.12 0 01.816 0c.783.054 1.559.177 2.32.368a14.51 14.51 0 017.2 4.592 13.513 13.513 0 012.8 5.296c.576 2.096.752 4.384 1.2 6.688a11.074 11.074 0 003.2 6.4 17.028 17.028 0 006.832 3.696c2.576.832 5.216 1.376 7.728 2.032a35.704 35.704 0 017.04 2.528 19.197 19.197 0 019.12 8.752 13.787 13.787 0 011.184 8.464 10 10 0 01-.72 2.224 3.875 3.875 0 01-.384.704z" fill="#455A64"/><path d="M326.128 312.432c-14.4-3.84-26.72-17.872-31.744-31.84-5.024-13.968-5.024-29.216-3.728-44 .928-10.704 2.816-22.032 9.92-30.096 10.72-12.16 22.4-18.368 38.528-17.856" fill="#263238"/><path d="M409.808 343.632l-13.36-3.36a7.604 7.604 0 002.656-9.312 12.238 12.238 0 00-10.208-7.568L328 316.512a4.796 4.796 0 00-5.104 3.008c-2.699 6.869-2.79 12.523-.272 16.96h-.288l-11.744 2.336L290.688 514.4l130.368-6.096-11.248-164.672z" fill="#F5F5F5"/><path d="M390.639 340.944c-.8.234-1.619.394-2.448.48-1.6.256-3.888.528-6.736.816a157.356 157.356 0 01-44.624-2.224c-2.816-.56-5.072-1.072-6.624-1.488a13.046 13.046 0 01-2.384-.704c.826.061 1.646.194 2.448.4 1.6.304 3.856.736 6.672 1.216a184.725 184.725 0 0044.464 2.208c2.848-.192 5.152-.4 6.752-.56a15.825 15.825 0 012.48-.144z" fill="#263238"/><path d="M331.712 368.848a47.847 47.847 0 014.56-7.584 47.328 47.328 0 015.264-7.12 47.3 47.3 0 01-4.576 7.584 46.672 46.672 0 01-5.248 7.12zm42.016 2.976a91.594 91.594 0 01-10.928-13.6 46.59 46.59 0 015.792 6.544 45.163 45.163 0 015.136 7.056zm-19.52 22.32a49.203 49.203 0 01-1.968-8.736 46.033 46.033 0 01-1.136-8.88 48.941 48.941 0 011.968 8.736 49.265 49.265 0 011.136 8.88zm32.08 1.376a70.545 70.545 0 01-7.392 7.872 69.142 69.142 0 01-8 7.28 70.095 70.095 0 017.392-7.872 72.69 72.69 0 018-7.28zm-43.024 29.92a37.101 37.101 0 01-13.872-14.704c.224-.144 2.672 3.696 6.528 7.744 3.856 4.048 7.504 6.752 7.344 6.96zm13.824 23.104c0 .24-3.648 1.408-7.872 3.664-4.224 2.256-7.312 4.624-7.472 4.416a23.285 23.285 0 017.088-5.168 22.794 22.794 0 018.256-2.912zm22.48 1.488a15.71 15.71 0 01-2.544-2.736c-1.472-1.76-3.44-4.272-5.488-7.136a121.138 121.138 0 01-4.976-7.52 15.913 15.913 0 01-1.76-3.296c.851.913 1.607 1.91 2.256 2.976l5.168 7.36 5.264 7.264c.8.953 1.498 1.988 2.08 3.088zm2.256 19.712a45.663 45.663 0 01-9.6 2.24 46.403 46.403 0 01-9.84.976 77.499 77.499 0 019.712-1.792 82.86 82.86 0 019.728-1.424zm-36.4-131.28c-.112 0 .656-.96 1.312-2.656a14.099 14.099 0 00.704-6.944 28.33 28.33 0 00-2.064-6.832 12.925 12.925 0 01-1.088-2.816 9.462 9.462 0 011.6 2.576 22.164 22.164 0 012.352 6.944c.387 2.481.048 5.02-.976 7.312a5.159 5.159 0 01-1.84 2.416zm24.352-13.152a14.586 14.586 0 012.576 11.008c-.24 0-.272-2.544-.992-5.568-.72-3.024-1.76-5.312-1.584-5.44z" fill="#E4C7BA"/><path d="M479.615 450.416l60.64-106.512 7.312-18.48s18.912-40.64 20.224-44.8c1.52-4.8 4.192-5.184 5.92-4.512 2.688 1.072 3.552 5.072 2.368 9.216-.416 1.424-7.76 23.76-7.76 23.76a53.65 53.65 0 016.272-4.656c4.656-3.2 13.184-3.04 21.088-.224 7.904 2.816 9.856 4.304 8.912 7.408a4.125 4.125 0 01-2.544 2.512 8.001 8.001 0 01-5.84.128c-12.704-4.32-18.336 1.408-18.336 1.408l-.944 2.416s9.6-3.056 14.976 1.264a7.989 7.989 0 011.984 2.304 10.514 10.514 0 016.769 13.13 10.501 10.501 0 01-2.881 4.566 4.365 4.365 0 01-4.8 1.216 5.366 5.366 0 01-1.808-2.096 9.218 9.218 0 00-.88-1.2l-3.616 6.4s-8.912 13.92-12.112 20.432l-41.76 111.248a29.44 29.44 0 01-38.4 17.04 29.447 29.447 0 01-16.966-17.611 29.465 29.465 0 012.182-24.357z" fill="#FFBE9D"/><path d="M544.432 343.536c2.144 1.408 5.104.448 7.024-1.216s3.2-3.952 5.056-5.76c5.392-5.392 14.4-5.904 19.568-11.552.72-.784 1.36-1.984.736-2.848-.624-.864-1.776-.704-2.736-.512l-24.816 4.912" fill="#FFBE9D"/><path d="M549.264 326.56a10.604 10.604 0 012.624-.8c1.712-.432 4.208-.992 7.28-1.6l10.816-2.288 3.2-.656a5.059 5.059 0 013.792.128 2.15 2.15 0 01.8 2.256 4.24 4.24 0 01-.96 1.824 16.375 16.375 0 01-2.8 2.464c-4.128 2.864-8.656 4.032-12.272 5.936a18.322 18.322 0 00-4.704 3.2c-1.28 1.232-2.288 2.64-3.344 3.84a8.934 8.934 0 01-6.576 3.696c-1.904 0-2.688-.944-2.624-.96a7.437 7.437 0 002.592.4 8.654 8.654 0 005.824-3.792 51.515 51.515 0 013.28-4.032 19.365 19.365 0 014.944-3.552c3.728-2.016 8.24-3.2 12.048-5.92a16.255 16.255 0 002.528-2.224c.704-.784.944-1.728.448-2-.496-.272-1.6-.144-2.704.08l-3.2.592-10.88 2c-3.104.544-5.616.96-7.36 1.216a8.811 8.811 0 01-2.752.192zm27.328-8.448a10.32 10.32 0 012.848-3.84 7.998 7.998 0 014.8-1.6c2.176.013 4.336.369 6.4 1.056a32.493 32.493 0 006.496 1.472 10.46 10.46 0 005.44-.832 4.147 4.147 0 002.32-2.912 2.593 2.593 0 000-1.36c-.096 0-.096.48-.336 1.28a3.895 3.895 0 01-2.24 2.4 10.66 10.66 0 01-5.104.576 35.224 35.224 0 01-6.304-1.6 20.465 20.465 0 00-6.624-1.024 8.448 8.448 0 00-5.168 1.92 7.326 7.326 0 00-2.16 3.024c-.4.944-.432 1.424-.368 1.44zm-.08-34.384a27.15 27.15 0 00-1.504 4.432c-.944 3.072-2.064 6.72-3.312 10.752-1.248 4.032-2.48 7.648-3.472 10.704a25.44 25.44 0 00-1.328 4.48 22.807 22.807 0 001.952-4.256c1.056-2.688 2.4-6.4 3.744-10.64 1.344-4.24 2.384-8 3.056-10.864.449-1.501.738-3.046.864-4.608zm3.504 41.072c.488.07.983.07 1.472 0a4.336 4.336 0 013.488.928 2.35 2.35 0 01.56 2.24 12.111 12.111 0 01-1.136 2.816 5.246 5.246 0 00-.592 3.68 4.493 4.493 0 002.848 2.864 5.052 5.052 0 003.984-.4 6.224 6.224 0 002.64-2.576 20.64 20.64 0 001.76-5.76 11.809 11.809 0 000-4.048 2.633 2.633 0 00-.56-1.376c-.08 0 .128.512.208 1.424a14.156 14.156 0 01-.336 3.888 22.293 22.293 0 01-1.856 5.456 5.008 5.008 0 01-5.568 2.512 3.54 3.54 0 01-1.402-.851 3.533 3.533 0 01-.87-1.389 4.413 4.413 0 01.496-3.056c.497-.969.873-1.995 1.12-3.056a3.046 3.046 0 00-.88-2.832 4.566 4.566 0 00-4-.832 4.405 4.405 0 00-1.376.368z" fill="#EB996E"/><path d="M590.479 336s-.304.416-.272 1.312a4.053 4.053 0 001.856 3.12 5.407 5.407 0 005.392 0 8.815 8.815 0 004.064-5.184c.697-2.142.697-4.45 0-6.592a10.175 10.175 0 00-2.96-4.48 9.588 9.588 0 00-3.088-1.856 2.932 2.932 0 00-1.296-.288 17.3 17.3 0 013.936 2.624 10.03 10.03 0 012.528 10.304 8.234 8.234 0 01-3.6 4.72 4.795 4.795 0 01-4.624.128 3.888 3.888 0 01-1.856-2.608c-.16-.704 0-1.2-.08-1.2zm-20.192 10.048a3.828 3.828 0 00-2.144-.656 8.8 8.8 0 00-5.568 1.328l.688.464a25.74 25.74 0 00.448-3.2c.56-6.176-1.408-10.944-1.6-10.816a49.82 49.82 0 01.688 10.736 28.075 28.075 0 01-.4 3.056l-.192 1.04.88-.592a9.245 9.245 0 015.04-1.504c1.328.032 2.128.256 2.16.144zm12.625-37.952c-.256 0 .096 1.92 1.792 3.392s3.6 1.6 3.6 1.328-1.52-.736-2.976-2.032-2.16-2.784-2.416-2.688z" fill="#EB996E"/><path d="M393.6 538.8l63.44.624-10.64-46.032 3.568 8.688A43.697 43.697 0 00490.4 529.2c20.064 0 33.936-14.928 42.416-33.104 19.84-42.496 38.96-110.928 38.96-110.928l-38.672-33.984c-28 52.96-54.304 98.944-54.304 98.944s-7.6-23.088-13.472-43.696c-5.872-20.608-5.824-31.424-14.832-41.696-13.872-15.808-33.6-19.728-51.968-24.464l-.688 85.504L393.6 538.8z" fill="#44D08D"/><path d="M321.008 475.2l115.52 22.4 5.616 44.384h-177.12a34.867 34.867 0 01-25.902-11.05 34.87 34.87 0 01-9.298-26.582c2.544-32.352 5.312-72.192 7.424-89.04 1.6-13.136 6.88-26.72 13.072-38.4 8.944-16.832 38.752-38.4 64.88-39.52l4.944 110.032" fill="#44D08D"/><g opacity=".4" fill="#000"><path d="M393.6 538.8l63.44.624-10.64-46.032 3.568 8.688A43.697 43.697 0 00490.4 529.2c20.064 0 33.936-14.928 42.416-33.104 19.84-42.496 38.96-110.928 38.96-110.928l-38.672-33.984c-28 52.96-54.304 98.944-54.304 98.944s-7.6-23.088-13.472-43.696c-5.872-20.608-5.824-31.424-14.832-41.696-13.872-15.808-33.6-19.728-51.968-24.464l-.688 85.504L393.6 538.8z"/><path d="M321.008 475.2L425.2 494.304a10.907 10.907 0 018.688 8.464l8.256 39.312h-177.12a34.867 34.867 0 01-25.902-11.05 34.87 34.87 0 01-9.298-26.582c2.544-32.352 5.312-72.192 7.424-89.04 1.6-13.136 6.88-26.72 13.072-38.4 8.944-16.832 38.752-38.4 64.88-39.52l4.944 110.032"/></g><path d="M299.007 471.904a4.548 4.548 0 010-1.056v-14.224c0-9.392-.176-22.4-.896-36.688a704.354 704.354 0 00-1.328-20.16 82.668 82.668 0 00-2.32-16.256 23.27 23.27 0 00-5.088-9.6 36.148 36.148 0 00-2.976-2.72 12.373 12.373 0 013.28 2.448 22.556 22.556 0 015.424 9.712 80.196 80.196 0 012.496 16.416 560.94 560.94 0 011.392 20.176c.736 14.4.816 27.344.656 36.8a537.52 537.52 0 01-.336 11.2l-.176 3.024a3.984 3.984 0 01-.128.928zM434.288 500.8a17.615 17.615 0 00-4.208-3.408 26.594 26.594 0 00-5.904-2.352c-2.384-.688-5.184-1.216-8.272-1.84-12.352-2.528-29.392-6.032-48.272-9.6-18.88-3.568-36.064-6.4-48.496-8.384l-14.736-2.352-4-.672a8.687 8.687 0 01-1.392-.288 8.21 8.21 0 011.408.128l4.032.512c3.488.464 8.544 1.168 14.768 2.096a1349.022 1349.022 0 0148.56 8.144c18.896 3.536 35.936 7.12 48.24 9.776 3.088.672 5.888 1.248 8.288 1.984a25.486 25.486 0 015.936 2.528 12.793 12.793 0 013.2 2.56c.246.253.471.526.672.816.112.192.192.352.176.352z" fill="#263238"/><path d="M299.36 471.904c0 .144-2.128.64-5.424 1.984a48.096 48.096 0 00-5.6 2.752 50.024 50.024 0 00-6.224 4.384 48.939 48.939 0 00-5.312 5.376 45.094 45.094 0 00-3.68 5.024c-1.888 3.024-2.752 5.072-2.896 5.008a5.96 5.96 0 01.496-1.488 32.388 32.388 0 011.888-3.824 42.365 42.365 0 013.6-5.216 41.18 41.18 0 0111.84-9.936 38.09 38.09 0 015.744-2.64 29.568 29.568 0 014.096-1.2 5.315 5.315 0 011.472-.224zm149.168 27.648c-.11-.361-.19-.73-.24-1.104-.128-.8-.304-1.856-.512-3.2-.448-2.768-1.04-6.768-1.712-11.728-1.344-9.904-2.976-23.632-4.352-38.832a877.129 877.129 0 01-2.64-38.992c-.224-4.992-.352-9.04-.416-11.84v-3.2a5.986 5.986 0 010-1.12c.087.367.13.743.128 1.12l.208 3.2c.176 2.88.4 6.896.688 11.808.592 9.984 1.52 23.76 2.88 38.944 1.36 15.184 2.912 28.912 4.112 38.832.592 4.896 1.088 8.88 1.44 11.76.144 1.328.272 2.384.368 3.2.065.381.081.768.048 1.152zm38.304-17.2s-.368-.352-.928-1.056a30.792 30.792 0 01-2.128-3.2 42.166 42.166 0 01-5.68-24.256c.081-1.275.252-2.542.512-3.792a5.33 5.33 0 01.352-1.36c.144 0-.16 1.984-.272 5.184a47.72 47.72 0 005.6 24c1.504 2.768 2.672 4.384 2.544 4.48z" fill="#263238"/><path d="M298.544 412.448s-.208.08-.592.128a14.78 14.78 0 01-1.744.176 26.44 26.44 0 01-6.4-.512 45.575 45.575 0 01-9.104-2.848c-3.312-1.376-6.832-3.2-10.512-4.976A79.126 79.126 0 00259.52 400a36.235 36.235 0 00-9.184-1.808 29.817 29.817 0 00-8.592.976 1.96 1.96 0 01.56-.256 11.193 11.193 0 011.6-.56 21.935 21.935 0 016.4-.736c3.195.1 6.36.638 9.408 1.6a73.006 73.006 0 0110.784 4.448c3.696 1.824 7.184 3.616 10.448 5.008a48.915 48.915 0 008.928 2.976 39.83 39.83 0 008.672.8zm19.856-3.888a57.045 57.045 0 01-9.408 2.016 53.777 53.777 0 01-9.6 1.2 57 57 0 019.408-2.016 53.663 53.663 0 019.6-1.2zm-20.576 34.336c-.737.415-1.514.753-2.32 1.008-1.52.592-3.744 1.392-6.512 2.288a167.753 167.753 0 01-22.112 5.472 171.286 171.286 0 01-12.432 1.712c-3.406.44-6.848.531-10.272.272a17.606 17.606 0 01-6.656-1.904 10.547 10.547 0 01-1.6-1.024 2.457 2.457 0 01-.496-.448s.768.496 2.224 1.184a18.361 18.361 0 006.576 1.6c3.382.175 6.774.025 10.128-.448 3.824-.432 8-1.008 12.368-1.776a203.299 203.299 0 0022.08-5.2c2.784-.832 5.024-1.6 6.576-2.032.797-.295 1.616-.53 2.448-.704zm20.048 8.432a46.88 46.88 0 01-8.72.56 46.46 46.46 0 01-8.72-.272 46.875 46.875 0 018.72-.56 46.465 46.465 0 018.72.272zm-82.336 72.896c.019-.295.078-.586.176-.864.16-.64.384-1.424.64-2.4l.48-1.728c.208-.624.48-1.28.736-2a48.6 48.6 0 011.984-4.8l1.296-2.736c.464-.96 1.056-1.888 1.6-2.88a70.826 70.826 0 013.936-6.096 72.912 72.912 0 0124.912-21.68 70.037 70.037 0 016.592-3.056c1.072-.4 2.064-.864 3.072-1.184l2.896-.912a45.365 45.365 0 015.056-1.296c.752-.16 1.44-.336 2.08-.448l1.792-.24 2.464-.304a2.91 2.91 0 01.864 0 3.541 3.541 0 01-.848.208l-2.432.464-1.76.304-2.064.512c-1.472.4-3.2.736-4.976 1.408l-2.848.96c-.992.336-1.984.8-3.024 1.216a71.175 71.175 0 00-6.496 3.088 81.53 81.53 0 00-13.52 9.376 82.308 82.308 0 00-11.2 12.08c-1.44 2.08-2.864 4.032-3.952 6-.56.976-1.152 1.888-1.6 2.832l-1.344 2.688c-.912 1.696-1.472 3.328-2.08 4.8-.272.704-.56 1.36-.784 1.968l-.56 1.696-.784 2.352a3.33 3.33 0 01-.304.672zm80.239-49.152a28.81 28.81 0 00-6.56 8.256 39.798 39.798 0 00-3.68 10.864 112.772 112.772 0 00-1.6 14.064 100.956 100.956 0 01-1.6 14.16 39.134 39.134 0 01-4.016 10.96 24.11 24.11 0 01-4.8 6.16c-.524.486-1.086.93-1.68 1.328-.4.272-.624.416-.64.384a28.085 28.085 0 006.688-8.16 39.855 39.855 0 003.776-10.816 103.96 103.96 0 001.6-14.064c.208-4.756.743-9.493 1.6-14.176a39.042 39.042 0 013.904-10.976 24.814 24.814 0 014.8-6.24 16.164 16.164 0 011.6-1.344c.185-.159.389-.293.608-.4zm27.312 67.184c-.224 0 0-13.792.592-30.784.592-16.992 1.2-30.768 1.424-30.768.224 0 0 13.792-.592 30.8-.592 17.008-1.2 30.768-1.424 30.752zm43.425-2.368a10.555 10.555 0 01-.704-2 24.523 24.523 0 01-.656-2.4c-.208-.944-.496-2.016-.672-3.2a56.944 56.944 0 01-.848-8.544 60.028 60.028 0 013.2-20.72 57.692 57.692 0 013.376-7.904c.528-1.104 1.12-2.032 1.6-2.864.407-.724.855-1.424 1.344-2.096a9.517 9.517 0 011.264-1.696c.144.08-1.6 2.56-3.696 6.928a62.599 62.599 0 00-3.2 7.872 62.81 62.81 0 00-3.2 20.464c.036 2.833.256 5.66.656 8.464.8 4.768 1.696 7.648 1.536 7.696zm-73.745-176.832c0 .128-2.528-.976-6.688-2.32a75.95 75.95 0 00-33.6-2.976c-4.32.592-6.96 1.264-6.992 1.12a7.163 7.163 0 011.808-.592 46.29 46.29 0 015.088-1.104 68.03 68.03 0 0133.888 2.992 51.865 51.865 0 014.8 1.968 7.79 7.79 0 011.696.912zM439.168 430.4a43.573 43.573 0 01-5.937-.096 863.8 863.8 0 00-14.304-.464c-5.584-.128-10.639-.208-14.303-.24a44.557 44.557 0 01-5.936-.208 7.18 7.18 0 011.6-.192c1.024 0 2.512-.144 4.352-.192 3.664-.112 8.72-.144 14.32 0s10.656.432 14.4.736c1.824.144 3.295.272 4.319.4a7.097 7.097 0 011.489.256zm31.584-6.064c0 .144-2 .832-5.12 2.368a50.078 50.078 0 00-20 17.824c-1.888 2.928-2.8 4.88-2.928 4.8a4.59 4.59 0 01.512-1.44 32.679 32.679 0 011.92-3.696 44.44 44.44 0 018.736-10.576 45.237 45.237 0 0111.504-7.472 34.12 34.12 0 013.888-1.472c.479-.176.98-.289 1.488-.336zm-15.584-51.28a23.83 23.83 0 00-8.128 1.136 54.659 54.659 0 00-8.208 3.648 66.437 66.437 0 01-10.144 4.56 41.327 41.327 0 01-20.048 1.296c-2.01-.365-3.985-.9-5.904-1.6a10.617 10.617 0 01-2.064-.896c0-.16 3.008 1.104 8 1.92a42.973 42.973 0 0019.696-1.52 72.331 72.331 0 0010.064-4.448 50.55 50.55 0 018.368-3.52 18.85 18.85 0 016.08-.88c.536.016 1.071.069 1.6.16.496.064.704.112.688.144zm-7.984 107.232a8.372 8.372 0 01-1.856.88c-.608.256-1.36.56-2.256.848-.896.288-1.904.672-3.04.96a62.501 62.501 0 01-8.16 1.696 66.18 66.18 0 01-10.176.528 68.504 68.504 0 01-10.128-1.136 61.026 61.026 0 01-8-2.192c-1.136-.352-2.112-.784-2.976-1.136-.864-.352-1.6-.688-2.208-.976a9.598 9.598 0 01-1.808-.992c0-.144 2.704 1.136 7.184 2.544a66.851 66.851 0 008 1.984 65.968 65.968 0 0020.064.608 67.181 67.181 0 008.096-1.504c4.512-1.152 7.216-2.256 7.264-2.112zm36.767 47.36a3.262 3.262 0 01-.624-.512c-.368-.368-.976-.864-1.6-1.6a38.102 38.102 0 01-5.056-6.784 55.286 55.286 0 01-7.136-26.8 107.902 107.902 0 013.632-27.632c.864-3.456 1.6-6.24 2.192-8.144.272-.88.496-1.6.672-2.192.176-.592.256-.768.288-.752-.003.266-.046.53-.128.784-.128.608-.304 1.344-.512 2.24-.48 2.064-1.136 4.8-1.936 8.208a115.734 115.734 0 00-3.344 27.456 56.663 56.663 0 006.736 26.48 42.675 42.675 0 004.8 6.864c1.264 1.536 2.064 2.32 2.016 2.384zm58.224-54.336a31.551 31.551 0 00-8.464-4.8 68.086 68.086 0 00-10.24-2.672 113.554 113.554 0 01-12.8-2.928 52.544 52.544 0 01-20.272-12.192 48.443 48.443 0 01-4.8-5.392c-.528-.672-.88-1.232-1.136-1.6-.256-.368-.368-.576-.336-.592a20.11 20.11 0 011.728 1.984 55.734 55.734 0 004.944 5.168 54.296 54.296 0 0020.112 11.824 122.856 122.856 0 0012.656 2.976 65.584 65.584 0 0110.304 2.864 24.514 24.514 0 016.304 3.52c.524.393 1.016.827 1.472 1.296.4.352.56.528.528.544zm18.305-53.392a11.95 11.95 0 01-1.712-1.488c-.528-.496-1.168-1.104-1.968-1.776-.8-.672-1.6-1.472-2.688-2.24a73.395 73.395 0 00-7.424-5.264 74.538 74.538 0 00-20.416-8.736 76.812 76.812 0 00-8.944-1.744c-1.28-.208-2.448-.288-3.472-.384a58.113 58.113 0 00-2.64-.208 12.924 12.924 0 01-2.256-.208 10.917 10.917 0 012.256-.112 26.46 26.46 0 012.672 0c1.024 0 2.224.08 3.52.256 3.045.333 6.065.868 9.04 1.6a77.621 77.621 0 0110.688 3.584 75.993 75.993 0 019.952 5.248 68.791 68.791 0 017.408 5.456c1.024.816 1.856 1.6 2.624 2.368a25.848 25.848 0 011.872 1.888 10.784 10.784 0 011.488 1.76zm-140.001-73.44a11.919 11.919 0 01-3.04 1.456 55.042 55.042 0 01-7.76 2.4 55.735 55.735 0 01-8 1.28 11.197 11.197 0 01-3.36 0c0-.256 5.072-.672 11.2-2.128 6.128-1.456 10.864-3.248 10.96-3.008z" fill="#FFEEDF"/><path d="M477.232 571.824a4.447 4.447 0 01-7.197 4.592 4.436 4.436 0 01-1.347-2.144l-1.36-5.024h.208a4.644 4.644 0 01-.105 2.182 4.65 4.65 0 01-5.095 3.306c-2.096 0-3.904-3.056-4.512-4.672a8.708 8.708 0 01-8.128-3.904l-9.392-14.656-17.392-12.72L433.44 501.2l37.424 24.224c1.472 1.152 1.696 1.6 4.032 3.792l24.16 22.224c-2.736 1.6-5.056 1.52-8.864 0-3.808-1.52-20.48-12.8-20.48-12.8l7.52 33.04" fill="#FFBE9D"/><path d="M445.216 540.912s.432.192 1.104.656l1.248.864a7.55 7.55 0 011.6 1.344 6.96 6.96 0 011.28 2.16c.288.848.592 1.712.912 2.624l2.048 6.016c1.424 4.288 2.672 8.16 3.536 10.992a26.972 26.972 0 011.232 4.624 27.39 27.39 0 01-1.792-4.448 465.992 465.992 0 01-3.776-10.896c-.688-2.128-1.36-4.16-1.984-6.032-.288-.928-.56-1.808-.832-2.64a6.796 6.796 0 00-1.072-2.032 8.293 8.293 0 00-1.376-1.344l-1.152-.976c-.688-.544-1.008-.864-.976-.912zm22.511 29.2a7.218 7.218 0 01-.528-1.6l-1.2-4.288c-1.024-3.616-2.384-8.624-4.128-14.08-1.744-5.456-3.568-10.32-5.76-13.328a11.552 11.552 0 00-3.056-3.056c-.88-.544-1.44-.704-1.424-.8.148-.003.295.024.432.08a5.69 5.69 0 011.152.432 10.497 10.497 0 013.376 2.992c2.384 3.04 4.304 8 6.064 13.424 1.76 5.424 3.04 10.528 3.904 14.192a130.3 130.3 0 01.96 4.352c.154.546.224 1.113.208 1.68zm9.664 2.272a7.149 7.149 0 01-.656-1.68c-.4-1.28-.896-2.832-1.488-4.672-1.216-3.952-2.832-9.424-4.576-15.472-1.744-6.048-3.2-11.36-4.4-15.52a7.45 7.45 0 00-2.56-3.904 9.715 9.715 0 00-1.6-.832c.158-.038.323-.038.48 0 .449.101.877.279 1.264.528a7.52 7.52 0 012.928 3.984c1.312 3.952 2.864 9.424 4.64 15.472a706.808 706.808 0 014.352 15.552c.48 1.856.896 3.44 1.216 4.8a8.55 8.55 0 01.4 1.744z" fill="#EB996E"/><path d="M704.752 225.424a5.6 5.6 0 1011.202 0 5.6 5.6 0 00-11.202 0zm-16.816 5.6a5.6 5.6 0 100-11.2 5.6 5.6 0 000 11.2zm-27.951-8.4a5.602 5.602 0 003.047 8.105 5.599 5.599 0 006.824-7.78 5.607 5.607 0 00-2.223-2.373 5.591 5.591 0 00-4.25-.566 5.588 5.588 0 00-3.398 2.614z" fill="#455A64"/><path d="M687.584 160a7.477 7.477 0 00-1.12 0l-3.328.096c-.736 0-1.6 0-2.464.112l-2.928.416-3.424.496-3.84.944a61.894 61.894 0 00-18.544 8 65.596 65.596 0 00-30.08 49.216 69.84 69.84 0 00-.176 8.976c.112 1.504.08 3.056.304 4.576.224 1.52.464 3.072.688 4.624a65.833 65.833 0 006.24 18.256 70.227 70.227 0 0011.92 16.416 68.832 68.832 0 0017.184 12.336 62.412 62.412 0 0020.944 6.4c1.85.276 3.715.431 5.584.464 1.88.142 3.765.179 5.648.112a67.724 67.724 0 0011.296-1.424A66.217 66.217 0 00724 280.528l-.672.08 22.928 9.2 1.36.544-.384-1.408-6.752-24.512-.112.592a65.711 65.711 0 0012.24-28 59.866 59.866 0 00.896-14.4 48.465 48.465 0 00-.656-6.896c-.17-1.131-.346-2.251-.528-3.36-.192-1.104-.528-2.176-.8-3.2a65.594 65.594 0 00-25.6-37.296 62.824 62.824 0 00-15.216-8l-3.44-1.232-3.2-.832-2.976-.736c-.96-.176-1.888-.272-2.752-.416-1.728-.208-3.2-.512-4.592-.576l-3.36-.112h-2.064a4.865 4.865 0 00-.704 0c.228.072.466.105.704.096l2.048.176 3.344.224c1.328.096 2.832.432 4.56.688A65.246 65.246 0 01750.4 209.6c.24 1.056.576 2.112.768 3.2.192 1.088.32 2.176.496 3.296.367 2.238.57 4.5.608 6.768a59.154 59.154 0 01-.928 14.064 64.8 64.8 0 01-12.144 27.36l-.208.272.096.336a4587.413 4587.413 0 006.688 24.528l.976-.864-22.928-9.232-.352-.144-.336.208a64.33 64.33 0 01-33.056 10.656c-1.84.064-3.683.032-5.52-.096a41.037 41.037 0 01-5.456-.464 61.14 61.14 0 01-20.48-6.256 67.984 67.984 0 01-16.832-12.048 69.034 69.034 0 01-11.712-16A64.975 64.975 0 01624 237.28c-.24-1.6-.48-3.024-.704-4.528-.224-1.504-.192-3.008-.304-4.496a67.126 67.126 0 01.128-8.8 64.79 64.79 0 0129.296-48.624 62.415 62.415 0 0118.256-8.224l3.776-1.008 3.392-.56 2.912-.48c.896-.096 1.712-.128 2.432-.176l3.312-.24c.367-.01.732-.058 1.088-.144z" fill="#455A64"/></g><defs><clipPath id="clip0_27603_7647"><path fill="#fff" d="M0 0h1200v800H0z"/></clipPath></defs></svg>