<svg width="80" height="80" viewBox="0 0 80 80" fill="none" xmlns="http://www.w3.org/2000/svg"><path d="M7.272 7.5a2.213 2.213 0 00-1.728.804 2.37 2.37 0 00-.515 1.883l9.52 59.684c.245 1.508 1.503 2.616 2.984 2.629h45.675c1.11.015 2.065-.813 2.242-1.946l9.521-60.356a2.37 2.37 0 00-.515-1.883 2.213 2.213 0 00-1.728-.803L7.272 7.5zm40.09 43.136H32.784L28.836 29.34h22.059l-3.533 21.296z" fill="#2684FF"/><path fill-rule="evenodd" clip-rule="evenodd" d="M71.943 29.34H50.895l-3.533 21.297H32.784L15.57 71.736a2.984 2.984 0 001.963.764h45.686c1.11.015 2.065-.813 2.243-1.945l6.481-41.214z" fill="url(#paint0_linear_1334_2842)"/><defs><linearGradient id="paint0_linear_1334_2842" x1="76.81" y1="35.305" x2="51.44" y2="70.188" gradientUnits="userSpaceOnUse"><stop offset=".18" stop-color="#0052CC"/><stop offset="1" stop-color="#2684FF"/></linearGradient></defs></svg>