<svg width="80" height="80" viewBox="0 0 80 80" fill="none" xmlns="http://www.w3.org/2000/svg"><path fill-rule="evenodd" clip-rule="evenodd" d="M12.176 55.804c-.62 1.053-1.318 2.275-1.91 3.249-.53.931-.245 2.133.64 2.702l12.41 7.948c.437.28.962.367 1.46.24a1.917 1.917 0 001.185-.915c.497-.865 1.137-1.987 1.833-3.19 4.917-8.445 9.862-7.411 18.779-2.98l12.306 6.09a1.842 1.842 0 001.486.069c.484-.188.874-.57 1.082-1.062l5.91-13.91c.417-.993-.008-2.152-.955-2.603a1474.508 1474.508 0 01-12.411-6.14c-16.726-8.455-30.941-7.909-41.815 10.502z" fill="url(#paint0_linear_1334_2766)"/><path fill-rule="evenodd" clip-rule="evenodd" d="M67.824 24.239c.62-1.053 1.318-2.276 1.91-3.25.53-.93.245-2.133-.64-2.702L56.683 10.34a1.848 1.848 0 00-1.497-.288 1.919 1.919 0 00-1.224.944c-.496.864-1.136 1.987-1.833 3.189-4.916 8.445-9.862 7.412-18.779 2.98l-12.267-6.06a1.841 1.841 0 00-1.486-.068c-.484.187-.874.57-1.082 1.062l-5.91 13.91c-.417.993.008 2.151.955 2.602a1501.25 1501.25 0 0112.41 6.14c16.765 8.446 30.98 7.88 41.854-10.511z" fill="url(#paint1_linear_1334_2766)"/><defs><linearGradient id="paint0_linear_1334_2766" x1="67.022" y1="73.807" x2="52.166" y2="41.059" gradientUnits="userSpaceOnUse"><stop offset=".18" stop-color="#0052CC"/><stop offset="1" stop-color="#2684FF"/></linearGradient><linearGradient id="paint1_linear_1334_2766" x1="12.978" y1="6.226" x2="27.857" y2="38.989" gradientUnits="userSpaceOnUse"><stop offset=".18" stop-color="#0052CC"/><stop offset="1" stop-color="#2684FF"/></linearGradient></defs></svg>