<svg width="80" height="80" viewBox="0 0 80 80" fill="none" xmlns="http://www.w3.org/2000/svg"><path d="M5 29c0-8.4 0-12.601 1.635-15.81a15 15 0 016.555-6.555C16.4 5 20.6 5 29 5h22c8.4 0 12.601 0 15.81 1.635a15 15 0 016.555 6.555C75 16.4 75 20.6 75 29v22c0 8.4 0 12.601-1.635 15.81a15 15 0 01-6.555 6.555C63.6 75 59.4 75 51 75H29c-8.4 0-12.601 0-15.81-1.635a15 15 0 01-6.555-6.555C5 63.6 5 59.4 5 51V29z" fill="url(#paint0_linear_1334_2840)"/><path d="M60.688 25.067c-3.784-3.2-8.326-4.8-13.12-5.067l-.756.8c4.289 1.067 8.073 3.2 11.605 6.133-4.289-2.4-9.082-4-14.128-4.533-1.514-.267-2.775-.267-4.289-.267-1.514 0-2.775 0-4.289.267-5.046.533-9.84 2.133-14.128 4.533C25.115 24 28.899 21.867 33.188 20.8l-.757-.8c-4.793.267-9.335 1.867-13.12 5.067-4.288 8.533-6.559 18.133-6.811 28C16.284 57.333 21.583 60 27.133 60c0 0 1.766-2.133 3.028-4-3.28-.8-6.308-2.667-8.326-5.6 1.766 1.067 3.532 2.133 5.298 2.933 2.27 1.067 4.541 1.6 6.812 2.134 2.018.266 4.037.533 6.055.533s4.037-.267 6.055-.533c2.27-.534 4.541-1.067 6.812-2.134 1.766-.8 3.532-1.866 5.298-2.933-2.018 2.933-5.046 4.8-8.325 5.6 1.26 1.867 3.027 4 3.027 4 5.55 0 10.849-2.667 14.633-6.933-.252-9.867-2.523-19.467-6.812-28zm-29.014 23.2c-2.523 0-4.793-2.4-4.793-5.334 0-2.933 2.27-5.333 4.793-5.333s4.794 2.4 4.794 5.333c0 2.934-2.27 5.334-4.794 5.334zm16.652 0c-2.523 0-4.794-2.4-4.794-5.334 0-2.933 2.27-5.333 4.794-5.333 2.523 0 4.793 2.4 4.793 5.333 0 2.934-2.27 5.334-4.793 5.334z" fill="#fff"/><defs><linearGradient id="paint0_linear_1334_2840" x1="40" y1="5" x2="40" y2="75" gradientUnits="userSpaceOnUse"><stop stop-color="#687EC9"/><stop offset="1" stop-color="#5971C3"/></linearGradient></defs></svg>