<svg width="80" height="80" viewBox="0 0 80 80" fill="none" xmlns="http://www.w3.org/2000/svg"><circle cx="40" cy="40" r="35" fill="#00A82D"/><path d="M31.75 27.61c0 .449-.036 1.195-.473 1.68-.473.448-1.2.485-1.637.485-2.456 0-5.862-.617-8.185.336C25 23.75 31.867 19.523 31.823 19.888c-.327 2.517-.073 5.191-.073 7.723zm7.348 28.879c0-3.097 2.474-5.634 5.53-5.634.91 0 1.637.746 1.637 1.679 0 .634-.328 1.157-.837 1.455-.555.341-1.323.182-1.819.634-.364.299-.655.784-.655 1.306 0 .56.219 1.082.582 1.455a3.42 3.42 0 002.474 1.045c2.474 0 4.475-2.052 4.475-4.59 0-2.275-1.492-4.29-3.456-5.185-2.982-1.53-7.543-.66-7.894-5.448-.547 2.533-1.753 7.052-5.02 7.052-9.87.601-13.427-7.393-14.115-15.857 0-1.828 1.091-3.06 2.474-3.246h7.42c1.274 0 2.002-.335 2.474-.783.619-.597.764-1.455.764-2.463v-7.872c0-1.584 1.383-2.537 3.165-2.537 1.05 0 2.036.037 3.056.299 2.219.56 2.692 2.872 2.692 2.872s4.183.747 6.293 1.12c2.001.373 6.948.709 7.894 5.82 2.22 12.163.873 23.953.764 23.953C55.432 63.055 46.12 62.496 46.12 62.496c-3.385 0-7.02-2.31-7.02-6.007zm10.914-19.812c-1.2-.112-2.22.373-2.583 1.306-.516 1.322 4.802 2.421 4.802.597-.146-1.045-1.019-1.753-2.22-1.903z" fill="#fff"/></svg>