<svg width="80" height="80" viewBox="0 0 80 80" fill="none" xmlns="http://www.w3.org/2000/svg"><path fill-rule="evenodd" clip-rule="evenodd" d="M40 40c0-6.213 5.037-11.25 11.25-11.25S62.5 33.787 62.5 40s-5.037 11.25-11.25 11.25S40 46.213 40 40z" fill="#1ABCFE"/><path fill-rule="evenodd" clip-rule="evenodd" d="M17.5 62.5c0-6.213 5.037-11.25 11.25-11.25H40V62.5c0 6.213-5.037 11.25-11.25 11.25S17.5 68.713 17.5 62.5z" fill="#0ACF83"/><path fill-rule="evenodd" clip-rule="evenodd" d="M40 6.25v22.5h11.25c6.213 0 11.25-5.037 11.25-11.25S57.463 6.25 51.25 6.25H40z" fill="#FF7262"/><path fill-rule="evenodd" clip-rule="evenodd" d="M17.5 17.5c0 6.213 5.037 11.25 11.25 11.25H40V6.25H28.75c-6.213 0-11.25 5.037-11.25 11.25z" fill="#F24E1E"/><path fill-rule="evenodd" clip-rule="evenodd" d="M17.5 40c0 6.213 5.037 11.25 11.25 11.25H40v-22.5H28.75c-6.213 0-11.25 5.037-11.25 11.25z" fill="#A259FF"/></svg>