<svg width="80" height="80" viewBox="0 0 80 80" fill="none" xmlns="http://www.w3.org/2000/svg"><g filter="url(#filter0_d_1334_2769)"><path d="M5 29.889c0-8.712 0-13.068 1.695-16.396a15.555 15.555 0 016.798-6.798C16.822 5 21.177 5 29.89 5h20.22c8.712 0 13.068 0 16.396 1.695a15.555 15.555 0 016.797 6.798C75 16.822 75 21.177 75 29.89v20.22c0 8.712 0 13.068-1.695 16.396a15.554 15.554 0 01-6.799 6.797C63.18 75 58.824 75 50.112 75H29.89c-8.712 0-13.068 0-16.396-1.695a15.555 15.555 0 01-6.798-6.799C5 63.18 5 58.824 5 50.112V29.89z" fill="#fff"/><path d="M61.231 15h-8.128v11.778h11.894v-8.457c.003 0-.588-3-3.766-3.321zm-8.125 49.945V65L65 53.222h-.106L53.106 64.945z" fill="#1967D2"/><path d="M65 53.222v-.106l-.106.106h.105zm0-26.444H53.106v26.338H65V26.778z" fill="#FBBC05"/><path d="M64.894 53.222H53.106v11.723l11.788-11.723zm-11.788 0h11.788l.106-.106H53.106v.106z" fill="#EA4335"/><path d="M53.077 64.974h.029v-.029l-.029.03z" fill="#34A853"/><path d="M26.625 53.116v11.859h26.452l.03-11.859H26.624z" fill="#34A853"/><path d="M53.106 53.222v-.106l-.029 11.859.029-.03V53.223z" fill="#34A853"/><path d="M15 53.116v8.245c.107 2.676 3 3.614 3 3.614h8.626V53.116H15z" fill="#188038"/><path d="M26.626 26.778h26.48V15h-34.77s-3.123.321-3.336 3.64v34.476h11.626V26.778z" fill="#4285F4"/><path d="M35.289 47.785c-.606 0-1.19-.079-1.753-.236a5.227 5.227 0 01-1.514-.71 5.545 5.545 0 01-1.234-1.227 5.62 5.62 0 01-.8-1.7l2.661-1.055c.188.718.505 1.263.952 1.636.447.358 1.01.538 1.688.538.303 0 .591-.043.865-.13.274-.1.512-.236.714-.408.202-.172.36-.373.476-.603a1.71 1.71 0 00.195-.818c0-.63-.238-1.126-.714-1.485-.462-.358-1.104-.538-1.926-.538h-1.276v-2.56h1.168c.289 0 .57-.036.844-.108.274-.072.512-.18.714-.323.216-.158.382-.351.498-.58a1.76 1.76 0 00.194-.84c0-.488-.173-.882-.519-1.184-.346-.315-.815-.473-1.406-.473-.635 0-1.125.172-1.472.516-.331.33-.562.703-.692 1.12l-2.596-1.055c.13-.359.324-.725.584-1.098.26-.387.584-.731.973-1.033a4.874 4.874 0 011.407-.753c.533-.2 1.147-.301 1.839-.301.707 0 1.349.1 1.926.301.591.201 1.096.48 1.514.84.419.344.743.76.974 1.248.23.473.346.99.346 1.55 0 .43-.058.817-.173 1.161a3.612 3.612 0 01-.411.926 3.228 3.228 0 01-1.277 1.162v.172a3.84 3.84 0 011.71 1.313c.461.602.692 1.362.692 2.28a4.31 4.31 0 01-.368 1.787c-.245.53-.599.997-1.06 1.399-.447.401-.988.71-1.623.925-.634.23-1.341.344-2.12.344zm10.338-.345V36.036l-2.618 1.098-1.039-2.389 4.35-2.023h2.141v14.72h-2.834z" fill="#4285F4"/></g><defs><filter id="filter0_d_1334_2769" x="-2" y="-1" width="84" height="84" filterUnits="userSpaceOnUse" color-interpolation-filters="sRGB"><feFlood flood-opacity="0" result="BackgroundImageFix"/><feColorMatrix in="SourceAlpha" values="0 0 0 0 0 0 0 0 0 0 0 0 0 0 0 0 0 0 127 0" result="hardAlpha"/><feOffset dy="1"/><feGaussianBlur stdDeviation="1"/><feComposite in2="hardAlpha" operator="out"/><feColorMatrix values="0 0 0 0 0.0627451 0 0 0 0 0.0941176 0 0 0 0 0.156863 0 0 0 0.05 0"/><feBlend in2="BackgroundImageFix" result="effect1_dropShadow_1334_2769"/><feBlend in="SourceGraphic" in2="effect1_dropShadow_1334_2769" result="shape"/></filter></defs></svg>