<svg width="80" height="80" viewBox="0 0 80 80" fill="none" xmlns="http://www.w3.org/2000/svg"><g filter="url(#filter0_d_1334_2592)"><path d="M5 29.889c0-8.712 0-13.068 1.695-16.396a15.555 15.555 0 016.798-6.798C16.822 5 21.177 5 29.89 5h20.22c8.712 0 13.068 0 16.396 1.695a15.555 15.555 0 016.797 6.798C75 16.822 75 21.177 75 29.89v20.22c0 8.712 0 13.068-1.695 16.396a15.554 15.554 0 01-6.799 6.797C63.18 75 58.824 75 50.112 75H29.89c-8.712 0-13.068 0-16.396-1.695a15.555 15.555 0 01-6.798-6.799C5 63.18 5 58.824 5 50.112V29.89z" fill="#fff"/><path d="M40.005 31.128l-8.652-15.27c.287-.292.618-.484.948-.613-2.551.84-3.722 3.705-3.722 3.705L12.773 46.837a8.19 8.19 0 00-.256 2.36h17.251l10.237-18.07z" fill="#34A853"/><path d="M40.005 31.128l10.237 18.068h17.252a8.19 8.19 0 00-.257-2.359L51.431 18.95s-1.174-2.865-3.722-3.705c.327.13.66.32.948.613l-8.652 15.27z" fill="#FBBC05"/><path d="M40.005 31.128l8.652-15.27a2.698 2.698 0 00-.948-.613 4.674 4.674 0 00-1.22-.226H33.52c-.436.018-.843.1-1.22.226-.328.129-.661.32-.949.613l8.653 15.27z" fill="#188038"/><path d="M29.771 49.196l-8.553 15.097s-.285-.139-.67-.425C21.76 64.802 22.94 65 22.94 65h33.593c1.853 0 2.24-.707 2.24-.707l.015-.01-8.547-15.087H29.77z" fill="#4285F4"/><path d="M29.772 49.196H12.52c.087 2.05.976 3.25.976 3.25l.649 1.125.074.104 1.412 2.478L18.8 61.67c.093.223.2.427.315.622.043.066.083.139.13.202l.037.056c.392.554.83.982 1.27 1.318.386.29.67.425.67.425l8.55-15.097z" fill="#1967D2"/><path d="M50.242 49.196h17.252c-.087 2.05-.977 3.25-.977 3.25l-.648 1.125-.074.104-1.412 2.478-3.17 5.517c-.092.223-.2.427-.314.622-.044.066-.084.139-.13.202l-.037.056a6.052 6.052 0 01-1.27 1.318c-.386.29-.67.425-.67.425l-8.55-15.097z" fill="#EA4335"/></g><defs><filter id="filter0_d_1334_2592" x="-2" y="-1" width="84" height="84" filterUnits="userSpaceOnUse" color-interpolation-filters="sRGB"><feFlood flood-opacity="0" result="BackgroundImageFix"/><feColorMatrix in="SourceAlpha" values="0 0 0 0 0 0 0 0 0 0 0 0 0 0 0 0 0 0 127 0" result="hardAlpha"/><feOffset dy="1"/><feGaussianBlur stdDeviation="1"/><feComposite in2="hardAlpha" operator="out"/><feColorMatrix values="0 0 0 0 0.0627451 0 0 0 0 0.0941176 0 0 0 0 0.156863 0 0 0 0.05 0"/><feBlend in2="BackgroundImageFix" result="effect1_dropShadow_1334_2592"/><feBlend in="SourceGraphic" in2="effect1_dropShadow_1334_2592" result="shape"/></filter></defs></svg>