<svg width="80" height="80" viewBox="0 0 80 80" fill="none" xmlns="http://www.w3.org/2000/svg"><circle cx="40" cy="40" r="35" fill="#3290E8"/><path fill-rule="evenodd" clip-rule="evenodd" d="M55 20H25c-2.726-.004-4.995 2.28-5 5v30a5 5 0 005 5h30c2.726.004 4.995-2.28 5-5V25a5 5 0 00-5-5zm-9.668 7.333a1.335 1.335 0 012.668 0v17.815c0 .735-.598 1.333-1.333 1.333-.706 0-1.332-.625-1.334-1.333V27.333zm-6.666-.674a1.334 1.334 0 012.668 0v19.333c0 .737-.598 1.334-1.334 1.334-.706 0-1.332-.626-1.333-1.334l-.001-19.333zM32 27.333a1.335 1.335 0 012.667 0v17.815c0 .735-.597 1.333-1.334 1.333-.706 0-1.331-.625-1.333-1.333V27.333zM25.333 30A1.333 1.333 0 1128 30v11.992c0 .737-.598 1.334-1.333 1.334a1.347 1.347 0 01-1.334-1.334V30zm28.869 20.338c-.205.178-5.145 4.32-14.202 4.32-9.056 0-13.993-4.144-14.202-4.321a1.346 1.346 0 01-.143-1.88c.46-.535 1.338-.604 1.875-.146.078.066 4.489 3.681 12.469 3.681 8.08 0 12.423-3.642 12.465-3.678.537-.46 1.418-.394 1.88.144.475.55.41 1.408-.142 1.88zm.465-8.345c0 .736-.598 1.334-1.334 1.334A1.347 1.347 0 0152 41.993V30a1.333 1.333 0 112.667 0v11.993z" fill="#fff"/></svg>