<svg width="80" height="80" viewBox="0 0 80 80" fill="none" xmlns="http://www.w3.org/2000/svg"><circle cx="40" cy="40" r="35" fill="#F36"/><path d="M28.398 27.148a4.375 4.375 0 100-8.75 4.375 4.375 0 000 8.75zm-9.14 3.75l-1.524 5.586h5c-1.002 4.076-3.101 12.649-3.476 14.336-.469 2.11-.547 8.125 5.781 8.125 4.417 0 7.234-2.853 8.806-5.183l-1.189 4.754h7.11l3.71-15.02c.528-2.5 1.77-7.324 6.25-7.324 5.33 0 3.375 6.311 2.417 9.404l-.112.361c-.718 2.344-1.484 5.079-1.484 6.954 0 2.109.976 6.054 6.445 6.054s7.8-5.416 8.281-8.125L62.5 49.687c-.195 1.446-1.953 4.57-3.594 4.57-2.246 0-1.117-3.786.087-7.827.533-1.792 1.082-3.635 1.359-5.22.698-4.005 0-10.82-6.954-10.82-4.318 0-7.71 3.849-9.322 6.52l1.354-6.012H34.61l-1.485 5.586h5.04s-2.991 12.187-3.184 12.569c-2.032 4.013-5.104 5.36-7.403 5.205-1.844-.125-1.627-2.344-1.289-3.438l5-19.922H19.258z" fill="#fff"/></svg>