<svg width="80" height="80" viewBox="0 0 80 80" fill="none" xmlns="http://www.w3.org/2000/svg"><path d="M74.162 38.041L43.019 7.92 40 5 16.557 27.674 5.838 38.041a2.708 2.708 0 000 3.918l21.418 20.715L40 75l23.443-22.674.363-.351 10.356-10.016a2.708 2.708 0 000-3.918zM40 50.35L29.3 40 40 29.651 50.7 40 40 50.349z" fill="#2684FF"/><path fill-rule="evenodd" clip-rule="evenodd" d="M40 29.651c-7.005-6.776-7.039-17.751-.076-24.568L16.509 27.72l12.744 12.326L40 29.651z" fill="url(#paint0_linear_1334_2594)"/><path fill-rule="evenodd" clip-rule="evenodd" d="M50.728 39.973L40 50.349c3.381 3.268 5.28 7.702 5.28 12.326 0 4.623-1.899 9.057-5.28 12.325l23.472-22.702-12.744-12.325z" fill="url(#paint1_linear_1334_2594)"/><defs><linearGradient id="paint0_linear_1334_2594" x1="38.09" y1="19.183" x2="20.242" y2="26.976" gradientUnits="userSpaceOnUse"><stop offset=".18" stop-color="#0052CC"/><stop offset="1" stop-color="#2684FF"/></linearGradient><linearGradient id="paint1_linear_1334_2594" x1="42.044" y1="60.697" x2="59.86" y2="52.96" gradientUnits="userSpaceOnUse"><stop offset=".18" stop-color="#0052CC"/><stop offset="1" stop-color="#2684FF"/></linearGradient></defs></svg>