<svg width="80" height="80" viewBox="0 0 80 80" fill="none" xmlns="http://www.w3.org/2000/svg"><path d="M40 5C20.695 5 5 20.695 5 40s15.695 35 35 35 35-15.695 35-35S59.305 5 40 5z" fill="#FDDD4C"/><path d="M24.672 49.125c-.765-1.158 1.16-2.912.377-4.384-.452-.85-1.19-1.379-2.075-1.49-.85-.106-1.726.205-2.285.813-.881.96-1.018 2.265-.848 2.727.063.17.16.216.231.226.48.063.75-1.17.916-1.426.458-.707 1.499-.921 2.218-.456 1.362.881.18 2.306.283 3.509.099 1.171.829 1.642 1.484 1.691.637.025 1.083-.33 1.196-.588.27-.617-.867.332-1.497-.622zM53.144 38.49a4.557 4.557 0 00-1.154 0c-.309-.39-.585-1.02-.741-1.756-.278-1.309-.249-2.257.526-2.38.774-.124 1.149.668 1.426 1.977.186.88.15 1.689-.057 2.159zm-8.483.778c.031.297.042.597.033.873.75.044 1.28.4 1.422.626.072.116.043.192.02.227-.078.121-.244.102-.592.063a6.145 6.145 0 00-.972-.048c-.186.568-.735.621-1.12.2-.27.083-.8.421-.958.054-.001-.183.19-.448.535-.682a5.077 5.077 0 01-.487-1.43c-.49.089-.93.226-1.276.333-.162.051-.803.34-.878.014-.05-.225.3-.597.672-.865a4.055 4.055 0 011.351-.625c-.01-.71.171-1.205.687-1.287.64-.102 1.036.39 1.31 1.302.773.215 1.545.748 1.886 1.298.133.214.158.379.073.465-.215.222-1.401-.421-1.706-.518zm5.083 3.192c.49.237 1.03.144 1.206-.21.176-.353-.08-.831-.57-1.069-.49-.237-1.03-.144-1.205.21-.176.352.079.83.57 1.069zm2.414-1.754c.009-.54.34-.971.738-.965.398.008.713.45.704.99-.009.538-.34.97-.738.963-.398-.007-.713-.449-.704-.988z" fill="#000"/><path fill-rule="evenodd" clip-rule="evenodd" d="M62.946 47.32c-.003-.01.008.028 0 0 .8 0 2.054.907 2.054 3.097 0 2.179-.916 4.647-1.132 5.195-3.3 7.806-11.175 12.15-20.556 11.876-8.745-.257-16.204-4.812-19.468-12.238-1.974.002-4.008-.855-5.555-2.208-1.63-1.425-2.636-3.27-2.832-5.194-.152-1.498.034-2.892.51-4.107l-1.834-1.533c-8.389-6.992 17.85-35.779 26.24-28.554.043.036 2.855 2.76 2.862 2.766 4.046-1.695 14.887-4.924 14.9 2.592.004 2.496-1.608 5.407-4.19 8.047 2.984 2.732 2.197 6.612 2.673 10.172l1.036.284c1.976.547 3.381 1.276 4.069 1.989.687.712 1.028 1.401 1.152 2.21.116.652.1 1.804-.771 3.092.313.83.6 1.66.842 2.514zm-39.25 5.905c.293.007.584-.012.869-.06 3.066-.516 3.868-3.803 3.363-7.03-.57-3.645-3.068-4.93-4.763-5.02a5.24 5.24 0 00-1.27.088c-3.026.602-4.734 3.143-4.397 6.443.304 2.986 3.364 5.504 6.198 5.58zM16.844 42.1c1.015-1.456 2.674-2.508 4.557-2.87 2.397-6.352 6.4-12.204 11.698-16.23 3.931-3.238 8.172-5.56 8.172-5.56s-2.284-2.614-2.974-2.806c-4.242-1.13-13.404 5.106-19.255 13.347-2.367 3.334-5.756 9.24-4.135 12.276.2.376 1.33 1.343 1.937 1.843zm34.395 9.668a.165.165 0 01-.097.163s-3.41 1.566-8.824-.087c.195 1.622 2.163 2.238 3.538 2.46 6.71 1.14 12.983-2.647 14.395-3.601.242-.164-.003.257-.047.319-1.729 2.2-6.376 4.75-12.421 4.748-2.637 0-5.272-.917-6.24-2.326-1.5-2.186-.074-5.377 2.428-5.045 4.229.472 8.564.118 12.478-1.676 3.414-1.564 4.703-3.285 4.51-4.678-.302-2.16-3.504-2.498-5.123-3.023-.704-.23-1.051-.414-1.13-1.722-.035-.57-.135-2.563-.172-3.386-.065-1.443-.24-3.415-1.48-4.229a2.095 2.095 0 00-1.06-.334 1.935 1.935 0 00-.628.06c-.67.113-1.08.451-1.563.85l-.084.07c-1.546 1.271-2.85 1.48-4.303 1.418-.452-.02-.918-.064-1.41-.112-.452-.044-.926-.09-1.43-.12l-.617-.034c-2.431-.124-5.039 1.949-5.472 4.892-.485 3.286 1.352 5.298 2.546 6.607.295.324.551.604.723.85.11.149.239.358.239.557 0 .237-.156.425-.309.586-2.48 2.518-3.274 6.519-2.34 9.853.118.416.266.814.441 1.194 2.193 5.06 8.998 7.415 15.644 5.273 4.658-1.502 8.773-5.131 9.611-10.138.2-1.304-.094-1.808-.492-2.051-.423-.257-.929-.168-.929-.168s-.23-1.558-.884-2.975c-1.937 1.51-4.431 2.57-6.33 3.107-3.043.862-6.329 1.197-9.473.791-1.275-.165-2.132-.275-2.499.902 4.194 1.516 8.632.867 8.632.867a.156.156 0 01.172.138zm-12.1-29.415c-2.293 1.158-4.853 3.22-6.933 5.593-.073.085.036.201.126.136 1.797-1.29 4.26-2.489 7.485-3.265 3.614-.87 7.093-.505 9.218-.025.108.025.174-.157.08-.21-1.404-.777-3.56-1.305-5.089-1.316a.092.092 0 01-.072-.147 5.17 5.17 0 01.957-.948c.074-.057.03-.175-.064-.17-1.902.116-6.246 2.097-6.23 2.025.11-.528.462-1.226.643-1.551.044-.077-.041-.162-.12-.122z" fill="#000"/></svg>