<svg width="80" height="80" viewBox="0 0 80 80" fill="none" xmlns="http://www.w3.org/2000/svg"><path fill-rule="evenodd" clip-rule="evenodd" d="M14.29 73.044l-8.598-10.71A14.383 14.383 0 012.5 53.325V14.537c0-4.885 3.909-8.94 8.952-9.284L51.33 2.53a12.998 12.998 0 018.157 2.182l14.011 9.473c2.508 1.695 4.002 4.467 4.002 7.426v44.097c0 4.781-3.844 8.74-8.78 9.044l-44.262 2.725c-3.94.242-7.748-1.418-10.168-4.433z" fill="#fff"/><path d="M28.12 33.947v-.508c0-1.288 1.031-2.355 2.36-2.444l9.678-.646 13.385 19.71V32.76l-3.446-.46v-.24c0-1.303 1.055-2.377 2.4-2.446l8.807-.451v1.267c0 .595-.442 1.104-1.049 1.206l-2.119.359v28.014l-2.66.915c-2.221.764-4.695-.054-5.967-1.974L36.515 39.343v18.714l4 .766-.056.37c-.175 1.163-1.178 2.041-2.392 2.095l-9.947.443c-.131-1.25.805-2.367 2.097-2.503l1.309-.138V34.138l-3.406-.191z" fill="#000"/><path fill-rule="evenodd" clip-rule="evenodd" d="M51.687 7.417L11.81 10.139c-2.389.164-4.24 2.084-4.24 4.398v38.787c0 2.175.748 4.288 2.127 6.006l8.598 10.712c1.39 1.731 3.578 2.685 5.842 2.546l44.26-2.725c2.27-.14 4.035-1.958 4.035-4.155V21.61c0-1.359-.686-2.632-1.839-3.412l-14.01-9.473a7.799 7.799 0 00-4.895-1.308zm-37.9 7.725c-.556-.41-.292-1.266.405-1.316l37.763-2.709a5.196 5.196 0 013.372.935l7.577 5.368c.288.204.153.644-.203.663L22.71 20.258a5.191 5.191 0 01-3.367-1.002l-5.557-4.114zm7.047 11.934c0-1.299 1.05-2.372 2.392-2.445l42.282-2.303c1.308-.07 2.409.935 2.409 2.201v38.184c0 1.297-1.046 2.369-2.386 2.445l-42.014 2.39c-1.456.083-2.683-1.035-2.683-2.445V27.077z" fill="#000"/></svg>