<svg width="80" height="80" viewBox="0 0 80 80" fill="none" xmlns="http://www.w3.org/2000/svg"><path d="M66.25 37.5A6.25 6.25 0 1060 31.25v6.25h6.25zm-17.5 0A6.25 6.25 0 0055 31.25v-17.5a6.25 6.25 0 10-12.5 0v17.5a6.25 6.25 0 006.25 6.25z" fill="#2EB67D"/><path d="M13.75 42.5A6.25 6.25 0 1020 48.75V42.5h-6.25zm17.5 0A6.25 6.25 0 0025 48.75v17.5a6.25 6.25 0 1012.5 0v-17.5a6.25 6.25 0 00-6.25-6.25z" fill="#E01E5A"/><path d="M42.5 66.25A6.25 6.25 0 1048.75 60H42.5v6.25zm0-17.5A6.25 6.25 0 0048.75 55h17.5a6.25 6.25 0 100-12.5h-17.5a6.25 6.25 0 00-6.25 6.25z" fill="#ECB22E"/><path d="M37.5 13.75A6.25 6.25 0 1031.25 20h6.25v-6.25zm0 17.5A6.25 6.25 0 0031.25 25h-17.5a6.25 6.25 0 100 12.5h17.5a6.25 6.25 0 006.25-6.25z" fill="#36C5F0"/></svg>