<svg width="80" height="80" viewBox="0 0 80 80" fill="none" xmlns="http://www.w3.org/2000/svg"><path d="M7.18 15.92C5 20.198 5 25.8 5 37v6c0 11.201 0 16.802 2.18 21.08a19.999 19.999 0 008.74 8.74C20.198 75 25.8 75 37 75h6c11.201 0 16.802 0 21.08-2.18a19.999 19.999 0 008.74-8.74C75 59.802 75 54.2 75 43v-6c0-11.201 0-16.802-2.18-21.08a19.999 19.999 0 00-8.74-8.74C59.802 5 54.2 5 43 5h-6C25.799 5 20.198 5 15.92 7.18a20 20 0 00-8.74 8.74z" fill="url(#paint0_linear_1334_2596)"/><path d="M5.663 20.699C5 24.467 5 29.467 5 36.999v6c0 11.202 0 16.802 2.18 21.08a20 20 0 008.74 8.74C20.198 75 25.8 75 37 75h6c11.201 0 16.802 0 21.08-2.18a20 20 0 008.74-8.74C75 59.801 75 54.201 75 43v-6c0-11.2 0-16.8-2.18-21.08a20 20 0 00-8.35-8.535L5.663 20.699z" fill="url(#paint1_linear_1334_2596)"/><path d="M74.276 59.635c-.322 1.69-.786 3.13-1.456 4.444a20 20 0 01-8.74 8.74c-4.15 2.115-9.545 2.179-20.09 2.18h-3.843v-7.907l34.129-7.457z" fill="url(#paint2_linear_1334_2596)"/><path d="M43 5h-6c-2.18 0-4.146 0-5.933.016v9.91l33.396-7.545a19.924 19.924 0 00-.383-.201C61.705 5.97 58.922 5.43 55 5.192 51.857 5 47.983 5 43 5z" fill="url(#paint3_linear_1334_2596)"/><path d="M75 43.433c0 7.514-.014 12.467-.724 16.202l-11.87 2.593V44.54L75 41.61v1.823z" fill="url(#paint4_linear_1334_2596)"/><path fill-rule="evenodd" clip-rule="evenodd" d="M37.352 33.445c0-1.607 1.314-2.225 3.49-2.225 3.12 0 7.06.948 10.18 2.637v-9.682c-3.407-1.36-6.773-1.895-10.18-1.895-8.333 0-13.875 4.367-13.875 11.66 0 11.37 15.599 9.557 15.599 14.46 0 1.894-1.642 2.512-3.94 2.512-3.408 0-7.76-1.4-11.208-3.295v9.805c3.818 1.648 7.677 2.348 11.207 2.348 8.538 0 14.409-4.244 14.409-11.618-.041-12.277-15.681-10.093-15.681-14.707z" fill="#fff"/><defs><linearGradient id="paint0_linear_1334_2596" x1="5" y1="5" x2="27.992" y2="21.255" gradientUnits="userSpaceOnUse"><stop stop-color="#392993"/><stop offset="1" stop-color="#4B47B9"/></linearGradient><linearGradient id="paint1_linear_1334_2596" x1="7.636" y1="21.436" x2="58.392" y2="63.302" gradientUnits="userSpaceOnUse"><stop stop-color="#594BB9"/><stop offset="1" stop-color="#60A8F2"/></linearGradient><linearGradient id="paint2_linear_1334_2596" x1="40.147" y1="67.385" x2="75" y2="75" gradientUnits="userSpaceOnUse"><stop stop-color="#61A2EF"/><stop offset="1" stop-color="#58E6FD"/></linearGradient><linearGradient id="paint3_linear_1334_2596" x1="31.067" y1="9.979" x2="75" y2="5" gradientUnits="userSpaceOnUse"><stop stop-color="#534EBE"/><stop offset="1" stop-color="#6875E2"/></linearGradient><linearGradient id="paint4_linear_1334_2596" x1="62.406" y1="44.686" x2="75" y2="59.769" gradientUnits="userSpaceOnUse"><stop stop-color="#71A5F3"/><stop offset="1" stop-color="#6CC3FA"/></linearGradient></defs></svg>