<svg width="80" height="80" viewBox="0 0 80 80" fill="none" xmlns="http://www.w3.org/2000/svg"><path fill-rule="evenodd" clip-rule="evenodd" d="M40 77.5c19.33 0 35-15.67 35-35s-15.67-35-35-35-35 15.67-35 35a34.84 34.84 0 004.546 17.262L5 77.5l18.287-4.24A34.843 34.843 0 0040 77.5zm0-5.385c16.356 0 29.615-13.259 29.615-29.615 0-16.356-13.259-29.615-29.615-29.615-16.356 0-29.615 13.259-29.615 29.615a29.48 29.48 0 005.345 16.975l-2.653 9.948 10.123-2.53A29.48 29.48 0 0040 72.114z" fill="#BFC8D0"/><path d="M70 40c0 16.569-13.431 30-30 30a29.861 29.861 0 01-17.018-5.29l-10.255 2.563 2.687-10.077A29.862 29.862 0 0110 40c0-16.569 13.431-30 30-30 16.569 0 30 13.431 30 30z" fill="url(#paint0_linear_1334_2839)"/><path fill-rule="evenodd" clip-rule="evenodd" d="M40 75c19.33 0 35-15.67 35-35S59.33 5 40 5 5 20.67 5 40a34.84 34.84 0 004.546 17.262L5 75l18.287-4.24A34.843 34.843 0 0040 75zm0-5.385c16.356 0 29.615-13.259 29.615-29.615 0-16.356-13.259-29.615-29.615-29.615-16.356 0-29.615 13.259-29.615 29.615a29.48 29.48 0 005.345 16.975l-2.653 9.948 10.123-2.53A29.48 29.48 0 0040 69.614z" fill="#fff"/><path d="M31.25 23.75c-.832-1.671-2.109-1.523-3.398-1.523-2.305 0-5.899 2.76-5.899 7.899 0 4.21 1.856 8.82 8.108 15.715 6.034 6.654 13.962 10.097 20.544 9.98 6.583-.118 7.937-5.782 7.937-7.694 0-.848-.526-1.271-.889-1.386-2.243-1.077-6.38-3.082-7.32-3.46-.942-.376-1.434.134-1.74.41-.853.814-2.545 3.212-3.124 3.75-.58.54-1.443.267-1.803.063-1.322-.53-4.909-2.126-7.767-4.897-3.536-3.427-3.743-4.606-4.41-5.655-.532-.84-.141-1.355.054-1.58a44.67 44.67 0 002.285-2.91c.472-.675.097-1.699-.127-2.336-.967-2.743-1.785-5.038-2.45-6.376z" fill="#fff"/><defs><linearGradient id="paint0_linear_1334_2839" x1="66.25" y1="17.5" x2="10" y2="70" gradientUnits="userSpaceOnUse"><stop stop-color="#5BD066"/><stop offset="1" stop-color="#27B43E"/></linearGradient></defs></svg>