<svg width="80" height="80" viewBox="0 0 80 80" fill="none" xmlns="http://www.w3.org/2000/svg"><path d="M47.388 47.404a21.142 21.142 0 01-14.82.002 21.112 21.112 0 01-.003-14.81 21.129 21.129 0 0114.823 0 21.108 21.108 0 010 14.809zm27.125-13.237H54.07L68.525 19.72a35.225 35.225 0 00-8.256-8.25L45.813 25.918V5.487a35.282 35.282 0 00-11.673 0v20.43L19.684 11.471a35.259 35.259 0 00-8.256 8.249l14.457 14.447H5.442c-.505 3.97-.668 7.703 0 11.666h20.444L11.428 60.28a35.26 35.26 0 008.255 8.25L34.14 54.082v20.432c3.859.646 7.814.646 11.673 0V54.082L60.27 68.53a35.265 35.265 0 008.255-8.25L54.068 45.833h20.445a35.207 35.207 0 000-11.666z" fill="#FF4A00"/></svg>