<svg version="1.2" xmlns="http://www.w3.org/2000/svg" viewBox="0 0 357 406" width="357" height="406"><style/><path fill-rule="evenodd" d="M263.2 103.8l-10.9 23.1c-1.9 3.9-6.8 4.4-9.5 1.4-3.1.2-5.5-1.9-6-4.8l-1.5-9.3-11.9 4.9c-1.7.7-3.7.5-5.3-.5-.4-.3-.6-.7-1-1.1-3.6.4-6.2-2.4-6.2-5.5-.2-9.9.4-7.8-.3-9.3l-9.5-.8c-1.4-.1-2.5-.8-3.4-1.7l-1.2-.1c-3.9-.4-6.3-4.4-4.8-8l8-18.1c1.3-3 4.8-4.3 7.7-2.9l2.9 1.4c2.3.4-1.8-1 50.2 23.7 2.8 1.4 4 4.8 2.7 7.6zm-4.1-4.7c-51.7-24.7-48.5-23.4-49.5-23.5-.8 0-2 .6-2.4 1.5-8 18.6-8.3 18.3-8 19.5 0 .3.2.8.4 1l.1.1c1.2 1.6 1.9.7 13.9 2 2.9.3 5.2 2.7 5.2 5.7.1 8.1-.5 9.4 1.1 10.5.7.5 1.5.5 2.3.2l13.1-5.4c.2-.1.4 0 .6-.1.5-.1 1-.3 1.5-.3 2.3 0 3 .9 4 1.7 2.1 2.2 1.3 1.9 3.2 12.9.4 2.4 3.7 2.9 4.7.6l10.9-23.1c.6-1.2.1-2.7-1.1-3.3z"/><path d="M63.4 382.4c.9 0 1.6-.7 1.6-1.6l-1.5-109.9c0-.9-.7-1.6-1.6-1.6h-.1c-.9 0-1.6.8-1.6 1.7l1.6 109.8c0 .9.7 1.6 1.6 1.6z"/><path fill-rule="evenodd" d="M2.5 383.2h10.7V179.4c0-1.8.8-3.5 2.1-4.6 2.7-2.1 5.4-.6 6.6-.5 1.2.3 2-.7 5.3-2.6 2-1.3 4.8-1.2 6.8 1.6 1.4-.7 3.6-3.2 6.8-2.1 1.5.5 2.7 1.6 3.3 3.1l4.8 11.9c2.3-1 5.1-.1 6.5 2.5l.3-.4c2.2-3.4 7.1-3.4 9.1.4l2.9 5.5.9-1.2c1-1.2 2.9-.5 2.9 1v5.6c.7.1 1.3-.1 1.8-.7L78 193c.9-1.2 2.9-.5 2.9 1v189.2h12.7V203.4c0-1.4 1.5-2.1 2.5-1.3l4.7 3.4c.1-1.3-.5-2.9.8-3.6 1.5-.7 2.3.9 4.7 2.4 2.3-1.5 4.4-1.2 6.2.7 2.7-3.1 7.5-1.7 8.6 2.3l1.6 5.7c1.9-1.9 4.7-2 6.9.2l.2-.2c2.1-2.2 5.7-2 7.7.9v-.8c-.1-1.3 1.4-2.1 2.5-1.3l4.8 3.3-.1-2c0-1.3 1.5-2.1 2.6-1.3l7.2 5.1c1.5 1.1 2.3 2.9 2.3 4.8v161.5h16.9V236.7c0-1.8.8-3.6 2.3-4.7l6.2-4.5c1-.8 2.5-.1 2.5 1.3v2.4l5.2-3.8c.5-.3 1.2-.4 1.7-.1 1.5.7.7 2.4.9 5.1 1.8-1.6 4.4-1.9 6.4-.4l1 .7c1.7-1.9 4.4-2.2 6.5-.8 1.3-2 1.9-6.4 6-6.9 1.7-.1 3.4.5 4.5 1.9.9-1 1.9-1.7 3.2-1.9a5 5 0 014.6 2l3.4-4.5c1-1.2 2.9-.5 2.9 1l.1 5.2 4.7-6.2c1-1.2 2.9-.5 2.9 1l1.6 159.7h18.8v-95.5c0-1.3 1.4-2.1 2.5-1.4l3.6 2.3v-.9c0-1.3 1.4-2.1 2.5-1.4l3.8 2.5c.6-.2 3.3-3 6.6-.6l.3-.2c2.2-1.4 5-.8 6.6 1.5l2.5 3.7 4.3-4.4c1.6-1.8 4.1-2 6-.8 1.8-1.1 3.9-1 5.5.3l5.1 4.2 3.8-5.7c.9-1.3 3-.7 3 .9v1.2l1.3-2.1c.9-1.4 3-.7 3 .9v95.5h8c.9 0 1.7.7 1.7 1.6V404c0 .9-.8 1.6-1.7 1.6H2.5c-.9 0-1.7-.7-1.7-1.6v-19.2c0-.9.8-1.6 1.7-1.6zm265.9-10.6c.9-.9-.7-.2 33.6-2 2.3.1 2.2 3.1.1 3.2.7.1-32 1.5-32.6 1.5-.4 0-.8-.1-1.1-.4v8.3h47.9v-90l-1.3 2c-1.1 1.8-4.5 3.4-7.1 1.2-.6-.5-6.1-5.1-6.7-5.6-.6-.6-1.4-.5-2 .2l-.1.1c-6.4 6.6-5.9 6.9-8.2 7.5-2.3.5-4.2-.7-5.1-2.1l-3.5-5.2c-1.3-1.9-2.8.1-3.4.3l-2 1.3h-.1c-1.3.8-3.4 1-5 0 .7.4-2.7-1.8-3.4-2.2v81.9zm39.5-76.2q.1 0 0 0zm-122.3-61.8c-.5.4-.8 1-.9 1.4-.1-9.9-.1 146.5-.1 147.2h52.5l-1.5-155c-2.5 2.9-3.2 4.9-5.7 5.6-3.3.6-4.4-1.1-6.4-3.2l-1.3-1.6c-1.1-1.3-2.7-.9-3.4.5.3-.6-2.3 5-2.6 5.6v.1c-2.5 5-5.6 3.3-10.1.4l-1.4-1c-.8-.6-1.9-.5-2.6.4l-3.5 4.2c-.8 1-2.4 1.9-3.9 1.9l-.1.1c-2.4 0-4.5-1.7-5.1-4.3-.3-1.4-.2-1.6-.2-5zm-81.7 148.6h49.6V221.7c0-.9-.3-1.7-1-2.2l-4.6-3.2.3 15.1c.1 1.7-2.2 2.1-3 .9l-7.4-11.8c-.3-.5-2.6-4.1-3-4.7-.6-1-1.9-1.4-2.8-.5-3.4 3.3-3.5 4.3-5.9 4.7-3.1.6-5.3-1.4-5.9-3.7l-2.3-8c-.4-1.6-2-2.3-3.1-1.1-.8.8-1 1.1-1.6 1.6q-.1 0-.1.1c-.9.7-1.9 1-3 1-.3 0-.5-.1-.8-.1-2-.3-2.1-.9-5.4-3.2v176.6zm33.9-162.7q.1.2 0 0zM34.3 176.9l-.1.1c-2.8 1.2-3.1.6-5.9 0-1.2-.3-2.5.8-2.5 2.5v203.7h51.8V198.7l-1.8 2.3c-1.7 2.1-4.6 2.6-6.8 1.2h-.1c-1.6-1-1.9-2.5-3-4.2-.3-.6-3.7-7.2-4.1-7.8-.3-.7-1-1.1-1.7-1.1-1.9-.1-2.3 2.5-3.6 3.9h-.1q0 .1-.1.2c-2.1 2.9-7.2 2.5-8.8-1.6l-.9-2.3c-5.8-13.6-5.2-14.5-6.9-15-1.3-.5-2 .7-5.4 2.6zM65.9 198q.1 0 0 0zM4 402.4h321.9v-15.9H4z"/><path fill-rule="evenodd" d="M291.4 256.9l10.9-11.1-108.5-100.2c-4.6-4.3-12.2-4.5-17.1-.5-29.3 23.9-47.2 38.5-54.6 44.6-.6.5-1.5.5-2.1.1-12.4-10.1-56.2-48.6-114.2-100.4-1.4-1.2-1.5-3.2-.4-4.6l2.1-2.7c1.2-1.4 3.4-1.6 4.8-.5l102.9 86c4.8 4 12.2 3.9 16.9 0l50.8-43.4c1.3-1.1 3.2-1 4.5.1l123.5 112.8 8.3-8.3c2.4-2.5 6.5-1.6 7.7 1.6l14.8 38.4c1.4 3.5-1.8 7.1-5.5 6.2l-42.6-10.3c-3.6-.8-4.8-5.3-2.2-7.8zm14.9-1.1c-.8-.3-1.8.1-2.1.9-.3.8.1 1.8.9 2.1 16.6 6.6 15.7 6.4 16.3 6.4 1.9 0 2.2-2.5.6-3.1z"/><path d="M353.7 65.8c-8.2-1.4-16.9-4.2-25.9-8.3-1-.4-1.9-1-1.3-1.8 5.4-7.3 12.6-13.8 15.4-23.8.7-2.5-2.2-5.4-4.5-4.2-10.6 5.3-21.2 10.2-34.5 11.1-1.4.1-2.5-.3-3.2-1.1-3-3.1 2-5.8-15.9-36.3-1.4-2.5-4.7-1.2-4.1 1.3 8.9 37.8 5.4 42.4 9 42.1.9-.1 1.5-.9 1.4-1.8-1.2-11-3.1-22.4-5.6-34 4.8 8.6 9.3 17.8 10.6 25.8.8 4.7 3.2 7.5 8 7.2 13.8-.9 25-6 35.4-11.3.1.1.2.3.3.3-2.6 9.3-9.4 15.3-14.9 22.7-.9 1.3-1.4 3.3.2 5.2 2.5 2.8 18.7 7.9 24.1 9.1l-28 5.1c-1.9.3-1.7 3.2.3 3.2.7 0 2.6-.5 33.6-6.1 2.5-.5 2-4-.4-4.4z"/><path d="M354.7 53.3c-3.1 1-6.2 1.7-9.4 2-2 .2-1.9 3.2.2 3.2 1.1-.2 4.7-.3 10.2-2.1 2-.7 1-3.8-1-3.1zm-44.7-21c.9 0 1.6-.8 1.6-1.7l-.2-14.5c0-.9-.7-1.4-1.7-1.6-.9 0-1.6.8-1.6 1.7l.3 14.5c0 .9.7 1.6 1.6 1.6z"/><path fill-rule="evenodd" d="M95.3 118.7L82.7 90.5c-.6-1.4-.6-3-.1-4.5.6-1.4 1.7-2.5 3.1-3.1l.5-.2v-.2c.6-1.4 1.7-2.5 3.1-3.1L140 58.1c3.1-1.3 6.6.2 7.6 3.3l12.7 36.5c1 2.9-.4 6.3-3.7 7.3-.5 1.4-1.5 2.6-2.9 3.3q-1.2.5-2.4.5c-2.7 0-3.7-1.6-13-7-.1-.1-.2 0-.2-.1-.2 1.6 1 5.5-2.6 7.8-.5.3-1.1.4-1.6.5-1.3 3.7-4.7 4.6-7.5 3.4l-6.5-2.9c-.2-.1-.5-.1-.8-.1l-3.7 7.3c-.7 1.4-1.9 2.3-3.3 2.8l-.4.7c-1 2-2.9 3.2-5 3.2-1.9 0-3.1-.9-8.3-2.9-1.4-.6-2.5-1.6-3.1-3zm-6.1-35v.5c-.3 1.6-.6-.6 12.6 29.7.3.6.8 1 1.4 1.3l6.2 2.4c.9.4 2.4.1 3.1-1.1-.4.6 4.6-9 4.9-9.7 1.4-2.7 4.6-3.8 7.4-2.6l6.6 2.9q.5.3 1.2.2c1.2-.1 2.3-1.1 2.3-2.4.3-2.5-1.4-7.4 3.3-9.5.9-.4 1.8-.6 2.7-.5h.1c2.5.2 3 1.3 12.6 7 1.1.6 2.2.4 2.9-.2.6-.5 1.2-1.5.8-2.7l-12.7-36.5c-.5-1.3-2-2-3.3-1.5C88.7 83.4 90 81.9 89.2 83.7zM30.6 66.3l1-13.1c.1-1.2-.6-2-1.4-2.4-9 1.7-9.6 2.4-11.8 1.9l-.2.1c-1.8.4-3.9-.2-5.3-1.7l-4-4.2c-1.3-1.4-1.9-3.4-1.4-5.3l1.8-7.2c.8-3 3.8-5 7-4.2 2.7-.5.2-.3 55.3 13.4 3.2.8 5 4.1 4.1 7.2l-9.2 30.9c-.4 1.3-2.1 1.6-2.9.4-.8 1.2-2.2.9-2.7-.2l-2.4-4.8-1 2c-1.2 2.3-3.6 3.5-6.1 3.1-.1-.1-.3-.1-.4-.2-3.6.8-6.5-1.6-6.9-4.8l-.5-4.2c-.1-1-.7-1.5-1.2-1.7-.6.3-2.2 1.7-4.9 1-.4 0-.8.2-1.2.2-3.3 0-6-2.8-5.7-6.2zm0-18.9c3.7-.8 7.2 2.2 6.9 6.1-1 13.4-1.4 13.1-.8 14.3.7 1.4 2.5 1.8 3.7.9 1.7-1.2 3.8-1.4 5.6-.6 5.1 2.1 2.7 8.3 4.7 10.2.1.1.3.2.5.3.2.1.5.3.8.4.8.1 2-.1 2.6-1.3l2.5-5 1.4-2.6c.6-1.2 2.3-1.2 2.9 0l3.2 6.7 8-26.9c.4-1.4-.4-2.8-1.8-3.2-56-14-52.7-13.6-53.9-13.3-.1 0-.1.1-.1.1-.6.1-1.5.9-1.7 1.7l-1.8 7.2c-.2.8 0 1.6.6 2.3 3.7 3.8 3.9 4.5 5 4.8 2.1.2-1 .5 11.7-2.1zm231 79.6h51.8c2.9 0 5.3 2.1 5.5 4.9l4.5 42.3c.4 4-3.3 5.5-5 7.3-1.5 1.3-3.7 1.6-5.6.9-2.2.8-4.2.2-5.6-1.1l-15-14.1-5.7 3.2c-1.5.8-3.1.9-4.6.3-2.3.8-4.3.2-5.7-1.1l-9.6-8.7-4.3 3.2c-.9.6-2.3.3-2.5-1-.8.4-1.8 1.8-3.1 1.1-.5-.3-.9-.8-.8-1.4l.3-30.6c0-2.9 2.4-5.2 5.4-5.2zm0 0q-.1 0 0 0zm51.8 3.3c-12.2 0-46.9-.1-48.1 0-1.4.1-2 .9-2.1 1.9q0-.1 0 0c0 1.7-.2 26.7-.3 27.4l2.4-1.7c.1-.2.3-.2.5-.3v-.1c.8-.4 2.3-.7 3.3-.6.1 0 1.4.3 1.7.4 1.5.6 1.2.8 11.4 9.9v.1c.8.6 1.9.7 2.7.3-.6.3 6-3.4 6.7-3.7.7-.4 1.5-.6 2.4-.6.1 0 .1-.1.2-.1 3.1 0 3.8 1.5 19 15.7.9.8 2.2.9 3.1.1 2.4-2.3 4.1-2.8 3.9-4.4l-4.5-42.4c-.1-1.1-1.1-1.9-2.3-1.9zm-50.2 1.9z"/></svg>