<svg width="73" height="66" viewBox="0 0 73 66" fill="none" xmlns="http://www.w3.org/2000/svg"><path d="M24.204 35.306c-.591.193-1.3.69-1.531 1.296-.332.872-.711 1.748-.89 2.67a6.953 6.953 0 00-.115 1.294c0 .432.192 1.232.489 1.582l.523.614c.218.156.438.311.661.461.16.107.636.271.911.295.295.078.587.091.878.038.303-.027.596-.089.883-.184.29-.089.568-.237.843-.383.052-.02.104-.04.158-.059 1.369-.476 2.158-1.958 1.702-3.357a2.655 2.655 0 00-1.049-1.372 2.656 2.656 0 00-1.402-2.726 2.677 2.677 0 00-2.061-.169zm9.166-15.688c-.448.492-.767 1.238-.69 1.916.172 1.535.33 3.07.468 4.609.158 1.785.471 3.537.827 5.293.282 1.387.578 2.774.97 4.134.37 1.282.661 2.578.947 3.882.14.64.736 1.237 1.295 1.53.819.427 1.916.418 2.684-.125.823-.584 1.273-1.456 1.207-2.473a2.708 2.708 0 00-.174-.797c-.15-.687-.298-1.374-.463-2.056-.177-.73-.397-1.446-.594-2.17-.404-1.494-.714-3.018-1.004-4.54a45.457 45.457 0 01-.43-3.51 181.24 181.24 0 00-.418-4.027c-.08-.72-.32-1.345-.866-1.843a2.675 2.675 0 00-2.373-.628 2.66 2.66 0 00-1.386.805z" fill="#46A3BB"/><path d="M27.98 27.136c-.431.473-.796 1.258-.69 1.916.294 1.844.591 3.688.869 5.534.135.897.268 1.79.454 2.678.092.444.198.885.293 1.328.017.136.029.273.038.41.087 1.449 1.321 2.603 2.783 2.533 1.435-.068 2.62-1.335 2.532-2.783-.068-1.13-.4-2.242-.63-3.35-.141-.851-.254-1.708-.386-2.561-.208-1.347-.426-2.694-.641-4.041l-.128-.702a2.668 2.668 0 00-3.109-1.769 2.693 2.693 0 00-1.385.807zm11.794-12.354c-1.406.46-2.115 1.968-1.703 3.357.395 1.326.801 2.65 1.133 3.994.287 1.158.55 2.321.814 3.483.51 2.237 1.051 4.471 1.483 6.723.234 1.347.451 2.698.721 4.037.13.64.745 1.241 1.296 1.531.631.33 1.384.393 2.061.172a2.69 2.69 0 001.531-1.296l.237-.648a2.677 2.677 0 00-.067-1.412l-.044-.225c-.258-1.465-.49-2.934-.789-4.39-.297-1.448-.635-2.888-.96-4.329a425.115 425.115 0 00-1.023-4.47c-.384-1.626-.859-3.222-1.334-4.822-.389-1.313-1.832-2.058-3.128-1.766a1.924 1.924 0 00-.228.061z" fill="#E2FF5E"/><path d="M10.468 55.226a24.068 24.068 0 00-.28 2.11c-.074.908.002 1.865.514 2.651.205.316.71.85 1.072.99.45.174.943.422 1.45.335.331-.056.667-.074.973-.22.124-.048.245-.1.363-.159.684.81 1.838 1.232 2.87.84.36-.139.721-.26 1.076-.41.605-.255 1.191-.564 1.773-.87.735-.387 1.46-.796 2.197-1.177 1.167-.54 2.322-1.1 3.477-1.665.25-.034.5-.07.748-.109.78-.122 1.533-.28 2.278-.535.637-.218 1.26-.5 1.875-.77l.095-.042c1.327-.305 2.656-.6 3.993-.868.611-.098 1.222-.19 1.831-.299.731-.13 1.468-.247 2.187-.439.728-.196 1.468-.582 2.115-.947.401-.226.74-.576 1.063-.895.184-.259.367-.52.548-.78.213-.408.381-1.064.344-1.526-.065-.783-.323-1.527-.926-2.07a3.216 3.216 0 00-1.548-.784c-1.06-.218-2.2-.023-3.229.237-1.168.297-2.314.747-3.438 1.176-.5.191-.992.404-1.477.628a2.285 2.285 0 00-.428-.01c-1.4.102-2.763.4-4.13.71-1.38.314-2.76.626-4.138.955-1.128.27-2.254.548-3.375.85a7.155 7.155 0 00-1.104-.034 5.697 5.697 0 00-1.975.486c-.83.377-1.618.792-2.384 1.278a2.677 2.677 0 00-1.228-.65 2.63 2.63 0 00-1.15.006c-.983.225-1.855.975-2.032 2.007z" fill="#46A3BB"/><path d="M31.634 6.865c-2.256.587-4.494 1.244-6.727 1.913-1.015.305-2.04.574-3.062.857-.319.09-.64.173-.963.252-.326-.162-.656-.158-1.004-.072-1.04.256-2.083.5-3.124.76-1.022.253-2.029.574-3.06.785-1.234.217-2.474.393-3.704.63-1.245.238-2.506.49-3.684.967-.65.264-1.296.558-1.9.915-.175.103-.329.242-.486.368a9.648 9.648 0 00-.51.438 6.604 6.604 0 00-.714.744 9.86 9.86 0 00-.688.981c-.22.357-.342.792-.434 1.2-.12.531-.137 1.096-.164 1.638-.034.702-.01 1.41.001 2.112.023 1.424.146 2.851.286 4.268.14 1.413.32 2.82.542 4.222.448 2.827 1.106 5.625 1.75 8.413A247.038 247.038 0 015.56 45.52c.455 2.293 1.005 4.57 1.432 6.867-.014-.075-.028-.15-.04-.226l.055.311.007.04-.007-.036c.214 1.18.43 2.362.668 3.538.243 1.202.484 2.404.878 3.567.205.605.418 1.222.774 1.76.404.61.96 1.161 1.631 1.47.723.33 1.551.41 2.334.356.633-.044 1.254-.177 1.878-.277a36.14 36.14 0 002.094-.378c.64-.139 1.264-.352 1.89-.547 1.242-.388 2.506-.7 3.764-1.037 1.3-.348 2.585-.744 3.883-1.099 1.303-.357 2.61-.704 3.911-1.067a108.09 108.09 0 013.93-1.037c1.312-.314 2.625-.624 3.938-.936a93.032 93.032 0 003.816-.968 92.969 92.969 0 013.932-1.023 116.87 116.87 0 003.97-.995c1.286-.352 2.572-.703 3.856-1.056 1.263-.347 2.533-.66 3.807-.957 1.23-.288 2.475-.506 3.71-.766 1.274-.269 2.542-.579 3.81-.878.555-.133 1.116-.252 1.667-.408.603-.169 1.17-.474 1.54-.992.168-.234.301-.454.424-.713.103-.217.174-.45.256-.674.08-.225.142-.457.211-.685.263-.88.325-1.794.341-2.71a38.77 38.77 0 00-.004-2.046c-.052-1.418-.132-2.84-.31-4.249-.367-2.862-1.01-5.673-1.54-8.508a60.11 60.11 0 00-.855-3.932c-.336-1.302-.794-2.564-1.17-3.855a28.287 28.287 0 01-.592-2.417c-.2-1.172-.319-2.355-.519-3.526-.228-1.344-.454-2.69-.716-4.029-.122-.622-.235-1.248-.405-1.86-.164-.586-.357-1.165-.538-1.745a21.894 21.894 0 00-.6-1.69c-.216-.535-.445-1.065-.649-1.605a5.278 5.278 0 00-.368-.797c-.234-.396-.567-.69-.948-.94-.49-.322-1.119-.419-1.692-.47a38.416 38.416 0 00-2.117-.11 30.052 30.052 0 00-2.014-.01 28.976 28.976 0 00-4.236.472c-1.225.23-2.438.514-3.652.801-2.573.61-5.17 1.11-7.753 1.678-1.303.288-2.604.581-3.905.874-.497.111-.995.221-1.492.333a73.34 73.34 0 00-2.212.533zm-17.84 4.478l.208-.037-.209.037zm7.027 1.282c1.947-.442 3.864-1.015 5.78-1.575 2.468-.719 4.932-1.476 7.442-2.042 2.57-.579 5.137-1.168 7.713-1.715 1.283-.272 2.571-.52 3.852-.803 1.297-.288 2.59-.605 3.884-.907.588-.137 1.18-.255 1.772-.366 2.425-.415 4.89-.475 7.342-.309.236.025.47.06.7.122.017.01.035.018.053.027.025.037.05.074.072.112.068.163.128.328.191.493.126.33.267.653.403.98.271.647.51 1.311.72 1.981.21.672.446 1.343.613 2.03.178.73.312 1.472.45 2.211a87.97 87.97 0 01-.039-.214c.224 1.226.45 2.455.628 3.688.192 1.332.344 2.67.635 3.986.29 1.313.7 2.59 1.115 3.87a36.865 36.865 0 011.005 3.847c.241 1.152.45 2.313.675 3.47.228 1.178.481 2.353.706 3.534.277 1.6.511 3.207.614 4.83.108 1.663.185 3.336.091 5.003a9.007 9.007 0 01-.437 1.813 4.967 4.967 0 01-.204.422c-.476.176-.977.275-1.47.39-.607.141-1.213.29-1.82.427-1.292.297-2.582.594-3.88.854-1.204.241-2.4.493-3.593.783-1.319.32-2.625.684-3.934 1.043-1.296.356-2.589.716-3.888 1.056-1.308.342-2.632.617-3.943.946-1.297.324-2.577.708-3.867 1.052-1.259.334-2.536.614-3.804.914-1.307.31-2.618.611-3.922.946-1.328.342-2.645.725-3.968 1.087s-2.65.71-3.969 1.088c-1.288.368-2.576.734-3.872 1.073-.832.218-1.66.45-2.482.705-.788.247-1.569.47-2.376.63-.479.081-.96.151-1.44.236-.587.103-1.174.19-1.769.171a3.77 3.77 0 01-.459-.093 2.197 2.197 0 01-.16-.082 3.383 3.383 0 01-.279-.257 4.08 4.08 0 01-.3-.463c-.236-.54-.41-1.116-.574-1.679-.185-.633-.313-1.28-.449-1.924-.283-1.35-.535-2.704-.784-4.06l.066.352c-.136-.738-.266-1.477-.418-2.213-.133-.646-.284-1.288-.427-1.93a169.04 169.04 0 01-.775-3.732c-.272-1.365-.549-2.73-.853-4.089-.298-1.337-.62-2.67-.918-4.009-.437-1.944-.875-3.889-1.24-5.847a68.726 68.726 0 01-.734-5.623c-.173-2.026-.328-4.082-.205-6.116.034-.302.081-.598.166-.89.071-.15.152-.29.241-.43.287-.373.604-.707.952-1.02a4.355 4.355 0 01.938-.597c.674-.31 1.361-.573 2.076-.77.872-.242 1.761-.415 2.65-.58 1.565-.276 3.15-.462 4.686-.885 1.336-.367 2.682-.693 4.028-1.02.323.156.638.147.981.07.004 0 .008 0 .012-.002zm45.902 34.331a1.548 1.548 0 01-.087.125l.087-.125zM7.01 52.476v-.005l-.017-.085.017.09z" fill="#fff"/><path d="M66.67 39.157c-.288.068-.576.139-.861.22-.452.129-.881.313-1.321.473-.546.199-1.117.337-1.677.492-.568.162-1.137.318-1.708.466-1.32.346-2.638.702-3.964 1.016-1.131.268-2.267.51-3.402.759-1.337.292-2.681.566-4.015.87-1.33.305-2.655.627-3.984.935-1.343.313-2.694.586-4.045.859-1.195.24-2.392.483-3.582.75a214.568 214.568 0 00-7.746 1.882c-.854.227-1.716.42-2.578.614-.333.075-.667.148-.998.224-1.214.28-2.424.569-3.638.85-1.006.233-2.007.496-3.014.73-.99.23-1.984.43-2.982.617a51.066 51.066 0 00-3.57.754 24.69 24.69 0 00-1.786.544 34.65 34.65 0 00-.886.321c-.617.227-1.19.547-1.758.873-.628.36-.77 1.259-.39 1.84.412.633 1.212.752 1.84.392.24-.137.48-.276.725-.407.958-.418 1.972-.733 2.98-1.006a35.198 35.198 0 012.53-.577 87.398 87.398 0 003.997-.793c1.284-.288 2.557-.625 3.84-.92 1.199-.276 2.395-.563 3.593-.838 1.224-.28 2.445-.562 3.66-.884 2.556-.68 5.133-1.264 7.713-1.843 1.209-.273 2.425-.502 3.642-.744 1.319-.264 2.635-.553 3.945-.865 1.356-.325 2.713-.646 4.074-.949 1.296-.288 2.597-.552 3.894-.838 1.14-.251 2.282-.496 3.415-.777a197.57 197.57 0 004.003-1.04c.503-.136 1.007-.28 1.509-.421.484-.136.965-.27 1.434-.45a14.888 14.888 0 011.939-.6c.322-.075.618-.365.766-.648.165-.316.197-.691.086-1.03a1.34 1.34 0 00-.65-.765c-.33-.173-.655-.17-1.006-.091a.155.155 0 00-.023.005zM17.175 50.91c.077-.014.153-.029.23-.041l-.23.04zm18.415 4.482c-.21.232-.401.633-.343.957.232 1.303.463 2.6.803 3.88.15.563.338 1.117.504 1.675.159.538.27 1.1.505 1.612.152.33.316.592.649.767.316.165.69.195 1.03.085a1.34 1.34 0 00.765-.648c.15-.285.227-.722.086-1.03-.191-.415-.292-.864-.416-1.3-.13-.453-.272-.903-.41-1.355a27.476 27.476 0 01-.704-2.947l-.155-.861c-.02-.117-.042-.234-.064-.351a1.328 1.328 0 00-1.555-.884 1.324 1.324 0 00-.694.4zm10.237-3a1.343 1.343 0 00-.765.648c-.178.339-.168.669-.086 1.03.535 2.376 1.092 4.745 1.627 7.12.072.323.368.62.649.767.314.164.69.197 1.03.085.327-.107.604-.342.765-.648.178-.338.168-.668.086-1.03-.535-2.375-1.092-4.744-1.627-7.12-.072-.322-.368-.62-.65-.766a1.335 1.335 0 00-1.03-.087z" fill="#fff"/><path d="M33.314 63.247c-.321.075-.617.364-.765.65a1.337 1.337 0 00.562 1.795c.338.177.67.17 1.03.085 1.366-.319 2.74-.614 4.111-.91 1.306-.28 2.613-.56 3.914-.864 1.248-.29 2.496-.58 3.748-.855 1.278-.28 2.569-.5 3.853-.754 1.311-.26 2.615-.56 3.919-.852.322-.073.617-.367.765-.649a1.336 1.336 0 00-.562-1.796c-.34-.178-.668-.168-1.03-.086-1.141.257-2.283.513-3.427.752-1.25.262-2.509.477-3.76.732-1.384.281-2.76.605-4.135.927-1.144.267-2.289.535-3.436.78-1.296.276-2.594.548-3.887.84-.3.066-.6.135-.9.205zM22.696 34.422c-.487.12-.968.256-1.437.438-.202.077-.395.173-.591.266a2.403 2.403 0 00-.406.218c-.238.145-.405.37-.556.594-.272.408-.285.924-.217 1.394.147 1.038.38 2.066.589 3.094.22 1.096.442 2.192.652 3.291.06.318.376.622.649.766.316.165.69.196 1.03.086.327-.107.606-.344.766-.649l.119-.324a1.333 1.333 0 00-.033-.706c-.31-1.618-.663-3.228-.97-4.845.015.086.03.172.047.258-.06-.309-.128-.624-.175-.938.647-.242 1.316-.405 1.992-.561.835-.191 1.669-.399 2.509-.558.318-.059.623-.375.766-.647a1.336 1.336 0 00-.561-1.797l-.324-.119a1.338 1.338 0 00-.707.035c-.467.088-.935.187-1.401.292a74.81 74.81 0 00-1.741.412zm-.576 2.521l-.004.01c0-.004.003-.007.004-.01z" fill="#fff"/><path d="M25.337 26.314a8.343 8.343 0 00-.348.301 1.325 1.325 0 00-.315.602c-.126.348-.085.731-.024 1.088.051.292.111.581.173.868.156.729.305 1.458.444 2.19.171.958.333 1.919.516 2.876.162.854.356 1.702.522 2.555.187.95.368 1.898.58 2.842l.668 2.969c.072.32.367.617.648.764a1.328 1.328 0 001.796-.561c.178-.34.167-.669.086-1.031-.343-1.522-.705-3.043-1.009-4.574-.275-1.394-.569-2.785-.836-4.181-.157-.892-.307-1.784-.477-2.673-.115-.596-.24-1.189-.365-1.782.253-.014.506-.023.76-.035a69.277 69.277 0 001.639-.091 17.658 17.658 0 002.323-.333c.32-.068.62-.37.766-.647.165-.316.196-.692.086-1.03a1.338 1.338 0 00-.649-.765c-.342-.18-.665-.164-1.03-.086l-.184.038c-1.32.218-2.664.219-3.998.302a8.945 8.945 0 00-.69.067 5.215 5.215 0 00-.426.074 1.96 1.96 0 00-.656.253z" fill="#fff"/><path d="M34.49 19.284a53.15 53.15 0 01-1.696.488c-.793.215-1.808.447-2.168 1.28-.312.722-.092 1.502.001 2.248.075.595.136 1.19.227 1.784.103.68.243 1.356.377 2.03.24 1.217.476 2.434.708 3.65.006.112.027.22.06.325.28 1.552.55 3.105.836 4.654.318 1.717.684 3.42 1.067 5.123.073.322.366.619.647.766a1.34 1.34 0 001.031.086 1.34 1.34 0 00.765-.65c.178-.337.166-.666.085-1.03-.382-1.692-.742-3.39-1.06-5.096l-.489-2.727-.266-1.47-.052-.288c0-.007-.002-.013-.003-.02-.056-.302-.112-.606-.17-.91-.088-.464-.186-.927-.275-1.391-.172-.895-.348-1.788-.519-2.682a30.215 30.215 0 01-.264-1.87 35.638 35.638 0 00-.106-.862c-.014-.098-.03-.2-.047-.3l.346-.096c.38-.102.76-.214 1.136-.321.39-.11.775-.228 1.161-.351.402-.127.804-.276 1.218-.363.32-.067.62-.37.766-.647a1.337 1.337 0 00-.562-1.796c-.343-.18-.665-.164-1.03-.086-.027.006-.053.01-.08.018-.559.126-1.1.337-1.645.504zm-2.556 11.448l.004.025a.257.257 0 01-.004-.025z" fill="#fff"/><path d="M36.894 14.666a3.528 3.528 0 00-.688.308c-.324.195-.573.589-.636.959-.07.41.01.762.084 1.165.1.536.223 1.067.355 1.595.322 1.294.675 2.58 1.014 3.87a389.37 389.37 0 001.08 4.018c.262.95.544 1.894.776 2.852.248 1.019.483 2.039.713 3.06.422 1.867.848 3.73 1.276 5.594l-.175.055c-.587.179-1.171.367-1.765.524-.54.144-1.082.268-1.627.394-.308.072-.617.139-.927.207a32.48 32.48 0 00-2.235.543 90.814 90.814 0 01-5.05 1.357c-.819.192-1.64.378-2.46.565-.699.157-1.395.33-2.097.47-.523.089-1.046.167-1.567.259l.098-.018-.116.02-.226.042-.081.015.003-.001h-.005l-.345.064.268-.05c-.1.018-.198.032-.3.03-.726-.014-1.299.705-1.265 1.392.017.35.174.685.433.922.274.248.596.336.959.344.267.007.553-.076.81-.122l-.075.013c.101-.02.203-.037.303-.056.42-.073.844-.132 1.264-.202.648-.107 1.287-.258 1.928-.403 1.183-.268 2.366-.536 3.545-.812a72.315 72.315 0 003.679-.97c.616-.177 1.229-.375 1.852-.524.337-.08.676-.155 1.014-.23l.583-.133c1.117-.255 2.236-.504 3.335-.835.553-.168 1.11-.335 1.66-.517.6-.198 1.188-.421 1.791-.604 1.324-.402 2.608-.9 3.879-1.444.271-.116.545-.231.819-.343a3.29 3.29 0 00.688-.347c.367-.262.587-.6.71-1.034.084-.293.055-.673.024-.98-.044-.41-.132-.814-.215-1.218-.328-1.59-.675-3.176-.977-4.772-.233-1.29-.46-2.581-.729-3.864-.267-1.264-.562-2.521-.847-3.781-.305-1.348-.593-2.703-.953-4.04a44.368 44.368 0 00-.572-1.95 8.585 8.585 0 00-.42-1.12l-.148-.311a1.805 1.805 0 00-.34-.454c-.144-.167-.313-.278-.498-.395-.218-.14-.544-.177-.79-.188a1.547 1.547 0 00-.346.025c-.9.138-1.788.37-2.681.542-.553.097-1.108.182-1.668.225-.587.046-1.176.06-1.75.189a4.02 4.02 0 00-.37.1zm4.779 15.043c-.325-1.364-.698-2.71-1.07-4.061a346.66 346.66 0 01-1.072-4c-.401-1.516-.852-3.028-1.184-4.562.317-.026.636-.04.953-.064a16.6 16.6 0 001.47-.206c.81-.14 1.611-.316 2.416-.483.145.392.263.796.382 1.195.16.539.313 1.08.459 1.624.294 1.087.521 2.196.77 3.295.473 2.074.952 4.144 1.343 6.235.215 1.202.438 2.4.68 3.596.222 1.09.462 2.178.681 3.27.009.048.016.097.022.145-1.029.438-2.064.87-3.117 1.237-.334.116-.672.22-1.008.326-.577-2.517-1.128-5.037-1.726-7.547zM22.72 42.507l.21-.038-.21.038zm.721 2.548l.276-.051-.276.05zm-.805-2.533h.002l-.08.014.078-.014z" fill="#fff"/></svg>