<svg width="78" height="80" viewBox="0 0 78 80" fill="none" xmlns="http://www.w3.org/2000/svg"><path d="M10.804 14.157c-.605.365-1.248.772-1.967 1.244-.895.586-1.695 1.124-2.435 1.767-1.988 1.723-3.994 3.661-5.197 6.145-.415.856-.898 1.985-.952 3.131-.04.844-.074 1.543.104 2.321.037.163.072.33.108.494.1.47.206.954.343 1.412.326 1.093.679 2.025 1.08 2.85 1.52 3.137 3.298 6.156 5.137 9.23.685 1.145 1.409 2.293 2.109 3.403.774 1.227 1.574 2.495 2.324 3.765.89 1.798 1.65 3.846 2.396 6.445.109.517.239 1.202.275 1.91.059 1.123.073 2.24.079 3.085v.166c.014 1.838.028 3.738.114 5.602.049 1.053.098 2.001.206 2.941.158 1.402.475 2.739.785 3.987.054.215.123.427.19.624.066.188.133.351.21.541.22.528.5 1.128.913 1.577.847.921.956 1.04 2.082 1.664.477.264 1.057.41 1.562.527 1.385.318 2.74.014 3.903-.295 1.007-.267 2.068-.742 3.245-1.453.305-.184.603-.375.895-.569l.113-.075c.39-.259.78-.518 1.165-.788a49.187 49.187 0 004.733-3.759c1.585-1.433 3.138-2.828 4.709-4.159l.724-.614a374.45 374.45 0 014.168-3.498c1.53-1.261 3.174-2.43 4.762-3.56l.05-.037c1.58-1.124 3.13-2.339 4.63-3.514 1.667-1.307 3.392-2.658 5.162-3.889l.18-.126c1.562-1.085 3.176-2.208 4.799-3.255.726-.469 1.457-.93 2.188-1.392 1.01-.639 2.055-1.299 3.07-1.967a63.865 63.865 0 003.8-2.727c.328-.249.652-.499.976-.752.475-.372.905-.81 1.322-1.234l.179-.182c.845-.856 1.218-2.229 1.365-2.972.202-1.014-.006-1.843-.246-2.804l-.08-.319c-.242-.994-1.16-1.996-1.885-2.662-.787-.72-1.805-1.388-3.111-2.04-1.756-.879-3.663-1.51-5.832-1.932a95.093 95.093 0 00-1.256-.232c-.89-.16-1.81-.325-2.704-.548-.715-.24-1.553-.54-2.35-.942a14.355 14.355 0 01-1.501-1.263 72.806 72.806 0 01-6.887-9.133c-.611-.962-1.19-1.965-1.75-2.935-.408-.707-.831-1.438-1.262-2.147l-.45-.743c-.881-1.458-1.792-2.966-2.813-4.354a11.65 11.65 0 00-.895-1.05 42.769 42.769 0 00-1.206-1.24c-.562-.56-1.26-.972-1.867-1.3a6.356 6.356 0 00-2.48-.744c-.764-.057-1.572-.1-2.304.06a43.79 43.79 0 00-2.576.628c-1.421.396-2.773 1.075-4.082 1.733-.387.194-.772.388-1.158.574-2.204 1.063-4.141 2.096-5.921 3.16l-.263.158a150.825 150.825 0 00-3.233 2.03c-2.22 1.113-4.593 2.331-6.948 3.708-.182.107-.363.214-.544.323z" fill="#F7F7F4"/><path d="M10.302 17.525c-.796.491-1.521 1.078-2.234 1.677-1.484 1.248-3.044 2.48-4.144 4.092a23.955 23.955 0 00-1.054 1.708 6.462 6.462 0 00-.363.755c-.314.776-.392 1.574-.356 2.402.048 1.091.399 2.172.859 3.155.572 1.23 1.337 2.365 2.019 3.537.799 1.546 1.467 3.154 2.296 4.685 1.052 1.944 2.129 3.898 3.328 5.757 1.029 1.595 2.193 3.11 3.303 4.648.23.32.46.64.706.948.357.447.752.87 1.203 1.223.489.383 1.077.663 1.655.886.65.25 1.368.447 2.063.522a7.796 7.796 0 002.018-.059 16.213 16.213 0 004.695-1.502 37.69 37.69 0 002.73-1.484c.698-.417 1.33-.938 1.978-1.426 1.162-.876 2.388-1.655 3.625-2.42.61-.38 1.224-.752 1.838-1.125.122-.074.249-.148.376-.224.712-.418 1.49-.877 1.926-1.56l.353-.583c.188-.429.26-.877.215-1.342a2.676 2.676 0 00-.988-1.816 2.674 2.674 0 00-1.924-.567c-.646.064-1.451.417-1.816.988l-.004.007c-.262.188-.545.351-.818.52-.458.284-.921.563-1.382.843-.772.471-1.541.947-2.304 1.432a36.775 36.775 0 00-2.265 1.568c-.797.594-1.573 1.188-2.43 1.691-1.238.66-2.497 1.235-3.854 1.607a8.47 8.47 0 01-1.315.172 6.355 6.355 0 01-.53-.103 6.681 6.681 0 01-.58-.24 2.65 2.65 0 01-.117-.094c-.558-.676-1.05-1.413-1.561-2.12a493.097 493.097 0 01-1.906-2.652c-.616-.865-1.151-1.78-1.688-2.694-.502-.852-1-1.707-1.482-2.569-.707-1.324-1.327-2.684-1.974-4.038-.671-1.4-1.501-2.708-2.276-4.049a9.396 9.396 0 01-.6-1.419 5.907 5.907 0 01-.063-.545 6.36 6.36 0 01.299-.595c.415-.65.859-1.262 1.382-1.832.374-.335.759-.654 1.139-.98.559-.483 1.113-.966 1.683-1.433 1.02-.836 2.174-1.499 3.322-2.144a27.89 27.89 0 012.388-1.152 82.751 82.751 0 013.503-1.37c1.363-.496 2.038-2.109 1.524-3.44-.531-1.375-2.08-2.02-3.441-1.524-2.061.748-4.096 1.552-6.028 2.595a59.25 59.25 0 00-2.93 1.683z" fill="url(#paint0_linear_27465_7513)"/><path d="M16.778 54.6c.238 1.94.452 3.874.553 5.826.036.691.053 1.383.067 2.074l-.167 1.076a201.01 201.01 0 00-.505 3.468 51.214 51.214 0 00-.18 1.508c-.037.364-.075.73-.107 1.093-.018.2-.029.401-.034.602-.012.316-.022.633-.03.95.026.321.091.635.194.944.131.263.274.518.431.765.28.375.633.658 1.061.85.629.277 1.394.314 2.036.048.131-.054.257-.117.38-.185.238.04.484.05.731.026 1.333-.133 2.192-1.002 2.905-2.002.864-.426 1.707-.896 2.551-1.364 1.279-.7 2.555-1.402 3.809-2.146 1.146-.679 2.296-1.35 3.464-1.992l-.627.344c1.211-.662 2.402-1.34 3.556-2.098.485-.317.961-.644 1.432-.98.653-.465 1.221-1.026 1.781-1.596.534-.543.967-1.168 1.341-1.83.36-.224.673-.543.921-.862.708-.908.984-2.14 1.295-3.22.153-.53.294-1.062.446-1.592.061-.2.121-.403.175-.606.194-.729-.087-1.555-.491-2.149-.639-.938-2.056-1.362-3.097-.898-.459.204-.861.432-1.168.844a7.379 7.379 0 00-.555.896c-.193-.062-.392-.109-.585-.162-.413-.113-1.096.018-1.482.154-.294.105-.555.28-.824.437-.331.191-.598.515-.847.804-.112.13-.21.27-.299.415-.3.488-.57.957-.799 1.478-.162.37-.308.746-.458 1.121l-.218.55c-.496-.224-1.056-.329-1.563-.257-.614.086-1.073.24-1.587.583-.35.234-.64.551-.921.861-.165.181-.295.4-.421.608-.232.38-.459.756-.671 1.147-.142.265-.283.53-.427.793a3.699 3.699 0 00-.865-.304c-.539-.134-1.075-.034-1.588.156-.589.22-.94.614-1.375 1.043a5.04 5.04 0 00-.593.695c-.252.355-.477.727-.69 1.106a92.586 92.586 0 01-.018-.745c.112-.772.218-1.545.313-2.32.154-1.248.241-2.479.28-3.735l-.019.64c.011-.22.025-.44.046-.66a19.29 19.29 0 011.702-1.086c.371-.2.743-.398 1.115-.595.291-.155.585-.31.875-.466.41-.219.851-.412 1.238-.675l.449-.248.528-.297c1.046-.559 2.116-1.072 3.146-1.66.977-.56 1.857-1.259 2.789-1.888 1.003-.677 2.008-1.333 2.968-2.069.423-.325.85-.646 1.265-.98.494-.4.943-.855 1.415-1.28.534-.484.922-.98 1.042-1.713a2.676 2.676 0 00-.489-2.01 2.685 2.685 0 00-1.714-1.043c-.648-.105-1.503.033-2.009.49-.654.591-1.291 1.192-1.99 1.73-.712.55-1.418 1.111-2.163 1.613-.747.503-1.507.985-2.243 1.507-.629.446-1.249.894-1.911 1.29-.494.26-.993.511-1.49.767-.707.361-1.398.752-2.09 1.141-.192.08-.374.18-.543.301-.682.368-1.369.726-2.052 1.09-.804.428-1.59.871-2.348 1.365a2.604 2.604 0 00-2.757-.032c-.855.518-1.418 1.504-1.29 2.546zm9.03-5.286l.085-.046c-.028.014-.056.03-.085.046zm-2.821 7.754a5.485 5.485 0 00-.005.004l.005-.004zm16.162-4.695l-.025.083.025-.083z" fill="url(#paint1_linear_27465_7513)"/><path d="M27.869 5.393c-1.022.662-1.994 1.408-2.978 2.127-.446.327-.904.637-1.349.965-.428.314-.835.657-1.266.97-.535.385-1.036.817-1.56 1.218-.478.366-.952.738-1.422 1.115l-.374.301a1.461 1.461 0 00-.202.116c-1.1.76-2.218 1.485-3.36 2.18-.964.585-1.93 1.168-2.896 1.75-2.212 1.327-4.43 2.644-6.609 4.027-.929.59-1.887 1.151-2.781 1.794-.602.433-1.159.944-1.65 1.497-.373.42-.669.897-.927 1.395-.173.335-.264.718-.356 1.082-.045.176-.071.357-.097.537-.056.39-.046.805-.027 1.2.014.284.058.566.104.847.11.674.294 1.343.518 1.987.218.623.56 1.216.874 1.793a71.6 71.6 0 001.048 1.874c.325.562.651 1.124.995 1.674.352.566.731 1.116 1.107 1.666.695 1.023 1.374 2.058 2.074 3.077 1.4 2.041 2.665 4.17 3.945 6.288 1.357 2.245 2.759 4.465 4.337 6.563.451.6.971 1.177 1.666 1.493.651.297 1.34.396 2.049.384.301-.005.596-.065.886-.132.417-.097.827-.208 1.238-.328a14.874 14.874 0 001.67-.595c2.41-1.026 4.658-2.416 6.896-3.764.526-.316 1.052-.63 1.557-.978.549-.378 1.082-.778 1.621-1.173 1.082-.796 2.23-1.49 3.363-2.212 2.193-1.397 4.328-2.882 6.46-4.366 1.03-.719 2.035-1.47 3.07-2.179a60.28 60.28 0 001.638-1.154c.502-.367.997-.74 1.513-1.088.511-.346 1.032-.675 1.543-1.02.549-.37 1.093-.75 1.646-1.115.452-.297.916-.577 1.362-.884.514-.355 1.001-.746 1.495-1.13a14.49 14.49 0 001.522-1.354 3.38 3.38 0 00.403-.522c.241-.374.38-.694.502-1.122.078-.27.066-.574.065-.849a4.82 4.82 0 00-.077-.717 10.04 10.04 0 00-.446-1.776c-.441-1.227-1.144-2.36-1.803-3.478-.627-1.068-1.269-2.125-1.909-3.185-1.22-2.024-2.44-4.049-3.665-6.07-1.003-1.658-2.031-3.302-3.034-4.96-.957-1.586-1.93-3.162-2.833-4.779-.337-.617-.674-1.235-1.03-1.843-.26-.448-.536-.87-.886-1.255-.412-.452-.843-.87-1.426-1.092-.637-.243-1.307-.234-1.965-.099a9.77 9.77 0 00-2.053.644c-.576.258-1.151.525-1.713.814-1.126.577-2.212 1.231-3.297 1.881-.231.14-.463.278-.694.417-.833.505-1.663 1.014-2.482 1.543zm-7.211 8.713c.456-.373.917-.74 1.388-1.1.533-.407 1.043-.843 1.581-1.244.439-.327.877-.65 1.306-.99.421-.333.873-.623 1.305-.94.489-.359.981-.714 1.471-1.072a49.252 49.252 0 012.962-2.002 96.28 96.28 0 014.186-2.49 29.805 29.805 0 011.571-.78c.595-.277 1.19-.548 1.824-.72.248-.055.497-.1.751-.117l.084.012.065.03c.081.062.157.128.231.2.582.657.995 1.437 1.42 2.202-.057-.104-.115-.208-.171-.313a90.918 90.918 0 001.89 3.328l1.753 2.903c1.196 1.978 2.419 3.942 3.614 5.921l2.729 4.52c.938 1.553 1.895 3.098 2.782 4.68.396.74.753 1.496.973 2.307.079.366.143.74.159 1.112l-.011.078a2.305 2.305 0 01-.075.16 3.943 3.943 0 01-.37.445c-.407.371-.835.714-1.27 1.053-.469.364-.936.73-1.432 1.055-.484.318-.977.626-1.459.947-.56.373-1.111.763-1.672 1.134-.486.323-.978.635-1.457.968-.527.365-1.038.755-1.556 1.132-1.044.757-2.12 1.467-3.164 2.226-2.063 1.498-4.178 2.93-6.304 4.338-1.12.742-2.269 1.438-3.39 2.176-1.132.748-2.194 1.595-3.323 2.344-.733.486-1.503.923-2.257 1.375-.82.488-1.64.972-2.474 1.437-.812.44-1.637.863-2.481 1.238-.852.378-1.737.664-2.636.906a4.537 4.537 0 01-.788.096 3.467 3.467 0 01-.419-.075 3.058 3.058 0 01-.259-.106 2.742 2.742 0 01-.204-.17c-.362-.41-.677-.86-1-1.3-.336-.457-.651-.93-.967-1.399a86.715 86.715 0 01-2.323-3.627c-.663-1.095-1.322-2.192-1.991-3.28-.649-1.052-1.29-2.108-1.982-3.132-.876-1.292-1.748-2.588-2.625-3.88a57.12 57.12 0 01-2.608-4.283 23.937 23.937 0 01-.674-1.315 9.17 9.17 0 01-.521-1.484 7.79 7.79 0 01-.182-1.559c.026-.272.071-.535.137-.798.077-.205.171-.397.275-.587.209-.305.448-.576.701-.843.421-.382.862-.719 1.335-1.042.428-.29.873-.556 1.311-.83 1.011-.635 2.019-1.275 3.03-1.909 1.389-.873 2.802-1.712 4.214-2.552a291.42 291.42 0 002.278-1.363c.676-.408 1.354-.816 2.025-1.233.241-.149.479-.302.716-.457.351-.032.69-.2.93-.49l.051-.059c.319-.272.67-.516.997-.782zM53.29 25.941l.066.121-.066-.12z" fill="#2B2B2B"/><path d="M55.51 29.848a1.344 1.344 0 001.423 1.194c.192.024.383.06.574.089.27.04.537.08.805.128.793.144 1.574.344 2.367.486 1.722.308 3.463.56 5.147 1.047.018.005.037.01.055.017l.242.072c.078.03.16.055.242.072l.585.174c.752.227 1.5.469 2.245.716.747.246 1.495.526 2.184.91.135.089.265.182.388.286.018.023.036.047.053.072l.031.079c.007.054.011.108.014.162a2.792 2.792 0 01-.038.243 1.52 1.52 0 01-.03.07 5.735 5.735 0 01-.556.623c-.759.71-1.59 1.345-2.406 1.989a50.419 50.419 0 01-2.93 2.173c-1.094.744-2.149 1.542-3.232 2.302-1.09.762-2.185 1.517-3.268 2.288-1.08.77-2.18 1.512-3.258 2.286-1.086.78-2.184 1.544-3.269 2.324-1.068.768-2.106 1.576-3.159 2.366-1.1.826-2.22 1.625-3.338 2.429-1.123.81-2.254 1.612-3.35 2.46-1.09.84-2.165 1.694-3.317 2.449-1.116.734-2.247 1.44-3.343 2.204-1.079.752-2.158 1.502-3.27 2.203-2.262 1.422-4.566 2.777-6.814 4.224a140.691 140.691 0 01-3.263 2.029c-1.1.664-2.192 1.345-3.31 1.975-.579.312-1.183.627-1.809.827a7.015 7.015 0 01-.023-.666c.077-1.276.227-2.55.35-3.823.13-1.37.174-2.744.296-4.114.125-1.393.327-2.774.5-4.161.08-.654.157-1.31.217-1.965.074-.795.156-1.591.176-2.388.01-.466.024-.932.025-1.398.002-.34-.24-.705-.494-.907a1.342 1.342 0 00-.963-.284 1.338 1.338 0 00-.907.494c-.234.294-.283.6-.284.962-.002.377-.01.753-.019 1.129a84.631 84.631 0 01-.405 4.143c-.085.68-.187 1.36-.274 2.04a54.164 54.164 0 00-.214 2.082c-.124 1.386-.169 2.776-.303 4.16-.132 1.377-.306 2.76-.348 4.142-.008.312-.01.625.028.935.045.37.113.74.277 1.076.241.498.645.928 1.185 1.095.227.069.401.115.632.136.218.018.442.016.66-.001.234-.018.462-.097.687-.151.207-.051.406-.141.603-.222.307-.126.61-.272.908-.421 1.244-.625 2.427-1.37 3.618-2.09 1.157-.697 2.32-1.39 3.456-2.12a167.92 167.92 0 013.484-2.188c1.18-.72 2.36-1.441 3.532-2.172a75.448 75.448 0 003.251-2.164 116.448 116.448 0 013.44-2.286c1.157-.748 2.245-1.577 3.331-2.424 2.154-1.678 4.42-3.211 6.613-4.838 1.076-.797 2.135-1.62 3.215-2.414 1.078-.795 2.187-1.548 3.274-2.33 1.07-.772 2.16-1.512 3.235-2.274 1.084-.767 2.17-1.528 3.26-2.286 1.097-.764 2.158-1.577 3.263-2.327.99-.672 1.952-1.38 2.896-2.114.882-.685 1.772-1.37 2.601-2.121.55-.5 1.077-1.006 1.457-1.65.33-.555.448-1.337.363-1.977-.079-.59-.313-1.174-.717-1.617-.534-.586-1.242-.997-1.962-1.314-1.043-.458-2.14-.794-3.228-1.133a58.544 58.544 0 00-1.104-.332c-.158-.047-.31-.1-.465-.14a1.273 1.273 0 00-.28-.082l.226.068-.082-.025a7.998 7.998 0 01-.145-.044l-.064-.02.031.01a27.395 27.395 0 00-1.17-.331c-.497-.125-.999-.222-1.5-.323-.928-.186-1.859-.342-2.79-.505-.845-.146-1.674-.358-2.515-.511-.283-.051-.567-.091-.849-.134-.394-.061-.786-.14-1.186-.106-.198.016-.382.08-.544.177a1.347 1.347 0 00-.65 1.276zm1.566 1.186h.017-.017zM17.552 72.83l.046.026h-.004a.32.32 0 01-.042-.026zm.417.386l.053.097a1.31 1.31 0 01-.053-.097zm48.777-42.905l-.033-.01.033.01z" fill="#2B2B2B"/><path d="M72.498 34.258a1.344 1.344 0 00.211 1.868c.274.226.538.462.794.708.458.508.834 1.075 1.184 1.664.174.336.328.68.452 1.037-.124.133-.258.26-.388.385.052-.05.103-.102.156-.151-.43.41-.888.787-1.34 1.172-.446.377-.886.763-1.333 1.137a124.78 124.78 0 01-2.902 2.33c-1.03.81-2.036 1.652-3.088 2.435-1.072.796-2.187 1.532-3.246 2.345-.543.416-1.08.84-1.637 1.239-.587.42-1.187.823-1.79 1.22-1.12.737-2.207 1.527-3.324 2.267-1.102.73-2.235 1.413-3.317 2.175-.53.375-1.05.761-1.584 1.132-.552.382-1.124.736-1.692 1.089-1.12.694-2.207 1.436-3.296 2.178-1.06.724-2.124 1.443-3.16 2.199-1.05.764-2.115 1.502-3.17 2.258-.536.385-1.058.787-1.6 1.164-.556.388-1.13.748-1.702 1.113-1.16.737-2.274 1.538-3.415 2.303-1.137.763-2.33 1.437-3.469 2.198-.569.38-1.129.773-1.702 1.147-.612.397-1.242.763-1.872 1.131-1.154.677-2.3 1.368-3.462 2.032l-.056.03c-.546.29-1.095.541-1.688.713a4.071 4.071 0 01-.504.058 2.419 2.419 0 01-.115-.016l-.027-.011a3.904 3.904 0 01-.236-.19 6.7 6.7 0 01-.628-.885c-.217-.352-.44-.701-.649-1.057-.235-.471-.39-.96-.547-1.465-.214-.693-1.079-1.008-1.719-.762a1.337 1.337 0 00-.737.703c-.15.339-.132.67-.024 1.017.095.313.188.627.302.934.136.367.332.71.525 1.05.306.538.634 1.08.98 1.594.513.766 1.294 1.5 2.221 1.68.988.192 2.017-.071 2.93-.453.652-.27 1.27-.637 1.88-.991.562-.325 1.117-.66 1.674-.99 1.226-.722 2.48-1.405 3.658-2.2a93.808 93.808 0 013.488-2.272c.566-.35 1.131-.697 1.68-1.075.577-.397 1.146-.808 1.73-1.198 1.11-.743 2.264-1.424 3.35-2.203.545-.394 1.08-.8 1.63-1.188.508-.356 1.022-.704 1.528-1.065 1.062-.757 2.104-1.54 3.182-2.276 1.107-.758 2.213-1.523 3.334-2.26 1.096-.721 2.232-1.375 3.303-2.136.527-.374 1.045-.76 1.578-1.127a63.309 63.309 0 011.76-1.153 98.212 98.212 0 003.176-2.13c1.151-.797 2.341-1.536 3.467-2.368 1.08-.8 2.128-1.635 3.23-2.403a47.04 47.04 0 001.671-1.2c.507-.388 1.003-.79 1.5-1.188 1.024-.822 2.071-1.615 3.091-2.442.92-.747 1.81-1.53 2.718-2.291.504-.424.986-.861 1.454-1.323.148-.145.29-.295.43-.448.351-.388.56-.86.536-1.392-.016-.386-.152-.789-.283-1.152a7 7 0 00-.364-.838c-.335-.66-.718-1.325-1.17-1.913-.489-.636-1.076-1.198-1.696-1.705-.439-.358-1.06-.37-1.526-.09a1.29 1.29 0 00-.345.301zM24.46 13c-.537.357-1.066.727-1.593 1.096-.939.657-1.849 1.354-2.767 2.04-.898.673-1.846 1.264-2.789 1.872-1.537.992-3.102 1.937-4.587 3.008a29.604 29.604 0 00-2.008 1.589c-.347.296-.689.596-1.043.883-.157.128-.32.255-.479.39a1.82 1.82 0 00-.466.214 7.39 7.39 0 00-.776.53 9.54 9.54 0 00-.959.906c-.449.477-.849 1.042-1.1 1.646-.344.827-.435 1.709-.329 2.592.084.705.341 1.39.61 2.043.276.68.651 1.325 1.017 1.959.306.533.643 1.05 1.008 1.547.713.969 1.446 1.924 2.164 2.889a50.67 50.67 0 011.14 1.592c.381.559.725 1.14 1.104 1.7a63.797 63.797 0 002.291 3.178 33.769 33.769 0 002.652 3.005c.48.487.97.947 1.585 1.26.658.338 1.434.44 2.16.339.691-.094 1.338-.407 1.965-.69.6-.27 1.187-.566 1.764-.877 1.223-.657 2.407-1.385 3.596-2.1a36.21 36.21 0 001.721-1.092c.523-.355 1.034-.726 1.56-1.081 1.084-.733 2.223-1.384 3.315-2.108a851.195 851.195 0 003.21-2.14c1.045-.702 2.112-1.371 3.173-2.053 1.026-.66 2.003-1.411 2.975-2.148a44.302 44.302 0 012.99-2.106c.456-.291.908-.58 1.34-.904.48-.361.966-.722 1.437-1.097.277-.221.544-.481.771-.755.255-.308.417-.65.512-1.034.08-.317.094-.6.102-.93.012-.476-.118-.961-.263-1.417a7.045 7.045 0 00-.352-.893c-.566-1.193-1.298-2.312-1.979-3.443-.587-.972-1.18-1.942-1.775-2.912a513.056 513.056 0 01-4.048-6.717c-.648-1.09-1.302-2.174-1.957-3.26-.283-.47-.558-.947-.856-1.406-.555-.858-1.512-1.35-2.517-1.41-1.624-.096-3.153.634-4.583 1.323-.709.343-1.41.7-2.104 1.077-.694.378-1.373.78-2.063 1.165-1.033.552-2.077 1.076-3.083 1.682l-.568.34c-.376.233-.752.464-1.119.709zM11.914 25.07c.42-.36.837-.722 1.27-1.066a35.488 35.488 0 012.78-1.99c.957-.622 1.928-1.223 2.89-1.838.936-.602 1.878-1.191 2.773-1.857 1.11-.824 2.202-1.664 3.345-2.443.672-.458 1.337-.92 2.033-1.341a58.221 58.221 0 011.705-1.008c.522-.28 1.054-.542 1.575-.822.698-.374 1.38-.782 2.071-1.17.812-.436 1.636-.85 2.468-1.244.707-.338 1.431-.646 2.185-.862.237-.044.472-.07.713-.08.1.01.2.024.298.042l.098.04c.033.026.066.05.098.078.28.35.491.76.721 1.143l1.007 1.668c.65 1.079 1.292 2.16 1.936 3.243a453.092 453.092 0 003.967 6.54c.454.735.896 1.478 1.342 2.218.41.677.825 1.352 1.213 2.04.27.515.49 1.037.646 1.593.014.1.023.198.028.296a3.326 3.326 0 01-.03.2 3.738 3.738 0 01-.167.189c-.42.368-.89.685-1.33 1.028-.432.337-.88.647-1.343.937a40.631 40.631 0 00-2.963 2.058c-.98.74-1.959 1.489-2.978 2.177-.529.356-1.079.68-1.616 1.024-.528.336-1.049.685-1.57 1.033-1.07.717-2.146 1.426-3.216 2.144-1.09.73-2.227 1.388-3.322 2.113-1.08.715-2.12 1.484-3.229 2.158-1.079.653-2.157 1.315-3.259 1.929-.53.284-1.07.552-1.616.807-.46.214-.926.43-1.413.582a3.207 3.207 0 01-.323.03 2.93 2.93 0 01-.23-.04 2.83 2.83 0 01-.253-.11 7.703 7.703 0 01-.93-.83 34.283 34.283 0 01-2.287-2.635 63.245 63.245 0 01-2.29-3.182c-.38-.56-.724-1.143-1.105-1.702a45.589 45.589 0 00-1.13-1.573c-.728-.982-1.473-1.955-2.199-2.94a17.474 17.474 0 01-1.106-1.741c-.37-.694-.693-1.41-.916-2.166a5.576 5.576 0 01-.086-.73c.02-.194.05-.385.091-.577.06-.165.13-.324.208-.481.228-.34.492-.647.775-.941a7.36 7.36 0 01.576-.454c.365-.022.72-.185.947-.493.025-.034.051-.066.078-.097.353-.304.717-.594 1.07-.897zm37.102 3.465a.997.997 0 01-.042.07l.042-.07zM23.915 45.316z" fill="#2B2B2B"/><path d="M45.484 49.605l-.018.018c-.669.637-1.355 1.257-2.022 1.898a20.888 20.888 0 01-2.454 2.028c-.592.418-.7 1.289-.277 1.862.44.592 1.27.694 1.861.276a21.205 21.205 0 002.517-2.088c.817-.786 1.664-1.542 2.474-2.334.232-.227.314-.654.284-.963a1.34 1.34 0 00-.494-.907 1.341 1.341 0 00-.962-.284c-.116.029-.23.056-.347.083a1.31 1.31 0 00-.562.411zM33.418 15.467c-.188.126-.373.256-.555.387-.297.214-.587.441-.863.682a64.953 64.953 0 00-1.727 1.546l.001.001a1.353 1.353 0 00-.422.521l-.005.008a1.34 1.34 0 00.388 1.578c.183.145.388.235.617.275.32.052.758-.014 1.006-.245l.356-.332c-.3 1.15-.523 2.323-.769 3.485a278.111 278.111 0 00-.848 4.177c-.14.717-.266 1.435-.393 2.153-.11.633-.208 1.271-.347 1.9a10.065 10.065 0 01-1.052-.242c-.622-.19-1.242-.387-1.869-.56-.574-.16-1.156-.286-1.729-.447-.95-.289-1.905-.57-2.885-.754a3.018 3.018 0 00-.403-.05c-.4-.018-.85.017-1.175.293a3.253 3.253 0 00-.314.296c-.167.21-.248.437-.31.693l-.064.278c-.11.478-.229.951-.337 1.428-.485 2.135-.87 4.291-1.35 6.427-.159.71.418 1.415 1.101 1.527.352.057.717-.033 1.004-.245.291-.216.444-.51.522-.856.327-1.463.614-2.932.914-4.4.18-.883.376-1.764.58-2.642l.201.048c.386.088.766.19 1.147.3.507.155 1.015.31 1.527.443.495.13.993.246 1.486.382.616.191 1.23.396 1.856.555.291.074.585.141.883.18.767.098 1.65.091 2.184-.569.32-.395.493-.815.622-1.303.056-.214.104-.428.146-.646.073-.384.144-.77.21-1.157.118-.672.233-1.343.36-2.014.265-1.432.564-2.86.86-4.29.26-1.262.518-2.526.824-3.777a39.77 39.77 0 01.445-1.624 1.3 1.3 0 00.09-.302l.014-.05c.068-.224.134-.447.2-.67.222-.707.645-1.66.08-2.308-.286-.327-.736-.63-1.2-.532-.155.032-.31.052-.452.123a6.49 6.49 0 00-.555.329z" fill="#2B2B2B"/><path d="M33.381 15.985c-.129.291-.178.722-.026 1.018.307.588.61 1.18.903 1.774.169.344.339.687.518 1.024.131.245.265.488.402.732.087.16.171.321.287.463.456.563 1.259.723 1.861.276.564-.416.733-1.296.277-1.86-.162-.2-.277-.445-.401-.67l.171.313c-.536-.989-1.015-2.01-1.535-3.012-.17-.327-.351-.582-.701-.737a1.337 1.337 0 00-1.225.076 1.33 1.33 0 00-.531.603zm21.697 17.904c-.41.262-.823.518-1.232.783-.75.49-1.488 1.008-2.27 1.45-.596.323-1.194.644-1.78.986a13.93 13.93 0 00-1.522 1.06c-.968.762-1.917 1.545-2.916 2.267-.458.332-.899.685-1.347 1.029-.522.4-1.063.775-1.594 1.163-1.064.777-2.192 1.465-3.283 2.2-.507.343-.998.708-1.512 1.04-.536.345-1.073.689-1.604 1.04-1.079.716-2.19 1.382-3.288 2.067-1.085.679-2.117 1.434-3.199 2.118-.918.582-1.85 1.143-2.78 1.706-.192.116-.382.232-.577.343-.46.25-.924.497-1.39.734-.347.176-.703.337-1.048.518-.329.173-.66.34-.984.523-.15.084-.308.166-.463.256a1.34 1.34 0 00-.757.47c-.235.294-.278.598-.283.962-.007.425-.017.849-.025 1.275-.026.612-.068 1.22-.13 1.832a60.794 60.794 0 00-.167 1.805 26.73 26.73 0 00-.056.89c-.019.436-.072.975.1 1.393.166.4.462.753.885.89l.326.099c.177.018.354.017.53-.006.232-.02.505-.12.73-.194.258-.085.5-.248.733-.384.152-.088.298-.19.442-.291.517-.362.963-.8 1.444-1.205.525-.444 1.081-.85 1.613-1.284.508-.416.988-.865 1.48-1.302.48-.426.986-.818 1.506-1.192.99-.716 1.931-1.498 2.938-2.188.49-.337.974-.673 1.445-1.034.478-.368.954-.741 1.445-1.091 1.027-.732 2.111-1.372 3.16-2.071.527-.353 1.044-.724 1.571-1.077.49-.328.981-.65 1.47-.978 1.01-.674 2.027-1.338 3.035-2.017.924-.624 1.771-1.352 2.697-1.975.957-.644 1.946-1.241 2.93-1.845.354-.217.711-.431 1.068-.645.667-.401 1.335-.802 1.988-1.226 1.013-.657 2.042-1.288 3.061-1.936 1.075-.682 2.124-1.405 3.196-2.095.415-.266.834-.535 1.206-.86.234-.207.444-.412.576-.7.185-.4.19-.801.064-1.218-.125-.417-.462-.727-.77-1.014-.214-.195-.49-.348-.736-.496-.556-.334-1.146-.591-1.742-.844-.74-.314-1.536-.748-2.364-.576a3.98 3.98 0 00-1.232.484 17.931 17.931 0 00-.588.361zm2.086 1.804c.026-.008.052-.014.078-.02 0 0-.002 0-.003.002l-.075.018zm-3.599 2.332c.418-.258.83-.527 1.24-.798.737-.49 1.478-.994 2.244-1.442.082-.04.165-.073.25-.104.38.138.748.312 1.12.47.273.118.544.238.811.368l-.02.014c-.55.356-1.106.707-1.652 1.069a120.796 120.796 0 01-3.13 2.018c-1.042.645-2.063 1.32-3.11 1.954a359.68 359.68 0 00-2.844 1.737 32.595 32.595 0 00-2.883 1.964c-.896.697-1.839 1.317-2.782 1.947l-3.058 2.035c-.54.359-1.072.735-1.61 1.1-.525.357-1.064.69-1.602 1.029a36.545 36.545 0 00-2.962 2.094c-.918.712-1.9 1.33-2.815 2.046-1.012.793-2.09 1.507-3.063 2.349-.496.428-.973.877-1.47 1.3-.519.44-1.079.829-1.599 1.267-.346.292-.68.594-1.026.88.036-.395.076-.79.117-1.186.096-.94.135-1.878.158-2.82l.064-.036.325-.186c.408-.217.824-.42 1.241-.621a33.855 33.855 0 002.78-1.508c.924-.56 1.85-1.12 2.765-1.694 1.082-.68 2.11-1.438 3.193-2.117 1.094-.684 2.202-1.352 3.282-2.06.534-.35 1.068-.698 1.606-1.042.52-.333 1.015-.7 1.525-1.047 1.087-.74 2.216-1.423 3.28-2.197.53-.386 1.07-.763 1.592-1.157.448-.338.88-.694 1.335-1.023.434-.314.871-.626 1.288-.966a65.47 65.47 0 011.276-1.02c.44-.343.877-.687 1.335-1.005.407-.282.84-.527 1.273-.767.487-.263.98-.517 1.454-.803.026-.014.05-.028.072-.042zm3.675-2.351l.002-.001a.155.155 0 01-.002 0z" fill="#2B2B2B"/><defs><linearGradient id="paint0_linear_27465_7513" x1="4" y1="42" x2="37.5" y2="20.5" gradientUnits="userSpaceOnUse"><stop stop-color="#46A3BB"/><stop offset=".445" stop-color="#46A3BB"/><stop offset=".445" stop-color="#E2FF5E"/></linearGradient><linearGradient id="paint1_linear_27465_7513" x1="17.77" y1="64.496" x2="44.185" y2="48.984" gradientUnits="userSpaceOnUse"><stop stop-color="#46A3BB"/><stop offset=".445" stop-color="#46A3BB"/><stop offset=".445" stop-color="#E2FF5E"/></linearGradient></defs></svg>