<svg width="69" height="70" viewBox="0 0 69 70" fill="none" xmlns="http://www.w3.org/2000/svg"><path d="M17.34 5.194c-1.817 1.496-3.5 3.147-5.12 4.854-.292.307-.584.615-.861.934a13.608 13.608 0 00-1.548 2.18c-.467.81-.86 1.664-1.263 2.507-.844 1.767-1.818 3.47-2.611 5.26-.358.809-.654 1.645-.938 2.48a44.586 44.586 0 00-.98 3.24c-.482 1.87-.738 3.799-.928 5.717-.113 1.148-.204 2.302-.204 3.457 0 .875.074 1.749.163 2.618a39.913 39.913 0 002.306 9.939c.646 1.735 1.313 3.47 2.15 5.124.503.994 1.054 1.946 1.713 2.844.664.899 1.468 1.694 2.275 2.463 1.335 1.275 2.649 2.588 4.206 3.596 1.755 1.134 3.519 2.237 5.46 3.029 1.805.736 3.658 1.412 5.564 1.839 1.965.44 4.014.634 6.022.72 1.708.074 3.425-.011 5.128-.128.892-.063 1.778-.184 2.664-.305.923-.127 1.854-.236 2.772-.405 1.72-.316 3.423-.781 5.103-1.26.669-.191 1.327-.42 1.992-.622.55-.168 1.117-.294 1.677-.42.645-.146 1.235-.81 1.498-1.38a2.664 2.664 0 00-1.295-3.532c-.215-.07-.432-.138-.648-.206a2.66 2.66 0 00-1.386.12c-1.156.263-2.273.616-3.403.966a52.625 52.625 0 01-3.568.95c-.906.176-1.821.296-2.735.422-.994.139-1.987.276-2.99.357-1.626.132-3.275.2-4.91.15-2.137-.14-4.301-.421-6.36-1.021a47.812 47.812 0 01-3.316-1.252c-1.287-.538-2.478-1.25-3.656-1.984a15.52 15.52 0 01-1.326-.915c-.463-.366-.903-.76-1.34-1.16a60.243 60.243 0 01-2.47-2.352 15.75 15.75 0 01-1.79-2.572c-.822-1.67-1.484-3.414-2.135-5.157a36.876 36.876 0 01-1.332-4.41 41.013 41.013 0 01-.511-3.347c-.148-1.254-.24-2.513-.21-3.774.192-2.894.616-5.791 1.45-8.572.597-1.81 1.297-3.556 2.192-5.245.507-.955.996-1.917 1.462-2.891.435-.912.86-1.834 1.367-2.71.61-.846 1.35-1.592 2.068-2.347.676-.712 1.378-1.395 2.082-2.08.533-.47 1.064-.941 1.613-1.392.549-.451.943-.978 1.072-1.694a2.672 2.672 0 00-.453-2.017 2.68 2.68 0 00-1.695-1.073c-.567-.102-1.252-.018-1.773.284-.085.053-.167.11-.243.173z" fill="#E2FF5E"/><path d="M17.837 42.029c-.64 1.093-1.283 2.183-1.768 3.355-.524 1.269-.739 2.587-.849 3.943-.102 1.27-.153 2.533.003 3.798.055.447.151.885.212 1.329.095.705.068 1.452.336 2.124.537 1.346 2.023 2.093 3.414 1.583 1.284-.47 2.062-1.953 1.636-3.266-.023-.23-.036-.461-.06-.69-.042-.4-.125-.79-.188-1.186a12.994 12.994 0 01-.142-2.371c.061-.954.154-1.907.395-2.833.47-1.25 1.163-2.4 1.838-3.547.34-.578.306-1.43.085-2.035a2.676 2.676 0 00-1.379-1.498 2.67 2.67 0 00-2.034-.083c-.21.11-.42.22-.63.332-.382.273-.67.62-.869 1.045zm16.339-8.469a21.407 21.407 0 00-1.563 2.517c-.392.76-.642 1.59-.86 2.414-.407 1.547-.474 3.174-.538 4.765a13.39 13.39 0 00.297 3.448c.058.266.113.532.171.797l.002.004a43.369 43.369 0 00.079.359l.002.014.073.324c.165.45.433.83.802 1.136a2.685 2.685 0 001.913.6 2.682 2.682 0 001.834-.956c.39-.474.739-1.282.6-1.914l-.047-.22a2.593 2.593 0 00-.146-.661 13.95 13.95 0 01-.202-1.113c-.098-.753-.099-1.517-.072-2.276.076-1.213.221-2.416.536-3.591.233-.605.526-1.17.854-1.726.122-.177.243-.354.367-.53.413-.582.663-1.185.602-1.914a2.674 2.674 0 00-.958-1.833 2.676 2.676 0 00-1.913-.601 2.855 2.855 0 00-1.166.369 2.126 2.126 0 00-.667.588zm15.906-7.134c-.746.807-1.441 1.673-1.891 2.687-.405.91-.691 1.904-.744 2.905a19.93 19.93 0 00-.041 1.692c.015.496.074.992.125 1.484.039.377.073.754.135 1.127.05.299.118.594.187.889.008.05.015.1.02.15.044.384.11.746.212 1.126.175.65.788 1.225 1.379 1.498a2.666 2.666 0 002.034.085 2.664 2.664 0 001.498-1.38c.236-.507.273-.993.199-1.498l.015.069a16.097 16.097 0 00-.205-1.201l.049.226c-.128-.582-.183-1.17-.243-1.763-.06-.591-.104-1.18-.105-1.774.034-.351.089-.696.169-1.04.11-.277.236-.544.379-.805.287-.383.605-.734.93-1.086.985-1.065.716-2.863-.355-3.747a2.676 2.676 0 00-1.914-.601 2.526 2.526 0 00-1.077.339c-.276.16-.527.37-.756.618z" fill="#46A3BB"/><path d="M26.228 20.072c-.188.11-.356.274-.518.417-.194.169-.375.353-.557.536-.493.499-.875 1.102-1.183 1.73-.134.27-.244.55-.345.834-.136.376-.282.754-.376 1.142-.179.734-.328 1.462-.348 2.219-.019.775.113 1.526.281 2.28a10.928 10.928 0 001.732 3.906c.45.639 1.043 1.182 1.653 1.664a7.226 7.226 0 001.757 1.028c.602.24 1.237.352 1.877.427.642.074 1.288.123 1.935.119.845-.005 1.665-.308 2.418-.67.592-.284 1.17-.608 1.738-.936 1.222-.704 2.02-1.89 2.69-3.095.321-.576.521-1.241.64-1.885.075-.397.07-.823.073-1.223a11.71 11.71 0 00-.024-.937 13.123 13.123 0 00-.317-2.195c-.174-.725-.522-1.376-.874-2.03-.29-.541-.662-1.02-1.07-1.476a9.666 9.666 0 00-.789-.806c-.328-.284-.694-.512-1.062-.738-.883-.545-1.844-.977-2.876-1.143-.88-.143-1.783-.183-2.668-.045-.266.04-.528.096-.789.152l.111-.025c-.323.07-.642.134-.974.12a2.368 2.368 0 00-.42.01 2.955 2.955 0 00-.567.129 1.33 1.33 0 00-.13.053 9.87 9.87 0 00-.297.076 1.874 1.874 0 00-.45.203c-.095.05-.184.107-.27.159zm1.55 2.173c.211-.002.421-.054.61-.153.13-.001.26.007.391.004.34-.007.69-.096 1.023-.176a7.979 7.979 0 011.652-.162c.444.035.894.103 1.324.22a8.687 8.687 0 011.553.752c.35.235.663.499.96.798.388.443.725.904 1.016 1.414.21.423.394.844.52 1.3.166.877.218 1.766.212 2.659a5.187 5.187 0 01-.144.89 7.586 7.586 0 01-.612 1.244 7.778 7.778 0 01-.814 1.046c-.47.39-1 .687-1.54.975a8.94 8.94 0 01-1.45.608 6.2 6.2 0 01-.927.055c-.688-.041-1.39-.11-2.054-.287a5.651 5.651 0 01-.848-.408 9.65 9.65 0 01-1.182-.963 9.19 9.19 0 01-.917-1.285 11.13 11.13 0 01-.823-2.25 9.413 9.413 0 01-.177-1.655c.061-.588.176-1.176.34-1.745.205-.59.43-1.16.735-1.703.22-.313.467-.59.737-.86.134-.114.27-.22.414-.318z" fill="#fff"/><path d="M32.638 34.134c-.494.477-1.008.945-1.441 1.48-.44.542-.778 1.159-1.072 1.789-.308.66-.573 1.364-.712 2.08-.14.736-.177 1.49-.188 2.239-.01.646.04 1.296.09 1.939.05.677.107 1.354.182 2.028.067.6.19 1.19.309 1.78.146.718.286 1.435.46 2.145.066.263.135.523.21.783.079.265.174.505.32.747.088.146.202.28.332.39.236.204.43.27.719.359.424.133.909-.004 1.31-.163.297-.118.59-.247.887-.37 1.299-.548 2.552-1.208 3.782-1.892 1.157-.644 2.303-1.312 3.45-1.97a51.778 51.778 0 003.347-2.067c1.05-.713 2.146-1.351 3.209-2.042.444-.288.893-.564 1.347-.835.155-.092.31-.182.463-.277.552-.344.89-.925.843-1.585-.05-.716-.406-1.354-.733-1.974a9.855 9.855 0 00-.88-1.341 18.365 18.365 0 00-3.07-3.123c-1.755-1.424-3.94-2.165-6.183-2.274-.731-.036-1.476-.067-2.198.072-.333.066-.65.16-.976.238-.217.052-.418.129-.628.2-.686.238-1.04 1.036-.791 1.708.253.69 1.02 1.028 1.707.79.31-.107.622-.21.942-.29.539-.097 1.09-.11 1.638-.091.843.053 1.666.19 2.477.426a9.493 9.493 0 011.619.755c.898.603 1.722 1.343 2.47 2.122.615.682 1.187 1.42 1.636 2.224.042.083.083.166.12.25l-.37.223c-.51.308-1.008.636-1.51.957-.51.324-1.028.63-1.541.95-.551.347-1.086.718-1.627 1.079-1.085.724-2.213 1.372-3.345 2.018-1.185.677-2.362 1.37-3.561 2.019-.094.052-.19.102-.283.152a39.18 39.18 0 01-1.736.848c-.275.126-.556.24-.835.357-.05-.201-.092-.404-.135-.602l.04.185c-.255-1.2-.514-2.394-.637-3.615-.125-1.235-.244-2.494-.21-3.737a8.689 8.689 0 01.28-1.785c.214-.61.486-1.201.81-1.76.482-.691 1.112-1.262 1.714-1.845.235-.225.327-.646.3-.957a1.341 1.341 0 00-.477-.916 1.34 1.34 0 00-.957-.301c-.2.017-.365.074-.516.162a2.16 2.16 0 00-.401.318zm-4.599-5.209a1.334 1.334 0 001.073 1.545c.377.068.689-.041 1.01-.227.284-.165.48-.534.536-.846a1.334 1.334 0 00-1.073-1.546c-.377-.068-.69.04-1.01.227-.284.166-.48.535-.536.847zm4.309-1.876a1.334 1.334 0 001.073 1.546c.377.068.69-.041 1.01-.227.284-.165.48-.534.535-.846a1.334 1.334 0 00-1.073-1.546c-.377-.068-.689.04-1.01.227-.283.165-.479.534-.535.846zM13.59 31.238c-.65.54-1.34 1.068-1.91 1.694-.313.343-.61.754-.794 1.178a9.412 9.412 0 00-.406 1.193c-.213.74-.28 1.504-.264 2.273.014.728.179 1.451.389 2.147.209.689.542 1.378.942 1.973.213.316.475.614.754.87.326.302.692.529 1.069.763.504.313 1.057.552 1.612.764.382.146.778.266 1.173.368a4.81 4.81 0 001.504.119c.698-.043 1.377-.283 2.013-.563.444-.196.877-.418 1.294-.667.535-.321 1.007-.8 1.45-1.235.209-.203.372-.432.522-.68.197-.323.302-.68.414-1.04.106-.338.214-.673.289-1.02.15-.69.168-1.422.117-2.125a10.002 10.002 0 00-.21-1.54 9.785 9.785 0 00-.31-1.036 5.89 5.89 0 00-1.043-1.82c-.493-.59-1.026-1.126-1.671-1.549a7.95 7.95 0 00-1.088-.618 5.522 5.522 0 00-1.087-.33c-1.045-.223-2.104.164-3.102.445-.226.063-.451.127-.671.205a1.216 1.216 0 00-.84.127 1.14 1.14 0 00-.145.104zm1.124 2.519a.985.985 0 00.373-.086c.238-.11.483-.191.734-.27.483-.15.975-.28 1.465-.404.135-.023.269-.038.406-.043.17.023.337.058.502.103.226.09.44.195.65.315.334.227.646.469.937.751.283.317.549.644.77 1.008.185.408.33.836.444 1.27.103.586.13 1.188.128 1.783a7.84 7.84 0 01-.126.834c-.07.32-.178.632-.275.944.033-.11.068-.216.102-.325a4.22 4.22 0 01-.196.491 5.777 5.777 0 01-.343.374c-.336.297-.68.575-1.068.803-.47.235-.954.447-1.46.587a5.242 5.242 0 01-.612.051 5.856 5.856 0 01-.765-.166 10.396 10.396 0 01-1.89-.862 5.094 5.094 0 01-.525-.433 6.034 6.034 0 01-.43-.61 8.223 8.223 0 01-.558-1.516 7.142 7.142 0 01-.111-1.281c.04-.474.132-.93.258-1.392.073-.206.152-.406.25-.602.174-.243.367-.463.578-.675.253-.22.507-.435.762-.649z" fill="#fff"/><path d="M18.013 41.729c-.259.192-.519.381-.772.58-.394.309-.706.677-1.01 1.069-.199.256-.374.532-.554.801-.226.342-.449.696-.635 1.063-.342.677-.594 1.39-.807 2.118-.188.64-.32 1.283-.38 1.945-.118 1.335-.16 2.666.071 3.989.226 1.289.634 2.563 1.077 3.792.118.328.247.65.384.97.132.31.271.668.467.938.32.443.917.702 1.46.585.273-.058.5-.115.746-.236.381-.187.751-.396 1.125-.597a76.52 76.52 0 004.015-2.219c.666-.391 1.331-.783 1.998-1.171.612-.355 1.218-.724 1.84-1.064.29-.146.588-.279.881-.423.304-.148.602-.308.9-.469.613-.31 1.258-.558 1.903-.795.232-.085.476-.125.707-.211.39-.145.798-.314 1.147-.537.61-.39.713-1.289.31-1.856-.43-.602-1.22-.697-1.827-.329a6.376 6.376 0 01-.627.254c-.274.092-.555.152-.827.257-.367.142-.736.271-1.09.442-.175.084-.355.156-.532.239-.249.114-.489.25-.732.381-.704.361-1.424.684-2.11 1.081a878 878 0 00-2.162 1.257c-1.386.809-2.756 1.644-4.172 2.398-.384.199-.768.399-1.15.6a26.62 26.62 0 01-.284-.776 26.703 26.703 0 01-.734-2.428 12.152 12.152 0 01-.2-1.381c-.043-.494-.035-.99-.018-1.484.026-.447.063-.892.125-1.335.068-.492.201-.973.34-1.45.232-.66.515-1.291.872-1.893.301-.456.61-.911.98-1.315.265-.218.546-.42.823-.624.581-.43.736-1.258.31-1.856-.39-.546-1.167-.719-1.742-.385a1.151 1.151 0 00-.116.075zm2.582-.839c.06.725.712 1.272 1.435 1.217.438-.034.88-.077 1.32-.08.25.029.497.082.747.115.225.03.452.036.678.053.42.033.85.055 1.26.157.413.15.811.342 1.213.518.392.172.78.357 1.148.573.173.116.344.236.518.349.304.198.582.332.957.3.354-.028.688-.203.916-.477a1.34 1.34 0 00.301-.957c-.027-.322-.197-.732-.479-.917-.317-.206-.624-.422-.945-.621a9.51 9.51 0 00-.956-.508c-.746-.354-1.526-.731-2.333-.912-.544-.122-1.12-.107-1.675-.16-.472-.046-.923-.152-1.4-.162-.497-.01-.995.04-1.489.078a1.277 1.277 0 00-.547.17c-.433.25-.713.742-.669 1.264zm28.832-15.18c-1.081.732-1.996 1.711-2.778 2.748-.708.94-1.165 2.022-1.484 3.147-.156.547-.22 1.13-.275 1.694a11.986 11.986 0 00-.003 2.058c.052.723.718 1.276 1.435 1.217a1.345 1.345 0 001.217-1.435 14.184 14.184 0 01-.042-1.183c.048-.663.134-1.33.313-1.97.183-.536.41-1.06.693-1.553a13.056 13.056 0 011.606-1.883 8.68 8.68 0 011.255-.926c.274-.132.56-.25.85-.336.245-.038.492-.056.737-.085.457-.055.909-.1 1.369-.09.464.024.934.056 1.384.171a9.459 9.459 0 011.817.851l.58.365c.55.361 1.052.798 1.573 1.2.467.36.924.751 1.34 1.17.259.3.488.626.723.944l.072.095c-.3.21-.61.404-.921.6-.556.348-1.115.696-1.666 1.053a159.644 159.644 0 01-3.425 2.182c-.575.354-1.136.731-1.706 1.091-.536.337-1.078.66-1.621.985-.507.304-1.014.604-1.524.903-.44.256-.873.526-1.32.771a2.679 2.679 0 01-.278.128 1.3 1.3 0 00-.704.437c-.22.265-.33.613-.302.956.058.691.717 1.32 1.436 1.218.659-.094 1.233-.482 1.799-.81.505-.293 1.01-.588 1.514-.885a93.574 93.574 0 003.29-2.013c1.132-.732 2.275-1.449 3.41-2.173.6-.383 1.197-.77 1.798-1.152.555-.354 1.12-.688 1.669-1.056.164-.11.324-.229.483-.349.274-.209.558-.454.77-.723.332-.42.47-1 .28-1.516a2.192 2.192 0 00-.36-.604c-.435-.554-.828-1.15-1.292-1.68-.567-.65-1.243-1.226-1.931-1.746-.322-.244-.63-.503-.948-.749-.354-.274-.737-.503-1.116-.738-.51-.325-1.016-.646-1.577-.877-.552-.227-1.118-.462-1.708-.568-.277-.049-.566-.058-.844-.08a15.007 15.007 0 00-1.198-.057c-.456.002-.91.08-1.361.125-.495.052-.982.13-1.45.314a8.319 8.319 0 00-1.162.554c-.142.08-.281.167-.417.26zm.038 13.87l-.047.022.142-.075a2.88 2.88 0 01-.095.052z" fill="#fff"/><path d="M42.467 16.615c-.53.509-.947 1.089-1.33 1.715-.369.6-.66 1.277-.747 1.98a5.554 5.554 0 00.205 2.328c.203.67.516 1.34.863 1.945.182.32.376.628.584.933.285.415.648.779.991 1.145.407.435.93.723 1.456.989.363.182.776.314 1.166.418.766.205 1.608.234 2.397.232.458 0 .947-.075 1.374-.234.305-.113.602-.253.9-.381.29-.125.53-.305.688-.571.242-.208.472-.43.715-.634.414-.352.851-.657 1.205-1.077a7.85 7.85 0 00.852-1.265c.227-.411.35-.888.39-1.353a8.607 8.607 0 00-.582-3.886c-.469-1.182-1.22-2.205-2.11-3.103-1.096-1.105-2.719-1.368-4.208-1.406-.542-.014-1.114.116-1.63.264-.503.144-.969.422-1.428.665a9.175 9.175 0 00-.217.12 8.298 8.298 0 00-1.534 1.176zm3.368.836a5.9 5.9 0 01.856-.333 5.45 5.45 0 01.892-.073c.474.04.938.13 1.4.25.104.042.206.088.307.14.201.144.386.302.564.476.383.433.727.9 1.017 1.402.232.477.418.967.551 1.48.091.52.132 1.05.13 1.578a3.389 3.389 0 01-.062.4c-.047.112-.1.22-.16.325a6.066 6.066 0 01-.607.792c-.24.203-.496.385-.732.594-.242.213-.474.437-.728.637a1.583 1.583 0 00-.243.24 5.61 5.61 0 01-.618.243 5.783 5.783 0 01-.873.042 7.767 7.767 0 01-1.357-.183 6.325 6.325 0 01-.989-.448 3.761 3.761 0 01-.433-.384 9.571 9.571 0 01-1.066-1.49c-.248-.5-.479-1.02-.629-1.558a5.075 5.075 0 01-.056-.652c.02-.195.05-.385.097-.576.117-.296.263-.577.425-.851a8.13 8.13 0 01.86-1.053 8.972 8.972 0 011.454-.998zm-1.248 7.009l.053.056a1.402 1.402 0 01-.053-.056zM14.51 38.659a1.334 1.334 0 001.073 1.545c.378.068.69-.041 1.01-.227.284-.165.48-.534.536-.846.064-.351-.02-.72-.227-1.01-.2-.28-.507-.475-.846-.536-.377-.068-.689.04-1.01.227-.284.165-.48.535-.536.847zm3.095-1.582a1.333 1.333 0 001.073 1.546c.377.068.69-.041 1.01-.227.284-.165.48-.534.535-.846a1.332 1.332 0 00-1.073-1.545c-.377-.068-.689.04-1.01.227-.283.163-.479.533-.535.845z" fill="#fff"/><path d="M44.175 22.589a1.334 1.334 0 001.072 1.545c.377.068.69-.041 1.01-.227.285-.165.48-.534.535-.846a1.334 1.334 0 00-1.073-1.546c-.377-.068-.688.041-1.01.227-.283.166-.479.535-.535.847zm3.511-1.932a1.334 1.334 0 001.073 1.546c.377.068.69-.041 1.01-.227.284-.165.48-.534.535-.846a1.334 1.334 0 00-1.073-1.545c-.377-.068-.689.04-1.01.227-.283.163-.479.532-.535.845z" fill="#fff"/><path d="M16.358 5.812a2.146 2.146 0 00-.139.079c-.532.333-1.055.68-1.567 1.04-.591.414-1.171.846-1.737 1.298a34.735 34.735 0 00-5.313 5.297l-.043.056-.118.147c-2.57 3.228-4.525 6.947-5.778 10.872a35.27 35.27 0 00-1.39 6.223A35.217 35.217 0 00.05 37.11c.208 4.09 1.213 8.159 2.86 11.903a35.684 35.684 0 003.035 5.49c1.177 1.754 2.542 3.368 4.013 4.88 2.837 2.917 6.258 5.27 9.933 6.998 3.703 1.74 7.747 2.79 11.822 3.12 2.09.172 4.192.152 6.28-.052 2.041-.201 4.069-.617 6.043-1.173 4.047-1.14 7.88-3.105 11.24-5.623a34.026 34.026 0 008.32-9.052 35.159 35.159 0 002.862-5.57 35.516 35.516 0 001.788-5.913c.84-3.97.932-8.116.335-12.125a34.995 34.995 0 00-1.523-6.177c-.701-2.04-1.63-3.991-2.692-5.866-2.043-3.618-4.81-6.835-8.012-9.478-3.133-2.584-6.76-4.582-10.593-5.906a35.454 35.454 0 00-6.023-1.501C37.688.74 35.598.627 33.525.67c-2.572.05-5.116.448-7.61 1.068-2.412.598-4.746 1.499-6.964 2.623a36.314 36.314 0 00-2.593 1.45zm3.221 1.197a33.982 33.982 0 018.05-2.963 33.882 33.882 0 018.446-.697c2.743.165 5.45.657 8.075 1.469a34.209 34.209 0 017.348 3.417 33.885 33.885 0 016.236 5.157 34.309 34.309 0 014.91 6.905 33.996 33.996 0 012.905 7.877c.596 2.775.838 5.6.73 8.435a34.15 34.15 0 01-1.472 8.193 34.176 34.176 0 01-3.364 7.265 33.92 33.92 0 01-5.18 6.297 34.247 34.247 0 01-6.936 4.939 34.007 34.007 0 01-7.89 2.91c-2.794.599-5.643.84-8.5.723a34.355 34.355 0 01-8.056-1.45 34.145 34.145 0 01-7.401-3.43 33.8 33.8 0 01-6.23-5.142 34.188 34.188 0 01-4.97-7.007 34.044 34.044 0 01-2.87-7.813 33.878 33.878 0 01-.722-8.486 34.283 34.283 0 011.448-8.06 34.224 34.224 0 013.432-7.41 33.874 33.874 0 015.168-6.251 34.09 34.09 0 016.843-4.878zM7.71 17.907l-.088.14.088-.14zm3.603 39.075c.021.024.043.047.066.07l-.066-.07z" fill="#fff"/><path d="M17.632 6.536c-.135.293-.187.716-.042 1.018.593 1.229 1.187 2.454 1.95 3.587.406.6 1.279.722 1.857.31.602-.43.715-1.256.31-1.857-.317-.47-.607-.95-.878-1.446-.253-.5-.497-1.004-.74-1.51-.16-.33-.345-.588-.69-.748a1.336 1.336 0 00-1.225.055 1.342 1.342 0 00-.542.59zM4.92 51.144c.121.33.37.6.688.749.336.155.67.143 1.017.043 1.076-.315 2.202-.65 3.138-1.287.597-.408.722-1.276.31-1.856-.428-.6-1.258-.718-1.856-.311a4.25 4.25 0 01-.173.113c-.29.137-.587.264-.886.38-.47.185-.962.319-1.446.46-.085.026-.165.06-.24.104-.53.308-.76 1.038-.552 1.605zm42.891 5.612c-.134.287-.193.721-.043 1.017.44.868.919 1.712 1.377 2.569.22.425.438.85.662 1.272.194.363.382.733.61 1.074.402.604 1.281.721 1.857.31.603-.431.712-1.252.31-1.857-.285-.425-.514-.892-.752-1.344l.166.316c-.265-.504-.519-1.012-.792-1.513-.206-.372-.417-.742-.619-1.116a91.771 91.771 0 01-.32-.627l-.166-.316a1.336 1.336 0 00-1.749-.379 1.341 1.341 0 00-.541.594zM58.31 19.78c-.064.35.02.719.226 1.009.2.28.508.474.848.536.376.068.687-.04 1.01-.226l.298-.173c.65-.314 1.306-.62 1.95-.944.331-.166.588-.341.75-.69a1.33 1.33 0 00-.647-1.766c-.288-.133-.72-.191-1.019-.043-.96.485-1.95.908-2.88 1.448-.285.167-.48.536-.536.85zm-32.372 2.089c-.194.184-.313.542-.39.817a1.297 1.297 0 00-.477.077c-.699.256-1.017 1.017-.792 1.706.148.453.292.906.461 1.35.1.266.236.52.38.763.198.334.512.56.837.755.23.137.497.132.751.138.486.009.923-.39 1.132-.785.18-.337.177-.736.185-1.108.003-.084.004-.17.005-.254.166.117.347.217.536.28.31.104.418.132.752.128.34-.003.752-.234.951-.495.18-.237.246-.431.33-.712l.021-.374c.096.047.194.092.294.132.233.093.473.167.713.24.33.099.66.076.987-.027.674-.211.981-.931.968-1.583-.006-.262-.077-.532-.136-.783-.073-.31-.168-.612-.247-.917-.085-.325-.395-.613-.689-.75a1.336 1.336 0 00-1.807.745 2.683 2.683 0 00-.519-.174c-.499-.105-1.095-.068-1.52.243-.189.14-.355.304-.475.505a2.103 2.103 0 00-.415-.278 1.685 1.685 0 00-.847-.171 1.112 1.112 0 00-.516.155 2.602 2.602 0 00-.473.377zM11.13 34.328c-.133.286-.194.722-.042 1.017.155.303.31.606.467.908.271.526.504 1.127 1.09 1.378.212.098.435.139.668.12.328-.027.725-.197.917-.48l.05-.075c.147-.18.241-.383.284-.611.038-.13.065-.253.088-.384.062.03.124.059.187.085.346.14.718.184 1.076.052.351-.128.637-.397.803-.728.14-.275.2-.58.238-.883l.01-.067c.154.055.306.116.457.18l.194.086c.142.062.293.106.446.139.27.058.49-.01.746-.074.396-.1.664-.492.848-.816.04-.071.06-.165.085-.245.05-.152.096-.296.136-.448.051-.191.078-.39.097-.588.036-.367-.005-.7-.226-1.008a1.342 1.342 0 00-.847-.537 1.338 1.338 0 00-1.01.227 1.444 1.444 0 00-.418.476c-.304-.092-.62-.176-.933-.197-.27-.018-.646-.04-.9.085a9.686 9.686 0 00-.393.203c-.125.11-.252.22-.362.347a1.75 1.75 0 00-.264.436 1.279 1.279 0 00-.492-.18c-.3-.03-.538-.03-.826.077-.375.138-.627.414-.8.744a1.334 1.334 0 00-.833.168 1.335 1.335 0 00-.54.593zm5.076.187l.081-.018-.08.018zM43.67 17.119c-.296.216-.472.5-.594.814a1.331 1.331 0 00-1.406.756c-.135.29-.188.717-.042 1.016.184.377.365.756.56 1.13.187.366.4.816.826.964.362.125.693.202 1.067.059.215-.082.535-.255.667-.462.098-.151.2-.294.268-.461.08-.196.132-.405.188-.608.04-.148.076-.297.111-.447.112.035.224.066.336.092.31.07.648.079.948-.032.22-.081.482-.22.62-.42.078-.114.152-.23.223-.35a12.299 12.299 0 00.147-.482c.282.056.567.102.85.162.411.087.845.192 1.251.005.25-.115.431-.224.601-.447.184-.24.257-.47.331-.76.028-.111.035-.23.043-.344.027-.371-.002-.692-.228-1.008a1.336 1.336 0 00-.847-.537 1.342 1.342 0 00-1.18.373 53.276 53.276 0 01-1.163-.238c-.39-.083-.783-.124-1.172-.005a1.49 1.49 0 00-.693.465c-.156.189-.227.377-.293.593-.434-.127-.893-.14-1.298.094a1.238 1.238 0 00-.12.078z" fill="#fff"/></svg>