<svg width="49" height="60" viewBox="0 0 49 60" fill="none" xmlns="http://www.w3.org/2000/svg"><path d="M9.307 7.55c-.586.592-1.103 1.26-1.633 1.903-1.32 1.6-2.606 3.247-3.487 5.137-.474 1.017-.853 2.083-1.227 3.138a24.864 24.864 0 00-.8 2.695c-.249 1.067-.39 2.152-.498 3.243-.09.91-.148 1.83-.102 2.743.057 1.124.235 2.237.411 3.346.145.923.324 1.842.594 2.738.181.599.47 1.192.73 1.755.206.448.422.89.64 1.335.402.812.857 1.613 1.421 2.325.715.902 1.447 1.79 2.334 2.529.845.703 1.771 1.306 2.704 1.883.775.479 1.602.907 2.431 1.284.608.275 1.254.484 1.901.647.644.16 1.32.213 1.977.282.973.104 1.951.147 2.928.162 1.026.017 2.017-.244 3.018-.43.563-.063 1.13-.097 1.697-.141.656-.051 1.307-.136 1.964-.135.058.03.115.063.171.096.932.78 1.704 1.728 2.51 2.637.436.493 1.238.73 1.873.717a2.682 2.682 0 001.89-.843c.47-.504.73-1.184.715-1.873-.017-.767-.35-1.333-.843-1.89-.603-.68-1.188-1.388-1.834-2.032-.448-.446-.94-.818-1.455-1.185-.474-.336-1.02-.62-1.587-.76a7.296 7.296 0 00-1.87-.19c-.493.008-.99.083-1.48.125-.46.039-.922.063-1.38.104-.952.084-1.873.283-2.804.453-1.062.088-2.156.012-3.223-.094a10.565 10.565 0 01-1.738-.383c-1.202-.516-2.349-1.21-3.433-1.937a14.35 14.35 0 01-1.929-1.817c-.786-1.06-1.387-2.21-1.947-3.402-.424-1.07-.656-2.183-.843-3.317a26.785 26.785 0 01-.234-2.316c-.038-.752.017-1.515.088-2.27.131-.966.313-1.918.55-2.865.226-.908.547-1.794.878-2.67.262-.66.543-1.301.867-1.933.283-.55.625-1.074.975-1.587.746-.992 1.55-1.943 2.352-2.89a18.464 18.464 0 012.147-2.111c.467-.365.944-.718 1.468-.997.356-.134.72-.251 1.076-.38.69-.247 1.254-.64 1.607-1.3a2.68 2.68 0 00.212-1.994 2.676 2.676 0 00-1.3-1.608c-.577-.308-1.366-.438-1.996-.211-.856.308-1.719.58-2.519 1.027-.827.463-1.593 1.115-2.31 1.723-.136.114-.269.23-.402.347-.43.383-.849.78-1.255 1.187zM8.62 17.663l-.188.494.188-.494zm17.304 26.26c.076.006.152.014.227.026l-.227-.025z" fill="#E2FF5E"/><path d="M21.767 21.43c-.371.33-.57.92-.727 1.364-.213.608-.35 1.238-.537 1.854a.773.773 0 01-.015.029c-.197.04-.395.073-.596.107-.634.105-1.186.356-1.767.634-.085.06-.167.122-.251.182-.41.253-.727.59-.954 1.012-.191.302-.335.625-.38.982-.07.57-.114.96.046 1.526.097.347.264.666.415.993.17.369.596.803.827 1.084.145.175.292.344.444.513.277.31.557.62.835.928 1.21 1.339 2.434 2.67 3.718 3.944a53.712 53.712 0 004.102 3.69c.75.605 1.434 1.282 2.115 1.964.808.81 1.607 1.629 2.408 2.445 1.016 1.036 2.803.897 3.76-.126a2.684 2.684 0 00.718-1.874c-.014-.661-.272-1.238-.692-1.725a3.152 3.152 0 00-.345-.927 61.307 61.307 0 01-2.126-4.263 86.399 86.399 0 01-1.477-3.5c-.518-1.328-.986-2.675-1.51-4-.652-1.647-1.37-3.271-2.21-4.834a15.255 15.255 0 00-.671-1.12c-.44-.67-.945-1.175-1.651-1.553-.861-.464-1.976-.396-2.803.112-.217.165-.426.337-.63.517l-.046.043zm-1.523 3.437l.186-.082-.002.004c-.06.03-.121.056-.184.078zm4.23 5.77c-.414-.44-.832-.881-1.245-1.327a6.4 6.4 0 00.954-.736c.408.985.786 1.98 1.16 2.979-.291-.304-.581-.608-.87-.915z" fill="#46A3BB"/><path d="M31.777 46.45c-1.011 1.082-.903 2.74.127 3.763.979.969 1.938 1.929 3.075 2.719.83.575 1.837 1 2.835 1.142.409.059.814.093 1.226.095.44.003.886-.08 1.322-.173.11-.006.219-.008.33-.007.068.014.135.03.202.047.178.087.349.183.518.288.402.332.765.7 1.139 1.066 1.036 1.014 2.787.915 3.76-.127 1.007-1.076.91-2.748-.127-3.76-.258-.253-.51-.514-.776-.76-.416-.387-.89-.71-1.355-1.031-.495-.341-1.071-.583-1.64-.768-.646-.211-1.331-.277-2.01-.284-.43-.006-.86.084-1.285.172a5.207 5.207 0 01-.395.009 5.58 5.58 0 01-.31-.074 6.296 6.296 0 01-.617-.33c-.801-.65-1.524-1.386-2.258-2.113-.971-.964-2.598-.917-3.591-.038-.06.052-.116.107-.17.164z" fill="#46A3BB"/><path d="M8.356 9.373c-.513.5-1.02 1.004-1.504 1.533-.444.488-.85 1.01-1.236 1.544a26.394 26.394 0 00-1.284 1.914 32.632 32.632 0 00-1.003 1.814 19.901 19.901 0 00-1.552 4.134c-.093.36-.176.719-.252 1.084-.074.357-.104.729-.148 1.09a22.837 22.837 0 00-.158 2.396c-.013.688.038 1.368.134 2.05.11.779.24 1.552.434 2.314.34 1.35.839 2.664 1.377 3.945.328.78.737 1.51 1.172 2.236.34.565.71 1.123 1.113 1.647a21.949 21.949 0 003.104 3.302c1.02.878 2.14 1.695 3.359 2.28 1.276.614 2.61 1.12 3.962 1.54.604.187 1.212.353 1.835.469.687.129 1.4.185 2.1.213 1.326.053 2.625-.18 3.922-.423.045-.01.09-.017.137-.025.216-.03.432-.055.649-.077.163-.016.327-.036.492-.052.129.152.249.316.37.46.252.303.5.607.75.91l-.227-.276a492.773 492.773 0 011.644 2.028c.045.283.18.553.399.763.385.367.792.74 1.252 1.01.39.232.866.37 1.32.379.545.01 1.03-.183 1.5-.443 1.116-.617 2.115-1.434 3.109-2.225a163.78 163.78 0 003.293-2.71 25.834 25.834 0 001.48-1.344c.728-.713 1.635-1.637 1.206-2.742-.202-.517-.518-.981-.843-1.427-.301-.412-.615-.811-.923-1.217-.375-.493-.74-.991-1.134-1.467-.195-.235-.405-.457-.612-.68l.193-.18c.26-.252.515-.511.757-.783.372-.417.733-.847 1.086-1.28.842-1.037 1.495-2.22 2.17-3.368a25.024 25.024 0 001.739-3.554c.273-.698.523-1.391.72-2.114.17-.627.28-1.278.398-1.917.056-.297.11-.597.155-.898.066-.457.145-.925.168-1.387.04-.786.01-1.551-.112-2.33-.206-1.303-.578-2.564-1.055-3.793-.252-.654-.536-1.3-.896-1.901-.373-.625-.851-1.184-1.327-1.732a24.659 24.659 0 00-2.927-2.836c-1.133-.937-2.315-1.815-3.571-2.58-1.291-.784-2.607-1.511-4.033-2.022a19.945 19.945 0 00-1.938-.592c-.717-.178-1.445-.264-2.177-.341a19.42 19.42 0 00-2.003-.081c-.64 0-1.286.03-1.922.109-.73.09-1.465.197-2.18.377-.636.16-1.26.35-1.878.568-1.37.48-2.706 1.015-4.002 1.673-1.195.606-2.29 1.353-3.35 2.17-.61.47-1.204.967-1.784 1.48a44.35 44.35 0 00-1.468 1.365zm.13 3.704a25.72 25.72 0 011.388-1.471c.896-.898 1.848-1.737 2.814-2.558a27.984 27.984 0 012.17-1.578c.779-.506 1.62-.923 2.46-1.317 1.717-.741 3.505-1.37 5.347-1.696a19.81 19.81 0 014.448-.07 16.78 16.78 0 013.192.799c1.806.73 3.49 1.734 5.08 2.855 1.706 1.296 3.31 2.706 4.694 4.347.382.502.71 1.028.983 1.597.543 1.29.964 2.63 1.206 4.009.066.624.08 1.234.05 1.86a33.22 33.22 0 01-.398 2.426 17.061 17.061 0 01-.66 2.44 25.699 25.699 0 01-1.498 3.197c-.58 1.02-1.162 2.05-1.828 3.018-.285.38-.591.74-.9 1.102-.381.447-.772.876-1.191 1.287-.21.205-.43.4-.634.609a1.91 1.91 0 00-.5.953c-.085.474.015.903.228 1.327.206.414.566.758.883 1.094.163.174.322.35.476.53.418.537.825 1.084 1.239 1.624.287.375.582.753.838 1.154a22.736 22.736 0 01-1.82 1.702 224.28 224.28 0 01-2.314 1.92c-.616.498-1.23 1.003-1.867 1.472-.325.24-.657.467-.994.689-.27.177-.54.355-.824.505a3.257 3.257 0 01-.13-.072 8.837 8.837 0 01-.59-.522.966.966 0 00-.183-.48c-.573-.71-1.146-1.42-1.725-2.127a103.88 103.88 0 00-.73-.885c-.211-.254-.414-.517-.648-.75-.3-.298-.761-.452-1.182-.451-.185 0-.37.025-.554.042-.33.032-.658.063-.987.106-.678.09-1.347.234-2.021.347a13.36 13.36 0 01-2.924.043c-1.33-.175-2.606-.591-3.864-1.051a27.19 27.19 0 01-1.89-.813 12.007 12.007 0 01-1.618-.962 30.193 30.193 0 01-.854-.656c-.334-.265-.643-.563-.957-.85a21.638 21.638 0 01-1.742-1.828 28.99 28.99 0 01-1.252-1.798c-.4-.623-.743-1.268-1.062-1.933a33.99 33.99 0 01-.965-2.628 24.73 24.73 0 01-.417-1.46c-.11-.427-.176-.866-.247-1.301a31.364 31.364 0 01-.094-.758c-.043-.382-.037-.77-.04-1.154a20.28 20.28 0 01.099-1.972c.078-.617.17-1.225.327-1.83a33.55 33.55 0 01.56-1.914 24.933 24.933 0 012.666-4.938c.307-.418.62-.835.956-1.231zm28.72 22.617a.922.922 0 00-.014.038l.012-.036.002-.002z" fill="#fff"/><path d="M28.67 47.82c-.076.315-.042.735.16 1.005a53.154 53.154 0 002.128 2.691c.131.157.268.308.415.451.17.167.387.298.605.386.206.11.425.161.657.158.188.024.374.01.56-.04.653-.112 1.243-.502 1.786-.867.28-.189.55-.39.82-.587.634-.46 1.277-.907 1.876-1.413 1.038-.877 1.963-1.87 2.957-2.796.458-.426.914-.85 1.35-1.3.367-.383.731-.814.867-1.337.164-.635.111-1.326-.1-1.94-.182-.523-.46-1.012-.75-1.479a1.343 1.343 0 00-1.83-.438 1.342 1.342 0 00-.438 1.83c.156.248.301.5.433.762.046.122.084.243.115.37.003.05.004.098.004.147-.312.361-.663.69-1.005 1.02-.39.377-.795.74-1.184 1.117-.398.386-.79.781-1.185 1.17-.347.343-.715.663-1.086.98a90.61 90.61 0 01-1.328.977c-.515.374-1.02.758-1.575 1.067-.21-.226-.4-.476-.592-.715l.122.15a53.147 53.147 0 01-1.356-1.753c-.219-.294-.456-.51-.824-.599a1.338 1.338 0 00-1.19.297 1.331 1.331 0 00-.413.685z" fill="#fff"/><path d="M31.886 50.423a1.342 1.342 0 00-.358.938c.007.38.174.669.42.944.466.516.93 1.035 1.406 1.544.197.212.392.43.61.619.202.173.418.327.64.473.472.31 1.077.294 1.588.109.443-.16.83-.431 1.215-.695.302-.208.603-.42.906-.625.535-.365 1.087-.71 1.617-1.083 1.184-.83 2.306-1.744 3.399-2.692.222-.193.446-.385.658-.59.274-.266.502-.548.72-.864.184-.267.302-.548.395-.862.005-.054.012-.108.018-.161a2.09 2.09 0 00.034-.517c-.005-.241-.065-.486-.111-.721-.057-.304-.202-.595-.33-.873-.08-.181-.161-.36-.246-.54a24.356 24.356 0 00-1.022-1.912c-.37-.623-1.22-.813-1.83-.438-.625.385-.806 1.206-.438 1.83.428.725.813 1.466 1.167 2.228a3.488 3.488 0 01.149.499l-.048.081c-.281.335-.603.624-.932.913-.367.323-.741.637-1.117.95a36.88 36.88 0 01-2.438 1.799c-.47.317-.946.625-1.415.944-.31.212-.613.44-.931.642-.224-.216-.433-.448-.644-.677-.404-.438-.802-.882-1.202-1.324-.222-.246-.616-.365-.936-.359a1.345 1.345 0 00-.944.42zm10.647-3.564a.91.91 0 01-.013.129l-.001.002.014-.131z" fill="#fff"/><path d="M35.006 53.178c-.487.52-.478 1.397.063 1.88.28.25.557.503.847.742.157.13.34.27.512.375.214.132.412.214.65.302.172.063.336.11.513.148.65.14 1.349.126 2.012.105.656-.021 1.328-.12 1.948-.342.296-.105.59-.211.89-.302.317-.096.643-.17.955-.281.494-.177.982-.385 1.425-.666.593-.378 1.068-1.023 1.333-1.666.333-.813.47-1.69.503-2.565a9.98 9.98 0 00-.11-1.884c-.106-.712-.21-1.402-.462-2.08-.128-.344-.318-.625-.65-.803a1.343 1.343 0 00-.998-.106c-.655.189-1.163.968-.91 1.647.183.487.29.98.373 1.49.048.349.084.696.102 1.048.02.375 0 .75-.033 1.125a6.887 6.887 0 01-.225 1.015 3.286 3.286 0 01-.19.344 2.962 2.962 0 01-.174.195c-.131.086-.268.16-.41.229-.473.18-.965.3-1.448.457-.495.162-.971.343-1.48.449-.55.06-1.112.064-1.664.027a3.635 3.635 0 01-.484-.107 2.13 2.13 0 01-.105-.057c-.313-.247-.606-.518-.904-.783-.51-.454-1.281-.474-1.79-.024a1.491 1.491 0 00-.09.088z" fill="#fff"/><path d="M43.8 53.7a4.955 4.955 0 00-.013.055 1.342 1.342 0 00-.772.912c-.075.316-.042.737.16 1.007.357.477.705.996 1.15 1.396.345.312.728.56 1.182.682.853.229 1.797-.27 2.007-1.144.176-.737-.187-1.546-.542-2.177a9.812 9.812 0 00-.746-1.116c-.22-.292-.455-.509-.823-.598a1.337 1.337 0 00-1.19.297 1.32 1.32 0 00-.414.686zM16.271 27.125a1.347 1.347 0 00-.358.937c.01.375.171.675.422.943a92.06 92.06 0 002.903 2.992 76.28 76.28 0 012.865 2.963c.928 1.019 1.83 2.062 2.805 3.037.461.46.936.907 1.393 1.372.461.47.917.947 1.368 1.426.888.945 1.795 1.867 2.672 2.822.67.727 1.326 1.471 2.047 2.148a1.343 1.343 0 001.88-.064 1.343 1.343 0 00-.062-1.88c-.72-.677-1.379-1.421-2.046-2.148-.877-.955-1.784-1.877-2.673-2.82-.45-.48-.906-.956-1.368-1.426-.456-.466-.932-.912-1.393-1.372-.976-.974-1.878-2.02-2.806-3.038a74.074 74.074 0 00-2.863-2.962 93.12 93.12 0 01-2.904-2.991c-.467-.502-1.313-.446-1.8-.014a.713.713 0 00-.082.075z" fill="#fff"/><path d="M23.913 20.708c.074.256.222.473.414.637l.105.225c.08.169.158.339.236.509.22.526.413 1.064.624 1.595.242.609.49 1.214.71 1.833.456 1.3.906 2.604 1.355 3.908.45 1.303.998 2.574 1.517 3.852a71.793 71.793 0 001.765 4.02c.501 1.042 1.013 2.08 1.536 3.11.61 1.203 1.31 2.362 1.97 3.534.356.633 1.228.807 1.83.439.635-.39.794-1.197.438-1.83-.85-1.504-1.71-3-2.48-4.546a108.956 108.956 0 01-1.802-3.782 218.465 218.465 0 01-1.585-3.876c-.51-1.274-.942-2.576-1.396-3.872-.216-.62-.432-1.238-.65-1.856-.22-.631-.482-1.245-.727-1.865-.253-.635-.487-1.274-.767-1.9-.168-.377-.33-.768-.539-1.126-.326-.56-.994-.895-1.634-.71a1.324 1.324 0 00-.509.28 1.39 1.39 0 00-.41 1.42z" fill="#fff"/><path d="M18.76 23.173c.032.287.105.513.208.775a31.1 31.1 0 01.674 1.902c.111.351.225.705.323 1.062a25.525 25.525 0 00-.773-.184c-.673-.146-1.366-.192-2.05-.24-.342-.025-.72.18-.945.421a1.342 1.342 0 00-.359.936c.008.356.162.701.421.944.272.253.58.334.938.358.226.016.45.034.675.054.677.097 1.333.263 1.998.421.72.171 1.534.294 2.164-.192.188-.144.45-.35.543-.582.058-.141.113-.285.165-.427.03-.158.05-.319.06-.479.018-.331-.044-.652-.095-.979a7.454 7.454 0 00-.19-.841c.54.25 1.174.318 1.688-.049.424-.3.661-.724.733-1.234.032-.217.051-.436.072-.655.067-.513.16-1.023.282-1.526.142-.586.304-1.164.434-1.752.155-.708-.268-1.432-.984-1.604-.695-.166-1.449.276-1.604.984-.145.665-.328 1.32-.489 1.981-.055.227-.1.456-.139.687-.378-.275-.755-.551-1.138-.819a3.174 3.174 0 00-.467-.283 1.71 1.71 0 00-.734-.181c-.292-.017-.514.087-.769.213a.946.946 0 00-.203.138c-.31.274-.483.756-.439 1.151z" fill="#fff"/></svg>