<svg width="192" height="217" viewBox="0 0 192 217" fill="none" xmlns="http://www.w3.org/2000/svg"><path opacity=".17" d="M44.088 207.237c-3.056.235-6.902 1.495-7.513 6.201.901 2.847 3.338 3.253 5.363 3.265 20.202 0 40.482-.352 60.763.029 1.816.034 3.727.033 5.316-1.349s2.665-4.653 1.811-7.169c-.847-2.491-2.962-2.945-4.759-3.061-7.265-.47-14.46.286-21.708.365a595.75 595.75 0 00-39.273 1.719z" fill="#fff"/><path d="M65.963 139.703c-5.539 7.809-11.218 15.94-12.999 25.347-2.843 15.014 4.71 29.849 6.886 44.974m18.307-67.206a289.3 289.3 0 0111.212 21.663c1.832 3.937 3.601 8.01 4.003 12.355.404 4.369-.6 8.731-1.596 12.998l-4.309 18.452" stroke="#fff" stroke-width="3" stroke-miterlimit="10" stroke-linecap="round" stroke-linejoin="round"/><path d="M95.238 121.532c.248 7.016-1.107 14.057-4.298 20.325-4.79 9.407-16.662 19.197-27.54 13.485-11.6-6.09-16.369-22.643-15.8-34.833.566-12.15 6.76-27.7 18.486-33.135 10.235-4.745 18.96 5.054 23.412 13.188 3.479 6.357 5.48 13.649 5.74 20.97z" fill="#0E0E0F"/><path d="M95.238 121.532c.248 7.016-1.107 14.057-4.298 20.325-4.79 9.407-16.662 19.197-27.54 13.485-11.6-6.09-16.369-22.643-15.8-34.833.566-12.15 6.76-27.7 18.486-33.135 10.235-4.745 18.96 5.054 23.412 13.188 3.479 6.357 5.48 13.649 5.74 20.97z" stroke="#fff" stroke-miterlimit="10" stroke-linecap="round" stroke-linejoin="round"/><path d="M55.71 96.527c-4.748 3.165-8.142 6.57-11.873 10.887-4.23 4.894-8.16 12.93-2.286 18.333 2.512 2.311 6.192 2.752 9.605 2.797 5.66.073 11.646-2.463 17.699-4.353" stroke="#fff" stroke-width="3" stroke-miterlimit="10" stroke-linecap="round" stroke-linejoin="round"/><path d="M70.606 94.506c.683 12.943.55 38.89.55 38.89" stroke="#fff" stroke-miterlimit="10" stroke-linecap="round" stroke-linejoin="round"/><path d="M51.647 84.474c-4.703-8.723-3.56-21.926 4.183-28.696 9.956-8.705 25.839-7.21 33.592 3.195 5.903 7.92 5.72 19.042-.69 26.613-9.411 11.119-29.481 12.99-37.085-1.112z" fill="#0E0E0F" stroke="#fff" stroke-miterlimit="10" stroke-linecap="round" stroke-linejoin="round"/><path d="M64.378 67.405c0 2.017-.715 3.652-1.598 3.652-.882 0-1.598-1.635-1.598-3.652 0-2.017.715-3.652 1.598-3.652.883 0 1.598 1.635 1.598 3.652z" fill="#fff"/><path d="M65.482 91.965c-.566 4.79-1.05 9.635-.502 14.427.627 5.476 3.214 15.236 10.462 14.089 2.434-.385 4.556-1.862 6.391-3.508 3.998-3.588 7.054-8.139 9.347-12.997" stroke="#fff" stroke-width="3" stroke-miterlimit="10" stroke-linecap="round" stroke-linejoin="round"/><path d="M74.877 66.796c0 2.016-.715 3.651-1.598 3.651-.883 0-1.598-1.635-1.598-3.651 0-2.018.715-3.652 1.598-3.652.883 0 1.598 1.634 1.598 3.652z" fill="#fff"/><path d="M67.096 54.389a11.017 11.017 0 00-1.121-7.983m4.414 7.744c.317-3.128.755-6.244 1.315-9.338" stroke="#fff" stroke-miterlimit="10" stroke-linecap="round" stroke-linejoin="round"/><path d="M78.648 104.307c0 1.196-.941 2.165-2.105 2.165-1.162 0-2.105-.969-2.105-2.165 0-1.196.942-2.165 2.105-2.165s2.105.97 2.105 2.165zm-2.105 13c1.163 0 2.105-.97 2.105-2.165 0-1.196-.942-2.165-2.105-2.165-1.162 0-2.105.969-2.105 2.165 0 1.195.943 2.165 2.105 2.165zm2.105 11.549c0 1.196-.941 2.165-2.105 2.165-1.162 0-2.105-.969-2.105-2.165 0-1.196.942-2.165 2.105-2.165s2.105.969 2.105 2.165z" fill="#fff"/><path d="M74.61 54.155a27.042 27.042 0 013.458-7.524" stroke="#fff" stroke-miterlimit="10" stroke-linecap="round" stroke-linejoin="round"/><path d="M74.045 126.461c2.14-.684 4.33-1.71 5.524-3.615.51-.817.813-1.796.676-2.749-.137-.954-.767-1.861-1.677-2.177-.928-.322-1.944-.01-2.873.311a161.194 161.194 0 00-6.593 2.437c.74-.469 1.43-.983 1.978-1.675.199-.252.38-.531.429-.848.048-.317-.07-.678-.351-.832-.704-.386-2.377.911-3.006 1.28-.992.583-1.96 1.226-2.823 1.988-1.504 1.327-2.838 3.241-1.978 5.303 1.519 3.64 8.035 1.427 10.694.577zM73.674 91.7c1.721-1.22 3.368-2.767 3.802-4.851.186-.893.125-1.88-.329-2.721-.454-.842-1.342-1.505-2.282-1.546-.959-.042-1.78.526-2.518 1.076a140.492 140.492 0 00-5.185 4.059c.514-.636.97-1.3 1.231-2.088.095-.287.165-.595.1-.9-.065-.306-.297-.606-.607-.671-.776-.163-1.859 1.493-2.306 2.006-.706.81-1.368 1.669-1.895 2.609-.918 1.637-1.477 3.768.02 5.434 2.64 2.939 7.832-.893 9.97-2.407z" fill="#0E0E0F" stroke="#fff" stroke-miterlimit="10" stroke-linecap="round" stroke-linejoin="round"/><path d="M64.547 79.868a13.34 13.34 0 015.91-3.358z" fill="#0E0E0F"/><path d="M64.547 79.868a13.34 13.34 0 015.91-3.358" stroke="#fff" stroke-miterlimit="10" stroke-linecap="round" stroke-linejoin="round"/><path d="M88.264 211.76c-1.145-.435-2.193-1.222-2.674-2.31-.662-1.496-.102-3.319 1.089-4.475 1.19-1.156 2.9-1.713 4.589-1.848 1.689-.135 3.382.114 5.057.362l3.19.47c1.535.227 3.114.469 4.441 1.241 4.949 2.881.775 6.751-3.154 7.371-3.483.549-9.218.449-12.538-.811z" fill="#0E0E0F" stroke="#fff" stroke-miterlimit="10" stroke-linecap="round" stroke-linejoin="round"/><path d="M94.835 201.204a8.784 8.784 0 00-1.162 4.115c-.01.381.067.85.44.979.374.128.743-.183.998-.474a17.67 17.67 0 002.107-2.975c.219-.389.567-.854 1.014-.744a.703.703 0 01.343.22c.529.582.26 1.468.094 2.223-.166.755-.008 1.789.784 1.927.573.099 1.074-.37 1.404-.83a7.34 7.34 0 001.257-2.96" stroke="#fff" stroke-miterlimit="10" stroke-linecap="round" stroke-linejoin="round"/><path d="M49.264 204.812c-2.13.598-8.746 3.064-8.51 5.996.315 3.941 8.291 3.49 10.913 3.418 3.595-.098 12.43-1.164 11.036-6.789-1.272-5.136-10.04-3.577-13.439-2.625z" fill="#0E0E0F" stroke="#fff" stroke-miterlimit="10" stroke-linecap="round" stroke-linejoin="round"/><path d="M44.082 204.832c.09.833.327 1.649.695 2.401.32.654.922 1.34 1.634 1.19.6-.127.923-.804.96-1.416.036-.612-.121-1.227-.059-1.837.062-.61.453-1.268 1.064-1.318.724-.059 1.212.724 1.429 1.417.217.693.422 1.51 1.084 1.81.719.326 1.598-.221 1.89-.954.292-.733.15-1.563-.058-2.325-.208-.762-.479-1.528-.432-2.316M89.866 63.452a20.027 20.027 0 011.28 6.12m.107 3.194A18.747 18.747 0 0185.809 84.4m-10.027 68.233c6.537-2.681 10.513-9.043 13.553-15.094M63.29 152.042c2.12 1.365 4.663 1.919 7.165 1.795" stroke="#fff" stroke-miterlimit="10" stroke-linecap="round" stroke-linejoin="round"/><path d="M108.869 17.138c2.141-4.704 6.607-8.571 11.995-8.61a11.622 11.622 0 017.919 3.09C132.482 5.336 139.263.936 146.668 1c6.834.06 13.567 3.379 17.777 8.763 5.902-6.393 17.51-5.53 22.979 1.236 5.469 6.766 4.332 17.64-1.901 23.71s-16.483 7.138-24.247 3.213c-3.168 6.582-10.285 11.063-17.59 11.075-7.489.012-13.91-5.136-18.065-10.992-3.975 3.37-10.457 2.685-14.262-.876-5.077-4.752-5.501-13.375-2.49-19.992zM94.025 39.236c.474 1.908 1.421 3.772 3.006 4.935 1.585 1.163 3.883 1.47 5.528.395.936-.612 1.578-1.591 2.02-2.62 1.347-3.135.671-8.15-2.223-10.278-4.965-3.656-9.46 3.013-8.33 7.568zm-5.546 5.014c-1.06.34-1.985 1.199-2.22 2.287-.18.838.053 1.714.409 2.494.564 1.239 1.454 2.34 2.599 3.076.544.349 1.156.618 1.8.659.646.04 1.327-.172 1.754-.657.47-.533.57-1.297.547-2.008-.076-2.295-1.885-6.816-4.89-5.851z" fill="#0E0E0F" stroke="#fff" stroke-miterlimit="10" stroke-linecap="round" stroke-linejoin="round"/><path d="M187.402 16.79a20.378 20.378 0 01-.001 10.226m-26.153 10.892a6.087 6.087 0 00.788-2.394m2.32-26.322a5.381 5.381 0 01.444 3.742m-35.836-1.591a22.257 22.257 0 00-1.044 3.724m58.44 14.739c-.913 2.54-3.346 4.187-5.731 5.452m-65.391-22.529a12.765 12.765 0 00-3.888 5.139m-1.362 4.899c-.214.915-.347 1.85-.398 2.788m-7.437 10.361c.25 1.55.481 3.229-.249 4.62" stroke="#fff" stroke-miterlimit="10" stroke-linecap="round" stroke-linejoin="round"/><path d="M1.787 41.769c1.413-2.877 4.928-5.203 8.666-5.555 4.254-.401 8.614 1.73 9.716 5.13.371 1.143-.101 2.41-1.57 2.922-1.256.437-3.12-.003-3.493-1.154-.785-2.421-4.13-3.275-6.628-1.632-2.775 1.825-2.616 4.995-.593 7.025 1.123 1.127 2.73 1.902 4.101 2.809 1.621 1.072 2.953 2.3 3.93 3.816 1.911 2.965 2.083 6.496 2.135 9.841.019 1.197-.9 2.332-2.442 2.51-1.367.157-2.93-.685-2.948-1.889-.044-2.816.004-5.946-1.648-8.444-1.714-2.592-5.478-3.73-7.657-6.024-2.437-2.564-3.113-6.21-1.569-9.355zm10.066 31.417c.062-.41.23-.823.524-1.222 3.647-4.962 11.167 2.368 4.672 4.546-2.813.942-5.531-1.127-5.196-3.324z" fill="#0E0E0F" stroke="#fff" stroke-miterlimit="10" stroke-linecap="round" stroke-linejoin="round"/><path d="M2.887 45.211a2.563 2.563 0 00.33 2.45m11.586 24.296c-.987.356-1.559 1.374-1.23 2.187M4.068 49.418c1.179 2.251 4.7 2.979 6.386 4.988" stroke="#fff" stroke-miterlimit="10" stroke-linecap="round" stroke-linejoin="round"/><path d="M149.442 87.406c-.14-2.047-1.659-4.277-3.788-5.391-2.424-1.268-5.524-1.062-7 .686-.497.587-.524 1.452.222 2.111.638.563 1.849.755 2.349.163 1.052-1.244 3.241-.94 4.323.639 1.202 1.753.339 3.593-1.351 4.306-.938.395-2.079.465-3.11.67-1.22.243-2.307.647-3.254 1.31-1.85 1.293-2.807 3.343-3.649 5.313-.3.704-.031 1.6.839 2.078.772.424 1.902.304 2.205-.404.708-1.658 1.438-3.525 3.022-4.604 1.643-1.12 4.149-.884 5.996-1.715 2.065-.928 3.349-2.924 3.196-5.162zm-13.575 16.175a1.77 1.77 0 00-.015-.851c-.959-3.823-7.189-1.302-3.869 1.562 1.438 1.24 3.55.672 3.884-.711z" fill="#0E0E0F" stroke="#fff" stroke-miterlimit="10" stroke-linecap="round" stroke-linejoin="round"/><path d="M146.956 89.179a1.638 1.638 0 01-.789 1.371m-12.75 11.588c.498.45.591 1.192.198 1.594m11.623-12.347c-1.244 1.048-3.507.626-4.992 1.408" stroke="#fff" stroke-width=".5" stroke-miterlimit="10" stroke-linecap="round" stroke-linejoin="round"/></svg>