<svg width="154" height="182" viewBox="0 0 154 182" fill="none" xmlns="http://www.w3.org/2000/svg"><path d="M119.633 167.431c18.736-7.761 27.632-29.24 19.872-47.975-7.761-18.735-29.24-27.631-47.975-19.87-18.735 7.76-27.632 29.239-19.871 47.974 7.76 18.735 29.239 27.631 47.974 19.871z" fill="#0D262D" stroke="#fff" stroke-miterlimit="10" stroke-linecap="round" stroke-linejoin="round"/><path d="M105.568 165.509c17.676 0 32.005-14.329 32.005-32.005 0-17.676-14.329-32.005-32.005-32.005-17.675 0-32.004 14.329-32.004 32.005 0 17.676 14.329 32.005 32.004 32.005z" fill="#0D262D" stroke="#fff" stroke-miterlimit="10" stroke-linecap="round" stroke-linejoin="round"/><path d="M105.568 136.415a2.911 2.911 0 100-5.823 2.911 2.911 0 000 5.823z" fill="#fff"/><path d="M111.367 107.118l-5.879 26.403 19.339-6.755m-49.04 6.738H79.5m52.137 0h3.713m-43.524-26.421l1.713 3.295m24.06 46.253l1.713 3.294m-40.164-12.678l3.294-1.714m46.253-24.058l3.294-1.713m-51.74-1.938l3.157 1.955m44.325 27.45l3.156 1.955m-40.998 9.639l1.955-3.156m27.451-44.325l1.955-3.157" stroke="#fff" stroke-miterlimit="10" stroke-linecap="round" stroke-linejoin="round"/><path d="M63.023 49.676C87.234 58.79 96.44 72.246 86.88 95.262m-46.815.344c-3.574 10.974-7.167 22.033-8.565 33.49-1.398 11.457-.474 23.474 4.637 33.823" stroke="#fff" stroke-width="3" stroke-miterlimit="10" stroke-linecap="round" stroke-linejoin="round"/><path d="M60.125 102.739c1.518 11.994 8.996 25.047-.908 35.533-7.158 7.579-25.674 9.596-33.79 11.332" stroke="#fff" stroke-width="3" stroke-miterlimit="10" stroke-linecap="round" stroke-linejoin="round"/><path d="M21.168 149.553c.348-.738.785-1.427 1.423-1.922 2.946-2.287 5 .761 5.613 3.354.69 2.919.066 6.116-.69 8.96-.855 3.217-3.065 8.41-7.087 7.319-5.756-1.561-1.02-13.28.318-16.713.13-.333.268-.671.423-.998z" fill="#0D262D" stroke="#fff" stroke-miterlimit="10" stroke-linecap="round" stroke-linejoin="round"/><path d="M39.87 51.398A59.435 59.435 0 0011.554 57.2C7.06 59.363 2.38 62.827 2.02 67.801c-.317 4.4 2.928 8.248 6.418 10.944a39.487 39.487 0 0019.343 7.911" stroke="#fff" stroke-width="3" stroke-miterlimit="10" stroke-linecap="round" stroke-linejoin="round"/><path d="M75.094 78.252c.248 7.016-1.107 14.057-4.298 20.325-4.79 9.407-16.662 19.197-27.54 13.485-11.599-6.09-16.369-22.643-15.8-34.833.565-12.15 6.76-27.7 18.485-33.135 10.236-4.745 18.96 5.054 23.412 13.188 3.48 6.357 5.482 13.649 5.741 20.97z" fill="#0D262D"/><path d="M75.094 78.252c.248 7.016-1.107 14.057-4.298 20.325-4.79 9.407-16.662 19.197-27.54 13.485-11.599-6.09-16.369-22.643-15.8-34.833.565-12.15 6.76-27.7 18.485-33.135 10.236-4.745 18.96 5.054 23.412 13.188 3.48 6.357 5.482 13.649 5.741 20.97zM51.125 50.665c.441 12.953-.175 38.893-.175 38.893" stroke="#fff" stroke-miterlimit="10" stroke-linecap="round" stroke-linejoin="round"/><path d="M32.358 40.28c-4.54-8.808-3.15-21.987 4.718-28.612C47.193 3.15 63.045 4.94 70.603 15.49c5.754 8.03 5.363 19.146-1.186 26.595-9.62 10.94-29.72 12.438-37.06-1.804z" fill="#0D262D" stroke="#fff" stroke-miterlimit="10" stroke-linecap="round" stroke-linejoin="round"/><path d="M45.947 23.18c-.044 2.368-.92 4.273-1.956 4.253-1.036-.02-1.84-1.955-1.796-4.323.044-2.368.92-4.273 1.956-4.253 1.037.019 1.841 1.955 1.796 4.323zm12.343-.484c-.043 2.368-.92 4.273-1.955 4.253-1.036-.019-1.84-1.955-1.796-4.323.044-2.368.92-4.273 1.956-4.253 1.036.02 1.84 1.954 1.796 4.323z" fill="#fff"/><path d="M48.365 10.49a11.02 11.02 0 00-.972-8.002m4.268 7.825c.375-3.122.872-6.23 1.49-9.313" stroke="#fff" stroke-miterlimit="10" stroke-linecap="round" stroke-linejoin="round"/><path d="M58.824 60.236c-.021 1.148-.944 2.062-2.06 2.04-1.116-.02-2.004-.968-1.982-2.116.022-1.147.944-2.061 2.06-2.04 1.116.02 2.004.968 1.982 2.116zm-.211 11.33c-.022 1.148-.944 2.062-2.06 2.04-1.116-.02-2.004-.967-1.982-2.115.02-1.148.944-2.062 2.06-2.041 1.116.02 2.003.968 1.982 2.116zm-.213 11.33c-.021 1.148-.943 2.062-2.06 2.04-1.115-.02-2.002-.967-1.981-2.115.02-1.148.944-2.062 2.06-2.041 1.116.02 2.004.968 1.982 2.116z" fill="#fff"/><path d="M55.884 10.396a27.041 27.041 0 013.598-7.459" stroke="#fff" stroke-miterlimit="10" stroke-linecap="round" stroke-linejoin="round"/><path d="M27.864 90.845c1.69.507 3.631 1.256 5.21.078.956-.714 1.53-1.852 1.781-3.02.252-1.172.084-2.49-1.12-2.954-1.44-.556-3.06-.647-4.523-1.17-1.128-.403-1.57-1.822-1.572-2.98 0-.41.055-.841-.12-1.212-1.076.873-2.175 1.315-3.523 1.48-1.99.245-4.173 1.07-4.629 3.258-.805 3.86 5.822 5.717 8.496 6.52zm18.262 68.659c2.04.626 8.363 3.168 8.083 6.045-.551 5.651-13.615 2.457-16.63 1.662-1.182-.312-2.425-.729-3.181-1.69-.65-.825-.834-1.943-.716-2.987.366-3.242 2.357-4.049 5.378-4.123 2.373-.058 4.803.399 7.066 1.093z" fill="#0D262D" stroke="#fff" stroke-miterlimit="10" stroke-linecap="round" stroke-linejoin="round"/><path d="M51.114 159.617a7.243 7.243 0 01-.713 2.347c-.32.636-.912 1.3-1.595 1.14-.576-.135-.874-.806-.898-1.409-.023-.602.14-1.203.091-1.804-.048-.601-.413-1.254-1-1.314-.696-.071-1.18.689-1.402 1.367-.222.677-.434 1.476-1.077 1.759-.698.307-1.534-.246-1.802-.972s-.115-1.539.1-2.283c.213-.745.488-1.493.458-2.268M70.963 19.976a20.01 20.01 0 011.164 6.144m.048 3.194a18.751 18.751 0 01-5.66 11.532m-11.298 68.032c6.586-2.558 10.68-8.845 13.832-14.838m-26.314 14.015c2.094 1.404 4.627 2.006 7.132 1.929m-20.44 42.977a2.307 2.307 0 00-1.794-.602c-.425.045-.848.22-1.131.54-.283.32-.404.796-.245 1.194.122.307.387.534.664.714.723.471 1.598.718 2.218 1.318.259.251.473.586.45.946-.028.494-.5.866-.983.968-.484.102-.984 0-1.474-.069s-1.014-.102-1.455.121a1.393 1.393 0 00-.745 1.096c-.041.459.168.934.536 1.212.784.593 2.148.329 2.612 1.195" stroke="#fff" stroke-miterlimit="10" stroke-linecap="round" stroke-linejoin="round"/><path d="M41.643 34.284c4.668 3.173 11.218 3.3 16.005.31z" fill="#0D262D"/><path d="M41.643 34.284c4.668 3.173 11.218 3.3 16.005.31" stroke="#fff" stroke-miterlimit="10" stroke-linecap="round" stroke-linejoin="round"/><path d="M90.433 93.111c.617.147 1.181.268 1.61.29 1.287.063 2.594.141 3.811.565 1.218.424 2.355 1.247 2.868 2.43.791 1.826-.367 3.852-2.23 4.296-1.505.358-3.07.449-4.607.274-.906-.103-3.09-.195-3.803-.809-.132.496-.078 1.02-.112 1.532s-.189 1.063-.608 1.358c-.673.474-1.653.017-2.111-.668-.922-1.38-.867-4.356-.95-5.995-.049-.96.063-1.97.587-2.778 1.236-1.896 3.786-.91 5.544-.495z" fill="#0D262D" stroke="#fff" stroke-miterlimit="10" stroke-linecap="round" stroke-linejoin="round"/><path d="M106.646 110.142v3.187m0 44.747v3.186" stroke="#fff" stroke-miterlimit="10" stroke-linecap="round" stroke-linejoin="round"/></svg>