<svg width="192" height="217" viewBox="0 0 192 217" fill="none" xmlns="http://www.w3.org/2000/svg"><path opacity=".17" d="M44.517 207.233c-3.056.235-6.902 1.495-7.513 6.201.9 2.847 3.338 3.253 5.363 3.265 20.202 0 40.482-.352 60.763.029 1.816.034 3.727.033 5.316-1.349s2.665-4.653 1.811-7.169c-.847-2.491-2.962-2.945-4.759-3.061-7.265-.47-14.46.286-21.708.365a595.75 595.75 0 00-39.273 1.719z" fill="#0E0E0F"/><path d="M66.392 139.699c-5.539 7.809-11.218 15.94-12.999 25.347-2.843 15.014 4.71 29.849 6.886 44.974m18.307-67.206a289.3 289.3 0 0111.212 21.663c1.832 3.937 3.6 8.01 4.003 12.355.404 4.369-.6 8.731-1.596 12.998-1.436 6.15-2.872 12.301-4.31 18.452" stroke="#0E0E0F" stroke-width="3" stroke-miterlimit="10" stroke-linecap="round" stroke-linejoin="round"/><path d="M95.667 121.528c.248 7.016-1.107 14.057-4.298 20.325-4.79 9.407-16.662 19.197-27.54 13.485-11.6-6.09-16.37-22.643-15.8-34.833.566-12.15 6.76-27.7 18.486-33.135 10.235-4.745 18.96 5.054 23.412 13.188 3.479 6.357 5.48 13.649 5.74 20.97z" fill="#fff"/><path d="M95.667 121.528c.248 7.016-1.107 14.057-4.298 20.325-4.79 9.407-16.662 19.197-27.54 13.485-11.6-6.09-16.37-22.643-15.8-34.833.566-12.15 6.76-27.7 18.486-33.135 10.235-4.745 18.96 5.054 23.412 13.188 3.479 6.357 5.48 13.649 5.74 20.97z" stroke="#0E0E0F" stroke-miterlimit="10" stroke-linecap="round" stroke-linejoin="round"/><path d="M56.138 96.523c-4.748 3.165-8.142 6.57-11.873 10.887-4.23 4.894-8.159 12.93-2.286 18.333 2.512 2.311 6.192 2.752 9.605 2.797 5.66.073 11.646-2.463 17.7-4.353" stroke="#0E0E0F" stroke-width="3" stroke-miterlimit="10" stroke-linecap="round" stroke-linejoin="round"/><path d="M71.034 94.502c.683 12.943.551 38.89.551 38.89" stroke="#0E0E0F" stroke-miterlimit="10" stroke-linecap="round" stroke-linejoin="round"/><path d="M52.075 84.47c-4.703-8.723-3.56-21.926 4.183-28.696 9.956-8.705 25.84-7.21 33.592 3.195 5.904 7.921 5.72 19.042-.688 26.613-9.413 11.119-29.483 12.991-37.087-1.112z" fill="#fff" stroke="#0E0E0F" stroke-miterlimit="10" stroke-linecap="round" stroke-linejoin="round"/><path d="M64.806 67.401c0 2.017-.715 3.652-1.598 3.652-.882 0-1.598-1.635-1.598-3.652 0-2.017.715-3.652 1.598-3.652.883 0 1.598 1.635 1.598 3.652z" fill="#0E0E0F"/><path d="M65.91 91.96c-.565 4.79-1.05 9.636-.501 14.428.627 5.476 3.214 15.236 10.462 14.089 2.434-.385 4.556-1.862 6.39-3.508 3.999-3.588 7.055-8.139 9.348-12.997" stroke="#0E0E0F" stroke-width="3" stroke-miterlimit="10" stroke-linecap="round" stroke-linejoin="round"/><path d="M75.305 66.792c0 2.017-.715 3.652-1.598 3.652-.883 0-1.598-1.635-1.598-3.652 0-2.017.715-3.652 1.598-3.652.883 0 1.598 1.635 1.598 3.652z" fill="#0E0E0F"/><path d="M67.524 54.385a11.017 11.017 0 00-1.12-7.983m4.413 7.745c.317-3.13.755-6.245 1.315-9.34" stroke="#0E0E0F" stroke-miterlimit="10" stroke-linecap="round" stroke-linejoin="round"/><path d="M79.077 104.303c0 1.196-.942 2.165-2.105 2.165-1.162 0-2.105-.969-2.105-2.165 0-1.196.942-2.165 2.105-2.165s2.105.97 2.105 2.165zm-2.105 13c1.163 0 2.105-.97 2.105-2.165 0-1.196-.942-2.165-2.105-2.165-1.162 0-2.105.969-2.105 2.165 0 1.195.943 2.165 2.105 2.165zm2.105 11.549c0 1.196-.942 2.165-2.105 2.165-1.162 0-2.105-.969-2.105-2.165 0-1.196.942-2.165 2.105-2.165s2.105.969 2.105 2.165z" fill="#0E0E0F"/><path d="M75.04 54.15a27.042 27.042 0 013.457-7.523" stroke="#0E0E0F" stroke-miterlimit="10" stroke-linecap="round" stroke-linejoin="round"/><path d="M74.473 126.457c2.141-.684 4.331-1.71 5.524-3.615.511-.817.813-1.796.676-2.749-.137-.954-.767-1.861-1.677-2.177-.928-.322-1.944-.01-2.873.311a161.194 161.194 0 00-6.593 2.437c.74-.469 1.431-.983 1.978-1.675.2-.252.381-.531.43-.848.047-.317-.07-.678-.352-.832-.704-.386-2.377.911-3.006 1.28-.992.583-1.959 1.226-2.823 1.988-1.504 1.327-2.838 3.241-1.978 5.303 1.52 3.64 8.035 1.427 10.694.577zm-.37-34.761c1.72-1.22 3.368-2.767 3.802-4.851.186-.893.125-1.88-.33-2.721-.453-.842-1.341-1.505-2.281-1.546-.96-.042-1.78.526-2.518 1.076a140.492 140.492 0 00-5.185 4.059c.514-.636.969-1.3 1.23-2.088.096-.287.166-.595.1-.9-.064-.306-.296-.606-.606-.671-.776-.163-1.86 1.493-2.306 2.006-.706.81-1.368 1.669-1.895 2.609-.918 1.637-1.477 3.768.019 5.434 2.64 2.939 7.833-.893 9.97-2.407z" fill="#fff" stroke="#0E0E0F" stroke-miterlimit="10" stroke-linecap="round" stroke-linejoin="round"/><path d="M64.976 79.864a13.34 13.34 0 015.91-3.358z" fill="#fff"/><path d="M64.976 79.864a13.34 13.34 0 015.91-3.358" stroke="#0E0E0F" stroke-miterlimit="10" stroke-linecap="round" stroke-linejoin="round"/><path d="M88.692 211.757c-1.145-.435-2.193-1.222-2.674-2.31-.662-1.496-.102-3.319 1.09-4.475 1.19-1.156 2.9-1.713 4.588-1.848 1.69-.135 3.382.113 5.057.361l3.19.471c1.535.227 3.114.469 4.441 1.241 4.949 2.881.775 6.751-3.154 7.371-3.483.549-9.218.449-12.538-.811z" fill="#fff" stroke="#0E0E0F" stroke-miterlimit="10" stroke-linecap="round" stroke-linejoin="round"/><path d="M95.263 201.2a8.784 8.784 0 00-1.162 4.115c-.01.381.067.85.441.979.373.128.742-.183.997-.474a17.67 17.67 0 002.107-2.975c.22-.389.567-.854 1.014-.744a.703.703 0 01.343.22c.53.582.26 1.468.094 2.223-.166.755-.008 1.789.784 1.927.573.099 1.074-.37 1.404-.83a7.34 7.34 0 001.257-2.96" stroke="#0E0E0F" stroke-miterlimit="10" stroke-linecap="round" stroke-linejoin="round"/><path d="M49.693 204.808c-2.131.598-8.746 3.064-8.511 5.996.316 3.941 8.292 3.49 10.914 3.418 3.595-.098 12.429-1.164 11.036-6.789-1.272-5.136-10.041-3.577-13.44-2.625z" fill="#fff" stroke="#0E0E0F" stroke-miterlimit="10" stroke-linecap="round" stroke-linejoin="round"/><path d="M44.51 204.828c.09.833.328 1.649.696 2.401.32.654.922 1.34 1.634 1.19.6-.127.923-.804.96-1.416.036-.612-.121-1.227-.06-1.837.063-.61.454-1.268 1.065-1.318.724-.059 1.212.724 1.429 1.417.217.693.422 1.51 1.084 1.81.719.326 1.598-.221 1.89-.954.292-.733.15-1.563-.058-2.325-.208-.762-.48-1.528-.432-2.316M90.295 63.448a20.027 20.027 0 011.279 6.12m.107 3.194a18.747 18.747 0 01-5.444 11.635M76.21 152.629c6.538-2.681 10.514-9.043 13.554-15.094m-26.045 14.504c2.12 1.365 4.664 1.919 7.166 1.795" stroke="#0E0E0F" stroke-miterlimit="10" stroke-linecap="round" stroke-linejoin="round"/><path d="M109.297 17.134c2.141-4.704 6.607-8.571 11.995-8.61a11.622 11.622 0 017.919 3.09C132.91 5.332 139.691.932 147.096.997c6.834.06 13.567 3.379 17.777 8.763 5.902-6.393 17.51-5.53 22.979 1.236 5.469 6.766 4.332 17.64-1.901 23.71s-16.483 7.138-24.247 3.213c-3.168 6.582-10.285 11.063-17.59 11.075-7.489.012-13.91-5.136-18.065-10.992-3.975 3.37-10.457 2.685-14.262-.876-5.077-4.752-5.501-13.375-2.49-19.992zM94.454 39.232c.473 1.908 1.421 3.772 3.006 4.935 1.585 1.163 3.883 1.47 5.528.395.936-.612 1.578-1.591 2.02-2.619 1.347-3.136.671-8.15-2.223-10.279-4.965-3.656-9.46 3.013-8.33 7.568zm-5.547 5.014c-1.059.34-1.985 1.199-2.219 2.287-.18.838.052 1.714.408 2.494.564 1.239 1.454 2.34 2.6 3.076.543.349 1.155.618 1.8.659.645.04 1.326-.172 1.753-.657.47-.533.571-1.297.547-2.008-.076-2.295-1.885-6.816-4.889-5.851z" fill="#fff" stroke="#0E0E0F" stroke-miterlimit="10" stroke-linecap="round" stroke-linejoin="round"/><path d="M187.831 16.787a20.378 20.378 0 01-.001 10.225m-26.153 10.892a6.087 6.087 0 00.788-2.394m2.32-26.322a5.381 5.381 0 01.444 3.742m-35.836-1.591a22.257 22.257 0 00-1.044 3.724m58.44 14.739c-.913 2.54-3.346 4.187-5.731 5.452m-65.392-22.529a12.765 12.765 0 00-3.888 5.139m-1.361 4.899c-.214.915-.347 1.85-.398 2.788m-7.437 10.361c.25 1.55.481 3.229-.249 4.62" stroke="#0E0E0F" stroke-miterlimit="10" stroke-linecap="round" stroke-linejoin="round"/><path d="M2.216 41.765c1.412-2.877 4.927-5.203 8.666-5.555 4.253-.401 8.614 1.73 9.716 5.13.371 1.143-.102 2.41-1.57 2.922-1.256.437-3.12-.002-3.493-1.154-.785-2.42-4.13-3.275-6.628-1.632-2.775 1.825-2.616 4.995-.593 7.025 1.123 1.127 2.73 1.902 4.101 2.809 1.62 1.072 2.953 2.3 3.93 3.816 1.911 2.965 2.083 6.496 2.135 9.841.018 1.197-.901 2.332-2.442 2.51-1.367.157-2.93-.685-2.948-1.889-.044-2.815.004-5.946-1.648-8.444-1.714-2.592-5.478-3.73-7.658-6.024-2.436-2.564-3.112-6.209-1.568-9.355zm10.065 31.417c.063-.409.231-.823.525-1.222 3.647-4.961 11.166 2.368 4.671 4.546-2.813.942-5.53-1.127-5.196-3.324z" fill="#fff" stroke="#0E0E0F" stroke-miterlimit="10" stroke-linecap="round" stroke-linejoin="round"/><path d="M3.316 45.207a2.563 2.563 0 00.33 2.45m11.585 24.296c-.986.356-1.558 1.374-1.23 2.188M4.496 49.414c1.18 2.251 4.701 2.979 6.386 4.988" stroke="#0E0E0F" stroke-miterlimit="10" stroke-linecap="round" stroke-linejoin="round"/><path d="M149.871 87.402c-.14-2.047-1.659-4.276-3.789-5.391-2.423-1.268-5.523-1.062-7 .686-.496.587-.523 1.452.223 2.111.638.563 1.849.755 2.349.163 1.052-1.244 3.24-.94 4.323.639 1.201 1.754.339 3.593-1.351 4.306-.939.395-2.079.465-3.111.67-1.22.243-2.306.647-3.253 1.31-1.85 1.293-2.808 3.344-3.649 5.313-.301.704-.031 1.6.839 2.078.772.424 1.902.304 2.205-.404.707-1.658 1.437-3.524 3.022-4.604 1.643-1.12 4.149-.884 5.996-1.714 2.065-.93 3.348-2.925 3.196-5.163zm-13.576 16.176a1.762 1.762 0 00-.014-.852c-.959-3.823-7.19-1.302-3.869 1.562 1.438 1.24 3.55.672 3.883-.71z" fill="#fff" stroke="#0E0E0F" stroke-miterlimit="10" stroke-linecap="round" stroke-linejoin="round"/><path d="M147.385 89.175a1.64 1.64 0 01-.789 1.371m-12.75 11.588c.498.451.59 1.192.198 1.594m11.623-12.347c-1.244 1.048-3.507.626-4.993 1.409" stroke="#0E0E0F" stroke-width=".5" stroke-miterlimit="10" stroke-linecap="round" stroke-linejoin="round"/></svg>