<svg width="100" height="194" viewBox="0 0 100 194" fill="none" xmlns="http://www.w3.org/2000/svg"><path d="M26.927 72.762c-24.03 11.235-29.856 40.733-21.994 64.18m45.793-63.75c19.544 13.934 24.67 40.594 17.136 63.065" stroke="#fff" stroke-width="3" stroke-miterlimit="10" stroke-linecap="round" stroke-linejoin="round"/><path d="M71.005 139.185c-.459 2.2-1.253 4.484-3.024 5.868-.759.593-1.702.995-2.664.957-.963-.038-1.93-.57-2.339-1.443-.417-.89-.21-1.932.012-2.889.53-2.282 1.111-4.553 1.741-6.81-.39.784-.829 1.525-1.46 2.141-.23.224-.49.434-.8.515-.31.081-.682.001-.864-.263-.457-.66.66-2.459.962-3.123.477-1.047 1.017-2.075 1.685-3.014 1.164-1.634 2.93-3.158 5.07-2.516 3.778 1.133 2.251 7.844 1.681 10.577z" fill="#0E0E0F" stroke="#fff" stroke-miterlimit="10" stroke-linecap="round" stroke-linejoin="round"/><path d="M32.325 118.052c-5.54 7.809-11.218 15.94-13 25.347-2.842 15.014 4.71 29.849 6.887 44.974m28.049-65.937c-4.333 8.617-9.764 18.978-10.09 28.681-.494 14.63 8.397 23.089 11.665 37.087" stroke="#fff" stroke-width="3" stroke-miterlimit="10" stroke-linecap="round" stroke-linejoin="round"/><path d="M61.402 99.673c.248 7.016-1.107 14.057-4.298 20.325-4.79 9.407-16.662 19.197-27.54 13.485-11.6-6.09-16.37-22.643-15.801-34.833.566-12.15 6.76-27.7 18.486-33.135 10.236-4.745 18.96 5.054 23.412 13.188 3.48 6.356 5.482 13.649 5.74 20.97z" fill="#0E0E0F"/><mask id="a" style="mask-type:luminance" maskUnits="userSpaceOnUse" x="13" y="64" width="49" height="72"><path d="M61.402 99.673c.248 7.016-1.107 14.057-4.298 20.325-4.79 9.407-16.662 19.197-27.54 13.485-11.6-6.09-16.37-22.643-15.801-34.833.566-12.15 6.76-27.7 18.486-33.135 10.236-4.745 18.96 5.054 23.412 13.188 3.48 6.356 5.482 13.649 5.74 20.97z" fill="#fff"/></mask><g mask="url(#a)"><path d="M11.906 65.816a176.76 176.76 0 0147.107-8.052 489.487 489.487 0 00-54.968 12.64c17.195-4.348 34.534-8.718 52.252-9.512A461.23 461.23 0 015.67 72.252l49.876-9.195L1.043 75.093a291.328 291.328 0 0166.596-9.207A666.08 666.08 0 011.1 75.685c21.562-3.72 43.177-7.447 65.018-8.77l-69.177 13.31a1767.426 1767.426 0 0166.584-12.55A565.117 565.117 0 00-.36 80.58l75.62-11.47A1474.093 1474.093 0 00-.744 81.649L75.822 69.7c-23.96 3.14-48.097 6.319-71.007 14.005a1307.029 1307.029 0 0078.18-11.568 456.623 456.623 0 00-87.1 17.239c26.438-2.122 52.43-7.897 78.32-13.656A403.555 403.555 0 00-6.634 94.325 1297.56 1297.56 0 0075.43 80.197 321.786 321.786 0 00-10.64 98.04c28.745-1.954 56.856-9.076 84.781-16.168A337.41 337.41 0 00-.329 97.23a575.439 575.439 0 0077.544-14.285 302.913 302.913 0 00-83.269 17.7c24.16-3.021 48.105-7.531 72.032-12.04a841.709 841.709 0 00-76.08 16.24c26.467-4.26 52.95-8.524 79.156-14.173A232.55 232.55 0 00-1.819 105.84c25.83-1.278 51.065-7.856 76.084-14.398a381.542 381.542 0 00-76.379 18.051 1352.631 1352.631 0 0080.102-15.497 435.878 435.878 0 00-62.484 12.296c-5.83 1.597-11.779 3.392-16.559 7.093A299.53 299.53 0 0074.638 97.84a257.945 257.945 0 00-75.46 18.533c.106 1.817 2.676 2.072 4.468 1.753a547.1 547.1 0 0070.232-17.366 406.216 406.216 0 00-76.976 17.839 513.85 513.85 0 0071.41-15.871 355.136 355.136 0 00-72.72 18.492 618.063 618.063 0 0071.798-17.04 559.236 559.236 0 00-62.606 14.132L70.3 106.914-.47 123.629a1417.266 1417.266 0 0165.393-12.841 1658.4 1658.4 0 00-67.897 19.114l69.868-16.844-71.886 22.095a1588.68 1588.68 0 0167.987-17.365 579.882 579.882 0 00-58.376 17.55l62.206-15.514-62.816 15.46a376.745 376.745 0 0161.361-15.21 932.922 932.922 0 01-59.808 16.682 355.962 355.962 0 0161.81-15.005 343.257 343.257 0 01-56.297 15.503l56.186-12.65-52.445 17.033a639.306 639.306 0 0148.89-9.673A401.358 401.358 0 004.091 142.34" stroke="#0E0E0F" stroke-width=".5" stroke-miterlimit="10" stroke-linecap="round" stroke-linejoin="round"/></g><path d="M61.402 99.673c.248 7.016-1.107 14.057-4.298 20.325-4.79 9.407-16.662 19.197-27.54 13.485-11.6-6.09-16.37-22.643-15.801-34.833.566-12.15 6.76-27.7 18.486-33.135 10.236-4.745 18.96 5.054 23.412 13.188 3.48 6.356 5.482 13.649 5.74 20.97zM36.966 71.856c.683 12.943.55 38.889.55 38.889" stroke="#fff" stroke-miterlimit="10" stroke-linecap="round" stroke-linejoin="round"/><path d="M18.007 61.823c-4.703-8.723-3.56-21.926 4.183-28.696 9.956-8.705 25.84-7.211 33.592 3.195 5.902 7.92 5.72 19.042-.689 26.613-9.412 11.12-29.482 12.99-37.086-1.112z" fill="#0E0E0F" stroke="#fff" stroke-miterlimit="10" stroke-linecap="round" stroke-linejoin="round"/><path d="M26.788 52.767c1.369 0 2.479-2.536 2.479-5.665 0-3.128-1.11-5.664-2.48-5.664-1.368 0-2.478 2.536-2.478 5.664 0 3.13 1.11 5.666 2.479 5.666zm18.766-6.609c0 3.13-1.11 5.665-2.48 5.665-1.368 0-2.478-2.536-2.478-5.665s1.11-5.665 2.479-5.665 2.479 2.536 2.479 5.665z" fill="#fff"/><path d="M33.456 31.739a11.017 11.017 0 00-1.121-7.983m4.413 7.744c.316-3.129.755-6.246 1.315-9.34" stroke="#fff" stroke-miterlimit="10" stroke-linecap="round" stroke-linejoin="round"/><path d="M45.01 81.656c0 1.196-.942 2.165-2.105 2.165-1.162 0-2.105-.969-2.105-2.165 0-1.196.942-2.165 2.105-2.165 1.162 0 2.105.97 2.105 2.165zm0 11.861c0 1.196-.942 2.165-2.105 2.165-1.162 0-2.105-.97-2.105-2.165 0-1.196.942-2.165 2.105-2.165 1.162 0 2.105.969 2.105 2.165zm0 12.688c0 1.196-.942 2.165-2.105 2.165-1.162 0-2.105-.969-2.105-2.165 0-1.196.942-2.165 2.105-2.165 1.162 0 2.105.97 2.105 2.165z" fill="#fff"/><path d="M40.972 31.505a27.03 27.03 0 013.458-7.524" stroke="#fff" stroke-miterlimit="10" stroke-linecap="round" stroke-linejoin="round"/><path d="M1.79 139.868c.46 2.2 1.252 4.484 3.024 5.868.76.593 1.702.995 2.665.957.962-.038 1.93-.57 2.338-1.443.418-.89.211-1.932-.011-2.889a161.31 161.31 0 00-1.741-6.81c.39.784.829 1.525 1.46 2.141.23.224.49.434.8.515.31.081.68.001.864-.263.457-.66-.66-2.459-.963-3.123-.477-1.047-1.017-2.075-1.685-3.014-1.164-1.633-2.93-3.158-5.07-2.516-3.777 1.133-2.25 7.844-1.68 10.577zm53.25 51.81c1.147-.435 2.194-1.222 2.675-2.31.662-1.496.102-3.319-1.09-4.475-1.19-1.156-2.9-1.713-4.588-1.848-1.69-.135-3.382.113-5.057.361l-3.19.472c-1.534.227-3.114.469-4.441 1.241-4.95 2.881-.775 6.751 3.154 7.371 3.482.549 9.217.448 12.538-.812z" fill="#0E0E0F" stroke="#fff" stroke-miterlimit="10" stroke-linecap="round" stroke-linejoin="round"/><path d="M48.47 181.123a8.784 8.784 0 011.161 4.115c.01.381-.067.85-.44.979-.373.128-.742-.183-.996-.474a17.676 17.676 0 01-2.108-2.975c-.219-.389-.567-.854-1.014-.744a.703.703 0 00-.343.22c-.529.582-.26 1.468-.094 2.223.166.755.008 1.79-.784 1.927-.573.099-1.074-.37-1.404-.83a7.342 7.342 0 01-1.257-2.959" stroke="#fff" stroke-miterlimit="10" stroke-linecap="round" stroke-linejoin="round"/><path d="M15.626 183.16c-2.131.598-8.746 3.065-8.511 5.997.316 3.941 8.291 3.49 10.914 3.418 3.595-.098 12.428-1.164 11.035-6.789-1.271-5.137-10.041-3.578-13.438-2.626z" fill="#0E0E0F" stroke="#fff" stroke-miterlimit="10" stroke-linecap="round" stroke-linejoin="round"/><path d="M10.442 183.181c.09.833.327 1.649.695 2.401.32.653.922 1.34 1.634 1.19.6-.127.923-.803.96-1.415.035-.612-.122-1.227-.06-1.837.062-.61.453-1.268 1.064-1.318.724-.059 1.212.723 1.43 1.416.216.693.421 1.51 1.083 1.81.72.326 1.598-.221 1.89-.954.292-.733.15-1.563-.058-2.324-.208-.761-.479-1.529-.432-2.317M56.227 40.8a20.027 20.027 0 011.279 6.122m.108 3.192A18.75 18.75 0 0152.17 61.75m-7.862 67.248c6.253-3.289 9.607-10.001 12.058-16.313m-23.289 17.922c2.38.832 4.983.776 7.388.072" stroke="#fff" stroke-miterlimit="10" stroke-linecap="round" stroke-linejoin="round"/><path d="M96.516 9.834c-2.757-5.26-8.736-8.98-14.71-8.83-6.796.173-13.302 5.276-14.424 12.112-.379 2.298.6 4.646 3.015 5.31 2.064.567 4.93-.7 5.31-3.015.8-4.867 5.932-7.269 10.18-4.642 4.719 2.917 5.045 9.095 2.217 13.48-1.57 2.436-3.97 4.296-5.971 6.359-2.367 2.44-4.25 5.115-5.518 8.272-2.48 6.171-2.11 13.053-1.582 19.546.189 2.324 1.849 4.317 4.317 4.317 2.19 0 4.507-1.98 4.317-4.317-.445-5.466-1.09-11.52 1.067-16.73 2.237-5.406 7.979-8.453 11.007-13.384 3.384-5.512 3.788-12.726.775-18.478zm-10.19 63.127a5.783 5.783 0 00-1.051-2.25c-6.669-8.8-17.22 7.08-6.556 9.85 4.618 1.2 8.538-3.418 7.608-7.6z" fill="#0E0E0F" stroke="#fff" stroke-miterlimit="10" stroke-linecap="round" stroke-linejoin="round"/><path d="M95.404 16.75a6 6 0 01-.076 4.821M81.44 71.237c1.624.471 2.713 2.315 2.341 3.965m10.523-50.037c-1.454 4.626-6.888 6.822-9.186 11.092" stroke="#fff" stroke-miterlimit="10" stroke-linecap="round" stroke-linejoin="round"/></svg>