<svg width="136" height="171" viewBox="0 0 136 171" fill="none" xmlns="http://www.w3.org/2000/svg"><path d="M56.09 56.463a59.435 59.435 0 00-28.317 5.8c-4.492 2.165-9.173 5.629-9.532 10.603-.317 4.399 2.928 8.248 6.418 10.944a39.486 39.486 0 0019.342 7.91m11.31 4.327c-10.119 17.11-19.403 39.483-37.273 65.123M79.55 52.586c9.076 2.555 21.45 3.914 24.486-9.68 0 0 5.464-22.406 16.464-24.406M75.772 97.083c8.834 10.686 15.118 16.309 17.611 30.043 2.593 14.284-3.108 23.309-8.287 35.223" stroke="#fff" stroke-width="3" stroke-miterlimit="10" stroke-linecap="round" stroke-linejoin="round"/><path d="M91.19 78.143c.248 7.016-1.107 14.057-4.298 20.325-4.79 9.407-16.662 19.197-27.54 13.485-11.599-6.09-16.369-22.643-15.8-34.833.566-12.15 6.76-27.699 18.486-33.135 10.235-4.745 18.96 5.054 23.412 13.188 3.48 6.357 5.481 13.65 5.74 20.97z" fill="#0D262D"/><path d="M91.19 78.143c.248 7.016-1.107 14.057-4.298 20.325-4.79 9.407-16.662 19.197-27.54 13.485-11.599-6.09-16.369-22.643-15.8-34.833.566-12.15 6.76-27.699 18.486-33.135 10.235-4.745 18.96 5.054 23.412 13.188 3.48 6.357 5.481 13.65 5.74 20.97z" stroke="#fff" stroke-miterlimit="10" stroke-linecap="round" stroke-linejoin="round"/><path d="M96.7 160.644c2.13.598 8.746 3.065 8.511 5.996-.316 3.941-8.292 3.49-10.914 3.418-3.595-.098-12.43-1.164-11.036-6.789 1.272-5.136 10.04-3.577 13.439-2.625zm-77.691 8.049c1.149-.455 2.2-1.279 2.683-2.417.664-1.565.102-3.473-1.093-4.683s-2.91-1.793-4.604-1.934c-1.694-.141-3.393.118-5.074.377l-3.201.493c-1.54.237-3.124.491-4.456 1.299-4.966 3.015-.778 7.064 3.164 7.713 3.496.576 9.249.471 12.58-.848z" fill="#0D262D" stroke="#fff" stroke-miterlimit="10" stroke-linecap="round" stroke-linejoin="round"/><path d="M101.882 160.665a7.247 7.247 0 01-.695 2.401c-.32.654-.922 1.34-1.634 1.19-.6-.126-.923-.804-.959-1.416-.036-.612.121-1.227.06-1.837-.063-.61-.454-1.268-1.065-1.318-.724-.059-1.212.724-1.429 1.417-.218.693-.422 1.51-1.084 1.81-.719.326-1.598-.221-1.89-.954-.292-.733-.15-1.564.058-2.325.208-.762.48-1.528.432-2.316m-81.259.33a9.48 9.48 0 011.166 4.306c.01.398-.067.889-.442 1.024-.374.134-.744-.192-1-.496a18.464 18.464 0 01-2.114-3.113c-.22-.407-.569-.894-1.017-.779a.706.706 0 00-.344.23c-.53.609-.26 1.536-.095 2.326.167.79.008 1.873-.787 2.016-.575.104-1.077-.387-1.408-.868a7.849 7.849 0 01-1.26-3.097M65.755 50.752c-.264 12.247-.252 24.5.035 36.748" stroke="#fff" stroke-miterlimit="10" stroke-linecap="round" stroke-linejoin="round"/><path d="M72.39 62.393c0 1.135-.818 2.054-1.826 2.054s-1.826-.92-1.826-2.054.818-2.054 1.826-2.054 1.826.92 1.826 2.054zm0 10.956c0 1.135-.818 2.054-1.826 2.054s-1.826-.92-1.826-2.054.818-2.054 1.826-2.054 1.826.92 1.826 2.054zm0 10.956c0 1.135-.818 2.054-1.826 2.054s-1.826-.92-1.826-2.054.818-2.054 1.826-2.054 1.826.92 1.826 2.054z" fill="#fff"/><path d="M47.333 40.66c-4.703-8.723-3.56-21.926 4.183-28.696 9.956-8.705 25.84-7.21 33.592 3.195 5.903 7.922 5.72 19.042-.689 26.613-9.412 11.12-29.482 12.991-37.086-1.112z" fill="#0D262D" stroke="#fff" stroke-miterlimit="10" stroke-linecap="round" stroke-linejoin="round"/><path d="M60.064 23.591c0 2.017-.715 3.652-1.598 3.652-.882 0-1.598-1.634-1.598-3.651s.715-3.652 1.598-3.652c.883 0 1.598 1.634 1.598 3.651zm10.5-.609c0 2.017-.715 3.652-1.598 3.652-.883 0-1.598-1.635-1.598-3.652 0-2.017.715-3.652 1.598-3.652.883 0 1.598 1.635 1.598 3.652z" fill="#fff"/><path d="M62.782 10.576a11.017 11.017 0 00-1.12-7.983m4.413 7.744c.317-3.129.755-6.245 1.315-9.339m2.907 9.344a27.03 27.03 0 013.458-7.524M61.366 108.354c1.916 1.532 4.583 2.075 6.946 1.415m19.105-26.47c.097 4.258-1.184 9.683-3.385 12.532" stroke="#fff" stroke-miterlimit="10" stroke-linecap="round" stroke-linejoin="round"/><path d="M44.083 95.91c1.69.507 3.63 1.256 5.209.078.957-.714 1.53-1.852 1.782-3.019.252-1.173.084-2.49-1.121-2.955-1.44-.556-3.06-.647-4.522-1.17-1.128-.403-1.571-1.82-1.572-2.98 0-.41.055-.84-.121-1.212-1.075.873-2.174 1.315-3.522 1.481-1.991.244-4.173 1.07-4.63 3.257-.803 3.86 5.823 5.718 8.497 6.52zm85.126-88.608c.251.01.497.06.727.167 3.351 1.528-3.781 5.142-3.529 5.459 1.189 1.527 3.252 3.668 2.068 5.652-1.044 1.752-3.247 2.964-5.272 3.096-1.879.122-3.201-1.19-4.211-2.618-1.128-1.599-2.247-3.914-1.247-5.85.641-1.239 2.615-2.009 3.821-2.502 1.528-.627 3.126-1.123 4.524-2.003.597-.376 1.156-.82 1.797-1.112.413-.187.875-.305 1.322-.289z" fill="#0D262D" stroke="#fff" stroke-miterlimit="10" stroke-linecap="round" stroke-linejoin="round"/><path d="M64.302 34.12c2.269 1.04 5.064.608 7.103-.83 2.039-1.44 3.346-3.776 3.825-6.226m-27.212 7.748c1.383 4.905 4.952 9.07 9.569 11.22m-9.758-20.245a17.935 17.935 0 00-.44 5.435" stroke="#fff" stroke-miterlimit="10" stroke-linecap="round" stroke-linejoin="round"/></svg>