<svg width="104" height="195" viewBox="0 0 104 195" fill="none" xmlns="http://www.w3.org/2000/svg"><path d="M45.22 79.227c-6.63-15.266-11.16-30.455-1.247-45.46 5.386-8.154 12.95-14.579 19.565-21.774m-1.547 68.608c-1.57-11.162-5.699-24.535 1.42-34.483 4.19-5.854 10.46-9.838 16.728-13.378 6.27-3.54 12.793-6.853 17.993-11.83" stroke="#0E0E0F" stroke-width="3" stroke-miterlimit="10" stroke-linecap="round" stroke-linejoin="round"/><path d="M102.093 18.121c.555 1.062.809 2.318.454 3.426-.488 1.523-2.083 2.492-3.704 2.563-1.62.071-3.233-.632-4.554-1.63-1.322-1-2.398-2.28-3.46-3.55l-2.026-2.418c-.974-1.163-1.97-2.366-2.439-3.793-1.745-5.32 3.82-5.438 7.094-3.338 2.901 1.862 7.027 5.661 8.635 8.74z" fill="#fff" stroke="#0E0E0F" stroke-miterlimit="10" stroke-linecap="round" stroke-linejoin="round"/><path d="M90.431 21.566a8.582 8.582 0 003.523-2.253c.255-.272.504-.665.314-1.002-.189-.336-.66-.348-1.036-.3a17.299 17.299 0 00-3.473.804c-.413.142-.97.256-1.224-.115a.683.683 0 01-.107-.383c-.008-.769.763-1.242 1.375-1.686.612-.444 1.17-1.303.68-1.918-.355-.445-1.026-.428-1.566-.306a7.173 7.173 0 00-2.84 1.346" stroke="#0E0E0F" stroke-miterlimit="10" stroke-linecap="round" stroke-linejoin="round"/><path d="M52.135 11.034c-1.74-1.286-6.934-5.836-5.702-8.435 1.656-3.494 8.792-.315 11.164.66 3.253 1.337 10.961 5.375 7.736 10.035-2.945 4.256-10.422-.211-13.198-2.26z" fill="#fff" stroke="#0E0E0F" stroke-miterlimit="10" stroke-linecap="round" stroke-linejoin="round"/><path d="M47.403 9.217a7.079 7.079 0 011.468-1.954c.52-.486 1.308-.905 1.907-.521.505.324.565 1.055.386 1.628-.179.572-.536 1.079-.69 1.659-.156.579-.027 1.316.515 1.574.642.305 1.36-.241 1.798-.8.44-.56.91-1.234 1.62-1.28.77-.048 1.383.757 1.396 1.529.013.772-.406 1.48-.86 2.106-.454.624-.968 1.23-1.199 1.968" stroke="#0E0E0F" stroke-miterlimit="10" stroke-linecap="round" stroke-linejoin="round"/><path d="M37.554 115.302c-10.252 8.379-16.338 21.625-16.019 34.862.311 12.885 6.284 25.143 6.501 38.03m35.838-73.953c10.567 13.647 15.989 31.184 14.968 48.414-.533 8.994-2.75 17.911-2.21 26.905" stroke="#0E0E0F" stroke-width="3" stroke-miterlimit="10" stroke-linecap="round" stroke-linejoin="round"/><path d="M73.484 96.125c.242-6.86-1.082-13.747-4.203-19.876-4.684-9.199-16.294-18.773-26.932-13.187-11.343 5.956-16.007 22.143-15.452 34.064.554 11.881 6.61 27.087 18.078 32.403 10.009 4.64 18.54-4.943 22.895-12.897 3.403-6.216 5.36-13.348 5.614-20.507z" fill="#fff"/><mask id="a" style="mask-type:luminance" maskUnits="userSpaceOnUse" x="26" y="61" width="48" height="70"><path d="M73.484 96.125c.242-6.86-1.082-13.747-4.203-19.876-4.684-9.199-16.294-18.773-26.932-13.187-11.343 5.956-16.007 22.143-15.452 34.064.554 11.881 6.61 27.087 18.078 32.403 10.009 4.64 18.54-4.943 22.895-12.897 3.403-6.216 5.36-13.348 5.614-20.507z" fill="#fff"/></mask><g mask="url(#a)"><path d="M50.607 126.451l19.17-4.379a328.308 328.308 0 01-28.918 6.041 224.871 224.871 0 0128.565-6.806l-39.568 6.188a373.845 373.845 0 0133.552-6.594l-34.527 5.002 40.535-9.102a650.05 650.05 0 01-38.946 5.65c14.557-3.934 29.524-6.772 44.633-8.797a329.112 329.112 0 01-48.601 6.046c17.33-5.547 35.779-8.155 54.086-10.732a921.962 921.962 0 01-59.759 8.229c18.617-5.427 37.837-9.421 57.334-11.912a1929.357 1929.357 0 00-54.474 9.98c20.266-6.348 41.131-11.365 62.341-14.989a5542.4 5542.4 0 01-64.537 10.429l58.754-12.844c-20.258 1.058-39.938 5.856-59.335 10.837a833.417 833.417 0 0062.167-16.004c-20.795 2.674-41.285 6.992-61.105 12.876a1334.47 1334.47 0 0165.243-16.6c-22.931 2.35-45.589 6.538-67.56 12.491 19.18-4.41 38.489-8.426 57.906-12.045a416.313 416.313 0 00-50.239 7.753l53.59-11.197c-4.879-.758-9.889.08-14.745.933a1699.677 1699.677 0 00-41.219 7.78l48.315-11.299c-17.43.322-34.507 3.903-51.408 7.464a1692.164 1692.164 0 0054.489-12.228c-19.592 1.668-38.791 5.602-57.914 9.525a1088.853 1088.853 0 0158.257-13.07 653.954 653.954 0 00-59.98 9.702 1647.13 1647.13 0 0156.398-11.992c-18.02 1.041-35.904 3.701-53.243 7.918a1259.903 1259.903 0 0160.995-13.584c-21.318 2.057-42.214 6.386-63.039 10.704 20.134-5.27 40.629-9.523 61.108-13.772-20.271 1.44-40.117 5.53-59.864 9.606a679.78 679.78 0 0159.402-10.595c-19.202.85-38.155 3.891-57.036 6.924 18.411-5.1 37.713-7.51 56.902-9.897.73-.74-.993-1.435-2.138-1.337-21.6 1.847-42.956 5.661-63.567 11.351" stroke="#fff" stroke-width="2" stroke-miterlimit="10" stroke-linecap="round" stroke-linejoin="round"/></g><path d="M73.484 96.125c.242-6.86-1.082-13.747-4.203-19.876-4.684-9.199-16.294-18.773-26.932-13.187-11.343 5.956-16.007 22.143-15.452 34.064.554 11.881 6.61 27.087 18.078 32.403 10.009 4.64 18.54-4.943 22.895-12.897 3.403-6.216 5.36-13.348 5.614-20.507z" stroke="#0E0E0F" stroke-miterlimit="10" stroke-linecap="round" stroke-linejoin="round"/><path d="M20.624 189.303c-1.144.705-2.305 1.878-2.008 3.188.202.894 1.065 1.52 1.963 1.706.897.186 1.827.013 2.72-.193 1.825-.421 3.688-1.022 5.05-2.308 1.597-1.508 2.4-3.785.098-4.508-2.24-.702-5.982.981-7.823 2.115zm61.692 4.035c.905.156 1.844.253 2.736.035.893-.218 1.74-.803 2.059-1.665 1.69-4.573-7.638-5.966-10.414-4.777-5.878 2.519 3.125 5.979 5.619 6.407z" fill="#fff" stroke="#0E0E0F" stroke-miterlimit="10" stroke-linecap="round" stroke-linejoin="round"/><path d="M48.772 122.792a798.761 798.761 0 01.034-35.936" stroke="#0E0E0F" stroke-miterlimit="10" stroke-linecap="round" stroke-linejoin="round"/><path d="M55.23 111.533c0-1.041-.792-1.884-1.77-1.884-.979 0-1.772.843-1.772 1.884 0 1.04.793 1.884 1.771 1.884.978 0 1.771-.843 1.771-1.884zm-1.77-8.163c.978 0 1.77-.844 1.77-1.884 0-1.041-.792-1.884-1.77-1.884-.979 0-1.772.843-1.772 1.884 0 1.04.793 1.884 1.771 1.884zm0-10.048c.978 0 1.77-.844 1.77-1.884s-.792-1.884-1.77-1.884c-.979 0-1.772.843-1.772 1.884 0 1.04.793 1.884 1.771 1.884z" fill="#0E0E0F"/><path d="M30.758 132.663c-4.599 8.53-3.482 21.442 4.09 28.062 9.736 8.513 25.268 7.051 32.85-3.125 5.772-7.747 5.593-18.622-.674-26.025-9.204-10.873-28.83-12.704-36.266 1.088z" fill="#fff" stroke="#0E0E0F" stroke-miterlimit="10" stroke-linecap="round" stroke-linejoin="round"/><path d="M43.207 149.354c0-1.972-.699-3.571-1.563-3.571-.863 0-1.562 1.599-1.562 3.571 0 1.972.699 3.571 1.562 3.571.864 0 1.563-1.599 1.563-3.571zm10.268.596c0-1.972-.7-3.571-1.563-3.571s-1.562 1.599-1.562 3.571c0 1.972.699 3.571 1.562 3.571.863.001 1.563-1.598 1.563-3.571z" fill="#0E0E0F"/><path d="M45.865 162.083a10.778 10.778 0 01-1.096 7.806m4.316-7.574c.31 3.059.739 6.107 1.286 9.133m2.843-9.136a26.463 26.463 0 003.382 7.358m-25.449-23.533c-.06-.808-.12-1.616-.178-2.423m.811-3.798c.516-2.533 1.295-5.037 2.59-7.274s3.134-4.204 5.434-5.384" stroke="#0E0E0F" stroke-miterlimit="10" stroke-linecap="round" stroke-linejoin="round"/><path d="M52.853 135.084a6.998 6.998 0 00-1.983-1.416c-2.083-1.006-4.593-1.157-6.755-.309-1.962.769-3.574 2.336-4.486 4.227-.376.78-.998 1.946-.42 2.656.511.631 1.922.616 2.64.631 4.137.09 8.281-.109 12.391-.596 1.177-.139 1.433-.4.92-1.504-.662-1.419-1.317-2.681-2.307-3.689z" fill="#0E0E0F"/><path d="M54.445 65.575a13.755 13.755 0 014.388 2.705m3.489 3.293a36.1 36.1 0 017.012 20.005" stroke="#0E0E0F" stroke-miterlimit="10" stroke-linecap="round" stroke-linejoin="round"/><path d="M8.55 57.73c-.07-6.115-7.321-6.287-7.476-.23-.393 15.332.89 30.662 1.336 45.994.12 4.122 7.597 4.378 7.477.231C9.44 88.394 8.726 73.068 8.55 57.731zm3.504 60.199c-.348 2.808-2.266 3.948-4.93 4.007-3.714.083-5.07-1.255-5.197-5.045-.06-1.791.727-3.314 2.427-4.036 1.761-.746 4.272-.535 5.847.566 1.543 1.078 2.064 2.808 1.853 4.508z" fill="#fff" stroke="#0E0E0F" stroke-miterlimit="10" stroke-linecap="round" stroke-linejoin="round"/><path d="M9.226 114.453c1.11 1.098 1.357 2.965.57 4.313M6.5 66.077l.423 19.176m.435 4.132v2.464" stroke="#0E0E0F" stroke-miterlimit="10" stroke-linecap="round" stroke-linejoin="round"/></svg>