<svg width="85" height="73" viewBox="0 0 85 73" fill="none" xmlns="http://www.w3.org/2000/svg"><path d="M29.989 22.813c-1.085.337-2.175.673-3.24 1.072a16.343 16.343 0 00-3.023 1.516c-.806.514-1.562 1.131-2.304 1.731a49.87 49.87 0 00-2.055 1.76c-1.446 1.3-2.837 2.612-3.955 4.211a20.511 20.511 0 00-1.605 2.674c-.462.938-.745 1.963-1.027 2.966-.241.858-.466 1.73-.607 2.61a14.563 14.563 0 00-.141 3.271c.068.99.26 1.994.59 2.931.264.744.62 1.454.948 2.171.434.95.874 1.893 1.407 2.791.399.674.886 1.286 1.4 1.874 1.326 1.516 2.825 2.917 4.479 4.072a23.083 23.083 0 004.438 2.407c.925.382 1.914.613 2.877.88.75.205 1.494.433 2.252.6.713.157 1.436.22 2.165.255.59.028 1.188.064 1.774-.025.65-.098 1.292-.25 1.917-.454.928-.3 1.808-.803 2.66-1.265.332-.178.654-.377.957-.6.486-.356.98-.759 1.347-1.235.444-.577.69-1.235.62-1.973a2.673 2.673 0 00-.927-1.777c-1.064-.904-2.868-.842-3.752.307a2.38 2.38 0 01-.118.144c-.376.297-.78.55-1.198.786-.578.287-1.168.541-1.785.73a7.514 7.514 0 01-1.05.092 13.893 13.893 0 01-2.443-.409 85.74 85.74 0 01-2.614-.72 19.998 19.998 0 01-1.754-.764 21.662 21.662 0 01-1.73-.905 24.374 24.374 0 01-3.796-3.249 13.966 13.966 0 01-1.59-2.23c-.316-.65-.606-1.314-.91-1.97-.287-.624-.545-1.24-.734-1.894a12.12 12.12 0 01-.15-2.04c.113-1.338.452-2.66.84-3.946.316-.888.736-1.714 1.226-2.519.385-.57.796-1.12 1.253-1.636a26.352 26.352 0 011.835-1.842c1.54-1.39 3.149-2.77 4.936-3.83 1.424-.662 2.938-1.112 4.435-1.577 1.385-.429 2.056-2.114 1.572-3.418a2.669 2.669 0 00-1.354-1.48 2.53 2.53 0 00-1.103-.248 3.204 3.204 0 00-.963.155z" fill="#46A3BB"/><path d="M32.98 35.426c-.679.315-1.34.649-2.003.998-.644.34-1.192.858-1.685 1.385-.49.524-.868 1.166-1.206 1.797-.249.466-.426.971-.586 1.471-.14.438-.273.863-.377 1.307-.14.598-.14 1.241-.103 1.85.06.926.5 1.831 1.014 2.583.664.975 1.722 1.595 2.88 1.755.416.056.84.05 1.247-.028.321-.045.63-.128.928-.246.29-.147.576-.3.86-.456l.276-.22c.22-.191.434-.389.644-.592.223-.214.405-.463.586-.711.318-.436.592-.909.811-1.402.125-.281.223-.573.34-.858.274-.676.35-1.367.091-2.065a2.68 2.68 0 00-1.354-1.48 2.406 2.406 0 00-.403-.149c.595-.293 1.07-.675 1.366-1.3.306-.643.34-1.397.092-2.065a2.674 2.674 0 00-1.353-1.48 2.877 2.877 0 00-1.198-.266 2.045 2.045 0 00-.867.172zm-2.13 8.086a1.963 1.963 0 01-.208.11l.208-.11z" fill="#46A3BB"/><path d="M29.025 15.975c-.439.003-.88.024-1.32.053-.696.046-1.362.2-2.042.361-.888.21-1.737.6-2.564.975a41.204 41.204 0 00-2.96 1.514c-1.614.891-3.207 1.86-4.69 2.956a31.33 31.33 0 00-4.43 3.986c-1.216 1.32-2.24 2.757-3.183 4.285-.822 1.333-1.428 2.816-2.009 4.267-.756 1.885-1.192 3.856-1.422 5.87-.123 1.09-.154 2.193-.186 3.291-.025.918.04 1.805.2 2.71.324 1.848.804 3.707 1.522 5.443.313.756.684 1.488 1.061 2.214a49.534 49.534 0 001.63 2.92c.48.783 1.06 1.495 1.644 2.2a65.884 65.884 0 002.073 2.348c1.332 1.456 2.961 2.531 4.73 3.391 1.865.91 3.815 1.63 5.803 2.223 1.86.555 3.814.845 5.744 1.026 1.122.104 2.248.15 3.375.193a28.06 28.06 0 002.782-.003c2.11-.125 4.145-.644 6.127-1.36 1.474-.532 2.995-1.142 4.312-2 1.161-.756 2.162-1.764 3.197-2.68l.503-.457a2.65 2.65 0 00.591-1.26 2.676 2.676 0 00-.441-1.989 2.668 2.668 0 00-1.718-1.093c-.625-.11-1.489-.002-1.988.44-.61.541-1.215 1.09-1.834 1.62-.585.504-1.177.95-1.837 1.335-.734.353-1.49.66-2.253.95-.849.322-1.707.624-2.586.855a19.95 19.95 0 01-2.728.348c-.845.051-1.696.03-2.543-.002-2.681-.132-5.373-.45-7.949-1.218-2.013-.68-4.008-1.485-5.834-2.577a15.03 15.03 0 01-2.03-1.827c-.699-.788-1.393-1.586-2.029-2.425-.733-.969-1.329-2.034-1.902-3.104a28.274 28.274 0 01-1.186-2.612c-.33-.854-.569-1.742-.78-2.633-.133-.608-.257-1.22-.316-1.839-.06-.655-.05-1.309-.03-1.965.097-1.795.343-3.582.834-5.314.338-.943.74-1.863 1.144-2.782.365-.83.781-1.633 1.255-2.406a26.252 26.252 0 013.743-4.394c2.19-1.92 4.664-3.482 7.222-4.864 1.156-.593 2.351-1.158 3.603-1.51.77-.12 1.546-.155 2.327-.16 1.163-.01 2.327-.002 3.49.004.655.004 1.368-.445 1.778-.928.46-.543.687-1.263.62-1.972a2.673 2.673 0 00-.929-1.779c-.586-.497-1.228-.616-1.972-.62-.804-.005-1.608-.009-2.412-.009-.403 0-.805.001-1.207.004z" fill="#E2FF5E"/><path d="M27.433 31.458c-1.04.71-1.958 1.56-2.883 2.41-.995.916-1.661 2.103-2.285 3.287-.523.993-.9 2.007-1.213 3.088-.275.943-.284 1.963-.322 2.937-.04.923-.113 1.869-.02 2.79a9.11 9.11 0 001.187 3.656c1.04 1.776 2.889 2.923 4.78 3.627 1.068.396 2.155.72 3.293.812.664.052 1.336.092 1.997.002.586-.08 1.197-.205 1.745-.434 1.338-.555 2.092-2.02 1.572-3.42-.488-1.317-2.08-2.128-3.42-1.571a3.142 3.142 0 01-.264.097 5.886 5.886 0 01-.763.076 10.184 10.184 0 01-1.66-.295 12.405 12.405 0 01-1.961-.89 7.023 7.023 0 01-.565-.465 5.439 5.439 0 01-.253-.362 7.593 7.593 0 01-.312-.855c-.174-1.081-.101-2.177-.057-3.272-.01.239-.02.477-.028.714.039-.77.12-1.514.308-2.255a16.99 16.99 0 011.332-2.736c.348-.457.742-.862 1.156-1.255.546-.467 1.095-.92 1.69-1.327 1.198-.818 1.48-2.527.654-3.706a2.652 2.652 0 00-2.183-1.122 2.708 2.708 0 00-1.525.469zM70.85 2.745c-.225.05-.449.102-.674.153a2.69 2.69 0 00-1.106.775c-.699.658-1.4 1.312-2.08 1.99-.619.619-1.154 1.305-1.654 2.019a54.145 54.145 0 00-1.78 2.698c-.22.356-.436.717-.597 1.105a14.46 14.46 0 00-.56 1.709 3.463 3.463 0 00-.116.692c-.033.586-.053 1.007.156 1.569.137.368.542 1.035.88 1.26.457.307.857.628 1.427.704.426.058.85.082 1.28.064.251-.01.506-.07.754-.108a30.07 30.07 0 001.7-.323c-.122.388-.107.78-.113 1.2.046.467.202.892.47 1.276.364.52 1.053 1.056 1.717 1.094.304.018.61.03.916.04l1.004-.23c.631-.147 1.214-.797 1.48-1.354.133-.282.215-.585.243-.892.398-.428.81-.845 1.215-1.26.436-.445.858-.891 1.22-1.4.566-.797 1.053-1.685.956-2.704-.126-1.332-1.149-2.472-2.472-2.705-.938-.165-1.915.154-2.808.416-.462.135-.919.29-1.379.434-.587.182-1.179.347-1.774.5.367-.535.75-1.061 1.163-1.561.84-1.012 1.853-1.89 2.811-2.787.493-.463.68-1.33.621-1.973a2.681 2.681 0 00-.928-1.777 2.679 2.679 0 00-1.727-.632c-.082-.004-.164 0-.246.008z" fill="#E2FF5E"/><path d="M33.887 34.293c-.929.012-1.838.074-2.748.269-1.024.22-1.976.577-2.84 1.18-.44.307-.83.701-1.189 1.099-.294.325-.526.702-.757 1.072-.38.606-.627 1.326-.823 2.009-.163.575-.309 1.167-.352 1.764-.028.389-.055.781-.04 1.171.013.325.054.641.105.962.114.71.35 1.402.618 2.068.135.337.303.678.486.992.27.463.572.863.946 1.253.157.163.352.284.54.407.236.154.471.297.72.429.408.215.87.344 1.311.475.453.134.91.166 1.381.18a6.53 6.53 0 001.41-.102c.914-.175 1.846-.491 2.643-.987.181-.113.361-.224.536-.346.402-.279.76-.635 1.096-.989.217-.23.422-.486.607-.741.475-.659.888-1.339 1.232-2.074.312-.665.543-1.382.708-2.096.2-.866.071-1.777-.074-2.641a6.835 6.835 0 00-.94-2.533c-.265-.419-.642-.775-1.012-1.1-.25-.22-.514-.422-.78-.621a11.407 11.407 0 00-.94-.63c-.21-.126-.454-.18-.672-.289a1.25 1.25 0 00-.672-.125 1.78 1.78 0 00-.467-.055l-.033-.001zm.171 2.65c.191.083.386.15.571.251a9.92 9.92 0 011.434 1.159c.112.137.213.279.306.431.15.324.261.659.357 1.003.107.533.182 1.076.196 1.622-.036.31-.109.61-.195.909a11.956 11.956 0 01-.907 1.971c-.353.513-.73.999-1.169 1.443a7.965 7.965 0 01-.858.609 8.14 8.14 0 01-1.417.534 6.38 6.38 0 01-1.187.102 5.307 5.307 0 01-.89-.162 5.95 5.95 0 01-.929-.429 3.641 3.641 0 01-.362-.295 6.823 6.823 0 01-.424-.636 10.874 10.874 0 01-.663-1.762 7.6 7.6 0 01-.134-1.388c.056-.623.171-1.225.337-1.828a8.5 8.5 0 01.66-1.459c.222-.302.463-.578.728-.845.244-.203.5-.383.772-.546a7.628 7.628 0 011.283-.451c.825-.162 1.65-.219 2.491-.233z" fill="#fff"/><path d="M31.349 27.706c-1.53.377-3.063.788-4.522 1.387-.434.178-.846.402-1.26.622-.47.25-.887.59-1.301.925-.558.45-1.094.94-1.586 1.465a21.19 21.19 0 00-1.366 1.58c-.454.592-.845 1.235-1.222 1.88-.661 1.137-1.203 2.354-1.67 3.582-.496 1.314-.937 2.739-1.007 4.153-.021.429-.034.852-.007 1.28.024.354.064.706.11 1.058.108.772.265 1.529.445 2.288.153.646.374 1.272.62 1.887.155.386.366.75.562 1.117.162.304.339.6.517.894.383.63.89 1.2 1.399 1.73.493.515 1.01.988 1.577 1.419.604.459 1.256.872 1.912 1.252.586.34 1.194.594 1.83.82.61.218 1.233.402 1.873.488.445.06.898.08 1.347.103.806.042 1.605.043 2.41-.037.766-.076 1.525-.252 2.267-.451a9.68 9.68 0 001.819-.711c.517-.26 1.023-.527 1.489-.87.453-.333.858-.747 1.272-1.125.503-.46.984-.971 1.44-1.477.977-1.085 1.939-2.203 2.726-3.436.379-.592.702-1.197.969-1.85.293-.715.546-1.451.742-2.2a20.6 20.6 0 00.63-4.11c.039-.73.058-1.454.02-2.186-.04-.818-.208-1.615-.392-2.411-.172-.75-.505-1.442-.874-2.113-.35-.638-.818-1.192-1.314-1.722-.39-.42-.852-.757-1.327-1.073-.522-.348-1.064-.666-1.596-1-.523-.356-1.012-.757-1.534-1.114-.367-.252-.75-.488-1.173-.635a15.08 15.08 0 00-1.244-.376c-.601-.153-1.225-.226-1.835-.333a17.707 17.707 0 00-1.16-.162 1.342 1.342 0 00-.552-.49 1.188 1.188 0 00-.526-.12 2.032 2.032 0 00-.508.072zm-.312 2.809c.273.273.655.435 1.054.379.127-.018.252-.024.378-.025.579.046 1.147.158 1.72.252.615.099 1.217.214 1.813.387.244.089.475.196.7.325.449.308.874.65 1.317.968.576.408 1.193.756 1.79 1.13.47.319.9.663 1.297 1.066.324.395.608.81.862 1.252.233.5.409 1.01.546 1.544.188.98.256 1.957.236 2.954-.05.839-.14 1.67-.263 2.505a16.61 16.61 0 01-.546 2.344c-.158.445-.316.89-.516 1.318-.203.433-.423.845-.671 1.25a32.36 32.36 0 01-4.373 4.957 8.123 8.123 0 01-1.134.776c-.334.164-.67.316-1.014.457-.384.158-.787.27-1.187.377-.468.099-.94.18-1.417.229-.554.055-1.107.06-1.662.049-.76-.041-1.511-.1-2.246-.306-.424-.142-.84-.298-1.255-.47-.44-.182-.855-.445-1.26-.703a17.127 17.127 0 01-1.291-.933 11.739 11.739 0 01-1.107-1.043 9.6 9.6 0 01-.808-1.02 14.672 14.672 0 01-.733-1.237c-.365-.788-.633-1.6-.843-2.44-.206-1.012-.361-2.032-.387-3.067.069-.946.266-1.862.533-2.771a24.875 24.875 0 012.304-4.948c.703-1.035 1.53-1.965 2.43-2.837.574-.505 1.17-.984 1.836-1.363 1.243-.593 2.564-1.003 3.897-1.356zm5.187 22.754l-.076.07.076-.07z" fill="#fff"/><path d="M30.62 21.575c-.426.016-.852.055-1.278.082a1.202 1.202 0 00-.563.182c-.766.153-1.538.306-2.29.51l-1.164.313c-.359.097-.713.23-1.067.345-.667.215-1.305.528-1.939.822-.413.19-.809.432-1.208.647-.31.166-.612.352-.915.529-.583.34-1.148.707-1.704 1.088-.647.442-1.226.97-1.793 1.51-1.026.979-1.899 2.118-2.664 3.309a35.843 35.843 0 00-2.024 3.563 19.604 19.604 0 00-1.47 4.21c-.309 1.34-.425 2.724-.512 4.093a16.29 16.29 0 00.01 2.328c.048.649.185 1.292.323 1.927.301 1.394.714 2.758 1.295 4.062.573 1.284 1.223 2.563 2.018 3.725.557.817 1.194 1.593 1.966 2.218.557.45 1.113.898 1.69 1.324.63.466 1.262.925 1.93 1.338a18.56 18.56 0 001.831.975 37.43 37.43 0 003.704 1.53c.781.273 1.565.534 2.367.733.635.157 1.302.243 1.951.319.668.077 1.34.128 2.01.157.781.034 1.562.07 2.343.042a13.137 13.137 0 002.101-.266c1.023-.202 2.037-.438 3.011-.821a33.146 33.146 0 004.172-2.001c.615-.35 1.192-.776 1.76-1.195a19.355 19.355 0 001.711-1.391c.54-.5 1.047-1.023 1.543-1.568.456-.503.87-1.06 1.272-1.605.218-.294.431-.591.64-.891.23-.325.471-.655.667-1.001.38-.67.722-1.348 1.041-2.05.583-1.286 1.078-2.655 1.326-4.05a59.6 59.6 0 00.616-4.143c.153-1.425.248-2.863.107-4.292-.076-.753-.27-1.49-.494-2.21a12.06 12.06 0 00-.698-1.764 22.408 22.408 0 00-1.093-1.957c-.345-.552-.704-1.103-1.115-1.608a13.89 13.89 0 00-1.569-1.612c-.483-.43-.947-.88-1.428-1.311a16.105 16.105 0 00-1.618-1.281 83.009 83.009 0 00-1.646-1.108 22.908 22.908 0 00-2.037-1.207c-.55-.285-1.124-.53-1.693-.778a19.926 19.926 0 00-2.78-1.004 19.241 19.241 0 00-2.495-.487 32.468 32.468 0 00-2.469-.238c-.436-.024-.872-.05-1.308-.05-.126.002-.248.004-.37.008zm.977 2.65c1.885.099 3.775.32 5.591.848.81.276 1.594.616 2.374.969.833.378 1.64.793 2.42 1.273 1.02.669 2.054 1.33 2.981 2.125.457.39.885.815 1.332 1.217.448.406.902.803 1.323 1.236.777.908 1.427 1.936 2 2.983.43.88.776 1.79 1.031 2.735.158.84.213 1.68.204 2.539a37.285 37.285 0 01-.402 3.753c-.104.674-.202 1.348-.322 2.019a16.782 16.782 0 01-.443 1.828 24.98 24.98 0 01-1.719 3.77 43.595 43.595 0 01-1.677 2.297c-.598.765-1.27 1.46-1.975 2.126-.574.472-1.16.923-1.759 1.365-.607.447-1.253.832-1.907 1.204-1.475.747-2.989 1.484-4.603 1.873-.668.153-1.348.316-2.029.369a21.3 21.3 0 01-2.41.04c-1.615-.078-3.22-.25-4.779-.69a40.78 40.78 0 01-3.34-1.27c-1.049-.45-2.082-.928-3.06-1.52a33.23 33.23 0 01-1.583-1.134c-.74-.565-1.51-1.123-2.162-1.793-.729-.868-1.307-1.824-1.859-2.813a26.67 26.67 0 01-1.082-2.394c-.322-.822-.554-1.672-.76-2.528a17.394 17.394 0 01-.266-1.524 13.454 13.454 0 01-.077-1.667c.05-.991.141-1.978.276-2.962.136-.986.374-1.95.664-2.9.674-1.873 1.647-3.635 2.712-5.316.391-.576.798-1.138 1.246-1.672.447-.531.925-1.027 1.424-1.508 1.31-1.123 2.817-1.982 4.332-2.802.635-.294 1.271-.6 1.938-.815.352-.114.701-.243 1.06-.34.393-.106.788-.212 1.182-.32.623-.137 1.246-.275 1.872-.4a2.07 2.07 0 00.444-.133c.604-.04 1.203-.082 1.808-.068z" fill="#fff"/><path d="M28.445 13.993c-.451 0-.901.016-1.351.065a8.61 8.61 0 00-.714.11c-.337.07-.685.138-.983.314a2.19 2.19 0 00-.381.07c-1.501.412-2.987.862-4.47 1.34-1.317.426-2.652.869-3.895 1.486-1.315.655-2.616 1.347-3.823 2.188-.637.444-1.231.932-1.794 1.467-.523.497-1.04.998-1.513 1.54-1.005 1.146-1.84 2.42-2.65 3.709a23.777 23.777 0 00-1.828 3.488 44.393 44.393 0 00-1.477 4.17 78.577 78.577 0 00-1.044 3.75c-.686 2.767-.87 5.623-.765 8.467.055 1.51.385 2.999.763 4.456.17.653.387 1.289.618 1.924.23.63.49 1.264.776 1.87.333.705.707 1.382 1.133 2.032.355.543.769 1.048 1.174 1.553a32.229 32.229 0 003.03 3.24c.978.924 2.003 1.81 3.079 2.618 1.026.768 2.11 1.464 3.165 2.19a42.706 42.706 0 003.642 2.268c1.177.65 2.379 1.274 3.618 1.794.597.25 1.204.468 1.819.673.713.236 1.425.475 2.148.676 1.214.339 2.472.502 3.727.59a19.13 19.13 0 002.346.025 17.673 17.673 0 001.918-.232c.788-.128 1.568-.321 2.343-.511a30.235 30.235 0 001.853-.515c1.298-.408 2.59-.866 3.807-1.48a34.238 34.238 0 002.163-1.177 33.73 33.73 0 001.72-1.118c.555-.377 1.085-.79 1.616-1.198a22.52 22.52 0 001.713-1.433 68.003 68.003 0 002.923-2.886c.488-.514.973-1.03 1.412-1.587.45-.57.87-1.156 1.289-1.747.849-1.195 1.595-2.45 2.294-3.737.337-.62.674-1.238.998-1.865.322-.624.665-1.247.937-1.895.313-.748.595-1.504.815-2.286.199-.711.343-1.433.48-2.157.27-1.41.357-2.871.363-4.303a23.345 23.345 0 00-.094-2.196c-.067-.76-.248-1.504-.423-2.245-.301-1.277-.696-2.531-1.262-3.72-.656-1.374-1.37-2.716-2.2-3.994a79.628 79.628 0 00-2.255-3.248c-.857-1.18-1.877-2.23-2.861-3.302-.46-.502-.918-1.007-1.397-1.49a23.41 23.41 0 00-1.5-1.35c-1.115-.941-2.224-1.887-3.473-2.65-1.091-.663-2.242-1.283-3.443-1.723-1.32-.486-2.711-.788-4.092-1.041a67.693 67.693 0 00-3.318-.496 75.5 75.5 0 00-3.177-.367 35.191 35.191 0 00-3.131-.123 15.034 15.034 0 00-.368-.001zm2.057 2.67c1.83.097 3.657.362 5.469.613 1.765.243 3.535.564 5.242 1.079a20.594 20.594 0 013.759 1.88 24.86 24.86 0 011.84 1.419c.579.484 1.168.959 1.725 1.467 1.169 1.066 2.21 2.266 3.274 3.433l-.23-.251c.497.555.972 1.122 1.419 1.719.405.543.788 1.106 1.174 1.664.428.619.858 1.238 1.269 1.869.389.599.743 1.216 1.079 1.845.405.787.804 1.58 1.117 2.409.349.925.612 1.865.84 2.827.059.258.117.517.15.778.057.445.099.89.126 1.339.042.739.04 1.475.016 2.213a26.89 26.89 0 01-.277 2.595c-.137.853-.33 1.692-.558 2.522-.215.62-.446 1.228-.727 1.822-.29.61-.595 1.213-.913 1.81-.68 1.279-1.355 2.563-2.123 3.792-.884 1.33-1.816 2.627-2.896 3.807-1.03 1.126-2.127 2.195-3.24 3.238a32.541 32.541 0 01-5.92 4.115 24.57 24.57 0 01-3.23 1.354 39.788 39.788 0 01-3.418.964c-.732.153-1.463.288-2.207.367-.696.075-1.39.098-2.087.082a24.964 24.964 0 01-2.407-.26c-.787-.122-1.555-.327-2.315-.562a44.798 44.798 0 01-1.988-.684c-.736-.276-1.45-.618-2.154-.964a44.29 44.29 0 01-4.156-2.318c-.74-.493-1.466-1.005-2.2-1.507-.777-.533-1.564-1.051-2.31-1.63a35.98 35.98 0 01-4.27-3.897c-1.01-1.142-1.973-2.328-2.733-3.655a23.806 23.806 0 01-1.066-2.505 24.015 24.015 0 01-.772-2.62 21.12 21.12 0 01-.39-2.788c-.058-.882-.043-1.772-.017-2.656.047-.82.113-1.632.21-2.447.102-.842.273-1.675.464-2.5.187-.803.422-1.595.644-2.387.21-.752.424-1.502.655-2.246.39-1.175.805-2.354 1.336-3.472.289-.61.589-1.21.915-1.8.293-.528.612-1.04.933-1.55.482-.735.979-1.46 1.535-2.141.59-.727 1.243-1.387 1.918-2.033.26-.227.52-.45.792-.663.33-.257.682-.484 1.03-.716a26.494 26.494 0 011.929-1.143c.637-.326 1.278-.64 1.94-.915a30.829 30.829 0 012.134-.772 99.774 99.774 0 015.174-1.574c.255.005.509-.064.719-.225 1.237-.23 2.522-.182 3.777-.14zm-3.643.044l-.02.01a.114.114 0 01.02-.01zm8.483 52.307l-.142.033.142-.033z" fill="#fff"/><path d="M72.309 8.99c-.377.036-.622.218-.89.465l-.03.029c-.99.867-2.025 1.68-3.048 2.507a208.608 208.608 0 01-3.308 2.616c-1.051.817-2.107 1.627-3.14 2.468-1.033.84-2.025 1.73-3.057 2.573-2.153 1.764-4.356 3.465-6.56 5.164-2.202 1.699-4.38 3.428-6.576 5.134-2.095 1.627-4.142 3.312-6.258 4.91a672.525 672.525 0 01-6.951 5.172c-.583.429-.75 1.247-.327 1.85.408.585 1.269.758 1.853.329 2.38-1.753 4.76-3.502 7.113-5.293 2.252-1.716 4.442-3.514 6.686-5.244 2.203-1.7 4.38-3.437 6.583-5.14 2.166-1.673 4.347-3.336 6.442-5.098.996-.84 1.978-1.7 2.993-2.515 1.03-.827 2.082-1.627 3.122-2.44 1.065-.828 2.12-1.666 3.17-2.514 1.124-.91 2.263-1.804 3.324-2.787.247-.23.34-.667.31-.986a1.34 1.34 0 00-.465-.89 1.345 1.345 0 00-.986-.31z" fill="#fff"/><path d="M72.809.3c-.595.196-1.133.54-1.67.857-.542.32-1.071.687-1.577 1.063a164.129 164.129 0 00-3.415 2.62c-.51.397-1.017.793-1.522 1.196l-.785.631c-.116.095-.232.191-.347.288-.16.132-.312.272-.463.411a1.929 1.929 0 00-.235.32 2.738 2.738 0 00-.297.505c-.49.962-.591 2.03-.674 3.084a54.75 54.75 0 01-.181 2.025c-.148 1.293-.291 2.588-.441 3.881l-.056.456-.021.194a5.059 5.059 0 00-.007.174c-.042.236-.021.466.062.692.249.944 1.229 1.314 2.086 1.508a16.28 16.28 0 002.108.322 57.42 57.42 0 013.86.472c.59.096 1.179.18 1.776.215a26.143 26.143 0 001.223.041c.448.003.867-.24 1.216-.496 1.118-.815 2.178-1.71 3.242-2.59a231.75 231.75 0 003.122-2.629c.696-.594 1.385-1.197 2.107-1.759a49 49 0 01.968-.73c.187-.138.377-.273.563-.413.358-.269.659-.56.872-.959.374-.707-.013-1.608-.698-1.945a2.858 2.858 0 00-.975-.254c-.524-.052-1.054-.058-1.581-.067-.898-.017-1.795-.003-2.692-.032-.838-.039-1.677-.08-2.515-.113a22.366 22.366 0 00-1.776.014c.094-1.102.204-2.2.354-3.297.088-.637.178-1.274.275-1.908.104-.676.233-1.347.324-2.024.073-.555-.061-1.149-.506-1.528-.288-.244-.651-.345-1.018-.345a2.425 2.425 0 00-.706.12zm-3.94 5.786c1.05-.814 2.1-1.648 3.212-2.38-.093.605-.178 1.213-.263 1.821-.202 1.462-.33 2.932-.444 4.405-.028.365.003.683.22.993.197.281.498.476.836.543.272.336.706.53 1.168.503.5-.028 1.004-.065 1.505-.07a25.962 25.962 0 011.308.031l.255.01-.198-.008c.934.043 1.87.105 2.806.116l.555.004-.01.008c-.886.734-1.752 1.491-2.631 2.233-.874.738-1.752 1.473-2.635 2.2-.44.361-.88.72-1.324 1.076-.436.348-.868.724-1.335 1.035-.093 0-.186-.003-.28-.005-1.281-.072-2.534-.353-3.807-.494-1.326-.148-2.682-.198-3.985-.499l.027-.219c.036-.3.067-.6.103-.9.082-.709.162-1.419.24-2.129.08-.705.163-1.409.215-2.117.06-.816.093-1.648.3-2.44.079-.205.164-.404.26-.6.025-.032.05-.062.077-.092a222.695 222.695 0 013.826-3.025zm7.6 5.848l-.056-.003h-.03l.087.003zm-43.051 25.73c-.349.129-.554.368-.74.677-.247.411-.494.824-.744 1.234-.378.613-.91 1.263-.838 2.024.076.793.76 1.308 1.508 1.385.282.03.572.027.855.022a14.72 14.72 0 001.327-.082 1.346 1.346 0 001.2-1.45 1.344 1.344 0 00-1.379-1.204l.474-.788c.176-.29.16-.726.045-1.032a1.34 1.34 0 00-.675-.741 1.338 1.338 0 00-1.033-.045z" fill="#fff"/></svg>