<svg width="128" height="34" viewBox="0 0 128 34" fill="none" xmlns="http://www.w3.org/2000/svg"><mask id="a" style="mask-type:luminance" maskUnits="userSpaceOnUse" x="1" y="1" width="32" height="32"><path d="M9 2h16a7 7 0 017 7v16a7 7 0 01-7 7H9a7 7 0 01-7-7V9a7 7 0 017-7z" fill="#fff" stroke="#000" stroke-width="2"/></mask><g mask="url(#a)"><path d="M9 2h16a7 7 0 017 7v16a7 7 0 01-7 7H9a7 7 0 01-7-7V9a7 7 0 017-7z" fill="#E2FF5E" stroke="#000" stroke-width="2"/><path d="M2 2h30v30H2V2z" fill="url(#paint0_linear_27502_7102)" stroke="#000" stroke-width="2"/><path d="M14.625 7.5A7.125 7.125 0 017.5 14.625v4.75h7.125V26.5h4.75a7.125 7.125 0 017.125-7.125v-4.75h-7.125V7.5h-4.75z" fill="url(#paint1_linear_27502_7102)"/><path fill-rule="evenodd" clip-rule="evenodd" d="M16.625 17.375V24.5h.97a9.138 9.138 0 016.905-6.905v-.97h-7.125V9.5h-.97A9.138 9.138 0 019.5 16.405v.97h7.125zM7.5 14.625A7.125 7.125 0 0014.625 7.5h4.75v7.125H26.5v4.75a7.125 7.125 0 00-7.125 7.125h-4.75v-7.125H7.5v-4.75z" fill="#000"/></g><path d="M25 1.667H9A7.333 7.333 0 001.665 9v16a7.333 7.333 0 007.333 7.333h16A7.333 7.333 0 0032.333 25V9a7.333 7.333 0 00-7.334-7.333z" stroke="#000" stroke-width="2"/><path d="M127.584 25.239h-2.728l-.286-2.552a4.549 4.549 0 01-1.892 2.134c-.851.484-1.87.726-3.058.726-1.921 0-3.425-.572-4.51-1.716-1.071-1.144-1.606-2.758-1.606-4.84v-.176c0-2.054.55-3.66 1.65-4.818 1.115-1.159 2.64-1.738 4.576-1.738 1.085 0 2.024.212 2.816.638a4.453 4.453 0 011.892 1.826V8.387h3.146v16.852zm-6.996-2.398c1.261 0 2.237-.338 2.926-1.012.689-.675 1.034-1.628 1.034-2.86v-.132c0-1.218-.345-2.178-1.034-2.882-.689-.719-1.635-1.078-2.838-1.078-1.261 0-2.222.337-2.882 1.012-.645.674-.968 1.657-.968 2.948v.154c0 1.261.315 2.222.946 2.882.645.645 1.584.968 2.816.968zm-15.313-7.898c-1.173 0-2.061.345-2.662 1.034-.601.69-.902 1.709-.902 3.058v6.204h-3.256v-12.65h2.75l.286 2.64c.425-.968 1.049-1.709 1.87-2.222.836-.514 1.826-.77 2.97-.77 1.672 0 2.977.491 3.916 1.474.939.982 1.408 2.347 1.408 4.092v7.436h-3.256v-6.644c0-1.261-.257-2.185-.77-2.772-.499-.587-1.283-.88-2.354-.88zm-12.388 6.556h3.52c-.498 1.364-1.342 2.39-2.53 3.08-1.173.69-2.676 1.034-4.51 1.034-2.317 0-4.077-.543-5.28-1.628-1.203-1.1-1.804-2.699-1.804-4.796v-.198c0-2.039.653-3.674 1.958-4.906 1.305-1.232 3.066-1.848 5.28-1.848 2.186 0 3.901.594 5.148 1.782 1.261 1.173 1.892 2.75 1.892 4.73v1.342H85.407c.162.968.587 1.701 1.276 2.2.69.484 1.643.726 2.86.726.88 0 1.591-.125 2.134-.374.543-.25.946-.63 1.21-1.144zm-3.3-6.754c-1.144 0-2.068.25-2.772.748-.704.498-1.159 1.225-1.364 2.178h7.92c-.146-.983-.535-1.716-1.166-2.2-.63-.484-1.503-.726-2.618-.726z" fill="#000"/><path d="M82.74 25.239h-3.893l-3.498-4.488-3.586 4.488h-3.96l5.654-6.644-5.082-6.006h3.894l3.102 3.982 3.212-3.982h3.828l-5.126 6.006 5.456 6.644z" fill="#000"/><path d="M64.608 21.499h3.52c-.499 1.364-1.342 2.39-2.53 3.08-1.173.69-2.677 1.034-4.51 1.034-2.317 0-4.077-.543-5.28-1.628-1.203-1.1-1.804-2.699-1.804-4.796v-.198c0-2.039.653-3.674 1.958-4.906 1.305-1.232 3.065-1.848 5.28-1.848 2.185 0 3.901.594 5.148 1.782 1.261 1.173 1.892 2.75 1.892 4.73v1.342H57.128c.161.968.587 1.701 1.276 2.2.69.484 1.643.726 2.86.726.88 0 1.591-.125 2.134-.374.543-.25.946-.63 1.21-1.144zm-3.3-6.754c-1.144 0-2.068.25-2.772.748-.704.498-1.159 1.225-1.364 2.178h7.92c-.147-.983-.535-1.716-1.166-2.2-.63-.484-1.503-.726-2.618-.726zm-8.362 7.48v3.014H41V9.553h3.256v12.672h8.69z" fill="#000"/><defs><linearGradient id="paint0_linear_27502_7102" x1="17" y1="1" x2="18.333" y2="33" gradientUnits="userSpaceOnUse"><stop stop-color="#fff" stop-opacity="0"/><stop offset="1" stop-color="#fff" stop-opacity=".12"/></linearGradient><linearGradient id="paint1_linear_27502_7102" x1="17" y1="7.5" x2="17" y2="26.5" gradientUnits="userSpaceOnUse"><stop stop-color="#fff" stop-opacity=".8"/><stop offset="1" stop-color="#fff" stop-opacity=".5"/></linearGradient></defs></svg>