<svg width="148" height="39" viewBox="0 0 148 39" fill="none" xmlns="http://www.w3.org/2000/svg"><path d="M18.79 20.71v-.5H5.29v-.941c6.379-1.58 11.4-6.6 12.979-12.98h.942v13.5h13.5v.942a17.82 17.82 0 00-12.98 12.98h-.942v-13zM1 15H.5v10H14v13.5h10V38c0-7.18 5.82-13 13-13h.5V15H24V1.5H14V2c0 7.18-5.82 13-13 13z" fill="#93E85F" stroke="#93E85F"/><path d="M50.616 8.96c1.856 0 3.2.043 4.032.128.832.064 1.43.224 1.792.48.384.256.576.672.576 1.248 0 .47-.096 1.088-.288 1.856l-2.976 12.8c-.192.917-.288 1.472-.288 1.664 0 .341.107.555.32.64.235.085.693.128 1.376.128h1.152L55.448 32h-3.712c-1.365 0-2.336-.181-2.912-.544-.576-.363-.864-1.035-.864-2.016 0-.597.096-1.323.288-2.176l2.912-12.48c.15-.64.224-1.035.224-1.184 0-.256-.107-.405-.32-.448-.192-.064-.63-.096-1.312-.096l.864-4.096zm6.115 14.592a10.59 10.59 0 011.952-4.576 10.592 10.592 0 013.904-3.2c1.6-.79 3.37-1.184 5.312-1.184 1.152 0 2.197.192 3.136.576.96.363 1.717.875 2.272 1.536.576.64.864 1.376.864 2.208 0 .15-.022.352-.064.608-.342 1.941-1.664 3.381-3.968 4.32-2.304.917-5.227 1.376-8.768 1.376.042 2.133 1.194 3.2 3.456 3.2.832 0 1.61-.224 2.336-.672.746-.448 1.258-.992 1.536-1.632h4.992c-.448 1.195-1.152 2.283-2.112 3.264a10.803 10.803 0 01-3.328 2.304 9.958 9.958 0 01-4 .832c-2.582 0-4.512-.63-5.792-1.888-1.28-1.259-1.92-2.933-1.92-5.024 0-.661.064-1.344.192-2.048zm5.12-1.408c2.304 0 4.021-.16 5.152-.48 1.13-.341 1.77-.96 1.92-1.856.064-.427-.086-.779-.448-1.056-.363-.299-.843-.448-1.44-.448-1.366 0-2.486.384-3.36 1.152a6.238 6.238 0 00-1.824 2.688zm13.297-7.04h5.76l1.408 4.192c.106.32.16.608.16.864 0 .107-.022.267-.064.48l-.032.224c0 .299.138.448.416.448.341 0 .554-.224.64-.672.128-.47.352-.917.672-1.344l3.2-4.192h5.76l-7.2 8.064L89.996 32h-5.76l-1.76-4.992a2.224 2.224 0 01-.16-.8c0-.15.021-.33.064-.544l.032-.256c0-.277-.139-.416-.416-.416-.192 0-.33.064-.416.192a1.44 1.44 0 00-.224.48c-.192.576-.416 1.024-.672 1.344L76.812 32h-5.76l7.904-8.832-3.808-8.064zm15.864 8.448c.299-1.707.95-3.232 1.952-4.576a10.592 10.592 0 013.904-3.2c1.6-.79 3.371-1.184 5.312-1.184 1.152 0 2.197.192 3.136.576.96.363 1.717.875 2.272 1.536.576.64.864 1.376.864 2.208 0 .15-.021.352-.064.608-.341 1.941-1.664 3.381-3.968 4.32-2.304.917-5.227 1.376-8.768 1.376.043 2.133 1.195 3.2 3.456 3.2.832 0 1.611-.224 2.336-.672.747-.448 1.259-.992 1.536-1.632h4.992c-.448 1.195-1.152 2.283-2.112 3.264a10.806 10.806 0 01-3.328 2.304 9.957 9.957 0 01-4 .832c-2.581 0-4.512-.63-5.792-1.888-1.28-1.259-1.92-2.933-1.92-5.024 0-.661.064-1.344.192-2.048zm5.12-1.408c2.304 0 4.021-.16 5.152-.48 1.131-.341 1.771-.96 1.92-1.856.064-.427-.085-.779-.448-1.056-.363-.299-.843-.448-1.44-.448-1.365 0-2.485.384-3.36 1.152a6.24 6.24 0 00-1.824 2.688zm20.222-7.04l-.608 2.912c-.106.512-.341 1.067-.704 1.664-.362.597-.576.96-.64 1.088a.796.796 0 00-.096.352c0 .15.064.245.192.288a.467.467 0 00.448-.064.617.617 0 00.16-.224c.982-1.792 2.208-3.328 3.68-4.608 1.494-1.28 3.051-1.92 4.672-1.92 1.195 0 2.038.256 2.528.768.512.49.768 1.28.768 2.368 0 .96-.213 2.475-.64 4.544L124.034 32h-5.12l1.824-8.576c.363-1.621.544-2.752.544-3.392 0-.427-.085-.736-.256-.928-.149-.192-.405-.288-.768-.288-.597 0-1.397.63-2.4 1.888-1.002 1.237-1.952 2.741-2.848 4.512-.896 1.75-1.504 3.339-1.824 4.768L112.77 32h-5.12l3.584-16.896h5.12zm10.906 8.832a13.324 13.324 0 011.984-4.672c.96-1.43 2.133-2.56 3.52-3.392 1.386-.853 2.858-1.28 4.416-1.28.938 0 1.685.203 2.24.608a5.332 5.332 0 011.472 1.6c.106.15.202.256.288.32.085.064.202.064.352 0 .192-.107.288-.245.288-.416 0-.064-.022-.16-.064-.288-.214-.47-.32-.821-.32-1.056 0-.085.021-.256.064-.512l1.248-5.888h5.12l-3.2 15.104a72.352 72.352 0 00-.736 3.712c-.15.896-.224 1.664-.224 2.304 0 .661.096 1.301.288 1.92h-5.184a4.594 4.594 0 01-.16-1.088c0-.555.096-1.067.288-1.536.192-.49.458-1.013.8-1.568a6.2 6.2 0 00.352-.576.755.755 0 00.096-.32c0-.128-.064-.224-.192-.288-.022-.021-.075-.032-.16-.032a.57.57 0 00-.288.096.284.284 0 00-.16.192c-2.07 3.755-4.523 5.632-7.36 5.632-1.472 0-2.678-.555-3.616-1.664-.939-1.11-1.408-2.592-1.408-4.448 0-.875.085-1.696.256-2.464zm5.088.192c-.107.576-.16 1.045-.16 1.408 0 .853.192 1.504.576 1.952.405.448.928.672 1.568.672.81 0 1.61-.31 2.4-.928.789-.619 1.493-1.493 2.112-2.624.618-1.152 1.088-2.464 1.408-3.936-.427-.64-.854-1.088-1.28-1.344-.427-.256-.982-.384-1.664-.384-1.238 0-2.294.47-3.168 1.408-.854.917-1.451 2.176-1.792 3.776z" fill="#000"/></svg>