<svg width="109" height="19" viewBox="0 0 109 19" fill="none" xmlns="http://www.w3.org/2000/svg"><path fill-rule="evenodd" clip-rule="evenodd" d="M9.125 9.875V17h.97A9.138 9.138 0 0117 10.095v-.97H9.875V2h-.97A9.138 9.138 0 012 8.905v.97h7.125zM0 7.125A7.125 7.125 0 007.125 0h4.75v7.125H19v4.75A7.125 7.125 0 0011.875 19h-4.75v-7.125H0v-4.75z" fill="#000"/><path d="M108.584 17.739h-2.728l-.286-2.552a4.549 4.549 0 01-1.892 2.134c-.851.484-1.87.726-3.058.726-1.921 0-3.425-.572-4.51-1.716-1.07-1.144-1.606-2.758-1.606-4.84v-.176c0-2.054.55-3.66 1.65-4.818 1.115-1.159 2.64-1.738 4.576-1.738 1.085 0 2.024.212 2.816.638a4.453 4.453 0 011.892 1.826V.887h3.146v16.852zm-6.996-2.398c1.261 0 2.237-.338 2.926-1.012.689-.675 1.034-1.628 1.034-2.86v-.132c0-1.218-.345-2.178-1.034-2.882-.689-.719-1.635-1.078-2.838-1.078-1.261 0-2.222.337-2.882 1.012-.645.674-.968 1.657-.968 2.948v.154c0 1.261.315 2.222.946 2.882.645.645 1.584.968 2.816.968zM87.275 7.443c-1.173 0-2.06.344-2.662 1.034-.601.69-.902 1.708-.902 3.058v6.204h-3.256V5.089h2.75l.286 2.64c.425-.968 1.049-1.709 1.87-2.222.836-.514 1.826-.77 2.97-.77 1.672 0 2.977.491 3.916 1.474.939.982 1.408 2.346 1.408 4.092v7.436H90.4v-6.644c0-1.262-.257-2.186-.77-2.772-.499-.587-1.283-.88-2.354-.88zm-11.388 6.556h3.52c-.498 1.364-1.342 2.39-2.53 3.08-1.173.69-2.676 1.034-4.51 1.034-2.317 0-4.077-.543-5.28-1.628-1.203-1.1-1.804-2.699-1.804-4.796v-.198c0-2.039.653-3.674 1.958-4.906 1.305-1.232 3.066-1.848 5.28-1.848 2.186 0 3.901.594 5.148 1.782 1.261 1.173 1.892 2.75 1.892 4.73v1.342H68.407c.162.968.587 1.701 1.276 2.2.69.484 1.643.726 2.86.726.88 0 1.591-.125 2.134-.374.543-.25.946-.63 1.21-1.144zm-3.3-6.754c-1.144 0-2.068.25-2.772.748-.704.498-1.159 1.224-1.364 2.178h7.92c-.146-.983-.535-1.716-1.166-2.2-.63-.484-1.503-.726-2.618-.726z" fill="#000"/><path d="M66.74 17.739h-3.893l-3.498-4.488-3.586 4.488h-3.96l5.654-6.644-5.082-6.006h3.894L59.37 9.07l3.212-3.982h3.828l-5.126 6.006 5.456 6.644z" fill="#000"/><path d="M49.608 13.999h3.52c-.499 1.364-1.342 2.39-2.53 3.08-1.173.69-2.677 1.034-4.51 1.034-2.317 0-4.077-.543-5.28-1.628-1.203-1.1-1.804-2.699-1.804-4.796v-.198c0-2.039.653-3.674 1.958-4.906 1.305-1.232 3.065-1.848 5.28-1.848 2.185 0 3.901.594 5.148 1.782 1.261 1.173 1.892 2.75 1.892 4.73v1.342H42.128c.161.968.587 1.701 1.276 2.2.69.484 1.643.726 2.86.726.88 0 1.591-.125 2.134-.374.543-.25.946-.63 1.21-1.144zm-3.3-6.754c-1.144 0-2.068.25-2.772.748-.704.498-1.159 1.224-1.364 2.178h7.92c-.147-.983-.535-1.716-1.166-2.2-.63-.484-1.503-.726-2.618-.726zm-7.362 7.48v3.014H27V2.053h3.256v12.672h8.69z" fill="#000"/></svg>