<svg width="711" height="688" viewBox="0 0 711 688" fill="none" xmlns="http://www.w3.org/2000/svg">
<g clip-path="url(#clip0_307_69)">
<path d="M281.949 135.6C282.363 135.673 282.716 135.803 283.009 135.99C283.383 136.217 283.516 136.48 283.409 136.78C283.323 137.02 283.113 137.263 282.779 137.51" stroke="#5B5D5B" stroke-width="2"/>
<path d="M282.78 137.51L270.83 141.7C270.771 141.72 270.714 141.747 270.66 141.78L262.13 147.11C262.024 147.177 261.91 147.234 261.79 147.28C258.917 148.333 255.357 148.61 251.11 148.11C250.39 148.03 248.3 147.357 244.84 146.09C242.734 145.317 240.53 144.887 238.23 144.8C232.11 144.58 225.4 143.8 218.74 141.97C214.9 140.91 212.314 140.403 210.98 140.45C208.754 140.53 205.87 141.057 202.33 142.03C200.35 142.57 199.084 141.983 198.53 140.27C197.104 135.857 195.43 131.427 193.51 126.98C193.217 126.3 193.034 125.237 192.96 123.79C192.934 123.298 193.03 122.807 193.24 122.36C194.75 119.12 195.92 116.43 193.26 113.74C190.4 110.84 184.89 113.5 180.96 114.92C177.17 116.3 173.26 115.99 169.6 114.19C166.43 112.61 162.66 110.82 158.95 111.48C158.784 111.51 158.625 111.575 158.486 111.672C158.348 111.769 158.232 111.895 158.147 112.041C158.062 112.186 158.01 112.349 157.995 112.516C157.98 112.684 158.003 112.852 158.06 113.01C158.66 114.65 160.18 115.6 162.39 117.41C162.919 117.839 163.321 118.402 163.553 119.04C163.786 119.677 163.84 120.365 163.71 121.03C163.317 123.017 163.037 124.403 162.87 125.19C161.87 129.81 162.99 133.83 165.6 137.71C168.147 141.51 170.98 145.487 174.1 149.64C176.18 152.407 176.694 155.367 175.64 158.52C174.81 161.02 176.75 165.04 177.21 167.51C177.35 168.261 177.404 169.023 177.37 169.78C177.117 176.867 177.027 181.263 177.1 182.97C177.4 190.05 181.12 194.81 186.55 199.19C186.628 199.255 186.689 199.338 186.727 199.432C186.765 199.526 186.778 199.628 186.766 199.728C186.754 199.828 186.717 199.923 186.658 200.003C186.6 200.084 186.521 200.148 186.43 200.19C183.044 201.797 179.4 202.587 175.5 202.56C170.134 202.52 165.64 202.26 162.02 201.78C161.512 201.712 161.049 201.451 160.729 201.051C160.408 200.65 160.255 200.141 160.3 199.63L160.56 196.78C160.569 196.684 160.557 196.587 160.525 196.495C160.494 196.404 160.443 196.32 160.377 196.249C160.311 196.178 160.231 196.122 160.142 196.085C160.053 196.047 159.957 196.028 159.86 196.03C156.68 196.1 154.66 197.23 151.65 199.34C149.05 201.18 145.747 202.09 141.74 202.07C141.613 202.07 141.486 202.041 141.37 201.986C141.254 201.931 141.152 201.85 141.07 201.75L137.58 197.35C137.241 196.921 136.773 196.611 136.244 196.466C135.716 196.32 135.154 196.346 134.64 196.54C133.98 196.733 132.957 197.25 131.57 198.09C127.77 200.377 124.917 202.313 123.01 203.9C117.89 208.17 113.22 210.68 109.05 204.25C104.34 197 98.0504 187.74 90.1904 181.91C88.3904 180.58 87.3304 180.44 85.1904 180.89C80.2238 181.93 75.2371 183.38 70.2304 185.24C66.0004 186.81 67.6804 189.11 68.1504 192.25C68.2159 192.65 68.1745 193.06 68.0304 193.44C66.5304 197.49 61.9404 194.98 59.4604 193.83C58.7379 193.498 57.9311 193.395 57.1483 193.534C56.3655 193.674 55.6439 194.049 55.0804 194.61L53.1304 196.57C52.6996 197.001 52.1728 197.324 51.5925 197.513C51.0123 197.702 50.395 197.753 49.7904 197.66C48.2771 197.427 46.6838 196.817 45.0104 195.83C44.6071 195.596 44.1419 195.495 43.6804 195.54C41.4671 195.76 40.0271 196.033 39.3604 196.36C35.0104 198.5 33.3904 199.62 28.9204 198.87C28.3104 198.771 27.6905 198.76 27.0804 198.84C24.7271 199.147 20.8804 200.467 15.5404 202.8C10.3204 205.087 7.46709 206.423 6.98042 206.81C6.44315 207.228 5.96842 207.719 5.57044 208.27C3.99044 210.477 2.86709 213.27 2.20043 216.65C1.34043 221.05 2.84043 224.88 7.99043 223.67C9.88043 223.23 16.7304 219.73 19.4004 222.47C19.7271 222.803 20.0538 223.11 20.3804 223.39C20.5608 223.545 20.7714 223.662 20.9998 223.734C21.2283 223.806 21.4699 223.832 21.7104 223.81C23.7104 223.64 26.9604 223.1 28.5004 224.72C29.3071 225.573 29.2671 226.423 28.3804 227.27C26.3604 229.21 23.2804 228.42 20.0004 228.09C17.3471 227.817 14.8904 228.197 12.6304 229.23C12.5177 229.281 12.4175 229.356 12.3372 229.451C12.2569 229.545 12.1985 229.656 12.166 229.775C12.1335 229.894 12.1278 230.02 12.1493 230.141C12.1708 230.263 12.219 230.379 12.2904 230.48C13.9904 232.92 17.6404 233.6 20.9904 233.98C24.3904 234.367 26.3338 234.753 26.8204 235.14C29.4104 237.18 30.5104 242.46 27.4404 244.71C26.9271 245.083 25.4804 245.087 23.1004 244.72C17.6538 243.88 12.2904 244.663 7.01042 247.07C6.88472 247.129 6.77538 247.218 6.69196 247.329C6.60853 247.44 6.55357 247.57 6.53186 247.707C6.51016 247.844 6.52237 247.984 6.56745 248.116C6.61252 248.247 6.68907 248.365 6.79042 248.46C9.25042 250.78 14.0704 250.94 19.4204 251.8C19.9825 251.888 20.5089 252.131 20.9401 252.502C21.3712 252.873 21.69 253.357 21.8604 253.9L26.6204 269.12C26.6998 269.383 26.8656 269.612 27.0918 269.771C27.318 269.93 27.5919 270.011 27.8704 270L32.1104 269.82C32.2524 269.814 32.3911 269.78 32.5183 269.719C32.6454 269.659 32.7584 269.574 32.8504 269.47C34.4704 267.59 35.9204 264.29 39.0304 264.27C42.9704 264.25 46.4704 264.343 49.5304 264.55C50.0783 264.59 50.5961 264.815 50.9981 265.187C51.4 265.56 51.6619 266.059 51.7404 266.6L52.0204 268.44C52.1017 268.995 52.3713 269.504 52.7844 269.885C53.1975 270.265 53.729 270.493 54.2904 270.53C62.7004 271.09 68.5404 272.06 75.6204 276.16C76.3745 276.593 77.2244 276.827 78.0904 276.84C82.7838 276.88 85.7938 279.483 87.1204 284.65C87.5871 286.49 87.6138 288.573 87.2004 290.9C87.1104 291.393 87.2137 291.902 87.489 292.322C87.7642 292.743 88.1906 293.043 88.6804 293.16C91.9804 293.95 93.3104 292.23 92.7504 289.18C92.707 288.95 92.7093 288.714 92.7571 288.485C92.805 288.256 92.8975 288.039 93.0294 287.846C93.1612 287.653 93.3299 287.487 93.5257 287.359C93.7215 287.231 93.9406 287.143 94.1704 287.1C95.5038 286.847 96.9404 286.55 98.4804 286.21C101.34 285.58 104.92 283.23 107.12 282.39C109.32 281.55 111.26 282.26 112.94 284.52" stroke="#83807A" stroke-width="2"/>
<path d="M112.94 284.52C112.18 286.4 111.297 287.733 110.29 288.52C109.117 289.433 108.127 290.1 107.32 290.52" stroke="#5B5D5B" stroke-width="2"/>
<path d="M107.319 290.52C106.045 290.86 105.532 291.38 105.779 292.08C105.819 292.179 105.876 292.268 105.949 292.34C109.779 295.93 114.549 293.49 119.029 291.81C122.449 290.53 125.399 292.52 124.309 296.33C123.655 298.597 122.952 300.867 122.199 303.14C120.599 307.97 126.199 311.25 130.019 312.56C131.272 312.987 133.235 313.067 135.909 312.8C138.562 312.54 141.132 312.497 143.619 312.67" stroke="#83807A" stroke-width="2"/>
<path d="M143.621 312.67C144.234 313.063 144.488 313.453 144.381 313.84" stroke="#5B5D5B" stroke-width="2"/>
<path d="M144.382 313.84C142.288 315.714 140.885 317.414 140.172 318.94C134.932 330.19 159.072 323.86 149.392 335.49C145.572 340.09 142.002 344.87 146.932 350.38C148.152 351.74 149.865 353.414 152.072 355.4C155.705 358.667 157.888 362.66 158.622 367.38C159.482 372.88 167.582 376.41 172.302 377.21C174.242 377.54 175.832 378.71 177.262 379.69C178.104 380.261 179.023 380.712 179.992 381.03C183.565 382.204 186.105 383.244 187.612 384.15C189.232 385.124 190.388 385.8 191.082 386.18C191.562 386.443 192.099 386.594 192.652 386.62L197.042 386.79" stroke="#83807A" stroke-width="2"/>
<path d="M197.039 386.79C197.192 386.963 197.542 387.077 198.089 387.13" stroke="#5B5D5B" stroke-width="2"/>
<path d="M198.091 387.13C197.244 390.19 196.451 393.814 195.711 398C195.361 399.95 195.661 401.08 197.601 402.13C201.661 404.31 200.961 411.71 198.741 415.23C198.483 415.636 198.38 416.119 198.451 416.59L198.831 419.12C198.862 419.328 198.843 419.541 198.775 419.743C198.707 419.944 198.593 420.128 198.441 420.28L194.221 424.5C194.004 424.717 193.734 424.874 193.436 424.956C193.138 425.038 192.823 425.043 192.521 424.97L190.191 424.41C190.098 424.387 190.002 424.387 189.909 424.409C189.816 424.431 189.73 424.476 189.658 424.539C189.586 424.602 189.531 424.681 189.497 424.77C189.462 424.859 189.45 424.956 189.461 425.05C190.111 431.33 193.031 434.09 198.721 437.54C200.374 438.54 203.128 440.53 206.981 443.51C214.394 449.244 219.114 456.44 221.141 465.1C221.634 467.2 222.038 470.21 222.351 474.13C222.701 478.42 225.001 481.25 227.771 485.51" stroke="#83807A" stroke-width="2"/>
<path d="M227.772 485.51C227.666 485.997 227.376 486.257 226.902 486.29" stroke="#5B5D5B" stroke-width="2"/>
<path d="M226.899 486.29C223.979 485.017 221.919 482.674 220.719 479.26C218.379 472.62 217.269 465.27 212.819 459.92C209.206 455.594 204.866 451.847 199.799 448.68C198.899 448.12 197.873 447.637 196.719 447.23C196.634 447.201 196.543 447.192 196.453 447.202C196.364 447.213 196.278 447.243 196.201 447.291C196.125 447.339 196.06 447.403 196.011 447.479C195.962 447.555 195.931 447.641 195.919 447.73C193.326 467.83 191.503 487.924 190.449 508.01C190.444 508.097 190.463 508.183 190.503 508.259C190.544 508.335 190.604 508.4 190.679 508.445C190.754 508.49 190.84 508.514 190.928 508.515C191.016 508.516 191.103 508.494 191.179 508.45L195.289 506.08C195.959 505.692 196.757 505.588 197.507 505.79C198.258 505.993 198.899 506.486 199.289 507.16L200.489 509.23C200.654 509.517 200.747 509.839 200.758 510.17C200.77 510.5 200.701 510.828 200.557 511.126C200.414 511.424 200.199 511.682 199.933 511.878C199.667 512.074 199.356 512.201 199.029 512.25L192.109 513.28C191.582 513.361 191.097 513.613 190.73 513.997C190.362 514.38 190.134 514.874 190.079 515.4C188.539 530.34 187.079 541.75 184.069 556.47C182.229 565.444 180.586 573.677 179.139 581.17C177.239 591.01 172.709 600.98 163.389 605.98C161.579 606.96 159.999 607.99 161.699 610.03C163.153 611.777 164.356 613.004 165.309 613.71C165.576 613.905 165.901 614.014 166.239 614.02C166.593 614.02 167.309 613.987 168.389 613.92C168.947 613.884 169.497 614.029 169.945 614.332C170.394 614.635 170.713 615.076 170.849 615.58C170.863 615.627 171.039 615.874 171.379 616.32C171.477 616.446 171.611 616.539 171.763 616.585C171.915 616.632 172.078 616.63 172.229 616.58C175.339 615.54 179.679 615.16 181.849 617.89C184.279 620.95 179.029 627.72 177.209 630.09C177.113 630.216 177.043 630.36 177.004 630.513C176.965 630.667 176.958 630.827 176.983 630.984C177.008 631.14 177.065 631.29 177.151 631.423C177.236 631.557 177.348 631.672 177.479 631.76C180.193 633.58 182.423 633.62 184.169 631.88C184.653 631.398 185.267 631.08 185.914 630.975C186.562 630.87 187.207 630.984 187.749 631.3C192.049 633.807 197.083 636.1 202.849 638.18C204.223 638.674 206.423 638.944 209.449 638.99C216.739 639.1 216.019 644.25 220.469 647.59C226.799 652.34 232.649 650.92 239.739 650.41C243.739 650.12 246.419 652.67 249.669 655.84C255.019 661.04 262.969 655.36 269.249 656.06C277.679 657 284.879 658.46 292.089 657.15C292.19 657.133 292.286 657.095 292.371 657.039C292.456 656.982 292.529 656.91 292.585 656.824C292.642 656.739 292.68 656.644 292.698 656.543C292.716 656.443 292.713 656.34 292.689 656.24C292.129 653.89 290.999 647.78 295.049 648.12C302.836 648.787 310.916 651.047 319.289 654.9C319.389 654.947 319.483 655.004 319.569 655.07L321.919 656.94C322.318 657.26 322.803 657.461 323.319 657.52C325.079 657.714 326.909 657.847 328.809 657.92C333.099 658.09 332.409 663.63 336.489 663.82C343.249 664.13 347.469 663.77 351.619 666.12C353.419 667.14 354.969 669.55 354.419 671.91C354.129 673.13 354.859 673.9 356.149 674.05C357.129 674.164 358.603 674.537 360.569 675.17C363.909 676.23 365.339 678.61 367.489 681.87C372.119 688.9 375.269 682.15 378.889 680.8C388.739 677.1 394.619 689.33 404.469 686.5C406.489 685.92 407.499 684.08 408.479 682.2C408.652 681.864 408.924 681.589 409.259 681.413C409.594 681.238 409.975 681.17 410.349 681.22C413.629 681.66 416.516 680.967 419.009 679.14C419.435 678.826 419.935 678.629 420.459 678.57C426.079 677.89 428.979 679.01 434.059 680.71C434.263 680.776 434.484 680.764 434.679 680.678C434.875 680.591 435.031 680.435 435.119 680.24C436.349 677.47 435.649 675.49 433.409 673.07C431.303 670.797 430.103 668.177 429.809 665.21C429.276 659.737 429.069 653.82 429.189 647.46C429.429 635.26 435.149 625.54 444.609 617.82C445.789 616.854 448.786 615.287 453.599 613.12C461.079 609.76 466.489 605.24 475.839 598.58C479.646 595.874 483.606 594.717 487.719 595.11C490.729 595.39 490.859 597.28 491.359 599.78C491.42 600.072 491.537 600.348 491.705 600.594C491.874 600.839 492.089 601.049 492.339 601.21C493.639 602.044 495.233 602.457 497.119 602.45C500.339 602.44 517.289 601.57 514.109 607.89C514.019 608.071 513.968 608.27 513.96 608.472C513.952 608.675 513.988 608.877 514.065 609.064C514.141 609.252 514.257 609.421 514.405 609.56C514.552 609.699 514.728 609.805 514.919 609.87C520.259 611.73 525.129 612.297 529.529 611.57C529.678 611.543 529.811 611.459 529.899 611.336C529.987 611.213 530.023 611.06 529.999 610.91C529.626 608.47 530.269 606.497 531.929 604.99C533.449 603.6 535.639 604.84 536.589 606.39C536.736 606.624 537.006 607.51 537.399 609.05C538.729 614.24 546.589 611.79 551.599 610.85C558.149 609.62 556.929 615.79 556.539 619.56C556.509 619.849 556.582 620.139 556.748 620.378C556.913 620.616 557.158 620.788 557.439 620.86C561.219 621.82 565.546 622.797 570.419 623.79C573.639 624.45 575.906 626.094 577.219 628.72C578.146 630.58 578.743 631.557 579.009 631.65C581.819 632.65 584.349 631.19 587.929 629.82C588.428 629.63 588.971 629.565 589.509 629.63C590.843 629.79 591.813 630.154 592.419 630.72C594.253 632.414 596.036 633.8 597.769 634.88C597.869 634.942 597.98 634.982 598.097 634.996C598.213 635.011 598.332 635 598.444 634.963C598.556 634.927 598.659 634.867 598.746 634.787C598.834 634.707 598.903 634.609 598.949 634.5C601.243 629 605.036 627.414 610.329 629.74C610.672 629.888 611.051 629.93 611.416 629.861C611.782 629.791 612.117 629.613 612.379 629.35C615.133 626.57 618.266 624.804 621.779 624.05C625.099 623.34 626.889 622.42 627.609 619.11C627.643 618.954 627.637 618.791 627.591 618.637C627.546 618.483 627.463 618.344 627.349 618.23L625.599 616.48C625.473 616.354 625.379 616.199 625.327 616.028C625.275 615.857 625.265 615.676 625.299 615.5C625.829 612.57 625.969 609.98 629.019 609.34C632.326 608.634 634.983 607.187 636.989 605C638.219 603.67 639.509 600.8 641.349 599.34C644.119 597.16 647.519 595.78 651.609 593.92C652.049 593.717 652.43 593.411 652.719 593.03L654.859 590.19C654.972 590.044 655.107 589.913 655.259 589.8C660.613 585.82 666.256 582.41 672.189 579.57C672.485 579.429 672.731 579.2 672.894 578.914C673.056 578.628 673.128 578.299 673.099 577.97C672.499 571.25 675.379 569.23 679.799 564.51C683.829 560.22 684.789 556.19 682.379 549.95C682.211 549.518 681.917 549.147 681.535 548.887C681.153 548.626 680.701 548.488 680.239 548.49C679.919 548.49 679.286 548.684 678.339 549.07C677.719 549.317 677.133 549.617 676.579 549.97C671.653 553.05 666.369 553.4 660.729 551.02C649.869 546.44 638.939 541.7 640.899 527.51C641.059 526.364 640.239 525.347 638.439 524.46" stroke="#83807A" stroke-width="2"/>
<path d="M638.441 524.46C638.021 524.02 637.958 523.45 638.251 522.75" stroke="#5B5D5B" stroke-width="2"/>
<path d="M638.249 522.75C642.879 520.53 644.179 517.05 644.979 512.04C645.056 511.559 645.322 511.125 645.719 510.83C646.606 510.184 647.889 509.697 649.569 509.37C649.67 509.351 649.765 509.31 649.85 509.252C649.934 509.193 650.005 509.118 650.059 509.031C650.112 508.943 650.147 508.846 650.161 508.744C650.175 508.642 650.167 508.539 650.139 508.44C649.069 504.75 646.789 499.11 643.009 497.48C641.409 496.79 638.379 497.05 636.729 495.91C634.229 494.18 633.489 491.6 632.939 488.51C632.864 488.076 632.697 487.662 632.451 487.295C632.205 486.928 631.884 486.617 631.509 486.38C629.836 485.32 628.926 484.744 628.779 484.65C622.149 480.58 629.579 476.36 633.479 475.71C639.546 474.71 644.772 472.717 649.159 469.73C653.289 466.92 653.679 463.46 655.129 459.73C656.119 457.18 656.349 454.91 654.209 453.22C651.009 450.68 649.339 449.35 649.199 449.23C646.169 446.53 646.049 444.51 646.019 440.82C646.013 440.207 645.873 439.603 645.609 439.05C645.344 438.497 644.962 438.009 644.489 437.62C641.389 435.07 636.739 431.53 636.399 428.4C636.006 424.68 637.556 422.5 641.049 421.86C642.062 421.674 643.086 421.48 644.119 421.28C644.618 421.183 645.072 420.923 645.409 420.54C646.749 418.987 647.676 417.18 648.189 415.12C648.328 414.563 648.348 413.982 648.248 413.416C648.148 412.849 647.93 412.309 647.609 411.83C644.509 407.217 641.442 403.654 638.409 401.14C636.379 399.47 636.339 398.28 636.759 395.99C636.846 395.524 637.482 393.237 638.669 389.13C638.826 388.591 638.813 388.019 638.631 387.497C638.45 386.976 638.109 386.532 637.659 386.23C636.852 385.697 636.272 384.974 635.919 384.06C635.834 383.837 635.799 383.597 635.819 383.36L636.219 378.93C636.237 378.715 636.197 378.499 636.104 378.304C636.011 378.109 635.868 377.942 635.689 377.82C634.256 376.86 632.626 376.23 630.799 375.93C621.269 374.38 613.049 377.13 604.999 381.93C604.589 382.175 604.263 382.538 604.063 382.972C603.864 383.406 603.799 383.89 603.879 384.36C604.406 387.387 604.729 389.684 604.849 391.25C605.419 398.81 595.949 400.59 590.149 399.65C589.832 399.598 589.548 399.426 589.356 399.171C589.164 398.915 589.079 398.596 589.119 398.28C589.352 396.334 589.822 394.91 590.529 394.01C590.732 393.748 591.001 393.541 591.309 393.41C594.139 392.23 595.699 392.42 597.579 388.79C598.306 387.39 598.939 385.744 599.479 383.85C599.538 383.65 599.547 383.437 599.505 383.232C599.463 383.026 599.372 382.834 599.239 382.67C598.619 381.91 597.656 381.204 596.349 380.55C596.132 380.442 595.95 380.277 595.823 380.072C595.696 379.867 595.629 379.631 595.629 379.39C595.629 379.284 595.866 378.78 596.339 377.88C597.759 375.16 597.029 371.42 598.389 368.62C601.329 362.55 606.779 359 613.209 353.71C618.109 349.67 612.139 339.51 619.249 336.5C621.949 335.36 624.109 334.027 625.729 332.5C633.129 325.54 640.146 317.314 646.779 307.82C646.889 307.665 646.963 307.487 646.997 307.3C647.03 307.113 647.023 306.92 646.974 306.736C646.926 306.551 646.838 306.379 646.716 306.231C646.594 306.083 646.442 305.964 646.269 305.88C644.776 305.167 642.956 304.87 640.809 304.99" stroke="#83807A" stroke-width="2"/>
<path d="M640.81 304.99C640.436 304.43 640.5 303.86 641 303.28" stroke="#5B5D5B" stroke-width="2"/>
<path d="M640.999 303.28L644.879 294.23C644.942 294.076 645.053 293.947 645.195 293.861C645.337 293.774 645.503 293.735 645.669 293.75L651.449 294.27C651.936 294.316 652.403 294.487 652.803 294.768C653.203 295.049 653.522 295.428 653.729 295.87C654.609 297.737 655.786 298.883 657.259 299.31C665.709 301.78 672.669 297.13 674.119 288.51C674.184 288.155 674.12 287.786 673.939 287.47L672.679 285.29C672.47 284.938 672.366 284.532 672.379 284.12C672.539 278.527 672.943 274.363 673.589 271.63C674.236 268.883 675.159 265.413 676.359 261.22C676.652 260.187 676.649 259.183 676.349 258.21C674.659 252.71 677.319 243.15 679.809 237.26C682.996 229.754 685.322 221.683 686.789 213.05C687.339 209.77 689.039 205.04 690.619 203.12C697.779 194.37 704.119 186.18 708.989 175.89C709.051 175.76 709.064 175.613 709.028 175.474C708.991 175.335 708.907 175.213 708.789 175.13C705.089 172.42 695.459 170.86 681.129 167.6C677.269 166.72 674.236 165.357 672.029 163.51C669.659 161.53 666.849 159.96 664.149 162C660.109 165.05 655.999 166.61 651.099 164.2C650.757 164.029 650.456 163.787 650.219 163.49C648.609 161.5 646.289 158.73 643.019 157.53C642.42 157.31 641.778 157.234 641.144 157.309C640.51 157.384 639.902 157.607 639.369 157.96L635.599 160.46C635.513 160.513 635.426 160.56 635.339 160.6C629.389 162.8 626.069 156.82 624.469 152.27C623.349 149.05 622.059 145.87 620.599 142.73C618.479 138.18 616.429 137.04 611.659 136.42C611.048 136.34 610.45 136.186 609.879 135.96L604.089 133.72C603.905 133.648 603.706 133.62 603.509 133.64C600.649 134 599.149 135.82 597.279 136.38C596.843 136.519 596.382 136.577 595.919 136.55L589.009 136.16C588.756 136.147 588.514 136.053 588.319 135.89C584.489 132.79 580.319 127.91 574.269 130.08C571.239 131.16 568.419 132.75 565.809 132.27C564.049 131.943 562.433 131.11 560.959 129.77C560.708 129.545 560.498 129.281 560.339 128.99C558.426 125.497 556.529 123.117 554.649 121.85C550.769 119.25 546.789 116.94 542.719 113.98C540.719 112.527 539.252 111.54 538.319 111.02C537.701 110.681 537.047 110.416 536.369 110.23C532.119 109.06 529.759 108.33 529.099 104.11C528.326 99.1235 528.392 92.5302 529.299 84.3302C529.609 81.4902 525.469 78.9502 523.519 82.0502C520.912 86.2035 518.696 89.4635 516.869 91.8302C511.709 98.5202 504.989 97.4702 497.009 96.0202C495.722 95.7868 494.609 95.1868 493.669 94.2202C493.576 94.1266 493.504 94.0136 493.459 93.8892C493.414 93.7647 493.397 93.6319 493.409 93.5002L494.029 86.6602C494.07 86.2162 494.012 85.769 493.86 85.3506C493.708 84.9322 493.465 84.5529 493.149 84.2402L491.139 82.2302C491.009 82.1005 490.911 81.9406 490.854 81.7635C490.797 81.5863 490.781 81.3968 490.809 81.2102C491.329 77.8302 492.259 75.4202 491.399 71.7902C491.327 71.4799 491.194 71.1907 491.009 70.9402C484.789 62.7402 476.889 63.6002 467.749 64.6702C465.602 64.9168 464.409 63.9702 464.169 61.8302C463.762 58.2502 463.486 56.1902 463.339 55.6502C461.939 50.5002 453.389 51.6602 449.679 52.1302C449.033 52.2144 448.379 52.0693 447.829 51.7202C445.636 50.3468 444.316 48.6902 443.869 46.7502C443.622 45.6702 442.976 41.8568 441.929 35.3102C440.889 28.8002 433.849 26.0202 427.879 27.4902C427.672 27.5368 425.239 28.3902 420.579 30.0502C419.379 30.4768 418.306 30.2568 417.359 29.3902C415.892 28.0435 414.573 26.8068 413.399 25.6802C413.286 25.5738 413.186 25.4564 413.099 25.3302L408.459 18.4202C408.268 18.1366 408.138 17.8128 408.079 17.4702C407.179 12.3502 407.429 7.07016 405.319 2.61016C405.103 2.15264 404.749 1.77439 404.308 1.52863C403.867 1.28288 403.36 1.18199 402.859 1.24017L397.189 1.89016C396.618 1.95652 396.057 2.09771 395.519 2.31016C389.179 4.85016 381.966 6.55349 373.879 7.42016C373.294 7.47995 372.717 7.60746 372.159 7.80016C364.659 10.3502 353.849 16.6702 352.849 25.3002C351.676 35.3935 351.259 47.4902 351.599 61.5902C351.679 64.6902 352.369 66.8102 353.169 70.1102C353.296 70.6449 353.247 71.2065 353.029 71.711C352.811 72.2156 352.436 72.6362 351.959 72.9102L347.959 75.2202C347.675 75.3852 347.427 75.6026 347.229 75.8602C345.679 77.9102 344.389 80.1702 342.559 81.9802C336.786 87.6602 330.902 92.1302 324.909 95.3902C321.276 97.3702 318.456 98.5568 316.449 98.9502C309.119 100.41 303.829 101.14 297.459 104.21C289.479 108.064 283.562 111.237 279.709 113.73C277.396 115.223 275.886 116.627 275.179 117.94C273.272 121.453 271.446 124.59 269.699 127.35C264.789 135.1 278.489 135.11 281.949 135.6" stroke="#83807A" stroke-width="2"/>
<path d="M512.18 431.9C518.62 422.674 524.747 412.517 530.56 401.43C539.21 384.94 545.3 366.98 549.32 349.81C553.78 330.757 556.81 310.73 558.41 289.73C559.237 278.89 559.353 262.777 558.76 241.39C558.547 233.63 558.127 228.794 557.5 226.88C555.893 221.94 553.007 218.06 548.84 215.24C545.813 213.194 543.12 212.13 540.76 212.05C521.6 211.39 501.553 207.764 480.62 201.17C463.527 195.79 448.577 189.227 435.77 181.48C428.53 177.11 422.2 172.26 415.34 167.82C404.62 160.87 396.05 161.45 385.87 168.62C379.657 173 375.683 175.777 373.95 176.95C363.243 184.21 351.027 190.494 337.3 195.8C313.593 204.967 289.807 210.32 265.94 211.86C261.38 212.154 258.157 212.747 256.27 213.64C252.33 215.52 249.173 218.387 246.8 222.24C244.27 226.35 243.89 230.89 243.77 236.25C243.19 262.9 243.52 288.36 246.91 314.11C251.13 346.104 260.66 376.744 275.5 406.03C293.21 441 321.06 470.6 352.25 494.7C360.94 501.41 370.36 507.45 382.25 515.49C394.857 524.03 407.56 524.054 420.36 515.56C432.267 507.66 441.44 501.354 447.88 496.64C472.53 478.59 494.77 456.84 512.18 431.9Z" stroke="#83807A" stroke-width="2"/>
<path d="M545.342 236.7C544.992 229.03 542.632 223.69 534.152 223.1C503.162 220.95 473.772 212.36 445.492 199.51C432.852 193.76 422.772 187.77 412.382 180.14C408.662 177.413 405.955 175.927 404.262 175.68C400.855 175.187 397.902 175.933 395.402 177.92C385.775 185.56 375.605 192.04 364.892 197.36C338.482 210.47 309.262 219.3 279.522 222.43C267.842 223.66 258.872 222.39 257.602 235.85C256.372 248.98 256.892 262.87 257.362 277.6C257.702 288.127 258.118 295.877 258.612 300.85C261.538 330.29 268.848 358.75 280.542 386.23C286.642 400.563 294.175 414.027 303.142 426.62C314.582 442.68 329.972 459.61 346.242 473.34C356.442 481.94 363.265 487.43 366.712 489.81C374.818 495.39 380.645 499.433 384.192 501.94C389.665 505.8 393.845 508.03 396.732 508.63C401.798 509.677 406.938 508.51 412.152 505.13C438.892 487.77 464.642 468.32 485.482 444.01C498.508 428.803 509.605 412.23 518.772 394.29C525.205 381.697 530.098 369.173 533.452 356.72C541.632 326.33 546.202 293.41 546.002 261.49C545.948 253.417 545.728 245.153 545.342 236.7Z" stroke="#111111" stroke-width="2"/>
<path d="M364.249 245.12C354.562 247.467 346.935 249.46 341.369 251.1C334.162 253.227 325.072 256.467 314.099 260.82C310.199 262.37 305.559 265.01 305.239 269.02C304.819 274.34 304.639 278.927 304.699 282.78C304.979 300.52 306.465 317.133 309.159 332.62C311.619 346.83 314.479 357.27 320.549 369.46C331.039 390.55 344.889 410.27 362.359 425.71C362.601 425.919 362.898 426.061 363.219 426.12L364.219 426.3" stroke="#0C1D44" stroke-width="2"/>
<path d="M364.219 426.3C364.219 427.014 364.379 427.51 364.699 427.79C373.272 435.49 382.305 442.46 391.799 448.7C394.765 450.654 397.605 452.304 400.319 453.65C400.609 453.789 400.925 453.87 401.249 453.89C402.349 453.937 403.492 453.62 404.679 452.94C417.219 445.767 428.449 437.41 438.369 427.87" stroke="#898781" stroke-width="2"/>
<path d="M438.35 245.47C417.163 241.157 395.707 240.483 373.98 243.45C370.667 243.903 367.423 244.46 364.25 245.12" stroke="#898781" stroke-width="2"/>
<path d="M364.219 426.3L364.249 245.12" stroke="#7E8DAE" stroke-opacity="0.72" stroke-width="2"/>
<path d="M640.999 303.28C640.499 303.86 640.436 304.43 640.809 304.99C640.529 305.297 640.523 305.57 640.789 305.81C640.842 305.856 640.911 305.887 640.989 305.9L644.619 306.48C644.793 306.508 644.956 306.58 645.094 306.689C645.232 306.798 645.339 306.941 645.406 307.103C645.474 307.266 645.498 307.442 645.478 307.617C645.457 307.791 645.392 307.958 645.289 308.1C639.089 316.693 632.166 324.703 624.519 332.13C624.287 332.349 624.032 332.541 623.759 332.7C619.469 335.16 614.819 336.06 614.319 342.02C614.273 342.56 614.173 344.87 614.019 348.95C613.953 350.723 613.223 352.183 611.829 353.33C607.756 356.69 604.316 359.657 601.509 362.23C599.429 364.137 597.773 366.947 596.539 370.66C596.433 370.985 596.376 371.325 596.369 371.67C596.309 374.31 595.836 376.653 594.949 378.7C594.865 378.901 594.825 379.116 594.832 379.332C594.838 379.548 594.892 379.759 594.989 379.95C595.409 380.777 595.986 381.407 596.719 381.84C597.279 382.172 597.718 382.658 597.968 383.221C598.218 383.785 598.265 384.393 598.099 384.95C597.586 386.67 596.743 388.32 595.569 389.9C595.24 390.341 594.817 390.707 594.329 390.97C594.136 391.07 593.349 391.367 591.969 391.86C589.009 392.92 588.199 395.74 588.369 398.75C588.397 399.245 588.599 399.715 588.939 400.075C589.28 400.436 589.737 400.664 590.229 400.72C597.469 401.53 607.359 399.24 605.799 389.5C605.593 388.193 605.276 386.693 604.849 385C604.722 384.507 604.759 383.986 604.954 383.515C605.148 383.044 605.491 382.649 605.929 382.39C608.116 381.097 610.843 379.86 614.109 378.68C620.369 376.427 626.603 376.093 632.809 377.68C634.763 378.18 635.486 379.233 634.979 380.84C634.326 382.913 635.133 385.177 637.399 387.63C637.556 387.795 637.663 388 637.709 388.223C637.755 388.446 637.738 388.677 637.659 388.89C637.406 389.603 636.789 391.883 635.809 395.73C635.243 397.963 635.579 399.663 636.819 400.83C641.546 405.283 644.856 409.23 646.749 412.67C646.875 412.907 646.95 413.17 646.969 413.44C647.143 415.947 646.206 418.137 644.159 420.01C643.896 420.255 643.551 420.394 643.189 420.4C639.983 420.46 637.613 421.697 636.079 424.11C632.719 429.41 639.319 434.82 643.049 437.85C644.329 438.883 644.946 440.23 644.899 441.89C644.739 447.68 648.069 449.87 652.779 453.25C653.746 453.943 654.369 455.193 654.649 457C654.702 457.373 654.654 457.753 654.509 458.1C653.399 460.69 652.849 464.4 651.229 466.25C647.749 470.23 641.649 472.46 636.509 473.74C632.609 474.707 630.286 475.387 629.539 475.78C626.179 477.57 623.079 481.59 627.059 484.71C628.146 485.563 629.379 486.377 630.759 487.15C631.044 487.309 631.294 487.516 631.499 487.76C631.766 488.08 632.063 489.093 632.389 490.8C632.843 493.173 634.256 495.19 636.629 496.85C636.94 497.062 637.282 497.214 637.639 497.3L643.109 498.64C643.364 498.699 643.597 498.827 643.779 499.01C645.833 501.097 647.426 503.873 648.559 507.34C648.603 507.474 648.62 507.616 648.609 507.756C648.598 507.896 648.559 508.033 648.495 508.158C648.43 508.283 648.342 508.393 648.235 508.483C648.127 508.572 648.003 508.64 647.869 508.68C646.703 509.033 645.763 509.533 645.049 510.18C644.749 510.448 644.534 510.795 644.429 511.18C643.019 516.13 642.619 519.04 638.449 521.56C638.336 521.628 638.241 521.724 638.173 521.839C638.105 521.954 638.066 522.085 638.059 522.22C638.053 522.493 638.116 522.67 638.249 522.75C637.956 523.45 638.019 524.02 638.439 524.46C638.059 524.653 637.959 524.967 638.139 525.4C638.179 525.486 638.233 525.564 638.299 525.63C640.469 527.67 639.719 529.33 639.409 531.99C639.376 532.308 639.39 532.635 639.449 532.96C640.636 539.08 643.996 543.677 649.529 546.75C654.389 549.45 658.623 551.443 662.229 552.73C665.423 553.877 668.769 554 672.269 553.1C674.239 552.59 677.089 550.56 679.379 549.8C679.754 549.676 680.162 549.698 680.52 549.861C680.878 550.024 681.16 550.317 681.309 550.68C682.756 554.153 682.739 557.52 681.259 560.78C681.133 561.052 680.972 561.308 680.779 561.54C679.499 563.087 677.809 564.963 675.709 567.17C673.036 569.983 671.793 573.22 671.979 576.88C672.003 577.313 671.897 577.743 671.675 578.117C671.452 578.491 671.123 578.791 670.729 578.98C665.989 581.26 661.276 584.043 656.589 587.33C654.676 588.67 653.229 590.12 652.249 591.68C651.794 592.402 651.126 592.965 650.339 593.29C645.453 595.297 642.053 597.093 640.139 598.68C639.606 599.12 638.549 600.667 636.969 603.32C636.744 603.711 636.453 604.059 636.109 604.35C634.456 605.777 633.396 606.567 632.929 606.72C630.196 607.633 628.306 608.343 627.259 608.85C625.973 609.463 625.103 610.803 624.649 612.87C624.176 615.037 624.306 616.533 625.039 617.36C627.669 620.32 625.019 622.03 622.089 622.69C618.349 623.537 615.106 625.213 612.359 627.72C611.976 628.067 611.502 628.3 610.993 628.39C610.483 628.48 609.959 628.425 609.479 628.23C605.333 626.537 601.813 627.79 598.919 631.99C597.973 633.363 596.909 633.473 595.729 632.32C594.343 630.967 592.963 629.853 591.589 628.98C591.123 628.683 590.597 628.491 590.048 628.418C589.498 628.346 588.939 628.394 588.409 628.56L581.469 630.73C580.96 630.887 580.411 630.853 579.925 630.634C579.439 630.415 579.049 630.026 578.829 629.54C577.169 625.84 574.339 623.55 570.339 622.67C566.293 621.777 562.379 620.86 558.599 619.92C558.377 619.865 558.183 619.73 558.056 619.541C557.928 619.353 557.876 619.124 557.909 618.9C558.869 612.18 556.439 608.36 549.089 610C546.503 610.58 544.316 610.927 542.529 611.04C536.979 611.38 539.499 605.57 534.789 603.58C531.449 602.16 528.939 606.55 528.919 609.11C528.915 609.489 528.766 609.852 528.504 610.123C528.241 610.395 527.885 610.555 527.509 610.57C523.389 610.75 519.426 610.12 515.619 608.68C515.463 608.621 515.327 608.517 515.229 608.38C515.049 608.14 515.113 607.86 515.419 607.54C515.522 607.435 515.598 607.307 515.641 607.166C515.685 607.025 515.694 606.876 515.669 606.73C515.383 605.217 514.789 604.177 513.889 603.61C508.469 600.21 500.069 601.05 494.689 601.04C494.229 601.04 493.78 600.896 493.407 600.626C493.034 600.357 492.754 599.977 492.609 599.54C491.729 596.9 490.769 594.47 488.049 594.13C483.549 593.583 479.403 594.66 475.609 597.36C471.036 600.62 466.379 603.897 461.639 607.19C457.009 610.4 452.429 612.36 447.049 614.83C445.369 615.603 443.053 617.44 440.099 620.34C435.399 624.953 431.993 630.227 429.879 636.16C428.646 639.613 428.016 643.753 427.989 648.58C427.949 654.313 428.066 658.527 428.339 661.22C428.813 665.847 429.423 668.82 430.169 670.14C431.003 671.607 432.316 673.437 434.109 675.63C434.709 676.37 434.866 677.35 434.579 678.57C434.534 678.76 434.447 678.937 434.323 679.089C434.199 679.24 434.043 679.361 433.865 679.444C433.687 679.526 433.493 679.568 433.296 679.566C433.1 679.563 432.906 679.517 432.729 679.43C427.999 677.09 422.659 675.99 417.809 678.65C414.659 680.37 412.769 680.15 410.009 680.25C409.408 680.276 408.835 680.509 408.389 680.91C407.149 682.03 406.229 684.36 404.679 685.09C401.999 686.35 398.279 685.66 395.719 684.29C389.199 680.82 384.789 677.47 378.949 679.57C378.684 679.663 378.425 679.787 378.179 679.94C376.713 680.847 375.496 681.68 374.529 682.44C373.189 683.493 372.199 683.94 371.559 683.78C370.146 683.433 369.226 682.85 368.799 682.03C365.939 676.523 362.063 673.537 357.169 673.07C356.756 673.03 356.439 672.897 356.219 672.67C355.833 672.263 355.683 671.887 355.769 671.54C356.219 669.61 354.119 666.84 353.029 665.95C349.209 662.86 343.839 662.79 338.429 662.85C336.389 662.87 334.569 662.14 333.559 660.28C331.389 656.32 327.219 656.86 323.469 656.18C322.805 656.062 322.182 655.791 321.649 655.39C319.936 654.097 317.993 653.017 315.819 652.15C310.199 649.917 304.659 648.323 299.199 647.37C296.333 646.87 294.403 646.83 293.409 647.25C290.659 648.42 290.609 652.71 291.429 655.34C291.454 655.416 291.461 655.497 291.449 655.576C291.438 655.655 291.408 655.731 291.363 655.796C291.317 655.862 291.257 655.917 291.187 655.955C291.117 655.994 291.039 656.016 290.959 656.02C284.679 656.373 278.859 656.067 273.499 655.1C272.799 654.973 270.093 654.94 265.379 655C264.982 655 264.587 655.064 264.209 655.19C260.589 656.35 254.159 658.05 251.139 655.61C244.669 650.38 242.559 647.92 234.789 649.45C228.199 650.74 221.969 649.08 218.209 643.51C216.249 640.61 214.829 638.98 212.189 638.36C209.619 637.76 206.579 637.87 203.949 637.14C198.729 635.687 193.463 633.427 188.149 630.36C184.339 628.16 182.819 633.28 180.099 631.87C179.253 631.437 178.736 631.05 178.549 630.71C178.462 630.552 178.425 630.37 178.445 630.19C178.465 630.009 178.54 629.838 178.659 629.7C180.749 627.32 184.939 621.36 183.039 618.2C180.679 614.28 176.709 614.4 172.719 615.14C172.533 615.173 172.341 615.153 172.164 615.083C171.987 615.012 171.834 614.893 171.719 614.74C169.869 612.23 166.909 613.85 165.149 612.32C163.909 611.24 163.026 610.247 162.499 609.34C162.373 609.122 162.295 608.878 162.272 608.627C162.248 608.375 162.279 608.121 162.362 607.882C162.446 607.643 162.58 607.425 162.755 607.241C162.931 607.058 163.144 606.914 163.379 606.82C172.019 603.39 176.509 594.8 178.909 585.93C181.179 577.53 182.949 567.18 184.529 559.84C187.743 544.953 189.929 530.377 191.089 516.11C191.134 515.577 191.374 515.078 191.763 514.711C192.153 514.343 192.664 514.133 193.199 514.12C195.966 514.067 198.363 513.557 200.389 512.59C200.832 512.377 201.19 512.021 201.403 511.579C201.615 511.137 201.671 510.637 201.559 510.16C201.026 507.887 200.026 506.233 198.559 505.2C196.049 503.43 194.669 505.81 192.839 506.11C192.664 506.138 192.484 506.126 192.313 506.074C192.143 506.022 191.987 505.932 191.856 505.81C191.726 505.689 191.626 505.539 191.562 505.373C191.498 505.206 191.474 505.027 191.489 504.85L196.479 449.48C196.489 449.375 196.522 449.273 196.575 449.181C196.628 449.09 196.7 449.011 196.786 448.95C196.873 448.889 196.972 448.847 197.076 448.829C197.18 448.81 197.287 448.814 197.389 448.84C198.516 449.14 199.596 449.647 200.629 450.36C204.743 453.173 208.459 456.54 211.779 460.46C215.969 465.41 217.029 472.49 218.699 477.34C219.853 480.7 221.223 483.22 222.809 484.9C223.723 485.86 224.989 486.537 226.609 486.93C226.713 486.955 226.822 486.941 226.915 486.889C227.007 486.837 227.077 486.751 227.109 486.65C227.196 486.403 227.126 486.283 226.899 486.29C227.373 486.257 227.663 485.997 227.769 485.51C228.389 485.257 228.526 484.867 228.179 484.34C226.373 481.62 225.106 479.453 224.379 477.84C223.993 476.987 223.573 474.47 223.119 470.29C222.746 466.797 222.306 464.287 221.799 462.76C217.899 451.04 208.919 442.94 198.709 436.43C194.339 433.65 191.939 431.52 190.849 427.05C190.806 426.867 190.81 426.677 190.862 426.496C190.913 426.316 191.011 426.151 191.145 426.02C191.278 425.888 191.444 425.793 191.625 425.744C191.807 425.695 191.997 425.694 192.179 425.74C195.049 426.47 196.899 423.63 199.199 420.91C199.414 420.663 199.544 420.355 199.569 420.03L199.979 415.52C199.986 415.395 200.017 415.276 200.069 415.17C202.339 410.37 202.629 404.03 197.709 401.04C197.431 400.87 197.204 400.63 197.051 400.343C196.898 400.056 196.825 399.734 196.839 399.41C196.979 396.19 197.539 393 198.519 389.84C198.593 389.601 198.636 389.353 198.649 389.1C198.729 387.827 198.543 387.17 198.089 387.13C197.543 387.077 197.193 386.963 197.039 386.79C197.206 386.583 197.279 386.427 197.259 386.32C197.209 386.094 197.054 385.893 196.824 385.754C196.593 385.615 196.301 385.546 195.999 385.56C193.299 385.7 192.019 385.65 189.499 384.18C186.386 382.36 184.089 381.213 182.609 380.74C180.469 380.053 178.326 379.067 176.179 377.78C174.199 376.58 171.333 375.61 167.579 374.87C167.421 374.837 167.275 374.776 167.149 374.69L161.559 370.85C161.187 370.594 160.871 370.266 160.63 369.884C160.389 369.502 160.229 369.076 160.159 368.63C159.366 363.357 157.086 358.87 153.319 355.17C149.619 351.52 144.239 348.32 146.249 342.07C146.329 341.804 146.437 341.549 146.569 341.31C147.249 340.077 148.253 338.637 149.579 336.99C152.469 333.42 154.799 329.5 149.159 327.07C146.739 326.023 144.969 325.353 143.849 325.06C141.009 324.293 140.169 322.39 141.329 319.35C141.676 318.45 142.789 316.937 144.669 314.81C144.723 314.751 144.763 314.681 144.787 314.605C144.811 314.529 144.819 314.449 144.809 314.37C144.776 314.043 144.633 313.867 144.379 313.84C144.486 313.453 144.233 313.063 143.619 312.67C144.019 312.917 144.246 312.84 144.299 312.44C144.312 312.365 144.302 312.286 144.272 312.214C144.243 312.142 144.193 312.078 144.129 312.03C140.969 309.66 134.709 312.83 130.719 311.55C128.139 310.72 124.569 309.11 123.439 306.52C121.329 301.64 129.929 294.34 122.979 290.75C118.849 288.61 113.669 293.97 108.769 293.29C108.049 293.197 107.566 292.273 107.319 290.52C108.126 290.1 109.116 289.433 110.289 288.52C111.296 287.733 112.179 286.4 112.939 284.52C112.773 282.233 111.433 281.09 108.919 281.09C107.219 281.09 105.346 281.657 103.299 282.79C100.726 284.217 97.8828 285.26 94.7695 285.92C92.2028 286.467 91.1961 287.877 91.7495 290.15C91.8134 290.416 91.8033 290.693 91.7201 290.954C91.6369 291.215 91.4834 291.452 91.2741 291.642C91.0648 291.833 90.8066 291.97 90.524 292.041C90.2414 292.113 89.9439 292.116 89.6595 292.05C89.1995 291.943 88.8661 291.713 88.6595 291.36C88.4728 291.04 88.4428 290.613 88.5695 290.08C89.8295 284.77 86.5295 277.86 81.2695 276.17C80.9961 276.083 79.7828 275.937 77.6295 275.73C77.1478 275.684 76.678 275.538 76.2495 275.3C71.1161 272.447 67.1528 270.823 64.3595 270.43C61.2995 269.997 57.8361 269.567 53.9695 269.14C53.6697 269.108 53.3927 268.964 53.193 268.736C52.9932 268.509 52.885 268.214 52.8895 267.91C52.9428 265.197 51.5528 263.647 48.7195 263.26C46.0928 262.907 42.8528 262.893 38.9995 263.22C34.9695 263.56 34.3295 266.93 32.1995 268.13C30.6195 269.023 29.2061 269.13 27.9595 268.45C27.6068 268.258 27.3444 267.935 27.2295 267.55C24.9495 259.663 23.4128 254.923 22.6195 253.33C21.9061 251.89 20.6495 250.983 18.8495 250.61C16.5095 250.13 13.9561 249.72 11.1895 249.38C10.3961 249.28 9.60613 249.003 8.81947 248.55C8.70505 248.483 8.61233 248.385 8.55242 248.266C8.49252 248.148 8.46797 248.015 8.48168 247.883C8.4954 247.751 8.5468 247.626 8.62975 247.523C8.71271 247.419 8.82371 247.342 8.94946 247.3C13.7228 245.733 18.7428 245.337 24.0095 246.11C26.4628 246.477 28.1895 245.827 29.1895 244.16C30.9961 241.16 30.7161 238.167 28.3495 235.18C26.5895 232.96 20.6195 232.71 19.0795 232.44C17.0395 232.073 15.4395 231.54 14.2795 230.84C14.2161 230.802 14.1642 230.748 14.1291 230.683C14.0941 230.618 14.0772 230.545 14.0803 230.471C14.0834 230.397 14.1063 230.326 14.1466 230.264C14.1869 230.202 14.2432 230.153 14.3095 230.12C18.8095 227.88 25.2095 232.07 28.9495 228.22C30.1495 226.98 30.2495 225.68 29.2495 224.32C26.6795 220.79 22.3395 223.95 19.3895 221.31C17.9295 220.01 15.5295 219.86 14.2995 220.31C10.0395 221.86 3.27946 225.38 2.87946 218.86C2.8128 217.713 3.49279 215.313 4.91946 211.66C5.76612 209.507 6.78946 208.107 7.98946 207.46C10.4628 206.133 15.0428 204.133 21.7295 201.46C24.2095 200.47 26.8895 199.67 30.4395 200.13C32.5795 200.41 34.8928 199.867 37.3795 198.5C40.2728 196.907 43.1228 196.583 45.9295 197.53C50.4695 199.07 52.0995 199.56 55.1895 195.81C55.3604 195.606 55.5724 195.445 55.8095 195.34C57.4228 194.64 58.7095 194.56 59.6695 195.1C63.0295 196.98 67.6095 197.88 68.9495 193.27C69.0286 192.98 69.0423 192.68 68.9895 192.39L68.4095 189.17C68.3768 189.026 68.3837 188.874 68.4295 188.73C68.8628 187.303 69.6528 186.403 70.7995 186.03C73.9061 185.003 78.5428 183.717 84.7095 182.17C85.6561 181.93 86.7595 181.88 88.0195 182.02C88.3805 182.066 88.724 182.2 89.0195 182.41C92.4861 184.93 95.2495 187.443 97.3095 189.95C100.296 193.577 104.053 198.647 108.579 205.16C110.679 208.173 113.346 209.427 116.579 208.92C118.106 208.68 120.319 207.347 123.219 204.92C125.819 202.747 129.026 200.623 132.839 198.55C138.679 195.37 138.219 203.43 142.289 203.19C146.719 202.93 149.979 202.01 153.889 198.93C154.763 198.243 156.183 197.753 158.149 197.46C158.341 197.433 158.537 197.473 158.703 197.573C158.868 197.673 158.995 197.828 159.059 198.01C159.969 200.59 159.699 202.46 163.049 202.98C166.936 203.58 170.586 203.9 173.999 203.94C178.059 203.98 181.119 203.19 185.029 201.99C186.049 201.677 186.706 201.337 186.999 200.97C187.324 200.567 187.476 200.053 187.424 199.54C187.371 199.026 187.118 198.556 186.719 198.23C185.239 197.017 183.903 195.71 182.709 194.31C176.039 186.44 178.579 177.19 178.449 167.72C178.443 167.152 178.327 166.595 178.109 166.08C176.643 162.64 176.363 159.15 177.269 155.61C177.381 155.165 177.37 154.699 177.239 154.26C176.586 152 175.856 150.307 175.049 149.18C172.203 145.24 169.516 141.433 166.989 137.76C163.569 132.787 162.839 127.533 164.799 122C164.918 121.65 164.973 121.277 164.959 120.9C164.819 118.193 163.323 116.06 160.469 114.5C160.283 114.398 160.131 114.242 160.033 114.053C159.935 113.863 159.896 113.649 159.921 113.438C159.945 113.226 160.033 113.027 160.172 112.865C160.31 112.703 160.494 112.587 160.699 112.53C162.719 112 166.419 113.95 169.889 115.46C176.169 118.18 180.069 116.42 186.429 114.15C187.049 113.93 188.519 113.86 190.839 113.94C191.167 113.953 191.481 114.05 191.749 114.22C192.769 114.873 193.453 115.89 193.799 117.27C193.884 117.62 193.852 117.985 193.709 118.31C192.509 121.08 191.119 124.24 192.379 127.21C194.613 132.503 196.359 136.96 197.619 140.58C197.718 140.857 197.871 141.112 198.069 141.33C199.563 142.977 201.063 143.537 202.569 143.01C207.143 141.417 211.883 141.303 216.789 142.67C221.843 144.077 226.319 145.03 230.219 145.53C235.049 146.14 240.609 145.38 245.449 147.37C248.236 148.517 250.563 149.157 252.429 149.29C258.329 149.72 261.519 148.7 266.419 145.56C269.226 143.753 270.966 142.76 271.639 142.58C275.646 141.473 279.363 140.203 282.789 138.77C282.878 138.732 282.957 138.676 283.023 138.605C283.088 138.535 283.138 138.451 283.169 138.36C283.303 137.947 283.173 137.663 282.779 137.51C283.113 137.263 283.323 137.02 283.409 136.78C283.516 136.48 283.383 136.217 283.009 135.99C282.716 135.803 282.363 135.673 281.949 135.6C282.349 135.613 282.559 135.593 282.579 135.54C282.631 135.438 282.656 135.325 282.654 135.211C282.651 135.097 282.62 134.986 282.563 134.887C282.507 134.788 282.427 134.704 282.33 134.644C282.233 134.583 282.123 134.548 282.009 134.54C277.749 134.26 273.349 134.34 270.359 131.54C270.114 131.308 269.961 130.999 269.929 130.67C269.649 128.2 271.929 125.63 273.159 123.93C273.392 123.611 273.583 123.265 273.729 122.9C275.309 118.907 277.783 115.903 281.149 113.89C282.969 112.797 287.859 110.2 295.819 106.1C300.986 103.447 307.299 101.587 314.759 100.52C317.026 100.2 319.956 99.1135 323.549 97.2601C330.783 93.5268 337.343 88.6768 343.229 82.7101C344.609 81.3168 345.956 79.4735 347.269 77.1801C347.441 76.8767 347.673 76.6143 347.949 76.4101C349.729 75.0401 353.489 74.3101 354.149 70.7001C354.163 70.6141 354.159 70.5259 354.139 70.4401L352.699 64.1201C352.673 64.0142 352.663 63.9063 352.669 63.8001C352.889 56.8068 352.966 48.8301 352.899 39.8701C352.869 35.7801 353.489 31.6901 353.609 28.4401C353.799 23.1001 355.839 18.6401 359.929 15.6901C360.863 15.0101 362.286 14.0268 364.199 12.7401C369.039 9.47013 373.399 8.46013 380.459 7.61013C383.999 7.17679 389.353 5.69346 396.519 3.16013C396.566 3.14031 396.613 3.1301 396.659 3.13013L402.549 2.49013C402.841 2.45941 403.135 2.50615 403.402 2.6256C403.669 2.74505 403.9 2.93294 404.069 3.17013C404.889 4.32346 405.436 5.78679 405.709 7.56012C405.989 9.36012 406.349 12.0801 406.789 15.7201C407.249 19.4701 409.309 20.9401 411.059 23.9001C412.109 25.6601 416.779 31.1201 419.479 31.2901C419.789 31.3033 420.099 31.2488 420.389 31.1301C423.809 29.7101 426.033 28.8668 427.059 28.6001C432.859 27.0735 437.246 28.6435 440.219 33.3101C440.404 33.6009 440.533 33.9196 440.599 34.2501C441.819 40.6235 442.446 43.9735 442.479 44.3001C443.039 49.3701 446.289 54.2001 452.049 53.0601C455.539 52.3701 462.079 51.9301 462.649 56.9101C463.003 60.0701 463.293 62.0735 463.519 62.9201C463.706 63.634 464.112 64.2716 464.68 64.7433C465.249 65.2151 465.952 65.4972 466.689 65.5501C468.829 65.6968 471.379 65.5101 474.339 64.9901C474.931 64.8837 475.531 64.8335 476.129 64.8401C481.589 64.8901 486.909 66.9201 489.989 71.4701C491.369 73.5001 490.159 78.4901 490.019 81.4401C490.004 81.7066 490.046 81.9725 490.143 82.2195C490.239 82.4665 490.389 82.6885 490.579 82.8701C492.029 84.2601 493.059 85.3701 492.829 87.5601C492.789 87.9335 492.763 89.7368 492.749 92.9701C492.743 94.6035 493.583 95.7101 495.269 96.2901C501.096 98.2968 506.326 98.6568 510.959 97.3701C516.679 95.7901 520.759 88.0001 524.079 82.8201C524.343 82.405 524.719 82.0835 525.145 81.9074C525.572 81.7314 526.024 81.7112 526.429 81.8501C527.049 82.0568 527.579 82.7135 528.019 83.8201C528.143 84.1454 528.164 84.5014 528.079 84.8401C527.146 88.4468 527.129 94.4268 528.029 102.78C528.449 106.673 529.989 109.107 532.649 110.08C533.029 110.213 533.42 110.327 533.819 110.42C537.073 111.187 540.469 113.113 544.009 116.2C544.089 116.273 544.173 116.337 544.259 116.39C548.546 119.003 551.699 120.967 553.719 122.28C555.533 123.467 557.399 125.757 559.319 129.15C559.472 129.409 559.65 129.651 559.849 129.87C561.669 131.81 564.006 132.97 566.859 133.35C567.26 133.409 567.669 133.368 568.049 133.23L575.179 130.73C575.199 130.724 575.223 130.717 575.249 130.71C578.109 130.263 580.833 131.057 583.419 133.09C586.526 135.543 588.153 136.81 588.299 136.89C588.617 137.029 588.953 137.107 589.289 137.12L596.699 137.49C596.979 137.51 597.255 137.443 597.489 137.3C599.659 136 602.329 133.96 605.249 135.21C606.603 135.79 607.993 136.357 609.419 136.91C609.884 137.096 610.371 137.224 610.869 137.29C612.496 137.53 614.076 137.923 615.609 138.47C615.914 138.583 616.195 138.749 616.439 138.96C617.999 140.353 619.253 142.143 620.199 144.33C621.899 148.28 623.549 153.7 626.429 158.05C628.649 161.41 631.576 162.59 635.209 161.59C635.315 161.564 635.417 161.52 635.509 161.46L639.299 159.01C639.879 158.632 640.544 158.405 641.234 158.35C641.924 158.294 642.616 158.411 643.249 158.69C646.419 160.08 648.149 163.39 650.619 164.85C653.566 166.603 656.733 166.787 660.119 165.4C663.559 163.99 666.179 160.01 670.149 163.25C673.739 166.18 677.989 168.04 682.649 168.99C684.323 169.33 685.889 169.683 687.349 170.05C697.589 172.61 703.979 174.21 706.519 174.85C706.742 174.905 706.949 175.01 707.124 175.157C707.3 175.305 707.439 175.49 707.532 175.7C707.625 175.909 707.668 176.137 707.659 176.366C707.65 176.595 707.588 176.819 707.479 177.02C702.879 185.5 697.549 192.85 690.719 201.22C688.179 204.33 686.469 208.91 685.559 213.58C683.753 222.84 680.899 232.127 676.999 241.44C675.906 244.04 675.116 248.767 674.629 255.62C674.603 255.958 674.63 256.299 674.709 256.63C675.256 258.93 675.409 260.44 675.169 261.16C672.649 268.713 671.403 276.453 671.429 284.38C671.429 284.773 671.533 285.16 671.729 285.5C672.609 287.04 673.009 288.02 672.929 288.44C671.689 295.267 667.639 298.747 660.779 298.88C655.109 299 655.829 295.57 652.189 293.26C652.084 293.195 651.964 293.157 651.839 293.15L645.249 292.67C645.024 292.655 644.8 292.704 644.602 292.81C644.404 292.916 644.24 293.075 644.129 293.27C642.556 296.077 641.306 299.277 640.379 302.87C640.333 303.043 640.383 303.18 640.529 303.28C640.663 303.373 640.819 303.373 640.999 303.28ZM465.309 484.46C470.209 480.46 474.549 476.07 480.219 470.72C483.186 467.913 487.036 463.993 491.769 458.96C496.283 454.16 499.909 450.033 502.649 446.58C510.109 437.16 516.486 428.047 521.779 419.24C526.679 411.1 530.953 403.317 534.599 395.89C538.113 388.743 541.369 380.493 544.369 371.14C548.703 357.64 551.956 344.72 554.129 332.38C556.403 319.507 557.989 308.127 558.889 298.24C559.509 291.52 560.059 280.8 560.539 266.08C560.586 264.6 560.563 262.547 560.469 259.92C560.299 255.24 560.539 253.04 560.069 248.54C559.429 242.34 560.109 234.89 559.499 231C557.479 218.2 547.659 210.06 534.749 210.15C530.296 210.177 523.919 209.533 515.619 208.22C506.819 206.827 499.339 205.287 493.179 203.6C474.479 198.49 456.209 191.84 438.859 182.04C434.739 179.713 431.263 177.53 428.429 175.49C423.999 172.3 415.969 166.35 409.419 163.39C403.626 160.777 397.703 160.93 391.649 163.85C388.443 165.397 385.089 167.483 381.589 170.11C370.296 178.577 357.923 185.693 344.469 191.46C323.963 200.26 302.439 206.217 279.899 209.33C276.886 209.743 273.606 210.033 270.059 210.2C264.939 210.45 258.109 210.82 254.159 213.41C246.753 218.283 242.893 225.07 242.579 233.77C242.373 239.397 242.303 248.76 242.369 261.86C242.396 267.633 242.506 272.06 242.699 275.14C242.806 276.833 243.026 281.26 243.359 288.42C244.233 307.113 247.059 326.3 251.839 345.98C254.253 355.92 258.036 367.697 263.189 381.31C273.523 408.617 288.283 432.963 307.469 454.35C321.089 469.523 335.973 483.347 352.119 495.82C354.839 497.92 359.993 501.557 367.579 506.73C376.019 512.483 381.236 516.01 383.229 517.31C391.309 522.59 399.816 524.183 408.749 522.09C412.529 521.203 417.533 518.71 423.759 514.61C439.633 504.163 453.483 494.113 465.309 484.46Z" fill="#3A3A3A"/>
<path d="M465.308 484.46C453.481 494.113 439.631 504.163 423.758 514.61C417.531 518.71 412.528 521.203 408.748 522.09C399.815 524.183 391.308 522.59 383.228 517.31C381.235 516.01 376.018 512.483 367.578 506.73C359.991 501.557 354.838 497.92 352.118 495.82C335.971 483.347 321.088 469.523 307.468 454.35C288.281 432.963 273.521 408.617 263.188 381.31C258.035 367.697 254.251 355.92 251.838 345.98C247.058 326.3 244.231 307.113 243.358 288.42C243.025 281.26 242.805 276.833 242.698 275.14C242.505 272.06 242.395 267.633 242.368 261.86C242.301 248.76 242.371 239.397 242.578 233.77C242.891 225.07 246.751 218.283 254.158 213.41C258.108 210.82 264.938 210.45 270.058 210.2C273.605 210.033 276.885 209.743 279.898 209.33C302.438 206.217 323.961 200.26 344.468 191.46C357.921 185.693 370.295 178.577 381.588 170.11C385.088 167.483 388.442 165.397 391.648 163.85C397.702 160.93 403.625 160.777 409.418 163.39C415.968 166.35 423.998 172.3 428.428 175.49C431.261 177.53 434.738 179.713 438.858 182.04C456.208 191.84 474.478 198.49 493.178 203.6C499.338 205.287 506.818 206.827 515.618 208.22C523.918 209.533 530.295 210.177 534.748 210.15C547.658 210.06 557.478 218.2 559.498 231C560.108 234.89 559.428 242.34 560.068 248.54C560.538 253.04 560.298 255.24 560.468 259.92C560.561 262.547 560.585 264.6 560.538 266.08C560.058 280.8 559.508 291.52 558.888 298.24C557.988 308.127 556.401 319.507 554.128 332.38C551.955 344.72 548.701 357.64 544.368 371.14C541.368 380.493 538.111 388.743 534.598 395.89C530.951 403.317 526.678 411.1 521.778 419.24C516.485 428.047 510.108 437.16 502.648 446.58C499.908 450.033 496.282 454.16 491.768 458.96C487.035 463.993 483.185 467.913 480.218 470.72C474.548 476.07 470.208 480.46 465.308 484.46ZM512.178 431.9C518.618 422.673 524.745 412.517 530.558 401.43C539.208 384.94 545.298 366.98 549.318 349.81C553.778 330.757 556.808 310.73 558.408 289.73C559.235 278.89 559.351 262.777 558.758 241.39C558.545 233.63 558.125 228.793 557.498 226.88C555.891 221.94 553.005 218.06 548.838 215.24C545.811 213.193 543.118 212.13 540.758 212.05C521.598 211.39 501.551 207.763 480.618 201.17C463.525 195.79 448.575 189.227 435.768 181.48C428.528 177.11 422.198 172.26 415.338 167.82C404.618 160.87 396.048 161.45 385.868 168.62C379.655 173 375.681 175.777 373.948 176.95C363.241 184.21 351.025 190.493 337.298 195.8C313.591 204.967 289.805 210.32 265.938 211.86C261.378 212.153 258.155 212.747 256.268 213.64C252.328 215.52 249.171 218.387 246.798 222.24C244.268 226.35 243.888 230.89 243.768 236.25C243.188 262.9 243.518 288.36 246.908 314.11C251.128 346.103 260.658 376.743 275.498 406.03C293.208 441 321.058 470.6 352.248 494.7C360.938 501.41 370.358 507.45 382.248 515.49C394.855 524.03 407.558 524.053 420.358 515.56C432.265 507.66 441.438 501.353 447.878 496.64C472.528 478.59 494.768 456.84 512.178 431.9Z" fill="#464646"/>
<path d="M512.18 431.9C494.77 456.84 472.53 478.59 447.88 496.64C441.44 501.354 432.267 507.66 420.36 515.56C407.56 524.054 394.857 524.03 382.25 515.49C370.36 507.45 360.94 501.41 352.25 494.7C321.06 470.6 293.21 441 275.5 406.03C260.66 376.744 251.13 346.104 246.91 314.11C243.52 288.36 243.19 262.9 243.77 236.25C243.89 230.89 244.27 226.35 246.8 222.24C249.173 218.387 252.33 215.52 256.27 213.64C258.157 212.747 261.38 212.154 265.94 211.86C289.807 210.32 313.593 204.967 337.3 195.8C351.027 190.494 363.243 184.21 373.95 176.95C375.683 175.777 379.657 173 385.87 168.62C396.05 161.45 404.62 160.87 415.34 167.82C422.2 172.26 428.53 177.11 435.77 181.48C448.577 189.227 463.527 195.79 480.62 201.17C501.553 207.764 521.6 211.39 540.76 212.05C543.12 212.13 545.813 213.194 548.84 215.24C553.007 218.06 555.893 221.94 557.5 226.88C558.127 228.794 558.547 233.63 558.76 241.39C559.353 262.777 559.237 278.89 558.41 289.73C556.81 310.73 553.78 330.757 549.32 349.81C545.3 366.98 539.21 384.94 530.56 401.43C524.747 412.517 518.62 422.674 512.18 431.9ZM545.34 236.7C544.99 229.03 542.63 223.69 534.15 223.1C503.16 220.95 473.77 212.36 445.49 199.51C432.85 193.76 422.77 187.77 412.38 180.14C408.66 177.414 405.953 175.927 404.26 175.68C400.853 175.187 397.9 175.934 395.4 177.92C385.773 185.56 375.603 192.04 364.89 197.36C338.48 210.47 309.26 219.3 279.52 222.43C267.84 223.66 258.87 222.39 257.6 235.85C256.37 248.98 256.89 262.87 257.36 277.6C257.7 288.127 258.117 295.877 258.61 300.85C261.537 330.29 268.847 358.75 280.54 386.23C286.64 400.564 294.173 414.027 303.14 426.62C314.58 442.68 329.97 459.61 346.24 473.34C356.44 481.94 363.263 487.43 366.71 489.81C374.817 495.39 380.643 499.434 384.19 501.94C389.663 505.8 393.843 508.03 396.73 508.63C401.797 509.677 406.937 508.51 412.15 505.13C438.89 487.77 464.64 468.32 485.48 444.01C498.507 428.804 509.603 412.23 518.77 394.29C525.203 381.697 530.097 369.174 533.45 356.72C541.63 326.33 546.2 293.41 546 261.49C545.947 253.417 545.727 245.154 545.34 236.7Z" fill="#0A0A0A"/>
<path d="M534.152 223.1C542.632 223.69 544.992 229.03 545.342 236.7C545.728 245.153 545.948 253.417 546.002 261.49C546.202 293.41 541.632 326.33 533.452 356.72C530.098 369.173 525.205 381.697 518.772 394.29C509.605 412.23 498.508 428.803 485.482 444.01C464.642 468.32 438.892 487.77 412.152 505.13C406.938 508.51 401.798 509.677 396.732 508.63C393.845 508.03 389.665 505.8 384.192 501.94C380.645 499.433 374.818 495.39 366.712 489.81C363.265 487.43 356.442 481.94 346.242 473.34C329.972 459.61 314.582 442.68 303.142 426.62C294.175 414.027 286.642 400.563 280.542 386.23C268.848 358.75 261.538 330.29 258.612 300.85C258.118 295.877 257.702 288.127 257.362 277.6C256.892 262.87 256.372 248.98 257.602 235.85C258.872 222.39 267.842 223.66 279.522 222.43C309.262 219.3 338.482 210.47 364.892 197.36C375.605 192.04 385.775 185.56 395.402 177.92C397.902 175.933 400.855 175.187 404.262 175.68C405.955 175.927 408.662 177.413 412.382 180.14C422.772 187.77 432.852 193.76 445.492 199.51C473.772 212.36 503.162 220.95 534.152 223.1ZM364.252 245.12C354.565 247.467 346.938 249.46 341.372 251.1C334.165 253.227 325.075 256.467 314.102 260.82C310.202 262.37 305.562 265.01 305.242 269.02C304.822 274.34 304.642 278.927 304.702 282.78C304.982 300.52 306.468 317.133 309.162 332.62C311.622 346.83 314.482 357.27 320.552 369.46C331.042 390.55 344.892 410.27 362.362 425.71C362.604 425.919 362.901 426.061 363.222 426.12L364.222 426.3C364.222 427.013 364.382 427.51 364.702 427.79C373.275 435.49 382.308 442.46 391.802 448.7C394.768 450.653 397.608 452.303 400.322 453.65C400.612 453.789 400.928 453.87 401.252 453.89C402.352 453.937 403.495 453.62 404.682 452.94C417.222 445.767 428.452 437.41 438.372 427.87C458.718 409.417 474.188 387.86 484.782 363.2C487.228 357.52 489.158 351.723 490.572 345.81C495.198 326.517 497.632 306.383 497.872 285.41C497.912 281.5 498.382 273.95 497.432 269.29C496.972 267.05 496.072 265.383 494.732 264.29C492.465 262.45 490.072 261.04 487.552 260.06C471.578 253.853 455.178 248.99 438.352 245.47C417.165 241.157 395.708 240.483 373.982 243.45C370.668 243.903 367.425 244.46 364.252 245.12Z" fill="#171717"/>
<path d="M438.349 245.47L438.369 427.87C428.449 437.41 417.219 445.767 404.679 452.94C403.492 453.62 402.349 453.937 401.249 453.89C400.925 453.87 400.609 453.789 400.319 453.65C397.605 452.303 394.765 450.653 391.799 448.7C382.305 442.46 373.272 435.49 364.699 427.79C364.379 427.51 364.219 427.013 364.219 426.3L364.249 245.12C367.422 244.46 370.665 243.903 373.979 243.45C395.705 240.483 417.162 241.157 438.349 245.47Z" fill="#FBF6EA"/>
<path d="M364.249 245.12L364.219 426.3L363.219 426.12C362.898 426.061 362.601 425.919 362.359 425.71C344.889 410.27 331.039 390.55 320.549 369.46C314.479 357.27 311.619 346.83 309.159 332.62C306.465 317.133 304.979 300.52 304.699 282.78C304.639 278.927 304.819 274.34 305.239 269.02C305.559 265.01 310.199 262.37 314.099 260.82C325.072 256.467 334.162 253.227 341.369 251.1C346.935 249.46 354.562 247.467 364.249 245.12Z" fill="#002371"/>
<path d="M438.372 427.87L438.352 245.47C455.178 248.99 471.578 253.854 487.552 260.06C490.072 261.04 492.465 262.45 494.732 264.29C496.072 265.384 496.972 267.05 497.432 269.29C498.382 273.95 497.912 281.5 497.872 285.41C497.632 306.384 495.198 326.517 490.572 345.81C489.158 351.724 487.228 357.52 484.782 363.2C474.188 387.86 458.718 409.417 438.372 427.87Z" fill="#FC3F28"/>
</g>
<defs>
<clipPath id="clip0_307_69">
<rect width="711" height="688" fill="white"/>
</clipPath>
</defs>
</svg>
