<svg width="1024" height="1024" viewBox="0 0 1024 1024" fill="none" xmlns="http://www.w3.org/2000/svg">
<g clip-path="url(#clip0_307_325)">
<path d="M625.509 823.14C591.159 814.47 558.109 796.31 531.739 771.26C502.765 743.727 483.195 710.647 473.029 672.02C466.002 645.347 463.959 618.83 466.899 592.47C471.119 554.66 485.359 517.16 509.079 486.89C517.299 476.41 524.329 468.337 530.169 462.67C560.609 433.137 596.755 414.3 638.609 406.16C638.959 406.094 639.278 405.914 639.517 405.648C639.755 405.382 639.9 405.046 639.929 404.69C640.009 403.657 640.045 402.094 640.039 400C639.905 344.22 639.895 283.637 640.009 218.25C640.022 211.204 639.755 206.127 639.209 203.02C637.459 193.05 629.709 186.06 620.219 184.17C618.545 183.837 613.545 183.667 605.219 183.66C373.119 183.647 237.132 183.66 197.259 183.7C188.409 183.7 180.859 185.65 174.819 192.57C169.029 199.19 168.979 206.2 168.979 214.5C169.005 463.114 169.002 657.364 168.969 797.25C168.969 802.13 169.229 805.557 169.749 807.53C171.902 815.697 176.712 821.227 184.179 824.12C189.499 826.19 196.159 826.01 202.749 826.01C379.369 826.01 513.285 825.997 604.499 825.97C612.039 825.97 619.609 826.29 626.699 823.64" stroke="#7C786C" stroke-width="2"/>
<path d="M625.508 823.14C625.941 823.074 626.338 823.24 626.698 823.64" stroke="#87847A" stroke-width="2"/>
<path d="M281.157 305.731V320.471C281.157 320.631 281.22 320.784 281.332 320.899C281.445 321.013 281.597 321.078 281.757 321.081L299.157 321.211C299.599 321.216 300.029 321.357 300.389 321.615C300.748 321.872 301.02 322.234 301.167 322.651C301.427 323.371 301.521 324.291 301.447 325.411C301.077 331.071 296.827 335.741 291.797 338.271C288.287 340.051 283.367 340.121 279.367 339.871C267.897 339.161 259.387 330.961 257.177 319.781C255.577 311.651 254.547 300.141 258.407 292.321C261.907 285.231 267.137 278.931 274.727 277.501C282.007 276.121 289.537 277.121 294.847 282.651C297.437 285.351 299.207 290.641 301.127 293.951C301.199 294.081 301.313 294.183 301.45 294.243C301.587 294.302 301.741 294.316 301.887 294.281L319.257 290.191C319.354 290.168 319.445 290.125 319.525 290.066C319.605 290.006 319.673 289.932 319.723 289.846C319.774 289.76 319.806 289.665 319.819 289.566C319.832 289.467 319.824 289.367 319.797 289.271C318.971 286.391 318.447 284.381 318.227 283.241C316.457 273.891 303.527 265.711 295.437 262.591C284.717 258.451 273.854 258.747 262.847 263.481C249.737 269.121 238.367 281.211 235.667 295.391C232.647 311.291 235.887 327.861 245.927 341.091C247.934 343.737 250.694 346.217 254.207 348.531C261.977 353.651 269.437 356.821 278.567 357.201C283.141 357.394 286.531 357.381 288.737 357.161C300.917 355.941 310.387 350.361 317.147 340.421C319.987 336.247 321.527 331.694 321.767 326.761C322.101 319.847 322.157 312.877 321.937 305.851C321.932 305.658 321.852 305.475 321.714 305.34C321.575 305.206 321.39 305.131 321.197 305.131H281.767C281.605 305.131 281.45 305.194 281.336 305.306C281.222 305.419 281.157 305.572 281.157 305.731Z" stroke="#87847A" stroke-width="2"/>
<path d="M335.008 262.56L334.848 355.24C334.848 355.468 334.938 355.687 335.1 355.848C335.261 356.01 335.48 356.1 335.708 356.1L370.258 356.16C381.345 356.18 391.986 351.982 399.84 344.49C407.694 336.998 412.117 326.826 412.138 316.21L412.158 301.87C412.168 296.613 411.096 291.405 409.004 286.544C406.912 281.683 403.84 277.263 399.964 273.539C396.088 269.814 391.484 266.857 386.414 264.836C381.344 262.815 375.909 261.77 370.418 261.76L335.868 261.7C335.755 261.7 335.643 261.722 335.539 261.766C335.434 261.809 335.339 261.872 335.26 261.952C335.18 262.032 335.116 262.127 335.073 262.231C335.03 262.335 335.008 262.447 335.008 262.56Z" stroke="#87847A" stroke-width="2"/>
<path d="M425.958 356.15H443.018C443.291 356.15 443.553 356.042 443.747 355.848C443.94 355.655 444.048 355.393 444.048 355.12V323.33C444.048 323.234 444.069 323.14 444.11 323.053C444.15 322.967 444.209 322.89 444.283 322.829C444.356 322.768 444.442 322.724 444.535 322.7C444.628 322.676 444.724 322.672 444.818 322.69C458.678 325.38 473.658 324.87 484.588 314.85C490.875 309.077 493.988 301.893 493.928 293.3C493.768 270.24 478.198 261.13 457.008 261.5C452.275 261.58 441.978 261.593 426.118 261.54C425.97 261.539 425.824 261.567 425.687 261.623C425.55 261.679 425.425 261.762 425.32 261.867C425.215 261.973 425.131 262.098 425.075 262.235C425.018 262.373 424.988 262.521 424.988 262.67V355.18C424.988 355.437 425.09 355.684 425.272 355.866C425.454 356.048 425.701 356.15 425.958 356.15Z" stroke="#87847A" stroke-width="2"/>
<path d="M577.58 355.87C576.007 352.884 570.18 341.744 560.1 322.45C559.14 320.617 557.93 318.88 556.47 317.24C556.416 317.181 556.377 317.109 556.356 317.031C556.336 316.954 556.334 316.872 556.352 316.793C556.37 316.715 556.406 316.642 556.458 316.58C556.51 316.519 556.576 316.471 556.65 316.44C570.08 310.89 576.23 302.2 575.24 287.43C574.22 272.09 560.86 262.24 546.17 261.84C534.477 261.514 521.117 261.457 506.09 261.67C505.794 261.676 505.512 261.797 505.304 262.008C505.097 262.22 504.98 262.504 504.98 262.8V355.42C504.98 355.611 505.056 355.794 505.191 355.929C505.326 356.064 505.51 356.14 505.7 356.14H523.08C523.245 356.14 523.403 356.074 523.519 355.956C523.635 355.838 523.7 355.677 523.7 355.51V322.38C523.7 322.229 523.761 322.084 523.867 321.977C523.974 321.87 524.119 321.81 524.27 321.81L536.92 321.8C537.301 321.8 537.67 321.935 537.96 322.18C538.48 322.574 539.05 323.38 539.67 324.6C544.677 334.46 549.337 343.964 553.65 353.11C554.59 355.08 555.45 355.92 557.55 356.02C563.164 356.274 569.774 356.337 577.38 356.21C577.42 356.21 577.459 356.199 577.493 356.18C577.528 356.16 577.557 356.131 577.577 356.097C577.597 356.063 577.608 356.024 577.608 355.984C577.609 355.944 577.599 355.905 577.58 355.87Z" stroke="#87847A" stroke-width="2"/>
<path d="M488.538 425.71C488.538 422.865 487.408 420.135 485.395 418.123C483.383 416.111 480.654 414.98 477.808 414.98H249.808C246.962 414.98 244.233 416.111 242.221 418.123C240.209 420.135 239.078 422.865 239.078 425.71V425.95C239.078 428.796 240.209 431.525 242.221 433.538C244.233 435.55 246.962 436.68 249.808 436.68H477.808C480.654 436.68 483.383 435.55 485.395 433.538C487.408 431.525 488.538 428.796 488.538 425.95V425.71Z" stroke="#D8D1BE" stroke-width="2"/>
<path d="M433.859 495.7C433.859 492.83 432.719 490.078 430.69 488.049C428.661 486.02 425.909 484.88 423.039 484.88H249.199C246.329 484.88 243.577 486.02 241.548 488.049C239.519 490.078 238.379 492.83 238.379 495.7V496.1C238.379 498.97 239.519 501.722 241.548 503.751C243.577 505.78 246.329 506.92 249.199 506.92H423.039C425.909 506.92 428.661 505.78 430.69 503.751C432.719 501.722 433.859 498.97 433.859 496.1V495.7Z" stroke="#D8D1BE" stroke-width="2"/>
<path d="M385.328 565.35C385.328 562.669 384.263 560.097 382.367 558.201C380.471 556.305 377.899 555.24 375.218 555.24H248.938C246.257 555.24 243.685 556.305 241.789 558.201C239.893 560.097 238.828 562.669 238.828 565.35V566.19C238.828 568.872 239.893 571.443 241.789 573.339C243.685 575.235 246.257 576.3 248.938 576.3H375.218C377.899 576.3 380.471 575.235 382.367 573.339C384.263 571.443 385.328 568.872 385.328 566.19V565.35Z" stroke="#D8D1BE" stroke-width="2"/>
<path d="M350.188 692.5C350.188 689.721 349.083 687.055 347.118 685.09C345.153 683.125 342.487 682.021 339.707 682.021H248.167C245.388 682.021 242.722 683.125 240.757 685.09C238.792 687.055 237.688 689.721 237.688 692.5V693.281C237.688 696.06 238.792 698.726 240.757 700.691C242.722 702.656 245.388 703.76 248.167 703.76H339.707C342.487 703.76 345.153 702.656 347.118 700.691C349.083 698.726 350.188 696.06 350.188 693.281V692.5Z" stroke="#D8D1BE" stroke-width="2"/>
<path d="M353.409 278.32C353.849 282.306 354.065 286.45 354.059 290.75C354.012 308.476 353.999 324.74 354.019 339.54C354.018 339.665 354.044 339.788 354.094 339.903C354.144 340.017 354.218 340.119 354.31 340.203C354.403 340.287 354.512 340.351 354.63 340.39C354.749 340.429 354.874 340.442 354.999 340.43C362.552 339.643 368.595 338.88 373.129 338.14C380.909 336.866 386.085 332.56 388.659 325.22C391.499 317.1 392.285 308.726 391.019 300.1C389.199 287.8 383.539 280.18 371.259 278.46C365.819 277.7 359.979 277.52 353.739 277.92C353.69 277.924 353.643 277.937 353.6 277.959C353.557 277.982 353.519 278.012 353.489 278.05C353.458 278.087 353.435 278.13 353.421 278.177C353.407 278.223 353.403 278.272 353.409 278.32Z" stroke="#87847A" stroke-width="2"/>
<path d="M443.578 278.89L444.128 305.26C444.131 305.381 444.157 305.5 444.206 305.611C444.255 305.721 444.325 305.821 444.412 305.905C444.499 305.989 444.602 306.054 444.715 306.098C444.827 306.142 444.948 306.163 445.068 306.16L459.688 305.85C463.504 305.768 467.133 304.286 469.779 301.728C472.424 299.171 473.87 295.747 473.798 292.21L473.768 290.69C473.732 288.937 473.324 287.208 472.567 285.603C471.809 283.998 470.718 282.549 469.354 281.337C467.991 280.125 466.383 279.174 464.621 278.54C462.86 277.906 460.98 277.6 459.088 277.64L444.478 277.95C444.358 277.953 444.238 277.979 444.128 278.028C444.017 278.076 443.917 278.146 443.834 278.234C443.75 278.321 443.684 278.424 443.641 278.537C443.597 278.649 443.576 278.769 443.578 278.89Z" stroke="#87847A" stroke-width="2"/>
<path d="M523.449 278.431L523.769 304.771C523.771 304.891 523.796 305.011 523.843 305.122C523.891 305.233 523.959 305.334 524.046 305.418C524.132 305.503 524.234 305.569 524.346 305.614C524.459 305.659 524.578 305.682 524.699 305.681L539.569 305.501C541.603 305.476 543.613 305.097 545.484 304.387C547.354 303.677 549.05 302.649 550.472 301.362C551.895 300.075 553.017 298.554 553.775 296.886C554.533 295.218 554.911 293.436 554.889 291.641L554.879 290.801C554.835 287.176 553.162 283.72 550.227 281.192C547.292 278.664 543.336 277.272 539.229 277.321L524.359 277.501C524.238 277.502 524.119 277.527 524.008 277.574C523.897 277.622 523.796 277.691 523.712 277.777C523.627 277.863 523.56 277.966 523.515 278.078C523.47 278.19 523.448 278.31 523.449 278.431Z" stroke="#87847A" stroke-width="2"/>
<path d="M691.929 485.12C692.543 485.24 693.106 485.467 693.619 485.8C693.758 485.893 693.921 485.942 694.088 485.941C694.255 485.94 694.417 485.888 694.554 485.793C694.691 485.698 694.797 485.564 694.856 485.408C694.916 485.253 694.928 485.083 694.889 484.92L691.499 470.51C691.389 470.043 691.412 469.553 691.565 469.099C691.719 468.644 691.998 468.243 692.369 467.94L705.829 456.91C705.907 456.849 705.964 456.764 705.991 456.669C706.018 456.573 706.014 456.471 705.98 456.377C705.946 456.283 705.884 456.201 705.801 456.142C705.719 456.084 705.62 456.052 705.519 456.05H687.739C687.156 456.05 686.589 455.86 686.124 455.51C685.658 455.16 685.32 454.669 685.159 454.11C684.779 452.804 683.703 449.044 681.929 442.83C681.469 441.217 680.923 440.214 680.289 439.82C678.296 438.58 676.909 438.947 676.129 440.92C675.476 442.58 674.143 446.824 672.129 453.65C671.649 455.27 670.456 456.147 668.549 456.28C664.929 456.534 660.553 456.817 655.419 457.13C655.341 457.135 655.267 457.164 655.206 457.213C655.146 457.262 655.103 457.33 655.083 457.405C655.063 457.48 655.067 457.56 655.095 457.633C655.123 457.706 655.174 457.768 655.239 457.81C657.606 459.35 659.253 461.124 660.179 463.13C661.589 466.17 663.759 467.6 666.119 469.43C666.394 469.644 666.597 469.937 666.699 470.27C666.801 470.603 666.797 470.959 666.689 471.29L662.549 483.76C662.523 483.839 662.522 483.924 662.546 484.003C662.571 484.082 662.621 484.151 662.688 484.2C662.755 484.249 662.836 484.276 662.919 484.276C663.002 484.276 663.082 484.249 663.149 484.2L666.919 481.54C667.02 481.469 667.141 481.435 667.264 481.442C667.387 481.45 667.504 481.499 667.595 481.582C667.686 481.665 667.746 481.776 667.765 481.898C667.784 482.019 667.761 482.144 667.699 482.25L665.329 486.35C665.276 486.449 665.257 486.561 665.275 486.672C665.292 486.782 665.345 486.883 665.426 486.96C665.506 487.038 665.61 487.086 665.721 487.099C665.831 487.111 665.943 487.087 666.039 487.03C670.766 484.077 674.459 480.92 677.119 477.56C677.378 477.236 677.753 477.024 678.163 476.97C678.574 476.915 678.988 477.023 679.319 477.27L690.749 485.75C690.821 485.809 690.908 485.844 690.999 485.85C691.213 485.864 691.326 485.797 691.339 485.65C691.347 485.57 691.369 485.492 691.404 485.421C691.438 485.349 691.485 485.287 691.54 485.237C691.596 485.187 691.659 485.151 691.726 485.131C691.793 485.111 691.862 485.107 691.929 485.12Z" stroke="#897422" stroke-width="2"/>
<path d="M572.589 477.03C572.776 477.343 573.129 477.696 573.649 478.09C576.516 480.283 580.249 483.226 584.849 486.92C586.156 487.973 586.922 489.266 587.149 490.8C587.162 490.898 587.152 490.998 587.119 491.09L582.629 504.64C582.609 504.705 582.61 504.775 582.631 504.84C582.653 504.904 582.694 504.961 582.748 505.001C582.803 505.042 582.869 505.065 582.937 505.066C583.006 505.068 583.073 505.048 583.129 505.01L586.459 502.66C586.597 502.56 586.76 502.502 586.93 502.492C587.099 502.482 587.269 502.521 587.417 502.604C587.565 502.687 587.687 502.811 587.767 502.961C587.847 503.111 587.882 503.28 587.869 503.45L587.729 505.49C587.726 505.535 587.736 505.58 587.759 505.62C587.781 505.659 587.815 505.691 587.856 505.712C587.896 505.732 587.942 505.74 587.987 505.734C588.032 505.728 588.075 505.71 588.109 505.68L597.999 497.58C598.435 497.223 598.982 497.032 599.543 497.042C600.104 497.051 600.641 497.259 601.059 497.63L613.669 508.75C613.767 508.838 613.888 508.898 614.018 508.923C614.148 508.948 614.282 508.938 614.406 508.892C614.53 508.847 614.64 508.769 614.723 508.667C614.806 508.564 614.86 508.441 614.879 508.31C615.039 507.236 615.029 506.38 614.849 505.74C612.896 498.7 611.346 493.82 610.199 491.1C609.959 490.526 609.689 490.126 609.389 489.9C609.293 489.829 609.214 489.735 609.161 489.628C609.107 489.521 609.08 489.402 609.081 489.282C609.082 489.162 609.111 489.044 609.166 488.938C609.222 488.831 609.301 488.74 609.399 488.67L625.159 477.52C625.295 477.421 625.396 477.281 625.446 477.12C625.496 476.959 625.492 476.787 625.436 476.628C625.38 476.469 625.274 476.333 625.134 476.24C624.994 476.146 624.827 476.101 624.659 476.11C620.639 476.376 615.669 476.476 609.749 476.41C606.999 476.38 605.559 476.19 604.599 473.27C603.719 470.603 602.172 465.723 599.959 458.63C599.916 458.496 599.841 458.376 599.74 458.279C599.639 458.182 599.515 458.112 599.38 458.075C599.244 458.039 599.102 458.036 598.966 458.068C598.83 458.101 598.703 458.166 598.599 458.26C598.372 458.46 598.129 458.91 597.869 459.61C596.502 463.283 594.972 467.916 593.279 473.51C592.686 475.456 591.386 476.413 589.379 476.38C580.006 476.22 574.536 476.19 572.969 476.29C572.886 476.297 572.806 476.325 572.737 476.371C572.668 476.417 572.612 476.48 572.574 476.554C572.536 476.628 572.517 476.711 572.52 476.794C572.522 476.877 572.546 476.958 572.589 477.03Z" stroke="#897422" stroke-width="2"/>
<path d="M775.498 508.24C775.448 504.93 773.668 500.63 771.388 493.29C770.681 491.003 771.258 489.2 773.118 487.88C778.724 483.907 783.214 480.583 786.588 477.91C786.711 477.813 786.801 477.68 786.845 477.53C786.889 477.38 786.884 477.22 786.832 477.072C786.781 476.924 786.684 476.796 786.556 476.706C786.427 476.616 786.274 476.569 786.118 476.57H766.988C766.499 476.571 766.022 476.415 765.628 476.125C765.234 475.835 764.943 475.427 764.798 474.96L759.818 458.75C759.765 458.577 759.659 458.426 759.515 458.318C759.37 458.209 759.195 458.15 759.015 458.148C758.835 458.145 758.658 458.201 758.511 458.305C758.364 458.41 758.254 458.559 758.198 458.73L752.648 475.48C752.549 475.777 752.359 476.035 752.104 476.218C751.849 476.401 751.542 476.5 751.228 476.5H732.408C732.254 476.502 732.106 476.552 731.983 476.644C731.86 476.735 731.768 476.863 731.722 477.009C731.675 477.155 731.676 477.312 731.724 477.457C731.771 477.603 731.864 477.73 731.988 477.82L745.628 487.55C746.221 487.972 746.672 488.566 746.92 489.252C747.169 489.938 747.203 490.683 747.018 491.39L742.508 508.66C742.489 508.727 742.486 508.796 742.499 508.864C742.512 508.932 742.541 508.996 742.582 509.051C742.624 509.106 742.677 509.151 742.739 509.182C742.801 509.213 742.869 509.229 742.938 509.23C743.751 509.25 744.704 508.847 745.798 508.02C748.844 505.72 752.311 502.693 756.198 498.94C757.958 497.247 759.854 497.21 761.888 498.83C764.368 500.803 767.848 503.583 772.328 507.17C773.294 507.943 774.181 508.433 774.988 508.64C775.048 508.655 775.112 508.656 775.173 508.643C775.234 508.63 775.291 508.604 775.341 508.565C775.39 508.526 775.43 508.477 775.457 508.421C775.484 508.364 775.498 508.303 775.498 508.24Z" stroke="#897422" stroke-width="2"/>
<path d="M560.34 563.27C560.353 562.957 560.216 562.39 559.929 561.57C557.796 555.35 556.356 550.71 555.609 547.65C555.289 546.344 555.706 545.243 556.859 544.35C559.519 542.277 562.646 539.73 566.239 536.71C566.395 536.58 566.518 536.416 566.599 536.23C566.681 536.044 566.719 535.843 566.709 535.64L566.619 533.89C566.598 533.48 566.427 533.092 566.138 532.799C565.848 532.506 565.461 532.329 565.049 532.3C562.483 532.127 558.366 532.05 552.699 532.07C550.966 532.077 549.859 531.264 549.379 529.63C548.539 526.804 547.106 522.41 545.079 516.45C544.893 515.897 544.723 515.55 544.569 515.41C544.43 515.284 544.261 515.192 544.079 515.144C543.896 515.096 543.705 515.093 543.521 515.134C543.337 515.175 543.165 515.26 543.02 515.381C542.876 515.502 542.762 515.656 542.689 515.83C541.376 519.004 539.816 523.304 538.009 528.73C537.236 531.044 535.683 532.177 533.349 532.13C526.316 531.997 521.296 532.027 518.289 532.22C517.756 532.253 517.336 532.387 517.03 532.62C516.937 532.69 516.862 532.78 516.811 532.884C516.76 532.988 516.733 533.102 516.734 533.218C516.735 533.333 516.764 533.447 516.816 533.55C516.869 533.653 516.946 533.742 517.039 533.81L531.309 543.99C531.548 544.158 531.715 544.407 531.78 544.69C531.98 545.657 531.906 546.69 531.559 547.79C530.453 551.244 529.066 555.357 527.4 560.13C527.046 561.13 526.976 562.077 527.189 562.97C527.221 563.106 527.286 563.232 527.378 563.337C527.469 563.442 527.586 563.523 527.716 563.572C527.847 563.621 527.987 563.638 528.126 563.62C528.264 563.602 528.396 563.551 528.509 563.47C530.509 562.037 534.003 559.477 538.989 555.79C540.929 554.36 542.919 552.49 545.209 553.38C545.663 553.56 547.276 554.737 550.049 556.91C550.696 557.41 553.696 559.73 559.049 563.87C559.166 563.96 559.304 564.017 559.45 564.033C559.596 564.05 559.744 564.026 559.877 563.964C560.011 563.902 560.124 563.804 560.206 563.682C560.287 563.559 560.334 563.417 560.34 563.27Z" stroke="#897422" stroke-width="2"/>
<path d="M831.607 563.121C831.834 561.941 831.727 560.711 831.287 559.431C829.9 555.411 828.637 551.764 827.497 548.491C826.81 546.504 827.244 544.944 828.797 543.811C834.51 539.657 838.78 536.604 841.607 534.651C841.751 534.549 841.864 534.409 841.934 534.247C842.003 534.085 842.027 533.907 842.002 533.733C841.977 533.558 841.905 533.394 841.793 533.257C841.681 533.121 841.533 533.019 841.367 532.961C840.027 532.514 838.484 532.274 836.737 532.241C832.437 532.161 828.044 532.084 823.557 532.011C823.125 532.001 822.708 531.857 822.363 531.599C822.019 531.341 821.765 530.981 821.637 530.571L816.957 515.331C816.918 515.201 816.842 515.085 816.739 514.998C816.635 514.91 816.508 514.854 816.374 514.838C816.24 514.821 816.103 514.843 815.981 514.902C815.859 514.961 815.757 515.055 815.687 515.171C812.957 519.611 811.427 525.401 809.777 530.281C809.633 530.708 809.364 531.081 809.005 531.352C808.647 531.623 808.215 531.78 807.767 531.801L790.167 532.701C790.112 532.703 790.06 532.722 790.017 532.756C789.974 532.789 789.942 532.835 789.926 532.888C789.91 532.941 789.91 532.999 789.926 533.052C789.942 533.106 789.974 533.155 790.017 533.191C793.19 535.757 797.444 539.334 802.777 543.921C803.61 544.641 803.797 545.781 803.337 547.341C801.477 553.741 799.704 559.201 798.017 563.721C797.983 563.813 797.973 563.914 797.99 564.011C798.007 564.108 798.05 564.199 798.113 564.274C798.177 564.349 798.259 564.405 798.351 564.436C798.443 564.467 798.542 564.472 798.637 564.451C799.104 564.357 799.47 564.207 799.737 564.001C803.817 560.834 807.56 557.994 810.967 555.481C814.137 553.151 816.107 552.301 819.367 554.931C823.947 558.631 827.81 561.454 830.957 563.401C831.017 563.438 831.085 563.461 831.156 563.467C831.226 563.472 831.297 563.461 831.361 563.433C831.425 563.405 831.481 563.362 831.524 563.308C831.567 563.253 831.596 563.189 831.607 563.121Z" stroke="#897422" stroke-width="2"/>
<path d="M534.63 627.191C535.357 626.951 535.764 626.354 535.85 625.401C535.858 625.333 535.85 625.264 535.829 625.199C535.807 625.134 535.772 625.075 535.726 625.025C535.679 624.974 535.623 624.935 535.56 624.908C535.497 624.882 535.429 624.869 535.36 624.871C534.627 624.897 534.074 625.347 533.7 626.221C533.675 626.279 533.633 626.328 533.579 626.361C533.526 626.394 533.463 626.41 533.4 626.407C533.337 626.404 533.276 626.381 533.226 626.343C533.176 626.304 533.139 626.251 533.12 626.191C532.78 625.184 532.95 624.464 533.63 624.031C536.104 622.471 537.717 621.431 538.47 620.911C538.55 620.856 538.618 620.786 538.671 620.705C538.723 620.623 538.758 620.532 538.775 620.436C538.792 620.34 538.789 620.242 538.768 620.147C538.747 620.051 538.707 619.961 538.65 619.881C538.284 619.347 538.43 618.907 539.09 618.561C539.149 618.528 539.215 618.514 539.28 618.521L541.03 618.641C541.375 618.667 541.718 618.583 542.01 618.401L546.38 615.801C546.648 615.638 546.857 615.394 546.977 615.104C547.098 614.815 547.123 614.495 547.05 614.19C546.976 613.885 546.808 613.612 546.569 613.409C546.33 613.206 546.033 613.084 545.72 613.061L530.48 612.011C530.152 611.987 529.838 611.869 529.574 611.673C529.31 611.476 529.108 611.208 528.99 610.901C526.877 605.267 525.267 600.591 524.16 596.871C523.98 596.251 523.694 595.777 523.3 595.451C523.192 595.36 523.063 595.298 522.925 595.268C522.786 595.238 522.643 595.242 522.507 595.279C522.37 595.316 522.245 595.386 522.141 595.482C522.037 595.578 521.958 595.698 521.91 595.831C518.75 604.704 517.17 609.144 517.17 609.151C516.53 611.264 515.057 612.277 512.75 612.191C507.164 611.977 502.15 612.031 497.71 612.351C497.576 612.362 497.448 612.413 497.342 612.497C497.237 612.581 497.158 612.694 497.118 612.823C497.077 612.952 497.075 613.09 497.113 613.219C497.151 613.349 497.227 613.464 497.33 613.551C500.617 616.204 504.75 619.321 509.73 622.901C511.337 624.054 511.774 625.571 511.04 627.451C509.174 632.251 507.527 637.261 506.1 642.481C506.077 642.561 506.077 642.646 506.098 642.726C506.119 642.807 506.162 642.88 506.222 642.939C506.282 642.998 506.357 643.041 506.44 643.062C506.522 643.083 506.608 643.083 506.69 643.061C510.64 641.941 515.77 637.101 518.28 635.291C521.19 633.211 522.88 631.291 525.84 633.961C529.474 637.221 533.474 640.297 537.84 643.191C537.944 643.262 538.067 643.298 538.192 643.296C538.317 643.293 538.439 643.251 538.539 643.176C538.639 643.101 538.714 642.997 538.752 642.878C538.79 642.758 538.789 642.63 538.75 642.511L534.26 627.901C534.217 627.759 534.231 627.606 534.3 627.473C534.369 627.341 534.488 627.239 534.63 627.191Z" stroke="#897422" stroke-width="2"/>
<path d="M850.457 624.76C849.737 625.02 849.08 625.51 848.487 626.23C848.443 626.283 848.383 626.321 848.317 626.339C848.25 626.357 848.18 626.355 848.115 626.332C848.05 626.309 847.993 626.267 847.952 626.211C847.912 626.156 847.889 626.089 847.887 626.02V625.21C847.887 625.041 847.928 624.875 848.007 624.727C848.085 624.578 848.199 624.452 848.337 624.36C855.65 619.373 859.567 616.697 860.087 616.33C862.057 614.96 861.717 612.11 859.217 612.12C854.55 612.147 850.25 612.13 846.317 612.07C844.884 612.05 843.947 611.437 843.507 610.23C842.317 607 840.847 601.05 838.447 596.09C838.359 595.909 838.222 595.755 838.051 595.647C837.881 595.539 837.684 595.481 837.483 595.479C837.282 595.476 837.085 595.531 836.914 595.635C836.743 595.74 836.606 595.89 836.517 596.07C836.044 597.023 834.744 600.59 832.617 606.77C831.627 609.63 830.987 612.23 827.747 612.19C821.987 612.11 816.577 612.36 811.517 612.94C811.393 612.957 811.277 613.011 811.184 613.094C811.09 613.177 811.024 613.286 810.992 613.408C810.961 613.529 810.967 613.657 811.009 613.775C811.051 613.893 811.127 613.995 811.227 614.07L824.747 623.71C825.153 624 825.455 624.412 825.609 624.887C825.764 625.362 825.763 625.875 825.607 626.35L821.807 637.81C821.7 638.132 821.679 638.477 821.746 638.81C821.813 639.143 821.965 639.453 822.187 639.71C823.607 641.357 825.244 641.41 827.097 639.87C829.664 637.743 831.944 635.937 833.937 634.45C836.084 632.85 837.937 632.707 839.497 634.02C843.917 637.753 848.364 641.113 852.837 644.1C852.949 644.173 853.08 644.212 853.214 644.211C853.348 644.21 853.479 644.17 853.59 644.095C853.701 644.021 853.787 643.915 853.838 643.791C853.889 643.667 853.903 643.531 853.877 643.4C852.777 638.087 851.25 633.063 849.297 628.33C849.236 628.178 849.223 628.011 849.26 627.851C849.298 627.692 849.384 627.548 849.507 627.44C850.287 626.747 850.764 625.993 850.937 625.18C850.95 625.115 850.945 625.048 850.924 624.986C850.903 624.924 850.866 624.868 850.817 624.825C850.768 624.783 850.709 624.754 850.645 624.742C850.582 624.731 850.517 624.737 850.457 624.76Z" stroke="#897422" stroke-width="2"/>
<path d="M543.95 671.1C542.97 673.7 541.227 678.987 538.72 686.96C538.02 689.2 536.543 690.29 534.29 690.23C530.657 690.137 525.79 690.18 519.69 690.36C518.817 690.387 518.107 690.547 517.56 690.84C517.469 690.89 517.391 690.961 517.335 691.048C517.278 691.135 517.244 691.235 517.236 691.338C517.228 691.442 517.246 691.546 517.289 691.64C517.332 691.735 517.397 691.818 517.48 691.88C521 694.507 525.447 697.694 530.82 701.44C532.42 702.554 532.897 703.987 532.25 705.74C530.017 711.787 528.61 716.21 528.03 719.01C527.883 719.717 527.827 720.147 527.86 720.3C527.897 720.459 527.972 720.606 528.078 720.73C528.185 720.853 528.32 720.948 528.471 721.007C528.623 721.066 528.787 721.088 528.949 721.069C529.111 721.05 529.266 720.992 529.4 720.9C534.987 717.067 538.62 714.537 540.3 713.31C542.2 711.92 543.95 710.54 546.1 712.19C550.707 715.73 554.173 718.33 556.5 719.99C557.467 720.684 558.493 721.234 559.58 721.64C559.643 721.664 559.71 721.673 559.777 721.665C559.844 721.658 559.907 721.635 559.963 721.597C560.019 721.56 560.065 721.51 560.098 721.452C560.13 721.393 560.148 721.327 560.15 721.26C560.163 720.607 560.063 719.81 559.85 718.87C559.243 716.17 558.077 712.144 556.35 706.79C555.643 704.597 556.217 702.794 558.07 701.38C564.89 696.2 569.08 692.98 570.64 691.72C570.775 691.613 570.874 691.466 570.921 691.3C570.969 691.135 570.964 690.958 570.907 690.795C570.85 690.632 570.743 690.491 570.602 690.392C570.461 690.292 570.293 690.239 570.12 690.24H552.51C552.018 690.24 551.539 690.082 551.143 689.788C550.747 689.495 550.455 689.082 550.31 688.61L544.93 671.13C544.897 671.028 544.834 670.938 544.748 670.873C544.662 670.809 544.558 670.772 544.451 670.769C544.343 670.766 544.237 670.796 544.148 670.855C544.058 670.914 543.989 671 543.95 671.1Z" stroke="#897422" stroke-width="2"/>
<path d="M803.948 717.76L803.218 719.96C803.192 720.032 803.191 720.11 803.213 720.183C803.236 720.255 803.281 720.319 803.344 720.364C803.406 720.41 803.481 720.435 803.559 720.436C803.637 720.437 803.714 720.414 803.778 720.37C807.425 717.75 810.658 715.213 813.478 712.76C814.398 711.96 815.288 711.533 816.148 711.48C816.522 711.461 816.889 711.582 817.178 711.82C821.988 715.77 825.838 719.34 830.688 721.76C830.763 721.796 830.844 721.814 830.927 721.813C831.01 721.811 831.09 721.789 831.162 721.75C831.234 721.711 831.295 721.655 831.34 721.587C831.384 721.519 831.411 721.441 831.418 721.36C831.668 718.32 829.428 712.29 827.138 704.51C827.001 704.043 827.012 703.545 827.172 703.085C827.331 702.624 827.631 702.224 828.028 701.94L840.018 693.46C840.142 693.372 840.236 693.248 840.288 693.105C840.339 692.962 840.347 692.807 840.308 692.66C840.095 691.807 839.328 691.33 838.008 691.23C836.402 691.103 832.312 691.017 825.738 690.97C823.285 690.95 821.718 689.787 821.038 687.48C819.078 680.84 817.412 675.483 816.038 671.41C816.008 671.319 815.951 671.238 815.875 671.179C815.799 671.12 815.707 671.084 815.611 671.077C815.515 671.069 815.419 671.09 815.335 671.137C815.251 671.184 815.182 671.255 815.138 671.34C814.478 672.6 814.095 673.41 813.988 673.77C811.888 680.83 810.468 687.5 808.498 689.36C807.975 689.844 807.299 690.128 806.588 690.16L788.238 691.1C788.143 691.106 788.052 691.141 787.977 691.2C787.902 691.259 787.846 691.339 787.818 691.43C787.79 691.521 787.79 691.619 787.819 691.71C787.847 691.801 787.903 691.881 787.978 691.94L791.268 694.48C791.466 694.638 791.626 694.84 791.738 695.07C793.098 697.85 796.078 699.32 798.598 700.74C798.771 700.833 798.926 700.947 799.058 701.08L803.378 705.27C803.499 705.391 803.585 705.542 803.625 705.708C803.666 705.874 803.66 706.047 803.608 706.21L799.358 719.01C799.334 719.087 799.334 719.17 799.359 719.247C799.384 719.324 799.432 719.391 799.497 719.439C799.562 719.488 799.64 719.514 799.721 719.516C799.802 719.518 799.881 719.495 799.948 719.45L803.168 717.18C803.256 717.117 803.362 717.083 803.47 717.084C803.578 717.085 803.683 717.12 803.77 717.185C803.857 717.249 803.921 717.34 803.953 717.443C803.985 717.547 803.983 717.658 803.948 717.76Z" stroke="#897422" stroke-width="2"/>
<path d="M783.57 748.13C781.26 747.86 778.91 747.33 776.12 747.3C770.96 747.247 768.004 747.21 767.25 747.19C765.184 747.15 763.854 746.157 763.26 744.21C761.82 739.464 760.314 733.99 758.74 727.79C758.73 727.745 758.708 727.704 758.677 727.669C758.646 727.634 758.607 727.607 758.563 727.591C758.519 727.574 758.472 727.568 758.424 727.573C758.377 727.578 758.331 727.594 758.29 727.62C756.93 728.494 756.034 729.744 755.6 731.37C753.7 738.53 752.244 743.237 751.23 745.49C750.737 746.57 749.787 747.13 748.38 747.17C747.16 747.21 742.47 747.34 734.31 747.56C733.597 747.58 732.674 747.717 731.54 747.97C731.428 747.994 731.324 748.049 731.243 748.131C731.162 748.212 731.106 748.315 731.083 748.428C731.059 748.541 731.069 748.658 731.112 748.765C731.154 748.872 731.226 748.964 731.32 749.03L746.35 759.75C746.554 759.896 746.705 760.102 746.782 760.34C746.86 760.577 746.859 760.833 746.781 761.07L741.091 778.22C741.068 778.287 741.065 778.359 741.082 778.427C741.098 778.496 741.133 778.558 741.183 778.608C741.232 778.658 741.295 778.693 741.364 778.709C741.432 778.725 741.504 778.722 741.57 778.7C744.69 777.69 748.96 773.84 755.12 769.13C756.634 767.977 758.137 767.964 759.63 769.09C763.95 772.36 768.44 776.54 773.25 779.04C773.363 779.1 773.49 779.125 773.617 779.113C773.743 779.101 773.864 779.052 773.963 778.972C774.062 778.892 774.135 778.785 774.174 778.664C774.212 778.543 774.215 778.413 774.18 778.29C771.954 770.244 770.754 765.884 770.58 765.21C769.82 762.24 768.92 760.25 771.33 758.32C773.25 756.78 777.43 753.79 783.87 749.35C783.984 749.273 784.071 749.164 784.12 749.036C784.169 748.908 784.177 748.769 784.145 748.636C784.112 748.503 784.04 748.383 783.937 748.293C783.834 748.203 783.706 748.146 783.57 748.13Z" stroke="#897422" stroke-width="2"/>
<path d="M585.598 777.561C588.678 776.311 591.028 775.121 593.858 772.711C596.748 770.251 600.048 766.461 604.078 769.651C606.798 771.811 609.945 774.177 613.518 776.751C614.598 777.524 615.625 777.924 616.598 777.951C616.738 777.954 616.876 777.924 617.002 777.863C617.127 777.802 617.236 777.712 617.32 777.601C617.404 777.489 617.461 777.36 617.485 777.222C617.509 777.085 617.5 776.944 617.458 776.811L612.258 759.921C612.221 759.795 612.214 759.662 612.239 759.534C612.263 759.405 612.318 759.284 612.398 759.182C612.479 759.08 612.583 758.999 612.701 758.946C612.82 758.894 612.949 758.871 613.078 758.881L614.408 758.981C615.007 759.019 615.602 758.834 616.078 758.461C618.625 756.474 620.032 755.291 620.298 754.911C622.285 752.064 624.935 750.001 628.248 748.721C628.355 748.681 628.448 748.609 628.514 748.516C628.58 748.423 628.617 748.312 628.619 748.197C628.621 748.083 628.589 747.971 628.526 747.875C628.464 747.779 628.374 747.705 628.268 747.661C627.495 747.341 626.572 747.191 625.498 747.211C620.592 747.304 615.758 747.317 610.998 747.251C609.405 747.231 608.385 746.687 607.938 745.621C606.678 742.581 605.172 737.437 603.418 730.191C603.252 729.497 603.028 729.041 602.748 728.821C602.525 728.644 602.261 728.526 601.98 728.479C601.699 728.432 601.41 728.457 601.139 728.551C600.868 728.646 600.623 728.807 600.428 729.019C600.232 729.232 600.091 729.491 600.018 729.771C598.812 734.377 597.618 738.397 596.438 741.831C595.318 745.101 595.288 747.141 591.258 747.201C587.105 747.254 583.442 747.264 580.268 747.231C579.288 747.217 578.462 747.484 577.788 748.031C577.58 748.2 577.412 748.413 577.295 748.654C577.178 748.896 577.116 749.16 577.113 749.427C577.111 749.695 577.167 749.959 577.278 750.202C577.39 750.445 577.554 750.659 577.758 750.831C579.858 752.584 582.905 754.844 586.898 757.611C588.825 758.951 589.498 760.724 588.918 762.931C588.012 766.351 586.702 771.044 584.988 777.011C584.965 777.094 584.966 777.183 584.99 777.266C585.014 777.35 585.06 777.424 585.124 777.482C585.188 777.539 585.266 777.577 585.35 777.591C585.434 777.605 585.52 777.595 585.598 777.561Z" stroke="#897422" stroke-width="2"/>
<path d="M706.498 765.73C704.178 765.33 702.578 764.95 700.478 764.98C696.952 765.02 693.435 764.987 689.928 764.88C688.268 764.827 687.265 764.194 686.918 762.98C684.498 754.42 682.972 749.157 682.338 747.19C682.138 746.577 681.872 746.037 681.538 745.57C681.448 745.442 681.323 745.342 681.179 745.28C681.035 745.218 680.876 745.197 680.721 745.22C680.566 745.243 680.42 745.308 680.299 745.409C680.179 745.509 680.088 745.642 680.038 745.79L674.358 762.91C674.186 763.434 673.855 763.892 673.411 764.222C672.967 764.551 672.432 764.736 671.878 764.75C666.972 764.89 662.272 764.92 657.778 764.84C656.878 764.827 656.075 764.977 655.368 765.29C655.201 765.365 655.055 765.482 654.947 765.631C654.838 765.779 654.771 765.953 654.752 766.135C654.733 766.317 654.762 766.5 654.837 766.666C654.912 766.833 655.03 766.975 655.178 767.08L668.318 776.45C668.718 776.736 669.017 777.14 669.173 777.605C669.329 778.07 669.335 778.572 669.188 779.04C667.348 784.98 665.658 790.087 664.118 794.36C664.012 794.667 664.038 794.927 664.198 795.14C664.393 795.397 664.68 795.568 665.002 795.618C665.323 795.668 665.655 795.594 665.928 795.41C669.748 792.83 674.175 789.557 679.208 785.59C679.526 785.342 679.918 785.206 680.322 785.204C680.725 785.202 681.118 785.335 681.438 785.58C685.125 788.407 689.168 791.44 693.568 794.68C694.268 795.2 694.855 795.38 695.328 795.22C695.761 795.077 696.121 794.764 696.336 794.343C696.552 793.922 696.606 793.425 696.488 792.95C695.695 789.73 694.655 786.11 693.368 782.09C692.435 779.157 693.098 776.844 695.358 775.15C700.952 770.957 704.732 768.087 706.698 766.54C706.768 766.485 706.821 766.41 706.85 766.326C706.88 766.241 706.884 766.15 706.862 766.064C706.841 765.978 706.795 765.901 706.731 765.841C706.666 765.782 706.585 765.744 706.498 765.73Z" stroke="#897422" stroke-width="2"/>
<path d="M792.692 695.135C792.669 695.171 792.739 695.266 792.899 695.413C793.06 695.559 793.306 695.756 793.625 695.99C793.944 696.225 794.329 696.493 794.758 696.78C795.187 697.066 795.652 697.366 796.125 697.661C797.082 698.256 798.018 698.798 798.728 699.167C799.437 699.535 799.862 699.701 799.908 699.626C799.931 699.59 799.86 699.495 799.7 699.348C799.54 699.202 799.294 699.005 798.975 698.771C798.656 698.536 798.271 698.268 797.842 697.981C797.413 697.695 796.948 697.395 796.474 697.1C795.517 696.505 794.581 695.963 793.872 695.594C793.163 695.226 792.738 695.06 792.692 695.135Z" stroke="#9F8936" stroke-width="2"/>
<path d="M625.509 823.14C625.942 823.074 626.339 823.24 626.699 823.64C619.609 826.29 612.039 825.97 604.499 825.97C513.285 825.997 379.369 826.01 202.749 826.01C196.159 826.01 189.499 826.19 184.179 824.12C176.712 821.227 171.902 815.697 169.749 807.53C169.229 805.557 168.969 802.13 168.969 797.25C169.002 657.364 169.005 463.114 168.979 214.5C168.979 206.2 169.029 199.19 174.819 192.57C180.859 185.65 188.409 183.7 197.259 183.7C237.132 183.66 373.119 183.647 605.219 183.66C613.545 183.667 618.545 183.837 620.219 184.17C629.709 186.06 637.459 193.05 639.209 203.02C639.755 206.127 640.022 211.204 640.009 218.25C639.895 283.637 639.905 344.22 640.039 400C640.045 402.094 640.009 403.657 639.929 404.69C639.9 405.046 639.755 405.382 639.517 405.648C639.278 405.914 638.959 406.094 638.609 406.16C596.755 414.3 560.609 433.137 530.169 462.67C524.329 468.337 517.299 476.41 509.079 486.89C485.359 517.16 471.119 554.66 466.899 592.47C463.959 618.83 466.002 645.347 473.029 672.02C483.195 710.647 502.765 743.727 531.739 771.26C558.109 796.31 591.159 814.47 625.509 823.14ZM281.159 305.73V320.47C281.159 320.63 281.222 320.784 281.334 320.898C281.446 321.012 281.599 321.078 281.759 321.08L299.159 321.21C299.601 321.216 300.031 321.357 300.39 321.614C300.75 321.872 301.021 322.233 301.169 322.65C301.429 323.37 301.522 324.29 301.449 325.41C301.079 331.07 296.829 335.74 291.799 338.27C288.289 340.05 283.369 340.12 279.369 339.87C267.899 339.16 259.389 330.96 257.179 319.78C255.579 311.65 254.549 300.14 258.409 292.32C261.909 285.23 267.139 278.93 274.729 277.5C282.009 276.12 289.539 277.12 294.849 282.65C297.439 285.35 299.209 290.64 301.129 293.95C301.201 294.08 301.314 294.183 301.451 294.242C301.589 294.302 301.742 294.315 301.889 294.28L319.259 290.19C319.356 290.167 319.447 290.125 319.527 290.065C319.607 290.006 319.674 289.931 319.725 289.845C319.775 289.759 319.808 289.664 319.82 289.565C319.833 289.467 319.826 289.366 319.799 289.27C318.972 286.39 318.449 284.38 318.229 283.24C316.459 273.89 303.529 265.71 295.439 262.59C284.719 258.45 273.855 258.747 262.849 263.48C249.739 269.12 238.369 281.21 235.669 295.39C232.649 311.29 235.889 327.86 245.929 341.09C247.935 343.737 250.695 346.217 254.209 348.53C261.979 353.65 269.439 356.82 278.569 357.2C283.142 357.394 286.532 357.38 288.739 357.16C300.919 355.94 310.389 350.36 317.149 340.42C319.989 336.247 321.529 331.694 321.769 326.76C322.102 319.847 322.159 312.877 321.939 305.85C321.934 305.657 321.853 305.474 321.715 305.34C321.577 305.205 321.392 305.13 321.199 305.13H281.769C281.607 305.13 281.452 305.193 281.337 305.306C281.223 305.419 281.159 305.571 281.159 305.73ZM335.009 262.56L334.849 355.24C334.849 355.468 334.939 355.687 335.101 355.848C335.262 356.01 335.481 356.1 335.709 356.1L370.259 356.16C381.346 356.18 391.987 351.982 399.841 344.49C407.695 336.998 412.118 326.826 412.139 316.21L412.159 301.87C412.169 296.613 411.097 291.405 409.005 286.544C406.913 281.683 403.841 277.264 399.965 273.539C396.089 269.814 391.485 266.857 386.415 264.836C381.346 262.815 375.91 261.77 370.419 261.76L335.869 261.7C335.756 261.7 335.644 261.723 335.54 261.766C335.435 261.809 335.341 261.872 335.261 261.952C335.181 262.032 335.117 262.127 335.074 262.231C335.031 262.336 335.009 262.447 335.009 262.56ZM425.959 356.15H443.019C443.292 356.15 443.554 356.042 443.747 355.849C443.94 355.655 444.049 355.393 444.049 355.12V323.33C444.049 323.235 444.07 323.14 444.11 323.054C444.151 322.967 444.21 322.89 444.283 322.829C444.357 322.768 444.443 322.724 444.535 322.7C444.628 322.676 444.725 322.673 444.819 322.69C458.679 325.38 473.659 324.87 484.589 314.85C490.875 309.077 493.989 301.894 493.929 293.3C493.769 270.24 478.199 261.13 457.009 261.5C452.275 261.58 441.979 261.594 426.119 261.54C425.971 261.539 425.824 261.567 425.687 261.623C425.55 261.68 425.425 261.763 425.32 261.868C425.215 261.973 425.132 262.098 425.075 262.236C425.018 262.373 424.989 262.521 424.989 262.67V355.18C424.989 355.438 425.091 355.684 425.273 355.866C425.455 356.048 425.701 356.15 425.959 356.15ZM577.579 355.87C576.005 352.884 570.179 341.744 560.099 322.45C559.139 320.617 557.929 318.88 556.469 317.24C556.414 317.181 556.375 317.109 556.355 317.031C556.334 316.954 556.332 316.872 556.35 316.793C556.368 316.715 556.404 316.642 556.456 316.58C556.508 316.519 556.574 316.471 556.649 316.44C570.079 310.89 576.229 302.2 575.239 287.43C574.219 272.09 560.859 262.24 546.169 261.84C534.475 261.514 521.115 261.457 506.089 261.67C505.793 261.676 505.51 261.797 505.303 262.008C505.095 262.22 504.979 262.504 504.979 262.8V355.42C504.979 355.611 505.055 355.794 505.19 355.929C505.325 356.064 505.508 356.14 505.699 356.14H523.079C523.243 356.14 523.401 356.074 523.517 355.956C523.633 355.838 523.699 355.677 523.699 355.51V322.38C523.699 322.229 523.759 322.084 523.866 321.977C523.973 321.87 524.118 321.81 524.269 321.81L536.919 321.8C537.299 321.8 537.668 321.935 537.959 322.18C538.479 322.574 539.049 323.38 539.669 324.6C544.675 334.46 549.335 343.964 553.649 353.11C554.589 355.08 555.449 355.92 557.549 356.02C563.162 356.274 569.772 356.337 577.379 356.21C577.418 356.21 577.457 356.199 577.492 356.179C577.526 356.16 577.555 356.131 577.575 356.097C577.595 356.063 577.606 356.024 577.607 355.984C577.607 355.944 577.598 355.905 577.579 355.87ZM488.539 425.71C488.539 422.864 487.408 420.135 485.396 418.123C483.384 416.111 480.655 414.98 477.809 414.98H249.809C246.963 414.98 244.234 416.111 242.221 418.123C240.209 420.135 239.079 422.864 239.079 425.71V425.95C239.079 428.796 240.209 431.525 242.221 433.538C244.234 435.55 246.963 436.68 249.809 436.68H477.809C480.655 436.68 483.384 435.55 485.396 433.538C487.408 431.525 488.539 428.796 488.539 425.95V425.71ZM433.859 495.7C433.859 492.831 432.719 490.079 430.69 488.049C428.66 486.02 425.908 484.88 423.039 484.88H249.199C246.329 484.88 243.577 486.02 241.548 488.049C239.519 490.079 238.379 492.831 238.379 495.7V496.1C238.379 498.97 239.519 501.722 241.548 503.751C243.577 505.78 246.329 506.92 249.199 506.92H423.039C425.908 506.92 428.66 505.78 430.69 503.751C432.719 501.722 433.859 498.97 433.859 496.1V495.7ZM385.329 565.35C385.329 562.669 384.264 560.097 382.368 558.201C380.472 556.305 377.9 555.24 375.219 555.24H248.939C246.257 555.24 243.686 556.305 241.79 558.201C239.894 560.097 238.829 562.669 238.829 565.35V566.19C238.829 568.872 239.894 571.443 241.79 573.339C243.686 575.235 246.257 576.3 248.939 576.3H375.219C377.9 576.3 380.472 575.235 382.368 573.339C384.264 571.443 385.329 568.872 385.329 566.19V565.35ZM350.189 692.5C350.189 689.721 349.085 687.055 347.119 685.09C345.154 683.124 342.488 682.02 339.709 682.02H248.169C245.389 682.02 242.724 683.124 240.758 685.09C238.793 687.055 237.689 689.721 237.689 692.5V693.28C237.689 696.06 238.793 698.725 240.758 700.691C242.724 702.656 245.389 703.76 248.169 703.76H339.709C342.488 703.76 345.154 702.656 347.119 700.691C349.085 698.725 350.189 696.06 350.189 693.28V692.5Z" fill="#F1E7D1"/>
<path d="M523.449 278.43C523.448 278.309 523.47 278.189 523.515 278.077C523.56 277.965 523.627 277.862 523.712 277.776C523.796 277.69 523.897 277.621 524.008 277.573C524.119 277.526 524.238 277.501 524.359 277.5L539.229 277.32C543.336 277.271 547.292 278.663 550.227 281.191C553.162 283.719 554.835 287.175 554.879 290.8L554.889 291.64C554.911 293.435 554.533 295.217 553.775 296.885C553.017 298.553 551.895 300.074 550.472 301.361C549.05 302.648 547.354 303.676 545.484 304.386C543.613 305.096 541.603 305.475 539.569 305.5L524.699 305.68C524.578 305.681 524.459 305.658 524.346 305.613C524.234 305.568 524.132 305.502 524.046 305.417C523.959 305.333 523.891 305.232 523.843 305.121C523.796 305.01 523.771 304.89 523.769 304.77L523.449 278.43Z" fill="#F1E7D1"/>
<path d="M443.578 278.89C443.576 278.769 443.597 278.649 443.641 278.537C443.684 278.424 443.75 278.321 443.834 278.234C443.917 278.146 444.017 278.076 444.128 278.028C444.238 277.979 444.358 277.953 444.478 277.95L459.088 277.64C460.98 277.6 462.86 277.906 464.621 278.54C466.383 279.174 467.991 280.125 469.354 281.337C470.718 282.549 471.809 283.998 472.567 285.603C473.324 287.208 473.732 288.937 473.768 290.69L473.798 292.21C473.87 295.747 472.424 299.171 469.779 301.728C467.133 304.286 463.504 305.768 459.688 305.85L445.068 306.16C444.948 306.163 444.827 306.142 444.715 306.098C444.602 306.054 444.499 305.989 444.412 305.905C444.325 305.821 444.255 305.721 444.206 305.611C444.157 305.5 444.131 305.381 444.128 305.26L443.578 278.89Z" fill="#F1E7D1"/>
<path d="M353.409 278.32C353.403 278.272 353.407 278.223 353.421 278.177C353.435 278.13 353.458 278.087 353.489 278.05C353.519 278.012 353.557 277.982 353.6 277.959C353.643 277.937 353.69 277.924 353.739 277.92C359.979 277.52 365.819 277.7 371.259 278.46C383.539 280.18 389.199 287.8 391.019 300.1C392.285 308.726 391.499 317.1 388.659 325.22C386.085 332.56 380.909 336.866 373.129 338.14C368.595 338.88 362.552 339.643 354.999 340.43C354.874 340.442 354.749 340.429 354.63 340.39C354.512 340.351 354.403 340.287 354.31 340.203C354.218 340.119 354.144 340.017 354.094 339.903C354.044 339.788 354.018 339.665 354.019 339.54C353.999 324.74 354.012 308.476 354.059 290.75C354.065 286.45 353.849 282.306 353.409 278.32Z" fill="#F1E7D1"/>
<path d="M477.808 414.98H249.808C243.882 414.98 239.078 419.784 239.078 425.71V425.95C239.078 431.876 243.882 436.68 249.808 436.68H477.808C483.734 436.68 488.538 431.876 488.538 425.95V425.71C488.538 419.784 483.734 414.98 477.808 414.98Z" fill="#BFBAAB"/>
<path d="M774.992 508.64C774.185 508.433 773.298 507.943 772.332 507.17C767.852 503.583 764.372 500.803 761.892 498.83C759.858 497.21 757.962 497.247 756.202 498.94C752.315 502.693 748.848 505.72 745.802 508.02C744.708 508.847 743.755 509.25 742.942 509.23C742.873 509.229 742.805 509.213 742.743 509.182C742.681 509.151 742.628 509.106 742.586 509.051C742.545 508.996 742.516 508.932 742.503 508.864C742.49 508.796 742.493 508.727 742.512 508.66L747.022 491.39C747.206 490.683 747.172 489.938 746.924 489.252C746.676 488.566 746.225 487.972 745.632 487.55L731.992 477.82C731.868 477.73 731.775 477.603 731.728 477.457C731.68 477.312 731.679 477.155 731.726 477.009C731.772 476.863 731.863 476.735 731.987 476.644C732.11 476.552 732.258 476.502 732.412 476.5H751.232C751.546 476.5 751.853 476.401 752.108 476.218C752.363 476.035 752.553 475.777 752.652 475.48L758.202 458.73C758.258 458.559 758.368 458.41 758.515 458.305C758.662 458.201 758.839 458.145 759.019 458.148C759.199 458.15 759.374 458.209 759.519 458.318C759.663 458.426 759.769 458.577 759.822 458.75L764.802 474.96C764.947 475.427 765.238 475.835 765.632 476.125C766.026 476.415 766.502 476.571 766.992 476.57H786.122C786.278 476.569 786.431 476.616 786.56 476.706C786.688 476.796 786.784 476.924 786.836 477.072C786.888 477.22 786.892 477.38 786.849 477.53C786.805 477.68 786.715 477.813 786.592 477.91C783.218 480.583 778.728 483.907 773.122 487.88C771.262 489.2 770.685 491.003 771.392 493.29C773.672 500.63 775.452 504.93 775.502 508.24C775.502 508.303 775.488 508.364 775.461 508.421C775.434 508.477 775.394 508.526 775.345 508.565C775.295 508.604 775.238 508.63 775.177 508.643C775.116 508.656 775.052 508.655 774.992 508.64Z" fill="#F6C620"/>
<path d="M423.039 484.88H249.199C243.223 484.88 238.379 489.724 238.379 495.7V496.1C238.379 502.076 243.223 506.92 249.199 506.92H423.039C429.015 506.92 433.859 502.076 433.859 496.1V495.7C433.859 489.724 429.015 484.88 423.039 484.88Z" fill="#BFBAAB"/>
<path d="M560.34 563.27C560.334 563.417 560.287 563.559 560.206 563.682C560.124 563.804 560.011 563.902 559.877 563.964C559.744 564.026 559.596 564.05 559.45 564.033C559.304 564.017 559.166 563.96 559.049 563.87C553.696 559.73 550.696 557.41 550.049 556.91C547.276 554.737 545.663 553.56 545.209 553.38C542.919 552.49 540.929 554.36 538.989 555.79C534.003 559.477 530.509 562.037 528.509 563.47C528.396 563.551 528.264 563.602 528.126 563.62C527.987 563.638 527.847 563.621 527.716 563.572C527.586 563.523 527.469 563.442 527.378 563.337C527.286 563.232 527.221 563.106 527.189 562.97C526.976 562.077 527.046 561.13 527.4 560.13C529.066 555.357 530.453 551.244 531.559 547.79C531.906 546.69 531.98 545.657 531.78 544.69C531.715 544.407 531.548 544.158 531.309 543.99L517.039 533.81C516.946 533.742 516.869 533.653 516.816 533.55C516.764 533.447 516.735 533.333 516.734 533.218C516.733 533.102 516.76 532.988 516.811 532.884C516.862 532.78 516.937 532.69 517.03 532.62C517.336 532.387 517.756 532.253 518.289 532.22C521.296 532.027 526.316 531.997 533.349 532.13C535.683 532.177 537.236 531.044 538.009 528.73C539.816 523.304 541.376 519.004 542.689 515.83C542.762 515.656 542.876 515.502 543.02 515.381C543.165 515.26 543.337 515.175 543.521 515.134C543.705 515.093 543.896 515.096 544.079 515.144C544.261 515.192 544.43 515.284 544.569 515.41C544.723 515.55 544.893 515.897 545.079 516.45C547.106 522.41 548.539 526.804 549.379 529.63C549.859 531.264 550.966 532.077 552.699 532.07C558.366 532.05 562.483 532.127 565.049 532.3C565.461 532.329 565.848 532.506 566.138 532.799C566.427 533.092 566.598 533.48 566.619 533.89L566.709 535.64C566.719 535.843 566.681 536.044 566.599 536.23C566.518 536.416 566.395 536.58 566.239 536.71C562.646 539.73 559.519 542.277 556.859 544.35C555.706 545.243 555.289 546.344 555.609 547.65C556.356 550.71 557.796 555.35 559.929 561.57C560.216 562.39 560.353 562.957 560.34 563.27Z" fill="#F6C620"/>
<path d="M830.961 563.4C827.814 561.453 823.951 558.63 819.371 554.93C816.111 552.3 814.141 553.15 810.971 555.48C807.564 557.993 803.821 560.833 799.741 564C799.474 564.206 799.108 564.356 798.641 564.45C798.546 564.471 798.447 564.466 798.355 564.435C798.263 564.404 798.181 564.348 798.117 564.273C798.054 564.198 798.011 564.108 797.994 564.01C797.977 563.913 797.987 563.812 798.021 563.72C799.708 559.2 801.481 553.74 803.341 547.34C803.801 545.78 803.614 544.64 802.781 543.92C797.448 539.333 793.194 535.756 790.021 533.19C789.978 533.154 789.946 533.105 789.93 533.052C789.914 532.998 789.914 532.94 789.93 532.887C789.946 532.834 789.978 532.788 790.021 532.755C790.064 532.721 790.116 532.702 790.171 532.7L807.771 531.8C808.219 531.779 808.65 531.622 809.009 531.351C809.368 531.08 809.637 530.707 809.781 530.28C811.431 525.4 812.961 519.61 815.691 515.17C815.761 515.054 815.863 514.96 815.985 514.901C816.107 514.842 816.243 514.82 816.378 514.837C816.512 514.853 816.639 514.909 816.743 514.997C816.846 515.084 816.922 515.2 816.961 515.33L821.641 530.57C821.769 530.98 822.023 531.34 822.367 531.598C822.712 531.856 823.129 532 823.561 532.01C828.047 532.083 832.441 532.16 836.741 532.24C838.487 532.273 840.031 532.513 841.371 532.96C841.537 533.018 841.685 533.12 841.797 533.256C841.909 533.393 841.981 533.557 842.006 533.732C842.031 533.906 842.007 534.084 841.937 534.246C841.868 534.408 841.755 534.548 841.611 534.65C838.784 536.603 834.514 539.656 828.801 543.81C827.247 544.943 826.814 546.503 827.501 548.49C828.641 551.763 829.904 555.41 831.291 559.43C831.731 560.71 831.837 561.94 831.611 563.12C831.6 563.188 831.571 563.252 831.528 563.307C831.485 563.361 831.429 563.404 831.365 563.432C831.301 563.46 831.23 563.471 831.16 563.466C831.089 563.46 831.021 563.437 830.961 563.4Z" fill="#F6C620"/>
<path d="M604.92 549.55C604.967 549.374 605.067 549.216 605.207 549.101C605.348 548.986 605.52 548.919 605.7 548.91C623.7 547.98 641.86 543.89 657.46 535.36C663.98 531.793 670.274 528.023 676.34 524.05C678.38 522.71 680.407 522.71 682.42 524.05C684.14 525.197 690.017 528.893 700.05 535.14C709.004 540.72 718.714 544.78 729.18 547.32C737.73 549.4 746.06 549.34 754.82 549.11C755.191 549.102 755.553 549.217 755.848 549.439C756.144 549.66 756.356 549.974 756.45 550.33C761.124 568.123 762.684 586.223 761.13 604.63C759.44 624.66 753.71 645.07 743.41 662.09C731.357 681.997 714.774 697.697 693.66 709.19C690.06 711.14 686.56 713.2 682.53 714.3C681.37 714.613 679.96 714.36 678.3 713.54C661.18 705.06 646.26 694.87 633.29 680.93C616.577 662.963 606.174 641.74 602.08 617.26C598.267 594.433 599.214 571.863 604.92 549.55Z" fill="#474B4C"/>
<path d="M375.218 555.24H248.938C243.355 555.24 238.828 559.767 238.828 565.35V566.19C238.828 571.774 243.355 576.3 248.938 576.3H375.218C380.802 576.3 385.328 571.774 385.328 566.19V565.35C385.328 559.767 380.802 555.24 375.218 555.24Z" fill="#BFBAAB"/>
<path d="M543.95 671.1C543.989 671 544.058 670.914 544.148 670.855C544.237 670.796 544.343 670.766 544.451 670.769C544.558 670.772 544.662 670.809 544.748 670.873C544.834 670.938 544.897 671.028 544.93 671.13L550.31 688.61C550.455 689.082 550.747 689.495 551.143 689.788C551.539 690.082 552.018 690.24 552.51 690.24H570.12C570.293 690.239 570.461 690.292 570.602 690.392C570.743 690.491 570.85 690.632 570.907 690.795C570.964 690.958 570.969 691.135 570.921 691.3C570.874 691.466 570.775 691.613 570.64 691.72C569.08 692.98 564.89 696.2 558.07 701.38C556.217 702.794 555.643 704.597 556.35 706.79C558.077 712.144 559.243 716.17 559.85 718.87C560.063 719.81 560.163 720.607 560.15 721.26C560.148 721.327 560.13 721.393 560.098 721.452C560.065 721.51 560.019 721.56 559.963 721.597C559.907 721.635 559.844 721.658 559.777 721.665C559.71 721.673 559.643 721.664 559.58 721.64C558.493 721.234 557.467 720.684 556.5 719.99C554.173 718.33 550.707 715.73 546.1 712.19C543.95 710.54 542.2 711.92 540.3 713.31C538.62 714.537 534.987 717.067 529.4 720.9C529.266 720.992 529.111 721.05 528.949 721.069C528.787 721.088 528.623 721.066 528.471 721.007C528.32 720.948 528.185 720.853 528.078 720.73C527.972 720.606 527.897 720.459 527.86 720.3C527.827 720.147 527.883 719.717 528.03 719.01C528.61 716.21 530.017 711.787 532.25 705.74C532.897 703.987 532.42 702.554 530.82 701.44C525.447 697.694 521 694.507 517.48 691.88C517.397 691.818 517.332 691.735 517.289 691.64C517.246 691.546 517.228 691.442 517.236 691.338C517.244 691.235 517.278 691.135 517.335 691.048C517.391 690.961 517.469 690.89 517.56 690.84C518.107 690.547 518.817 690.387 519.69 690.36C525.79 690.18 530.657 690.137 534.29 690.23C536.543 690.29 538.02 689.2 538.72 686.96C541.227 678.987 542.97 673.7 543.95 671.1Z" fill="#F6C620"/>
<path d="M678.716 437.332C678.755 437.231 678.824 437.146 678.913 437.086C679.003 437.027 679.109 436.997 679.216 437C679.324 437.004 679.428 437.04 679.513 437.105C679.599 437.17 679.663 437.259 679.696 437.362L685.076 454.842C685.221 455.314 685.513 455.727 685.909 456.02C686.305 456.313 686.784 456.472 687.276 456.472H704.886C705.058 456.471 705.227 456.524 705.368 456.623C705.509 456.723 705.615 456.864 705.673 457.027C705.73 457.189 705.735 457.366 705.687 457.532C705.639 457.698 705.541 457.844 705.406 457.952C703.846 459.212 699.656 462.432 692.836 467.612C690.982 469.025 690.409 470.828 691.116 473.022C692.842 478.375 694.009 482.402 694.616 485.102C694.829 486.042 694.929 486.838 694.916 487.492C694.914 487.559 694.896 487.624 694.863 487.683C694.831 487.742 694.785 487.792 694.729 487.829C694.673 487.866 694.609 487.889 694.543 487.897C694.476 487.904 694.408 487.896 694.346 487.872C693.259 487.465 692.232 486.915 691.266 486.222C688.939 484.562 685.472 481.962 680.866 478.422C678.716 476.772 676.966 478.152 675.066 479.542C673.386 480.768 669.752 483.298 664.166 487.132C664.031 487.224 663.877 487.282 663.715 487.3C663.553 487.319 663.389 487.298 663.237 487.239C663.085 487.18 662.95 487.084 662.844 486.961C662.737 486.838 662.662 486.69 662.626 486.532C662.592 486.378 662.649 485.948 662.796 485.242C663.376 482.442 664.782 478.018 667.016 471.972C667.662 470.218 667.186 468.785 665.586 467.672C660.212 463.925 655.766 460.738 652.246 458.112C652.163 458.049 652.097 457.967 652.055 457.872C652.012 457.777 651.994 457.673 652.002 457.57C652.01 457.466 652.044 457.366 652.1 457.279C652.157 457.192 652.234 457.121 652.326 457.072C652.872 456.778 653.582 456.618 654.456 456.592C660.556 456.412 665.422 456.368 669.056 456.462C671.309 456.522 672.786 455.432 673.486 453.192C675.992 445.218 677.736 439.932 678.716 437.332Z" fill="#F6C620"/>
<path d="M599.716 458.332C599.755 458.231 599.824 458.146 599.913 458.086C600.003 458.027 600.109 457.997 600.216 458C600.324 458.004 600.428 458.04 600.513 458.105C600.599 458.17 600.663 458.259 600.696 458.362L606.076 475.842C606.221 476.314 606.513 476.727 606.909 477.02C607.305 477.313 607.784 477.472 608.276 477.472H625.886C626.058 477.471 626.227 477.524 626.368 477.623C626.509 477.723 626.615 477.864 626.673 478.027C626.73 478.189 626.735 478.366 626.687 478.532C626.639 478.698 626.541 478.844 626.406 478.952C624.846 480.212 620.656 483.432 613.836 488.612C611.982 490.025 611.409 491.828 612.116 494.022C613.842 499.375 615.009 503.402 615.616 506.102C615.829 507.042 615.929 507.838 615.916 508.492C615.914 508.559 615.896 508.624 615.863 508.683C615.831 508.742 615.785 508.792 615.729 508.829C615.673 508.866 615.609 508.889 615.543 508.897C615.476 508.904 615.408 508.896 615.346 508.872C614.259 508.465 613.232 507.915 612.266 507.222C609.939 505.562 606.472 502.962 601.866 499.422C599.716 497.772 597.966 499.152 596.066 500.542C594.386 501.768 590.752 504.298 585.166 508.132C585.031 508.224 584.877 508.282 584.715 508.3C584.553 508.319 584.389 508.298 584.237 508.239C584.085 508.18 583.95 508.084 583.844 507.961C583.737 507.838 583.662 507.69 583.626 507.532C583.592 507.378 583.649 506.948 583.796 506.242C584.376 503.442 585.782 499.018 588.016 492.972C588.662 491.218 588.186 489.785 586.586 488.672C581.212 484.925 576.766 481.738 573.246 479.112C573.163 479.049 573.097 478.967 573.055 478.872C573.012 478.777 572.994 478.673 573.002 478.57C573.01 478.466 573.044 478.366 573.1 478.279C573.157 478.192 573.234 478.121 573.326 478.072C573.872 477.778 574.582 477.618 575.456 477.592C581.556 477.412 586.422 477.368 590.056 477.462C592.309 477.522 593.786 476.432 594.486 474.192C596.992 466.218 598.736 460.932 599.716 458.332Z" fill="#F6C620"/>
<path d="M521.716 594.332C521.755 594.231 521.824 594.146 521.913 594.086C522.003 594.027 522.109 593.997 522.216 594C522.324 594.004 522.428 594.04 522.513 594.105C522.599 594.17 522.663 594.259 522.696 594.362L528.076 611.842C528.221 612.314 528.513 612.727 528.909 613.02C529.305 613.313 529.784 613.472 530.276 613.472H547.886C548.058 613.471 548.227 613.524 548.368 613.623C548.509 613.723 548.615 613.864 548.673 614.027C548.73 614.189 548.735 614.366 548.687 614.532C548.639 614.698 548.541 614.844 548.406 614.952C546.846 616.212 542.656 619.432 535.836 624.612C533.982 626.025 533.409 627.828 534.116 630.022C535.842 635.375 537.009 639.402 537.616 642.102C537.829 643.042 537.929 643.838 537.916 644.492C537.914 644.559 537.896 644.624 537.863 644.683C537.831 644.742 537.785 644.792 537.729 644.829C537.673 644.866 537.609 644.889 537.543 644.897C537.476 644.904 537.408 644.896 537.346 644.872C536.259 644.465 535.232 643.915 534.266 643.222C531.939 641.562 528.472 638.962 523.866 635.422C521.716 633.772 519.966 635.152 518.066 636.542C516.386 637.768 512.752 640.298 507.166 644.132C507.031 644.224 506.877 644.282 506.715 644.3C506.553 644.319 506.389 644.298 506.237 644.239C506.085 644.18 505.95 644.084 505.844 643.961C505.737 643.838 505.662 643.69 505.626 643.532C505.592 643.378 505.649 642.948 505.796 642.242C506.376 639.442 507.782 635.018 510.016 628.972C510.662 627.218 510.186 625.785 508.586 624.672C503.212 620.925 498.766 617.738 495.246 615.112C495.163 615.049 495.097 614.967 495.055 614.872C495.012 614.777 494.994 614.673 495.002 614.57C495.01 614.466 495.044 614.366 495.1 614.279C495.157 614.192 495.234 614.121 495.326 614.072C495.872 613.778 496.582 613.618 497.456 613.592C503.556 613.412 508.422 613.368 512.056 613.462C514.309 613.522 515.786 612.432 516.486 610.192C518.992 602.218 520.736 596.932 521.716 594.332Z" fill="#F6C620"/>
<path d="M837.716 592.332C837.755 592.231 837.824 592.146 837.913 592.086C838.003 592.027 838.109 591.997 838.216 592C838.324 592.004 838.428 592.04 838.513 592.105C838.599 592.17 838.663 592.259 838.696 592.362L844.076 609.842C844.221 610.314 844.513 610.727 844.909 611.02C845.305 611.313 845.784 611.472 846.276 611.472H863.886C864.058 611.471 864.227 611.524 864.368 611.623C864.509 611.723 864.615 611.864 864.673 612.027C864.73 612.189 864.735 612.366 864.687 612.532C864.639 612.698 864.541 612.844 864.406 612.952C862.846 614.212 858.656 617.432 851.836 622.612C849.982 624.025 849.409 625.828 850.116 628.022C851.842 633.375 853.009 637.402 853.616 640.102C853.829 641.042 853.929 641.838 853.916 642.492C853.914 642.559 853.896 642.624 853.863 642.683C853.831 642.742 853.785 642.792 853.729 642.829C853.673 642.866 853.609 642.889 853.543 642.897C853.476 642.904 853.408 642.896 853.346 642.872C852.259 642.465 851.232 641.915 850.266 641.222C847.939 639.562 844.472 636.962 839.866 633.422C837.716 631.772 835.966 633.152 834.066 634.542C832.386 635.768 828.752 638.298 823.166 642.132C823.031 642.224 822.877 642.282 822.715 642.3C822.553 642.319 822.389 642.298 822.237 642.239C822.085 642.18 821.95 642.084 821.844 641.961C821.737 641.838 821.662 641.69 821.626 641.532C821.592 641.378 821.649 640.948 821.796 640.242C822.376 637.442 823.782 633.018 826.016 626.972C826.662 625.218 826.186 623.785 824.586 622.672C819.212 618.925 814.766 615.738 811.246 613.112C811.163 613.049 811.097 612.967 811.055 612.872C811.012 612.777 810.994 612.673 811.002 612.57C811.01 612.466 811.044 612.366 811.1 612.279C811.157 612.192 811.234 612.121 811.326 612.072C811.872 611.778 812.582 611.618 813.456 611.592C819.556 611.412 824.422 611.368 828.056 611.462C830.309 611.522 831.786 610.432 832.486 608.192C834.992 600.218 836.736 594.932 837.716 592.332Z" fill="#F6C620"/>
<path d="M814.716 671.332C814.755 671.231 814.824 671.146 814.913 671.086C815.003 671.027 815.109 670.997 815.216 671C815.324 671.004 815.428 671.04 815.513 671.105C815.599 671.17 815.663 671.259 815.696 671.362L821.076 688.842C821.221 689.314 821.513 689.727 821.909 690.02C822.305 690.313 822.784 690.472 823.276 690.472H840.886C841.058 690.471 841.227 690.524 841.368 690.623C841.509 690.723 841.615 690.864 841.673 691.027C841.73 691.189 841.735 691.366 841.687 691.532C841.639 691.698 841.541 691.844 841.406 691.952C839.846 693.212 835.656 696.432 828.836 701.612C826.982 703.025 826.409 704.828 827.116 707.022C828.842 712.375 830.009 716.402 830.616 719.102C830.829 720.042 830.929 720.838 830.916 721.492C830.914 721.559 830.896 721.624 830.863 721.683C830.831 721.742 830.785 721.792 830.729 721.829C830.673 721.866 830.609 721.889 830.543 721.897C830.476 721.904 830.408 721.896 830.346 721.872C829.259 721.465 828.232 720.915 827.266 720.222C824.939 718.562 821.472 715.962 816.866 712.422C814.716 710.772 812.966 712.152 811.066 713.542C809.386 714.768 805.752 717.298 800.166 721.132C800.031 721.224 799.877 721.282 799.715 721.3C799.553 721.319 799.389 721.298 799.237 721.239C799.085 721.18 798.95 721.084 798.844 720.961C798.737 720.838 798.662 720.69 798.626 720.532C798.592 720.378 798.649 719.948 798.796 719.242C799.376 716.442 800.782 712.018 803.016 705.972C803.662 704.218 803.186 702.785 801.586 701.672C796.212 697.925 791.766 694.738 788.246 692.112C788.163 692.049 788.097 691.967 788.055 691.872C788.012 691.777 787.994 691.673 788.002 691.57C788.01 691.466 788.044 691.366 788.1 691.279C788.157 691.192 788.234 691.121 788.326 691.072C788.872 690.778 789.582 690.618 790.456 690.592C796.556 690.412 801.422 690.368 805.056 690.462C807.309 690.522 808.786 689.432 809.486 687.192C811.992 679.218 813.736 673.932 814.716 671.332Z" fill="#F6C620"/>
<path d="M681.716 745.332C681.755 745.231 681.824 745.146 681.913 745.086C682.003 745.027 682.109 744.997 682.216 745C682.324 745.004 682.428 745.04 682.513 745.105C682.599 745.17 682.663 745.259 682.696 745.362L688.076 762.842C688.221 763.314 688.513 763.727 688.909 764.02C689.305 764.313 689.784 764.472 690.276 764.472H707.886C708.058 764.471 708.227 764.524 708.368 764.623C708.509 764.723 708.615 764.864 708.673 765.027C708.73 765.189 708.735 765.366 708.687 765.532C708.639 765.698 708.541 765.844 708.406 765.952C706.846 767.212 702.656 770.432 695.836 775.612C693.982 777.025 693.409 778.828 694.116 781.022C695.842 786.375 697.009 790.402 697.616 793.102C697.829 794.042 697.929 794.838 697.916 795.492C697.914 795.559 697.896 795.624 697.863 795.683C697.831 795.742 697.785 795.792 697.729 795.829C697.673 795.866 697.609 795.889 697.543 795.897C697.476 795.904 697.408 795.896 697.346 795.872C696.259 795.465 695.232 794.915 694.266 794.222C691.939 792.562 688.472 789.962 683.866 786.422C681.716 784.772 679.966 786.152 678.066 787.542C676.386 788.768 672.752 791.298 667.166 795.132C667.031 795.224 666.877 795.282 666.715 795.3C666.553 795.319 666.389 795.298 666.237 795.239C666.085 795.18 665.95 795.084 665.844 794.961C665.737 794.838 665.662 794.69 665.626 794.532C665.592 794.378 665.649 793.948 665.796 793.242C666.376 790.442 667.782 786.018 670.016 779.972C670.662 778.218 670.186 776.785 668.586 775.672C663.212 771.925 658.766 768.738 655.246 766.112C655.163 766.049 655.097 765.967 655.055 765.872C655.012 765.777 654.994 765.673 655.002 765.57C655.01 765.466 655.044 765.366 655.1 765.279C655.157 765.192 655.234 765.121 655.326 765.072C655.872 764.778 656.582 764.618 657.456 764.592C663.556 764.412 668.422 764.368 672.056 764.462C674.309 764.522 675.786 763.432 676.486 761.192C678.992 753.218 680.736 747.932 681.716 745.332Z" fill="#F6C620"/>
<path d="M601.716 727.332C601.755 727.231 601.824 727.146 601.913 727.086C602.003 727.027 602.109 726.997 602.216 727C602.324 727.004 602.428 727.04 602.513 727.105C602.599 727.17 602.663 727.259 602.696 727.362L608.076 744.842C608.221 745.314 608.513 745.727 608.909 746.02C609.305 746.313 609.784 746.472 610.276 746.472H627.886C628.058 746.471 628.227 746.524 628.368 746.623C628.509 746.723 628.615 746.864 628.673 747.027C628.73 747.189 628.735 747.366 628.687 747.532C628.639 747.698 628.541 747.844 628.406 747.952C626.846 749.212 622.656 752.432 615.836 757.612C613.982 759.025 613.409 760.828 614.116 763.022C615.842 768.375 617.009 772.402 617.616 775.102C617.829 776.042 617.929 776.838 617.916 777.492C617.914 777.559 617.896 777.624 617.863 777.683C617.831 777.742 617.785 777.792 617.729 777.829C617.673 777.866 617.609 777.889 617.543 777.897C617.476 777.904 617.408 777.896 617.346 777.872C616.259 777.465 615.232 776.915 614.266 776.222C611.939 774.562 608.472 771.962 603.866 768.422C601.716 766.772 599.966 768.152 598.066 769.542C596.386 770.768 592.752 773.298 587.166 777.132C587.031 777.224 586.877 777.282 586.715 777.3C586.553 777.319 586.389 777.298 586.237 777.239C586.085 777.18 585.95 777.084 585.844 776.961C585.737 776.838 585.662 776.69 585.626 776.532C585.592 776.378 585.649 775.948 585.796 775.242C586.376 772.442 587.782 768.018 590.016 761.972C590.662 760.218 590.186 758.785 588.586 757.672C583.212 753.925 578.766 750.738 575.246 748.112C575.163 748.049 575.097 747.967 575.055 747.872C575.012 747.777 574.994 747.673 575.002 747.57C575.01 747.466 575.044 747.366 575.1 747.279C575.157 747.192 575.234 747.121 575.326 747.072C575.872 746.778 576.582 746.618 577.456 746.592C583.556 746.412 588.422 746.368 592.056 746.462C594.309 746.522 595.786 745.432 596.486 743.192C598.992 735.218 600.736 729.932 601.716 727.332Z" fill="#F6C620"/>
<path d="M339.711 682.02H248.171C242.383 682.02 237.691 686.712 237.691 692.5V693.28C237.691 699.067 242.383 703.76 248.171 703.76H339.711C345.499 703.76 350.191 699.067 350.191 693.28V692.5C350.191 686.712 345.499 682.02 339.711 682.02Z" fill="#BFBAAB"/>
<path d="M796.475 697.1C794.482 695.86 792.789 694.98 792.693 695.134C792.596 695.289 794.134 696.42 796.126 697.66C798.119 698.901 799.812 699.781 799.909 699.626C800.005 699.471 798.468 698.34 796.475 697.1Z" fill="#474B4C"/>
<path d="M783.57 748.13C783.706 748.146 783.834 748.203 783.937 748.293C784.04 748.383 784.112 748.503 784.145 748.636C784.177 748.769 784.169 748.908 784.12 749.036C784.071 749.164 783.984 749.273 783.87 749.35C777.43 753.79 773.25 756.78 771.33 758.32C768.92 760.25 769.82 762.24 770.58 765.21C770.754 765.884 771.954 770.244 774.18 778.29C774.215 778.413 774.212 778.543 774.174 778.664C774.135 778.785 774.062 778.892 773.963 778.972C773.864 779.052 773.743 779.101 773.617 779.113C773.49 779.125 773.363 779.1 773.25 779.04C768.44 776.54 763.95 772.36 759.63 769.09C758.137 767.964 756.634 767.977 755.12 769.13C748.96 773.84 744.69 777.69 741.57 778.7C741.504 778.722 741.432 778.725 741.364 778.709C741.295 778.693 741.232 778.658 741.183 778.608C741.133 778.558 741.098 778.496 741.082 778.427C741.065 778.359 741.068 778.287 741.091 778.22L746.781 761.07C746.859 760.833 746.86 760.577 746.782 760.34C746.705 760.102 746.554 759.896 746.35 759.75L731.32 749.03C731.226 748.964 731.154 748.872 731.112 748.765C731.069 748.658 731.059 748.541 731.083 748.428C731.106 748.315 731.162 748.212 731.243 748.131C731.324 748.049 731.428 747.994 731.54 747.97C732.674 747.717 733.597 747.58 734.31 747.56C742.47 747.34 747.16 747.21 748.38 747.17C749.787 747.13 750.737 746.57 751.23 745.49C752.244 743.237 753.7 738.53 755.6 731.37C756.034 729.744 756.93 728.494 758.29 727.62C758.331 727.594 758.377 727.578 758.424 727.573C758.472 727.568 758.519 727.574 758.563 727.591C758.607 727.607 758.646 727.634 758.677 727.669C758.708 727.704 758.73 727.745 758.74 727.79C760.314 733.99 761.82 739.464 763.26 744.21C763.854 746.157 765.184 747.15 767.25 747.19C768.004 747.21 770.96 747.247 776.12 747.3C778.91 747.33 781.26 747.86 783.57 748.13Z" fill="#F6C620"/>
<path d="M613.819 760.57C613.732 760.817 613.535 760.917 613.228 760.87C613.164 760.859 613.101 760.833 613.047 760.795C612.993 760.758 612.949 760.71 612.921 760.657C612.893 760.604 612.882 760.548 612.889 760.496C612.895 760.444 612.919 760.397 612.959 760.36C613.059 760.274 613.232 760.204 613.478 760.15C613.531 760.139 613.585 760.142 613.635 760.16C613.685 760.178 613.73 760.21 613.765 760.253C613.799 760.296 613.822 760.348 613.832 760.403C613.841 760.459 613.837 760.517 613.819 760.57Z" fill="#474B4C"/>
</g>
<defs>
<clipPath id="clip0_307_325">
<rect width="1024" height="1024" fill="white"/>
</clipPath>
</defs>
</svg>
