<svg width="527" height="169" viewBox="0 0 527 169" fill="none" xmlns="http://www.w3.org/2000/svg">
<g clip-path="url(#clip0_308_651)">
<path d="M80.7889 16.0109C80.6222 16.0109 80.4656 16.0475 80.3189 16.1209C78.5389 17.0675 76.7556 18.0075 74.9689 18.9409C74.8689 18.9875 74.7789 18.9842 74.6989 18.9309C74.5789 18.8375 74.5289 18.7375 74.5489 18.6309C74.8822 16.6442 75.2256 14.6575 75.5789 12.6709C75.6056 12.5042 75.5922 12.3442 75.5389 12.1909C75.4989 12.0575 75.4189 11.9342 75.2989 11.8209C73.8456 10.4142 72.4022 9.00419 70.9689 7.59086C70.8889 7.51086 70.8622 7.4242 70.8889 7.33086C70.9356 7.19086 71.0156 7.1142 71.1289 7.10087C73.1222 6.80087 75.1189 6.51086 77.1189 6.23086C77.2789 6.21086 77.4256 6.15087 77.5589 6.05087C77.6722 5.97087 77.7656 5.85754 77.8389 5.71087C78.7256 3.89087 79.6189 2.08086 80.5189 0.280861C80.5722 0.180861 80.6456 0.130859 80.7389 0.130859C80.8922 0.130859 80.9922 0.180861 81.0389 0.280861C81.9389 2.08753 82.8289 3.89754 83.7089 5.71087C83.7822 5.85754 83.8856 5.98086 84.0189 6.08086C84.1322 6.16086 84.2722 6.2142 84.4389 6.24087C86.4389 6.52087 88.4322 6.81086 90.4189 7.11086C90.5322 7.1242 90.6056 7.17753 90.6389 7.27087C90.6856 7.41753 90.6689 7.53086 90.5889 7.61086C89.1489 9.01753 87.7022 10.4209 86.2489 11.8209C86.1289 11.9342 86.0456 12.0709 85.9989 12.2309C85.9522 12.3642 85.9422 12.5109 85.9689 12.6709C86.3222 14.6642 86.6622 16.6509 86.9889 18.6309C87.0089 18.7442 86.9789 18.8309 86.8989 18.8909C86.7789 18.9775 86.6689 18.9942 86.5689 18.9409C84.7822 18.0142 82.9989 17.0742 81.2189 16.1209C81.0722 16.0475 80.9289 16.0109 80.7889 16.0109Z" fill="black"/>
<path d="M45.4781 9.75977C45.6248 9.75977 45.7248 9.80977 45.7781 9.90977C46.6781 11.7231 47.5715 13.5398 48.4581 15.3598C48.5315 15.5064 48.6348 15.6298 48.7681 15.7298C48.8815 15.8098 49.0215 15.8631 49.1881 15.8898C51.1948 16.1698 53.1981 16.4598 55.1981 16.7598C55.3115 16.7731 55.3815 16.8264 55.4081 16.9198C55.4548 17.0664 55.4381 17.1798 55.3581 17.2598C53.9181 18.6731 52.4681 20.0831 51.0081 21.4898C50.8881 21.6031 50.8048 21.7398 50.7581 21.8998C50.7115 22.0331 50.7015 22.1831 50.7281 22.3498C51.0815 24.3431 51.4248 26.3364 51.7581 28.3298C51.7781 28.4431 51.7481 28.5298 51.6681 28.5898C51.5481 28.6764 51.4381 28.6931 51.3381 28.6398C49.5448 27.7064 47.7515 26.7631 45.9581 25.8098C45.8181 25.7364 45.6648 25.6998 45.4981 25.6998C45.3515 25.6998 45.2081 25.7364 45.0681 25.8098C43.2748 26.7631 41.4815 27.7064 39.6881 28.6398C39.5881 28.6931 39.4981 28.6898 39.4181 28.6298C39.2981 28.5431 39.2481 28.4431 39.2681 28.3298C39.6015 26.3364 39.9448 24.3431 40.2981 22.3498C40.3248 22.1831 40.3115 22.0231 40.2581 21.8698C40.2181 21.7298 40.1381 21.6031 40.0181 21.4898C38.5581 20.0831 37.1081 18.6731 35.6681 17.2598C35.5881 17.1798 35.5615 17.0931 35.5881 16.9998C35.6348 16.8531 35.7148 16.7731 35.8281 16.7598C37.8281 16.4598 39.8315 16.1698 41.8381 15.8898C42.0048 15.8631 42.1448 15.8098 42.2581 15.7298C42.3915 15.6298 42.4948 15.5064 42.5681 15.3598C43.4548 13.5398 44.3481 11.7231 45.2481 9.90977C45.3015 9.80977 45.3781 9.75977 45.4781 9.75977Z" fill="black"/>
<path d="M117.302 25.6893C117.135 25.6893 116.979 25.7293 116.832 25.8093C115.045 26.756 113.259 27.696 111.472 28.6293C111.365 28.6826 111.275 28.6793 111.202 28.6193C111.075 28.5326 111.022 28.4326 111.042 28.3193C111.375 26.3326 111.719 24.3426 112.072 22.3493C112.099 22.1826 112.089 22.0226 112.042 21.8693C111.995 21.7293 111.912 21.6026 111.792 21.4893C110.339 20.0826 108.892 18.6726 107.452 17.2593C107.372 17.1793 107.349 17.0926 107.382 16.9993C107.429 16.8593 107.505 16.7826 107.612 16.7693C109.612 16.4693 111.612 16.1793 113.612 15.8993C113.779 15.8726 113.929 15.8126 114.062 15.7193C114.175 15.6326 114.269 15.516 114.342 15.3693C115.229 13.5493 116.122 11.736 117.022 9.92929C117.069 9.82929 117.142 9.7793 117.242 9.7793C117.395 9.7793 117.495 9.82929 117.542 9.92929C118.442 11.736 119.335 13.5493 120.222 15.3693C120.295 15.516 120.399 15.6393 120.532 15.7393C120.645 15.8193 120.785 15.8726 120.952 15.8993C122.952 16.1793 124.952 16.4693 126.952 16.7693C127.059 16.7826 127.129 16.836 127.162 16.9293C127.209 17.076 127.192 17.1893 127.112 17.2693C125.672 18.6826 124.222 20.0926 122.762 21.4993C122.649 21.6126 122.565 21.746 122.512 21.8993C122.472 22.0393 122.465 22.1893 122.492 22.3493C122.839 24.3426 123.179 26.3326 123.512 28.3193C123.532 28.4326 123.502 28.5193 123.422 28.5793C123.302 28.666 123.192 28.6826 123.092 28.6293C121.305 27.696 119.519 26.756 117.732 25.8093C117.585 25.7293 117.442 25.6893 117.302 25.6893Z" fill="black"/>
<path d="M142.351 34.1895C142.398 34.1895 142.441 34.1995 142.481 34.2195C155.088 39.2795 168.381 42.2628 182.361 43.1694C182.518 43.1793 182.665 43.2474 182.774 43.3602C182.883 43.473 182.946 43.6225 182.951 43.7794C183.821 63.0595 180.951 83.7294 172.121 100.839C165.574 113.519 155.788 122.243 142.761 127.009C142.701 127.029 142.568 127.039 142.361 127.039C142.161 127.039 142.031 127.029 141.971 127.009C128.944 122.249 119.154 113.529 112.601 100.849C103.761 83.7395 100.891 63.0694 101.751 43.7894C101.756 43.6325 101.819 43.483 101.928 43.3702C102.037 43.2574 102.184 43.1893 102.341 43.1794C116.321 42.2728 129.614 39.2861 142.221 34.2195C142.261 34.1995 142.304 34.1895 142.351 34.1895ZM115.491 78.3394C117.638 79.7661 121.091 82.5261 125.851 86.6194C131.644 91.6128 136.561 97.3994 140.601 103.979C140.638 104.041 140.691 104.09 140.755 104.121C140.819 104.152 140.891 104.164 140.962 104.156C141.033 104.148 141.099 104.119 141.154 104.073C141.209 104.028 141.25 103.967 141.271 103.899C147.631 84.9094 158.171 68.9795 170.971 53.4895C171.01 53.4497 171.034 53.3971 171.037 53.3414C171.04 53.2857 171.023 53.2307 170.989 53.1867C170.955 53.1426 170.905 53.1125 170.851 53.102C170.796 53.0915 170.739 53.1012 170.691 53.1295C155.871 59.9695 144.631 72.8694 138.381 87.8094C138.359 87.8643 138.324 87.9134 138.28 87.953C138.237 87.9926 138.184 88.0217 138.127 88.0381C138.07 88.0545 138.011 88.0577 137.952 88.0475C137.894 88.0374 137.839 88.0141 137.791 87.9794C129.798 82.1528 122.414 78.8061 115.641 77.9395C115.592 77.9337 115.543 77.9445 115.501 77.9701C115.459 77.9957 115.427 78.0347 115.409 78.0807C115.392 78.1268 115.391 78.1773 115.405 78.2242C115.42 78.2711 115.45 78.3117 115.491 78.3394Z" fill="#F04E23"/>
<path d="M20.4499 50.8099C20.2832 50.8099 20.1265 50.8466 19.9799 50.9199C18.1932 51.8666 16.4065 52.8033 14.6199 53.7299C14.5199 53.7833 14.4299 53.7833 14.3499 53.7299C14.2299 53.6366 14.1799 53.5366 14.1999 53.4299C14.5332 51.4432 14.8765 49.4533 15.2299 47.4599C15.2632 47.2999 15.2532 47.1399 15.1999 46.9799C15.1532 46.8466 15.0732 46.7233 14.9599 46.6099C13.5065 45.2033 12.0599 43.7933 10.6199 42.3799C10.5399 42.2999 10.5165 42.2133 10.5499 42.1199C10.5965 41.9799 10.6765 41.8999 10.7899 41.8799C12.7832 41.5866 14.7799 41.2999 16.7799 41.0199C16.9399 40.9999 17.0865 40.9399 17.2199 40.8399C17.3399 40.7599 17.4332 40.6466 17.4999 40.4999C18.3932 38.6799 19.2899 36.8699 20.1899 35.0699C20.2365 34.9699 20.3099 34.9199 20.4099 34.9199C20.5632 34.9199 20.6632 34.9699 20.7099 35.0699C21.6099 36.8766 22.4999 38.6866 23.3799 40.4999C23.4532 40.6466 23.5565 40.7699 23.6899 40.8699C23.8032 40.9566 23.9432 41.0099 24.1099 41.0299C26.1099 41.3166 28.1065 41.6099 30.0999 41.9099C30.2065 41.9233 30.2765 41.9766 30.3099 42.0699C30.3565 42.2099 30.3399 42.3199 30.2599 42.3999C28.8199 43.8133 27.3699 45.2199 25.9099 46.6199C25.7965 46.7333 25.7132 46.8699 25.6599 47.0299C25.6132 47.1633 25.6065 47.3099 25.6399 47.4699C25.9865 49.4633 26.3265 51.4533 26.6599 53.4399C26.6732 53.5533 26.6399 53.6399 26.5599 53.6999C26.4399 53.7866 26.3299 53.8033 26.2299 53.7499C24.4432 52.8166 22.6599 51.8733 20.8799 50.9199C20.7332 50.8466 20.5899 50.8099 20.4499 50.8099Z" fill="black"/>
<path d="M276.95 90.5699H263.21C263.053 90.5699 262.903 90.5088 262.793 90.4C262.682 90.2913 262.62 90.1437 262.62 89.9899V77.1799C262.62 77.0314 262.679 76.889 262.784 76.7839C262.889 76.6789 263.031 76.6199 263.18 76.6199H293.54C293.641 76.6199 293.737 76.6599 293.809 76.7312C293.88 76.8025 293.92 76.8991 293.92 76.9999V117.12C293.92 117.23 293.887 117.338 293.824 117.427C293.761 117.517 293.672 117.584 293.57 117.62C279.33 122.46 257.58 124.91 244.85 116.76C230.3 107.44 227.42 87.9699 229.98 71.9899C235.04 40.5199 268.81 35.6499 293.44 45.5899C293.498 45.6133 293.55 45.6478 293.595 45.6913C293.639 45.7348 293.675 45.7864 293.699 45.8432C293.723 45.9 293.736 45.9607 293.736 46.022C293.736 46.0832 293.724 46.1437 293.7 46.1999L288.42 58.8899C288.398 58.9425 288.366 58.9901 288.325 59.0296C288.284 59.0692 288.236 59.0998 288.183 59.1195C288.13 59.1393 288.075 59.1478 288.019 59.1444C287.963 59.141 287.909 59.1259 287.86 59.0999C279.41 54.8399 268.21 53.2899 259.87 57.0799C250.68 61.2499 246.63 70.9699 246.48 81.1899C246.31 92.2899 249.44 105.06 262.18 107.57C265.853 108.297 270.77 108.133 276.93 107.08C277.108 107.051 277.271 106.96 277.388 106.823C277.505 106.685 277.57 106.511 277.57 106.33V91.1899C277.57 91.0255 277.505 90.8678 277.388 90.7515C277.272 90.6352 277.114 90.5699 276.95 90.5699Z" fill="#F04E23"/>
<path d="M312.48 42.37C312.48 42.3011 312.508 42.2349 312.557 42.1862C312.605 42.1374 312.671 42.11 312.74 42.11L340.95 42.01C345.796 41.9924 350.598 42.8964 355.081 44.6706C359.564 46.4447 363.641 49.0542 367.079 52.35C370.517 55.6457 373.248 59.5631 375.117 63.8785C376.986 68.1938 377.955 72.8224 377.97 77.5L377.99 84.94C378.021 94.3819 374.166 103.45 367.272 110.15C360.379 116.851 351.012 120.634 341.23 120.67L313.02 120.77C312.951 120.77 312.885 120.743 312.837 120.694C312.788 120.645 312.76 120.579 312.76 120.51L312.48 42.37ZM329.43 56.07V106.55C329.43 106.656 329.473 106.758 329.548 106.833C329.623 106.908 329.724 106.95 329.83 106.95H339.53C342.291 106.95 345.024 106.39 347.574 105.301C350.125 104.213 352.442 102.617 354.394 100.606C356.346 98.5946 357.894 96.2069 358.95 93.5789C360.007 90.951 360.55 88.1345 360.55 85.29V77.33C360.55 74.4856 360.007 71.669 358.95 69.0411C357.894 66.4132 356.346 64.0254 354.394 62.0141C352.442 60.0028 350.125 58.4073 347.574 57.3188C345.024 56.2303 342.291 55.67 339.53 55.67H329.83C329.724 55.67 329.623 55.7122 329.548 55.7872C329.473 55.8622 329.43 55.9639 329.43 56.07Z" fill="#F04E23"/>
<path d="M394.371 42.4106C394.371 42.3177 394.408 42.2287 394.474 42.1631C394.539 42.0974 394.628 42.0605 394.721 42.0605C403.201 42.0605 411.294 42.0639 419.001 42.0706C435.261 42.0806 448.541 47.7905 448.831 65.8905C449.211 89.1405 430.761 93.8605 411.641 92.7905C411.574 92.7864 411.507 92.7961 411.444 92.8189C411.381 92.8417 411.324 92.8771 411.275 92.923C411.226 92.9689 411.188 93.0243 411.161 93.0858C411.135 93.1473 411.121 93.2136 411.121 93.2805V120.561C411.121 120.661 411.082 120.758 411.013 120.829C410.943 120.901 410.849 120.941 410.751 120.941H394.801C394.687 120.941 394.578 120.894 394.497 120.812C394.416 120.729 394.371 120.617 394.371 120.501V42.4106ZM411.111 55.9906L411.151 78.6906C411.151 78.7516 411.175 78.81 411.218 78.8532C411.262 78.8963 411.32 78.9205 411.381 78.9205L420.381 78.9005C423.439 78.8948 426.369 77.7875 428.528 75.8221C430.686 73.8568 431.896 71.1944 431.891 68.4205V66.1805C431.889 64.8068 431.588 63.447 431.006 62.1788C430.425 60.9106 429.573 59.7589 428.501 58.7895C427.428 57.82 426.155 57.0518 424.755 56.5286C423.355 56.0055 421.855 55.7377 420.341 55.7406L411.341 55.7605C411.311 55.7605 411.281 55.7665 411.253 55.7781C411.225 55.7896 411.2 55.8066 411.178 55.8279C411.157 55.8493 411.14 55.8746 411.129 55.9025C411.117 55.9304 411.111 55.9604 411.111 55.9906Z" fill="#F04E23"/>
<path d="M480.43 91.3405V120.541C480.43 120.647 480.389 120.748 480.315 120.823C480.242 120.898 480.143 120.941 480.04 120.941H464.01C463.922 120.941 463.838 120.906 463.776 120.844C463.714 120.782 463.68 120.698 463.68 120.611V42.3905C463.68 42.303 463.714 42.2191 463.776 42.1572C463.838 42.0953 463.922 42.0605 464.01 42.0605C472.816 42.0605 480.73 42.0639 487.75 42.0706C501.49 42.1006 516.46 45.9906 517.98 62.3206C519.033 73.6139 514.343 81.6372 503.91 86.3905C503.861 86.4123 503.817 86.4444 503.782 86.4846C503.746 86.5248 503.72 86.5723 503.705 86.6236C503.69 86.675 503.686 86.729 503.694 86.782C503.701 86.835 503.72 86.8857 503.75 86.9305L526.42 120.511C526.446 120.552 526.461 120.601 526.463 120.65C526.465 120.7 526.454 120.749 526.43 120.793C526.407 120.836 526.372 120.873 526.33 120.899C526.288 120.925 526.239 120.939 526.19 120.941H508.6C508.444 120.94 508.291 120.9 508.156 120.825C508.021 120.75 507.909 120.641 507.83 120.511L489.57 91.1705C489.475 91.0176 489.343 90.8914 489.187 90.8039C489.032 90.7164 488.857 90.6705 488.68 90.6705H481.1C481.012 90.6705 480.925 90.6879 480.843 90.7216C480.762 90.7552 480.688 90.8046 480.626 90.8668C480.564 90.929 480.514 91.0029 480.481 91.0842C480.447 91.1654 480.43 91.2526 480.43 91.3405ZM480.44 56.1306V76.6705C480.44 76.7289 480.463 76.7849 480.504 76.8261C480.545 76.8674 480.601 76.8905 480.66 76.8905H489.38C492.509 76.8905 495.511 75.9202 497.724 74.193C499.937 72.4658 501.18 70.1232 501.18 67.6805V65.1205C501.18 63.9111 500.874 62.7134 500.281 61.596C499.688 60.4786 498.819 59.4633 497.724 58.6081C496.628 57.7529 495.327 57.0745 493.895 56.6116C492.464 56.1488 490.929 55.9106 489.38 55.9106H480.66C480.601 55.9106 480.545 55.9337 480.504 55.975C480.463 56.0162 480.44 56.0722 480.44 56.1306Z" fill="#F04E23"/>
<path d="M115.64 77.9392C122.414 78.8059 129.797 82.1526 137.79 87.9792C137.838 88.0139 137.893 88.0372 137.952 88.0473C138.01 88.0575 138.07 88.0542 138.127 88.0379C138.183 88.0215 138.236 87.9924 138.28 87.9528C138.324 87.9132 138.358 87.8641 138.38 87.8092C144.63 72.8692 155.87 59.9692 170.69 53.1292C170.738 53.101 170.795 53.0913 170.85 53.1018C170.905 53.1123 170.954 53.1424 170.988 53.1864C171.022 53.2305 171.039 53.2855 171.036 53.3412C171.033 53.3969 171.009 53.4495 170.97 53.4892C158.17 68.9792 147.63 84.9092 141.27 103.899C141.249 103.967 141.208 104.028 141.153 104.073C141.099 104.119 141.032 104.147 140.961 104.156C140.89 104.164 140.819 104.152 140.755 104.121C140.691 104.089 140.637 104.04 140.6 103.979C136.56 97.3992 131.644 91.6126 125.85 86.6192C121.09 82.5259 117.637 79.7659 115.49 78.3392C115.45 78.3114 115.42 78.2709 115.405 78.2239C115.39 78.177 115.391 78.1265 115.409 78.0805C115.426 78.0344 115.458 77.9955 115.5 77.9699C115.542 77.9443 115.591 77.9335 115.64 77.9392Z" fill="white"/>
<path d="M10.2694 87.1593C10.1027 87.1593 9.94604 87.1993 9.79938 87.2793C8.01938 88.226 6.23271 89.1626 4.43938 90.0893C4.33938 90.1426 4.24937 90.1393 4.16937 90.0793C4.04937 89.9926 3.99937 89.8926 4.01937 89.7793C4.3527 87.7926 4.69604 85.806 5.04938 83.8193C5.08271 83.6593 5.0727 83.4993 5.01937 83.3393C4.9727 83.206 4.89271 83.0826 4.77937 82.9693C3.32604 81.5626 1.8827 80.1526 0.44937 78.7393C0.36937 78.6593 0.342709 78.5726 0.369376 78.4793C0.416043 78.3393 0.49604 78.2593 0.609374 78.2393C2.60271 77.946 4.59937 77.6593 6.59937 77.3793C6.75937 77.3593 6.90604 77.2993 7.03937 77.1993C7.15937 77.1193 7.25271 77.006 7.31937 76.8593C8.21271 75.0393 9.10938 73.2293 10.0094 71.4293C10.056 71.3293 10.1294 71.2793 10.2294 71.2793C10.3827 71.2793 10.4827 71.3293 10.5294 71.4293C11.4294 73.236 12.3194 75.046 13.1994 76.8593C13.2727 77.006 13.376 77.1293 13.5094 77.2293C13.6227 77.3093 13.7594 77.3626 13.9194 77.3893C15.926 77.6693 17.9227 77.9593 19.9094 78.2593C20.0227 78.2793 20.096 78.336 20.1294 78.4293C20.176 78.5693 20.156 78.6793 20.0694 78.7593C18.636 80.1726 17.1894 81.5793 15.7294 82.9793C15.616 83.0926 15.5327 83.226 15.4794 83.3793C15.4327 83.5193 15.426 83.6693 15.4594 83.8293C15.806 85.8226 16.146 87.8126 16.4794 89.7993C16.4927 89.906 16.4594 89.9893 16.3794 90.0493C16.2594 90.136 16.1494 90.1526 16.0494 90.0993C14.2627 89.166 12.4794 88.226 10.6994 87.2793C10.5527 87.1993 10.4094 87.1593 10.2694 87.1593Z" fill="black"/>
<path d="M20.4192 110.431C20.5859 110.431 20.7426 110.391 20.8892 110.311C22.6759 109.364 24.4626 108.424 26.2492 107.491C26.3559 107.437 26.4492 107.441 26.5292 107.501C26.6492 107.587 26.6992 107.687 26.6792 107.801C26.3459 109.787 26.0026 111.777 25.6492 113.771C25.6226 113.937 25.6359 114.097 25.6892 114.251C25.7292 114.391 25.8092 114.517 25.9292 114.631C27.3826 116.037 28.8292 117.447 30.2692 118.861C30.3559 118.941 30.3826 119.027 30.3492 119.121C30.3026 119.261 30.2226 119.341 30.1092 119.361C28.1159 119.661 26.1159 119.951 24.1092 120.231C23.9426 120.251 23.7926 120.311 23.6592 120.411C23.5459 120.497 23.4526 120.614 23.3792 120.761C22.4926 122.581 21.5992 124.394 20.6992 126.201C20.6459 126.301 20.5726 126.351 20.4792 126.351C20.3259 126.351 20.2226 126.301 20.1692 126.201C19.2692 124.394 18.3759 122.581 17.4892 120.761C17.4159 120.607 17.3126 120.484 17.1792 120.391C17.0659 120.304 16.9292 120.251 16.7692 120.231C14.7626 119.951 12.7592 119.661 10.7592 119.361C10.6459 119.341 10.5759 119.284 10.5492 119.191C10.5026 119.051 10.5192 118.941 10.5992 118.861C12.0392 117.447 13.4892 116.037 14.9492 114.631C15.0626 114.517 15.1459 114.381 15.1992 114.221C15.2459 114.087 15.2526 113.937 15.2192 113.771C14.8726 111.777 14.5326 109.787 14.1992 107.801C14.1792 107.687 14.2092 107.601 14.2892 107.541C14.4092 107.454 14.5192 107.437 14.6192 107.491C16.4126 108.424 18.2026 109.364 19.9892 110.311C20.1359 110.391 20.2792 110.431 20.4192 110.431Z" fill="black"/>
<path d="M455.591 132.279H453.691C453.465 132.279 453.281 132.463 453.281 132.689V159.589C453.281 159.816 453.465 159.999 453.691 159.999H455.591C455.818 159.999 456.001 159.816 456.001 159.589V132.689C456.001 132.463 455.818 132.279 455.591 132.279Z" fill="black"/>
<path d="M45.5108 135.56C45.6775 135.56 45.8308 135.52 45.9708 135.44C47.7575 134.494 49.5441 133.557 51.3308 132.63C51.4308 132.577 51.5208 132.577 51.6008 132.63C51.7208 132.724 51.7741 132.824 51.7608 132.93C51.4208 134.917 51.0741 136.907 50.7208 138.9C50.6941 139.06 50.7075 139.22 50.7608 139.38C50.8008 139.514 50.8808 139.637 51.0008 139.75C52.4541 141.157 53.8975 142.567 55.3308 143.98C55.4108 144.06 55.4375 144.147 55.4108 144.24C55.3641 144.38 55.2841 144.457 55.1708 144.47C53.1775 144.77 51.1808 145.06 49.1808 145.34C49.0208 145.36 48.8741 145.42 48.7408 145.52C48.6208 145.6 48.5275 145.714 48.4608 145.86C47.5675 147.68 46.6708 149.49 45.7708 151.29C45.7241 151.39 45.6508 151.44 45.5508 151.44C45.4041 151.44 45.3041 151.39 45.2508 151.29C44.3575 149.484 43.4675 147.674 42.5808 145.86C42.5075 145.714 42.4041 145.59 42.2708 145.49C42.1575 145.41 42.0208 145.357 41.8608 145.33C39.8541 145.05 37.8575 144.76 35.8708 144.46C35.7575 144.44 35.6841 144.384 35.6508 144.29C35.6041 144.15 35.6208 144.04 35.7008 143.96C37.1408 142.554 38.5875 141.147 40.0408 139.74C40.1608 139.627 40.2475 139.494 40.3008 139.34C40.3408 139.2 40.3475 139.05 40.3208 138.89C39.9741 136.897 39.6341 134.907 39.3008 132.92C39.2808 132.814 39.3108 132.73 39.3908 132.67C39.5108 132.584 39.6208 132.567 39.7208 132.62C41.5075 133.547 43.2941 134.487 45.0808 135.44C45.2275 135.52 45.3708 135.56 45.5108 135.56Z" fill="black"/>
<path d="M117.259 135.55C117.426 135.55 117.583 135.513 117.729 135.44C119.516 134.486 121.303 133.546 123.089 132.62C123.189 132.566 123.28 132.57 123.36 132.63C123.48 132.716 123.529 132.816 123.509 132.93C123.176 134.916 122.833 136.906 122.479 138.9C122.453 139.06 122.466 139.216 122.52 139.37C122.56 139.51 122.639 139.636 122.759 139.75C124.213 141.156 125.66 142.566 127.1 143.98C127.18 144.06 127.203 144.146 127.17 144.24C127.123 144.38 127.046 144.456 126.94 144.47C124.946 144.77 122.946 145.06 120.94 145.34C120.78 145.36 120.633 145.42 120.5 145.52C120.38 145.606 120.286 145.723 120.22 145.87C119.333 147.683 118.439 149.493 117.539 151.3C117.486 151.4 117.409 151.45 117.309 151.45C117.163 151.45 117.063 151.4 117.009 151.3C116.109 149.493 115.219 147.68 114.339 145.86C114.266 145.713 114.163 145.593 114.03 145.5C113.91 145.413 113.77 145.36 113.61 145.34C111.61 145.053 109.613 144.763 107.619 144.47C107.506 144.45 107.433 144.393 107.399 144.3C107.353 144.16 107.373 144.05 107.46 143.97C108.893 142.556 110.34 141.146 111.8 139.74C111.913 139.626 111.996 139.493 112.05 139.34C112.096 139.2 112.103 139.05 112.07 138.89C111.723 136.896 111.383 134.906 111.05 132.92C111.03 132.806 111.06 132.723 111.14 132.67C111.26 132.583 111.37 132.563 111.47 132.61C113.263 133.543 115.05 134.486 116.83 135.44C116.976 135.513 117.119 135.55 117.259 135.55Z" fill="black"/>
<path d="M465.364 135.035C465.266 133.94 464.411 133.122 463.454 133.207C462.496 133.293 461.8 134.249 461.897 135.344C461.995 136.439 462.85 137.257 463.807 137.171C464.765 137.086 465.461 136.129 465.364 135.035Z" fill="black"/>
<path d="M517.681 140.541H522.501C522.629 140.541 522.751 140.591 522.841 140.681C522.931 140.771 522.981 140.893 522.981 141.021V142.221C522.981 142.359 522.926 142.491 522.829 142.588C522.731 142.686 522.599 142.741 522.461 142.741H517.911C517.747 142.741 517.589 142.806 517.473 142.922C517.357 143.039 517.291 143.196 517.291 143.361C517.285 145.847 517.278 148.991 517.271 152.791C517.261 156.401 518.171 158.821 522.161 157.651C522.261 157.621 522.366 157.616 522.468 157.635C522.57 157.653 522.667 157.696 522.75 157.759C522.833 157.822 522.901 157.904 522.948 157.998C522.995 158.092 523.02 158.195 523.021 158.301V159.171C523.02 159.411 522.936 159.643 522.782 159.826C522.628 160.008 522.416 160.131 522.181 160.171C516.781 161.044 514.128 158.834 514.221 153.541C514.328 147.781 514.341 144.381 514.261 143.341C514.249 143.169 514.171 143.009 514.045 142.892C513.919 142.775 513.753 142.71 513.581 142.711H512.251C512.098 142.709 511.95 142.657 511.829 142.564C511.707 142.471 511.619 142.341 511.578 142.194C511.536 142.046 511.543 141.89 511.598 141.747C511.653 141.604 511.752 141.482 511.881 141.401L514.241 139.921C514.389 139.83 514.5 139.688 514.551 139.521L515.321 136.791C515.387 136.555 515.527 136.348 515.72 136.199C515.913 136.051 516.149 135.971 516.391 135.971L516.661 135.981C516.823 135.981 516.978 136.044 517.093 136.156C517.207 136.269 517.271 136.422 517.271 136.581V140.121C517.271 140.232 517.314 140.339 517.391 140.418C517.468 140.496 517.573 140.541 517.681 140.541Z" fill="black"/>
<path d="M370.068 141.46L369.298 143.32C369.279 143.367 369.25 143.411 369.214 143.447C369.177 143.483 369.133 143.512 369.085 143.532C369.036 143.551 368.985 143.561 368.932 143.561C368.879 143.56 368.827 143.55 368.778 143.53C357.038 138.76 356.858 155.9 362.968 157.47C365.042 158.003 367.115 157.82 369.188 156.92C369.28 156.88 369.379 156.863 369.479 156.872C369.578 156.88 369.674 156.913 369.757 156.968C369.84 157.022 369.909 157.097 369.956 157.184C370.004 157.272 370.028 157.37 370.028 157.47V158.56C370.028 158.796 369.954 159.027 369.816 159.219C369.677 159.41 369.483 159.554 369.258 159.63C364.438 161.29 358.718 160.37 356.818 154.96C355.088 150.04 356.008 142.43 361.608 140.65C364.162 139.843 366.912 139.956 369.858 140.99C369.903 141.005 369.945 141.029 369.98 141.061C370.015 141.093 370.043 141.133 370.063 141.177C370.083 141.221 370.093 141.268 370.094 141.317C370.095 141.366 370.086 141.414 370.068 141.46Z" fill="black"/>
<path d="M390.92 151.898C390.944 152.961 390.758 154.019 390.374 155.011C389.989 156.003 389.413 156.909 388.678 157.678C387.943 158.447 387.064 159.064 386.09 159.493C385.117 159.922 384.069 160.155 383.005 160.18L381.506 160.214C379.358 160.262 377.279 159.456 375.726 157.972C374.173 156.488 373.273 154.447 373.224 152.299L373.139 148.54C373.115 147.477 373.3 146.419 373.685 145.428C374.07 144.436 374.646 143.53 375.381 142.761C376.116 141.991 376.995 141.375 377.968 140.945C378.941 140.516 379.99 140.283 381.053 140.259L382.553 140.225C384.7 140.176 386.779 140.982 388.333 142.467C389.886 143.951 390.786 145.991 390.834 148.139L390.92 151.898ZM387.859 148.129C387.859 146.705 387.293 145.339 386.286 144.332C385.279 143.325 383.913 142.759 382.489 142.759H381.549C380.125 142.759 378.759 143.325 377.752 144.332C376.745 145.339 376.179 146.705 376.179 148.129V152.349C376.179 153.773 376.745 155.139 377.752 156.146C378.759 157.153 380.125 157.719 381.549 157.719H382.489C383.913 157.719 385.279 157.153 386.286 156.146C387.293 155.139 387.859 153.773 387.859 152.349V148.129Z" fill="black"/>
<path d="M399.491 142.69C402.061 139.53 408.271 138.87 410.711 142.88C410.744 142.934 410.789 142.98 410.843 143.012C410.897 143.045 410.958 143.064 411.021 143.068C411.084 143.072 411.147 143.061 411.204 143.035C411.262 143.009 411.312 142.97 411.351 142.92C412.905 140.954 415.018 140.024 417.691 140.13C421.898 140.304 423.998 142.59 423.991 146.99C423.991 151.284 423.995 155.447 424.001 159.48C424.001 159.618 423.946 159.751 423.849 159.848C423.751 159.946 423.619 160 423.481 160H421.541C421.401 160 421.266 159.945 421.166 159.845C421.067 159.746 421.011 159.611 421.011 159.47V146.47C421.011 145.912 420.89 145.36 420.656 144.853C420.422 144.347 420.082 143.896 419.658 143.534C419.233 143.172 418.736 142.906 418.2 142.755C417.664 142.605 417.101 142.572 416.551 142.66L415.691 142.8C414.518 142.984 413.449 143.582 412.677 144.486C411.905 145.39 411.481 146.54 411.481 147.73V159.5C411.481 159.636 411.428 159.765 411.332 159.861C411.236 159.957 411.107 160.01 410.971 160.01H409.081C408.941 160.01 408.806 159.955 408.706 159.855C408.607 159.756 408.551 159.621 408.551 159.48V146.53C408.551 145.985 408.439 145.445 408.221 144.945C408.003 144.446 407.684 143.996 407.284 143.625C406.884 143.254 406.412 142.97 405.897 142.79C405.382 142.611 404.835 142.539 404.291 142.58L403.671 142.63C402.414 142.726 401.239 143.293 400.383 144.216C399.526 145.14 399.05 146.352 399.051 147.61V159.54C399.051 159.66 399.004 159.774 398.919 159.859C398.835 159.943 398.721 159.99 398.601 159.99H396.711C396.597 159.99 396.488 159.945 396.407 159.864C396.327 159.784 396.281 159.674 396.281 159.56V140.92C396.281 140.867 396.292 140.813 396.312 140.763C396.332 140.714 396.361 140.669 396.398 140.63C396.436 140.592 396.48 140.562 396.528 140.542C396.577 140.521 396.629 140.51 396.681 140.51H398.231C398.302 140.51 398.372 140.524 398.438 140.551C398.503 140.579 398.563 140.618 398.613 140.669C398.663 140.719 398.703 140.778 398.73 140.844C398.757 140.909 398.771 140.979 398.771 141.05V142.43C398.772 142.515 398.799 142.598 398.848 142.668C398.897 142.738 398.966 142.791 399.045 142.819C399.124 142.848 399.21 142.851 399.29 142.828C399.37 142.805 399.44 142.757 399.491 142.69Z" fill="black"/>
<path d="M433.541 157.85C433.506 157.799 433.455 157.759 433.396 157.739C433.337 157.719 433.272 157.718 433.213 157.737C433.153 157.756 433.101 157.794 433.065 157.845C433.028 157.896 433.01 157.958 433.011 158.02V168.28C433.011 168.402 432.963 168.519 432.876 168.606C432.79 168.692 432.673 168.74 432.551 168.74H430.721C430.663 168.74 430.606 168.729 430.553 168.706C430.499 168.684 430.451 168.65 430.41 168.609C430.369 168.567 430.337 168.517 430.315 168.463C430.293 168.408 430.281 168.35 430.281 168.29V140.99C430.281 140.866 430.331 140.746 430.419 140.658C430.507 140.57 430.627 140.52 430.751 140.52H432.091C432.18 140.52 432.268 140.538 432.35 140.574C432.431 140.61 432.504 140.663 432.563 140.729C432.623 140.795 432.668 140.873 432.695 140.958C432.722 141.043 432.731 141.132 432.721 141.22C432.661 141.807 432.671 142.214 432.751 142.44C432.775 142.512 432.817 142.576 432.874 142.627C432.93 142.677 432.999 142.711 433.073 142.726C433.147 142.742 433.224 142.737 433.295 142.713C433.367 142.689 433.431 142.647 433.481 142.59C434.995 140.89 436.978 140.074 439.431 140.14C444.211 140.27 446.531 143.33 447.201 147.83C448.211 154.68 445.331 161.72 436.941 160.02C435.455 159.72 434.321 158.997 433.541 157.85ZM444.116 147.773C444.109 147.104 443.97 146.444 443.708 145.829C443.446 145.214 443.065 144.657 442.587 144.19C442.11 143.722 441.545 143.353 440.925 143.103C440.304 142.854 439.641 142.729 438.973 142.736L438.133 142.745C436.783 142.759 435.494 143.309 434.549 144.274C433.605 145.238 433.082 146.538 433.096 147.888L433.147 152.688C433.154 153.356 433.292 154.017 433.554 154.632C433.817 155.247 434.198 155.804 434.675 156.271C435.153 156.739 435.718 157.108 436.338 157.357C436.958 157.607 437.621 157.731 438.29 157.724L439.13 157.716C440.48 157.702 441.768 157.152 442.713 156.187C443.657 155.223 444.18 153.923 444.166 152.573L444.116 147.773Z" fill="black"/>
<path d="M494.63 142.54C497.23 139.92 500.453 139.373 504.299 140.9C506.166 141.64 507.173 143.243 507.32 145.71C507.513 149.003 507.543 153.626 507.409 159.58C507.407 159.692 507.36 159.799 507.28 159.877C507.2 159.956 507.092 160 506.979 160H504.99C504.87 160 504.756 159.952 504.671 159.868C504.587 159.784 504.539 159.669 504.539 159.55C504.539 154.423 504.546 150.56 504.56 147.96C504.59 143.27 502.14 141.96 497.78 142.95C492.76 144.08 493.98 153.64 493.99 159.62C493.99 159.715 493.952 159.807 493.884 159.874C493.817 159.942 493.725 159.98 493.63 159.98H491.64C491.541 159.98 491.447 159.942 491.378 159.874C491.308 159.807 491.27 159.715 491.27 159.62V141.49C491.277 141.206 491.387 140.935 491.579 140.726C491.77 140.517 492.031 140.383 492.313 140.351C492.594 140.318 492.879 140.388 493.113 140.547C493.348 140.707 493.517 140.946 493.59 141.22L493.84 142.31C493.858 142.392 493.898 142.467 493.956 142.528C494.013 142.59 494.086 142.634 494.167 142.658C494.247 142.681 494.333 142.683 494.414 142.662C494.496 142.641 494.57 142.599 494.63 142.54Z" fill="black"/>
<path d="M481.929 157.679C481.399 158.219 481.039 158.849 480.169 159.319C476.979 161.029 471.179 160.879 469.969 156.679C467.729 148.849 476.739 148.319 481.729 148.319C481.944 148.319 482.151 148.234 482.305 148.083C482.458 147.931 482.546 147.725 482.549 147.509C482.599 141.189 477.459 142.179 473.539 143.749C473.384 143.81 473.217 143.832 473.051 143.813C472.886 143.795 472.728 143.737 472.591 143.644C472.454 143.552 472.342 143.427 472.265 143.282C472.188 143.136 472.148 142.974 472.149 142.809V142.199C472.148 142 472.21 141.805 472.324 141.641C472.438 141.476 472.6 141.35 472.789 141.279C475.369 140.313 478.002 140.009 480.689 140.369C484.699 140.909 485.319 143.899 485.309 147.689C485.289 152.969 485.275 156.769 485.269 159.089C485.285 159.385 485.186 159.675 484.992 159.899C484.798 160.122 484.525 160.262 484.23 160.288C483.936 160.314 483.642 160.224 483.412 160.038C483.183 159.851 483.034 159.583 482.999 159.289L482.749 157.939C482.732 157.851 482.691 157.769 482.632 157.702C482.573 157.635 482.497 157.586 482.412 157.559C482.328 157.532 482.238 157.529 482.153 157.55C482.067 157.572 481.99 157.616 481.929 157.679ZM481.839 150.469C479.485 150.296 477.182 150.559 474.929 151.259C474.587 151.371 474.278 151.563 474.029 151.819C472.655 153.273 472.352 154.733 473.119 156.199C473.396 156.737 473.854 157.183 474.436 157.486C475.019 157.789 475.704 157.936 476.409 157.909C480.609 157.756 482.632 155.496 482.479 151.129C482.474 150.959 482.406 150.797 482.287 150.675C482.169 150.552 482.009 150.479 481.839 150.469Z" fill="black"/>
<path d="M464.651 140.52H462.631C462.438 140.52 462.281 140.676 462.281 140.87V159.63C462.281 159.823 462.438 159.98 462.631 159.98H464.651C464.845 159.98 465.001 159.823 465.001 159.63V140.87C465.001 140.676 464.845 140.52 464.651 140.52Z" fill="black"/>
<path d="M82.0113 145.23C82.1779 145.23 82.3313 145.19 82.4713 145.11C84.2646 144.163 86.0546 143.223 87.8413 142.29C87.9413 142.236 88.0313 142.24 88.1113 142.3C88.2379 142.386 88.2913 142.486 88.2713 142.6C87.9379 144.593 87.5946 146.586 87.2413 148.58C87.2079 148.74 87.2179 148.9 87.2713 149.06C87.3179 149.193 87.3979 149.316 87.5113 149.43C88.9713 150.836 90.4213 152.246 91.8613 153.66C91.9413 153.74 91.9646 153.83 91.9312 153.93C91.8846 154.07 91.8079 154.146 91.7013 154.16C89.7013 154.46 87.6979 154.75 85.6913 155.03C85.5313 155.056 85.3846 155.116 85.2513 155.21C85.1313 155.296 85.0379 155.413 84.9713 155.56C84.0779 157.38 83.1813 159.193 82.2813 161C82.2346 161.1 82.1613 161.15 82.0613 161.15C81.9079 161.15 81.8079 161.1 81.7613 161C80.8613 159.193 79.9679 157.38 79.0813 155.56C79.0079 155.406 78.9046 155.283 78.7713 155.19C78.6513 155.103 78.5113 155.05 78.3513 155.03C76.3446 154.743 74.3446 154.453 72.3513 154.16C72.2379 154.14 72.1646 154.083 72.1313 153.99C72.0846 153.85 72.1012 153.74 72.1812 153.66C73.6279 152.246 75.0779 150.836 76.5313 149.43C76.6513 149.316 76.7379 149.18 76.7913 149.02C76.8313 148.886 76.8379 148.736 76.8113 148.57C76.4579 146.576 76.1146 144.583 75.7813 142.59C75.7679 142.483 75.8013 142.4 75.8813 142.34C76.0013 142.253 76.1113 142.236 76.2113 142.29C77.9979 143.223 79.7879 144.163 81.5813 145.11C81.7213 145.19 81.8646 145.23 82.0113 145.23Z" fill="black"/>
</g>
<defs>
<clipPath id="clip0_308_651">
<rect width="527" height="169" fill="white"/>
</clipPath>
</defs>
</svg>
