<svg width="823" height="593" viewBox="0 0 823 593" fill="none" xmlns="http://www.w3.org/2000/svg">
<g clip-path="url(#clip0_307_122)">
<path d="M236.32 439.61C236.293 337.43 236.32 235.31 236.4 133.25C236.407 125.423 236.737 120.206 237.39 117.6C241.54 101.06 254.98 91.1998 271.82 91.0998C287.7 90.9998 297.287 90.9298 300.58 90.8898C300.684 90.8872 300.783 90.8449 300.856 90.7721C300.929 90.6992 300.97 90.6015 300.97 90.4998C301.083 68.6798 301.103 47.1798 301.03 25.9998C301.017 21.7731 300.733 18.7798 300.18 17.0198C297.48 8.39981 290.87 2.73981 281.98 1.56981C280.127 1.32314 277.89 1.1998 275.27 1.1998C145.643 1.25313 63.0565 1.24646 27.5098 1.1798C22.3898 1.17313 18.9165 1.47314 17.0898 2.07981C9.96317 4.45314 5.17318 8.75648 2.71985 14.9898C1.75985 17.4231 1.27984 22.8331 1.27984 31.2198C1.27318 284.5 1.27985 463.343 1.29985 567.75C1.29985 581.04 10.4498 590.49 23.7498 590.91C25.8632 590.976 28.1132 591.01 30.4998 591.01C106.72 590.97 187.553 590.966 273 591C276.11 591 282.03 591.04 285.58 589.75C295.44 586.16 300.88 577.93 300.99 567.5C301.063 560.773 301.077 538.58 301.03 500.92C301.03 500.817 301.01 500.714 300.97 500.619C300.931 500.524 300.873 500.437 300.801 500.365C300.728 500.292 300.642 500.235 300.548 500.196C300.453 500.158 300.352 500.139 300.25 500.14C290.057 500.193 280.237 500.103 270.79 499.87C259.377 499.583 250.35 495.49 243.71 487.59" stroke="#7D786C" stroke-width="2"/>
<path d="M236.319 439.61C236.293 447.937 236.343 456.317 236.469 464.75C236.589 473.16 238.289 480.91 243.709 487.59" stroke="#868378" stroke-width="2"/>
<path d="M821.839 442.09L238.748 442.15C238.614 442.15 238.481 442.177 238.357 442.229C238.233 442.281 238.121 442.357 238.027 442.453C237.933 442.549 237.859 442.662 237.81 442.787C237.76 442.912 237.736 443.046 237.738 443.18C237.912 450.686 237.952 458.963 237.858 468.01C237.792 474.816 239.928 481.143 244.268 486.99" stroke="#2F3234" stroke-width="2"/>
<path d="M584.57 500.1L475.34 500.14" stroke="#2F3234" stroke-width="2"/>
<path d="M591.189 562.4L464.949 562.41" stroke="#2F3234" stroke-width="2"/>
<path d="M198.508 134.35C198.508 131.616 197.422 128.993 195.488 127.06C193.555 125.126 190.932 124.04 188.198 124.04H63.478C60.7436 124.04 58.1212 125.126 56.1877 127.06C54.2542 128.993 53.168 131.616 53.168 134.35V134.69C53.168 137.424 54.2542 140.047 56.1877 141.98C58.1212 143.914 60.7436 145 63.478 145H188.198C190.932 145 193.555 143.914 195.488 141.98C197.422 140.047 198.508 137.424 198.508 134.69V134.35Z" stroke="#D4CDBA" stroke-width="2"/>
<path d="M198.482 203.2C198.482 200.46 197.393 197.832 195.456 195.895C193.519 193.958 190.891 192.87 188.152 192.87H63.4315C60.6919 192.87 58.0644 193.958 56.1271 195.895C54.1899 197.832 53.1016 200.46 53.1016 203.2V203.54C53.1016 206.279 54.1899 208.907 56.1271 210.844C58.0644 212.781 60.6919 213.87 63.4315 213.87H188.152C189.508 213.87 190.851 213.602 192.105 213.083C193.358 212.564 194.497 211.803 195.456 210.844C196.415 209.885 197.176 208.746 197.695 207.493C198.214 206.239 198.482 204.896 198.482 203.54V203.2Z" stroke="#D4CDBA" stroke-width="2"/>
<path d="M59.8799 449.299C58.944 456.506 60.9185 463.79 65.3691 469.55C69.8197 475.31 76.3818 479.073 83.6119 480.012C90.842 480.951 98.1477 478.989 103.922 474.557C109.696 470.125 113.466 463.587 114.402 456.381C115.338 449.174 113.363 441.89 108.913 436.13C104.462 430.371 97.9 426.607 90.6699 425.668C83.4399 424.729 76.1341 426.691 70.3599 431.123C64.5856 435.555 60.8159 442.093 59.8799 449.299Z" stroke="#7D786C" stroke-width="2"/>
<path d="M103.661 520.44C103.661 518.347 103.249 516.274 102.448 514.34C101.647 512.406 100.473 510.649 98.9925 509.169C97.5124 507.689 95.7552 506.514 93.8212 505.713C91.8873 504.912 89.8145 504.5 87.7213 504.5C85.628 504.5 83.5552 504.912 81.6213 505.713C79.6873 506.514 77.9301 507.689 76.45 509.169C74.9698 510.649 73.7957 512.406 72.9946 514.34C72.1936 516.274 71.7812 518.347 71.7812 520.44C71.7813 524.668 73.4606 528.722 76.45 531.711C79.4393 534.701 83.4937 536.38 87.7213 536.38C91.9488 536.38 96.0032 534.701 98.9925 531.711C101.982 528.722 103.661 524.668 103.661 520.44Z" stroke="#7D786C" stroke-width="2"/>
<path d="M799.01 126.69C799.01 123.844 797.879 121.115 795.867 119.103C793.855 117.09 791.125 115.96 788.28 115.96H270.16C267.314 115.96 264.585 117.09 262.572 119.103C260.56 121.115 259.43 123.844 259.43 126.69V413.29C259.43 414.699 259.707 416.094 260.246 417.396C260.786 418.698 261.576 419.881 262.572 420.877C263.569 421.874 264.752 422.664 266.053 423.203C267.355 423.742 268.751 424.02 270.16 424.02H788.28C789.689 424.02 791.084 423.742 792.386 423.203C793.688 422.664 794.871 421.874 795.867 420.877C796.863 419.881 797.654 418.698 798.193 417.396C798.732 416.094 799.01 414.699 799.01 413.29V126.69Z" stroke="#24272A" stroke-width="2"/>
<path d="M507.901 289.99C499.901 280.957 490.331 269.947 479.191 256.96C475.851 253.067 472.135 251.257 468.041 251.53C459.221 252.11 452.511 260.4 454.511 269.04C454.971 271.027 457.161 274.293 461.081 278.84C483.335 304.58 495.248 318.38 496.821 320.24C501.371 325.62 506.871 327.99 513.361 325.48C515.155 324.787 517.745 322.54 521.131 318.74C539.785 297.787 565.025 269.617 596.851 234.23C600.991 229.63 604.271 226.15 603.671 220.51C602.821 212.63 596.471 206.63 588.441 207.16C585.401 207.36 582.848 208.487 580.781 210.54C578.781 212.52 576.245 215.227 573.171 218.66C553.778 240.313 532.358 264.09 508.911 289.99C508.848 290.061 508.77 290.117 508.683 290.156C508.596 290.195 508.502 290.215 508.406 290.215C508.311 290.215 508.217 290.195 508.13 290.156C508.043 290.117 507.965 290.061 507.901 289.99Z" stroke="#135026" stroke-width="2"/>
<path d="M236.32 439.61C236.293 447.936 236.343 456.316 236.47 464.75C236.59 473.16 238.29 480.91 243.71 487.59C250.35 495.49 259.377 499.583 270.79 499.87C280.237 500.103 290.057 500.193 300.25 500.14C300.352 500.139 300.453 500.158 300.548 500.196C300.642 500.235 300.728 500.292 300.801 500.365C300.873 500.437 300.931 500.524 300.97 500.619C301.01 500.714 301.03 500.817 301.03 500.92C301.077 538.58 301.063 560.773 300.99 567.5C300.88 577.93 295.44 586.16 285.58 589.75C282.03 591.04 276.11 591 273 591C187.553 590.966 106.72 590.97 30.4998 591.01C28.1132 591.01 25.8632 590.976 23.7498 590.91C10.4498 590.49 1.29985 581.04 1.29985 567.75C1.27985 463.343 1.27318 284.5 1.27984 31.2198C1.27984 22.8331 1.75985 17.4231 2.71985 14.9898C5.17318 8.75648 9.96317 4.45314 17.0898 2.07981C18.9165 1.47314 22.3898 1.17313 27.5098 1.1798C63.0565 1.24646 145.643 1.25313 275.27 1.1998C277.89 1.1998 280.127 1.32314 281.98 1.56981C290.87 2.73981 297.48 8.39981 300.18 17.0198C300.733 18.7798 301.017 21.7731 301.03 25.9998C301.103 47.1798 301.083 68.6798 300.97 90.4998C300.97 90.6015 300.929 90.6992 300.856 90.7721C300.783 90.8449 300.684 90.8872 300.58 90.8898C297.287 90.9298 287.7 90.9998 271.82 91.0998C254.98 91.1998 241.54 101.06 237.39 117.6C236.737 120.206 236.407 125.423 236.4 133.25C236.32 235.31 236.293 337.43 236.32 439.61ZM198.51 134.35C198.51 131.615 197.424 128.993 195.49 127.06C193.557 125.126 190.934 124.04 188.2 124.04H63.4798C60.7455 124.04 58.1231 125.126 56.1896 127.06C54.2561 128.993 53.1698 131.615 53.1698 134.35V134.69C53.1698 137.424 54.2561 140.047 56.1896 141.98C58.1231 143.914 60.7455 145 63.4798 145H188.2C190.934 145 193.557 143.914 195.49 141.98C197.424 140.047 198.51 137.424 198.51 134.69V134.35ZM198.48 203.2C198.48 200.46 197.392 197.833 195.454 195.895C193.517 193.958 190.89 192.87 188.15 192.87H63.4298C60.6902 192.87 58.0627 193.958 56.1254 195.895C54.1882 197.833 53.0998 200.46 53.0998 203.2V203.54C53.0998 206.279 54.1882 208.907 56.1254 210.844C58.0627 212.781 60.6902 213.87 63.4298 213.87H188.15C189.506 213.87 190.85 213.603 192.103 213.083C193.356 212.564 194.495 211.803 195.454 210.844C196.413 209.885 197.174 208.746 197.694 207.493C198.213 206.24 198.48 204.896 198.48 203.54V203.2ZM59.8788 449.299C58.9429 456.506 60.9174 463.79 65.368 469.55C69.8186 475.309 76.3808 479.073 83.6108 480.012C90.8409 480.951 98.1467 478.988 103.921 474.557C109.695 470.125 113.465 463.587 114.401 456.38C115.337 449.174 113.362 441.89 108.912 436.13C104.461 430.37 97.8989 426.607 90.6689 425.668C83.4388 424.729 76.133 426.691 70.3588 431.123C64.5845 435.555 60.8148 442.093 59.8788 449.299ZM103.66 520.44C103.66 518.347 103.248 516.274 102.446 514.34C101.645 512.406 100.471 510.649 98.9911 509.169C97.511 507.688 95.7538 506.514 93.8198 505.713C91.8859 504.912 89.8131 504.5 87.7198 504.5C85.6266 504.5 83.5538 504.912 81.6199 505.713C79.6859 506.514 77.9287 507.688 76.4486 509.169C74.9684 510.649 73.7943 512.406 72.9932 514.34C72.1921 516.274 71.7798 518.347 71.7798 520.44C71.7798 524.667 73.4592 528.722 76.4486 531.711C79.4379 534.7 83.4923 536.38 87.7198 536.38C91.9474 536.38 96.0018 534.7 98.9911 531.711C101.98 528.722 103.66 524.667 103.66 520.44Z" fill="#F1E6CF"/>
<path d="M821.839 442.09L238.749 442.15C238.615 442.15 238.482 442.177 238.358 442.229C238.234 442.281 238.122 442.357 238.028 442.453C237.934 442.549 237.86 442.663 237.811 442.787C237.761 442.912 237.737 443.046 237.739 443.18C237.913 450.687 237.953 458.963 237.859 468.01C237.793 474.817 239.929 481.143 244.269 486.99C244.056 487.023 243.869 487.223 243.709 487.59C238.289 480.91 236.589 473.16 236.469 464.75C236.343 456.317 236.293 447.937 236.319 439.61C237.699 436.817 238.306 432.78 238.139 427.5C237.379 403.11 238.029 369.72 237.989 344.85C237.859 265.35 237.829 197.96 238.099 133.41C238.133 124.137 238.693 117.897 239.779 114.69C243.709 103.09 254.389 94.0001 266.999 93.0301C272.453 92.6101 280.409 92.4401 290.869 92.5201C298.149 92.5801 304.449 91.6001 311.199 91.6001C458.213 91.6601 617.589 91.6634 789.329 91.6101C804.089 91.6001 817.459 102.35 821.049 116.43C821.729 119.077 822.069 126.02 822.069 137.26C822.089 191.847 822.036 292.953 821.909 440.58C821.909 441.04 821.886 441.543 821.839 442.09ZM799.009 126.69C799.009 123.844 797.879 121.115 795.867 119.103C793.854 117.091 791.125 115.96 788.279 115.96H270.159C267.314 115.96 264.584 117.091 262.572 119.103C260.56 121.115 259.429 123.844 259.429 126.69V413.29C259.429 414.699 259.707 416.094 260.246 417.396C260.785 418.698 261.576 419.881 262.572 420.877C263.569 421.874 264.751 422.664 266.053 423.203C267.355 423.743 268.75 424.02 270.159 424.02H788.279C789.689 424.02 791.084 423.743 792.386 423.203C793.687 422.664 794.87 421.874 795.867 420.877C796.863 419.881 797.653 418.698 798.193 417.396C798.732 416.094 799.009 414.699 799.009 413.29V126.69Z" fill="#0D0D0D"/>
<path d="M799.01 413.29C799.01 414.699 798.732 416.094 798.193 417.396C797.654 418.698 796.863 419.881 795.867 420.877C794.871 421.874 793.688 422.664 792.386 423.203C791.084 423.742 789.689 424.02 788.28 424.02H270.16C268.751 424.02 267.355 423.742 266.053 423.203C264.752 422.664 263.569 421.874 262.572 420.877C261.576 419.881 260.786 418.698 260.246 417.396C259.707 416.094 259.43 414.699 259.43 413.29V126.69C259.43 123.844 260.56 121.115 262.572 119.103C264.585 117.09 267.314 115.96 270.16 115.96H788.28C791.125 115.96 793.855 117.09 795.867 119.103C797.879 121.115 799.01 123.844 799.01 126.69V413.29ZM533.61 388.21C540.41 388.017 546.003 387.527 550.39 386.74C595.25 378.71 631.79 346.08 644.43 302.44C667.03 224.36 606.82 150.08 527.01 152.32C447.19 154.55 391.23 232.08 418.17 308.77C433.23 351.64 471.53 382.17 516.77 387.68C521.19 388.22 526.803 388.397 533.61 388.21Z" fill="#2C2F32"/>
<path d="M188.202 124.04H63.4819C57.7878 124.04 53.1719 128.656 53.1719 134.35V134.69C53.1719 140.384 57.7878 145 63.4819 145H188.202C193.896 145 198.512 140.384 198.512 134.69V134.35C198.512 128.656 193.896 124.04 188.202 124.04Z" fill="#B6B3A4"/>
<path d="M188.152 192.87H63.4315C57.7264 192.87 53.1016 197.495 53.1016 203.2V203.54C53.1016 209.245 57.7264 213.87 63.4315 213.87H188.152C193.857 213.87 198.482 209.245 198.482 203.54V203.2C198.482 197.495 193.857 192.87 188.152 192.87Z" fill="#B6B3A4"/>
<path d="M507.901 289.99C507.965 290.061 508.043 290.117 508.13 290.156C508.217 290.195 508.311 290.215 508.406 290.215C508.502 290.215 508.596 290.195 508.683 290.156C508.77 290.117 508.848 290.061 508.911 289.99C532.358 264.09 553.778 240.313 573.171 218.66C576.245 215.227 578.781 212.52 580.781 210.54C582.848 208.487 585.401 207.36 588.441 207.16C596.471 206.63 602.821 212.63 603.671 220.51C604.271 226.15 600.991 229.63 596.851 234.23C565.025 269.617 539.785 297.787 521.131 318.74C517.745 322.54 515.155 324.787 513.361 325.48C506.871 327.99 501.371 325.62 496.821 320.24C495.248 318.38 483.335 304.58 461.081 278.84C457.161 274.293 454.971 271.027 454.511 269.04C452.511 260.4 459.221 252.11 468.041 251.53C472.135 251.257 475.851 253.067 479.191 256.96C490.331 269.947 499.901 280.957 507.901 289.99Z" fill="#FE552E"/>
<path d="M87.1809 479.19C101.662 479.19 113.401 467.451 113.401 452.97C113.401 438.489 101.662 426.75 87.1809 426.75C72.7 426.75 60.9609 438.489 60.9609 452.97C60.9609 467.451 72.7 479.19 87.1809 479.19Z" fill="#2C2F32"/>
<path d="M821.839 442.09C822.052 447.817 822.145 453.573 822.118 459.36C822.085 466.34 821.985 470.59 821.818 472.11C820.438 484.66 811.278 494.81 799.428 498.53C796.148 499.563 789.958 500.076 780.858 500.07C715.598 500.05 650.168 500.06 584.568 500.1L475.339 500.14C474.379 500.186 473.432 500.21 472.498 500.21C397.445 500.063 341.872 500.016 305.778 500.07C303.048 500.07 300.128 499.37 297.748 499.31C290.662 499.123 282.415 499.06 273.008 499.12C270.568 499.14 267.092 498.81 262.578 498.13C255.418 497.056 249.315 493.343 244.268 486.99C239.928 481.143 237.792 474.816 237.858 468.01C237.952 458.963 237.912 450.686 237.738 443.18C237.736 443.046 237.76 442.912 237.81 442.787C237.859 442.662 237.933 442.549 238.027 442.453C238.121 442.357 238.233 442.281 238.357 442.229C238.481 442.177 238.614 442.15 238.748 442.15L821.839 442.09Z" fill="#424446"/>
<path d="M584.569 500.1L594.099 560.69C594.115 560.784 594.108 560.881 594.081 560.972C594.054 561.064 594.006 561.148 593.942 561.218C593.877 561.288 593.797 561.343 593.709 561.378C593.62 561.413 593.524 561.427 593.429 561.42C592.209 561.333 591.463 561.66 591.189 562.4L464.949 562.41C467.869 542.943 470.879 523.557 473.979 504.25C474.209 502.78 474.899 501.63 475.339 500.14L584.569 500.1Z" fill="#737373"/>
<path d="M87.7586 535.19C95.8772 535.19 102.459 528.609 102.459 520.49C102.459 512.371 95.8772 505.79 87.7586 505.79C79.64 505.79 73.0586 512.371 73.0586 520.49C73.0586 528.609 79.64 535.19 87.7586 535.19Z" fill="#2C2F32"/>
<path d="M591.19 562.4C599.483 562.453 607.766 562.487 616.04 562.5C621.726 562.507 625.47 562.893 627.27 563.66C636.46 567.56 636.97 577.11 635.72 585.97C635.246 589.29 633.347 590.96 630.02 590.98C597.447 591.153 532.073 591.173 433.9 591.04C429.6 591.033 427.203 590.92 426.71 590.7C422.35 588.8 422.85 581.6 422.98 577.55C423.2 571.01 426.15 565.86 432.26 563.5C433.96 562.847 437.503 562.517 442.89 562.51C450.516 562.49 457.87 562.457 464.95 562.41L591.19 562.4Z" fill="#424446"/>
</g>
<defs>
<clipPath id="clip0_307_122">
<rect width="823" height="593" fill="white"/>
</clipPath>
</defs>
</svg>
