<svg width="503" height="272" viewBox="0 0 503 272" fill="none" xmlns="http://www.w3.org/2000/svg">
<g filter="url(#filter0_d_78_24)">
<path d="M468 9H35C21.1929 9 10 20.1929 10 34V236C10 249.807 21.1929 261 35 261H293.368C307.176 261 318.368 249.807 318.368 236V207.526C318.368 193.719 329.561 182.526 343.368 182.526H468C481.807 182.526 493 171.333 493 157.526V34C493 20.1929 481.807 9 468 9Z" fill="white" fill-opacity="0.23" shape-rendering="crispEdges"/>
<path d="M35 9.5H468C481.531 9.50002 492.5 20.469 492.5 34V157.526C492.5 171.057 481.531 182.026 468 182.026H343.368C329.285 182.026 317.868 193.443 317.868 207.526V236C317.868 249.531 306.899 260.5 293.368 260.5H35C21.469 260.5 10.5 249.531 10.5 236V34C10.5 20.469 21.469 9.5 35 9.5Z" stroke="white" stroke-opacity="0.15" shape-rendering="crispEdges"/>
</g>
<defs>
<filter id="filter0_d_78_24" x="0" y="0" width="503" height="272" filterUnits="userSpaceOnUse" color-interpolation-filters="sRGB">
<feFlood flood-opacity="0" result="BackgroundImageFix"/>
<feColorMatrix in="SourceAlpha" type="matrix" values="0 0 0 0 0 0 0 0 0 0 0 0 0 0 0 0 0 0 127 0" result="hardAlpha"/>
<feOffset dy="1"/>
<feGaussianBlur stdDeviation="5"/>
<feComposite in2="hardAlpha" operator="out"/>
<feColorMatrix type="matrix" values="0 0 0 0 0 0 0 0 0 0 0 0 0 0 0 0 0 0 0.03 0"/>
<feBlend mode="normal" in2="BackgroundImageFix" result="effect1_dropShadow_78_24"/>
<feBlend mode="normal" in="SourceGraphic" in2="effect1_dropShadow_78_24" result="shape"/>
</filter>
</defs>
</svg>
