<?xml version="1.0" encoding="UTF-8" standalone="no"?>
<!DOCTYPE svg PUBLIC "-//W3C//DTD SVG 1.1//EN" "http://www.w3.org/Graphics/SVG/1.1/DTD/svg11.dtd">
<svg xmlns="http://www.w3.org/2000/svg" version="1.1" viewBox="0.00 0.00 811.00 491.00">
<g stroke-width="2.00" fill="none" stroke-linecap="butt">
<path stroke="#ffaa97" vector-effect="non-scaling-stroke" d="
  M 397.16 153.48
  Q 382.08 153.55 366.89 153.53
  Q 360.98 153.53 358.68 154.32
  C 351.38 156.81 346.76 163.67 346.77 171.37
  Q 346.85 246.06 346.84 320.74"
/>
<path stroke="#ac5744" vector-effect="non-scaling-stroke" d="
  M 346.84 320.74
  Q 346.47 320.69 346.21 320.64
  A 0.40 0.40 0.0 0 0 345.77 320.87
  Q 345.62 321.22 345.99 320.78"
/>
<path stroke="#acacac" vector-effect="non-scaling-stroke" d="
  M 346.83 325.01
  L 346.84 320.74"
/>
<path stroke="#ffaa97" vector-effect="non-scaling-stroke" d="
  M 258.72 293.61
  Q 300.23 293.63 301.75 293.68
  C 309.15 293.94 315.47 291.50 318.52 284.96
  Q 319.80 282.20 319.78 273.35
  Q 319.74 261.27 319.81 218.60
  C 319.82 210.55 319.11 205.70 312.55 201.77
  C 308.88 199.57 304.51 199.44 300.20 199.65
  A 0.38 0.38 0.0 0 1 299.80 199.27
  C 300.01 185.27 300.96 170.80 292.18 158.39
  C 284.71 147.81 272.37 140.86 258.81 140.86
  C 245.24 140.85 232.90 147.78 225.41 158.36
  C 216.62 170.75 217.56 185.22 217.75 199.22
  A 0.38 0.38 0.0 0 1 217.35 199.60
  C 213.04 199.39 208.67 199.51 205.00 201.71
  C 198.43 205.63 197.72 210.48 197.72 218.53
  Q 197.74 261.20 197.69 273.28
  Q 197.66 282.13 198.93 284.89
  C 201.98 291.44 208.29 293.88 215.70 293.63
  Q 217.21 293.58 258.72 293.61"
/>
<path stroke="#ffaa97" vector-effect="non-scaling-stroke" d="
  M 233.74 199.52
  L 284.10 199.52
  A 0.23 0.23 0.0 0 0 284.33 199.29
  L 284.33 182.30
  A 25.70 24.36 90.0 0 0 259.97 156.60
  L 257.87 156.60
  A 25.70 24.36 -90.0 0 0 233.51 182.30
  L 233.51 199.29
  A 0.23 0.23 0.0 0 0 233.74 199.52"
/>
<path stroke="#ffaa97" vector-effect="non-scaling-stroke" d="
  M 258.56 271.12
  Q 263.50 271.15 263.95 271.13
  A 0.59 0.59 0.0 0 0 264.51 270.55
  L 264.64 254.94
  A 1.09 1.05 72.3 0 1 265.05 254.11
  Q 266.54 252.95 267.67 251.93
  C 276.48 243.92 270.57 229.09 258.77 229.03
  C 246.97 228.96 240.92 243.74 249.64 251.84
  Q 250.76 252.87 252.24 254.04
  A 1.09 1.05 -71.7 0 1 252.64 254.88
  L 252.61 270.49
  A 0.59 0.59 0.0 0 0 253.17 271.08
  Q 253.61 271.10 258.56 271.12"
/>
<path stroke="#acacac" vector-effect="non-scaling-stroke" d="
  M 570.02 187.83
  A 1.93 1.93 0.0 0 0 568.09 185.90
  A 1.93 1.93 0.0 0 0 566.16 187.83
  A 1.93 1.93 0.0 0 0 568.09 189.76
  A 1.93 1.93 0.0 0 0 570.02 187.83"
/>
<path stroke="#acacac" vector-effect="non-scaling-stroke" d="
  M 604.22 187.79
  A 1.90 1.90 0.0 0 0 602.32 185.89
  A 1.90 1.90 0.0 0 0 600.42 187.79
  A 1.90 1.90 0.0 0 0 602.32 189.69
  A 1.90 1.90 0.0 0 0 604.22 187.79"
/>
<path stroke="#acacac" vector-effect="non-scaling-stroke" d="
  M 379.08 199.48
  L 381.49 199.48
  A 0.84 0.83 -15.0 0 1 382.21 199.89
  L 385.52 205.62
  A 2.68 2.67 -14.9 0 0 387.84 206.96
  L 388.63 206.96
  A 0.86 0.86 0.0 0 0 389.38 205.67
  L 385.91 199.66
  A 0.76 0.75 58.2 0 1 386.14 198.65
  Q 391.36 195.06 387.96 189.03
  A 2.12 2.08 0.8 0 0 387.18 188.24
  C 383.65 186.22 379.73 186.73 375.61 186.75
  A 0.61 0.61 0.0 0 0 375.00 187.36
  L 375.00 206.22
  A 0.54 0.54 0.0 0 0 375.54 206.76
  L 377.94 206.76
  A 0.55 0.55 0.0 0 0 378.49 206.21
  L 378.49 200.07
  A 0.59 0.59 0.0 0 1 379.08 199.48"
/>
<path stroke="#acacac" vector-effect="non-scaling-stroke" d="
  M 410.13 187.09
  A 0.36 0.36 0.0 0 0 409.77 186.73
  L 407.23 186.73
  A 0.36 0.36 0.0 0 0 406.87 187.09
  L 406.87 206.37
  A 0.36 0.36 0.0 0 0 407.23 206.73
  L 409.77 206.73
  A 0.36 0.36 0.0 0 0 410.13 206.37
  L 410.13 187.09"
/>
<path stroke="#acacac" vector-effect="non-scaling-stroke" d="
  M 487.88 193.70
  C 486.12 191.65 483.76 191.15 481.34 192.35
  C 477.47 194.28 477.48 201.05 479.10 204.16
  C 480.38 206.63 484.46 208.26 487.00 205.78
  Q 487.40 205.38 487.95 204.89
  A 0.38 0.38 0.0 0 1 488.58 205.17
  L 488.57 206.19
  A 0.56 0.56 0.0 0 0 489.13 206.76
  L 491.24 206.78
  A 0.48 0.48 0.0 0 0 491.73 206.30
  L 491.89 187.32
  A 0.66 0.66 0.0 0 0 491.24 186.65
  L 489.26 186.64
  A 0.64 0.64 0.0 0 0 488.62 187.27
  L 488.57 193.44
  A 0.39 0.39 0.0 0 1 487.88 193.70"
/>
<path stroke="#acacac" vector-effect="non-scaling-stroke" d="
  M 535.08 193.72
  Q 535.08 193.71 535.14 192.62
  A 0.63 0.63 0.0 0 0 534.51 191.95
  L 532.63 191.95
  A 0.64 0.63 90.0 0 0 532.00 192.59
  L 532.00 206.14
  A 0.63 0.62 90.0 0 0 532.62 206.77
  L 534.78 206.77
  A 0.61 0.60 -0.9 0 0 535.39 206.15
  Q 535.34 204.20 535.28 198.99
  Q 535.22 194.33 539.82 195.06
  A 0.43 0.43 0.0 0 0 540.32 194.63
  L 540.32 192.26
  A 0.60 0.60 0.0 0 0 539.77 191.66
  Q 537.17 191.43 535.67 193.77
  A 0.34 0.33 49.7 0 1 535.08 193.72"
/>
<path stroke="#acacac" vector-effect="non-scaling-stroke" d="
  M 404.4205 197.9723
  A 6.27 6.27 0.0 0 0 398.1069 191.7462
  L 396.9670 191.7542
  A 6.27 6.27 0.0 0 0 390.7409 198.0678
  L 390.7595 200.7277
  A 6.27 6.27 0.0 0 0 397.0731 206.9538
  L 398.2130 206.9458
  A 6.27 6.27 0.0 0 0 404.4391 200.6322
  L 404.4205 197.9723"
/>
<path stroke="#acacac" vector-effect="non-scaling-stroke" d="
  M 416.41 200.22
  L 425.22 200.26
  A 0.62 0.61 2.8 0 0 425.84 199.70
  C 426.73 190.42 414.50 188.67 412.81 196.89
  Q 412.10 200.33 413.01 202.71
  C 415.12 208.22 422.89 208.58 425.59 203.24
  A 0.54 0.54 0.0 0 0 425.17 202.47
  Q 423.68 202.30 422.38 203.06
  C 419.52 204.72 416.95 204.84 415.87 200.94
  A 0.56 0.56 0.0 0 1 416.41 200.22"
/>
<path stroke="#acacac" vector-effect="non-scaling-stroke" d="
  M 433.51 200.73
  Q 435.10 201.11 435.68 201.39
  A 1.31 1.31 0.0 0 1 435.82 203.67
  C 432.48 205.85 431.44 201.76 428.39 202.55
  A 0.83 0.83 0.0 0 0 427.86 203.71
  Q 429.14 206.30 432.03 206.83
  C 434.60 207.31 438.59 206.71 439.46 203.74
  C 440.73 199.38 437.19 198.73 434.03 197.97
  Q 432.43 197.59 431.86 197.31
  A 1.31 1.31 0.0 0 1 431.72 195.03
  C 435.06 192.85 436.10 196.94 439.15 196.15
  A 0.83 0.83 0.0 0 0 439.68 194.99
  Q 438.40 192.40 435.51 191.87
  C 432.94 191.39 428.95 191.99 428.08 194.97
  C 426.81 199.32 430.35 199.97 433.51 200.73"
/>
<path stroke="#acacac" vector-effect="non-scaling-stroke" d="
  M 457.04 205.01
  Q 457.20 205.54 457.08 206.27
  A 0.43 0.42 4.6 0 0 457.50 206.76
  L 459.71 206.76
  A 0.51 0.51 0.0 0 0 460.22 206.25
  L 460.22 195.90
  A 3.39 3.39 0.0 0 0 458.65 193.04
  C 455.21 190.85 450.02 191.13 448.35 195.59
  A 0.48 0.47 -74.2 0 0 448.70 196.22
  C 451.87 196.85 453.39 192.67 456.65 195.51
  A 1.44 1.43 64.7 0 1 455.75 198.03
  C 453.07 198.11 449.42 198.23 448.10 200.58
  Q 446.99 202.56 448.30 204.76
  C 450.07 207.73 454.37 207.58 456.65 204.93
  A 0.23 0.23 0.0 0 1 457.04 205.01"
/>
<path stroke="#acacac" vector-effect="non-scaling-stroke" d="
  M 466.30 193.70
  L 466.30 192.47
  A 0.50 0.49 90.0 0 0 465.81 191.97
  L 463.85 191.97
  A 0.69 0.69 0.0 0 0 463.16 192.66
  L 463.16 206.28
  A 0.50 0.50 0.0 0 0 463.66 206.78
  L 465.98 206.78
  A 0.50 0.49 -0.0 0 0 466.48 206.29
  L 466.48 197.63
  A 2.88 2.88 0.0 0 1 469.01 194.77
  L 469.46 194.72
  A 2.55 2.55 0.0 0 1 472.32 197.25
  L 472.32 206.34
  A 0.43 0.43 0.0 0 0 472.75 206.77
  L 475.18 206.77
  A 0.50 0.49 -0.6 0 0 475.68 206.27
  Q 475.59 200.24 475.63 199.33
  C 475.88 194.34 474.18 190.51 468.70 192.10
  A 1.10 1.07 13.3 0 0 468.25 192.37
  L 466.74 193.88
  A 0.26 0.26 0.0 0 1 466.30 193.70"
/>
<path stroke="#acacac" vector-effect="non-scaling-stroke" d="
  M 505.23 205.10
  C 507.01 207.14 509.38 207.62 511.79 206.39
  C 515.66 204.42 515.59 197.64 513.94 194.54
  C 512.63 192.07 508.53 190.47 506.00 192.98
  Q 505.60 193.38 505.06 193.88
  A 0.38 0.38 0.0 0 1 504.42 193.61
  L 504.42 192.58
  A 0.56 0.56 0.0 0 0 503.86 192.02
  L 501.74 192.02
  A 0.48 0.48 0.0 0 0 501.26 192.50
  L 501.26 211.53
  A 0.66 0.66 0.0 0 0 501.92 212.19
  L 503.90 212.19
  A 0.64 0.64 0.0 0 0 504.54 211.55
  L 504.54 205.36
  A 0.39 0.39 0.0 0 1 505.23 205.10"
/>
<path stroke="#acacac" vector-effect="non-scaling-stroke" d="
  M 520.22 200.24
  L 529.02 200.24
  A 0.62 0.61 2.5 0 0 529.64 199.68
  C 530.49 190.39 518.25 188.70 516.60 196.93
  Q 515.91 200.37 516.83 202.74
  C 518.96 208.24 526.73 208.57 529.41 203.22
  A 0.54 0.54 0.0 0 0 528.98 202.45
  Q 527.49 202.29 526.20 203.05
  C 523.35 204.72 520.78 204.85 519.68 200.96
  A 0.56 0.56 0.0 0 1 520.22 200.24"
/>
<path stroke="#acacac" vector-effect="non-scaling-stroke" d="
  M 554.02 206.82
  A 0.52 0.51 0.0 0 0 554.54 206.31
  L 554.54 197.66
  A 2.84 2.84 0.0 0 1 557.03 194.84
  L 557.39 194.79
  A 2.29 2.29 0.0 0 1 559.96 197.06
  L 559.96 206.29
  A 0.57 0.57 0.0 0 0 560.53 206.86
  L 562.55 206.86
  A 0.59 0.59 0.0 0 0 563.14 206.27
  Q 563.20 199.80 563.08 195.78
  C 562.94 191.13 557.09 190.35 554.62 193.78
  A 0.59 0.59 0.0 0 1 553.64 193.76
  Q 551.35 190.25 547.26 192.51
  C 546.86 192.72 546.54 193.27 546.10 193.74
  A 0.28 0.28 0.0 0 1 545.62 193.55
  L 545.62 192.49
  A 0.56 0.56 0.0 0 0 545.06 191.93
  L 543.04 191.93
  A 0.50 0.49 0.0 0 0 542.54 192.42
  L 542.54 206.33
  A 0.48 0.48 0.0 0 0 543.02 206.81
  L 545.44 206.81
  A 0.55 0.55 0.0 0 0 545.99 206.26
  L 546.02 197.26
  A 2.52 2.51 -1.3 0 1 548.42 194.75
  L 548.66 194.73
  A 2.26 2.25 -3.0 0 1 551.15 196.97
  L 551.14 206.27
  A 0.55 0.55 0.0 0 0 551.69 206.82
  L 554.02 206.82"
/>
<path stroke="#acacac" vector-effect="non-scaling-stroke" d="
  M 578.21 200.75
  Q 579.81 201.12 580.38 201.39
  A 1.31 1.31 0.0 0 1 580.54 203.67
  C 577.22 205.87 576.15 201.79 573.11 202.61
  A 0.83 0.82 -21.0 0 0 572.59 203.77
  Q 573.89 206.35 576.78 206.86
  C 579.35 207.32 583.33 206.69 584.17 203.71
  C 585.41 199.35 581.87 198.72 578.71 197.98
  Q 577.11 197.62 576.54 197.34
  A 1.31 1.31 0.0 0 1 576.38 195.07
  C 579.70 192.86 580.77 196.94 583.81 196.13
  A 0.83 0.82 -21.0 0 0 584.33 194.97
  Q 583.03 192.39 580.14 191.88
  C 577.57 191.42 573.58 192.05 572.74 195.03
  C 571.51 199.39 575.05 200.01 578.21 200.75"
/>
<path stroke="#acacac" vector-effect="non-scaling-stroke" d="
  M 591.95 200.74
  Q 593.55 201.13 594.12 201.40
  A 1.31 1.31 0.0 0 1 594.26 203.68
  C 590.93 205.85 589.89 201.77 586.85 202.56
  A 0.82 0.82 0.0 0 0 586.32 203.71
  Q 587.60 206.30 590.48 206.83
  C 593.04 207.31 597.02 206.71 597.89 203.74
  C 599.15 199.40 595.62 198.75 592.48 197.99
  Q 590.88 197.61 590.31 197.33
  A 1.31 1.31 0.0 0 1 590.17 195.06
  C 593.50 192.89 594.54 196.96 597.58 196.18
  A 0.82 0.82 0.0 0 0 598.11 195.02
  Q 596.83 192.44 593.95 191.91
  C 591.39 191.43 587.41 192.03 586.54 194.99
  C 585.28 199.33 588.81 199.98 591.95 200.74"
/>
<path stroke="#acacac" vector-effect="non-scaling-stroke" d="
  M 620.0124 198.0119
  A 6.24 6.24 0.0 0 0 613.7833 191.7610
  L 612.6433 191.7590
  A 6.24 6.24 0.0 0 0 606.3924 197.9881
  L 606.3876 200.7281
  A 6.24 6.24 0.0 0 0 612.6167 206.9790
  L 613.7567 206.9810
  A 6.24 6.24 0.0 0 0 620.0076 200.7519
  L 620.0124 198.0119"
/>
<path stroke="#acacac" vector-effect="non-scaling-stroke" d="
  M 625.56 193.72
  L 625.55 192.48
  A 0.50 0.49 89.5 0 0 625.05 191.99
  L 623.08 192.00
  A 0.69 0.69 0.0 0 0 622.39 192.70
  L 622.51 206.39
  A 0.50 0.50 0.0 0 0 623.01 206.89
  L 625.34 206.87
  A 0.50 0.49 -0.5 0 0 625.84 206.37
  L 625.77 197.67
  A 2.90 2.89 86.0 0 1 628.29 194.77
  L 628.74 194.72
  A 2.56 2.56 0.0 0 1 631.64 197.24
  L 631.71 206.37
  A 0.43 0.43 0.0 0 0 632.15 206.80
  L 634.59 206.78
  A 0.50 0.49 -1.0 0 0 635.09 206.28
  Q 634.95 200.22 634.98 199.30
  C 635.19 194.28 633.45 190.45 627.96 192.09
  A 1.11 1.08 12.8 0 0 627.51 192.37
  L 626.00 193.90
  A 0.26 0.26 0.0 0 1 625.56 193.72"
/>
<path stroke="#acacac" vector-effect="non-scaling-stroke" d="
  M 643.39 200.73
  Q 644.99 201.11 645.56 201.38
  A 1.31 1.31 0.0 0 1 645.71 203.66
  C 642.38 205.85 641.32 201.77 638.28 202.57
  A 0.83 0.82 -20.7 0 0 637.75 203.73
  Q 639.04 206.31 641.93 206.83
  C 644.50 207.31 648.49 206.69 649.35 203.72
  C 650.60 199.36 647.06 198.72 643.90 197.96
  Q 642.30 197.59 641.73 197.32
  A 1.31 1.31 0.0 0 1 641.58 195.04
  C 644.91 192.85 645.97 196.93 649.01 196.13
  A 0.83 0.82 -20.7 0 0 649.54 194.97
  Q 648.25 192.39 645.36 191.87
  C 642.79 191.39 638.80 192.01 637.94 194.98
  C 636.69 199.34 640.23 199.98 643.39 200.73"
/>
<path stroke="#acacac" vector-effect="non-scaling-stroke" d="
  M 569.75 192.46
  A 0.45 0.45 0.0 0 0 569.30 192.01
  L 566.82 192.01
  A 0.45 0.45 0.0 0 0 566.37 192.46
  L 566.37 206.28
  A 0.45 0.45 0.0 0 0 566.82 206.73
  L 569.30 206.73
  A 0.45 0.45 0.0 0 0 569.75 206.28
  L 569.75 192.46"
/>
<path stroke="#acacac" vector-effect="non-scaling-stroke" d="
  M 604.00 192.40
  A 0.39 0.39 0.0 0 0 603.61 192.01
  L 601.01 192.01
  A 0.39 0.39 0.0 0 0 600.62 192.40
  L 600.62 206.38
  A 0.39 0.39 0.0 0 0 601.01 206.77
  L 603.61 206.77
  A 0.39 0.39 0.0 0 0 604.00 206.38
  L 604.00 192.40"
/>
<path stroke="#ffaa97" vector-effect="non-scaling-stroke" d="
  M 633.26 285.34
  A 22.83 22.50 -3.1 0 0 636.67 288.36
  A 22.41 22.41 0.0 0 0 666.46 285.09"
/>
<path stroke="#c4dcfd" vector-effect="non-scaling-stroke" d="
  M 666.46 285.09
  A 22.41 22.40 52.4 0 0 669.71 260.02
  A 22.40 22.39 74.3 0 0 648.01 247.83
  A 22.42 22.41 1.8 0 0 627.57 266.99
  A 22.41 22.39 -62.3 0 0 633.26 285.34"
/>
<path stroke="#c48795" vector-effect="non-scaling-stroke" d="
  M 666.46 285.09
  Q 660.95 281.82 654.44 279.80"
/>
<path stroke="#ada498" vector-effect="non-scaling-stroke" d="
  M 654.44 279.80
  Q 654.11 275.46 659.10 271.42
  Q 660.14 270.57 659.21 269.41"
/>
<path stroke="#546d8f" vector-effect="non-scaling-stroke" d="
  M 659.21 269.41
  L 659.43 262.66
  A 4.52 4.48 23.5 0 0 658.11 259.34
  L 655.68 256.90
  A 4.66 4.65 -22.5 0 0 652.40 255.55
  L 647.12 255.55
  A 4.86 4.81 22.3 0 0 643.70 256.96
  L 641.04 259.62
  A 3.76 3.74 -25.6 0 0 639.96 262.67
  L 640.57 268.45"
/>
<path stroke="#ada498" vector-effect="non-scaling-stroke" d="
  M 640.57 268.45
  C 639.70 270.05 639.72 270.98 641.24 272.19
  Q 645.63 275.65 645.16 279.94"
/>
<path stroke="#c48795" vector-effect="non-scaling-stroke" d="
  M 645.16 279.94
  L 633.26 285.34"
/>
<path stroke="#e77232" vector-effect="non-scaling-stroke" d="
  M 654.44 279.80
  Q 653.53 285.69 648.37 284.37
  Q 645.06 283.53 645.16 279.94"
/>
<path stroke="#77572c" vector-effect="non-scaling-stroke" d="
  M 659.21 269.41
  Q 656.41 270.00 656.36 266.89
  A 0.93 0.92 10.6 0 0 655.78 266.05
  Q 655.27 265.85 654.31 265.91
  C 652.89 266.00 652.02 265.36 651.74 264.24
  A 0.93 0.93 0.0 0 0 650.18 263.81
  Q 648.04 265.94 645.75 265.33
  A 1.73 1.72 13.6 0 0 643.63 266.62
  L 643.03 269.29
  A 0.71 0.70 7.5 0 1 642.32 269.83
  Q 641.10 269.80 640.57 268.45"
/>
<path stroke="#acacac" vector-effect="non-scaling-stroke" d="
  M 433.03 261.21
  A 1.79 1.79 0.0 0 0 431.24 259.42
  A 1.79 1.79 0.0 0 0 429.45 261.21
  A 1.79 1.79 0.0 0 0 431.24 263.00
  A 1.79 1.79 0.0 0 0 433.03 261.21"
/>
<path stroke="#acacac" vector-effect="non-scaling-stroke" d="
  M 401.62 266.50
  C 399.99 264.64 397.82 264.21 395.62 265.34
  C 392.09 267.15 392.18 273.35 393.70 276.17
  C 394.90 278.43 398.65 279.87 400.96 277.57
  Q 401.32 277.21 401.81 276.75
  A 0.35 0.34 -21.9 0 1 402.40 276.99
  L 402.40 277.93
  A 0.51 0.51 0.0 0 0 402.92 278.44
  L 404.85 278.44
  A 0.44 0.44 0.0 0 0 405.29 278.00
  L 405.23 260.61
  A 0.60 0.60 0.0 0 0 404.62 260.01
  L 402.81 260.01
  A 0.58 0.58 0.0 0 0 402.23 260.60
  L 402.25 266.26
  A 0.36 0.36 0.0 0 1 401.62 266.50"
/>
<path stroke="#acacac" vector-effect="non-scaling-stroke" d="
  M 384.14 274.49
  Q 386.63 274.50 386.86 274.52
  A 0.93 0.92 -8.1 0 1 387.72 275.16
  L 388.62 277.91
  A 0.85 0.84 80.9 0 0 389.42 278.50
  L 391.51 278.50
  A 0.49 0.48 -9.4 0 0 391.97 277.86
  L 386.50 261.39
  A 1.34 1.32 4.7 0 0 385.83 260.61
  Q 385.08 260.24 384.17 260.24
  Q 383.26 260.24 382.51 260.60
  A 1.34 1.32 -4.5 0 0 381.84 261.38
  L 376.31 277.83
  A 0.49 0.48 9.6 0 0 376.77 278.47
  L 378.86 278.48
  A 0.85 0.84 -80.7 0 0 379.66 277.89
  L 380.57 275.15
  A 0.93 0.92 8.3 0 1 381.43 274.51
  Q 381.66 274.49 384.14 274.49"
/>
<path stroke="#a2d3b8" vector-effect="non-scaling-stroke" d="
  M 544.34 274.42
  L 539.00 269.10
  A 1.95 1.95 0.0 0 0 536.36 268.99
  L 536.28 269.05
  A 1.75 1.75 0.0 0 0 536.17 271.64
  L 543.13 278.52
  A 2.04 2.03 56.3 0 0 545.31 278.96
  Q 546.89 278.33 548.32 276.82
  Q 549.26 275.83 561.65 263.79
  A 1.87 1.87 0.0 0 0 561.67 261.12
  L 561.47 260.89
  A 1.62 1.61 -43.1 0 0 559.12 260.82
  L 545.52 274.42
  A 0.83 0.83 0.0 0 1 544.34 274.42"
/>
<path stroke="#a2d3b8" vector-effect="non-scaling-stroke" d="
  M 591.62 274.42
  L 586.27 269.11
  A 1.95 1.95 0.0 0 0 583.63 269.01
  L 583.55 269.07
  A 1.75 1.75 0.0 0 0 583.44 271.66
  L 590.42 278.52
  A 2.04 2.03 56.1 0 0 592.60 278.95
  Q 594.18 278.32 595.61 276.81
  Q 596.55 275.81 608.90 263.74
  A 1.87 1.87 0.0 0 0 608.92 261.06
  L 608.71 260.84
  A 1.62 1.61 -43.3 0 0 606.36 260.77
  L 592.80 274.41
  A 0.83 0.83 0.0 0 1 591.62 274.42"
/>
<path stroke="#acacac" vector-effect="non-scaling-stroke" d="
  M 418.83 278.38
  A 0.47 0.46 -0.3 0 0 419.30 277.92
  L 419.25 270.14
  A 2.56 2.55 86.1 0 1 421.48 267.59
  L 421.80 267.54
  A 2.06 2.06 0.0 0 1 424.12 269.57
  L 424.17 277.87
  A 0.51 0.51 0.0 0 0 424.68 278.38
  L 426.50 278.37
  A 0.53 0.53 0.0 0 0 427.03 277.84
  Q 427.05 272.02 426.92 268.40
  C 426.77 264.22 421.51 263.55 419.30 266.65
  A 0.54 0.53 -43.9 0 1 418.42 266.63
  Q 416.35 263.49 412.68 265.54
  C 412.32 265.73 412.04 266.23 411.64 266.65
  A 0.25 0.25 0.0 0 1 411.21 266.49
  L 411.20 265.53
  A 0.50 0.50 0.0 0 0 410.70 265.03
  L 408.88 265.04
  A 0.45 0.44 -0.3 0 0 408.43 265.49
  L 408.50 277.99
  A 0.43 0.43 0.0 0 0 408.94 278.42
  L 411.11 278.41
  A 0.49 0.49 0.0 0 0 411.61 277.91
  L 411.59 269.82
  A 2.26 2.26 0.0 0 1 413.73 267.55
  L 413.95 267.53
  A 2.03 2.03 0.0 0 1 416.20 269.53
  L 416.24 277.90
  A 0.49 0.49 0.0 0 0 416.74 278.39
  L 418.83 278.38"
/>
<path stroke="#acacac" vector-effect="non-scaling-stroke" d="
  M 438.43 266.51
  L 438.44 265.39
  A 0.45 0.44 -89.9 0 0 437.99 264.94
  L 436.21 264.94
  A 0.63 0.63 0.0 0 0 435.59 265.56
  L 435.56 277.92
  A 0.45 0.45 0.0 0 0 436.02 278.37
  L 438.12 278.38
  A 0.45 0.44 0.1 0 0 438.58 277.93
  L 438.59 270.08
  A 2.61 2.61 0.0 0 1 440.89 267.48
  L 441.30 267.44
  A 2.31 2.31 0.0 0 1 443.89 269.74
  L 443.87 277.99
  A 0.39 0.39 0.0 0 0 444.26 278.38
  L 446.47 278.38
  A 0.45 0.44 -0.5 0 0 446.92 277.93
  Q 446.85 272.46 446.89 271.63
  C 447.12 267.11 445.59 263.63 440.61 265.06
  A 1.00 0.97 13.4 0 0 440.21 265.31
  L 438.83 266.67
  A 0.24 0.23 -22.3 0 1 438.43 266.51"
/>
<path stroke="#acacac" vector-effect="non-scaling-stroke" d="
  M 432.85 265.54
  A 0.53 0.53 0.0 0 0 432.32 265.01
  L 430.24 265.01
  A 0.53 0.53 0.0 0 0 429.71 265.54
  L 429.71 277.92
  A 0.53 0.53 0.0 0 0 430.24 278.45
  L 432.32 278.45
  A 0.53 0.53 0.0 0 0 432.85 277.92
  L 432.85 265.54"
/>
<path stroke="#a2d3b8" vector-effect="non-scaling-stroke" d="
  M 647.5936 323.2551
  A 22.83 22.55 -96.0 0 0 627.5535 348.3171
  A 22.83 22.55 -96.0 0 0 652.3664 368.6649
  A 22.83 22.55 -96.0 0 0 672.4065 343.6029
  A 22.83 22.55 -96.0 0 0 647.5936 323.2551"
/>
<path stroke="#acacac" vector-effect="non-scaling-stroke" d="
  M 407.75 336.57
  A 1.84 1.84 0.0 0 0 405.91 334.73
  A 1.84 1.84 0.0 0 0 404.07 336.57
  A 1.84 1.84 0.0 0 0 405.91 338.41
  A 1.84 1.84 0.0 0 0 407.75 336.57"
/>
<path stroke="#acacac" vector-effect="non-scaling-stroke" d="
  M 398.36 351.74
  Q 398.37 351.76 398.22 352.92
  A 0.69 0.69 0.0 0 0 398.90 353.69
  L 400.65 353.69
  A 0.68 0.68 0.0 0 0 401.33 353.01
  L 401.33 336.36
  A 0.86 0.86 0.0 0 0 400.47 335.50
  L 398.69 335.50
  A 0.56 0.56 0.0 0 0 398.13 336.06
  L 398.13 342.16
  A 0.25 0.24 -63.7 0 1 397.69 342.31
  Q 394.95 338.70 391.40 340.84
  C 388.34 342.69 388.49 346.43 389.01 349.50
  C 389.75 353.84 395.19 355.49 397.70 351.70
  A 0.38 0.38 0.0 0 1 398.36 351.74"
/>
<path stroke="#acacac" vector-effect="non-scaling-stroke" d="
  M 375.64 344.70
  Q 375.65 352.28 375.69 353.00
  A 0.74 0.74 0.0 0 0 376.43 353.70
  L 386.56 353.70
  A 0.51 0.51 0.0 0 0 387.07 353.19
  L 387.07 351.20
  A 0.45 0.45 0.0 0 0 386.62 350.75
  L 379.37 350.75
  A 0.55 0.55 0.0 0 1 378.82 350.20
  L 378.82 346.42
  A 0.46 0.46 0.0 0 1 379.28 345.96
  L 385.72 345.96
  A 0.78 0.78 0.0 0 0 386.50 345.18
  Q 386.50 344.98 386.50 344.68
  Q 386.50 344.39 386.50 344.18
  A 0.78 0.78 0.0 0 0 385.72 343.41
  L 379.28 343.43
  A 0.46 0.46 0.0 0 1 378.81 342.97
  L 378.80 339.19
  A 0.55 0.55 0.0 0 1 379.35 338.64
  L 386.60 338.62
  A 0.45 0.45 0.0 0 0 387.05 338.16
  L 387.04 336.17
  A 0.51 0.51 0.0 0 0 386.53 335.67
  L 376.40 335.70
  A 0.74 0.74 0.0 0 0 375.67 336.40
  Q 375.63 337.12 375.64 344.70"
/>
<path stroke="#a2d3b8" vector-effect="non-scaling-stroke" d="
  M 544.37 350.60
  L 538.99 345.30
  A 1.96 1.95 47.1 0 0 536.35 345.20
  L 536.27 345.26
  A 1.76 1.75 47.2 0 0 536.17 347.86
  L 543.18 354.71
  A 2.05 2.04 56.0 0 0 545.37 355.14
  Q 546.95 354.50 548.37 352.98
  Q 549.31 351.98 561.66 339.85
  A 1.88 1.87 -45.0 0 0 561.67 337.18
  L 561.46 336.95
  A 1.62 1.61 -43.4 0 0 559.11 336.89
  L 545.55 350.59
  A 0.84 0.84 0.0 0 1 544.37 350.60"
/>
<path stroke="#a2d3b8" vector-effect="non-scaling-stroke" d="
  M 591.67 350.67
  L 586.30 345.37
  A 1.95 1.95 0.0 0 0 583.66 345.27
  L 583.58 345.33
  A 1.76 1.75 47.3 0 0 583.48 347.92
  L 590.47 354.78
  A 2.04 2.04 0.0 0 0 592.65 355.21
  Q 594.23 354.57 595.66 353.06
  Q 596.59 352.06 608.94 339.96
  A 1.88 1.87 -44.9 0 0 608.95 337.29
  L 608.75 337.06
  A 1.62 1.61 -43.4 0 0 606.40 337.00
  L 592.85 350.67
  A 0.83 0.83 0.0 0 1 591.67 350.67"
/>
<path stroke="#acacac" vector-effect="non-scaling-stroke" d="
  M 409.31 340.59
  A 1.48 1.06 -74.0 0 0 410.09 342.78
  Q 410.48 342.71 410.79 342.85
  A 0.56 0.56 0.0 0 1 411.12 343.36
  L 411.12 351.04
  A 1.12 1.06 -60.6 0 0 411.25 351.56
  Q 412.77 354.52 416.38 353.49
  A 1.20 1.17 -53.3 0 0 416.06 351.16
  Q 415.14 351.19 414.65 350.66
  A 1.43 1.41 -67.0 0 1 414.26 349.68
  L 414.26 343.10
  A 0.48 0.47 6.4 0 1 414.84 342.64
  L 416.41 342.99
  A 0.59 0.59 0.0 0 0 417.13 342.42
  L 417.13 340.98
  A 0.61 0.61 0.0 0 0 416.52 340.37
  L 414.75 340.37
  A 0.52 0.51 -0.0 0 1 414.23 339.86
  L 414.23 337.67
  A 0.55 0.54 90.0 0 0 413.69 337.12
  L 411.67 337.12
  A 0.65 0.65 0.0 0 0 411.02 337.77
  L 411.02 339.94
  A 0.48 0.47 -85.4 0 1 410.47 340.41
  Q 409.52 340.24 409.31 340.59"
/>
<path stroke="#acacac" vector-effect="non-scaling-stroke" d="
  M 430.7719 345.8509
  A 5.72 5.72 0.0 0 0 425.0619 340.1209
  L 424.0019 340.1191
  A 5.72 5.72 0.0 0 0 418.2719 345.8291
  L 418.2681 347.9891
  A 5.72 5.72 0.0 0 0 423.9781 353.7191
  L 425.0381 353.7209
  A 5.72 5.72 0.0 0 0 430.7681 348.0109
  L 430.7719 345.8509"
/>
<path stroke="#acacac" vector-effect="non-scaling-stroke" d="
  M 435.49 341.86
  Q 435.49 341.85 435.56 340.87
  A 0.57 0.57 0.0 0 0 435.00 340.26
  L 433.30 340.23
  A 0.58 0.57 -89.2 0 0 432.72 340.80
  L 432.55 353.04
  A 0.57 0.56 -89.2 0 0 433.10 353.61
  L 435.05 353.64
  A 0.55 0.54 -0.1 0 0 435.61 353.09
  Q 435.59 351.33 435.60 346.62
  Q 435.61 342.42 439.75 343.13
  A 0.39 0.39 0.0 0 0 440.21 342.75
  L 440.24 340.61
  A 0.55 0.54 3.4 0 0 439.75 340.06
  Q 437.41 339.82 436.02 341.92
  A 0.30 0.30 0.0 0 1 435.49 341.86"
/>
<path stroke="#acacac" vector-effect="non-scaling-stroke" d="
  M 407.5109 340.7427
  A 0.50 0.50 0.0 0 0 407.0118 340.2419
  L 404.8918 340.2382
  A 0.50 0.50 0.0 0 0 404.3909 340.7373
  L 404.3691 353.2173
  A 0.50 0.50 0.0 0 0 404.8682 353.7181
  L 406.9882 353.7218
  A 0.50 0.50 0.0 0 0 407.4891 353.2227
  L 407.5109 340.7427"
/>
<path stroke="#e8c79a" vector-effect="non-scaling-stroke" d="
  M 633.33 437.35
  A 22.71 22.71 0.0 0 0 648.00 444.45
  A 22.73 22.72 -66.0 0 0 666.51 437.33"
/>
<path stroke="#f9dfc5" vector-effect="non-scaling-stroke" d="
  M 666.51 437.33
  A 22.72 22.71 59.3 0 0 671.91 416.07
  A 22.72 22.72 0.0 0 0 663.01 403.23
  A 22.70 22.69 58.0 0 0 646.30 399.37
  A 22.73 22.73 0.0 0 0 627.35 419.07
  A 22.75 22.71 26.9 0 0 633.33 437.35"
/>
<path stroke="#e1a760" vector-effect="non-scaling-stroke" d="
  M 666.51 437.33
  L 655.86 432.68
  A 0.72 0.72 0.0 0 0 654.99 432.92
  C 654.47 433.66 654.29 434.38 653.47 435.13
  Q 649.31 438.95 645.76 434.26
  Q 645.25 433.59 644.78 433.00
  A 0.68 0.68 0.0 0 0 643.98 432.79
  L 633.33 437.35"
/>
<path stroke="#acacac" vector-effect="non-scaling-stroke" d="
  M 395.87 412.67
  A 1.85 1.85 0.0 0 0 394.02 410.82
  A 1.85 1.85 0.0 0 0 392.17 412.67
  A 1.85 1.85 0.0 0 0 394.02 414.52
  A 1.85 1.85 0.0 0 0 395.87 412.67"
/>
<path stroke="#acacac" vector-effect="non-scaling-stroke" d="
  M 383.05 429.88
  Q 384.22 429.88 384.35 429.82
  A 1.75 1.71 87.4 0 0 385.23 428.83
  L 390.97 412.38
  A 0.49 0.49 0.0 0 0 390.50 411.73
  L 388.17 411.73
  A 0.88 0.87 -81.4 0 0 387.34 412.35
  L 383.35 425.45
  A 0.40 0.20 -84.5 0 1 383.20 425.69
  Q 383.13 425.73 383.05 425.73
  Q 382.97 425.73 382.91 425.69
  A 0.40 0.20 84.4 0 1 382.75 425.45
  L 378.75 412.35
  A 0.88 0.87 81.3 0 0 377.92 411.73
  L 375.59 411.74
  A 0.49 0.49 0.0 0 0 375.12 412.39
  L 380.88 428.83
  A 1.75 1.71 -87.4 0 0 381.76 429.82
  Q 381.89 429.88 383.05 429.88"
/>
<path stroke="#a2d3b8" vector-effect="non-scaling-stroke" d="
  M 591.55 426.18
  L 586.20 420.91
  A 1.94 1.94 0.0 0 0 583.57 420.82
  L 583.49 420.88
  A 1.75 1.74 47.2 0 0 583.40 423.46
  L 590.37 430.26
  A 2.03 2.02 55.9 0 0 592.54 430.69
  Q 594.11 430.05 595.53 428.54
  Q 596.46 427.55 608.72 415.49
  A 1.87 1.86 -45.0 0 0 608.72 412.83
  L 608.52 412.60
  A 1.61 1.60 -43.5 0 0 606.18 412.55
  L 592.72 426.17
  A 0.83 0.83 0.0 0 1 591.55 426.18"
/>
<path stroke="#acacac" vector-effect="non-scaling-stroke" d="
  M 401.09 424.04
  L 409.10 424.08
  A 0.57 0.56 2.8 0 0 409.66 423.57
  C 410.48 415.12 399.34 413.53 397.80 421.01
  Q 397.16 424.14 397.99 426.30
  C 399.91 431.32 406.98 431.65 409.44 426.79
  A 0.49 0.49 0.0 0 0 409.05 426.09
  Q 407.70 425.94 406.52 426.62
  C 403.92 428.13 401.58 428.24 400.59 424.69
  A 0.51 0.51 0.0 0 1 401.09 424.04"
/>
<path stroke="#acacac" vector-effect="non-scaling-stroke" d="
  M 420.15 421.12
  Q 420.21 421.12 420.26 421.14
  A 0.33 0.12 22.4 0 1 420.45 421.31
  L 422.25 428.54
  A 1.90 1.90 0.0 0 0 425.89 428.71
  L 429.87 417.29
  A 0.62 0.61 -80.5 0 0 429.29 416.47
  L 427.02 416.47
  A 0.75 0.74 6.3 0 0 426.29 417.05
  L 424.32 425.80
  A 0.23 0.22 44.7 0 1 423.88 425.80
  L 421.89 417.36
  A 1.23 1.21 8.9 0 0 421.32 416.60
  Q 420.92 416.37 420.18 416.37
  Q 419.44 416.36 419.04 416.58
  A 1.23 1.21 -8.2 0 0 418.46 417.34
  L 416.37 425.76
  A 0.23 0.22 -44.0 0 1 415.93 425.75
  L 414.07 416.98
  A 0.75 0.74 -5.6 0 0 413.34 416.39
  L 411.07 416.36
  A 0.62 0.61 81.2 0 0 410.48 417.18
  L 414.33 428.64
  A 1.90 1.90 0.0 0 0 417.97 428.52
  L 419.86 421.31
  A 0.33 0.12 -21.7 0 1 420.05 421.14
  Q 420.09 421.12 420.15 421.12"
/>
<path stroke="#acacac" vector-effect="non-scaling-stroke" d="
  M 434.03 424.01
  L 442.04 424.10
  A 0.57 0.56 3.2 0 0 442.61 423.59
  C 443.48 415.14 432.35 413.47 430.76 420.96
  Q 430.10 424.08 430.91 426.25
  C 432.80 431.29 439.87 431.67 442.37 426.82
  A 0.49 0.49 0.0 0 0 441.98 426.11
  Q 440.63 425.95 439.45 426.63
  C 436.83 428.12 434.49 428.22 433.53 424.66
  A 0.51 0.51 0.0 0 1 434.03 424.01"
/>
<path stroke="#acacac" vector-effect="non-scaling-stroke" d="
  M 447.49 418.04
  Q 447.49 418.03 447.55 417.04
  A 0.57 0.57 0.0 0 0 446.99 416.43
  L 445.29 416.40
  A 0.58 0.57 -89.2 0 0 444.71 416.98
  L 444.55 429.26
  A 0.57 0.56 -89.2 0 0 445.10 429.84
  L 447.06 429.87
  A 0.55 0.54 -0.2 0 0 447.62 429.31
  Q 447.60 427.54 447.61 422.82
  Q 447.61 418.59 451.77 419.31
  A 0.39 0.39 0.0 0 0 452.23 418.92
  L 452.26 416.78
  A 0.55 0.55 0.0 0 0 451.77 416.22
  Q 449.41 415.99 448.02 418.09
  A 0.30 0.30 0.0 0 1 447.49 418.04"
/>
<path stroke="#acacac" vector-effect="non-scaling-stroke" d="
  M 395.6408 416.9527
  A 0.49 0.49 0.0 0 0 395.1517 416.4619
  L 393.0117 416.4581
  A 0.49 0.49 0.0 0 0 392.5208 416.9473
  L 392.4992 429.3673
  A 0.49 0.49 0.0 0 0 392.9883 429.8581
  L 395.1283 429.8619
  A 0.49 0.49 0.0 0 0 395.6192 429.3727
  L 395.6408 416.9527"
/>
<path stroke="#acacac" vector-effect="non-scaling-stroke" d="
  M 378.35 190.47
  L 378.41 196.01
  A 0.53 0.53 0.0 0 0 378.94 196.53
  L 382.29 196.50
  A 3.44 3.14 -0.6 0 0 385.70 193.32
  L 385.70 193.00
  A 3.44 3.14 -0.6 0 0 382.23 189.90
  L 378.88 189.93
  A 0.53 0.53 0.0 0 0 378.35 190.47"
/>
<path stroke="#acacac" vector-effect="non-scaling-stroke" d="
  M 484.8631 194.6105
  A 4.79 3.59 -90.8 0 0 481.3403 199.4501
  A 4.79 3.59 -90.8 0 0 484.9969 204.1895
  A 4.79 3.59 -90.8 0 0 488.5197 199.3499
  A 4.79 3.59 -90.8 0 0 484.8631 194.6105"
/>
<path stroke="#acacac" vector-effect="non-scaling-stroke" d="
  M 397.7112 194.4913
  A 4.90 3.65 -88.7 0 0 393.9509 199.3072
  A 4.90 3.65 -88.7 0 0 397.4888 204.2887
  A 4.90 3.65 -88.7 0 0 401.2491 199.4728
  A 4.90 3.65 -88.7 0 0 397.7112 194.4913"
/>
<path stroke="#acacac" vector-effect="non-scaling-stroke" d="
  M 416.10 197.87
  L 422.50 197.83
  A 0.14 0.14 0.0 0 0 422.64 197.69
  L 422.64 197.60
  A 3.28 3.09 -0.4 0 0 419.34 194.53
  L 419.22 194.53
  A 3.28 3.09 -0.4 0 0 415.96 197.64
  L 415.96 197.73
  A 0.14 0.14 0.0 0 0 416.10 197.87"
/>
<path stroke="#acacac" vector-effect="non-scaling-stroke" d="
  M 455.56 200.00
  Q 454.62 199.93 452.06 200.82
  C 450.50 201.37 450.96 203.72 452.48 204.06
  Q 454.51 204.51 456.44 203.09
  A 1.72 1.71 29.1 0 0 455.56 200.00"
/>
<path stroke="#acacac" vector-effect="non-scaling-stroke" d="
  M 508.1590 194.5404
  A 4.83 3.66 -89.3 0 0 504.4403 199.3253
  A 4.83 3.66 -89.3 0 0 508.0410 204.1996
  A 4.83 3.66 -89.3 0 0 511.7597 199.4147
  A 4.83 3.66 -89.3 0 0 508.1590 194.5404"
/>
<path stroke="#acacac" vector-effect="non-scaling-stroke" d="
  M 519.82 197.88
  L 526.34 197.84
  A 0.13 0.13 0.0 0 0 526.47 197.71
  L 526.47 197.64
  A 3.29 3.12 -0.3 0 0 523.16 194.54
  L 522.96 194.54
  A 3.29 3.12 -0.3 0 0 519.69 197.68
  L 519.69 197.75
  A 0.13 0.13 0.0 0 0 519.82 197.88"
/>
<path stroke="#acacac" vector-effect="non-scaling-stroke" d="
  M 616.6164 197.8301
  A 3.18 3.18 0.0 0 0 613.4088 194.6780
  L 612.9088 194.6824
  A 3.18 3.18 0.0 0 0 609.7567 197.8900
  L 609.7836 200.9699
  A 3.18 3.18 0.0 0 0 612.9912 204.1220
  L 613.4912 204.1176
  A 3.18 3.18 0.0 0 0 616.6433 200.9100
  L 616.6164 197.8301"
/>
<path stroke="#acacac" vector-effect="non-scaling-stroke" d="
  M 399.0806 267.4123
  A 4.24 3.16 -88.1 0 0 395.7817 271.5452
  A 4.24 3.16 -88.1 0 0 398.7994 275.8877
  A 4.24 3.16 -88.1 0 0 402.0983 271.7548
  A 4.24 3.16 -88.1 0 0 399.0806 267.4123"
/>
<path stroke="#acacac" vector-effect="non-scaling-stroke" d="
  M 384.10 271.50
  Q 385.55 271.51 385.91 271.48
  A 0.50 0.49 -10.5 0 0 386.35 270.85
  L 384.31 263.93
  A 0.14 0.09 1.5 0 0 384.21 263.86
  Q 384.18 263.86 384.16 263.86
  Q 384.13 263.86 384.10 263.86
  A 0.14 0.09 -0.7 0 0 384.00 263.93
  L 381.86 270.82
  A 0.50 0.49 11.3 0 0 382.29 271.46
  Q 382.64 271.49 384.10 271.50"
/>
<path stroke="#9cb37e" vector-effect="non-scaling-stroke" d="
  M 646.03 355.95
  Q 647.27 359.64 649.84 361.96
  A 0.60 0.59 35.4 0 0 650.76 361.81
  L 654.08 355.82"
/>
<path stroke="#326449" vector-effect="non-scaling-stroke" d="
  M 654.08 355.82
  L 663.97 357.91
  A 0.35 0.35 0.0 0 0 664.39 357.50
  Q 661.63 343.94 659.64 336.39
  C 658.48 332.03 654.32 328.82 649.51 329.12
  C 642.88 329.54 640.72 334.32 639.34 340.44
  Q 637.29 349.56 635.71 357.25
  A 0.47 0.46 0.8 0 0 636.25 357.80
  L 646.03 355.95"
/>
<path stroke="#887057" vector-effect="non-scaling-stroke" d="
  M 654.08 355.82
  Q 652.99 352.90 655.57 350.40
  Q 658.01 348.04 656.93 343.21
  Q 656.77 342.48 654.41 338.91
  A 0.59 0.59 0.0 0 0 653.56 338.76
  C 649.44 341.91 641.28 342.03 643.61 349.92
  A 1.70 1.64 15.0 0 0 644.03 350.62
  L 646.00 352.59
  A 1.18 1.16 -64.3 0 1 646.33 353.56
  L 646.03 355.95"
/>
<path stroke="#acacac" vector-effect="non-scaling-stroke" d="
  M 394.9478 342.6701
  A 4.24 3.21 -90.3 0 0 391.7600 346.9268
  A 4.24 3.21 -90.3 0 0 394.9922 351.1499
  A 4.24 3.21 -90.3 0 0 398.1800 346.8932
  A 4.24 3.21 -90.3 0 0 394.9478 342.6701"
/>
<path stroke="#e1a760" vector-effect="non-scaling-stroke" d="
  M 652.72 353.49
  L 646.94 353.59
  A 0.03 0.03 0.0 0 0 646.91 353.62
  L 646.91 353.65
  A 2.71 1.14 -1.0 0 0 649.64 354.74
  L 650.06 354.74
  A 2.71 1.14 -1.0 0 0 652.75 353.55
  L 652.75 353.52
  A 0.03 0.03 0.0 0 0 652.72 353.49"
/>
<path stroke="#acacac" vector-effect="non-scaling-stroke" d="
  M 424.5018 342.5302
  A 4.38 3.23 -90.5 0 0 421.3101 346.9382
  A 4.38 3.23 -90.5 0 0 424.5782 351.2898
  A 4.38 3.23 -90.5 0 0 427.7699 346.8818
  A 4.38 3.23 -90.5 0 0 424.5018 342.5302"
/>
<path stroke="#887057" vector-effect="non-scaling-stroke" d="
  M 657.87 420.16
  A 0.76 0.76 0.0 0 0 658.79 419.49
  Q 658.98 417.54 659.19 413.45
  C 659.37 409.97 658.67 408.32 655.74 406.99
  Q 653.26 405.86 648.76 406.00
  C 640.92 406.24 640.11 413.57 641.53 419.51
  A 0.60 0.60 0.0 0 0 642.69 419.50
  L 643.39 416.39
  A 1.56 1.55 -77.8 0 1 645.21 415.21
  Q 650.09 416.18 654.81 415.04
  A 1.36 1.36 0.0 0 1 656.15 415.47
  Q 657.36 416.86 657.08 419.42
  A 0.61 0.61 0.0 0 0 657.55 420.08
  L 657.87 420.16"
/>
<path stroke="#e1a760" vector-effect="non-scaling-stroke" d="
  M 654.82 428.40
  A 0.32 0.32 0.0 0 0 654.38 428.00
  Q 650.27 429.99 645.81 428.15
  A 0.37 0.37 0.0 0 0 645.33 428.34
  L 645.30 428.40
  A 0.35 0.35 0.0 0 0 645.45 428.86
  Q 649.48 431.11 654.05 429.82
  A 0.62 0.60 0.7 0 0 654.46 429.43
  L 654.82 428.40"
/>
<path stroke="#acacac" vector-effect="non-scaling-stroke" d="
  M 401.04 421.86
  L 406.36 421.84
  A 0.17 0.17 0.0 0 0 406.53 421.67
  L 406.53 421.57
  A 2.81 2.79 -0.3 0 0 403.70 418.79
  L 403.66 418.79
  A 2.81 2.79 -0.3 0 0 400.87 421.59
  L 400.87 421.69
  A 0.17 0.17 0.0 0 0 401.04 421.86"
/>
<path stroke="#acacac" vector-effect="non-scaling-stroke" d="
  M 433.80 421.83
  L 439.50 421.89
  A 0.11 0.11 0.0 0 0 439.61 421.78
  L 439.62 421.76
  A 2.95 2.95 0.0 0 0 436.70 418.78
  L 436.68 418.78
  A 2.95 2.95 0.0 0 0 433.70 421.70
  L 433.70 421.72
  A 0.11 0.11 0.0 0 0 433.80 421.83"
/>
</g>
<path fill="#fe552e" d="
  M 397.16 153.48
  Q 382.08 153.55 366.89 153.53
  Q 360.98 153.53 358.68 154.32
  C 351.38 156.81 346.76 163.67 346.77 171.37
  Q 346.85 246.06 346.84 320.74
  Q 346.47 320.69 346.21 320.64
  A 0.40 0.40 0.0 0 0 345.77 320.87
  Q 345.62 321.22 345.99 320.78
  Q 344.21 323.26 342.63 325.15
  Q 327.76 342.97 310.00 356.51
  Q 292.82 369.60 272.48 381.08
  Q 264.69 385.48 260.32 385.80
  Q 253.78 386.28 247.47 382.78
  Q 232.88 374.69 221.68 367.07
  C 203.34 354.59 186.44 339.89 172.62 323.35
  Q 129.75 272.03 122.00 203.74
  C 120.90 194.10 120.23 183.07 120.34 173.39
  Q 120.48 161.62 120.27 149.82
  Q 120.11 140.34 121.86 136.01
  Q 124.90 128.52 133.47 124.73
  Q 206.43 92.47 246.57 74.65
  C 252.24 72.14 257.54 70.48 263.08 71.70
  Q 266.29 72.41 273.93 75.84
  Q 343.90 107.25 385.34 125.47
  Q 393.06 128.86 395.98 136.03
  Q 397.00 138.55 396.97 143.65
  Q 396.94 148.58 397.16 153.48
  Z
  M 258.72 293.61
  Q 300.23 293.63 301.75 293.68
  C 309.15 293.94 315.47 291.50 318.52 284.96
  Q 319.80 282.20 319.78 273.35
  Q 319.74 261.27 319.81 218.60
  C 319.82 210.55 319.11 205.70 312.55 201.77
  C 308.88 199.57 304.51 199.44 300.20 199.65
  A 0.38 0.38 0.0 0 1 299.80 199.27
  C 300.01 185.27 300.96 170.80 292.18 158.39
  C 284.71 147.81 272.37 140.86 258.81 140.86
  C 245.24 140.85 232.90 147.78 225.41 158.36
  C 216.62 170.75 217.56 185.22 217.75 199.22
  A 0.38 0.38 0.0 0 1 217.35 199.60
  C 213.04 199.39 208.67 199.51 205.00 201.71
  C 198.43 205.63 197.72 210.48 197.72 218.53
  Q 197.74 261.20 197.69 273.28
  Q 197.66 282.13 198.93 284.89
  C 201.98 291.44 208.29 293.88 215.70 293.63
  Q 217.21 293.58 258.72 293.61
  Z"
/>
<path fill="#ffffff" d="
  M 258.81 140.86
  C 272.37 140.86 284.71 147.81 292.18 158.39
  C 300.96 170.80 300.01 185.27 299.80 199.27
  A 0.38 0.38 0.0 0 0 300.20 199.65
  C 304.51 199.44 308.88 199.57 312.55 201.77
  C 319.11 205.70 319.82 210.55 319.81 218.60
  Q 319.74 261.27 319.78 273.35
  Q 319.80 282.20 318.52 284.96
  C 315.47 291.50 309.15 293.94 301.75 293.68
  Q 300.23 293.63 258.72 293.61
  Q 217.21 293.58 215.70 293.63
  C 208.29 293.88 201.98 291.44 198.93 284.89
  Q 197.66 282.13 197.69 273.28
  Q 197.74 261.20 197.72 218.53
  C 197.72 210.48 198.43 205.63 205.00 201.71
  C 208.67 199.51 213.04 199.39 217.35 199.60
  A 0.38 0.38 0.0 0 0 217.75 199.22
  C 217.56 185.22 216.62 170.75 225.41 158.36
  C 232.90 147.78 245.24 140.85 258.81 140.86
  Z
  M 233.74 199.52
  L 284.10 199.52
  A 0.23 0.23 0.0 0 0 284.33 199.29
  L 284.33 182.30
  A 25.70 24.36 90.0 0 0 259.97 156.60
  L 257.87 156.60
  A 25.70 24.36 -90.0 0 0 233.51 182.30
  L 233.51 199.29
  A 0.23 0.23 0.0 0 0 233.74 199.52
  Z
  M 258.56 271.12
  Q 263.50 271.15 263.95 271.13
  A 0.59 0.59 0.0 0 0 264.51 270.55
  L 264.64 254.94
  A 1.09 1.05 72.3 0 1 265.05 254.11
  Q 266.54 252.95 267.67 251.93
  C 276.48 243.92 270.57 229.09 258.77 229.03
  C 246.97 228.96 240.92 243.74 249.64 251.84
  Q 250.76 252.87 252.24 254.04
  A 1.09 1.05 -71.7 0 1 252.64 254.88
  L 252.61 270.49
  A 0.59 0.59 0.0 0 0 253.17 271.08
  Q 253.61 271.10 258.56 271.12
  Z"
/>
<path fill="#ffffff" d="
  M 397.16 153.48
  Q 546.27 153.44 695.25 153.47
  C 701.71 153.47 708.47 158.90 710.47 165.31
  Q 711.22 167.70 711.22 173.81
  Q 711.20 433.11 711.30 438.32
  Q 711.51 449.92 709.83 453.45
  Q 706.01 461.44 696.68 463.64
  A 2.60 2.46 37.2 0 1 696.13 463.70
  Q 567.61 463.78 362.78 463.75
  Q 357.03 463.75 351.91 458.58
  Q 346.68 453.31 346.70 445.75
  Q 346.90 385.30 346.83 325.01
  L 346.84 320.74
  Q 346.85 246.06 346.77 171.37
  C 346.76 163.67 351.38 156.81 358.68 154.32
  Q 360.98 153.53 366.89 153.53
  Q 382.08 153.55 397.16 153.48
  Z
  M 570.02 187.83
  A 1.93 1.93 0.0 0 0 568.09 185.90
  A 1.93 1.93 0.0 0 0 566.16 187.83
  A 1.93 1.93 0.0 0 0 568.09 189.76
  A 1.93 1.93 0.0 0 0 570.02 187.83
  Z
  M 604.22 187.79
  A 1.90 1.90 0.0 0 0 602.32 185.89
  A 1.90 1.90 0.0 0 0 600.42 187.79
  A 1.90 1.90 0.0 0 0 602.32 189.69
  A 1.90 1.90 0.0 0 0 604.22 187.79
  Z
  M 379.08 199.48
  L 381.49 199.48
  A 0.84 0.83 -15.0 0 1 382.21 199.89
  L 385.52 205.62
  A 2.68 2.67 -14.9 0 0 387.84 206.96
  L 388.63 206.96
  A 0.86 0.86 0.0 0 0 389.38 205.67
  L 385.91 199.66
  A 0.76 0.75 58.2 0 1 386.14 198.65
  Q 391.36 195.06 387.96 189.03
  A 2.12 2.08 0.8 0 0 387.18 188.24
  C 383.65 186.22 379.73 186.73 375.61 186.75
  A 0.61 0.61 0.0 0 0 375.00 187.36
  L 375.00 206.22
  A 0.54 0.54 0.0 0 0 375.54 206.76
  L 377.94 206.76
  A 0.55 0.55 0.0 0 0 378.49 206.21
  L 378.49 200.07
  A 0.59 0.59 0.0 0 1 379.08 199.48
  Z
  M 410.13 187.09
  A 0.36 0.36 0.0 0 0 409.77 186.73
  L 407.23 186.73
  A 0.36 0.36 0.0 0 0 406.87 187.09
  L 406.87 206.37
  A 0.36 0.36 0.0 0 0 407.23 206.73
  L 409.77 206.73
  A 0.36 0.36 0.0 0 0 410.13 206.37
  L 410.13 187.09
  Z
  M 487.88 193.70
  C 486.12 191.65 483.76 191.15 481.34 192.35
  C 477.47 194.28 477.48 201.05 479.10 204.16
  C 480.38 206.63 484.46 208.26 487.00 205.78
  Q 487.40 205.38 487.95 204.89
  A 0.38 0.38 0.0 0 1 488.58 205.17
  L 488.57 206.19
  A 0.56 0.56 0.0 0 0 489.13 206.76
  L 491.24 206.78
  A 0.48 0.48 0.0 0 0 491.73 206.30
  L 491.89 187.32
  A 0.66 0.66 0.0 0 0 491.24 186.65
  L 489.26 186.64
  A 0.64 0.64 0.0 0 0 488.62 187.27
  L 488.57 193.44
  A 0.39 0.39 0.0 0 1 487.88 193.70
  Z
  M 535.08 193.72
  Q 535.08 193.71 535.14 192.62
  A 0.63 0.63 0.0 0 0 534.51 191.95
  L 532.63 191.95
  A 0.64 0.63 90.0 0 0 532.00 192.59
  L 532.00 206.14
  A 0.63 0.62 90.0 0 0 532.62 206.77
  L 534.78 206.77
  A 0.61 0.60 -0.9 0 0 535.39 206.15
  Q 535.34 204.20 535.28 198.99
  Q 535.22 194.33 539.82 195.06
  A 0.43 0.43 0.0 0 0 540.32 194.63
  L 540.32 192.26
  A 0.60 0.60 0.0 0 0 539.77 191.66
  Q 537.17 191.43 535.67 193.77
  A 0.34 0.33 49.7 0 1 535.08 193.72
  Z
  M 404.4205 197.9723
  A 6.27 6.27 0.0 0 0 398.1069 191.7462
  L 396.9670 191.7542
  A 6.27 6.27 0.0 0 0 390.7409 198.0678
  L 390.7595 200.7277
  A 6.27 6.27 0.0 0 0 397.0731 206.9538
  L 398.2130 206.9458
  A 6.27 6.27 0.0 0 0 404.4391 200.6322
  L 404.4205 197.9723
  Z
  M 416.41 200.22
  L 425.22 200.26
  A 0.62 0.61 2.8 0 0 425.84 199.70
  C 426.73 190.42 414.50 188.67 412.81 196.89
  Q 412.10 200.33 413.01 202.71
  C 415.12 208.22 422.89 208.58 425.59 203.24
  A 0.54 0.54 0.0 0 0 425.17 202.47
  Q 423.68 202.30 422.38 203.06
  C 419.52 204.72 416.95 204.84 415.87 200.94
  A 0.56 0.56 0.0 0 1 416.41 200.22
  Z
  M 433.51 200.73
  Q 435.10 201.11 435.68 201.39
  A 1.31 1.31 0.0 0 1 435.82 203.67
  C 432.48 205.85 431.44 201.76 428.39 202.55
  A 0.83 0.83 0.0 0 0 427.86 203.71
  Q 429.14 206.30 432.03 206.83
  C 434.60 207.31 438.59 206.71 439.46 203.74
  C 440.73 199.38 437.19 198.73 434.03 197.97
  Q 432.43 197.59 431.86 197.31
  A 1.31 1.31 0.0 0 1 431.72 195.03
  C 435.06 192.85 436.10 196.94 439.15 196.15
  A 0.83 0.83 0.0 0 0 439.68 194.99
  Q 438.40 192.40 435.51 191.87
  C 432.94 191.39 428.95 191.99 428.08 194.97
  C 426.81 199.32 430.35 199.97 433.51 200.73
  Z
  M 457.04 205.01
  Q 457.20 205.54 457.08 206.27
  A 0.43 0.42 4.6 0 0 457.50 206.76
  L 459.71 206.76
  A 0.51 0.51 0.0 0 0 460.22 206.25
  L 460.22 195.90
  A 3.39 3.39 0.0 0 0 458.65 193.04
  C 455.21 190.85 450.02 191.13 448.35 195.59
  A 0.48 0.47 -74.2 0 0 448.70 196.22
  C 451.87 196.85 453.39 192.67 456.65 195.51
  A 1.44 1.43 64.7 0 1 455.75 198.03
  C 453.07 198.11 449.42 198.23 448.10 200.58
  Q 446.99 202.56 448.30 204.76
  C 450.07 207.73 454.37 207.58 456.65 204.93
  A 0.23 0.23 0.0 0 1 457.04 205.01
  Z
  M 466.30 193.70
  L 466.30 192.47
  A 0.50 0.49 90.0 0 0 465.81 191.97
  L 463.85 191.97
  A 0.69 0.69 0.0 0 0 463.16 192.66
  L 463.16 206.28
  A 0.50 0.50 0.0 0 0 463.66 206.78
  L 465.98 206.78
  A 0.50 0.49 -0.0 0 0 466.48 206.29
  L 466.48 197.63
  A 2.88 2.88 0.0 0 1 469.01 194.77
  L 469.46 194.72
  A 2.55 2.55 0.0 0 1 472.32 197.25
  L 472.32 206.34
  A 0.43 0.43 0.0 0 0 472.75 206.77
  L 475.18 206.77
  A 0.50 0.49 -0.6 0 0 475.68 206.27
  Q 475.59 200.24 475.63 199.33
  C 475.88 194.34 474.18 190.51 468.70 192.10
  A 1.10 1.07 13.3 0 0 468.25 192.37
  L 466.74 193.88
  A 0.26 0.26 0.0 0 1 466.30 193.70
  Z
  M 505.23 205.10
  C 507.01 207.14 509.38 207.62 511.79 206.39
  C 515.66 204.42 515.59 197.64 513.94 194.54
  C 512.63 192.07 508.53 190.47 506.00 192.98
  Q 505.60 193.38 505.06 193.88
  A 0.38 0.38 0.0 0 1 504.42 193.61
  L 504.42 192.58
  A 0.56 0.56 0.0 0 0 503.86 192.02
  L 501.74 192.02
  A 0.48 0.48 0.0 0 0 501.26 192.50
  L 501.26 211.53
  A 0.66 0.66 0.0 0 0 501.92 212.19
  L 503.90 212.19
  A 0.64 0.64 0.0 0 0 504.54 211.55
  L 504.54 205.36
  A 0.39 0.39 0.0 0 1 505.23 205.10
  Z
  M 520.22 200.24
  L 529.02 200.24
  A 0.62 0.61 2.5 0 0 529.64 199.68
  C 530.49 190.39 518.25 188.70 516.60 196.93
  Q 515.91 200.37 516.83 202.74
  C 518.96 208.24 526.73 208.57 529.41 203.22
  A 0.54 0.54 0.0 0 0 528.98 202.45
  Q 527.49 202.29 526.20 203.05
  C 523.35 204.72 520.78 204.85 519.68 200.96
  A 0.56 0.56 0.0 0 1 520.22 200.24
  Z
  M 554.02 206.82
  A 0.52 0.51 0.0 0 0 554.54 206.31
  L 554.54 197.66
  A 2.84 2.84 0.0 0 1 557.03 194.84
  L 557.39 194.79
  A 2.29 2.29 0.0 0 1 559.96 197.06
  L 559.96 206.29
  A 0.57 0.57 0.0 0 0 560.53 206.86
  L 562.55 206.86
  A 0.59 0.59 0.0 0 0 563.14 206.27
  Q 563.20 199.80 563.08 195.78
  C 562.94 191.13 557.09 190.35 554.62 193.78
  A 0.59 0.59 0.0 0 1 553.64 193.76
  Q 551.35 190.25 547.26 192.51
  C 546.86 192.72 546.54 193.27 546.10 193.74
  A 0.28 0.28 0.0 0 1 545.62 193.55
  L 545.62 192.49
  A 0.56 0.56 0.0 0 0 545.06 191.93
  L 543.04 191.93
  A 0.50 0.49 0.0 0 0 542.54 192.42
  L 542.54 206.33
  A 0.48 0.48 0.0 0 0 543.02 206.81
  L 545.44 206.81
  A 0.55 0.55 0.0 0 0 545.99 206.26
  L 546.02 197.26
  A 2.52 2.51 -1.3 0 1 548.42 194.75
  L 548.66 194.73
  A 2.26 2.25 -3.0 0 1 551.15 196.97
  L 551.14 206.27
  A 0.55 0.55 0.0 0 0 551.69 206.82
  L 554.02 206.82
  Z
  M 578.21 200.75
  Q 579.81 201.12 580.38 201.39
  A 1.31 1.31 0.0 0 1 580.54 203.67
  C 577.22 205.87 576.15 201.79 573.11 202.61
  A 0.83 0.82 -21.0 0 0 572.59 203.77
  Q 573.89 206.35 576.78 206.86
  C 579.35 207.32 583.33 206.69 584.17 203.71
  C 585.41 199.35 581.87 198.72 578.71 197.98
  Q 577.11 197.62 576.54 197.34
  A 1.31 1.31 0.0 0 1 576.38 195.07
  C 579.70 192.86 580.77 196.94 583.81 196.13
  A 0.83 0.82 -21.0 0 0 584.33 194.97
  Q 583.03 192.39 580.14 191.88
  C 577.57 191.42 573.58 192.05 572.74 195.03
  C 571.51 199.39 575.05 200.01 578.21 200.75
  Z
  M 591.95 200.74
  Q 593.55 201.13 594.12 201.40
  A 1.31 1.31 0.0 0 1 594.26 203.68
  C 590.93 205.85 589.89 201.77 586.85 202.56
  A 0.82 0.82 0.0 0 0 586.32 203.71
  Q 587.60 206.30 590.48 206.83
  C 593.04 207.31 597.02 206.71 597.89 203.74
  C 599.15 199.40 595.62 198.75 592.48 197.99
  Q 590.88 197.61 590.31 197.33
  A 1.31 1.31 0.0 0 1 590.17 195.06
  C 593.50 192.89 594.54 196.96 597.58 196.18
  A 0.82 0.82 0.0 0 0 598.11 195.02
  Q 596.83 192.44 593.95 191.91
  C 591.39 191.43 587.41 192.03 586.54 194.99
  C 585.28 199.33 588.81 199.98 591.95 200.74
  Z
  M 620.0124 198.0119
  A 6.24 6.24 0.0 0 0 613.7833 191.7610
  L 612.6433 191.7590
  A 6.24 6.24 0.0 0 0 606.3924 197.9881
  L 606.3876 200.7281
  A 6.24 6.24 0.0 0 0 612.6167 206.9790
  L 613.7567 206.9810
  A 6.24 6.24 0.0 0 0 620.0076 200.7519
  L 620.0124 198.0119
  Z
  M 625.56 193.72
  L 625.55 192.48
  A 0.50 0.49 89.5 0 0 625.05 191.99
  L 623.08 192.00
  A 0.69 0.69 0.0 0 0 622.39 192.70
  L 622.51 206.39
  A 0.50 0.50 0.0 0 0 623.01 206.89
  L 625.34 206.87
  A 0.50 0.49 -0.5 0 0 625.84 206.37
  L 625.77 197.67
  A 2.90 2.89 86.0 0 1 628.29 194.77
  L 628.74 194.72
  A 2.56 2.56 0.0 0 1 631.64 197.24
  L 631.71 206.37
  A 0.43 0.43 0.0 0 0 632.15 206.80
  L 634.59 206.78
  A 0.50 0.49 -1.0 0 0 635.09 206.28
  Q 634.95 200.22 634.98 199.30
  C 635.19 194.28 633.45 190.45 627.96 192.09
  A 1.11 1.08 12.8 0 0 627.51 192.37
  L 626.00 193.90
  A 0.26 0.26 0.0 0 1 625.56 193.72
  Z
  M 643.39 200.73
  Q 644.99 201.11 645.56 201.38
  A 1.31 1.31 0.0 0 1 645.71 203.66
  C 642.38 205.85 641.32 201.77 638.28 202.57
  A 0.83 0.82 -20.7 0 0 637.75 203.73
  Q 639.04 206.31 641.93 206.83
  C 644.50 207.31 648.49 206.69 649.35 203.72
  C 650.60 199.36 647.06 198.72 643.90 197.96
  Q 642.30 197.59 641.73 197.32
  A 1.31 1.31 0.0 0 1 641.58 195.04
  C 644.91 192.85 645.97 196.93 649.01 196.13
  A 0.83 0.82 -20.7 0 0 649.54 194.97
  Q 648.25 192.39 645.36 191.87
  C 642.79 191.39 638.80 192.01 637.94 194.98
  C 636.69 199.34 640.23 199.98 643.39 200.73
  Z
  M 569.75 192.46
  A 0.45 0.45 0.0 0 0 569.30 192.01
  L 566.82 192.01
  A 0.45 0.45 0.0 0 0 566.37 192.46
  L 566.37 206.28
  A 0.45 0.45 0.0 0 0 566.82 206.73
  L 569.30 206.73
  A 0.45 0.45 0.0 0 0 569.75 206.28
  L 569.75 192.46
  Z
  M 604.00 192.40
  A 0.39 0.39 0.0 0 0 603.61 192.01
  L 601.01 192.01
  A 0.39 0.39 0.0 0 0 600.62 192.40
  L 600.62 206.38
  A 0.39 0.39 0.0 0 0 601.01 206.77
  L 603.61 206.77
  A 0.39 0.39 0.0 0 0 604.00 206.38
  L 604.00 192.40
  Z
  M 633.26 285.34
  A 22.83 22.50 -3.1 0 0 636.67 288.36
  A 22.41 22.41 0.0 0 0 666.46 285.09
  A 22.41 22.40 52.4 0 0 669.71 260.02
  A 22.40 22.39 74.3 0 0 648.01 247.83
  A 22.42 22.41 1.8 0 0 627.57 266.99
  A 22.41 22.39 -62.3 0 0 633.26 285.34
  Z
  M 433.03 261.21
  A 1.79 1.79 0.0 0 0 431.24 259.42
  A 1.79 1.79 0.0 0 0 429.45 261.21
  A 1.79 1.79 0.0 0 0 431.24 263.00
  A 1.79 1.79 0.0 0 0 433.03 261.21
  Z
  M 401.62 266.50
  C 399.99 264.64 397.82 264.21 395.62 265.34
  C 392.09 267.15 392.18 273.35 393.70 276.17
  C 394.90 278.43 398.65 279.87 400.96 277.57
  Q 401.32 277.21 401.81 276.75
  A 0.35 0.34 -21.9 0 1 402.40 276.99
  L 402.40 277.93
  A 0.51 0.51 0.0 0 0 402.92 278.44
  L 404.85 278.44
  A 0.44 0.44 0.0 0 0 405.29 278.00
  L 405.23 260.61
  A 0.60 0.60 0.0 0 0 404.62 260.01
  L 402.81 260.01
  A 0.58 0.58 0.0 0 0 402.23 260.60
  L 402.25 266.26
  A 0.36 0.36 0.0 0 1 401.62 266.50
  Z
  M 384.14 274.49
  Q 386.63 274.50 386.86 274.52
  A 0.93 0.92 -8.1 0 1 387.72 275.16
  L 388.62 277.91
  A 0.85 0.84 80.9 0 0 389.42 278.50
  L 391.51 278.50
  A 0.49 0.48 -9.4 0 0 391.97 277.86
  L 386.50 261.39
  A 1.34 1.32 4.7 0 0 385.83 260.61
  Q 385.08 260.24 384.17 260.24
  Q 383.26 260.24 382.51 260.60
  A 1.34 1.32 -4.5 0 0 381.84 261.38
  L 376.31 277.83
  A 0.49 0.48 9.6 0 0 376.77 278.47
  L 378.86 278.48
  A 0.85 0.84 -80.7 0 0 379.66 277.89
  L 380.57 275.15
  A 0.93 0.92 8.3 0 1 381.43 274.51
  Q 381.66 274.49 384.14 274.49
  Z
  M 544.34 274.42
  L 539.00 269.10
  A 1.95 1.95 0.0 0 0 536.36 268.99
  L 536.28 269.05
  A 1.75 1.75 0.0 0 0 536.17 271.64
  L 543.13 278.52
  A 2.04 2.03 56.3 0 0 545.31 278.96
  Q 546.89 278.33 548.32 276.82
  Q 549.26 275.83 561.65 263.79
  A 1.87 1.87 0.0 0 0 561.67 261.12
  L 561.47 260.89
  A 1.62 1.61 -43.1 0 0 559.12 260.82
  L 545.52 274.42
  A 0.83 0.83 0.0 0 1 544.34 274.42
  Z
  M 591.62 274.42
  L 586.27 269.11
  A 1.95 1.95 0.0 0 0 583.63 269.01
  L 583.55 269.07
  A 1.75 1.75 0.0 0 0 583.44 271.66
  L 590.42 278.52
  A 2.04 2.03 56.1 0 0 592.60 278.95
  Q 594.18 278.32 595.61 276.81
  Q 596.55 275.81 608.90 263.74
  A 1.87 1.87 0.0 0 0 608.92 261.06
  L 608.71 260.84
  A 1.62 1.61 -43.3 0 0 606.36 260.77
  L 592.80 274.41
  A 0.83 0.83 0.0 0 1 591.62 274.42
  Z
  M 418.83 278.38
  A 0.47 0.46 -0.3 0 0 419.30 277.92
  L 419.25 270.14
  A 2.56 2.55 86.1 0 1 421.48 267.59
  L 421.80 267.54
  A 2.06 2.06 0.0 0 1 424.12 269.57
  L 424.17 277.87
  A 0.51 0.51 0.0 0 0 424.68 278.38
  L 426.50 278.37
  A 0.53 0.53 0.0 0 0 427.03 277.84
  Q 427.05 272.02 426.92 268.40
  C 426.77 264.22 421.51 263.55 419.30 266.65
  A 0.54 0.53 -43.9 0 1 418.42 266.63
  Q 416.35 263.49 412.68 265.54
  C 412.32 265.73 412.04 266.23 411.64 266.65
  A 0.25 0.25 0.0 0 1 411.21 266.49
  L 411.20 265.53
  A 0.50 0.50 0.0 0 0 410.70 265.03
  L 408.88 265.04
  A 0.45 0.44 -0.3 0 0 408.43 265.49
  L 408.50 277.99
  A 0.43 0.43 0.0 0 0 408.94 278.42
  L 411.11 278.41
  A 0.49 0.49 0.0 0 0 411.61 277.91
  L 411.59 269.82
  A 2.26 2.26 0.0 0 1 413.73 267.55
  L 413.95 267.53
  A 2.03 2.03 0.0 0 1 416.20 269.53
  L 416.24 277.90
  A 0.49 0.49 0.0 0 0 416.74 278.39
  L 418.83 278.38
  Z
  M 438.43 266.51
  L 438.44 265.39
  A 0.45 0.44 -89.9 0 0 437.99 264.94
  L 436.21 264.94
  A 0.63 0.63 0.0 0 0 435.59 265.56
  L 435.56 277.92
  A 0.45 0.45 0.0 0 0 436.02 278.37
  L 438.12 278.38
  A 0.45 0.44 0.1 0 0 438.58 277.93
  L 438.59 270.08
  A 2.61 2.61 0.0 0 1 440.89 267.48
  L 441.30 267.44
  A 2.31 2.31 0.0 0 1 443.89 269.74
  L 443.87 277.99
  A 0.39 0.39 0.0 0 0 444.26 278.38
  L 446.47 278.38
  A 0.45 0.44 -0.5 0 0 446.92 277.93
  Q 446.85 272.46 446.89 271.63
  C 447.12 267.11 445.59 263.63 440.61 265.06
  A 1.00 0.97 13.4 0 0 440.21 265.31
  L 438.83 266.67
  A 0.24 0.23 -22.3 0 1 438.43 266.51
  Z
  M 432.85 265.54
  A 0.53 0.53 0.0 0 0 432.32 265.01
  L 430.24 265.01
  A 0.53 0.53 0.0 0 0 429.71 265.54
  L 429.71 277.92
  A 0.53 0.53 0.0 0 0 430.24 278.45
  L 432.32 278.45
  A 0.53 0.53 0.0 0 0 432.85 277.92
  L 432.85 265.54
  Z
  M 647.5936 323.2551
  A 22.83 22.55 -96.0 0 0 627.5535 348.3171
  A 22.83 22.55 -96.0 0 0 652.3664 368.6649
  A 22.83 22.55 -96.0 0 0 672.4065 343.6029
  A 22.83 22.55 -96.0 0 0 647.5936 323.2551
  Z
  M 407.75 336.57
  A 1.84 1.84 0.0 0 0 405.91 334.73
  A 1.84 1.84 0.0 0 0 404.07 336.57
  A 1.84 1.84 0.0 0 0 405.91 338.41
  A 1.84 1.84 0.0 0 0 407.75 336.57
  Z
  M 398.36 351.74
  Q 398.37 351.76 398.22 352.92
  A 0.69 0.69 0.0 0 0 398.90 353.69
  L 400.65 353.69
  A 0.68 0.68 0.0 0 0 401.33 353.01
  L 401.33 336.36
  A 0.86 0.86 0.0 0 0 400.47 335.50
  L 398.69 335.50
  A 0.56 0.56 0.0 0 0 398.13 336.06
  L 398.13 342.16
  A 0.25 0.24 -63.7 0 1 397.69 342.31
  Q 394.95 338.70 391.40 340.84
  C 388.34 342.69 388.49 346.43 389.01 349.50
  C 389.75 353.84 395.19 355.49 397.70 351.70
  A 0.38 0.38 0.0 0 1 398.36 351.74
  Z
  M 375.64 344.70
  Q 375.65 352.28 375.69 353.00
  A 0.74 0.74 0.0 0 0 376.43 353.70
  L 386.56 353.70
  A 0.51 0.51 0.0 0 0 387.07 353.19
  L 387.07 351.20
  A 0.45 0.45 0.0 0 0 386.62 350.75
  L 379.37 350.75
  A 0.55 0.55 0.0 0 1 378.82 350.20
  L 378.82 346.42
  A 0.46 0.46 0.0 0 1 379.28 345.96
  L 385.72 345.96
  A 0.78 0.78 0.0 0 0 386.50 345.18
  Q 386.50 344.98 386.50 344.68
  Q 386.50 344.39 386.50 344.18
  A 0.78 0.78 0.0 0 0 385.72 343.41
  L 379.28 343.43
  A 0.46 0.46 0.0 0 1 378.81 342.97
  L 378.80 339.19
  A 0.55 0.55 0.0 0 1 379.35 338.64
  L 386.60 338.62
  A 0.45 0.45 0.0 0 0 387.05 338.16
  L 387.04 336.17
  A 0.51 0.51 0.0 0 0 386.53 335.67
  L 376.40 335.70
  A 0.74 0.74 0.0 0 0 375.67 336.40
  Q 375.63 337.12 375.64 344.70
  Z
  M 544.37 350.60
  L 538.99 345.30
  A 1.96 1.95 47.1 0 0 536.35 345.20
  L 536.27 345.26
  A 1.76 1.75 47.2 0 0 536.17 347.86
  L 543.18 354.71
  A 2.05 2.04 56.0 0 0 545.37 355.14
  Q 546.95 354.50 548.37 352.98
  Q 549.31 351.98 561.66 339.85
  A 1.88 1.87 -45.0 0 0 561.67 337.18
  L 561.46 336.95
  A 1.62 1.61 -43.4 0 0 559.11 336.89
  L 545.55 350.59
  A 0.84 0.84 0.0 0 1 544.37 350.60
  Z
  M 591.67 350.67
  L 586.30 345.37
  A 1.95 1.95 0.0 0 0 583.66 345.27
  L 583.58 345.33
  A 1.76 1.75 47.3 0 0 583.48 347.92
  L 590.47 354.78
  A 2.04 2.04 0.0 0 0 592.65 355.21
  Q 594.23 354.57 595.66 353.06
  Q 596.59 352.06 608.94 339.96
  A 1.88 1.87 -44.9 0 0 608.95 337.29
  L 608.75 337.06
  A 1.62 1.61 -43.4 0 0 606.40 337.00
  L 592.85 350.67
  A 0.83 0.83 0.0 0 1 591.67 350.67
  Z
  M 409.31 340.59
  A 1.48 1.06 -74.0 0 0 410.09 342.78
  Q 410.48 342.71 410.79 342.85
  A 0.56 0.56 0.0 0 1 411.12 343.36
  L 411.12 351.04
  A 1.12 1.06 -60.6 0 0 411.25 351.56
  Q 412.77 354.52 416.38 353.49
  A 1.20 1.17 -53.3 0 0 416.06 351.16
  Q 415.14 351.19 414.65 350.66
  A 1.43 1.41 -67.0 0 1 414.26 349.68
  L 414.26 343.10
  A 0.48 0.47 6.4 0 1 414.84 342.64
  L 416.41 342.99
  A 0.59 0.59 0.0 0 0 417.13 342.42
  L 417.13 340.98
  A 0.61 0.61 0.0 0 0 416.52 340.37
  L 414.75 340.37
  A 0.52 0.51 -0.0 0 1 414.23 339.86
  L 414.23 337.67
  A 0.55 0.54 90.0 0 0 413.69 337.12
  L 411.67 337.12
  A 0.65 0.65 0.0 0 0 411.02 337.77
  L 411.02 339.94
  A 0.48 0.47 -85.4 0 1 410.47 340.41
  Q 409.52 340.24 409.31 340.59
  Z
  M 430.7719 345.8509
  A 5.72 5.72 0.0 0 0 425.0619 340.1209
  L 424.0019 340.1191
  A 5.72 5.72 0.0 0 0 418.2719 345.8291
  L 418.2681 347.9891
  A 5.72 5.72 0.0 0 0 423.9781 353.7191
  L 425.0381 353.7209
  A 5.72 5.72 0.0 0 0 430.7681 348.0109
  L 430.7719 345.8509
  Z
  M 435.49 341.86
  Q 435.49 341.85 435.56 340.87
  A 0.57 0.57 0.0 0 0 435.00 340.26
  L 433.30 340.23
  A 0.58 0.57 -89.2 0 0 432.72 340.80
  L 432.55 353.04
  A 0.57 0.56 -89.2 0 0 433.10 353.61
  L 435.05 353.64
  A 0.55 0.54 -0.1 0 0 435.61 353.09
  Q 435.59 351.33 435.60 346.62
  Q 435.61 342.42 439.75 343.13
  A 0.39 0.39 0.0 0 0 440.21 342.75
  L 440.24 340.61
  A 0.55 0.54 3.4 0 0 439.75 340.06
  Q 437.41 339.82 436.02 341.92
  A 0.30 0.30 0.0 0 1 435.49 341.86
  Z
  M 407.5109 340.7427
  A 0.50 0.50 0.0 0 0 407.0118 340.2419
  L 404.8918 340.2382
  A 0.50 0.50 0.0 0 0 404.3909 340.7373
  L 404.3691 353.2173
  A 0.50 0.50 0.0 0 0 404.8682 353.7181
  L 406.9882 353.7218
  A 0.50 0.50 0.0 0 0 407.4891 353.2227
  L 407.5109 340.7427
  Z
  M 633.33 437.35
  A 22.71 22.71 0.0 0 0 648.00 444.45
  A 22.73 22.72 -66.0 0 0 666.51 437.33
  A 22.72 22.71 59.3 0 0 671.91 416.07
  A 22.72 22.72 0.0 0 0 663.01 403.23
  A 22.70 22.69 58.0 0 0 646.30 399.37
  A 22.73 22.73 0.0 0 0 627.35 419.07
  A 22.75 22.71 26.9 0 0 633.33 437.35
  Z
  M 395.87 412.67
  A 1.85 1.85 0.0 0 0 394.02 410.82
  A 1.85 1.85 0.0 0 0 392.17 412.67
  A 1.85 1.85 0.0 0 0 394.02 414.52
  A 1.85 1.85 0.0 0 0 395.87 412.67
  Z
  M 383.05 429.88
  Q 384.22 429.88 384.35 429.82
  A 1.75 1.71 87.4 0 0 385.23 428.83
  L 390.97 412.38
  A 0.49 0.49 0.0 0 0 390.50 411.73
  L 388.17 411.73
  A 0.88 0.87 -81.4 0 0 387.34 412.35
  L 383.35 425.45
  A 0.40 0.20 -84.5 0 1 383.20 425.69
  Q 383.13 425.73 383.05 425.73
  Q 382.97 425.73 382.91 425.69
  A 0.40 0.20 84.4 0 1 382.75 425.45
  L 378.75 412.35
  A 0.88 0.87 81.3 0 0 377.92 411.73
  L 375.59 411.74
  A 0.49 0.49 0.0 0 0 375.12 412.39
  L 380.88 428.83
  A 1.75 1.71 -87.4 0 0 381.76 429.82
  Q 381.89 429.88 383.05 429.88
  Z
  M 591.55 426.18
  L 586.20 420.91
  A 1.94 1.94 0.0 0 0 583.57 420.82
  L 583.49 420.88
  A 1.75 1.74 47.2 0 0 583.40 423.46
  L 590.37 430.26
  A 2.03 2.02 55.9 0 0 592.54 430.69
  Q 594.11 430.05 595.53 428.54
  Q 596.46 427.55 608.72 415.49
  A 1.87 1.86 -45.0 0 0 608.72 412.83
  L 608.52 412.60
  A 1.61 1.60 -43.5 0 0 606.18 412.55
  L 592.72 426.17
  A 0.83 0.83 0.0 0 1 591.55 426.18
  Z
  M 401.09 424.04
  L 409.10 424.08
  A 0.57 0.56 2.8 0 0 409.66 423.57
  C 410.48 415.12 399.34 413.53 397.80 421.01
  Q 397.16 424.14 397.99 426.30
  C 399.91 431.32 406.98 431.65 409.44 426.79
  A 0.49 0.49 0.0 0 0 409.05 426.09
  Q 407.70 425.94 406.52 426.62
  C 403.92 428.13 401.58 428.24 400.59 424.69
  A 0.51 0.51 0.0 0 1 401.09 424.04
  Z
  M 420.15 421.12
  Q 420.21 421.12 420.26 421.14
  A 0.33 0.12 22.4 0 1 420.45 421.31
  L 422.25 428.54
  A 1.90 1.90 0.0 0 0 425.89 428.71
  L 429.87 417.29
  A 0.62 0.61 -80.5 0 0 429.29 416.47
  L 427.02 416.47
  A 0.75 0.74 6.3 0 0 426.29 417.05
  L 424.32 425.80
  A 0.23 0.22 44.7 0 1 423.88 425.80
  L 421.89 417.36
  A 1.23 1.21 8.9 0 0 421.32 416.60
  Q 420.92 416.37 420.18 416.37
  Q 419.44 416.36 419.04 416.58
  A 1.23 1.21 -8.2 0 0 418.46 417.34
  L 416.37 425.76
  A 0.23 0.22 -44.0 0 1 415.93 425.75
  L 414.07 416.98
  A 0.75 0.74 -5.6 0 0 413.34 416.39
  L 411.07 416.36
  A 0.62 0.61 81.2 0 0 410.48 417.18
  L 414.33 428.64
  A 1.90 1.90 0.0 0 0 417.97 428.52
  L 419.86 421.31
  A 0.33 0.12 -21.7 0 1 420.05 421.14
  Q 420.09 421.12 420.15 421.12
  Z
  M 434.03 424.01
  L 442.04 424.10
  A 0.57 0.56 3.2 0 0 442.61 423.59
  C 443.48 415.14 432.35 413.47 430.76 420.96
  Q 430.10 424.08 430.91 426.25
  C 432.80 431.29 439.87 431.67 442.37 426.82
  A 0.49 0.49 0.0 0 0 441.98 426.11
  Q 440.63 425.95 439.45 426.63
  C 436.83 428.12 434.49 428.22 433.53 424.66
  A 0.51 0.51 0.0 0 1 434.03 424.01
  Z
  M 447.49 418.04
  Q 447.49 418.03 447.55 417.04
  A 0.57 0.57 0.0 0 0 446.99 416.43
  L 445.29 416.40
  A 0.58 0.57 -89.2 0 0 444.71 416.98
  L 444.55 429.26
  A 0.57 0.56 -89.2 0 0 445.10 429.84
  L 447.06 429.87
  A 0.55 0.54 -0.2 0 0 447.62 429.31
  Q 447.60 427.54 447.61 422.82
  Q 447.61 418.59 451.77 419.31
  A 0.39 0.39 0.0 0 0 452.23 418.92
  L 452.26 416.78
  A 0.55 0.55 0.0 0 0 451.77 416.22
  Q 449.41 415.99 448.02 418.09
  A 0.30 0.30 0.0 0 1 447.49 418.04
  Z
  M 395.6408 416.9527
  A 0.49 0.49 0.0 0 0 395.1517 416.4619
  L 393.0117 416.4581
  A 0.49 0.49 0.0 0 0 392.5208 416.9473
  L 392.4992 429.3673
  A 0.49 0.49 0.0 0 0 392.9883 429.8581
  L 395.1283 429.8619
  A 0.49 0.49 0.0 0 0 395.6192 429.3727
  L 395.6408 416.9527
  Z"
/>
<path fill="#fe552e" d="
  M 233.74 199.52
  A 0.23 0.23 0.0 0 1 233.51 199.29
  L 233.51 182.30
  A 25.70 24.36 90.0 0 1 257.87 156.60
  L 259.97 156.60
  A 25.70 24.36 90.0 0 1 284.33 182.30
  L 284.33 199.29
  A 0.23 0.23 0.0 0 1 284.10 199.52
  L 233.74 199.52
  Z"
/>
<circle fill="#595959" cx="568.09" cy="187.83" r="1.93"/>
<circle fill="#595959" cx="602.32" cy="187.79" r="1.90"/>
<path fill="#595959" d="
  M 378.49 200.07
  L 378.49 206.21
  A 0.55 0.55 0.0 0 1 377.94 206.76
  L 375.54 206.76
  A 0.54 0.54 0.0 0 1 375.00 206.22
  L 375.00 187.36
  A 0.61 0.61 0.0 0 1 375.61 186.75
  C 379.73 186.73 383.65 186.22 387.18 188.24
  A 2.12 2.08 0.8 0 1 387.96 189.03
  Q 391.36 195.06 386.14 198.65
  A 0.76 0.75 58.2 0 0 385.91 199.66
  L 389.38 205.67
  A 0.86 0.86 0.0 0 1 388.63 206.96
  L 387.84 206.96
  A 2.68 2.67 -14.9 0 1 385.52 205.62
  L 382.21 199.89
  A 0.84 0.83 -15.0 0 0 381.49 199.48
  L 379.08 199.48
  A 0.59 0.59 0.0 0 0 378.49 200.07
  Z
  M 378.35 190.47
  L 378.41 196.01
  A 0.53 0.53 0.0 0 0 378.94 196.53
  L 382.29 196.50
  A 3.44 3.14 -0.6 0 0 385.70 193.32
  L 385.70 193.00
  A 3.44 3.14 -0.6 0 0 382.23 189.90
  L 378.88 189.93
  A 0.53 0.53 0.0 0 0 378.35 190.47
  Z"
/>
<rect fill="#595959" x="406.87" y="186.73" width="3.26" height="20.00" rx="0.36"/>
<path fill="#595959" d="
  M 487.88 193.70
  A 0.39 0.39 0.0 0 0 488.57 193.44
  L 488.62 187.27
  A 0.64 0.64 0.0 0 1 489.26 186.64
  L 491.24 186.65
  A 0.66 0.66 0.0 0 1 491.89 187.32
  L 491.73 206.30
  A 0.48 0.48 0.0 0 1 491.24 206.78
  L 489.13 206.76
  A 0.56 0.56 0.0 0 1 488.57 206.19
  L 488.58 205.17
  A 0.38 0.38 0.0 0 0 487.95 204.89
  Q 487.40 205.38 487.00 205.78
  C 484.46 208.26 480.38 206.63 479.10 204.16
  C 477.48 201.05 477.47 194.28 481.34 192.35
  C 483.76 191.15 486.12 191.65 487.88 193.70
  Z
  M 484.8631 194.6105
  A 4.79 3.59 -90.8 0 0 481.3403 199.4501
  A 4.79 3.59 -90.8 0 0 484.9969 204.1895
  A 4.79 3.59 -90.8 0 0 488.5197 199.3499
  A 4.79 3.59 -90.8 0 0 484.8631 194.6105
  Z"
/>
<path fill="#ffffff" d="
  M 378.35 190.47
  A 0.53 0.53 0.0 0 1 378.88 189.93
  L 382.23 189.90
  A 3.44 3.14 -0.6 0 1 385.70 193.00
  L 385.70 193.32
  A 3.44 3.14 -0.6 0 1 382.29 196.50
  L 378.94 196.53
  A 0.53 0.53 0.0 0 1 378.41 196.01
  L 378.35 190.47
  Z"
/>
<path fill="#595959" d="
  M 535.67 193.77
  Q 537.17 191.43 539.77 191.66
  A 0.60 0.60 0.0 0 1 540.32 192.26
  L 540.32 194.63
  A 0.43 0.43 0.0 0 1 539.82 195.06
  Q 535.22 194.33 535.28 198.99
  Q 535.34 204.20 535.39 206.15
  A 0.61 0.60 -0.9 0 1 534.78 206.77
  L 532.62 206.77
  A 0.63 0.62 -90.0 0 1 532.00 206.14
  L 532.00 192.59
  A 0.64 0.63 90.0 0 1 532.63 191.95
  L 534.51 191.95
  A 0.63 0.63 0.0 0 1 535.14 192.62
  Q 535.08 193.71 535.08 193.72
  A 0.34 0.33 49.7 0 0 535.67 193.77
  Z"
/>
<path fill="#595959" d="
  M 404.4391 200.6322
  A 6.27 6.27 0.0 0 1 398.2130 206.9458
  L 397.0731 206.9538
  A 6.27 6.27 0.0 0 1 390.7595 200.7277
  L 390.7409 198.0678
  A 6.27 6.27 0.0 0 1 396.9670 191.7542
  L 398.1069 191.7462
  A 6.27 6.27 0.0 0 1 404.4205 197.9723
  L 404.4391 200.6322
  Z
  M 397.7112 194.4913
  A 4.90 3.65 -88.7 0 0 393.9509 199.3072
  A 4.90 3.65 -88.7 0 0 397.4888 204.2887
  A 4.90 3.65 -88.7 0 0 401.2491 199.4728
  A 4.90 3.65 -88.7 0 0 397.7112 194.4913
  Z"
/>
<path fill="#595959" d="
  M 416.41 200.22
  A 0.56 0.56 0.0 0 0 415.87 200.94
  C 416.95 204.84 419.52 204.72 422.38 203.06
  Q 423.68 202.30 425.17 202.47
  A 0.54 0.54 0.0 0 1 425.59 203.24
  C 422.89 208.58 415.12 208.22 413.01 202.71
  Q 412.10 200.33 412.81 196.89
  C 414.50 188.67 426.73 190.42 425.84 199.70
  A 0.62 0.61 2.8 0 1 425.22 200.26
  L 416.41 200.22
  Z
  M 416.10 197.87
  L 422.50 197.83
  A 0.14 0.14 0.0 0 0 422.64 197.69
  L 422.64 197.60
  A 3.28 3.09 -0.4 0 0 419.34 194.53
  L 419.22 194.53
  A 3.28 3.09 -0.4 0 0 415.96 197.64
  L 415.96 197.73
  A 0.14 0.14 0.0 0 0 416.10 197.87
  Z"
/>
<path fill="#595959" d="
  M 433.51 200.73
  C 430.35 199.97 426.81 199.32 428.08 194.97
  C 428.95 191.99 432.94 191.39 435.51 191.87
  Q 438.40 192.40 439.68 194.99
  A 0.83 0.83 0.0 0 1 439.15 196.15
  C 436.10 196.94 435.06 192.85 431.72 195.03
  A 1.31 1.31 0.0 0 0 431.86 197.31
  Q 432.43 197.59 434.03 197.97
  C 437.19 198.73 440.73 199.38 439.46 203.74
  C 438.59 206.71 434.60 207.31 432.03 206.83
  Q 429.14 206.30 427.86 203.71
  A 0.83 0.83 0.0 0 1 428.39 202.55
  C 431.44 201.76 432.48 205.85 435.82 203.67
  A 1.31 1.31 0.0 0 0 435.68 201.39
  Q 435.10 201.11 433.51 200.73
  Z"
/>
<path fill="#595959" d="
  M 457.04 205.01
  A 0.23 0.23 0.0 0 0 456.65 204.93
  C 454.37 207.58 450.07 207.73 448.30 204.76
  Q 446.99 202.56 448.10 200.58
  C 449.42 198.23 453.07 198.11 455.75 198.03
  A 1.44 1.43 64.7 0 0 456.65 195.51
  C 453.39 192.67 451.87 196.85 448.70 196.22
  A 0.48 0.47 -74.2 0 1 448.35 195.59
  C 450.02 191.13 455.21 190.85 458.65 193.04
  A 3.39 3.39 0.0 0 1 460.22 195.90
  L 460.22 206.25
  A 0.51 0.51 0.0 0 1 459.71 206.76
  L 457.50 206.76
  A 0.43 0.42 4.6 0 1 457.08 206.27
  Q 457.20 205.54 457.04 205.01
  Z
  M 455.56 200.00
  Q 454.62 199.93 452.06 200.82
  C 450.50 201.37 450.96 203.72 452.48 204.06
  Q 454.51 204.51 456.44 203.09
  A 1.72 1.71 29.1 0 0 455.56 200.00
  Z"
/>
<path fill="#595959" d="
  M 466.74 193.88
  L 468.25 192.37
  A 1.10 1.07 13.3 0 1 468.70 192.10
  C 474.18 190.51 475.88 194.34 475.63 199.33
  Q 475.59 200.24 475.68 206.27
  A 0.50 0.49 -0.6 0 1 475.18 206.77
  L 472.75 206.77
  A 0.43 0.43 0.0 0 1 472.32 206.34
  L 472.32 197.25
  A 2.55 2.55 0.0 0 0 469.46 194.72
  L 469.01 194.77
  A 2.88 2.88 0.0 0 0 466.48 197.63
  L 466.48 206.29
  A 0.50 0.49 -0.0 0 1 465.98 206.78
  L 463.66 206.78
  A 0.50 0.50 0.0 0 1 463.16 206.28
  L 463.16 192.66
  A 0.69 0.69 0.0 0 1 463.85 191.97
  L 465.81 191.97
  A 0.50 0.49 90.0 0 1 466.30 192.47
  L 466.30 193.70
  A 0.26 0.26 0.0 0 0 466.74 193.88
  Z"
/>
<path fill="#595959" d="
  M 504.54 205.36
  L 504.54 211.55
  A 0.64 0.64 0.0 0 1 503.90 212.19
  L 501.92 212.19
  A 0.66 0.66 0.0 0 1 501.26 211.53
  L 501.26 192.50
  A 0.48 0.48 0.0 0 1 501.74 192.02
  L 503.86 192.02
  A 0.56 0.56 0.0 0 1 504.42 192.58
  L 504.42 193.61
  A 0.38 0.38 0.0 0 0 505.06 193.88
  Q 505.60 193.38 506.00 192.98
  C 508.53 190.47 512.63 192.07 513.94 194.54
  C 515.59 197.64 515.66 204.42 511.79 206.39
  C 509.38 207.62 507.01 207.14 505.23 205.10
  A 0.39 0.39 0.0 0 0 504.54 205.36
  Z
  M 508.1590 194.5404
  A 4.83 3.66 -89.3 0 0 504.4403 199.3253
  A 4.83 3.66 -89.3 0 0 508.0410 204.1996
  A 4.83 3.66 -89.3 0 0 511.7597 199.4147
  A 4.83 3.66 -89.3 0 0 508.1590 194.5404
  Z"
/>
<path fill="#595959" d="
  M 520.22 200.24
  A 0.56 0.56 0.0 0 0 519.68 200.96
  C 520.78 204.85 523.35 204.72 526.20 203.05
  Q 527.49 202.29 528.98 202.45
  A 0.54 0.54 0.0 0 1 529.41 203.22
  C 526.73 208.57 518.96 208.24 516.83 202.74
  Q 515.91 200.37 516.60 196.93
  C 518.25 188.70 530.49 190.39 529.64 199.68
  A 0.62 0.61 2.5 0 1 529.02 200.24
  L 520.22 200.24
  Z
  M 519.82 197.88
  L 526.34 197.84
  A 0.13 0.13 0.0 0 0 526.47 197.71
  L 526.47 197.64
  A 3.29 3.12 -0.3 0 0 523.16 194.54
  L 522.96 194.54
  A 3.29 3.12 -0.3 0 0 519.69 197.68
  L 519.69 197.75
  A 0.13 0.13 0.0 0 0 519.82 197.88
  Z"
/>
<path fill="#595959" d="
  M 551.14 206.27
  L 551.15 196.97
  A 2.26 2.25 -3.0 0 0 548.66 194.73
  L 548.42 194.75
  A 2.52 2.51 -1.3 0 0 546.02 197.26
  L 545.99 206.26
  A 0.55 0.55 0.0 0 1 545.44 206.81
  L 543.02 206.81
  A 0.48 0.48 0.0 0 1 542.54 206.33
  L 542.54 192.42
  A 0.50 0.49 -0.0 0 1 543.04 191.93
  L 545.06 191.93
  A 0.56 0.56 0.0 0 1 545.62 192.49
  L 545.62 193.55
  A 0.28 0.28 0.0 0 0 546.10 193.74
  C 546.54 193.27 546.86 192.72 547.26 192.51
  Q 551.35 190.25 553.64 193.76
  A 0.59 0.59 0.0 0 0 554.62 193.78
  C 557.09 190.35 562.94 191.13 563.08 195.78
  Q 563.20 199.80 563.14 206.27
  A 0.59 0.59 0.0 0 1 562.55 206.86
  L 560.53 206.86
  A 0.57 0.57 0.0 0 1 559.96 206.29
  L 559.96 197.06
  A 2.29 2.29 0.0 0 0 557.39 194.79
  L 557.03 194.84
  A 2.84 2.84 0.0 0 0 554.54 197.66
  L 554.54 206.31
  A 0.52 0.51 0.0 0 1 554.02 206.82
  L 551.69 206.82
  A 0.55 0.55 0.0 0 1 551.14 206.27
  Z"
/>
<path fill="#595959" d="
  M 578.21 200.75
  C 575.05 200.01 571.51 199.39 572.74 195.03
  C 573.58 192.05 577.57 191.42 580.14 191.88
  Q 583.03 192.39 584.33 194.97
  A 0.83 0.82 -21.0 0 1 583.81 196.13
  C 580.77 196.94 579.70 192.86 576.38 195.07
  A 1.31 1.31 0.0 0 0 576.54 197.34
  Q 577.11 197.62 578.71 197.98
  C 581.87 198.72 585.41 199.35 584.17 203.71
  C 583.33 206.69 579.35 207.32 576.78 206.86
  Q 573.89 206.35 572.59 203.77
  A 0.83 0.82 -21.0 0 1 573.11 202.61
  C 576.15 201.79 577.22 205.87 580.54 203.67
  A 1.31 1.31 0.0 0 0 580.38 201.39
  Q 579.81 201.12 578.21 200.75
  Z"
/>
<path fill="#595959" d="
  M 591.95 200.74
  C 588.81 199.98 585.28 199.33 586.54 194.99
  C 587.41 192.03 591.39 191.43 593.95 191.91
  Q 596.83 192.44 598.11 195.02
  A 0.82 0.82 0.0 0 1 597.58 196.18
  C 594.54 196.96 593.50 192.89 590.17 195.06
  A 1.31 1.31 0.0 0 0 590.31 197.33
  Q 590.88 197.61 592.48 197.99
  C 595.62 198.75 599.15 199.40 597.89 203.74
  C 597.02 206.71 593.04 207.31 590.48 206.83
  Q 587.60 206.30 586.32 203.71
  A 0.82 0.82 0.0 0 1 586.85 202.56
  C 589.89 201.77 590.93 205.85 594.26 203.68
  A 1.31 1.31 0.0 0 0 594.12 201.40
  Q 593.55 201.13 591.95 200.74
  Z"
/>
<path fill="#595959" d="
  M 620.0076 200.7519
  A 6.24 6.24 0.0 0 1 613.7567 206.9810
  L 612.6167 206.9790
  A 6.24 6.24 0.0 0 1 606.3876 200.7281
  L 606.3924 197.9881
  A 6.24 6.24 0.0 0 1 612.6433 191.7590
  L 613.7833 191.7610
  A 6.24 6.24 0.0 0 1 620.0124 198.0119
  L 620.0076 200.7519
  Z
  M 616.6164 197.8301
  A 3.18 3.18 0.0 0 0 613.4088 194.6780
  L 612.9088 194.6824
  A 3.18 3.18 0.0 0 0 609.7567 197.8900
  L 609.7836 200.9699
  A 3.18 3.18 0.0 0 0 612.9912 204.1220
  L 613.4912 204.1176
  A 3.18 3.18 0.0 0 0 616.6433 200.9100
  L 616.6164 197.8301
  Z"
/>
<path fill="#595959" d="
  M 625.56 193.72
  A 0.26 0.26 0.0 0 0 626.00 193.90
  L 627.51 192.37
  A 1.11 1.08 12.8 0 1 627.96 192.09
  C 633.45 190.45 635.19 194.28 634.98 199.30
  Q 634.95 200.22 635.09 206.28
  A 0.50 0.49 -1.0 0 1 634.59 206.78
  L 632.15 206.80
  A 0.43 0.43 0.0 0 1 631.71 206.37
  L 631.64 197.24
  A 2.56 2.56 0.0 0 0 628.74 194.72
  L 628.29 194.77
  A 2.90 2.89 86.0 0 0 625.77 197.67
  L 625.84 206.37
  A 0.50 0.49 -0.5 0 1 625.34 206.87
  L 623.01 206.89
  A 0.50 0.50 0.0 0 1 622.51 206.39
  L 622.39 192.70
  A 0.69 0.69 0.0 0 1 623.08 192.00
  L 625.05 191.99
  A 0.50 0.49 89.5 0 1 625.55 192.48
  L 625.56 193.72
  Z"
/>
<path fill="#595959" d="
  M 643.39 200.73
  C 640.23 199.98 636.69 199.34 637.94 194.98
  C 638.80 192.01 642.79 191.39 645.36 191.87
  Q 648.25 192.39 649.54 194.97
  A 0.83 0.82 -20.7 0 1 649.01 196.13
  C 645.97 196.93 644.91 192.85 641.58 195.04
  A 1.31 1.31 0.0 0 0 641.73 197.32
  Q 642.30 197.59 643.90 197.96
  C 647.06 198.72 650.60 199.36 649.35 203.72
  C 648.49 206.69 644.50 207.31 641.93 206.83
  Q 639.04 206.31 637.75 203.73
  A 0.83 0.82 -20.7 0 1 638.28 202.57
  C 641.32 201.77 642.38 205.85 645.71 203.66
  A 1.31 1.31 0.0 0 0 645.56 201.38
  Q 644.99 201.11 643.39 200.73
  Z"
/>
<rect fill="#595959" x="566.37" y="192.01" width="3.38" height="14.72" rx="0.45"/>
<rect fill="#595959" x="600.62" y="192.01" width="3.38" height="14.76" rx="0.39"/>
<ellipse fill="#ffffff" cx="0.00" cy="0.00" transform="translate(397.60,199.39) rotate(-88.7)" rx="4.90" ry="3.65"/>
<path fill="#ffffff" d="
  M 416.10 197.87
  A 0.14 0.14 0.0 0 1 415.96 197.73
  L 415.96 197.64
  A 3.28 3.09 -0.4 0 1 419.22 194.53
  L 419.34 194.53
  A 3.28 3.09 -0.4 0 1 422.64 197.60
  L 422.64 197.69
  A 0.14 0.14 0.0 0 1 422.50 197.83
  L 416.10 197.87
  Z"
/>
<ellipse fill="#ffffff" cx="0.00" cy="0.00" transform="translate(484.93,199.40) rotate(-90.8)" rx="4.79" ry="3.59"/>
<ellipse fill="#ffffff" cx="0.00" cy="0.00" transform="translate(508.10,199.37) rotate(-89.3)" rx="4.83" ry="3.66"/>
<path fill="#ffffff" d="
  M 519.82 197.88
  A 0.13 0.13 0.0 0 1 519.69 197.75
  L 519.69 197.68
  A 3.29 3.12 -0.3 0 1 522.96 194.54
  L 523.16 194.54
  A 3.29 3.12 -0.3 0 1 526.47 197.64
  L 526.47 197.71
  A 0.13 0.13 0.0 0 1 526.34 197.84
  L 519.82 197.88
  Z"
/>
<rect fill="#ffffff" x="-3.43" y="-4.72" transform="translate(613.20,199.40) rotate(-0.5)" width="6.86" height="9.44" rx="3.18"/>
<path fill="#ffffff" d="
  M 455.56 200.00
  A 1.72 1.71 29.1 0 1 456.44 203.09
  Q 454.51 204.51 452.48 204.06
  C 450.96 203.72 450.50 201.37 452.06 200.82
  Q 454.62 199.93 455.56 200.00
  Z"
/>
<path fill="#fe552e" d="
  M 258.77 229.03
  C 270.57 229.09 276.48 243.92 267.67 251.93
  Q 266.54 252.95 265.05 254.11
  A 1.09 1.05 72.3 0 0 264.64 254.94
  L 264.51 270.55
  A 0.59 0.59 0.0 0 1 263.95 271.13
  Q 263.50 271.15 258.56 271.12
  Q 253.61 271.10 253.17 271.08
  A 0.59 0.59 0.0 0 1 252.61 270.49
  L 252.64 254.88
  A 1.09 1.05 -71.7 0 0 252.24 254.04
  Q 250.76 252.87 249.64 251.84
  C 240.92 243.74 246.97 228.96 258.77 229.03
  Z"
/>
<path fill="#89b9fb" d="
  M 666.46 285.09
  Q 660.95 281.82 654.44 279.80
  Q 654.11 275.46 659.10 271.42
  Q 660.14 270.57 659.21 269.41
  L 659.43 262.66
  A 4.52 4.48 23.5 0 0 658.11 259.34
  L 655.68 256.90
  A 4.66 4.65 -22.5 0 0 652.40 255.55
  L 647.12 255.55
  A 4.86 4.81 22.3 0 0 643.70 256.96
  L 641.04 259.62
  A 3.76 3.74 -25.6 0 0 639.96 262.67
  L 640.57 268.45
  C 639.70 270.05 639.72 270.98 641.24 272.19
  Q 645.63 275.65 645.16 279.94
  L 633.26 285.34
  A 22.41 22.39 -62.3 0 1 627.57 266.99
  A 22.42 22.41 1.8 0 1 648.01 247.83
  A 22.40 22.39 74.3 0 1 669.71 260.02
  A 22.41 22.40 52.4 0 1 666.46 285.09
  Z"
/>
<path fill="#1e2022" d="
  M 659.21 269.41
  Q 656.41 270.00 656.36 266.89
  A 0.93 0.92 10.6 0 0 655.78 266.05
  Q 655.27 265.85 654.31 265.91
  C 652.89 266.00 652.02 265.36 651.74 264.24
  A 0.93 0.93 0.0 0 0 650.18 263.81
  Q 648.04 265.94 645.75 265.33
  A 1.73 1.72 13.6 0 0 643.63 266.62
  L 643.03 269.29
  A 0.71 0.70 7.5 0 1 642.32 269.83
  Q 641.10 269.80 640.57 268.45
  L 639.96 262.67
  A 3.76 3.74 -25.6 0 1 641.04 259.62
  L 643.70 256.96
  A 4.86 4.81 22.3 0 1 647.12 255.55
  L 652.40 255.55
  A 4.66 4.65 -22.5 0 1 655.68 256.90
  L 658.11 259.34
  A 4.52 4.48 23.5 0 1 659.43 262.66
  L 659.21 269.41
  Z"
/>
<circle fill="#595959" cx="431.24" cy="261.21" r="1.79"/>
<path fill="#595959" d="
  M 401.62 266.50
  A 0.36 0.36 0.0 0 0 402.25 266.26
  L 402.23 260.60
  A 0.58 0.58 0.0 0 1 402.81 260.01
  L 404.62 260.01
  A 0.60 0.60 0.0 0 1 405.23 260.61
  L 405.29 278.00
  A 0.44 0.44 0.0 0 1 404.85 278.44
  L 402.92 278.44
  A 0.51 0.51 0.0 0 1 402.40 277.93
  L 402.40 276.99
  A 0.35 0.34 -21.9 0 0 401.81 276.75
  Q 401.32 277.21 400.96 277.57
  C 398.65 279.87 394.90 278.43 393.70 276.17
  C 392.18 273.35 392.09 267.15 395.62 265.34
  C 397.82 264.21 399.99 264.64 401.62 266.50
  Z
  M 399.0806 267.4123
  A 4.24 3.16 -88.1 0 0 395.7817 271.5452
  A 4.24 3.16 -88.1 0 0 398.7994 275.8877
  A 4.24 3.16 -88.1 0 0 402.0983 271.7548
  A 4.24 3.16 -88.1 0 0 399.0806 267.4123
  Z"
/>
<path fill="#595959" d="
  M 384.17 260.24
  Q 385.08 260.24 385.83 260.61
  A 1.34 1.32 4.7 0 1 386.50 261.39
  L 391.97 277.86
  A 0.49 0.48 -9.4 0 1 391.51 278.50
  L 389.42 278.50
  A 0.85 0.84 80.9 0 1 388.62 277.91
  L 387.72 275.16
  A 0.93 0.92 -8.1 0 0 386.86 274.52
  Q 386.63 274.50 384.14 274.49
  Q 381.66 274.49 381.43 274.51
  A 0.93 0.92 8.3 0 0 380.57 275.15
  L 379.66 277.89
  A 0.85 0.84 -80.7 0 1 378.86 278.48
  L 376.77 278.47
  A 0.49 0.48 9.6 0 1 376.31 277.83
  L 381.84 261.38
  A 1.34 1.32 -4.5 0 1 382.51 260.60
  Q 383.26 260.24 384.17 260.24
  Z
  M 384.10 271.50
  Q 385.55 271.51 385.91 271.48
  A 0.50 0.49 -10.5 0 0 386.35 270.85
  L 384.31 263.93
  A 0.14 0.09 1.5 0 0 384.21 263.86
  Q 384.18 263.86 384.16 263.86
  Q 384.13 263.86 384.10 263.86
  A 0.14 0.09 -0.7 0 0 384.00 263.93
  L 381.86 270.82
  A 0.50 0.49 11.3 0 0 382.29 271.46
  Q 382.64 271.49 384.10 271.50
  Z"
/>
<path fill="#45a770" d="
  M 545.52 274.42
  L 559.12 260.82
  A 1.62 1.61 -43.1 0 1 561.47 260.89
  L 561.67 261.12
  A 1.87 1.87 0.0 0 1 561.65 263.79
  Q 549.26 275.83 548.32 276.82
  Q 546.89 278.33 545.31 278.96
  A 2.04 2.03 56.3 0 1 543.13 278.52
  L 536.17 271.64
  A 1.75 1.75 0.0 0 1 536.28 269.05
  L 536.36 268.99
  A 1.95 1.95 0.0 0 1 539.00 269.10
  L 544.34 274.42
  A 0.83 0.83 0.0 0 0 545.52 274.42
  Z"
/>
<path fill="#45a770" d="
  M 591.62 274.42
  A 0.83 0.83 0.0 0 0 592.80 274.41
  L 606.36 260.77
  A 1.62 1.61 -43.3 0 1 608.71 260.84
  L 608.92 261.06
  A 1.87 1.87 0.0 0 1 608.90 263.74
  Q 596.55 275.81 595.61 276.81
  Q 594.18 278.32 592.60 278.95
  A 2.04 2.03 56.1 0 1 590.42 278.52
  L 583.44 271.66
  A 1.75 1.75 0.0 0 1 583.55 269.07
  L 583.63 269.01
  A 1.95 1.95 0.0 0 1 586.27 269.11
  L 591.62 274.42
  Z"
/>
<path fill="#d08e35" d="
  M 659.21 269.41
  Q 660.14 270.57 659.10 271.42
  Q 654.11 275.46 654.44 279.80
  Q 653.53 285.69 648.37 284.37
  Q 645.06 283.53 645.16 279.94
  Q 645.63 275.65 641.24 272.19
  C 639.72 270.98 639.70 270.05 640.57 268.45
  Q 641.10 269.80 642.32 269.83
  A 0.71 0.70 7.5 0 0 643.03 269.29
  L 643.63 266.62
  A 1.73 1.72 13.6 0 1 645.75 265.33
  Q 648.04 265.94 650.18 263.81
  A 0.93 0.93 0.0 0 1 651.74 264.24
  C 652.02 265.36 652.89 266.00 654.31 265.91
  Q 655.27 265.85 655.78 266.05
  A 0.93 0.92 10.6 0 1 656.36 266.89
  Q 656.41 270.00 659.21 269.41
  Z"
/>
<path fill="#ffffff" d="
  M 384.16 263.86
  Q 384.18 263.86 384.21 263.86
  A 0.14 0.09 1.5 0 1 384.31 263.93
  L 386.35 270.85
  A 0.50 0.49 -10.5 0 1 385.91 271.48
  Q 385.55 271.51 384.10 271.50
  Q 382.64 271.49 382.29 271.46
  A 0.50 0.49 11.3 0 1 381.86 270.82
  L 384.00 263.93
  A 0.14 0.09 -0.7 0 1 384.10 263.86
  Q 384.13 263.86 384.16 263.86
  Z"
/>
<path fill="#595959" d="
  M 418.83 278.38
  L 416.74 278.39
  A 0.49 0.49 0.0 0 1 416.24 277.90
  L 416.20 269.53
  A 2.03 2.03 0.0 0 0 413.95 267.53
  L 413.73 267.55
  A 2.26 2.26 0.0 0 0 411.59 269.82
  L 411.61 277.91
  A 0.49 0.49 0.0 0 1 411.11 278.41
  L 408.94 278.42
  A 0.43 0.43 0.0 0 1 408.50 277.99
  L 408.43 265.49
  A 0.45 0.44 -0.3 0 1 408.88 265.04
  L 410.70 265.03
  A 0.50 0.50 0.0 0 1 411.20 265.53
  L 411.21 266.49
  A 0.25 0.25 0.0 0 0 411.64 266.65
  C 412.04 266.23 412.32 265.73 412.68 265.54
  Q 416.35 263.49 418.42 266.63
  A 0.54 0.53 -43.9 0 0 419.30 266.65
  C 421.51 263.55 426.77 264.22 426.92 268.40
  Q 427.05 272.02 427.03 277.84
  A 0.53 0.53 0.0 0 1 426.50 278.37
  L 424.68 278.38
  A 0.51 0.51 0.0 0 1 424.17 277.87
  L 424.12 269.57
  A 2.06 2.06 0.0 0 0 421.80 267.54
  L 421.48 267.59
  A 2.56 2.55 86.1 0 0 419.25 270.14
  L 419.30 277.92
  A 0.47 0.46 -0.3 0 1 418.83 278.38
  Z"
/>
<path fill="#595959" d="
  M 438.43 266.51
  A 0.24 0.23 -22.3 0 0 438.83 266.67
  L 440.21 265.31
  A 1.00 0.97 13.4 0 1 440.61 265.06
  C 445.59 263.63 447.12 267.11 446.89 271.63
  Q 446.85 272.46 446.92 277.93
  A 0.45 0.44 -0.5 0 1 446.47 278.38
  L 444.26 278.38
  A 0.39 0.39 0.0 0 1 443.87 277.99
  L 443.89 269.74
  A 2.31 2.31 0.0 0 0 441.30 267.44
  L 440.89 267.48
  A 2.61 2.61 0.0 0 0 438.59 270.08
  L 438.58 277.93
  A 0.45 0.44 0.1 0 1 438.12 278.38
  L 436.02 278.37
  A 0.45 0.45 0.0 0 1 435.56 277.92
  L 435.59 265.56
  A 0.63 0.63 0.0 0 1 436.21 264.94
  L 437.99 264.94
  A 0.45 0.44 -89.9 0 1 438.44 265.39
  L 438.43 266.51
  Z"
/>
<rect fill="#595959" x="429.71" y="265.01" width="3.14" height="13.44" rx="0.53"/>
<ellipse fill="#ffffff" cx="0.00" cy="0.00" transform="translate(398.94,271.65) rotate(-88.1)" rx="4.24" ry="3.16"/>
<path fill="#fe552e" d="
  M 645.16 279.94
  Q 645.06 283.53 648.37 284.37
  Q 653.53 285.69 654.44 279.80
  Q 660.95 281.82 666.46 285.09
  A 22.41 22.41 0.0 0 1 636.67 288.36
  A 22.83 22.50 -3.1 0 1 633.26 285.34
  L 645.16 279.94
  Z"
/>
<path fill="#595959" d="
  M 346.84 320.74
  L 346.83 325.01
  Q 345.41 325.14 345.99 320.78
  Q 345.62 321.22 345.77 320.87
  A 0.40 0.40 0.0 0 1 346.21 320.64
  Q 346.47 320.69 346.84 320.74
  Z"
/>
<path fill="#45a770" d="
  M 647.5936 323.2551
  A 22.83 22.55 -96.0 0 1 672.4065 343.6029
  A 22.83 22.55 -96.0 0 1 652.3664 368.6649
  A 22.83 22.55 -96.0 0 1 627.5535 348.3171
  A 22.83 22.55 -96.0 0 1 647.5936 323.2551
  Z
  M 646.03 355.95
  Q 647.27 359.64 649.84 361.96
  A 0.60 0.59 35.4 0 0 650.76 361.81
  L 654.08 355.82
  L 663.97 357.91
  A 0.35 0.35 0.0 0 0 664.39 357.50
  Q 661.63 343.94 659.64 336.39
  C 658.48 332.03 654.32 328.82 649.51 329.12
  C 642.88 329.54 640.72 334.32 639.34 340.44
  Q 637.29 349.56 635.71 357.25
  A 0.47 0.46 0.8 0 0 636.25 357.80
  L 646.03 355.95
  Z"
/>
<path fill="#1e2022" d="
  M 654.08 355.82
  Q 652.99 352.90 655.57 350.40
  Q 658.01 348.04 656.93 343.21
  Q 656.77 342.48 654.41 338.91
  A 0.59 0.59 0.0 0 0 653.56 338.76
  C 649.44 341.91 641.28 342.03 643.61 349.92
  A 1.70 1.64 15.0 0 0 644.03 350.62
  L 646.00 352.59
  A 1.18 1.16 -64.3 0 1 646.33 353.56
  L 646.03 355.95
  L 636.25 357.80
  A 0.47 0.46 0.8 0 1 635.71 357.25
  Q 637.29 349.56 639.34 340.44
  C 640.72 334.32 642.88 329.54 649.51 329.12
  C 654.32 328.82 658.48 332.03 659.64 336.39
  Q 661.63 343.94 664.39 357.50
  A 0.35 0.35 0.0 0 1 663.97 357.91
  L 654.08 355.82
  Z"
/>
<circle fill="#595959" cx="405.91" cy="336.57" r="1.84"/>
<path fill="#595959" d="
  M 397.70 351.70
  C 395.19 355.49 389.75 353.84 389.01 349.50
  C 388.49 346.43 388.34 342.69 391.40 340.84
  Q 394.95 338.70 397.69 342.31
  A 0.25 0.24 -63.7 0 0 398.13 342.16
  L 398.13 336.06
  A 0.56 0.56 0.0 0 1 398.69 335.50
  L 400.47 335.50
  A 0.86 0.86 0.0 0 1 401.33 336.36
  L 401.33 353.01
  A 0.68 0.68 0.0 0 1 400.65 353.69
  L 398.90 353.69
  A 0.69 0.69 0.0 0 1 398.22 352.92
  Q 398.37 351.76 398.36 351.74
  A 0.38 0.38 0.0 0 0 397.70 351.70
  Z
  M 394.9478 342.6701
  A 4.24 3.21 -90.3 0 0 391.7600 346.9268
  A 4.24 3.21 -90.3 0 0 394.9922 351.1499
  A 4.24 3.21 -90.3 0 0 398.1800 346.8932
  A 4.24 3.21 -90.3 0 0 394.9478 342.6701
  Z"
/>
<path fill="#595959" d="
  M 386.50 344.68
  Q 386.50 344.98 386.50 345.18
  A 0.78 0.78 0.0 0 1 385.72 345.96
  L 379.28 345.96
  A 0.46 0.46 0.0 0 0 378.82 346.42
  L 378.82 350.20
  A 0.55 0.55 0.0 0 0 379.37 350.75
  L 386.62 350.75
  A 0.45 0.45 0.0 0 1 387.07 351.20
  L 387.07 353.19
  A 0.51 0.51 0.0 0 1 386.56 353.70
  L 376.43 353.70
  A 0.74 0.74 0.0 0 1 375.69 353.00
  Q 375.65 352.28 375.64 344.70
  Q 375.63 337.12 375.67 336.40
  A 0.74 0.74 0.0 0 1 376.40 335.70
  L 386.53 335.67
  A 0.51 0.51 0.0 0 1 387.04 336.17
  L 387.05 338.16
  A 0.45 0.45 0.0 0 1 386.60 338.62
  L 379.35 338.64
  A 0.55 0.55 0.0 0 0 378.80 339.19
  L 378.81 342.97
  A 0.46 0.46 0.0 0 0 379.28 343.43
  L 385.72 343.41
  A 0.78 0.78 0.0 0 1 386.50 344.18
  Q 386.50 344.39 386.50 344.68
  Z"
/>
<path fill="#45a770" d="
  M 544.37 350.60
  A 0.84 0.84 0.0 0 0 545.55 350.59
  L 559.11 336.89
  A 1.62 1.61 -43.4 0 1 561.46 336.95
  L 561.67 337.18
  A 1.88 1.87 -45.0 0 1 561.66 339.85
  Q 549.31 351.98 548.37 352.98
  Q 546.95 354.50 545.37 355.14
  A 2.05 2.04 56.0 0 1 543.18 354.71
  L 536.17 347.86
  A 1.76 1.75 47.2 0 1 536.27 345.26
  L 536.35 345.20
  A 1.96 1.95 47.1 0 1 538.99 345.30
  L 544.37 350.60
  Z"
/>
<path fill="#45a770" d="
  M 591.67 350.67
  A 0.83 0.83 0.0 0 0 592.85 350.67
  L 606.40 337.00
  A 1.62 1.61 -43.4 0 1 608.75 337.06
  L 608.95 337.29
  A 1.88 1.87 -44.9 0 1 608.94 339.96
  Q 596.59 352.06 595.66 353.06
  Q 594.23 354.57 592.65 355.21
  A 2.04 2.04 0.0 0 1 590.47 354.78
  L 583.48 347.92
  A 1.76 1.75 47.3 0 1 583.58 345.33
  L 583.66 345.27
  A 1.95 1.95 0.0 0 1 586.30 345.37
  L 591.67 350.67
  Z"
/>
<path fill="#595959" d="
  M 409.31 340.59
  Q 409.52 340.24 410.47 340.41
  A 0.48 0.47 -85.4 0 0 411.02 339.94
  L 411.02 337.77
  A 0.65 0.65 0.0 0 1 411.67 337.12
  L 413.69 337.12
  A 0.55 0.54 90.0 0 1 414.23 337.67
  L 414.23 339.86
  A 0.52 0.51 0.0 0 0 414.75 340.37
  L 416.52 340.37
  A 0.61 0.61 0.0 0 1 417.13 340.98
  L 417.13 342.42
  A 0.59 0.59 0.0 0 1 416.41 342.99
  L 414.84 342.64
  A 0.48 0.47 6.4 0 0 414.26 343.10
  L 414.26 349.68
  A 1.43 1.41 -67.0 0 0 414.65 350.66
  Q 415.14 351.19 416.06 351.16
  A 1.20 1.17 -53.3 0 1 416.38 353.49
  Q 412.77 354.52 411.25 351.56
  A 1.12 1.06 -60.6 0 1 411.12 351.04
  L 411.12 343.36
  A 0.56 0.56 0.0 0 0 410.79 342.85
  Q 410.48 342.71 410.09 342.78
  A 1.48 1.06 -74.0 0 1 409.31 340.59
  Z"
/>
<path fill="#f2bf8b" d="
  M 654.08 355.82
  L 650.76 361.81
  A 0.60 0.59 35.4 0 1 649.84 361.96
  Q 647.27 359.64 646.03 355.95
  L 646.33 353.56
  A 1.18 1.16 -64.3 0 0 646.00 352.59
  L 644.03 350.62
  A 1.70 1.64 15.0 0 1 643.61 349.92
  C 641.28 342.03 649.44 341.91 653.56 338.76
  A 0.59 0.59 0.0 0 1 654.41 338.91
  Q 656.77 342.48 656.93 343.21
  Q 658.01 348.04 655.57 350.40
  Q 652.99 352.90 654.08 355.82
  Z
  M 652.72 353.49
  L 646.94 353.59
  A 0.03 0.03 0.0 0 0 646.91 353.62
  L 646.91 353.65
  A 2.71 1.14 -1.0 0 0 649.64 354.74
  L 650.06 354.74
  A 2.71 1.14 -1.0 0 0 652.75 353.55
  L 652.75 353.52
  A 0.03 0.03 0.0 0 0 652.72 353.49
  Z"
/>
<path fill="#595959" d="
  M 430.7681 348.0109
  A 5.72 5.72 0.0 0 1 425.0381 353.7209
  L 423.9781 353.7191
  A 5.72 5.72 0.0 0 1 418.2681 347.9891
  L 418.2719 345.8291
  A 5.72 5.72 0.0 0 1 424.0019 340.1191
  L 425.0619 340.1209
  A 5.72 5.72 0.0 0 1 430.7719 345.8509
  L 430.7681 348.0109
  Z
  M 424.5018 342.5302
  A 4.38 3.23 -90.5 0 0 421.3101 346.9382
  A 4.38 3.23 -90.5 0 0 424.5782 351.2898
  A 4.38 3.23 -90.5 0 0 427.7699 346.8818
  A 4.38 3.23 -90.5 0 0 424.5018 342.5302
  Z"
/>
<path fill="#595959" d="
  M 435.49 341.86
  A 0.30 0.30 0.0 0 0 436.02 341.92
  Q 437.41 339.82 439.75 340.06
  A 0.55 0.54 3.4 0 1 440.24 340.61
  L 440.21 342.75
  A 0.39 0.39 0.0 0 1 439.75 343.13
  Q 435.61 342.42 435.60 346.62
  Q 435.59 351.33 435.61 353.09
  A 0.55 0.54 -0.1 0 1 435.05 353.64
  L 433.10 353.61
  A 0.57 0.56 -89.2 0 1 432.55 353.04
  L 432.72 340.80
  A 0.58 0.57 -89.2 0 1 433.30 340.23
  L 435.00 340.26
  A 0.57 0.57 0.0 0 1 435.56 340.87
  Q 435.49 341.85 435.49 341.86
  Z"
/>
<rect fill="#595959" x="-1.56" y="-6.74" transform="translate(405.94,346.98) rotate(0.1)" width="3.12" height="13.48" rx="0.50"/>
<ellipse fill="#ffffff" cx="0.00" cy="0.00" transform="translate(424.54,346.91) rotate(-90.5)" rx="4.38" ry="3.23"/>
<ellipse fill="#ffffff" cx="0.00" cy="0.00" transform="translate(394.97,346.91) rotate(-90.3)" rx="4.24" ry="3.21"/>
<path fill="#d08e35" d="
  M 652.72 353.49
  A 0.03 0.03 0.0 0 1 652.75 353.52
  L 652.75 353.55
  A 2.71 1.14 -1.0 0 1 650.06 354.74
  L 649.64 354.74
  A 2.71 1.14 -1.0 0 1 646.91 353.65
  L 646.91 353.62
  A 0.03 0.03 0.0 0 1 646.94 353.59
  L 652.72 353.49
  Z"
/>
<path fill="#f2bf8b" d="
  M 666.51 437.33
  L 655.86 432.68
  A 0.72 0.72 0.0 0 0 654.99 432.92
  C 654.47 433.66 654.29 434.38 653.47 435.13
  Q 649.31 438.95 645.76 434.26
  Q 645.25 433.59 644.78 433.00
  A 0.68 0.68 0.0 0 0 643.98 432.79
  L 633.33 437.35
  A 22.75 22.71 26.9 0 1 627.35 419.07
  A 22.73 22.73 0.0 0 1 646.30 399.37
  A 22.70 22.69 58.0 0 1 663.01 403.23
  A 22.72 22.72 0.0 0 1 671.91 416.07
  A 22.72 22.71 59.3 0 1 666.51 437.33
  Z
  M 657.87 420.16
  A 0.76 0.76 0.0 0 0 658.79 419.49
  Q 658.98 417.54 659.19 413.45
  C 659.37 409.97 658.67 408.32 655.74 406.99
  Q 653.26 405.86 648.76 406.00
  C 640.92 406.24 640.11 413.57 641.53 419.51
  A 0.60 0.60 0.0 0 0 642.69 419.50
  L 643.39 416.39
  A 1.56 1.55 -77.8 0 1 645.21 415.21
  Q 650.09 416.18 654.81 415.04
  A 1.36 1.36 0.0 0 1 656.15 415.47
  Q 657.36 416.86 657.08 419.42
  A 0.61 0.61 0.0 0 0 657.55 420.08
  L 657.87 420.16
  Z
  M 654.82 428.40
  A 0.32 0.32 0.0 0 0 654.38 428.00
  Q 650.27 429.99 645.81 428.15
  A 0.37 0.37 0.0 0 0 645.33 428.34
  L 645.30 428.40
  A 0.35 0.35 0.0 0 0 645.45 428.86
  Q 649.48 431.11 654.05 429.82
  A 0.62 0.60 0.7 0 0 654.46 429.43
  L 654.82 428.40
  Z"
/>
<path fill="#1e2022" d="
  M 657.08 419.42
  Q 657.36 416.86 656.15 415.47
  A 1.36 1.36 0.0 0 0 654.81 415.04
  Q 650.09 416.18 645.21 415.21
  A 1.56 1.55 -77.8 0 0 643.39 416.39
  L 642.69 419.50
  A 0.60 0.60 0.0 0 1 641.53 419.51
  C 640.11 413.57 640.92 406.24 648.76 406.00
  Q 653.26 405.86 655.74 406.99
  C 658.67 408.32 659.37 409.97 659.19 413.45
  Q 658.98 417.54 658.79 419.49
  A 0.76 0.76 0.0 0 1 657.87 420.16
  L 657.55 420.08
  A 0.61 0.61 0.0 0 1 657.08 419.42
  Z"
/>
<circle fill="#595959" cx="394.02" cy="412.67" r="1.85"/>
<path fill="#595959" d="
  M 383.05 425.73
  Q 383.13 425.73 383.20 425.69
  A 0.40 0.20 -84.5 0 0 383.35 425.45
  L 387.34 412.35
  A 0.88 0.87 -81.4 0 1 388.17 411.73
  L 390.50 411.73
  A 0.49 0.49 0.0 0 1 390.97 412.38
  L 385.23 428.83
  A 1.75 1.71 87.4 0 1 384.35 429.82
  Q 384.22 429.88 383.05 429.88
  Q 381.89 429.88 381.76 429.82
  A 1.75 1.71 -87.4 0 1 380.88 428.83
  L 375.12 412.39
  A 0.49 0.49 0.0 0 1 375.59 411.74
  L 377.92 411.73
  A 0.88 0.87 81.3 0 1 378.75 412.35
  L 382.75 425.45
  A 0.40 0.20 84.4 0 0 382.91 425.69
  Q 382.97 425.73 383.05 425.73
  Z"
/>
<path fill="#45a770" d="
  M 591.55 426.18
  A 0.83 0.83 0.0 0 0 592.72 426.17
  L 606.18 412.55
  A 1.61 1.60 -43.5 0 1 608.52 412.60
  L 608.72 412.83
  A 1.87 1.86 -45.0 0 1 608.72 415.49
  Q 596.46 427.55 595.53 428.54
  Q 594.11 430.05 592.54 430.69
  A 2.03 2.02 55.9 0 1 590.37 430.26
  L 583.40 423.46
  A 1.75 1.74 47.2 0 1 583.49 420.88
  L 583.57 420.82
  A 1.94 1.94 0.0 0 1 586.20 420.91
  L 591.55 426.18
  Z"
/>
<path fill="#595959" d="
  M 401.09 424.04
  A 0.51 0.51 0.0 0 0 400.59 424.69
  C 401.58 428.24 403.92 428.13 406.52 426.62
  Q 407.70 425.94 409.05 426.09
  A 0.49 0.49 0.0 0 1 409.44 426.79
  C 406.98 431.65 399.91 431.32 397.99 426.30
  Q 397.16 424.14 397.80 421.01
  C 399.34 413.53 410.48 415.12 409.66 423.57
  A 0.57 0.56 2.8 0 1 409.10 424.08
  L 401.09 424.04
  Z
  M 401.04 421.86
  L 406.36 421.84
  A 0.17 0.17 0.0 0 0 406.53 421.67
  L 406.53 421.57
  A 2.81 2.79 -0.3 0 0 403.70 418.79
  L 403.66 418.79
  A 2.81 2.79 -0.3 0 0 400.87 421.59
  L 400.87 421.69
  A 0.17 0.17 0.0 0 0 401.04 421.86
  Z"
/>
<path fill="#595959" d="
  M 420.18 416.37
  Q 420.92 416.37 421.32 416.60
  A 1.23 1.21 8.9 0 1 421.89 417.36
  L 423.88 425.80
  A 0.23 0.22 44.7 0 0 424.32 425.80
  L 426.29 417.05
  A 0.75 0.74 6.3 0 1 427.02 416.47
  L 429.29 416.47
  A 0.62 0.61 -80.5 0 1 429.87 417.29
  L 425.89 428.71
  A 1.90 1.90 0.0 0 1 422.25 428.54
  L 420.45 421.31
  A 0.33 0.12 22.4 0 0 420.26 421.14
  Q 420.21 421.12 420.15 421.12
  Q 420.09 421.12 420.05 421.14
  A 0.33 0.12 -21.7 0 0 419.86 421.31
  L 417.97 428.52
  A 1.90 1.90 0.0 0 1 414.33 428.64
  L 410.48 417.18
  A 0.62 0.61 81.2 0 1 411.07 416.36
  L 413.34 416.39
  A 0.75 0.74 -5.6 0 1 414.07 416.98
  L 415.93 425.75
  A 0.23 0.22 -44.0 0 0 416.37 425.76
  L 418.46 417.34
  A 1.23 1.21 -8.2 0 1 419.04 416.58
  Q 419.44 416.36 420.18 416.37
  Z"
/>
<path fill="#595959" d="
  M 434.03 424.01
  A 0.51 0.51 0.0 0 0 433.53 424.66
  C 434.49 428.22 436.83 428.12 439.45 426.63
  Q 440.63 425.95 441.98 426.11
  A 0.49 0.49 0.0 0 1 442.37 426.82
  C 439.87 431.67 432.80 431.29 430.91 426.25
  Q 430.10 424.08 430.76 420.96
  C 432.35 413.47 443.48 415.14 442.61 423.59
  A 0.57 0.56 3.2 0 1 442.04 424.10
  L 434.03 424.01
  Z
  M 433.80 421.83
  L 439.50 421.89
  A 0.11 0.11 0.0 0 0 439.61 421.78
  L 439.62 421.76
  A 2.95 2.95 0.0 0 0 436.70 418.78
  L 436.68 418.78
  A 2.95 2.95 0.0 0 0 433.70 421.70
  L 433.70 421.72
  A 0.11 0.11 0.0 0 0 433.80 421.83
  Z"
/>
<path fill="#595959" d="
  M 447.49 418.04
  A 0.30 0.30 0.0 0 0 448.02 418.09
  Q 449.41 415.99 451.77 416.22
  A 0.55 0.55 0.0 0 1 452.26 416.78
  L 452.23 418.92
  A 0.39 0.39 0.0 0 1 451.77 419.31
  Q 447.61 418.59 447.61 422.82
  Q 447.60 427.54 447.62 429.31
  A 0.55 0.54 -0.2 0 1 447.06 429.87
  L 445.10 429.84
  A 0.57 0.56 -89.2 0 1 444.55 429.26
  L 444.71 416.98
  A 0.58 0.57 -89.2 0 1 445.29 416.40
  L 446.99 416.43
  A 0.57 0.57 0.0 0 1 447.55 417.04
  Q 447.49 418.03 447.49 418.04
  Z"
/>
<rect fill="#595959" x="-1.56" y="-6.70" transform="translate(394.07,423.16) rotate(0.1)" width="3.12" height="13.40" rx="0.49"/>
<path fill="#ffffff" d="
  M 433.80 421.83
  A 0.11 0.11 0.0 0 1 433.70 421.72
  L 433.70 421.70
  A 2.95 2.95 0.0 0 1 436.68 418.78
  L 436.70 418.78
  A 2.95 2.95 0.0 0 1 439.62 421.76
  L 439.61 421.78
  A 0.11 0.11 0.0 0 1 439.50 421.89
  L 433.80 421.83
  Z"
/>
<path fill="#ffffff" d="
  M 401.04 421.86
  A 0.17 0.17 0.0 0 1 400.87 421.69
  L 400.87 421.59
  A 2.81 2.79 -0.3 0 1 403.66 418.79
  L 403.70 418.79
  A 2.81 2.79 -0.3 0 1 406.53 421.57
  L 406.53 421.67
  A 0.17 0.17 0.0 0 1 406.36 421.84
  L 401.04 421.86
  Z"
/>
<path fill="#d08e35" d="
  M 654.82 428.40
  L 654.46 429.43
  A 0.62 0.60 0.7 0 1 654.05 429.82
  Q 649.48 431.11 645.45 428.86
  A 0.35 0.35 0.0 0 1 645.30 428.40
  L 645.33 428.34
  A 0.37 0.37 0.0 0 1 645.81 428.15
  Q 650.27 429.99 654.38 428.00
  A 0.32 0.32 0.0 0 1 654.82 428.40
  Z"
/>
<path fill="#d08e35" d="
  M 666.51 437.33
  A 22.73 22.72 -66.0 0 1 648.00 444.45
  A 22.71 22.71 0.0 0 1 633.33 437.35
  L 643.98 432.79
  A 0.68 0.68 0.0 0 1 644.78 433.00
  Q 645.25 433.59 645.76 434.26
  Q 649.31 438.95 653.47 435.13
  C 654.29 434.38 654.47 433.66 654.99 432.92
  A 0.72 0.72 0.0 0 1 655.86 432.68
  L 666.51 437.33
  Z"
/>
</svg>
