<svg width="37" height="45" viewBox="0 0 37 45" fill="none" xmlns="http://www.w3.org/2000/svg">
<path d="M29.9998 12.9572V41C29.9998 43.2091 28.209 45 25.9998 45H4C1.79086 45 0 43.2091 0 41V9C0 6.79086 1.79086 5 4 5H21.3367L29.9998 12.9572Z" fill="#F6B44C"/>
<g filter="url(#filter0_d_182_2585)">
<path d="M29.9991 12.9572H22.3359C21.7837 12.9572 21.3359 12.5095 21.3359 11.9572V5L29.9991 12.9572Z" fill="#FFD695"/>
</g>
<path d="M8.97773 33.682C9.64373 33.682 10.2257 33.814 10.7237 34.078C11.2217 34.342 11.6057 34.714 11.8757 35.194C12.1517 35.668 12.2897 36.217 12.2897 36.841C12.2897 37.459 12.1517 38.008 11.8757 38.488C11.6057 38.968 11.2187 39.34 10.7147 39.604C10.2167 39.868 9.63773 40 8.97773 40H6.61073V33.682H8.97773ZM8.87873 38.668C9.46073 38.668 9.91373 38.509 10.2377 38.191C10.5617 37.873 10.7237 37.423 10.7237 36.841C10.7237 36.259 10.5617 35.806 10.2377 35.482C9.91373 35.158 9.46073 34.996 8.87873 34.996H8.14973V38.668H8.87873ZM17.0198 40L15.7328 38.065L14.5988 40H12.8528L14.8778 36.787L12.8078 33.682H14.5988L15.8678 35.59L16.9838 33.682H18.7298L16.7228 36.868L18.8108 40H17.0198ZM23.6964 33.682V34.915H21.1224V36.247H23.0484V37.444H21.1224V40H19.5834V33.682H23.6964Z" fill="white"/>
<g filter="url(#filter1_d_182_2585)">
<path d="M21.2049 24.6289C20.8089 23.0414 19.8576 21.6609 18.5339 20.7528H22.4667C22.6082 20.7528 22.7438 20.6949 22.8438 20.5918C22.9438 20.4887 23 20.3489 23 20.2031C23 20.0573 22.9438 19.9175 22.8438 19.8144C22.7438 19.7113 22.6082 19.6534 22.4667 19.6534H17.0674C16.9499 19.1804 16.683 18.7612 16.3089 18.4619C15.9347 18.1625 15.4746 18 15.0009 18C14.5273 18 14.0671 18.1625 13.693 18.4619C13.3188 18.7612 13.052 19.1804 12.9345 19.6534H7.53513C7.3937 19.6534 7.25806 19.7113 7.15805 19.8144C7.05804 19.9175 7.00186 20.0573 7.00186 20.2031C7.00186 20.3489 7.05804 20.4887 7.15805 20.5918C7.25806 20.6949 7.3937 20.7528 7.53513 20.7528H11.468C10.1443 21.6609 9.19295 23.0414 8.79698 24.6289C8.28496 24.7131 7.82022 24.9867 7.48967 25.3985C7.15912 25.8103 6.98539 26.3321 7.00096 26.8663C7.01654 27.4005 7.22036 27.9106 7.5743 28.3012C7.92824 28.6918 8.40808 28.9361 8.92409 28.9885C9.4401 29.0408 9.95694 28.8977 10.378 28.5857C10.799 28.2738 11.0954 27.8145 11.2118 27.2936C11.3281 26.7728 11.2564 26.2261 11.0101 25.7558C10.7638 25.2854 10.3598 24.9237 9.87352 24.7381C10.1025 23.9244 10.5095 23.1757 11.0633 22.5495C11.6171 21.9234 12.3029 21.4366 13.0678 21.1266C13.239 21.507 13.5121 21.8291 13.8549 22.0547C14.1978 22.2804 14.5961 22.4003 15.0029 22.4003C15.4097 22.4003 15.808 22.2804 16.1509 22.0547C16.4938 21.8291 16.7669 21.507 16.938 21.1266C17.7023 21.4371 18.3872 21.9242 18.9403 22.5503C19.4934 23.1763 19.8998 23.9248 20.1283 24.7381C19.6418 24.923 19.2373 25.2843 18.9905 25.7543C18.7436 26.2243 18.6712 26.7709 18.787 27.2919C18.9027 27.8129 19.1985 28.2726 19.6192 28.5851C20.0399 28.8976 20.5566 29.0414 21.0726 28.9897C21.5887 28.938 22.0689 28.6943 22.4233 28.3041C22.7777 27.914 22.9821 27.4041 22.9983 26.8699C23.0145 26.3357 22.8414 25.8137 22.5113 25.4015C22.1812 24.9893 21.7168 24.7151 21.2049 24.6303V24.6289ZM10.2015 26.7995C10.2015 27.017 10.1389 27.2295 10.0217 27.4103C9.90455 27.5911 9.73798 27.732 9.54309 27.8152C9.34821 27.8985 9.13376 27.9202 8.92687 27.8778C8.71998 27.8354 8.52994 27.7307 8.38078 27.5769C8.23162 27.4232 8.13005 27.2273 8.08889 27.014C8.04774 26.8007 8.06886 26.5797 8.14959 26.3788C8.23031 26.1779 8.36701 26.0062 8.5424 25.8854C8.71779 25.7646 8.924 25.7001 9.13494 25.7001C9.41781 25.7001 9.68909 25.816 9.8891 26.0221C10.0891 26.2283 10.2015 26.5079 10.2015 26.7995ZM15.0009 21.3025C14.79 21.3025 14.5838 21.238 14.4084 21.1172C14.233 20.9964 14.0963 20.8247 14.0156 20.6238C13.9348 20.4229 13.9137 20.2019 13.9549 19.9886C13.996 19.7754 14.0976 19.5795 14.2468 19.4257C14.3959 19.272 14.586 19.1673 14.7929 19.1248C14.9997 19.0824 15.2142 19.1042 15.4091 19.1874C15.604 19.2706 15.7705 19.4115 15.8877 19.5923C16.0049 19.7731 16.0675 19.9857 16.0675 20.2031C16.0675 20.4947 15.9551 20.7743 15.7551 20.9805C15.5551 21.1867 15.2838 21.3025 15.0009 21.3025ZM20.8669 27.8989C20.656 27.8989 20.4498 27.8345 20.2744 27.7136C20.099 27.5928 19.9623 27.4211 19.8816 27.2203C19.8008 27.0194 19.7797 26.7983 19.8209 26.585C19.862 26.3718 19.9636 26.1759 20.1128 26.0221C20.2619 25.8684 20.452 25.7637 20.6588 25.7213C20.8657 25.6788 21.0802 25.7006 21.2751 25.7838C21.4699 25.867 21.6365 26.0079 21.7537 26.1887C21.8709 26.3695 21.9335 26.5821 21.9335 26.7995C21.9335 27.0911 21.8211 27.3707 21.6211 27.5769C21.4211 27.7831 21.1498 27.8989 20.8669 27.8989Z" fill="white"/>
</g>
<defs>
<filter id="filter0_d_182_2585" x="16.5359" y="0.2" width="20.2641" height="19.557" filterUnits="userSpaceOnUse" color-interpolation-filters="sRGB">
<feFlood flood-opacity="0" result="BackgroundImageFix"/>
<feColorMatrix in="SourceAlpha" type="matrix" values="0 0 0 0 0 0 0 0 0 0 0 0 0 0 0 0 0 0 127 0" result="hardAlpha"/>
<feOffset dx="1" dy="1"/>
<feGaussianBlur stdDeviation="2.9"/>
<feComposite in2="hardAlpha" operator="out"/>
<feColorMatrix type="matrix" values="0 0 0 0 0 0 0 0 0 0 0 0 0 0 0 0 0 0 0.2 0"/>
<feBlend mode="normal" in2="BackgroundImageFix" result="effect1_dropShadow_182_2585"/>
<feBlend mode="normal" in="SourceGraphic" in2="effect1_dropShadow_182_2585" result="shape"/>
</filter>
<filter id="filter1_d_182_2585" x="3" y="18" width="24" height="19" filterUnits="userSpaceOnUse" color-interpolation-filters="sRGB">
<feFlood flood-opacity="0" result="BackgroundImageFix"/>
<feColorMatrix in="SourceAlpha" type="matrix" values="0 0 0 0 0 0 0 0 0 0 0 0 0 0 0 0 0 0 127 0" result="hardAlpha"/>
<feOffset dy="4"/>
<feGaussianBlur stdDeviation="2"/>
<feComposite in2="hardAlpha" operator="out"/>
<feColorMatrix type="matrix" values="0 0 0 0 0 0 0 0 0 0 0 0 0 0 0 0 0 0 0.25 0"/>
<feBlend mode="normal" in2="BackgroundImageFix" result="effect1_dropShadow_182_2585"/>
<feBlend mode="normal" in="SourceGraphic" in2="effect1_dropShadow_182_2585" result="shape"/>
</filter>
</defs>
</svg>
