<svg width="30" height="40" viewBox="0 0 30 40" fill="none" xmlns="http://www.w3.org/2000/svg">
<g clip-path="url(#clip0_454_98)">
<path d="M29.9998 7.9572V36C29.9998 38.2091 28.209 40 25.9998 40H4C1.79086 40 0 38.2091 0 36V4C0 1.79086 1.79086 0 4 0H21.3367L29.9998 7.9572Z" fill="#F6B44C"/>
<g filter="url(#filter0_d_454_98)">
<path d="M29.9991 7.9572H22.3359C21.7837 7.9572 21.3359 7.5095 21.3359 6.9572V0L29.9991 7.9572Z" fill="#FFD695"/>
</g>
<path d="M8.97637 28.6821C9.64237 28.6821 10.2243 28.8141 10.7223 29.0781C11.2203 29.3421 11.6043 29.7141 11.8743 30.1941C12.1503 30.6681 12.2883 31.2171 12.2883 31.8411C12.2883 32.4591 12.1503 33.0081 11.8743 33.4881C11.6043 33.9681 11.2173 34.3401 10.7133 34.6041C10.2153 34.8681 9.63637 35.0001 8.97637 35.0001H6.60938V28.6821H8.97637ZM8.87737 33.6681C9.45937 33.6681 9.91238 33.5091 10.2363 33.1911C10.5603 32.8731 10.7223 32.4231 10.7223 31.8411C10.7223 31.2591 10.5603 30.8061 10.2363 30.4821C9.91238 30.1581 9.45937 29.9961 8.87737 29.9961H8.14837V33.6681H8.87737ZM17.0184 35.0001L15.7314 33.0651L14.5974 35.0001H12.8514L14.8764 31.7871L12.8064 28.6821H14.5974L15.8664 30.5901L16.9824 28.6821H18.7284L16.7214 31.8681L18.8094 35.0001H17.0184ZM23.695 28.6821V29.9151H21.121V31.2471H23.047V32.4441H21.121V35.0001H19.582V28.6821H23.695Z" fill="white"/>
<g filter="url(#filter1_d_454_98)">
<path d="M21.2049 19.6289C20.8089 18.0414 19.8576 16.6609 18.5339 15.7528H22.4667C22.6082 15.7528 22.7438 15.6949 22.8438 15.5918C22.9438 15.4887 23 15.3489 23 15.2031C23 15.0573 22.9438 14.9175 22.8438 14.8144C22.7438 14.7113 22.6082 14.6534 22.4667 14.6534H17.0674C16.9499 14.1804 16.683 13.7612 16.3089 13.4619C15.9347 13.1625 15.4746 13 15.0009 13C14.5273 13 14.0671 13.1625 13.693 13.4619C13.3188 13.7612 13.052 14.1804 12.9345 14.6534H7.53513C7.3937 14.6534 7.25806 14.7113 7.15805 14.8144C7.05804 14.9175 7.00186 15.0573 7.00186 15.2031C7.00186 15.3489 7.05804 15.4887 7.15805 15.5918C7.25806 15.6949 7.3937 15.7528 7.53513 15.7528H11.468C10.1443 16.6609 9.19295 18.0414 8.79698 19.6289C8.28496 19.7131 7.82022 19.9867 7.48967 20.3985C7.15912 20.8103 6.98539 21.3321 7.00096 21.8663C7.01654 22.4005 7.22036 22.9106 7.5743 23.3012C7.92824 23.6918 8.40808 23.9361 8.92409 23.9885C9.4401 24.0408 9.95694 23.8977 10.378 23.5857C10.799 23.2738 11.0954 22.8145 11.2118 22.2936C11.3281 21.7728 11.2564 21.2261 11.0101 20.7558C10.7638 20.2854 10.3598 19.9237 9.87352 19.7381C10.1025 18.9244 10.5095 18.1757 11.0633 17.5495C11.6171 16.9234 12.3029 16.4366 13.0678 16.1266C13.239 16.507 13.5121 16.8291 13.8549 17.0547C14.1978 17.2804 14.5961 17.4003 15.0029 17.4003C15.4097 17.4003 15.808 17.2804 16.1509 17.0547C16.4938 16.8291 16.7669 16.507 16.938 16.1266C17.7023 16.4371 18.3872 16.9242 18.9403 17.5503C19.4934 18.1763 19.8998 18.9248 20.1283 19.7381C19.6418 19.923 19.2373 20.2843 18.9905 20.7543C18.7436 21.2243 18.6712 21.7709 18.787 22.2919C18.9027 22.8129 19.1985 23.2726 19.6192 23.5851C20.0399 23.8976 20.5566 24.0414 21.0726 23.9897C21.5887 23.938 22.0689 23.6943 22.4233 23.3041C22.7777 22.914 22.9821 22.4041 22.9983 21.8699C23.0145 21.3357 22.8414 20.8137 22.5113 20.4015C22.1812 19.9893 21.7168 19.7151 21.2049 19.6303V19.6289ZM10.2015 21.7995C10.2015 22.017 10.1389 22.2295 10.0217 22.4103C9.90455 22.5911 9.73798 22.732 9.54309 22.8152C9.34821 22.8985 9.13376 22.9202 8.92687 22.8778C8.71998 22.8354 8.52994 22.7307 8.38078 22.5769C8.23162 22.4232 8.13005 22.2273 8.08889 22.014C8.04774 21.8007 8.06886 21.5797 8.14959 21.3788C8.23031 21.1779 8.36701 21.0062 8.5424 20.8854C8.71779 20.7646 8.924 20.7001 9.13494 20.7001C9.41781 20.7001 9.68909 20.816 9.8891 21.0221C10.0891 21.2283 10.2015 21.5079 10.2015 21.7995ZM15.0009 16.3025C14.79 16.3025 14.5838 16.238 14.4084 16.1172C14.233 15.9964 14.0963 15.8247 14.0156 15.6238C13.9348 15.4229 13.9137 15.2019 13.9549 14.9886C13.996 14.7754 14.0976 14.5795 14.2468 14.4257C14.3959 14.272 14.586 14.1673 14.7929 14.1248C14.9997 14.0824 15.2142 14.1042 15.4091 14.1874C15.604 14.2706 15.7705 14.4115 15.8877 14.5923C16.0049 14.7731 16.0675 14.9857 16.0675 15.2031C16.0675 15.4947 15.9551 15.7743 15.7551 15.9805C15.5551 16.1867 15.2838 16.3025 15.0009 16.3025ZM20.8669 22.8989C20.656 22.8989 20.4498 22.8345 20.2744 22.7136C20.099 22.5928 19.9623 22.4211 19.8816 22.2203C19.8008 22.0194 19.7797 21.7983 19.8209 21.585C19.862 21.3718 19.9636 21.1759 20.1128 21.0221C20.2619 20.8684 20.452 20.7637 20.6588 20.7213C20.8657 20.6788 21.0802 20.7006 21.2751 20.7838C21.4699 20.867 21.6365 21.0079 21.7537 21.1887C21.8709 21.3695 21.9335 21.5821 21.9335 21.7995C21.9335 22.0911 21.8211 22.3707 21.6211 22.5769C21.4211 22.7831 21.1498 22.8989 20.8669 22.8989Z" fill="white"/>
</g>
</g>
<defs>
<filter id="filter0_d_454_98" x="16.5359" y="-4.8" width="20.2641" height="19.557" filterUnits="userSpaceOnUse" color-interpolation-filters="sRGB">
<feFlood flood-opacity="0" result="BackgroundImageFix"/>
<feColorMatrix in="SourceAlpha" type="matrix" values="0 0 0 0 0 0 0 0 0 0 0 0 0 0 0 0 0 0 127 0" result="hardAlpha"/>
<feOffset dx="1" dy="1"/>
<feGaussianBlur stdDeviation="2.9"/>
<feComposite in2="hardAlpha" operator="out"/>
<feColorMatrix type="matrix" values="0 0 0 0 0 0 0 0 0 0 0 0 0 0 0 0 0 0 0.2 0"/>
<feBlend mode="normal" in2="BackgroundImageFix" result="effect1_dropShadow_454_98"/>
<feBlend mode="normal" in="SourceGraphic" in2="effect1_dropShadow_454_98" result="shape"/>
</filter>
<filter id="filter1_d_454_98" x="3" y="13" width="24" height="19" filterUnits="userSpaceOnUse" color-interpolation-filters="sRGB">
<feFlood flood-opacity="0" result="BackgroundImageFix"/>
<feColorMatrix in="SourceAlpha" type="matrix" values="0 0 0 0 0 0 0 0 0 0 0 0 0 0 0 0 0 0 127 0" result="hardAlpha"/>
<feOffset dy="4"/>
<feGaussianBlur stdDeviation="2"/>
<feComposite in2="hardAlpha" operator="out"/>
<feColorMatrix type="matrix" values="0 0 0 0 0 0 0 0 0 0 0 0 0 0 0 0 0 0 0.25 0"/>
<feBlend mode="normal" in2="BackgroundImageFix" result="effect1_dropShadow_454_98"/>
<feBlend mode="normal" in="SourceGraphic" in2="effect1_dropShadow_454_98" result="shape"/>
</filter>
<clipPath id="clip0_454_98">
<rect width="30" height="40" fill="white"/>
</clipPath>
</defs>
</svg>
