<svg width="30" height="40" viewBox="0 0 30 40" fill="none" xmlns="http://www.w3.org/2000/svg">
<g clip-path="url(#clip0_454_84)">
<path d="M29.9998 7.9572V36C29.9998 38.2091 28.209 40 25.9998 40H4C1.79086 40 0 38.2091 0 36V4C0 1.79086 1.79086 0 4 0H21.3367L29.9998 7.9572Z" fill="#7FC2C8"/>
<path d="M29.9991 7.9572H22.3359C21.7837 7.9572 21.3359 7.5095 21.3359 6.9572V0L29.9991 7.9572Z" fill="#C8FBFF"/>
<g filter="url(#filter0_d_454_84)">
<path d="M9.32806 29.9149V31.1929H11.3891V32.3809H9.32806V33.7669H11.6591V34.9999H7.78906V28.6819H11.6591V29.9149H9.32806ZM17.1312 29.7709H14.3232V31.0129C14.4432 30.8809 14.6112 30.7729 14.8272 30.6889C15.0432 30.6049 15.2772 30.5629 15.5292 30.5629C15.9792 30.5629 16.3512 30.6649 16.6452 30.8689C16.9452 31.0729 17.1642 31.3369 17.3022 31.6609C17.4402 31.9849 17.5092 32.3359 17.5092 32.7139C17.5092 33.4159 17.3112 33.9739 16.9152 34.3879C16.5192 34.7959 15.9612 34.9999 15.2412 34.9999C14.7612 34.9999 14.3442 34.9189 13.9902 34.7569C13.6362 34.5889 13.3632 34.3579 13.1712 34.0639C12.9792 33.7699 12.8742 33.4309 12.8562 33.0469H14.3592C14.3952 33.2329 14.4822 33.3889 14.6202 33.5149C14.7582 33.6349 14.9472 33.6949 15.1872 33.6949C15.4692 33.6949 15.6792 33.6049 15.8172 33.4249C15.9552 33.2449 16.0242 33.0049 16.0242 32.7049C16.0242 32.4109 15.9522 32.1859 15.8082 32.0299C15.6642 31.8739 15.4542 31.7959 15.1782 31.7959C14.9742 31.7959 14.8062 31.8469 14.6742 31.9489C14.5422 32.0449 14.4552 32.1739 14.4132 32.3359H12.9282V28.4209H17.1312V29.7709ZM22.5527 29.5819L20.2937 34.9999H18.7187L21.0047 29.7529H18.2057V28.4389H22.5527V29.5819Z" fill="white"/>
</g>
<path d="M21 13.9022V20.0982C21 20.2435 20.9213 20.3773 20.7943 20.4479L15.1943 23.5589C15.0735 23.6261 14.9265 23.6261 14.8057 23.5589L9.20575 20.4479C9.07877 20.3773 9.00001 20.2435 9.00001 20.0982L9 13.9022C9 13.757 9.07876 13.6231 9.20575 13.5526L14.8057 10.4414C14.9265 10.3743 15.0735 10.3743 15.1943 10.4414L20.7943 13.5526C20.9212 13.6231 21 13.757 21 13.9022Z" stroke="white" stroke-linecap="round" stroke-linejoin="round"/>
<path d="M9.35156 13.8626L14.805 16.8923C14.9258 16.9594 15.0727 16.9594 15.1935 16.8923L20.6659 13.8521" stroke="white" stroke-linecap="round" stroke-linejoin="round"/>
<path d="M15 23V17" stroke="white" stroke-linecap="round" stroke-linejoin="round"/>
</g>
<defs>
<filter id="filter0_d_454_84" x="3.78906" y="28.4209" width="22.7617" height="14.5791" filterUnits="userSpaceOnUse" color-interpolation-filters="sRGB">
<feFlood flood-opacity="0" result="BackgroundImageFix"/>
<feColorMatrix in="SourceAlpha" type="matrix" values="0 0 0 0 0 0 0 0 0 0 0 0 0 0 0 0 0 0 127 0" result="hardAlpha"/>
<feOffset dy="4"/>
<feGaussianBlur stdDeviation="2"/>
<feComposite in2="hardAlpha" operator="out"/>
<feColorMatrix type="matrix" values="0 0 0 0 0 0 0 0 0 0 0 0 0 0 0 0 0 0 0.25 0"/>
<feBlend mode="normal" in2="BackgroundImageFix" result="effect1_dropShadow_454_84"/>
<feBlend mode="normal" in="SourceGraphic" in2="effect1_dropShadow_454_84" result="shape"/>
</filter>
<clipPath id="clip0_454_84">
<rect width="30" height="40" fill="white"/>
</clipPath>
</defs>
</svg>
