<svg width="37" height="48" viewBox="0 0 37 48" fill="none" xmlns="http://www.w3.org/2000/svg">
<path d="M29.9998 12.9572V41C29.9998 43.2091 28.209 45 25.9998 45H4C1.79086 45 0 43.2091 0 41V9C0 6.79086 1.79086 5 4 5H21.3367L29.9998 12.9572Z" fill="#7FC2C8"/>
<g filter="url(#filter0_d_182_2591)">
<path d="M29.9991 12.9572H22.3359C21.7837 12.9572 21.3359 12.5095 21.3359 11.9572V5L29.9991 12.9572Z" fill="#C8FBFF"/>
</g>
<g filter="url(#filter1_d_182_2591)">
<path d="M9.32747 34.915V36.193H11.3885V37.381H9.32747V38.767H11.6585V40H7.78847V33.682H11.6585V34.915H9.32747ZM17.1306 34.771H14.3226V36.013C14.4426 35.881 14.6106 35.773 14.8266 35.689C15.0426 35.605 15.2766 35.563 15.5286 35.563C15.9786 35.563 16.3506 35.665 16.6446 35.869C16.9446 36.073 17.1636 36.337 17.3016 36.661C17.4396 36.985 17.5086 37.336 17.5086 37.714C17.5086 38.416 17.3106 38.974 16.9146 39.388C16.5186 39.796 15.9606 40 15.2406 40C14.7606 40 14.3436 39.919 13.9896 39.757C13.6356 39.589 13.3626 39.358 13.1706 39.064C12.9786 38.77 12.8736 38.431 12.8556 38.047H14.3586C14.3946 38.233 14.4816 38.389 14.6196 38.515C14.7576 38.635 14.9466 38.695 15.1866 38.695C15.4686 38.695 15.6786 38.605 15.8166 38.425C15.9546 38.245 16.0236 38.005 16.0236 37.705C16.0236 37.411 15.9516 37.186 15.8076 37.03C15.6636 36.874 15.4536 36.796 15.1776 36.796C14.9736 36.796 14.8056 36.847 14.6736 36.949C14.5416 37.045 14.4546 37.174 14.4126 37.336H12.9276V33.421H17.1306V34.771ZM22.5521 34.582L20.2931 40H18.7181L21.0041 34.753H18.2051V33.439H22.5521V34.582Z" fill="white"/>
</g>
<path d="M21 18.9022V25.0982C21 25.2435 20.9213 25.3773 20.7943 25.4479L15.1943 28.5589C15.0735 28.6261 14.9265 28.6261 14.8057 28.5589L9.20575 25.4479C9.07877 25.3773 9.00001 25.2435 9.00001 25.0982L9 18.9022C9 18.757 9.07876 18.6231 9.20575 18.5526L14.8057 15.4414C14.9265 15.3743 15.0735 15.3743 15.1943 15.4414L20.7943 18.5526C20.9212 18.6231 21 18.757 21 18.9022Z" stroke="white" stroke-linecap="round" stroke-linejoin="round"/>
<path d="M9.35156 18.8626L14.805 21.8923C14.9258 21.9594 15.0727 21.9594 15.1935 21.8923L20.6659 18.8521" stroke="white" stroke-linecap="round" stroke-linejoin="round"/>
<path d="M15 28V22" stroke="white" stroke-linecap="round" stroke-linejoin="round"/>
<defs>
<filter id="filter0_d_182_2591" x="16.5359" y="0.2" width="20.2641" height="19.557" filterUnits="userSpaceOnUse" color-interpolation-filters="sRGB">
<feFlood flood-opacity="0" result="BackgroundImageFix"/>
<feColorMatrix in="SourceAlpha" type="matrix" values="0 0 0 0 0 0 0 0 0 0 0 0 0 0 0 0 0 0 127 0" result="hardAlpha"/>
<feOffset dx="1" dy="1"/>
<feGaussianBlur stdDeviation="2.9"/>
<feComposite in2="hardAlpha" operator="out"/>
<feColorMatrix type="matrix" values="0 0 0 0 0 0 0 0 0 0 0 0 0 0 0 0 0 0 0.2 0"/>
<feBlend mode="normal" in2="BackgroundImageFix" result="effect1_dropShadow_182_2591"/>
<feBlend mode="normal" in="SourceGraphic" in2="effect1_dropShadow_182_2591" result="shape"/>
</filter>
<filter id="filter1_d_182_2591" x="3.78906" y="33.4209" width="22.7617" height="14.5791" filterUnits="userSpaceOnUse" color-interpolation-filters="sRGB">
<feFlood flood-opacity="0" result="BackgroundImageFix"/>
<feColorMatrix in="SourceAlpha" type="matrix" values="0 0 0 0 0 0 0 0 0 0 0 0 0 0 0 0 0 0 127 0" result="hardAlpha"/>
<feOffset dy="4"/>
<feGaussianBlur stdDeviation="2"/>
<feComposite in2="hardAlpha" operator="out"/>
<feColorMatrix type="matrix" values="0 0 0 0 0 0 0 0 0 0 0 0 0 0 0 0 0 0 0.25 0"/>
<feBlend mode="normal" in2="BackgroundImageFix" result="effect1_dropShadow_182_2591"/>
<feBlend mode="normal" in="SourceGraphic" in2="effect1_dropShadow_182_2591" result="shape"/>
</filter>
</defs>
</svg>
