<svg width="30" height="40" viewBox="0 0 30 40" fill="none" xmlns="http://www.w3.org/2000/svg">
<g clip-path="url(#clip0_454_106)">
<path d="M29.9998 7.9572V36C29.9998 38.2091 28.209 40 25.9998 40H4C1.79086 40 0 38.2091 0 36V4C0 1.79086 1.79086 0 4 0H21.3367L29.9998 7.9572Z" fill="#EF421E"/>
<g filter="url(#filter0_d_454_106)">
<path d="M29.9991 7.9572H22.3359C21.7837 7.9572 21.3359 7.5095 21.3359 6.9572V0L29.9991 7.9572Z" fill="#FF7A5F"/>
</g>
<path d="M10.3828 28.6819V34.9999H8.84375V28.6819H10.3828ZM15.6111 28.6819V29.9149H13.0371V31.2469H14.9631V32.4439H13.0371V34.9999H11.4981V28.6819H15.6111ZM16.159 31.8319C16.159 31.2079 16.294 30.6529 16.564 30.1669C16.834 29.6749 17.209 29.2939 17.689 29.0239C18.175 28.7479 18.724 28.6099 19.336 28.6099C20.086 28.6099 20.728 28.8079 21.262 29.2039C21.796 29.5999 22.153 30.1399 22.333 30.8239H20.641C20.515 30.5599 20.335 30.3589 20.101 30.2209C19.873 30.0829 19.612 30.0139 19.318 30.0139C18.844 30.0139 18.46 30.1789 18.166 30.5089C17.872 30.8389 17.725 31.2799 17.725 31.8319C17.725 32.3839 17.872 32.8249 18.166 33.1549C18.46 33.4849 18.844 33.6499 19.318 33.6499C19.612 33.6499 19.873 33.5809 20.101 33.4429C20.335 33.3049 20.515 33.1039 20.641 32.8399H22.333C22.153 33.5239 21.796 34.0639 21.262 34.4599C20.728 34.8499 20.086 35.0449 19.336 35.0449C18.724 35.0449 18.175 34.9099 17.689 34.6399C17.209 34.3639 16.834 33.9829 16.564 33.4969C16.294 33.0109 16.159 32.4559 16.159 31.8319Z" fill="white"/>
<g filter="url(#filter1_d_454_106)">
<path d="M23.4667 23H22.9333V15.5C22.9333 15.3674 22.8771 15.2402 22.7771 15.1464C22.6771 15.0527 22.5414 15 22.4 15H18.1333C17.9919 15 17.8562 15.0527 17.7562 15.1464C17.6562 15.2402 17.6 15.3674 17.6 15.5V18H14.4V12.5C14.4 12.3674 14.3438 12.2402 14.2438 12.1464C14.1438 12.0527 14.0081 12 13.8667 12H9.6C9.45855 12 9.3229 12.0527 9.22288 12.1464C9.12286 12.2402 9.06667 12.3674 9.06667 12.5V23H8.53333C8.39188 23 8.25623 23.0527 8.15621 23.1464C8.05619 23.2402 8 23.3674 8 23.5C8 23.6326 8.05619 23.7598 8.15621 23.8536C8.25623 23.9473 8.39188 24 8.53333 24H23.4667C23.6081 24 23.7438 23.9473 23.8438 23.8536C23.9438 23.7598 24 23.6326 24 23.5C24 23.3674 23.9438 23.2402 23.8438 23.1464C23.7438 23.0527 23.6081 23 23.4667 23ZM18.6667 16H21.8667V23H18.6667V16ZM17.6 19V23H14.4V19H17.6ZM10.1333 13H13.3333V23H10.1333V13ZM12.2667 14.5V15.5C12.2667 15.6326 12.2105 15.7598 12.1105 15.8536C12.0104 15.9473 11.8748 16 11.7333 16C11.5919 16 11.4562 15.9473 11.3562 15.8536C11.2562 15.7598 11.2 15.6326 11.2 15.5V14.5C11.2 14.3674 11.2562 14.2402 11.3562 14.1464C11.4562 14.0527 11.5919 14 11.7333 14C11.8748 14 12.0104 14.0527 12.1105 14.1464C12.2105 14.2402 12.2667 14.3674 12.2667 14.5ZM12.2667 17.5V18.5C12.2667 18.6326 12.2105 18.7598 12.1105 18.8536C12.0104 18.9473 11.8748 19 11.7333 19C11.5919 19 11.4562 18.9473 11.3562 18.8536C11.2562 18.7598 11.2 18.6326 11.2 18.5V17.5C11.2 17.3674 11.2562 17.2402 11.3562 17.1464C11.4562 17.0527 11.5919 17 11.7333 17C11.8748 17 12.0104 17.0527 12.1105 17.1464C12.2105 17.2402 12.2667 17.3674 12.2667 17.5ZM12.2667 20.5V21.5C12.2667 21.6326 12.2105 21.7598 12.1105 21.8536C12.0104 21.9473 11.8748 22 11.7333 22C11.5919 22 11.4562 21.9473 11.3562 21.8536C11.2562 21.7598 11.2 21.6326 11.2 21.5V20.5C11.2 20.3674 11.2562 20.2402 11.3562 20.1464C11.4562 20.0527 11.5919 20 11.7333 20C11.8748 20 12.0104 20.0527 12.1105 20.1464C12.2105 20.2402 12.2667 20.3674 12.2667 20.5ZM15.4667 21.5V20.5C15.4667 20.3674 15.5229 20.2402 15.6229 20.1464C15.7229 20.0527 15.8586 20 16 20C16.1414 20 16.2771 20.0527 16.3771 20.1464C16.4771 20.2402 16.5333 20.3674 16.5333 20.5V21.5C16.5333 21.6326 16.4771 21.7598 16.3771 21.8536C16.2771 21.9473 16.1414 22 16 22C15.8586 22 15.7229 21.9473 15.6229 21.8536C15.5229 21.7598 15.4667 21.6326 15.4667 21.5ZM19.7333 21.5V20.5C19.7333 20.3674 19.7895 20.2402 19.8895 20.1464C19.9896 20.0527 20.1252 20 20.2667 20C20.4081 20 20.5438 20.0527 20.6438 20.1464C20.7438 20.2402 20.8 20.3674 20.8 20.5V21.5C20.8 21.6326 20.7438 21.7598 20.6438 21.8536C20.5438 21.9473 20.4081 22 20.2667 22C20.1252 22 19.9896 21.9473 19.8895 21.8536C19.7895 21.7598 19.7333 21.6326 19.7333 21.5ZM19.7333 18.5V17.5C19.7333 17.3674 19.7895 17.2402 19.8895 17.1464C19.9896 17.0527 20.1252 17 20.2667 17C20.4081 17 20.5438 17.0527 20.6438 17.1464C20.7438 17.2402 20.8 17.3674 20.8 17.5V18.5C20.8 18.6326 20.7438 18.7598 20.6438 18.8536C20.5438 18.9473 20.4081 19 20.2667 19C20.1252 19 19.9896 18.9473 19.8895 18.8536C19.7895 18.7598 19.7333 18.6326 19.7333 18.5Z" fill="white"/>
</g>
</g>
<defs>
<filter id="filter0_d_454_106" x="16.5359" y="-4.8" width="20.2641" height="19.557" filterUnits="userSpaceOnUse" color-interpolation-filters="sRGB">
<feFlood flood-opacity="0" result="BackgroundImageFix"/>
<feColorMatrix in="SourceAlpha" type="matrix" values="0 0 0 0 0 0 0 0 0 0 0 0 0 0 0 0 0 0 127 0" result="hardAlpha"/>
<feOffset dx="1" dy="1"/>
<feGaussianBlur stdDeviation="2.9"/>
<feComposite in2="hardAlpha" operator="out"/>
<feColorMatrix type="matrix" values="0 0 0 0 0 0 0 0 0 0 0 0 0 0 0 0 0 0 0.2 0"/>
<feBlend mode="normal" in2="BackgroundImageFix" result="effect1_dropShadow_454_106"/>
<feBlend mode="normal" in="SourceGraphic" in2="effect1_dropShadow_454_106" result="shape"/>
</filter>
<filter id="filter1_d_454_106" x="4" y="12" width="24" height="20" filterUnits="userSpaceOnUse" color-interpolation-filters="sRGB">
<feFlood flood-opacity="0" result="BackgroundImageFix"/>
<feColorMatrix in="SourceAlpha" type="matrix" values="0 0 0 0 0 0 0 0 0 0 0 0 0 0 0 0 0 0 127 0" result="hardAlpha"/>
<feOffset dy="4"/>
<feGaussianBlur stdDeviation="2"/>
<feComposite in2="hardAlpha" operator="out"/>
<feColorMatrix type="matrix" values="0 0 0 0 0 0 0 0 0 0 0 0 0 0 0 0 0 0 0.25 0"/>
<feBlend mode="normal" in2="BackgroundImageFix" result="effect1_dropShadow_454_106"/>
<feBlend mode="normal" in="SourceGraphic" in2="effect1_dropShadow_454_106" result="shape"/>
</filter>
<clipPath id="clip0_454_106">
<rect width="30" height="40" fill="white"/>
</clipPath>
</defs>
</svg>
