<svg width="37" height="45" viewBox="0 0 37 45" fill="none" xmlns="http://www.w3.org/2000/svg">
<path d="M29.9998 12.9572V41C29.9998 43.2091 28.209 45 25.9998 45H4C1.79086 45 0 43.2091 0 41V9C0 6.79086 1.79086 5 4 5H21.3367L29.9998 12.9572Z" fill="#EF421E"/>
<g filter="url(#filter0_d_182_2568)">
<path d="M29.9991 12.9572H22.3359C21.7837 12.9572 21.3359 12.5095 21.3359 11.9572V5L29.9991 12.9572Z" fill="#FF7A5F"/>
</g>
<path d="M10.3812 33.682V40H8.84218V33.682H10.3812ZM15.6095 33.682V34.915H13.0355V36.247H14.9615V37.444H13.0355V40H11.4965V33.682H15.6095ZM16.1574 36.832C16.1574 36.208 16.2924 35.653 16.5624 35.167C16.8324 34.675 17.2074 34.294 17.6874 34.024C18.1734 33.748 18.7224 33.61 19.3344 33.61C20.0844 33.61 20.7264 33.808 21.2604 34.204C21.7944 34.6 22.1514 35.14 22.3314 35.824H20.6394C20.5134 35.56 20.3334 35.359 20.0994 35.221C19.8714 35.083 19.6104 35.014 19.3164 35.014C18.8424 35.014 18.4584 35.179 18.1644 35.509C17.8704 35.839 17.7234 36.28 17.7234 36.832C17.7234 37.384 17.8704 37.825 18.1644 38.155C18.4584 38.485 18.8424 38.65 19.3164 38.65C19.6104 38.65 19.8714 38.581 20.0994 38.443C20.3334 38.305 20.5134 38.104 20.6394 37.84H22.3314C22.1514 38.524 21.7944 39.064 21.2604 39.46C20.7264 39.85 20.0844 40.045 19.3344 40.045C18.7224 40.045 18.1734 39.91 17.6874 39.64C17.2074 39.364 16.8324 38.983 16.5624 38.497C16.2924 38.011 16.1574 37.456 16.1574 36.832Z" fill="white"/>
<g filter="url(#filter1_d_182_2568)">
<path d="M23.4667 28H22.9333V20.5C22.9333 20.3674 22.8771 20.2402 22.7771 20.1464C22.6771 20.0527 22.5414 20 22.4 20H18.1333C17.9919 20 17.8562 20.0527 17.7562 20.1464C17.6562 20.2402 17.6 20.3674 17.6 20.5V23H14.4V17.5C14.4 17.3674 14.3438 17.2402 14.2438 17.1464C14.1438 17.0527 14.0081 17 13.8667 17H9.6C9.45855 17 9.3229 17.0527 9.22288 17.1464C9.12286 17.2402 9.06667 17.3674 9.06667 17.5V28H8.53333C8.39188 28 8.25623 28.0527 8.15621 28.1464C8.05619 28.2402 8 28.3674 8 28.5C8 28.6326 8.05619 28.7598 8.15621 28.8536C8.25623 28.9473 8.39188 29 8.53333 29H23.4667C23.6081 29 23.7438 28.9473 23.8438 28.8536C23.9438 28.7598 24 28.6326 24 28.5C24 28.3674 23.9438 28.2402 23.8438 28.1464C23.7438 28.0527 23.6081 28 23.4667 28ZM18.6667 21H21.8667V28H18.6667V21ZM17.6 24V28H14.4V24H17.6ZM10.1333 18H13.3333V28H10.1333V18ZM12.2667 19.5V20.5C12.2667 20.6326 12.2105 20.7598 12.1105 20.8536C12.0104 20.9473 11.8748 21 11.7333 21C11.5919 21 11.4562 20.9473 11.3562 20.8536C11.2562 20.7598 11.2 20.6326 11.2 20.5V19.5C11.2 19.3674 11.2562 19.2402 11.3562 19.1464C11.4562 19.0527 11.5919 19 11.7333 19C11.8748 19 12.0104 19.0527 12.1105 19.1464C12.2105 19.2402 12.2667 19.3674 12.2667 19.5ZM12.2667 22.5V23.5C12.2667 23.6326 12.2105 23.7598 12.1105 23.8536C12.0104 23.9473 11.8748 24 11.7333 24C11.5919 24 11.4562 23.9473 11.3562 23.8536C11.2562 23.7598 11.2 23.6326 11.2 23.5V22.5C11.2 22.3674 11.2562 22.2402 11.3562 22.1464C11.4562 22.0527 11.5919 22 11.7333 22C11.8748 22 12.0104 22.0527 12.1105 22.1464C12.2105 22.2402 12.2667 22.3674 12.2667 22.5ZM12.2667 25.5V26.5C12.2667 26.6326 12.2105 26.7598 12.1105 26.8536C12.0104 26.9473 11.8748 27 11.7333 27C11.5919 27 11.4562 26.9473 11.3562 26.8536C11.2562 26.7598 11.2 26.6326 11.2 26.5V25.5C11.2 25.3674 11.2562 25.2402 11.3562 25.1464C11.4562 25.0527 11.5919 25 11.7333 25C11.8748 25 12.0104 25.0527 12.1105 25.1464C12.2105 25.2402 12.2667 25.3674 12.2667 25.5ZM15.4667 26.5V25.5C15.4667 25.3674 15.5229 25.2402 15.6229 25.1464C15.7229 25.0527 15.8586 25 16 25C16.1414 25 16.2771 25.0527 16.3771 25.1464C16.4771 25.2402 16.5333 25.3674 16.5333 25.5V26.5C16.5333 26.6326 16.4771 26.7598 16.3771 26.8536C16.2771 26.9473 16.1414 27 16 27C15.8586 27 15.7229 26.9473 15.6229 26.8536C15.5229 26.7598 15.4667 26.6326 15.4667 26.5ZM19.7333 26.5V25.5C19.7333 25.3674 19.7895 25.2402 19.8895 25.1464C19.9896 25.0527 20.1252 25 20.2667 25C20.4081 25 20.5438 25.0527 20.6438 25.1464C20.7438 25.2402 20.8 25.3674 20.8 25.5V26.5C20.8 26.6326 20.7438 26.7598 20.6438 26.8536C20.5438 26.9473 20.4081 27 20.2667 27C20.1252 27 19.9896 26.9473 19.8895 26.8536C19.7895 26.7598 19.7333 26.6326 19.7333 26.5ZM19.7333 23.5V22.5C19.7333 22.3674 19.7895 22.2402 19.8895 22.1464C19.9896 22.0527 20.1252 22 20.2667 22C20.4081 22 20.5438 22.0527 20.6438 22.1464C20.7438 22.2402 20.8 22.3674 20.8 22.5V23.5C20.8 23.6326 20.7438 23.7598 20.6438 23.8536C20.5438 23.9473 20.4081 24 20.2667 24C20.1252 24 19.9896 23.9473 19.8895 23.8536C19.7895 23.7598 19.7333 23.6326 19.7333 23.5Z" fill="white"/>
</g>
<defs>
<filter id="filter0_d_182_2568" x="16.5359" y="0.2" width="20.2641" height="19.557" filterUnits="userSpaceOnUse" color-interpolation-filters="sRGB">
<feFlood flood-opacity="0" result="BackgroundImageFix"/>
<feColorMatrix in="SourceAlpha" type="matrix" values="0 0 0 0 0 0 0 0 0 0 0 0 0 0 0 0 0 0 127 0" result="hardAlpha"/>
<feOffset dx="1" dy="1"/>
<feGaussianBlur stdDeviation="2.9"/>
<feComposite in2="hardAlpha" operator="out"/>
<feColorMatrix type="matrix" values="0 0 0 0 0 0 0 0 0 0 0 0 0 0 0 0 0 0 0.2 0"/>
<feBlend mode="normal" in2="BackgroundImageFix" result="effect1_dropShadow_182_2568"/>
<feBlend mode="normal" in="SourceGraphic" in2="effect1_dropShadow_182_2568" result="shape"/>
</filter>
<filter id="filter1_d_182_2568" x="4" y="17" width="24" height="20" filterUnits="userSpaceOnUse" color-interpolation-filters="sRGB">
<feFlood flood-opacity="0" result="BackgroundImageFix"/>
<feColorMatrix in="SourceAlpha" type="matrix" values="0 0 0 0 0 0 0 0 0 0 0 0 0 0 0 0 0 0 127 0" result="hardAlpha"/>
<feOffset dy="4"/>
<feGaussianBlur stdDeviation="2"/>
<feComposite in2="hardAlpha" operator="out"/>
<feColorMatrix type="matrix" values="0 0 0 0 0 0 0 0 0 0 0 0 0 0 0 0 0 0 0.25 0"/>
<feBlend mode="normal" in2="BackgroundImageFix" result="effect1_dropShadow_182_2568"/>
<feBlend mode="normal" in="SourceGraphic" in2="effect1_dropShadow_182_2568" result="shape"/>
</filter>
</defs>
</svg>
