<svg width="30" height="40" viewBox="0 0 30 40" fill="none" xmlns="http://www.w3.org/2000/svg">
<g clip-path="url(#clip0_454_115)">
<path d="M29.9998 7.9572V36C29.9998 38.2091 28.209 40 25.9998 40H4C1.79086 40 0 38.2091 0 36V4C0 1.79086 1.79086 0 4 0H21.3367L29.9998 7.9572Z" fill="#435AF3"/>
<g filter="url(#filter0_d_454_115)">
<path d="M29.9991 7.9572H22.3359C21.7837 7.9572 21.3359 7.5095 21.3359 6.9572V0L29.9991 7.9572Z" fill="#7789FF"/>
</g>
<path d="M9.36713 33.8118H11.3831V34.9998H7.82812V28.6818H9.36713V33.8118ZM16.0502 33.8838H13.6922L13.3142 34.9998H11.7032L13.9892 28.6818H15.7712L18.0572 34.9998H16.4282L16.0502 33.8838ZM15.6542 32.6958L14.8712 30.3828L14.0972 32.6958H15.6542ZM21.0389 35.0628C20.5769 35.0628 20.1629 34.9878 19.7969 34.8378C19.4309 34.6878 19.1369 34.4658 18.9149 34.1718C18.6989 33.8778 18.5849 33.5238 18.5729 33.1098H20.2109C20.2349 33.3438 20.3159 33.5238 20.4539 33.6498C20.5919 33.7698 20.7719 33.8298 20.9939 33.8298C21.2219 33.8298 21.4019 33.7788 21.5339 33.6768C21.6659 33.5688 21.7319 33.4218 21.7319 33.2358C21.7319 33.0798 21.6779 32.9508 21.5699 32.8488C21.4679 32.7468 21.3389 32.6628 21.1829 32.5968C21.0329 32.5308 20.8169 32.4558 20.5349 32.3718C20.1269 32.2458 19.7939 32.1198 19.5359 31.9938C19.2779 31.8678 19.0559 31.6818 18.8699 31.4358C18.6839 31.1898 18.5909 30.8688 18.5909 30.4728C18.5909 29.8848 18.8039 29.4258 19.2299 29.0958C19.6559 28.7598 20.2109 28.5918 20.8949 28.5918C21.5909 28.5918 22.1519 28.7598 22.5779 29.0958C23.0039 29.4258 23.2319 29.8878 23.2619 30.4818H21.5969C21.5849 30.2778 21.5099 30.1188 21.3719 30.0048C21.2339 29.8848 21.0569 29.8248 20.8409 29.8248C20.6549 29.8248 20.5049 29.8758 20.3909 29.9778C20.2769 30.0738 20.2199 30.2148 20.2199 30.4008C20.2199 30.6048 20.3159 30.7638 20.5079 30.8778C20.6999 30.9918 20.9999 31.1148 21.4079 31.2468C21.8159 31.3848 22.1459 31.5168 22.3979 31.6428C22.6559 31.7688 22.8779 31.9518 23.0639 32.1918C23.2499 32.4318 23.3429 32.7408 23.3429 33.1188C23.3429 33.4788 23.2499 33.8058 23.0639 34.0998C22.8839 34.3938 22.6199 34.6278 22.2719 34.8018C21.9239 34.9758 21.5129 35.0628 21.0389 35.0628Z" fill="white"/>
<path d="M9.5 14C10.3284 14 11 13.3284 11 12.5C11 11.6716 10.3284 11 9.5 11C8.67157 11 8 11.6716 8 12.5C8 13.3284 8.67157 14 9.5 14Z" fill="white"/>
<path d="M15.5 14C16.3284 14 17 13.3284 17 12.5C17 11.6716 16.3284 11 15.5 11C14.6716 11 14 11.6716 14 12.5C14 13.3284 14.6716 14 15.5 14Z" fill="white"/>
<path d="M21.5 14C22.3284 14 23 13.3284 23 12.5C23 11.6716 22.3284 11 21.5 11C20.6716 11 20 11.6716 20 12.5C20 13.3284 20.6716 14 21.5 14Z" fill="white"/>
<path d="M9.5 19C10.3284 19 11 18.3284 11 17.5C11 16.6716 10.3284 16 9.5 16C8.67157 16 8 16.6716 8 17.5C8 18.3284 8.67157 19 9.5 19Z" fill="white"/>
<path d="M15.5 19C16.3284 19 17 18.3284 17 17.5C17 16.6716 16.3284 16 15.5 16C14.6716 16 14 16.6716 14 17.5C14 18.3284 14.6716 19 15.5 19Z" fill="white"/>
<path d="M21.5 19C22.3284 19 23 18.3284 23 17.5C23 16.6716 22.3284 16 21.5 16C20.6716 16 20 16.6716 20 17.5C20 18.3284 20.6716 19 21.5 19Z" fill="white"/>
<path d="M21.5 24C22.3284 24 23 23.3284 23 22.5C23 21.6716 22.3284 21 21.5 21C20.6716 21 20 21.6716 20 22.5C20 23.3284 20.6716 24 21.5 24Z" fill="white"/>
<path d="M15.5 24C16.3284 24 17 23.3284 17 22.5C17 21.6716 16.3284 21 15.5 21C14.6716 21 14 21.6716 14 22.5C14 23.3284 14.6716 24 15.5 24Z" fill="white"/>
<path d="M9.5 24C10.3284 24 11 23.3284 11 22.5C11 21.6716 10.3284 21 9.5 21C8.67157 21 8 21.6716 8 22.5C8 23.3284 8.67157 24 9.5 24Z" fill="white"/>
</g>
<defs>
<filter id="filter0_d_454_115" x="16.5359" y="-4.8" width="20.2641" height="19.557" filterUnits="userSpaceOnUse" color-interpolation-filters="sRGB">
<feFlood flood-opacity="0" result="BackgroundImageFix"/>
<feColorMatrix in="SourceAlpha" type="matrix" values="0 0 0 0 0 0 0 0 0 0 0 0 0 0 0 0 0 0 127 0" result="hardAlpha"/>
<feOffset dx="1" dy="1"/>
<feGaussianBlur stdDeviation="2.9"/>
<feComposite in2="hardAlpha" operator="out"/>
<feColorMatrix type="matrix" values="0 0 0 0 0 0 0 0 0 0 0 0 0 0 0 0 0 0 0.2 0"/>
<feBlend mode="normal" in2="BackgroundImageFix" result="effect1_dropShadow_454_115"/>
<feBlend mode="normal" in="SourceGraphic" in2="effect1_dropShadow_454_115" result="shape"/>
</filter>
<clipPath id="clip0_454_115">
<rect width="30" height="40" fill="white"/>
</clipPath>
</defs>
</svg>
