<svg width="37" height="45" viewBox="0 0 37 45" fill="none" xmlns="http://www.w3.org/2000/svg">
<path d="M29.9998 12.9572V41C29.9998 43.2091 28.209 45 25.9998 45H4C1.79086 45 0 43.2091 0 41V9C0 6.79086 1.79086 5 4 5H21.3367L29.9998 12.9572Z" fill="#435AF3"/>
<g filter="url(#filter0_d_182_2567)">
<path d="M29.9991 12.9572H22.3359C21.7837 12.9572 21.3359 12.5095 21.3359 11.9572V5L29.9991 12.9572Z" fill="#7789FF"/>
</g>
<path d="M9.36604 38.812H11.382V40H7.82704V33.682H9.36604V38.812ZM16.0491 38.884H13.6911L13.3131 40H11.7021L13.9881 33.682H15.7701L18.0561 40H16.4271L16.0491 38.884ZM15.6531 37.696L14.8701 35.383L14.0961 37.696H15.6531ZM21.0378 40.063C20.5758 40.063 20.1618 39.988 19.7958 39.838C19.4298 39.688 19.1358 39.466 18.9138 39.172C18.6978 38.878 18.5838 38.524 18.5718 38.11H20.2098C20.2338 38.344 20.3148 38.524 20.4528 38.65C20.5908 38.77 20.7708 38.83 20.9928 38.83C21.2208 38.83 21.4008 38.779 21.5328 38.677C21.6648 38.569 21.7308 38.422 21.7308 38.236C21.7308 38.08 21.6768 37.951 21.5688 37.849C21.4668 37.747 21.3378 37.663 21.1818 37.597C21.0318 37.531 20.8158 37.456 20.5338 37.372C20.1258 37.246 19.7928 37.12 19.5348 36.994C19.2768 36.868 19.0548 36.682 18.8688 36.436C18.6828 36.19 18.5898 35.869 18.5898 35.473C18.5898 34.885 18.8028 34.426 19.2288 34.096C19.6548 33.76 20.2098 33.592 20.8938 33.592C21.5898 33.592 22.1508 33.76 22.5768 34.096C23.0028 34.426 23.2308 34.888 23.2608 35.482H21.5958C21.5838 35.278 21.5088 35.119 21.3708 35.005C21.2328 34.885 21.0558 34.825 20.8398 34.825C20.6538 34.825 20.5038 34.876 20.3898 34.978C20.2758 35.074 20.2188 35.215 20.2188 35.401C20.2188 35.605 20.3148 35.764 20.5068 35.878C20.6988 35.992 20.9988 36.115 21.4068 36.247C21.8148 36.385 22.1448 36.517 22.3968 36.643C22.6548 36.769 22.8768 36.952 23.0628 37.192C23.2488 37.432 23.3418 37.741 23.3418 38.119C23.3418 38.479 23.2488 38.806 23.0628 39.1C22.8828 39.394 22.6188 39.628 22.2708 39.802C21.9228 39.976 21.5118 40.063 21.0378 40.063Z" fill="white"/>
<circle cx="9.5" cy="17.5" r="1.5" fill="white"/>
<circle cx="15.5" cy="17.5" r="1.5" fill="white"/>
<circle cx="21.5" cy="17.5" r="1.5" fill="white"/>
<circle cx="9.5" cy="22.5" r="1.5" fill="white"/>
<circle cx="15.5" cy="22.5" r="1.5" fill="white"/>
<circle cx="21.5" cy="22.5" r="1.5" fill="white"/>
<circle cx="21.5" cy="27.5" r="1.5" fill="white"/>
<circle cx="15.5" cy="27.5" r="1.5" fill="white"/>
<circle cx="9.5" cy="27.5" r="1.5" fill="white"/>
<defs>
<filter id="filter0_d_182_2567" x="16.5359" y="0.2" width="20.2641" height="19.557" filterUnits="userSpaceOnUse" color-interpolation-filters="sRGB">
<feFlood flood-opacity="0" result="BackgroundImageFix"/>
<feColorMatrix in="SourceAlpha" type="matrix" values="0 0 0 0 0 0 0 0 0 0 0 0 0 0 0 0 0 0 127 0" result="hardAlpha"/>
<feOffset dx="1" dy="1"/>
<feGaussianBlur stdDeviation="2.9"/>
<feComposite in2="hardAlpha" operator="out"/>
<feColorMatrix type="matrix" values="0 0 0 0 0 0 0 0 0 0 0 0 0 0 0 0 0 0 0.2 0"/>
<feBlend mode="normal" in2="BackgroundImageFix" result="effect1_dropShadow_182_2567"/>
<feBlend mode="normal" in="SourceGraphic" in2="effect1_dropShadow_182_2567" result="shape"/>
</filter>
</defs>
</svg>
