<svg width="31" height="40" viewBox="0 0 31 40" fill="none" xmlns="http://www.w3.org/2000/svg">
<g clip-path="url(#clip0_454_129)">
<path d="M30.8282 7.9572V36C30.8282 38.2091 29.025 40 26.8005 40H4.64873C2.42433 40 0.621094 38.2091 0.621094 36V4C0.621094 1.79086 2.42433 0 4.64873 0H22.1052L30.8282 7.9572Z" fill="#1F1F1F"/>
<g filter="url(#filter0_d_454_129)">
<path d="M30.8285 7.9572H23.1124C22.5564 7.9572 22.1055 7.5095 22.1055 6.9572V0L30.8285 7.9572Z" fill="#2D2D2D"/>
</g>
<path d="M16.5356 22.7728C17.2206 22.7316 17.6933 22.7015 17.9536 22.6826C18.6187 22.6346 19.4032 22.5515 20.3069 22.4331C20.5285 22.4042 20.7145 22.4465 20.8649 22.5603C20.9487 22.6239 21.0156 22.7649 21.0655 22.9832C21.0926 23.1002 21.2708 23.7482 21.6001 24.9272C21.6034 24.9384 21.6013 24.9501 21.5943 24.9603C21.5873 24.9705 21.5757 24.9786 21.5616 24.9832L18.4741 25.9822C18.4715 25.9831 18.4686 25.9831 18.466 25.9824C18.4633 25.9816 18.4612 25.9801 18.46 25.9782L16.5036 22.8142C16.501 22.81 16.4998 22.8053 16.5 22.8006C16.5003 22.7959 16.5021 22.7913 16.5052 22.7873C16.5084 22.7832 16.5128 22.7798 16.5181 22.7772C16.5234 22.7747 16.5294 22.7732 16.5356 22.7728Z" fill="#3C772D"/>
<path d="M10.1148 22.49C10.5193 22.5328 10.8397 22.5667 11.0762 22.5916C12.6042 22.7525 14.1317 22.8165 15.6586 22.7837C15.6699 22.7835 15.681 22.7857 15.6905 22.7901C15.7001 22.7945 15.7077 22.8009 15.7123 22.8085L17.7934 26.1744C17.7953 26.1774 17.7963 26.1805 17.7965 26.1838C17.7967 26.1871 17.7959 26.1903 17.7944 26.1934C17.7928 26.1965 17.7904 26.1993 17.7874 26.2017C17.7843 26.2041 17.7807 26.206 17.7766 26.2073L15.1755 27.0491C15.1577 27.0548 15.1378 27.0561 15.1189 27.0526C15.0999 27.0492 15.0829 27.0413 15.0703 27.03L10.0887 22.5246C10.085 22.5213 10.0827 22.5172 10.0822 22.5129C10.0816 22.5086 10.0828 22.5042 10.0857 22.5005C10.0885 22.4967 10.0928 22.4937 10.098 22.4918C10.1032 22.49 10.1091 22.4893 10.1148 22.49Z" fill="#1D9C26"/>
<path d="M14.3097 27.2148L7.59837 28.0939C7.59402 28.0945 7.58955 28.0943 7.58534 28.0933C7.58113 28.0923 7.57731 28.0905 7.57421 28.0881C7.57111 28.0857 7.56882 28.0828 7.56755 28.0795C7.56628 28.0763 7.56606 28.0729 7.56692 28.0696C8.36003 25.1748 8.84968 23.3961 9.03585 22.7333C9.05248 22.6737 9.09242 22.6167 9.15568 22.5623C9.15925 22.5591 9.16371 22.5566 9.16876 22.5548C9.17381 22.5531 9.17932 22.5522 9.1849 22.5522C9.19048 22.5523 9.196 22.5532 9.20107 22.555C9.20614 22.5568 9.21064 22.5595 9.21424 22.5627L14.3243 27.1847C14.327 27.1872 14.3288 27.1902 14.3295 27.1934C14.3302 27.1966 14.3298 27.1998 14.3283 27.2028C14.3269 27.2059 14.3244 27.2086 14.3211 27.2106C14.3178 27.2127 14.3139 27.2142 14.3097 27.2148Z" fill="#17B209"/>
<path d="M20.5966 29.3731C20.5861 29.3743 20.5754 29.3729 20.5661 29.3692C20.5568 29.3655 20.5494 29.3596 20.5451 29.3524L18.786 26.5078C18.7832 26.5031 18.7815 26.4981 18.7813 26.4929C18.781 26.4878 18.7822 26.4827 18.7846 26.4779C18.787 26.4731 18.7907 26.4687 18.7954 26.4649C18.8001 26.4612 18.8058 26.4582 18.8121 26.4562L21.699 25.5218C21.706 25.5195 21.7136 25.5184 21.7213 25.5186C21.7289 25.5188 21.7365 25.5202 21.7433 25.5229C21.7501 25.5255 21.756 25.5293 21.7606 25.5339C21.7652 25.5385 21.7684 25.5438 21.77 25.5494C21.9204 26.1014 22.2083 27.1503 22.6338 28.6963C22.6584 28.7862 22.6204 28.8809 22.5199 28.9803C22.4071 29.0919 22.2172 29.1659 21.95 29.2025C21.5072 29.2634 21.056 29.3203 20.5966 29.3731Z" fill="#217489"/>
<path d="M19.8083 29.4302C19.8098 29.4325 19.8105 29.4351 19.8103 29.4378C19.8102 29.4404 19.8093 29.4429 19.8076 29.4452C19.8059 29.4475 19.8035 29.4495 19.8006 29.451C19.7977 29.4524 19.7944 29.4534 19.7909 29.4537C15.8698 29.8213 11.9668 29.7384 8.08178 29.2051C7.71577 29.1551 7.39368 29.0072 7.38283 28.7155C7.3824 28.7013 7.38874 28.6874 7.40069 28.6764C7.41264 28.6655 7.4294 28.6582 7.4479 28.6558C9.86991 28.3376 12.2851 28.0215 14.6933 27.7076C14.9178 27.6784 15.1103 27.656 15.3136 27.5898C16.0616 27.3452 16.9812 27.0474 18.0726 26.6964C18.0826 26.6932 18.0939 26.693 18.1041 26.696C18.1143 26.6989 18.1227 26.7048 18.1273 26.7123L19.8083 29.4302Z" fill="#99610E"/>
<path d="M15.0139 30.2115C17.4208 30.2113 19.8073 30.0462 22.1737 29.7163C22.1779 29.7157 22.1822 29.7157 22.1864 29.7163C22.1906 29.7169 22.1946 29.7182 22.1982 29.72C22.2018 29.7218 22.2048 29.7241 22.2072 29.7269C22.2096 29.7296 22.2113 29.7326 22.2122 29.7358C22.3785 30.3658 22.4978 30.8012 22.5701 31.0419C22.6286 31.2369 22.6469 31.3619 22.6248 31.4169C22.5283 31.6615 22.1959 31.7691 21.8803 31.811C19.583 32.1157 17.2944 32.2682 15.0145 32.2684C12.7345 32.2684 10.4459 32.1162 8.14862 31.8118C7.83249 31.77 7.5001 31.6623 7.40358 31.4177C7.38153 31.3627 7.39978 31.2378 7.45835 31.0427C7.53064 30.802 7.64994 30.3666 7.81622 29.7366C7.81795 29.7302 7.8229 29.7246 7.83 29.721C7.8371 29.7173 7.84579 29.7159 7.85418 29.7171C10.2209 30.0467 12.6075 30.2115 15.0139 30.2115Z" fill="#3F3F3F" fill-opacity="0.75"/>
<path d="M15.0156 34.8606C12.7353 34.8608 10.4463 34.7088 8.14862 34.4043C7.83249 34.3625 7.5001 34.2548 7.40358 34.0103C7.38153 33.9553 7.39978 33.8303 7.45835 33.6353C7.53064 33.3945 7.64976 32.959 7.81568 32.3287C7.81753 32.3224 7.82261 32.3168 7.82982 32.3132C7.83703 32.3096 7.84578 32.3083 7.85418 32.3096C10.2209 32.639 12.6078 32.8035 15.015 32.8032C17.4222 32.803 19.8091 32.6378 22.1758 32.3076C22.18 32.307 22.1844 32.307 22.1886 32.3076C22.1928 32.3082 22.1968 32.3095 22.2004 32.3113C22.2039 32.3131 22.207 32.3154 22.2094 32.3182C22.2118 32.3209 22.2135 32.3239 22.2143 32.3271C22.3806 32.9571 22.4999 33.3925 22.5722 33.6332C22.6308 33.8282 22.649 33.9532 22.627 34.0082C22.5305 34.2528 22.1981 34.3609 21.8825 34.4027C19.5848 34.7077 17.2959 34.8603 15.0156 34.8606Z" fill="#3F3F3F" fill-opacity="0.47"/>
<path d="M15.317 16.1616C15.5417 16.1616 15.7238 15.9807 15.7238 15.7576C15.7238 15.5344 15.5417 15.3535 15.317 15.3535C15.0923 15.3535 14.9102 15.5344 14.9102 15.7576C14.9102 15.9807 15.0923 16.1616 15.317 16.1616Z" fill="#E4DCCA"/>
<path d="M20.8694 14.0118C20.8872 14.0164 20.9035 14.0166 20.9185 14.0126C20.9258 14.0107 20.9323 14.0065 20.9369 14.0006C20.9415 13.9947 20.9441 13.9874 20.9441 13.9799V12.7749C20.944 12.7628 20.9398 12.7511 20.9321 12.7418C20.9244 12.7325 20.9137 12.7262 20.9019 12.7238C20.8727 12.7183 20.8427 12.7156 20.8116 12.7156C20.058 12.7149 19.4144 12.7144 18.8808 12.7141C18.6373 12.7138 18.4107 12.6487 18.3822 12.3882C18.341 12.0126 18.6146 11.8771 18.9357 11.8782C19.8568 11.8818 20.5118 11.8822 20.9008 11.8793C20.9109 11.8792 20.9205 11.8753 20.9279 11.8684C20.9352 11.8615 20.9397 11.852 20.9405 11.8419C20.9556 11.5961 21.1941 11.4937 21.4254 11.5188C21.6465 11.543 21.7662 11.6658 21.7844 11.8872C21.7851 11.8944 21.7883 11.9011 21.7935 11.906C21.7987 11.911 21.8055 11.9137 21.8126 11.9138C22.3288 11.9172 22.9173 11.9166 23.5781 11.912C23.85 11.9101 24.018 11.927 24.0822 11.9627C24.2306 12.0458 24.2902 12.2009 24.2608 12.4281C24.2345 12.6333 24.0324 12.7123 23.8441 12.7166C23.6831 12.7202 23.04 12.7212 21.9147 12.7195C21.8822 12.7195 21.8446 12.7238 21.8018 12.7325C21.7963 12.7335 21.7913 12.7365 21.7877 12.7408C21.7842 12.7452 21.7823 12.7506 21.7823 12.7562C21.7832 13.0662 21.7836 13.4402 21.7834 13.8782C21.7834 13.9654 21.8232 14.0071 21.9028 14.0032C22.129 13.9924 22.3416 14.0011 22.4415 14.2393C22.48 14.3313 22.5018 14.4231 22.5068 14.5146C22.5222 14.8019 22.5225 15.1193 22.5075 15.467C22.4808 16.0887 21.9223 16.5084 21.3323 16.4757C20.9037 16.4523 20.5933 16.2518 20.4014 15.8745C20.2946 15.6644 20.2474 15.4345 20.2599 15.1849C20.2587 15.1448 20.2525 15.112 20.2412 15.0864C20.2378 15.0786 20.2323 15.072 20.2252 15.0673C20.218 15.0626 20.2097 15.0602 20.2011 15.0602H18.1581C18.1462 15.0602 18.1346 15.0641 18.1251 15.0712C18.1157 15.0783 18.1089 15.0884 18.1058 15.0997C18.0947 15.1402 18.0915 15.1904 18.096 15.2503C18.085 15.4946 18.0636 15.6923 18.0318 15.8432C17.9532 16.2195 17.7731 16.5142 17.5483 16.8793C17.3762 17.1586 16.9605 17.5794 16.5899 17.6408C16.092 17.7233 15.5779 17.7687 15.0478 17.777C14.7124 17.7826 14.3987 17.7562 14.1067 17.698C13.9068 17.6582 13.7491 17.6102 13.6337 17.5539C13.4812 17.4794 13.3433 17.3881 13.2202 17.28C12.7152 16.8373 12.4422 16.2789 12.4011 15.605C12.389 15.4078 12.384 15.2391 12.3859 15.099C12.386 15.0928 12.3848 15.0867 12.3825 15.081C12.3801 15.0753 12.3767 15.0701 12.3723 15.0657C12.3679 15.0613 12.3628 15.0578 12.357 15.0555C12.3513 15.0531 12.3452 15.0519 12.339 15.0519H10.2913C10.2766 15.0519 10.2625 15.0577 10.252 15.0679C10.2415 15.0782 10.2356 15.0922 10.2354 15.1069C10.2264 15.6445 10.0813 16.1149 9.57939 16.3568C9.30082 16.4912 9.01216 16.5081 8.71339 16.4197C8.26055 16.2856 7.96612 15.8396 7.95601 15.3768C7.94976 15.0945 7.95217 14.819 7.96323 14.5502C7.96684 14.4671 7.99089 14.3612 8.0354 14.2325C8.09313 14.0658 8.23397 13.9865 8.45793 13.9946C8.48824 14.0054 8.53166 14.0055 8.58819 13.995C8.6011 13.9925 8.61277 13.9857 8.62119 13.9756C8.62962 13.9655 8.63428 13.9528 8.63437 13.9396C8.6363 13.6334 8.64027 13.2702 8.64628 12.85C8.64664 12.8212 8.63582 12.7806 8.63329 12.7511C8.63256 12.7424 8.6286 12.7343 8.62218 12.7283C8.61576 12.7224 8.60736 12.7191 8.59865 12.7192C7.4986 12.7213 6.81158 12.7198 6.53759 12.7145C6.35934 12.7111 6.24388 12.6359 6.1912 12.4888C6.13815 12.3411 6.15692 12.1161 6.30089 12.0087C6.38075 11.9495 6.47276 11.9193 6.57692 11.9181C7.02411 11.9128 7.60144 11.9132 8.3089 11.9192C8.38372 11.9197 8.48234 11.9163 8.60479 11.9091C8.61161 11.9087 8.61812 11.9062 8.62337 11.9019C8.62862 11.8976 8.63234 11.8919 8.63401 11.8854C8.70209 11.6231 8.87685 11.5011 9.1583 11.5196C9.36505 11.5329 9.49639 11.6601 9.54871 11.8491C9.55131 11.8583 9.55685 11.8665 9.56447 11.8722C9.5721 11.878 9.58139 11.8811 9.59093 11.8811C10.3374 11.8825 10.9867 11.8824 11.5391 11.8807C11.7353 11.88 11.9879 11.9648 12.028 12.1833C12.0734 12.4309 11.976 12.7145 11.6809 12.7145C10.9991 12.7145 10.3412 12.7144 9.70712 12.7141C9.64674 12.7139 9.59382 12.7183 9.54835 12.7274C9.54326 12.7284 9.53867 12.7312 9.53538 12.7352C9.53209 12.7392 9.5303 12.7442 9.53031 12.7494V13.9766C9.53031 13.9849 9.53362 13.9929 9.53951 13.9987C9.5454 14.0046 9.55338 14.0079 9.5617 14.0079C10.1318 14.0096 11.0643 14.0097 12.3592 14.0083C12.5104 14.0079 12.5858 13.8289 12.663 13.7473C12.8283 13.5727 13.0026 13.5278 13.2526 13.5249C13.4427 13.5225 13.7342 13.5218 14.1273 13.5227C14.2929 13.5231 14.474 13.5094 14.6324 13.5091C14.9822 13.5084 15.7942 13.508 17.0684 13.508C17.348 13.508 17.5414 13.5087 17.7121 13.6751C17.7836 13.7448 17.8532 13.8343 17.921 13.9436C17.9806 14.0395 18.0852 14.0359 18.2133 14.0384C18.5676 14.0446 18.9812 14.0219 19.3326 14.0205C19.7774 14.019 20.2163 14.0187 20.6493 14.0194C20.7186 14.0194 20.7919 14.0169 20.8694 14.0118ZM16.3071 15.7419C16.3071 15.4659 16.197 15.2011 16.001 15.006C15.805 14.8108 15.5392 14.7011 15.2621 14.7011C15.1249 14.7011 14.989 14.7281 14.8622 14.7804C14.7354 14.8327 14.6202 14.9093 14.5232 15.006C14.4262 15.1026 14.3492 15.2173 14.2967 15.3436C14.2442 15.4699 14.2171 15.6052 14.2171 15.7419C14.2171 15.8786 14.2442 16.0139 14.2967 16.1402C14.3492 16.2664 14.4262 16.3812 14.5232 16.4778C14.6202 16.5745 14.7354 16.6511 14.8622 16.7034C14.989 16.7557 15.1249 16.7826 15.2621 16.7826C15.5392 16.7826 15.805 16.673 16.001 16.4778C16.197 16.2826 16.3071 16.0179 16.3071 15.7419Z" fill="#E4DCCA"/>
<path d="M8.37215 13.967C8.14584 13.9589 8.00352 14.0376 7.94519 14.2032C7.90022 14.3309 7.87591 14.436 7.87226 14.5186C7.86108 14.7855 7.85865 15.059 7.86497 15.3392C7.87518 15.7987 8.1727 16.2415 8.63029 16.3746C8.93219 16.4623 9.22388 16.4456 9.50537 16.3121C10.0125 16.072 10.1591 15.605 10.1682 15.0712C10.1684 15.0567 10.1745 15.0428 10.185 15.0326C10.1956 15.0224 10.2099 15.0166 10.2247 15.0166H12.2939C12.3002 15.0166 12.3064 15.0179 12.3122 15.0202C12.3179 15.0226 12.3232 15.026 12.3276 15.0304C12.332 15.0347 12.3355 15.0399 12.3378 15.0455C12.3402 15.0512 12.3414 15.0573 12.3413 15.0634C12.3394 15.2025 12.3445 15.37 12.3566 15.5657C12.3982 16.2348 12.6741 16.7891 13.1843 17.2287C13.3088 17.336 13.4481 17.4266 13.6022 17.5006C13.7188 17.5565 13.8782 17.6041 14.0802 17.6436C14.3753 17.7014 14.6922 17.7276 15.0311 17.7221C15.5668 17.7138 16.0863 17.6687 16.5894 17.5869C16.9639 17.5259 17.3839 17.1081 17.5579 16.8309C17.785 16.4684 17.967 16.1758 18.0464 15.8023C18.0785 15.6524 18.1002 15.4562 18.1113 15.2136C18.1288 15.2074 18.1432 15.2068 18.1544 15.2118C18.1584 15.2136 18.1618 15.2165 18.1641 15.2203C18.1664 15.2241 18.1675 15.2284 18.1671 15.2329C18.1562 15.3875 18.1389 15.5474 18.1153 15.7127C18.0603 16.1009 17.9017 16.3432 17.6548 16.7781C17.6179 16.8432 17.5794 16.899 17.5393 16.9454C17.53 16.9561 17.4859 17.0086 17.4069 17.1027C17.3121 17.216 17.1779 17.3342 17.0044 17.4574C16.7823 17.6154 16.5836 17.6436 16.2708 17.6829C16.1055 17.7036 15.9283 17.7233 15.7392 17.7421C15.5488 17.7614 15.3789 17.7606 15.1977 17.7689C14.879 17.7831 14.6394 17.7804 14.4787 17.7606C14.4118 17.7523 14.2695 17.7287 14.0517 17.6896C13.8794 17.6587 13.7424 17.62 13.6408 17.5733C13.0527 17.3043 12.5904 16.7271 12.4106 16.1541C12.3044 15.8151 12.2639 15.4657 12.2892 15.1058C12.2895 15.1009 12.2888 15.0959 12.2872 15.0913C12.2855 15.0866 12.2828 15.0823 12.2793 15.0787C12.2759 15.0751 12.2717 15.0722 12.2671 15.0703C12.2624 15.0683 12.2574 15.0673 12.2524 15.0673H10.2689C10.2598 15.0673 10.2511 15.0708 10.2446 15.0771C10.2382 15.0834 10.2346 15.092 10.2346 15.1008C10.2351 15.2026 10.2193 15.3303 10.1872 15.4837C10.0866 15.9664 9.77409 16.3178 9.28003 16.452C9.15424 16.4862 9.07366 16.4752 8.93365 16.4802C8.73603 16.4869 8.44835 16.3856 8.30506 16.2679C8.00972 16.0249 7.8369 15.7587 7.80736 15.3577C7.78962 15.1175 7.78828 14.8767 7.80335 14.6352C7.81575 14.4379 7.86278 14.1761 7.99368 14.0391C8.09067 13.9377 8.21682 13.9137 8.37215 13.967Z" fill="#221D1A"/>
<path d="M16.0586 16.6973L22.5679 28.8184" stroke="#FEFEFE" stroke-opacity="0.2" stroke-width="0.3"/>
<path d="M14.8359 16.8442L7.51295 28.9655" stroke="#FEFEFE" stroke-opacity="0.2" stroke-width="0.3"/>
<path d="M16.4375 16.4907L20.9317 22.5372" stroke="#FEFEFE" stroke-opacity="0.2" stroke-width="0.3"/>
<path d="M14.6172 16.6631L9.32837 22.7237" stroke="#FEFEFE" stroke-opacity="0.2" stroke-width="0.3"/>
</g>
<defs>
<filter id="filter0_d_454_129" x="17.3055" y="-4.8" width="20.3227" height="19.557" filterUnits="userSpaceOnUse" color-interpolation-filters="sRGB">
<feFlood flood-opacity="0" result="BackgroundImageFix"/>
<feColorMatrix in="SourceAlpha" type="matrix" values="0 0 0 0 0 0 0 0 0 0 0 0 0 0 0 0 0 0 127 0" result="hardAlpha"/>
<feOffset dx="1" dy="1"/>
<feGaussianBlur stdDeviation="2.9"/>
<feComposite in2="hardAlpha" operator="out"/>
<feColorMatrix type="matrix" values="0 0 0 0 0 0 0 0 0 0 0 0 0 0 0 0 0 0 0.2 0"/>
<feBlend mode="normal" in2="BackgroundImageFix" result="effect1_dropShadow_454_129"/>
<feBlend mode="normal" in="SourceGraphic" in2="effect1_dropShadow_454_129" result="shape"/>
</filter>
<clipPath id="clip0_454_129">
<rect width="31" height="40" fill="white"/>
</clipPath>
</defs>
</svg>
