<svg width="38" height="45" viewBox="0 0 38 45" fill="none" xmlns="http://www.w3.org/2000/svg">
<path d="M30.8282 12.9572V41C30.8282 43.2091 29.025 45 26.8005 45H4.64873C2.42433 45 0.621094 43.2091 0.621094 41V9C0.621094 6.79086 2.42433 5 4.64873 5H22.1052L30.8282 12.9572Z" fill="#1F1F1F"/>
<g filter="url(#filter0_d_182_2605)">
<path d="M30.8285 12.9572H23.1124C22.5564 12.9572 22.1055 12.5095 22.1055 11.9572V5L30.8285 12.9572Z" fill="#2D2D2D"/>
</g>
<path d="M16.5356 27.7728C17.2206 27.7316 17.6933 27.7015 17.9536 27.6826C18.6187 27.6346 19.4032 27.5515 20.3069 27.4331C20.5285 27.4042 20.7145 27.4465 20.8649 27.5603C20.9487 27.6239 21.0156 27.7649 21.0655 27.9832C21.0926 28.1002 21.2708 28.7482 21.6001 29.9272C21.6034 29.9384 21.6013 29.9501 21.5943 29.9603C21.5873 29.9705 21.5757 29.9786 21.5616 29.9832L18.4741 30.9822C18.4715 30.9831 18.4686 30.9831 18.466 30.9824C18.4633 30.9816 18.4612 30.9801 18.46 30.9782L16.5036 27.8142C16.501 27.81 16.4998 27.8053 16.5 27.8006C16.5003 27.7959 16.5021 27.7913 16.5052 27.7873C16.5084 27.7832 16.5128 27.7798 16.5181 27.7772C16.5234 27.7747 16.5294 27.7732 16.5356 27.7728Z" fill="#3C772D"/>
<path d="M10.1148 27.49C10.5193 27.5328 10.8397 27.5667 11.0762 27.5916C12.6042 27.7525 14.1317 27.8165 15.6586 27.7837C15.6699 27.7835 15.681 27.7857 15.6905 27.7901C15.7001 27.7945 15.7077 27.8009 15.7123 27.8085L17.7934 31.1744C17.7953 31.1774 17.7963 31.1805 17.7965 31.1838C17.7967 31.1871 17.7959 31.1903 17.7944 31.1934C17.7928 31.1965 17.7904 31.1993 17.7874 31.2017C17.7843 31.2041 17.7807 31.206 17.7766 31.2073L15.1755 32.0491C15.1577 32.0548 15.1378 32.0561 15.1189 32.0526C15.0999 32.0492 15.0829 32.0413 15.0703 32.03L10.0887 27.5246C10.085 27.5213 10.0827 27.5172 10.0822 27.5129C10.0816 27.5086 10.0828 27.5042 10.0857 27.5005C10.0885 27.4967 10.0928 27.4937 10.098 27.4918C10.1032 27.49 10.1091 27.4893 10.1148 27.49Z" fill="#1D9C26"/>
<path d="M14.3097 32.2148L7.59837 33.0939C7.59402 33.0945 7.58955 33.0943 7.58534 33.0933C7.58113 33.0923 7.57731 33.0905 7.57421 33.0881C7.57111 33.0857 7.56882 33.0828 7.56755 33.0795C7.56628 33.0763 7.56606 33.0729 7.56692 33.0696C8.36003 30.1748 8.84968 28.3961 9.03585 27.7333C9.05248 27.6737 9.09242 27.6167 9.15568 27.5623C9.15925 27.5591 9.16371 27.5566 9.16876 27.5548C9.17381 27.5531 9.17932 27.5522 9.1849 27.5522C9.19048 27.5523 9.196 27.5532 9.20107 27.555C9.20614 27.5568 9.21064 27.5595 9.21424 27.5627L14.3243 32.1847C14.327 32.1872 14.3288 32.1902 14.3295 32.1934C14.3302 32.1966 14.3298 32.1998 14.3283 32.2028C14.3269 32.2059 14.3244 32.2086 14.3211 32.2106C14.3178 32.2127 14.3139 32.2142 14.3097 32.2148Z" fill="#17B209"/>
<path d="M20.5966 34.3731C20.5861 34.3743 20.5754 34.3729 20.5661 34.3692C20.5568 34.3655 20.5494 34.3596 20.5451 34.3524L18.786 31.5078C18.7832 31.5031 18.7815 31.4981 18.7813 31.4929C18.781 31.4878 18.7822 31.4827 18.7846 31.4779C18.787 31.4731 18.7907 31.4687 18.7954 31.4649C18.8001 31.4612 18.8058 31.4582 18.8121 31.4562L21.699 30.5218C21.706 30.5195 21.7136 30.5184 21.7213 30.5186C21.7289 30.5188 21.7365 30.5202 21.7433 30.5229C21.7501 30.5255 21.756 30.5293 21.7606 30.5339C21.7652 30.5385 21.7684 30.5438 21.77 30.5494C21.9204 31.1014 22.2083 32.1503 22.6338 33.6963C22.6584 33.7862 22.6204 33.8809 22.5199 33.9803C22.4071 34.0919 22.2172 34.1659 21.95 34.2025C21.5072 34.2634 21.056 34.3203 20.5966 34.3731Z" fill="#217489"/>
<path d="M19.8083 34.4302C19.8098 34.4325 19.8105 34.4351 19.8103 34.4378C19.8102 34.4404 19.8093 34.4429 19.8076 34.4452C19.8059 34.4475 19.8035 34.4495 19.8006 34.451C19.7977 34.4524 19.7944 34.4534 19.7909 34.4537C15.8698 34.8213 11.9668 34.7384 8.08178 34.2051C7.71577 34.1551 7.39368 34.0072 7.38283 33.7155C7.3824 33.7013 7.38874 33.6874 7.40069 33.6764C7.41264 33.6655 7.4294 33.6582 7.4479 33.6558C9.86991 33.3376 12.2851 33.0215 14.6933 32.7076C14.9178 32.6784 15.1103 32.656 15.3136 32.5898C16.0616 32.3452 16.9812 32.0474 18.0726 31.6964C18.0826 31.6932 18.0939 31.693 18.1041 31.696C18.1143 31.6989 18.1227 31.7048 18.1273 31.7123L19.8083 34.4302Z" fill="#99610E"/>
<path d="M15.0139 35.2115C17.4208 35.2113 19.8073 35.0462 22.1737 34.7163C22.1779 34.7157 22.1822 34.7157 22.1864 34.7163C22.1906 34.7169 22.1946 34.7182 22.1982 34.72C22.2018 34.7218 22.2048 34.7241 22.2072 34.7269C22.2096 34.7296 22.2113 34.7326 22.2122 34.7358C22.3785 35.3658 22.4978 35.8012 22.5701 36.0419C22.6286 36.2369 22.6469 36.3619 22.6248 36.4169C22.5283 36.6615 22.1959 36.7691 21.8803 36.811C19.583 37.1157 17.2944 37.2682 15.0145 37.2684C12.7345 37.2684 10.4459 37.1162 8.14862 36.8118C7.83249 36.77 7.5001 36.6623 7.40358 36.4177C7.38153 36.3627 7.39978 36.2378 7.45835 36.0427C7.53064 35.802 7.64994 35.3666 7.81622 34.7366C7.81795 34.7302 7.8229 34.7246 7.83 34.721C7.8371 34.7173 7.84579 34.7159 7.85418 34.7171C10.2209 35.0467 12.6075 35.2115 15.0139 35.2115Z" fill="#3F3F3F" fill-opacity="0.75"/>
<path d="M15.0156 39.8606C12.7353 39.8608 10.4463 39.7088 8.14862 39.4043C7.83249 39.3625 7.5001 39.2548 7.40358 39.0103C7.38153 38.9553 7.39978 38.8303 7.45835 38.6353C7.53064 38.3945 7.64976 37.959 7.81568 37.3287C7.81753 37.3224 7.82261 37.3168 7.82982 37.3132C7.83703 37.3096 7.84578 37.3083 7.85418 37.3096C10.2209 37.639 12.6078 37.8035 15.015 37.8032C17.4222 37.803 19.8091 37.6378 22.1758 37.3076C22.18 37.307 22.1844 37.307 22.1886 37.3076C22.1928 37.3082 22.1968 37.3095 22.2004 37.3113C22.2039 37.3131 22.207 37.3154 22.2094 37.3182C22.2118 37.3209 22.2135 37.3239 22.2143 37.3271C22.3806 37.9571 22.4999 38.3925 22.5722 38.6332C22.6308 38.8282 22.649 38.9532 22.627 39.0082C22.5305 39.2528 22.1981 39.3609 21.8825 39.4027C19.5848 39.7077 17.2959 39.8603 15.0156 39.8606Z" fill="#3F3F3F" fill-opacity="0.47"/>
<path d="M15.317 21.1616C15.5417 21.1616 15.7238 20.9807 15.7238 20.7576C15.7238 20.5344 15.5417 20.3535 15.317 20.3535C15.0923 20.3535 14.9102 20.5344 14.9102 20.7576C14.9102 20.9807 15.0923 21.1616 15.317 21.1616Z" fill="#E4DCCA"/>
<path d="M20.8694 19.0118C20.8872 19.0164 20.9035 19.0166 20.9185 19.0126C20.9258 19.0107 20.9323 19.0065 20.9369 19.0006C20.9415 18.9947 20.9441 18.9874 20.9441 18.9799V17.7749C20.944 17.7628 20.9398 17.7511 20.9321 17.7418C20.9244 17.7325 20.9137 17.7262 20.9019 17.7238C20.8727 17.7183 20.8427 17.7156 20.8116 17.7156C20.058 17.7149 19.4144 17.7144 18.8808 17.7141C18.6373 17.7138 18.4107 17.6487 18.3822 17.3882C18.341 17.0126 18.6146 16.8771 18.9357 16.8782C19.8568 16.8818 20.5118 16.8822 20.9008 16.8793C20.9109 16.8792 20.9205 16.8753 20.9279 16.8684C20.9352 16.8615 20.9397 16.852 20.9405 16.8419C20.9556 16.5961 21.1941 16.4937 21.4254 16.5188C21.6465 16.543 21.7662 16.6658 21.7844 16.8872C21.7851 16.8944 21.7883 16.9011 21.7935 16.906C21.7987 16.911 21.8055 16.9137 21.8126 16.9138C22.3288 16.9172 22.9173 16.9166 23.5781 16.912C23.85 16.9101 24.018 16.927 24.0822 16.9627C24.2306 17.0458 24.2902 17.2009 24.2608 17.4281C24.2345 17.6333 24.0324 17.7123 23.8441 17.7166C23.6831 17.7202 23.04 17.7212 21.9147 17.7195C21.8822 17.7195 21.8446 17.7238 21.8018 17.7325C21.7963 17.7335 21.7913 17.7365 21.7877 17.7408C21.7842 17.7452 21.7823 17.7506 21.7823 17.7562C21.7832 18.0662 21.7836 18.4402 21.7834 18.8782C21.7834 18.9654 21.8232 19.0071 21.9028 19.0032C22.129 18.9924 22.3416 19.0011 22.4415 19.2393C22.48 19.3313 22.5018 19.4231 22.5068 19.5146C22.5222 19.8019 22.5225 20.1193 22.5075 20.467C22.4808 21.0887 21.9223 21.5084 21.3323 21.4757C20.9037 21.4523 20.5933 21.2518 20.4014 20.8745C20.2946 20.6644 20.2474 20.4345 20.2599 20.1849C20.2587 20.1448 20.2525 20.112 20.2412 20.0864C20.2378 20.0786 20.2323 20.072 20.2252 20.0673C20.218 20.0626 20.2097 20.0602 20.2011 20.0602H18.1581C18.1462 20.0602 18.1346 20.0641 18.1251 20.0712C18.1157 20.0783 18.1089 20.0884 18.1058 20.0997C18.0947 20.1402 18.0915 20.1904 18.096 20.2503C18.085 20.4946 18.0636 20.6923 18.0318 20.8432C17.9532 21.2195 17.7731 21.5142 17.5483 21.8793C17.3762 22.1586 16.9605 22.5794 16.5899 22.6408C16.092 22.7233 15.5779 22.7687 15.0478 22.777C14.7124 22.7826 14.3987 22.7562 14.1067 22.698C13.9068 22.6582 13.7491 22.6102 13.6337 22.5539C13.4812 22.4794 13.3433 22.3881 13.2202 22.28C12.7152 21.8373 12.4422 21.2789 12.4011 20.605C12.389 20.4078 12.384 20.2391 12.3859 20.099C12.386 20.0928 12.3848 20.0867 12.3825 20.081C12.3801 20.0753 12.3767 20.0701 12.3723 20.0657C12.3679 20.0613 12.3628 20.0578 12.357 20.0555C12.3513 20.0531 12.3452 20.0519 12.339 20.0519H10.2913C10.2766 20.0519 10.2625 20.0577 10.252 20.0679C10.2415 20.0782 10.2356 20.0922 10.2354 20.1069C10.2264 20.6445 10.0813 21.1149 9.57939 21.3568C9.30082 21.4912 9.01216 21.5081 8.71339 21.4197C8.26055 21.2856 7.96612 20.8396 7.95601 20.3768C7.94976 20.0945 7.95217 19.819 7.96323 19.5502C7.96684 19.4671 7.99089 19.3612 8.0354 19.2325C8.09313 19.0658 8.23397 18.9865 8.45793 18.9946C8.48824 19.0054 8.53166 19.0055 8.58819 18.995C8.6011 18.9925 8.61277 18.9857 8.62119 18.9756C8.62962 18.9655 8.63428 18.9528 8.63437 18.9396C8.6363 18.6334 8.64027 18.2702 8.64628 17.85C8.64664 17.8212 8.63582 17.7806 8.63329 17.7511C8.63256 17.7424 8.6286 17.7343 8.62218 17.7283C8.61576 17.7224 8.60736 17.7191 8.59865 17.7192C7.4986 17.7213 6.81158 17.7198 6.53759 17.7145C6.35934 17.7111 6.24388 17.6359 6.1912 17.4888C6.13815 17.3411 6.15692 17.1161 6.30089 17.0087C6.38075 16.9495 6.47276 16.9193 6.57692 16.9181C7.02411 16.9128 7.60144 16.9132 8.3089 16.9192C8.38372 16.9197 8.48234 16.9163 8.60479 16.9091C8.61161 16.9087 8.61812 16.9062 8.62337 16.9019C8.62862 16.8976 8.63234 16.8919 8.63401 16.8854C8.70209 16.6231 8.87685 16.5011 9.1583 16.5196C9.36505 16.5329 9.49639 16.6601 9.54871 16.8491C9.55131 16.8583 9.55685 16.8665 9.56447 16.8722C9.5721 16.878 9.58139 16.8811 9.59093 16.8811C10.3374 16.8825 10.9867 16.8824 11.5391 16.8807C11.7353 16.88 11.9879 16.9648 12.028 17.1833C12.0734 17.4309 11.976 17.7145 11.6809 17.7145C10.9991 17.7145 10.3412 17.7144 9.70712 17.7141C9.64674 17.7139 9.59382 17.7183 9.54835 17.7274C9.54326 17.7284 9.53867 17.7312 9.53538 17.7352C9.53209 17.7392 9.5303 17.7442 9.53031 17.7494V18.9766C9.53031 18.9849 9.53362 18.9929 9.53951 18.9987C9.5454 19.0046 9.55338 19.0079 9.5617 19.0079C10.1318 19.0096 11.0643 19.0097 12.3592 19.0083C12.5104 19.0079 12.5858 18.8289 12.663 18.7473C12.8283 18.5727 13.0026 18.5278 13.2526 18.5249C13.4427 18.5225 13.7342 18.5218 14.1273 18.5227C14.2929 18.5231 14.474 18.5094 14.6324 18.5091C14.9822 18.5084 15.7942 18.508 17.0684 18.508C17.348 18.508 17.5414 18.5087 17.7121 18.6751C17.7836 18.7448 17.8532 18.8343 17.921 18.9436C17.9806 19.0395 18.0852 19.0359 18.2133 19.0384C18.5676 19.0446 18.9812 19.0219 19.3326 19.0205C19.7774 19.019 20.2163 19.0187 20.6493 19.0194C20.7186 19.0194 20.7919 19.0169 20.8694 19.0118ZM16.3071 20.7419C16.3071 20.4659 16.197 20.2011 16.001 20.006C15.805 19.8108 15.5392 19.7011 15.2621 19.7011C15.1249 19.7011 14.989 19.7281 14.8622 19.7804C14.7354 19.8327 14.6202 19.9093 14.5232 20.006C14.4262 20.1026 14.3492 20.2173 14.2967 20.3436C14.2442 20.4699 14.2171 20.6052 14.2171 20.7419C14.2171 20.8786 14.2442 21.0139 14.2967 21.1402C14.3492 21.2664 14.4262 21.3812 14.5232 21.4778C14.6202 21.5745 14.7354 21.6511 14.8622 21.7034C14.989 21.7557 15.1249 21.7826 15.2621 21.7826C15.5392 21.7826 15.805 21.673 16.001 21.4778C16.197 21.2826 16.3071 21.0179 16.3071 20.7419Z" fill="#E4DCCA"/>
<path d="M8.37215 18.967C8.14584 18.9589 8.00352 19.0376 7.94519 19.2032C7.90022 19.3309 7.87591 19.436 7.87226 19.5186C7.86108 19.7855 7.85865 20.059 7.86497 20.3392C7.87518 20.7987 8.1727 21.2415 8.63029 21.3746C8.93219 21.4623 9.22388 21.4456 9.50537 21.3121C10.0125 21.072 10.1591 20.605 10.1682 20.0712C10.1684 20.0567 10.1745 20.0428 10.185 20.0326C10.1956 20.0224 10.2099 20.0166 10.2247 20.0166H12.2939C12.3002 20.0166 12.3064 20.0179 12.3122 20.0202C12.3179 20.0226 12.3232 20.026 12.3276 20.0304C12.332 20.0347 12.3355 20.0399 12.3378 20.0455C12.3402 20.0512 12.3414 20.0573 12.3413 20.0634C12.3394 20.2025 12.3445 20.37 12.3566 20.5657C12.3982 21.2348 12.6741 21.7891 13.1843 22.2287C13.3088 22.336 13.4481 22.4266 13.6022 22.5006C13.7188 22.5565 13.8782 22.6041 14.0802 22.6436C14.3753 22.7014 14.6922 22.7276 15.0311 22.7221C15.5668 22.7138 16.0863 22.6687 16.5894 22.5869C16.9639 22.5259 17.3839 22.1081 17.5579 21.8309C17.785 21.4684 17.967 21.1758 18.0464 20.8023C18.0785 20.6524 18.1002 20.4562 18.1113 20.2136C18.1288 20.2074 18.1432 20.2068 18.1544 20.2118C18.1584 20.2136 18.1618 20.2165 18.1641 20.2203C18.1664 20.2241 18.1675 20.2284 18.1671 20.2329C18.1562 20.3875 18.1389 20.5474 18.1153 20.7127C18.0603 21.1009 17.9017 21.3432 17.6548 21.7781C17.6179 21.8432 17.5794 21.899 17.5393 21.9454C17.53 21.9561 17.4859 22.0086 17.4069 22.1027C17.3121 22.216 17.1779 22.3342 17.0044 22.4574C16.7823 22.6154 16.5836 22.6436 16.2708 22.6829C16.1055 22.7036 15.9283 22.7233 15.7392 22.7421C15.5488 22.7614 15.3789 22.7606 15.1977 22.7689C14.879 22.7831 14.6394 22.7804 14.4787 22.7606C14.4118 22.7523 14.2695 22.7287 14.0517 22.6896C13.8794 22.6587 13.7424 22.62 13.6408 22.5733C13.0527 22.3043 12.5904 21.7271 12.4106 21.1541C12.3044 20.8151 12.2639 20.4657 12.2892 20.1058C12.2895 20.1009 12.2888 20.0959 12.2872 20.0913C12.2855 20.0866 12.2828 20.0823 12.2793 20.0787C12.2759 20.0751 12.2717 20.0722 12.2671 20.0703C12.2624 20.0683 12.2574 20.0673 12.2524 20.0673H10.2689C10.2598 20.0673 10.2511 20.0708 10.2446 20.0771C10.2382 20.0834 10.2346 20.092 10.2346 20.1008C10.2351 20.2026 10.2193 20.3303 10.1872 20.4837C10.0866 20.9664 9.77409 21.3178 9.28003 21.452C9.15424 21.4862 9.07366 21.4752 8.93365 21.4802C8.73603 21.4869 8.44835 21.3856 8.30506 21.2679C8.00972 21.0249 7.8369 20.7587 7.80736 20.3577C7.78962 20.1175 7.78828 19.8767 7.80335 19.6352C7.81575 19.4379 7.86278 19.1761 7.99368 19.0391C8.09067 18.9377 8.21682 18.9137 8.37215 18.967Z" fill="#221D1A"/>
<line y1="-0.15" x2="13.7584" y2="-0.15" transform="matrix(0.473114 0.881001 -0.883692 0.468069 15.9258 21.7676)" stroke="#FEFEFE" stroke-opacity="0.2" stroke-width="0.3"/>
<line y1="-0.15" x2="14.1616" y2="-0.15" transform="matrix(-0.517102 0.855924 -0.859049 -0.511893 14.707 21.7676)" stroke="#FEFEFE" stroke-opacity="0.2" stroke-width="0.3"/>
<line y1="-0.15" x2="7.5338" y2="-0.15" transform="matrix(0.596541 0.802583 -0.80649 0.591247 16.3164 21.5796)" stroke="#FEFEFE" stroke-opacity="0.2" stroke-width="0.3"/>
<line y1="-0.15" x2="8.04379" y2="-0.15" transform="matrix(-0.657503 0.753452 -0.757915 -0.652353 14.5039 21.5654)" stroke="#FEFEFE" stroke-opacity="0.2" stroke-width="0.3"/>
<defs>
<filter id="filter0_d_182_2605" x="17.3055" y="0.2" width="20.3227" height="19.557" filterUnits="userSpaceOnUse" color-interpolation-filters="sRGB">
<feFlood flood-opacity="0" result="BackgroundImageFix"/>
<feColorMatrix in="SourceAlpha" type="matrix" values="0 0 0 0 0 0 0 0 0 0 0 0 0 0 0 0 0 0 127 0" result="hardAlpha"/>
<feOffset dx="1" dy="1"/>
<feGaussianBlur stdDeviation="2.9"/>
<feComposite in2="hardAlpha" operator="out"/>
<feColorMatrix type="matrix" values="0 0 0 0 0 0 0 0 0 0 0 0 0 0 0 0 0 0 0.2 0"/>
<feBlend mode="normal" in2="BackgroundImageFix" result="effect1_dropShadow_182_2605"/>
<feBlend mode="normal" in="SourceGraphic" in2="effect1_dropShadow_182_2605" result="shape"/>
</filter>
</defs>
</svg>
