<svg width="30" height="40" viewBox="0 0 30 40" fill="none" xmlns="http://www.w3.org/2000/svg">
<g clip-path="url(#clip0_454_147)">
<path d="M29.9998 7.9572V36C29.9998 38.2091 28.209 40 25.9998 40H4C1.79086 40 0 38.2091 0 36V4C0 1.79086 1.79086 0 4 0H21.3367L29.9998 7.9572Z" fill="#C54E34"/>
<g filter="url(#filter0_d_454_147)">
<path d="M29.9991 7.9572H22.3359C21.7837 7.9572 21.3359 7.5095 21.3359 6.9572V0L29.9991 7.9572Z" fill="#FF8B71"/>
</g>
<g filter="url(#filter1_d_454_147)">
<path d="M12.4009 30.7161C12.4009 31.0821 12.3169 31.4181 12.1489 31.7241C11.9809 32.0241 11.7229 32.2671 11.3749 32.4531C11.0269 32.6391 10.5949 32.7321 10.0789 32.7321H9.12494V35.0001H7.58594V28.6821H10.0789C10.5829 28.6821 11.0089 28.7691 11.3569 28.9431C11.7049 29.1171 11.9659 29.3571 12.1399 29.6631C12.3139 29.9691 12.4009 30.3201 12.4009 30.7161ZM9.96194 31.5081C10.2559 31.5081 10.4749 31.4391 10.6189 31.3011C10.7629 31.1631 10.8349 30.9681 10.8349 30.7161C10.8349 30.4641 10.7629 30.2691 10.6189 30.1311C10.4749 29.9931 10.2559 29.9241 9.96194 29.9241H9.12494V31.5081H9.96194ZM14.7411 33.8121H16.7571V35.0001H13.2021V28.6821H14.7411V33.8121ZM22.9092 28.6821L20.7222 32.9121V35.0001H19.1832V32.9121L16.9962 28.6821H18.7422L19.9662 31.3281L21.1812 28.6821H22.9092Z" fill="white"/>
</g>
<path d="M21.3972 13.0859C21.2052 12.9002 20.9771 12.7528 20.7262 12.6523C20.4752 12.5518 20.2062 12.5 19.9345 12.5C19.6628 12.5 19.3938 12.5518 19.1429 12.6523C18.8919 12.7528 18.6638 12.9002 18.4718 13.0859C18.3416 13.2117 18.2294 13.3538 18.1382 13.5083L16.3142 13.0272C16.3198 12.6293 16.2025 12.2389 15.9774 11.9058C15.7523 11.5727 15.4295 11.3121 15.0503 11.1574C14.6712 11.0027 14.2529 10.9608 13.849 11.0372C13.4451 11.1135 13.074 11.3046 12.783 11.5861C12.4724 11.8871 12.2689 12.2759 12.2019 12.6962C12.135 13.1165 12.2081 13.5465 12.4107 13.9239L10.2169 15.8331C9.8189 15.5787 9.34227 15.465 8.86755 15.5111C8.39284 15.5572 7.94913 15.7604 7.61139 16.0862C7.23376 16.4485 7.01506 16.9376 7.00075 17.4518C6.98643 17.966 7.17761 18.4657 7.53453 18.8472C7.89146 19.2286 8.38668 19.4624 8.91729 19.5C9.4479 19.5376 9.97308 19.3761 10.3837 19.049L14.9083 22.2586C14.7635 22.6092 14.7243 22.9922 14.7952 23.3634C14.8661 23.7346 15.0442 24.0789 15.309 24.3563C15.5738 24.6337 15.9144 24.8331 16.2914 24.9312C16.6684 25.0294 17.0664 25.0224 17.4395 24.911C17.8126 24.7996 18.1454 24.5884 18.3995 24.3018C18.6536 24.0152 18.8187 23.6649 18.8755 23.2915C18.9324 22.918 18.8788 22.5366 18.7208 22.1914C18.5629 21.8461 18.3071 21.5512 17.9831 21.3406L19.7535 16.4918C19.813 16.4968 19.8725 16.4993 19.9319 16.4993C20.3409 16.4992 20.7407 16.3819 21.0808 16.1622C21.4209 15.9425 21.6859 15.6302 21.8425 15.2649C21.999 14.8996 22.04 14.4976 21.9603 14.1098C21.8806 13.7219 21.6838 13.3656 21.3947 13.0859H21.3972ZM13.5115 12.2929C13.6562 12.1531 13.8404 12.058 14.041 12.0195C14.2416 11.981 14.4495 12.0009 14.6384 12.0766C14.8273 12.1523 14.9888 12.2805 15.1024 12.4449C15.2159 12.6093 15.2766 12.8026 15.2766 13.0003C15.2766 13.198 15.2159 13.3913 15.1024 13.5557C14.9888 13.7201 14.8273 13.8482 14.6384 13.9239C14.4495 13.9997 14.2416 14.0195 14.041 13.981C13.8404 13.9425 13.6562 13.8474 13.5115 13.7077C13.4155 13.6147 13.3394 13.5043 13.2876 13.3828C13.2358 13.2613 13.2092 13.1312 13.2095 12.9998C13.2097 12.8684 13.2367 12.7383 13.289 12.617C13.3413 12.4957 13.4178 12.3856 13.5141 12.2929H13.5115ZM8.3405 18.2078C8.24435 18.1149 8.16807 18.0047 8.11602 17.8833C8.06398 17.7619 8.03719 17.6318 8.03719 17.5004C8.03719 17.369 8.06398 17.2389 8.11602 17.1175C8.16807 16.9961 8.24435 16.8858 8.3405 16.793C8.48518 16.6532 8.66946 16.5581 8.87005 16.5196C9.07063 16.4811 9.27851 16.501 9.46742 16.5767C9.65633 16.6524 9.81778 16.7806 9.93137 16.945C10.045 17.1094 10.1056 17.3027 10.1056 17.5004C10.1056 17.6981 10.045 17.8914 9.93137 18.0558C9.81778 18.2202 9.65633 18.3483 9.46742 18.4241C9.27851 18.4998 9.07063 18.5196 8.87005 18.4811C8.66946 18.4427 8.48518 18.3475 8.3405 18.2078ZM17.561 23.7072C17.367 23.8947 17.104 24.0001 16.8296 24.0001C16.5553 24.0001 16.2922 23.8947 16.0983 23.7072C15.9043 23.5196 15.7953 23.2653 15.7953 23.0001C15.7953 22.7349 15.9043 22.4805 16.0983 22.293C16.1943 22.2001 16.3083 22.1264 16.4338 22.0762C16.5593 22.0259 16.6938 22.0001 16.8296 22.0001C16.9655 22.0001 17.1 22.0259 17.2255 22.0762C17.351 22.1264 17.465 22.2001 17.561 22.293C17.6571 22.3858 17.7333 22.4961 17.7852 22.6174C17.8372 22.7387 17.864 22.8687 17.864 23.0001C17.864 23.1314 17.8372 23.2614 17.7852 23.3827C17.7333 23.5041 17.6571 23.6143 17.561 23.7072ZM17.0084 21.0087C16.4721 20.9636 15.9388 21.1223 15.5217 21.4512L10.9971 18.2416C11.1067 17.9741 11.1558 17.6871 11.1408 17.3997C11.1259 17.1124 11.0473 16.8316 10.9105 16.5761L13.1049 14.667C13.341 14.8182 13.6067 14.921 13.8856 14.969C14.1644 15.0169 14.4505 15.009 14.726 14.9456C15.0016 14.8823 15.2607 14.7649 15.4874 14.6008C15.7142 14.4366 15.9036 14.2292 16.044 13.9914L17.8655 14.4732C17.8605 14.8057 17.9414 15.134 18.1008 15.4287C18.2601 15.7233 18.4929 15.9748 18.7781 16.1605L17.0084 21.0087ZM20.6643 15.2069C20.5697 15.3057 20.4555 15.385 20.3285 15.4401C20.2014 15.4952 20.0642 15.5249 19.925 15.5275C19.7858 15.5301 19.6475 15.5055 19.5184 15.4551C19.3892 15.4048 19.272 15.3298 19.1735 15.2345C19.0751 15.1393 18.9976 15.0259 18.9457 14.901C18.8937 14.7761 18.8684 14.6424 18.8712 14.5078C18.874 14.3732 18.9048 14.2405 18.9619 14.1178C19.019 13.995 19.1012 13.8846 19.2035 13.7933C19.3974 13.6058 19.6605 13.5004 19.9348 13.5004C20.2091 13.5004 20.4722 13.6058 20.6662 13.7933C20.8602 13.9809 20.9691 14.2352 20.9691 14.5004C20.9691 14.7656 20.8602 15.02 20.6662 15.2075L20.6643 15.2069Z" fill="white"/>
</g>
<defs>
<filter id="filter0_d_454_147" x="16.5359" y="-4.8" width="20.2641" height="19.557" filterUnits="userSpaceOnUse" color-interpolation-filters="sRGB">
<feFlood flood-opacity="0" result="BackgroundImageFix"/>
<feColorMatrix in="SourceAlpha" type="matrix" values="0 0 0 0 0 0 0 0 0 0 0 0 0 0 0 0 0 0 127 0" result="hardAlpha"/>
<feOffset dx="1" dy="1"/>
<feGaussianBlur stdDeviation="2.9"/>
<feComposite in2="hardAlpha" operator="out"/>
<feColorMatrix type="matrix" values="0 0 0 0 0 0 0 0 0 0 0 0 0 0 0 0 0 0 0.2 0"/>
<feBlend mode="normal" in2="BackgroundImageFix" result="effect1_dropShadow_454_147"/>
<feBlend mode="normal" in="SourceGraphic" in2="effect1_dropShadow_454_147" result="shape"/>
</filter>
<filter id="filter1_d_454_147" x="3.58594" y="28.6821" width="23.3242" height="14.3179" filterUnits="userSpaceOnUse" color-interpolation-filters="sRGB">
<feFlood flood-opacity="0" result="BackgroundImageFix"/>
<feColorMatrix in="SourceAlpha" type="matrix" values="0 0 0 0 0 0 0 0 0 0 0 0 0 0 0 0 0 0 127 0" result="hardAlpha"/>
<feOffset dy="4"/>
<feGaussianBlur stdDeviation="2"/>
<feComposite in2="hardAlpha" operator="out"/>
<feColorMatrix type="matrix" values="0 0 0 0 0 0 0 0 0 0 0 0 0 0 0 0 0 0 0.25 0"/>
<feBlend mode="normal" in2="BackgroundImageFix" result="effect1_dropShadow_454_147"/>
<feBlend mode="normal" in="SourceGraphic" in2="effect1_dropShadow_454_147" result="shape"/>
</filter>
<clipPath id="clip0_454_147">
<rect width="30" height="40" fill="white"/>
</clipPath>
</defs>
</svg>
