<svg width="37" height="48" viewBox="0 0 37 48" fill="none" xmlns="http://www.w3.org/2000/svg">
<path d="M29.9998 12.9572V41C29.9998 43.2091 28.209 45 25.9998 45H4C1.79086 45 0 43.2091 0 41V9C0 6.79086 1.79086 5 4 5H21.3367L29.9998 12.9572Z" fill="#C54E34"/>
<g filter="url(#filter0_d_182_2722)">
<path d="M29.9991 12.9572H22.3359C21.7837 12.9572 21.3359 12.5095 21.3359 11.9572V5L29.9991 12.9572Z" fill="#FF8B71"/>
</g>
<g filter="url(#filter1_d_182_2722)">
<path d="M12.4013 35.716C12.4013 36.082 12.3173 36.418 12.1493 36.724C11.9813 37.024 11.7233 37.267 11.3753 37.453C11.0273 37.639 10.5953 37.732 10.0793 37.732H9.12532V40H7.58632V33.682H10.0793C10.5833 33.682 11.0093 33.769 11.3573 33.943C11.7053 34.117 11.9663 34.357 12.1403 34.663C12.3143 34.969 12.4013 35.32 12.4013 35.716ZM9.96232 36.508C10.2563 36.508 10.4753 36.439 10.6193 36.301C10.7633 36.163 10.8353 35.968 10.8353 35.716C10.8353 35.464 10.7633 35.269 10.6193 35.131C10.4753 34.993 10.2563 34.924 9.96232 34.924H9.12532V36.508H9.96232ZM14.7415 38.812H16.7575V40H13.2025V33.682H14.7415V38.812ZM22.9096 33.682L20.7226 37.912V40H19.1836V37.912L16.9966 33.682H18.7426L19.9666 36.328L21.1816 33.682H22.9096Z" fill="white"/>
</g>
<path d="M21.3972 18.0859C21.2052 17.9002 20.9771 17.7528 20.7262 17.6523C20.4752 17.5518 20.2062 17.5 19.9345 17.5C19.6628 17.5 19.3938 17.5518 19.1429 17.6523C18.8919 17.7528 18.6638 17.9002 18.4718 18.0859C18.3416 18.2117 18.2294 18.3538 18.1382 18.5083L16.3142 18.0272C16.3198 17.6293 16.2025 17.2389 15.9774 16.9058C15.7523 16.5727 15.4295 16.3121 15.0503 16.1574C14.6712 16.0027 14.2529 15.9608 13.849 16.0372C13.4451 16.1135 13.074 16.3046 12.783 16.5861C12.4724 16.8871 12.2689 17.2759 12.2019 17.6962C12.135 18.1165 12.2081 18.5465 12.4107 18.9239L10.2169 20.8331C9.8189 20.5787 9.34227 20.465 8.86755 20.5111C8.39284 20.5572 7.94913 20.7604 7.61139 21.0862C7.23376 21.4485 7.01506 21.9376 7.00075 22.4518C6.98643 22.966 7.17761 23.4657 7.53453 23.8472C7.89146 24.2286 8.38668 24.4624 8.91729 24.5C9.4479 24.5376 9.97308 24.3761 10.3837 24.049L14.9083 27.2586C14.7635 27.6092 14.7243 27.9922 14.7952 28.3634C14.8661 28.7346 15.0442 29.0789 15.309 29.3563C15.5738 29.6337 15.9144 29.8331 16.2914 29.9312C16.6684 30.0294 17.0664 30.0224 17.4395 29.911C17.8126 29.7996 18.1454 29.5884 18.3995 29.3018C18.6536 29.0152 18.8187 28.6649 18.8755 28.2915C18.9324 27.918 18.8788 27.5366 18.7208 27.1914C18.5629 26.8461 18.3071 26.5512 17.9831 26.3406L19.7535 21.4918C19.813 21.4968 19.8725 21.4993 19.9319 21.4993C20.3409 21.4992 20.7407 21.3819 21.0808 21.1622C21.4209 20.9425 21.6859 20.6302 21.8425 20.2649C21.999 19.8996 22.04 19.4976 21.9603 19.1098C21.8806 18.7219 21.6838 18.3656 21.3947 18.0859H21.3972ZM13.5115 17.2929C13.6562 17.1531 13.8404 17.058 14.041 17.0195C14.2416 16.981 14.4495 17.0009 14.6384 17.0766C14.8273 17.1523 14.9888 17.2805 15.1024 17.4449C15.2159 17.6093 15.2766 17.8026 15.2766 18.0003C15.2766 18.198 15.2159 18.3913 15.1024 18.5557C14.9888 18.7201 14.8273 18.8482 14.6384 18.9239C14.4495 18.9997 14.2416 19.0195 14.041 18.981C13.8404 18.9425 13.6562 18.8474 13.5115 18.7077C13.4155 18.6147 13.3394 18.5043 13.2876 18.3828C13.2358 18.2613 13.2092 18.1312 13.2095 17.9998C13.2097 17.8684 13.2367 17.7383 13.289 17.617C13.3413 17.4957 13.4178 17.3856 13.5141 17.2929H13.5115ZM8.3405 23.2078C8.24435 23.1149 8.16807 23.0047 8.11602 22.8833C8.06398 22.7619 8.03719 22.6318 8.03719 22.5004C8.03719 22.369 8.06398 22.2389 8.11602 22.1175C8.16807 21.9961 8.24435 21.8858 8.3405 21.793C8.48518 21.6532 8.66946 21.5581 8.87005 21.5196C9.07063 21.4811 9.27851 21.501 9.46742 21.5767C9.65633 21.6524 9.81778 21.7806 9.93137 21.945C10.045 22.1094 10.1056 22.3027 10.1056 22.5004C10.1056 22.6981 10.045 22.8914 9.93137 23.0558C9.81778 23.2202 9.65633 23.3483 9.46742 23.4241C9.27851 23.4998 9.07063 23.5196 8.87005 23.4811C8.66946 23.4427 8.48518 23.3475 8.3405 23.2078ZM17.561 28.7072C17.367 28.8947 17.104 29.0001 16.8296 29.0001C16.5553 29.0001 16.2922 28.8947 16.0983 28.7072C15.9043 28.5196 15.7953 28.2653 15.7953 28.0001C15.7953 27.7349 15.9043 27.4805 16.0983 27.293C16.1943 27.2001 16.3083 27.1264 16.4338 27.0762C16.5593 27.0259 16.6938 27.0001 16.8296 27.0001C16.9655 27.0001 17.1 27.0259 17.2255 27.0762C17.351 27.1264 17.465 27.2001 17.561 27.293C17.6571 27.3858 17.7333 27.4961 17.7852 27.6174C17.8372 27.7387 17.864 27.8687 17.864 28.0001C17.864 28.1314 17.8372 28.2614 17.7852 28.3827C17.7333 28.5041 17.6571 28.6143 17.561 28.7072ZM17.0084 26.0087C16.4721 25.9636 15.9388 26.1223 15.5217 26.4512L10.9971 23.2416C11.1067 22.9741 11.1558 22.6871 11.1408 22.3997C11.1259 22.1124 11.0473 21.8316 10.9105 21.5761L13.1049 19.667C13.341 19.8182 13.6067 19.921 13.8856 19.969C14.1644 20.0169 14.4505 20.009 14.726 19.9456C15.0016 19.8823 15.2607 19.7649 15.4874 19.6008C15.7142 19.4366 15.9036 19.2292 16.044 18.9914L17.8655 19.4732C17.8605 19.8057 17.9414 20.134 18.1008 20.4287C18.2601 20.7233 18.4929 20.9748 18.7781 21.1605L17.0084 26.0087ZM20.6643 20.2069C20.5697 20.3057 20.4555 20.385 20.3285 20.4401C20.2014 20.4952 20.0642 20.5249 19.925 20.5275C19.7858 20.5301 19.6475 20.5055 19.5184 20.4551C19.3892 20.4048 19.272 20.3298 19.1735 20.2345C19.0751 20.1393 18.9976 20.0259 18.9457 19.901C18.8937 19.7761 18.8684 19.6424 18.8712 19.5078C18.874 19.3732 18.9048 19.2405 18.9619 19.1178C19.019 18.995 19.1012 18.8846 19.2035 18.7933C19.3974 18.6058 19.6605 18.5004 19.9348 18.5004C20.2091 18.5004 20.4722 18.6058 20.6662 18.7933C20.8602 18.9809 20.9691 19.2352 20.9691 19.5004C20.9691 19.7656 20.8602 20.02 20.6662 20.2075L20.6643 20.2069Z" fill="white"/>
<defs>
<filter id="filter0_d_182_2722" x="16.5359" y="0.2" width="20.2641" height="19.557" filterUnits="userSpaceOnUse" color-interpolation-filters="sRGB">
<feFlood flood-opacity="0" result="BackgroundImageFix"/>
<feColorMatrix in="SourceAlpha" type="matrix" values="0 0 0 0 0 0 0 0 0 0 0 0 0 0 0 0 0 0 127 0" result="hardAlpha"/>
<feOffset dx="1" dy="1"/>
<feGaussianBlur stdDeviation="2.9"/>
<feComposite in2="hardAlpha" operator="out"/>
<feColorMatrix type="matrix" values="0 0 0 0 0 0 0 0 0 0 0 0 0 0 0 0 0 0 0.2 0"/>
<feBlend mode="normal" in2="BackgroundImageFix" result="effect1_dropShadow_182_2722"/>
<feBlend mode="normal" in="SourceGraphic" in2="effect1_dropShadow_182_2722" result="shape"/>
</filter>
<filter id="filter1_d_182_2722" x="3.58594" y="33.6821" width="23.3242" height="14.3179" filterUnits="userSpaceOnUse" color-interpolation-filters="sRGB">
<feFlood flood-opacity="0" result="BackgroundImageFix"/>
<feColorMatrix in="SourceAlpha" type="matrix" values="0 0 0 0 0 0 0 0 0 0 0 0 0 0 0 0 0 0 127 0" result="hardAlpha"/>
<feOffset dy="4"/>
<feGaussianBlur stdDeviation="2"/>
<feComposite in2="hardAlpha" operator="out"/>
<feColorMatrix type="matrix" values="0 0 0 0 0 0 0 0 0 0 0 0 0 0 0 0 0 0 0.25 0"/>
<feBlend mode="normal" in2="BackgroundImageFix" result="effect1_dropShadow_182_2722"/>
<feBlend mode="normal" in="SourceGraphic" in2="effect1_dropShadow_182_2722" result="shape"/>
</filter>
</defs>
</svg>
