<svg width="756" height="447" viewBox="0 0 756 447" fill="none" xmlns="http://www.w3.org/2000/svg">
<g clip-path="url(#clip0_44_335)">
<path fill-rule="evenodd" clip-rule="evenodd" d="M604.774 91.2063C591.792 139.775 578.657 188.191 565.981 236.913C559.566 261.197 553.304 285.482 545.973 309.613C538.795 332.981 530.089 357.877 517.413 379.106C504.126 401.253 486.867 418.511 463.042 429.661C453.572 434.09 443.798 437.145 433.565 439.283C419.056 442.338 404.394 443.559 389.732 444.476C353.23 446.461 275.644 446.156 238.989 446.156L261.44 363.07C278.393 363.07 295.346 363.07 312.299 362.611C328.641 362.153 346.663 361.237 362.852 357.419C380.568 353.295 393.856 346.116 405.463 331.76C416.154 318.625 423.18 302.282 429.136 287.009C439.827 258.906 450.823 218.585 458.46 189.719C467.165 156.881 475.565 124.044 483.965 91.2063H604.774ZM755.822 91.2063L690.607 332.829H569.799L635.014 91.2063H755.822ZM357.354 0.483398H478.162C465.485 47.6776 452.809 94.8719 440.132 141.913C431.274 174.751 422.416 207.588 412.641 240.273C408.365 254.477 404.241 268.681 398.59 282.427C394.161 293.576 389.121 303.351 379.957 311.599C373.085 317.861 365.601 321.679 356.895 324.428C345.746 327.941 334.292 329.316 322.684 330.232C306.037 331.607 289.39 331.912 272.589 332.218C234.102 332.829 164.458 332.676 125.97 332.523C112.225 332.523 98.3264 332.37 84.5808 332.065C74.5007 331.912 64.5734 331.607 54.6461 330.996C47.926 330.538 41.3587 330.079 34.7914 328.858C30.3622 328.094 26.0859 326.872 21.8095 325.039C7.91118 318.93 0.885687 306.864 0.580231 292.202C0.274774 283.802 1.80205 275.707 3.48206 267.612C5.92571 256.157 8.82754 244.702 11.7294 233.4C17.3803 211.712 27.6131 171.543 35.7078 150.466C41.9696 133.971 50.3697 117.476 66.1007 106.938C74.9589 101.134 84.2754 97.9265 94.5082 95.941C102.145 94.4137 109.781 93.65 117.417 93.0391C130.247 92.1227 143.228 91.8173 156.058 91.5118C174.385 91.2063 192.712 91.0536 211.04 91.0536H256.858H302.677L286.335 151.536C259.149 151.536 231.964 151.536 204.778 151.688C196.836 151.688 188.894 151.688 180.952 152.146C178.203 152.299 175.454 152.452 172.705 153.521C169.192 154.743 167.36 157.034 165.832 160.241C163.541 164.976 162.167 170.016 160.792 174.904C158.501 182.54 156.516 190.177 154.378 197.813C151.17 209.574 147.963 221.487 144.909 233.247C143.839 237.676 142.618 241.953 141.701 246.535C141.09 249.59 140.479 252.797 140.174 255.852C139.868 259.364 139.716 263.488 141.854 266.696C143.992 269.903 147.658 270.667 151.018 271.278C154.836 271.888 158.654 271.888 162.472 272.041C168.734 272.194 174.996 272.194 181.258 272.347C198.363 272.499 215.469 272.499 232.575 272.347C240.516 272.347 248.306 272.194 256.247 271.888C261.746 271.736 267.091 271.43 272.437 270.208C276.56 269.292 279.615 267.612 282.364 264.405C284.197 262.114 285.419 259.67 286.488 257.073C289.237 250.506 291.222 243.633 293.208 236.913C300.997 210.796 307.87 184.526 315.048 158.256L336.277 79.4459L357.354 0.483398Z" fill="white"/>
</g>
<defs>
<clipPath id="clip0_44_335">
<rect width="756" height="447" fill="white"/>
</clipPath>
</defs>
</svg>
