<svg width="2103" height="355" viewBox="0 0 2103 355" fill="none" xmlns="http://www.w3.org/2000/svg">
<g clip-path="url(#clip0_43_313)">
<path d="M522.343 287.952V201.081L519.98 150.949L521.851 150.555L542.035 195.27L589.491 282.535L636.947 195.27L657.229 150.555L659.001 150.949L656.638 201.081V287.952H707.245V73.8291H650.042L589.885 189.755H589.195L528.94 73.8291H471.736V287.952H522.343Z" fill="white"/>
<path d="M2013.08 233.682C2013.08 269.139 2032.18 287.853 2068.31 287.853H2099.52V244.024H2065.56V150.555H2102.38V107.612H2061.52V66.1465H2013.18V233.682H2013.08Z" fill="white"/>
<path d="M1999 107.612C1999 107.612 1998.21 107.612 1990.43 107.612C1960.8 107.612 1946.72 127.606 1942.29 141.395C1941.5 141.395 1940.52 141.395 1940.52 141.395V107.612H1888.14V287.952H1940.52C1940.52 287.952 1940.52 188.179 1940.52 185.322C1940.52 174.685 1944.55 167.2 1949.67 162.374C1958.43 153.903 1977.14 151.441 1999 151.441C1999 133.614 1999 107.612 1999 107.612Z" fill="white"/>
<path d="M1480.82 107.612C1480.82 107.612 1480.03 107.612 1472.25 107.612C1442.62 107.612 1428.54 127.606 1424.11 141.395C1423.32 141.395 1422.34 141.395 1422.34 141.395V107.612H1369.96V287.952H1422.34C1422.34 287.952 1422.34 188.179 1422.34 185.322C1422.34 174.685 1426.37 167.2 1431.49 162.374C1440.26 153.903 1458.96 151.441 1480.82 151.441C1480.82 133.614 1480.82 107.612 1480.82 107.612Z" fill="white"/>
<path d="M1174.13 200.392C1174.13 141.592 1205.34 103.278 1261.26 103.278C1322.9 103.278 1347.71 147.895 1347.71 198.225V213.787H1228.38V215.56C1228.38 236.44 1239.6 251.017 1269.43 251.017C1291.39 251.017 1303.4 240.774 1315.12 228.659L1341.31 261.26C1324.67 280.368 1297.4 292.088 1263.43 292.088C1206.32 292.187 1174.13 259.881 1174.13 200.392ZM1228.28 180.201V183.057H1293.46V179.905C1293.46 157.252 1283.22 141.986 1262.25 141.986C1241.28 141.986 1228.28 157.154 1228.28 180.201Z" fill="white"/>
<path d="M1691.62 200.392C1691.62 140.508 1724.21 103.278 1778.75 103.278C1833.3 103.278 1865.89 140.508 1865.89 200.392C1865.89 260.275 1833.3 292.187 1778.75 292.187C1724.11 292.187 1691.62 260.275 1691.62 200.392ZM1811.24 213.885V181.678C1811.24 158.336 1799.23 144.842 1778.65 144.842C1758.08 144.842 1746.06 158.336 1746.06 181.678V213.885C1746.06 237.228 1758.08 250.722 1778.65 250.722C1799.23 250.722 1811.24 237.228 1811.24 213.885Z" fill="white"/>
<path d="M1124.31 66.1465H1077.25V87.7163C1077.25 100.52 1073.01 107.513 1058.83 107.513H1045.74V150.456H1071.93V233.584C1071.93 269.041 1091.03 287.755 1127.16 287.755H1158.37V243.925H1124.41V150.456H1161.23V107.513H1124.41V66.1465H1124.31Z" fill="white"/>
<path d="M993.853 66.1465H946.79V87.7163C946.79 100.52 942.557 107.513 928.379 107.513H915.284V150.456H941.474V233.584C941.474 269.041 960.574 287.755 996.708 287.755H1027.92V243.925H993.951V150.456H1030.77V107.513H993.951V66.1465H993.853Z" fill="white"/>
<path d="M1601.63 103.278C1577.51 103.278 1557.03 118.151 1551.71 138.736H1549.94V107.513H1497.56V342.123H1549.94V256.73H1551.71C1557.03 276.921 1577.6 292.187 1601.63 292.187C1648.69 292.187 1673.21 263.526 1673.21 200.392C1673.11 137.357 1648.69 103.278 1601.63 103.278ZM1618.56 216.742C1618.56 240.084 1603.99 249.737 1584.2 249.737C1564.41 249.737 1549.84 239.493 1549.84 222.454V173.208C1549.84 156.169 1564.41 145.926 1584.2 145.926C1603.99 145.926 1618.56 161.192 1618.56 184.535V216.742Z" fill="white"/>
<path d="M882.203 287.952C863.398 287.952 850.008 275.148 846.758 255.351H844.592C838.882 279.481 818.403 292.187 790.047 292.187C752.831 292.187 732.352 270.223 732.352 238.016C732.352 198.718 762.775 179.905 812.003 179.905H841.442V173.897C841.442 155.873 832.581 144.448 810.625 144.448C789.752 144.448 778.725 155.085 770.651 166.412L739.44 138.736C754.307 116.772 775.574 103.278 814.563 103.278C866.942 103.278 893.919 127.409 893.919 171.337V244.024H911.248V287.853H882.203V287.952ZM841.54 231.614V209.65H816.04C795.856 209.65 785.223 217.136 785.223 230.531V235.849C785.223 249.343 794.084 255.646 809.64 255.646C826.969 255.646 841.54 248.555 841.54 231.614Z" fill="white"/>
<path d="M303.474 0.0581055L177.35 35.4169L51.1287 0.0581055L0.71875 14.241V339.857L51.2271 354.04L177.449 318.681L303.671 354.04L354.179 339.857V14.241L303.474 0.0581055ZM253.064 243.039L177.35 221.863L101.637 243.039V111.059L177.35 132.235L253.064 111.059V243.039Z" fill="#6D6D6D"/>
<path d="M177.35 63.6844V132.235L51.1287 96.8764V353.942L0.71875 339.857V14.2412L177.35 63.6844Z" fill="#0E0708"/>
<path d="M253.064 271.307L177.351 250.032V318.583L303.474 353.942V96.8765L253.064 111.059V271.307Z" fill="#0E0708"/>
<path d="M303.474 0.0581055L353.982 14.241L177.35 63.6842L0.71875 14.241L51.1287 0.0581055L177.35 35.4169L303.474 0.0581055Z" fill="#999999"/>
<path d="M177.35 221.765L253.063 243.039V271.306L177.35 250.032L101.637 271.306V243.039L177.35 221.765Z" fill="#999999"/>
</g>
<defs>
<clipPath id="clip0_43_313">
<rect width="2103" height="355" fill="white"/>
</clipPath>
</defs>
</svg>
