<svg width="920" height="248" viewBox="0 0 920 248" fill="none" xmlns="http://www.w3.org/2000/svg">
<g clip-path="url(#clip0_43_145)">
<path d="M802.492 0C829.77 1.96716 853.372 11.0911 873.298 27.3719C918.424 64.2389 932.845 127.077 906.337 179.651C886.166 219.652 846.986 244.992 802.113 248H788.75C760.881 245.933 736.823 236.503 716.576 219.71C692.736 199.95 677.43 172.991 672.657 142.393C672.489 141.337 672.397 140.369 672.381 139.489C672.378 139.408 672.391 139.328 672.42 139.253C672.449 139.178 672.492 139.109 672.548 139.051C672.604 138.994 672.671 138.947 672.745 138.916C672.819 138.885 672.899 138.868 672.979 138.869H749.201C749.408 138.868 749.61 138.934 749.778 139.056C749.945 139.177 750.069 139.349 750.133 139.546C756.998 160.603 775.375 174.679 797.662 173.795C815.798 173.083 831.369 162.784 839.074 146.515C851.942 119.361 836.325 86.7311 806.851 79.9456C780.412 73.8719 755.48 90.2559 749.431 116.365C749.343 116.746 749.128 117.087 748.821 117.331C748.514 117.575 748.133 117.708 747.741 117.708H672.404C672.273 117.708 672.143 117.682 672.022 117.63C671.902 117.577 671.793 117.501 671.704 117.405C671.614 117.309 671.545 117.196 671.502 117.072C671.458 116.948 671.44 116.817 671.45 116.686C673.443 90.3401 682.175 67.3274 697.647 47.6481C719.911 19.3348 752.111 2.65222 788.221 0H802.492Z" fill="white"/>
<path d="M0 245.428V4.2137L198.214 4.0874C198.37 4.0874 198.519 4.14909 198.629 4.25891C198.739 4.36872 198.8 4.51766 198.8 4.67296V74.2048C198.8 74.3164 198.778 74.4269 198.736 74.5299C198.693 74.633 198.63 74.7267 198.551 74.8056C198.472 74.8845 198.378 74.9471 198.275 74.9898C198.172 75.0325 198.061 75.0544 197.95 75.0544H85.767C85.6054 75.0544 85.4503 75.1173 85.336 75.2293C85.2217 75.3413 85.1575 75.4931 85.1575 75.6515V92.07C85.1575 92.271 85.2387 92.4637 85.3832 92.6058C85.5277 92.7479 85.7237 92.8278 85.928 92.8278H198.168C198.342 92.8278 198.509 92.8967 198.632 93.0195C198.754 93.1422 198.823 93.3086 198.823 93.4822V163.175C198.823 163.345 198.756 163.509 198.635 163.629C198.514 163.75 198.35 163.818 198.179 163.818H85.8245C85.6689 163.818 85.5198 163.881 85.4098 163.993C85.2998 164.105 85.238 164.256 85.238 164.415V244.188C85.238 244.496 85.1156 244.791 84.8978 245.008C84.68 245.226 84.3845 245.348 84.0765 245.348L0 245.428Z" fill="white"/>
<path d="M312.374 4.07611C334.592 4.09142 348.404 4.11056 353.809 4.13352C354.169 4.1355 354.52 4.24928 354.812 4.45911C355.105 4.66894 355.325 4.96443 355.442 5.30463L393.047 116.606C393.09 116.736 393.103 116.874 393.082 117.009C393.062 117.144 393.01 117.272 392.93 117.384C392.851 117.495 392.745 117.585 392.624 117.648C392.502 117.71 392.367 117.743 392.23 117.743H320.976C320.642 117.742 320.318 117.63 320.055 117.424C319.793 117.218 319.607 116.93 319.527 116.606C316.989 105.944 314.728 96.2762 312.742 87.6039C312.665 87.2901 312.531 87.1332 312.34 87.1332C312.14 87.1332 312.006 87.2901 311.937 87.6039C309.936 96.2762 307.663 105.94 305.118 116.595C305.038 116.918 304.852 117.206 304.589 117.412C304.327 117.618 304.003 117.731 303.669 117.731L232.415 117.662C232.278 117.662 232.143 117.63 232.021 117.567C231.899 117.505 231.794 117.414 231.714 117.303C231.635 117.192 231.582 117.064 231.562 116.928C231.542 116.793 231.554 116.655 231.598 116.526L269.307 5.25871C269.425 4.92065 269.646 4.62764 269.939 4.41998C270.231 4.21233 270.581 4.10022 270.94 4.09908C276.345 4.07611 290.156 4.06846 312.374 4.07611Z" fill="white"/>
<path d="M572.159 117.719C572.113 117.717 572.07 117.699 572.036 117.669C572.002 117.639 571.979 117.599 571.969 117.555C571.96 117.511 571.966 117.464 571.986 117.424C572.005 117.383 572.038 117.35 572.078 117.329C578.334 114.723 582.842 112.691 584.901 105.882C586.994 98.9472 586.384 88.1317 581.198 82.5746C576.092 77.0865 567.225 75.812 560.038 75.4331C554.019 75.104 547.568 74.9854 540.683 75.0772C540.481 75.0802 540.288 75.1626 540.146 75.3065C540.004 75.4505 539.924 75.6444 539.924 75.8465V116.973C539.924 117.071 539.905 117.168 539.866 117.259C539.828 117.349 539.772 117.432 539.702 117.501C539.631 117.57 539.548 117.625 539.456 117.663C539.364 117.7 539.265 117.719 539.165 117.719H455.675C455.312 117.719 454.964 117.576 454.707 117.319C454.451 117.063 454.307 116.716 454.307 116.353V4.79907C454.307 4.61637 454.379 4.44115 454.509 4.31196C454.638 4.18276 454.814 4.11018 454.997 4.11018C518.668 4.07191 556.914 4.10253 569.732 4.20204C616.549 4.56944 653.429 28.4624 659.961 76.9028C661.629 89.2569 661.732 105.939 655.511 116.939C655.378 117.175 655.184 117.373 654.95 117.51C654.715 117.647 654.448 117.719 654.177 117.719H572.159Z" fill="white"/>
<path d="M224.653 138.869H298.448C298.565 138.869 298.68 138.895 298.785 138.946C298.89 138.998 298.982 139.072 299.054 139.164C299.126 139.255 299.176 139.362 299.201 139.476C299.225 139.59 299.224 139.708 299.196 139.822L273.516 244.797C273.475 244.964 273.379 245.112 273.244 245.218C273.108 245.324 272.941 245.382 272.769 245.382H189.164C189.042 245.381 188.923 245.352 188.816 245.296C188.708 245.24 188.615 245.159 188.544 245.061C188.474 244.962 188.427 244.849 188.409 244.729C188.391 244.609 188.401 244.487 188.439 244.372L223.928 139.397C223.979 139.244 224.076 139.111 224.206 139.017C224.335 138.922 224.492 138.87 224.653 138.869Z" fill="white"/>
<path d="M454.297 244.911V139.374C454.297 139.243 454.349 139.117 454.442 139.025C454.534 138.932 454.66 138.88 454.791 138.88H626.67C626.755 138.879 626.839 138.899 626.913 138.939C626.988 138.979 627.051 139.038 627.096 139.11L692.117 244.521C692.165 244.596 692.191 244.683 692.193 244.772C692.196 244.861 692.174 244.949 692.13 245.027C692.087 245.104 692.023 245.169 691.946 245.213C691.868 245.258 691.78 245.28 691.691 245.279H590.411C590.316 245.279 590.224 245.252 590.145 245.201C590.065 245.15 590.002 245.077 589.962 244.992L540.892 141.107C540.844 141.005 540.764 140.923 540.663 140.873C540.562 140.823 540.447 140.809 540.337 140.833C540.227 140.857 540.129 140.918 540.058 141.005C539.988 141.093 539.949 141.202 539.949 141.314V244.911C539.949 245.042 539.897 245.168 539.804 245.261C539.711 245.353 539.586 245.405 539.454 245.405H454.791C454.66 245.405 454.534 245.353 454.442 245.261C454.349 245.168 454.297 245.042 454.297 244.911Z" fill="white"/>
<path d="M324.899 138.903H400.27C400.394 138.903 400.515 138.942 400.616 139.014C400.717 139.086 400.793 139.188 400.833 139.305L436.403 244.567C436.434 244.657 436.443 244.753 436.43 244.847C436.416 244.941 436.38 245.03 436.325 245.108C436.27 245.185 436.197 245.248 436.113 245.292C436.028 245.336 435.935 245.359 435.839 245.359H348.301C348.164 245.36 348.031 245.313 347.925 245.227C347.818 245.142 347.744 245.022 347.715 244.888L324.312 139.626C324.293 139.539 324.294 139.448 324.315 139.362C324.336 139.275 324.376 139.194 324.432 139.124C324.488 139.055 324.559 138.999 324.64 138.961C324.721 138.922 324.809 138.903 324.899 138.903Z" fill="white"/>
<path d="M919.999 227.356V232.121C918.083 240.013 913.51 244.361 906.28 245.164C894.331 246.485 886.132 234.865 890.272 224.13C893.722 215.163 903.922 211.833 912.375 216.288C916.377 218.393 918.918 222.083 919.999 227.356ZM904.696 217.449C901.488 217.415 898.397 218.686 896.104 220.981C893.811 223.276 892.503 226.408 892.469 229.687C892.435 232.966 893.676 236.125 895.921 238.467C898.165 240.81 901.228 242.145 904.437 242.178C907.645 242.212 910.736 240.941 913.029 238.646C915.322 236.351 916.629 233.219 916.664 229.94C916.698 226.661 915.457 223.502 913.212 221.16C910.968 218.817 907.905 217.482 904.696 217.449Z" fill="white"/>
<path d="M909.627 230.755L909.926 230.915C910.193 231.063 910.397 231.295 910.501 231.57C911.252 233.545 911.62 235.611 911.605 237.77C911.601 238.032 911.509 238.285 911.344 238.487C911.179 238.689 910.951 238.829 910.696 238.884L909.972 239.044C909.861 239.07 909.746 239.073 909.634 239.054C909.521 239.034 909.414 238.993 909.318 238.932C909.222 238.872 909.138 238.792 909.073 238.699C909.008 238.606 908.961 238.501 908.937 238.39L907.752 233.085C907.674 232.733 907.479 232.419 907.198 232.193C906.918 231.968 906.57 231.845 906.211 231.845H901.692C901.546 231.845 901.405 231.903 901.302 232.007C901.198 232.11 901.14 232.25 901.14 232.397V237.908C901.14 238.221 901.015 238.522 900.793 238.744C900.571 238.966 900.27 239.09 899.955 239.09H899.254C898.9 239.09 898.561 238.95 898.311 238.7C898.06 238.45 897.92 238.112 897.92 237.758V222.075C897.92 221.781 898.035 221.5 898.239 221.291C898.444 221.083 898.722 220.964 899.012 220.961C899.595 220.953 902.225 221.03 906.901 221.191C911.915 221.363 913.318 227.115 909.558 229.974C909.497 230.022 909.45 230.085 909.419 230.156C909.389 230.228 909.376 230.305 909.383 230.383C909.39 230.46 909.416 230.534 909.458 230.599C909.501 230.664 909.559 230.718 909.627 230.755ZM901.14 224.44L901.174 228.367C901.177 228.483 901.226 228.594 901.31 228.676C901.394 228.757 901.506 228.803 901.623 228.803L905.406 228.78C905.812 228.776 906.212 228.715 906.586 228.601C906.959 228.487 907.297 228.322 907.581 228.115C907.866 227.908 908.09 227.664 908.242 227.395C908.393 227.127 908.469 226.841 908.465 226.552V226.116C908.458 225.535 908.126 224.982 907.544 224.577C906.962 224.173 906.177 223.95 905.36 223.958L901.577 223.981C901.518 223.982 901.46 223.995 901.406 224.019C901.352 224.043 901.304 224.077 901.263 224.12C901.223 224.162 901.191 224.213 901.17 224.268C901.149 224.323 901.138 224.381 901.14 224.44Z" fill="white"/>
</g>
<defs>
<clipPath id="clip0_43_145">
<rect width="920" height="248" fill="white"/>
</clipPath>
</defs>
</svg>
