<svg width="1342" height="295" viewBox="0 0 1342 295" fill="none" xmlns="http://www.w3.org/2000/svg">
<g clip-path="url(#clip0_43_215)">
<path d="M16.929 0C18.9747 0.265062 20.8004 0.954934 22.4062 2.06961C22.9762 2.46484 24.4117 3.81382 26.7128 6.11655C106.374 85.8387 186.017 165.527 265.641 245.18C265.659 245.199 265.684 245.212 265.71 245.217C265.736 245.223 265.763 245.22 265.788 245.21C265.813 245.2 265.834 245.182 265.849 245.16C265.864 245.137 265.871 245.111 265.871 245.084C265.826 146.228 265.818 69.1221 265.846 13.7667C265.849 10.1741 266.951 7.26554 269.153 5.04091C275.829 -1.70042 290.927 -0.830686 294.137 9.34344C294.49 10.4581 294.666 12.4189 294.666 15.2257C294.677 40.7711 294.591 60.2176 294.606 78.8229C294.676 191.538 294.69 258.479 294.645 279.647C294.642 280.827 294.453 282.126 294.077 283.541C292.679 288.802 288.923 292.501 283.538 293.374C278.213 294.24 273.388 292.611 269.632 288.88C244.83 264.253 205.366 225.138 151.239 171.537C109.893 130.595 68.7998 89.2384 5.4104 25.8116C3.30322 23.7029 2.01313 22.2132 1.54013 21.3422C-1.74835 15.2789 1.19248 8.29621 5.93897 4.07888C8.46003 1.83769 11.3879 0.478059 14.7225 0H16.929Z" fill="white"/>
<path d="M336.379 1.00831C342.144 1.01186 348.132 3.75242 349.963 9.46427C350.313 10.5553 350.484 12.903 350.477 16.5074C350.456 28.1748 350.434 39.0601 350.413 49.1632C350.411 50.7465 349.931 52.344 348.973 53.9557C346.486 58.1339 340.874 59.7669 336.319 59.7634C331.768 59.7598 326.159 58.1126 323.68 53.9308C322.724 52.3168 322.248 50.7181 322.25 49.1348C322.25 39.0317 322.251 28.1464 322.254 16.479C322.254 12.8746 322.429 10.5269 322.779 9.43587C324.623 3.72757 330.618 1.00121 336.379 1.00831Z" fill="white"/>
<path d="M658.68 295H658.183C655.447 294.872 653.245 293.986 651.578 292.341C648.761 289.563 647.095 287.916 646.58 287.4C616.351 257.197 589.405 230.221 565.744 206.472C565.699 206.426 565.645 206.389 565.586 206.364C565.527 206.339 565.464 206.326 565.4 206.326L408.503 206.525C408.447 206.525 408.393 206.547 408.353 206.587C408.313 206.627 408.29 206.682 408.29 206.738C408.279 232.53 408.28 255.859 408.294 276.725C408.296 281.193 408.195 283.843 407.989 284.673C407.36 287.189 406.039 289.253 404.026 290.864C396.825 296.633 381.535 294.475 379.088 284.329C378.925 283.662 378.842 282.488 378.839 280.808C378.804 255.372 378.882 225.677 378.871 204.356C378.819 97.6543 378.812 34.2394 378.85 14.1112C378.857 11.0582 380.18 7.61126 382.334 5.318C386.438 0.94802 392.579 0.156384 398.067 2.36445C401.504 3.74537 403.757 5.72269 406.729 8.69399C501.747 103.653 586.779 188.572 661.827 263.452C667.039 268.654 670.007 271.599 670.731 272.288C674.395 275.781 674.587 280.868 672.338 285.252C669.617 290.552 664.672 294.432 658.68 295ZM534.643 176.695C534.665 176.695 534.687 176.689 534.705 176.677C534.723 176.664 534.737 176.647 534.746 176.627C534.754 176.607 534.756 176.585 534.752 176.563C534.748 176.542 534.737 176.522 534.721 176.507L408.638 50.3348C408.623 50.3193 408.603 50.3087 408.582 50.3044C408.56 50.3001 408.538 50.3023 408.518 50.3107C408.498 50.319 408.48 50.3332 408.468 50.3514C408.456 50.3696 408.45 50.391 408.45 50.4129L408.358 176.677C408.358 176.706 408.369 176.734 408.39 176.755C408.411 176.776 408.439 176.787 408.468 176.787L534.643 176.695Z" fill="white"/>
<path d="M1211.11 31.6973H1195.1C1194.99 31.6973 1194.89 31.7926 1194.89 31.9103V48.9784C1194.89 49.096 1194.99 49.1914 1195.1 49.1914H1211.11C1211.23 49.1914 1211.32 49.096 1211.32 48.9784V31.9103C1211.32 31.7926 1211.23 31.6973 1211.11 31.6973Z" fill="white"/>
<path d="M1061.7 207.923C1061.72 207.918 1061.73 207.917 1061.75 207.919C1061.77 207.922 1061.79 207.929 1061.8 207.94C1061.82 207.951 1061.83 207.965 1061.84 207.981C1061.85 207.997 1061.85 208.015 1061.85 208.033L1061.87 219.383C1061.87 219.443 1061.85 219.501 1061.82 219.552C1061.78 219.602 1061.74 219.642 1061.68 219.667C1055.99 222.211 1050.02 223.58 1043.77 223.774C1042.04 223.826 1039.5 223.865 1036.17 223.891C1033.97 223.908 1032 223.738 1030.26 223.383C1024.21 222.159 1017.85 219.656 1013.32 215.503C1008.47 211.051 1005.14 205.747 1003.33 199.592C1002.86 197.994 1002.59 195.658 1002.5 192.584C1002.37 187.903 1002.27 178.496 1002.19 164.362C1002.07 143.119 1001.97 120.809 1001.9 97.4316C1001.9 97.3732 1001.87 97.3172 1001.83 97.2759C1001.79 97.2347 1001.73 97.2115 1001.68 97.2115L982.077 97.2363C982.02 97.2363 981.966 97.2139 981.926 97.1739C981.886 97.134 981.864 97.0798 981.864 97.0233L981.85 85.5109C981.85 85.4798 981.862 85.45 981.884 85.428C981.906 85.4061 981.936 85.3937 981.967 85.3937L1001.74 85.3689C1001.77 85.3689 1001.8 85.3628 1001.83 85.351C1001.86 85.3391 1001.89 85.3218 1001.91 85.3C1001.93 85.2782 1001.95 85.2524 1001.96 85.224C1001.97 85.1956 1001.97 85.1652 1001.97 85.1346L1001.92 41.5484C1001.92 41.5004 1001.94 41.4543 1001.97 41.4204C1002.01 41.3864 1002.05 41.3674 1002.1 41.3674L1014.12 41.3496C1014.18 41.3496 1014.23 41.3724 1014.27 41.413C1014.31 41.4536 1014.34 41.5087 1014.34 41.5662L1014.39 85.2446C1014.39 85.2665 1014.39 85.2882 1014.4 85.3085C1014.41 85.3287 1014.42 85.3471 1014.44 85.3626C1014.45 85.3781 1014.47 85.3904 1014.49 85.3988C1014.51 85.4071 1014.54 85.4115 1014.56 85.4115L1062.25 85.3511C1062.28 85.3511 1062.32 85.3646 1062.34 85.3885C1062.36 85.4125 1062.38 85.445 1062.38 85.4789L1062.39 97.0304C1062.39 97.0737 1062.37 97.1153 1062.34 97.1459C1062.31 97.1765 1062.27 97.1937 1062.23 97.1937L1014.49 97.2541C1014.44 97.2541 1014.39 97.2743 1014.35 97.3102C1014.32 97.3462 1014.3 97.3949 1014.3 97.4458C1014.39 128.702 1014.56 155.976 1014.8 179.268C1014.85 183.699 1014.98 187.96 1015.21 192.052C1015.39 195.431 1016.49 198.126 1018.29 201.129C1020.9 205.479 1024.67 208.533 1029.61 210.291C1032.86 211.451 1036.22 212.045 1039.67 212.073C1042.81 212.097 1045.77 211.99 1048.54 211.754C1049.86 211.643 1051.3 211.341 1052.87 210.849C1055.36 210.07 1058.3 209.095 1061.7 207.923Z" fill="white"/>
<path d="M336.913 81.7231C342.752 81.7231 348.676 84.4388 350.524 90.2643C350.822 91.2109 350.971 92.9421 350.971 95.4579C350.976 199.116 350.971 261.613 350.957 282.948C350.95 290.499 343.27 293.729 336.902 293.729C330.534 293.729 322.854 290.499 322.85 282.944C322.836 261.612 322.836 199.116 322.85 95.4579C322.85 92.9421 322.999 91.2109 323.297 90.2643C325.146 84.4388 331.07 81.7231 336.913 81.7231Z" fill="white"/>
<path d="M610.204 166.134C610.204 166.152 610.198 166.169 610.188 166.184C610.178 166.198 610.163 166.21 610.147 166.217C610.13 166.223 610.112 166.225 610.095 166.222C610.077 166.219 610.061 166.21 610.048 166.198L597.479 153.617C597.448 153.587 597.423 153.55 597.406 153.51C597.389 153.47 597.38 153.426 597.38 153.382L597.295 85.4757C597.295 85.4645 597.297 85.4534 597.302 85.4431C597.306 85.4327 597.313 85.4234 597.321 85.4154C597.329 85.4075 597.339 85.4013 597.35 85.397C597.36 85.3927 597.372 85.3905 597.384 85.3905L610.094 85.3727C610.175 85.3727 610.252 85.4043 610.31 85.4607C610.368 85.5171 610.401 85.5938 610.403 85.6745L610.704 108.735C610.705 108.792 610.724 108.848 610.758 108.893C610.793 108.939 610.841 108.972 610.896 108.988C610.951 109.004 611.01 109.002 611.063 108.982C611.117 108.962 611.163 108.925 611.194 108.877C614.725 103.339 618.954 98.3324 623.883 93.8571C634.866 83.8818 650.599 80.6975 665.03 82.9233C673.809 84.2794 681.463 87.7334 687.993 93.2856C690.485 95.4084 692.928 97.917 695.322 100.811C697.886 103.914 700.26 107.94 702.207 111.564C702.215 111.579 702.227 111.592 702.242 111.601C702.256 111.61 702.273 111.615 702.29 111.616C702.307 111.617 702.325 111.613 702.34 111.605C702.355 111.597 702.368 111.586 702.377 111.571C707.013 104.249 712.712 97.8117 719.476 92.2596C720.415 91.4905 721.68 90.6574 723.272 89.7605C725.147 88.7002 727.36 87.5985 729.909 86.4555C735.424 83.9776 741.421 82.6653 747.898 82.5186C752.616 82.4121 758.367 82.4334 762.883 83.2321C771.28 84.7196 779.169 88.06 785.526 93.7719C788.568 96.5053 791.316 99.434 793.77 102.558C794.75 103.805 795.633 105.202 796.42 106.747C799.639 113.054 801.88 119.805 803.143 126.999C803.393 128.436 803.55 130.3 803.611 132.59C803.758 138.228 803.84 142.695 803.859 145.992C803.989 170.162 804.03 195.366 803.98 221.605C803.98 221.662 803.958 221.716 803.918 221.756C803.878 221.796 803.824 221.818 803.767 221.818L791.347 221.832C791.298 221.832 791.25 221.813 791.215 221.778C791.179 221.744 791.159 221.697 791.159 221.648C790.963 180.622 790.854 158.599 790.833 155.576C790.76 145.745 790.595 137.137 790.34 129.751C790.293 128.42 790.079 126.921 789.698 125.253C788.421 119.653 786.106 114.442 782.752 109.619C777.633 102.249 770.07 97.2047 761.237 94.9895C759.491 94.5517 757.379 94.2949 754.901 94.2192C750.923 94.0961 747.313 94.1825 744.071 94.4783C742.034 94.6629 739.594 95.1848 737.536 95.9232C719.529 102.366 708.962 117.787 707.759 136.652C707.466 141.271 707.287 146.317 707.223 151.789C707.029 168.913 706.892 192.177 706.812 221.58C706.812 221.643 706.787 221.704 706.743 221.749C706.699 221.793 706.64 221.818 706.578 221.818L694.711 221.832C694.668 221.832 694.627 221.815 694.596 221.785C694.565 221.754 694.548 221.712 694.548 221.669C694.465 195.499 694.345 172.226 694.186 151.849C694.133 145.079 694.073 136.016 693.385 128.487C693.2 126.477 692.779 124.437 692.122 122.367C690.706 117.915 688.897 113.872 686.375 110.112C677.748 97.2544 661.905 91.6455 646.856 94.6523C635.125 96.9988 625.582 104.074 618.934 113.854C616.001 118.167 614.018 123.116 612.592 127.944C610.814 133.961 610.644 140.216 610.513 146.524C610.373 153.091 610.27 159.628 610.204 166.134Z" fill="white"/>
<path d="M848.567 159.069C848.553 159.069 848.54 159.072 848.527 159.078C848.514 159.083 848.502 159.092 848.493 159.102C848.484 159.112 848.477 159.125 848.472 159.138C848.468 159.151 848.467 159.165 848.468 159.179C849.174 166.897 851.09 175.466 854.367 182.35C860.412 195.055 871.065 204.906 884.241 209.933C888.159 211.426 892.019 212.334 895.819 212.656C898.946 212.921 902.555 212.961 906.646 212.776C910.943 212.582 914.855 211.993 918.381 211.008C927.385 208.49 935.334 204.194 942.231 198.119C944.683 195.958 946.95 193.83 949.031 191.736C949.057 191.71 949.092 191.694 949.129 191.693C949.166 191.692 949.202 191.705 949.23 191.729C952.229 194.268 954.993 196.823 957.524 199.393C957.627 199.498 957.685 199.64 957.685 199.788C957.685 199.936 957.627 200.078 957.524 200.185C955.003 202.783 951.789 205.724 947.882 209.006C943.873 212.374 939.701 215.123 935.366 217.253C923 223.33 909.994 225.837 896.348 224.772C880.519 223.533 865.496 216.458 854.492 204.903C846.258 196.258 840.749 185.932 837.563 174.554C836.381 170.339 835.727 166.083 835.601 161.785C835.436 156.148 835.37 151.74 835.403 148.561C835.474 141.81 836.633 135.155 838.879 128.597C840.606 123.556 842.614 119.002 844.903 114.936C854.527 97.847 871.214 85.6353 890.676 82.9799C893.632 82.5776 897.042 82.4001 900.907 82.4474C917.118 82.6462 932.032 88.7912 942.954 100.421C951.592 109.619 957.573 121.965 960.042 134.532C961.126 140.051 961.785 145.998 962.022 152.374C962.109 154.753 962.02 156.877 961.752 158.746C961.746 158.796 961.721 158.842 961.682 158.875C961.644 158.909 961.594 158.927 961.543 158.927L848.567 159.069ZM948.343 147.031C947.849 141.512 946.777 135.991 945.129 130.467C941.901 119.647 936.221 109.874 927.122 102.98C913.223 92.4582 893.514 91.0631 878.189 98.9617C869.093 103.648 861.242 111.727 856.361 120.623C851.936 128.691 849.335 137.345 848.557 146.584C848.554 146.619 848.558 146.654 848.569 146.688C848.58 146.721 848.597 146.752 848.621 146.779C848.644 146.806 848.672 146.827 848.703 146.843C848.735 146.859 848.77 146.869 848.805 146.872C850.503 147.002 852.136 147.069 853.704 147.074C877.796 147.169 909.313 147.188 948.254 147.131C948.267 147.131 948.279 147.128 948.291 147.123C948.302 147.118 948.313 147.111 948.321 147.101C948.329 147.092 948.336 147.081 948.34 147.069C948.343 147.057 948.344 147.044 948.343 147.031Z" fill="white"/>
<path d="M1246.67 195.424C1246.8 195.332 1246.96 195.281 1247.12 195.279C1247.28 195.276 1247.44 195.322 1247.57 195.41C1251.15 197.741 1253.81 199.429 1255.54 200.472C1264.43 205.847 1274.15 209.61 1284.18 211.591C1286.63 212.076 1289.29 212.323 1292.16 212.333C1299.05 212.354 1305.23 212.113 1311.11 209.862C1315.65 208.126 1320.27 205.187 1323.44 201.442C1327.1 197.12 1328.94 192.082 1328.96 186.326C1329.02 170.898 1313.91 165.147 1301.66 161.143C1300.9 160.894 1293.77 158.656 1280.28 154.43C1272.63 152.033 1265.01 148.885 1258.47 144.295C1252.75 140.276 1248.55 134.816 1246.98 127.929C1245 119.15 1246.49 109.626 1251.23 101.866C1260.52 86.6649 1279.73 81.5885 1296.5 83.012C1302.3 83.5019 1308.24 84.6 1314.33 86.3063C1317.74 87.2648 1321.46 88.6517 1325.48 90.4669C1329.77 92.4051 1333.33 94.1635 1336.16 95.7421C1337.2 96.3172 1338.12 96.9609 1338.92 97.6732C1338.95 97.7033 1338.98 97.7444 1338.98 97.7892C1338.99 97.8341 1338.98 97.8797 1338.96 97.9182L1332.61 107.727C1332.54 107.83 1332.44 107.906 1332.32 107.937C1332.2 107.969 1332.08 107.954 1331.97 107.897C1331.6 107.705 1330.32 106.981 1328.15 105.725C1322.97 102.74 1317.19 100.215 1310.8 98.1489C1304.51 96.1148 1298.1 94.8013 1291.49 94.8723C1284.24 94.9504 1277.83 95.8166 1271.54 99.1394C1265.4 102.386 1261.46 107.315 1259.72 113.925C1256.22 127.251 1266.86 135.264 1277.62 139.424C1281.42 140.894 1285.1 142.184 1288.65 143.294C1297.99 146.216 1305.17 148.521 1310.21 150.209C1312.97 151.132 1315.81 152.218 1318.75 153.468C1324.58 155.953 1329.62 159.335 1333.88 163.613C1337.33 167.092 1339.64 171.062 1340.81 175.523C1342.42 181.679 1342.14 189.084 1340.43 195.563C1337.98 204.825 1331.78 212.262 1323.45 216.976C1321.46 218.1 1319.09 219.276 1316.32 220.505C1310.86 222.933 1304.46 223.994 1298.72 224.449C1295.57 224.697 1293.94 224.548 1290.21 224.307C1283.94 223.904 1277.08 222.619 1269.64 220.451C1260.36 217.751 1251.63 213.563 1243.44 207.888C1242.4 207.166 1241.41 206.353 1240.46 205.449C1239.44 204.473 1240.09 203.909 1240.83 202.812C1241.22 202.23 1242.83 200.116 1245.66 196.472C1246.04 195.982 1246.37 195.633 1246.67 195.424Z" fill="white"/>
<path d="M1108.23 123.371C1108.23 123.39 1108.23 123.409 1108.25 123.424C1108.26 123.438 1108.28 123.448 1108.3 123.452C1108.32 123.456 1108.34 123.454 1108.35 123.446C1108.37 123.437 1108.39 123.424 1108.4 123.406C1110.01 120.491 1111.47 117.944 1112.78 115.767C1119.55 104.503 1129.56 94.5667 1141.34 89.0145C1149.77 85.0386 1159.09 83.1856 1168.43 82.9264C1168.46 82.9255 1168.48 82.9295 1168.51 82.9383C1168.53 82.9471 1168.55 82.9605 1168.57 82.9777C1168.59 82.9949 1168.6 83.0155 1168.61 83.0384C1168.62 83.0613 1168.63 83.086 1168.63 83.111C1168.66 88.0478 1168.65 92.4142 1168.59 96.2103C1168.58 96.8611 1168.27 97.1853 1167.64 97.183C1166.68 97.1806 1164.52 97.3699 1161.18 97.7509C1146.94 99.3733 1134.25 105.671 1124.78 116.292C1117.42 124.539 1112.53 135.142 1109.99 145.902C1109.59 147.611 1109.28 149.616 1109.07 151.916C1108.76 155.4 1108.56 159.667 1108.48 164.717C1108.19 182.971 1108.02 201.927 1107.97 221.587C1107.97 221.647 1107.95 221.705 1107.91 221.748C1107.86 221.79 1107.8 221.814 1107.74 221.814L1095.35 221.828C1095.31 221.828 1095.27 221.813 1095.24 221.785C1095.21 221.757 1095.2 221.719 1095.2 221.679L1095.02 85.6279C1095.02 85.5639 1095.05 85.5025 1095.1 85.4572C1095.14 85.4119 1095.2 85.3865 1095.27 85.3865L1107.73 85.3688C1107.76 85.3688 1107.8 85.376 1107.83 85.3901C1107.87 85.4042 1107.9 85.4249 1107.93 85.4509C1107.95 85.4769 1107.97 85.5079 1107.99 85.5419C1108 85.5759 1108.01 85.6124 1108.01 85.6492C1107.96 98.7864 1107.99 110.293 1108.09 120.169C1108.1 121.253 1108.15 122.32 1108.23 123.371Z" fill="white"/>
<path d="M1209.57 85.3726H1196.91C1196.84 85.3726 1196.78 85.433 1196.78 85.5075V221.683C1196.78 221.758 1196.84 221.818 1196.91 221.818H1209.57C1209.65 221.818 1209.71 221.758 1209.71 221.683V85.5075C1209.71 85.433 1209.65 85.3726 1209.57 85.3726Z" fill="white"/>
</g>
<defs>
<clipPath id="clip0_43_215">
<rect width="1342" height="295" fill="white"/>
</clipPath>
</defs>
</svg>
