<svg width="1401" height="418" viewBox="0 0 1401 418" fill="none" xmlns="http://www.w3.org/2000/svg">
<g clip-path="url(#clip0_43_227)">
<path d="M237.468 44.2237C204.72 40.9218 175.014 45.4999 148.352 57.958C95.1914 82.7804 62.7355 126.22 50.9844 188.276" stroke="#A7A7A7" stroke-width="2"/>
<path d="M50.3534 199.024C47.3337 237.241 55.3277 272.133 74.3354 303.7C74.4633 303.922 74.6557 304.098 74.8875 304.205C75.1193 304.312 75.3795 304.345 75.634 304.299C75.8884 304.254 76.1253 304.132 76.3134 303.949C76.5015 303.767 76.6321 303.533 76.688 303.278L97.3343 204.609" stroke="#A7A7A7" stroke-width="2"/>
<path d="M197.404 270.295L194.455 259.757C194.346 259.349 194.106 258.987 193.772 258.729C193.439 258.47 193.029 258.327 192.607 258.323C192.185 258.319 191.773 258.454 191.434 258.707C191.096 258.959 190.849 259.316 190.733 259.722L166.47 342.795C166.318 343.313 165.999 343.767 165.562 344.09C165.126 344.413 164.594 344.587 164.047 344.586H112.185C111.923 344.583 111.666 344.663 111.451 344.813C111.235 344.962 111.071 345.176 110.983 345.423C110.894 345.67 110.884 345.939 110.955 346.192C111.026 346.445 111.174 346.669 111.378 346.834C131.275 363.18 153.853 374.455 179.11 380.661" stroke="#A7A7A7" stroke-width="2"/>
<path d="M190.207 382.733C239.857 389.993 283.818 378.073 322.091 346.975C322.305 346.797 322.46 346.557 322.535 346.288C322.61 346.02 322.601 345.734 322.509 345.471C322.418 345.207 322.248 344.978 322.022 344.814C321.797 344.649 321.527 344.558 321.248 344.551H227.497C226.26 344.553 225.054 344.168 224.046 343.45C223.039 342.732 222.281 341.717 221.879 340.547L208.079 300.854" stroke="#A7A7A7" stroke-width="2"/>
<path d="M337.469 203.099C326.584 228.951 306.184 241.386 280.692 249.57C280.342 249.69 280.028 249.899 279.782 250.176C279.537 250.453 279.368 250.788 279.294 251.148C279.219 251.508 279.241 251.88 279.357 252.225C279.472 252.571 279.679 252.879 279.954 253.118C286.298 258.621 291.272 265.319 294.877 273.21C297.101 278.034 307.108 300.679 324.899 341.144C325.044 341.471 325.265 341.759 325.543 341.983C325.821 342.208 326.149 342.362 326.5 342.434C326.85 342.507 327.212 342.494 327.557 342.398C327.901 342.302 328.218 342.125 328.48 341.882C366.917 305.538 385.433 259.101 384.029 202.572" stroke="#A7A7A7" stroke-width="2"/>
<path d="M380.588 178.335C363.828 109.745 321.306 65.8145 253.023 46.542" stroke="#A7A7A7" stroke-width="2"/>
<path d="M342.105 189.435C344.751 173.37 345.792 160.28 345.231 150.164C342.421 98.3879 291.403 77.6987 245.861 79.7711" stroke="#A7A7A7" stroke-width="2"/>
<path d="M232.273 79.2793L127.321 79.2441C126.235 79.2447 125.182 79.6182 124.338 80.3024C123.494 80.9866 122.911 81.9398 122.686 83.0026L100.775 187.819" stroke="#A7A7A7" stroke-width="2"/>
<path d="M1400.9 107.415C1400.9 99.4037 1397.71 91.72 1392.05 86.0549C1386.39 80.3897 1378.71 77.207 1370.7 77.207C1362.69 77.207 1355.01 80.3897 1349.35 86.0549C1343.68 91.72 1340.5 99.4037 1340.5 107.415C1340.5 111.382 1341.28 115.311 1342.8 118.976C1344.32 122.641 1346.54 125.971 1349.35 128.776C1355.01 134.441 1362.69 137.624 1370.7 137.624C1374.66 137.624 1378.59 136.842 1382.25 135.324C1385.92 133.806 1389.25 131.581 1392.05 128.776C1394.86 125.971 1397.08 122.641 1398.6 118.976C1400.11 115.311 1400.9 111.382 1400.9 107.415Z" stroke="#A7A7A7" stroke-width="2"/>
<path d="M1397.81 107.521C1397.81 100.338 1394.95 93.4496 1389.88 88.3707C1384.8 83.2918 1377.91 80.4385 1370.73 80.4385C1363.55 80.4385 1356.67 83.2918 1351.59 88.3707C1346.51 93.4496 1343.66 100.338 1343.66 107.521C1343.66 114.703 1346.51 121.592 1351.59 126.671C1356.67 131.75 1363.55 134.603 1370.73 134.603C1377.91 134.603 1384.8 131.75 1389.88 126.671C1394.95 121.592 1397.81 114.703 1397.81 107.521Z" stroke="#A7A7A7" stroke-width="2"/>
<path d="M1363.4 113.106C1363.57 112.042 1364.07 111.059 1364.83 110.292C1365.59 109.524 1366.56 109.009 1367.62 108.817C1368.68 108.624 1369.78 108.765 1370.76 109.218C1371.73 109.671 1372.55 110.416 1373.09 111.349L1380.28 123.854C1380.39 124.039 1380.53 124.201 1380.7 124.332C1380.87 124.462 1381.06 124.558 1381.27 124.613C1381.47 124.669 1381.69 124.683 1381.9 124.655C1382.11 124.627 1382.31 124.558 1382.5 124.451L1383.37 123.924C1383.59 123.801 1383.78 123.635 1383.94 123.437C1384.09 123.239 1384.2 123.013 1384.27 122.771C1384.33 122.529 1384.35 122.277 1384.32 122.029C1384.28 121.781 1384.2 121.542 1384.08 121.325L1378.46 111.595C1378.26 111.258 1378.14 110.885 1378.09 110.498C1378.04 110.112 1378.07 109.719 1378.18 109.345C1378.29 108.97 1378.47 108.622 1378.72 108.32C1378.97 108.019 1379.27 107.771 1379.62 107.591C1390.26 102.006 1386.32 91.3274 1376.56 89.8873C1374.06 89.5126 1369.34 89.255 1362.41 89.1145C1361.98 89.1004 1361.55 89.1744 1361.14 89.3322C1360.74 89.4901 1360.37 89.7284 1360.06 90.0332C1359.75 90.338 1359.5 90.7029 1359.33 91.1063C1359.16 91.5096 1359.08 91.9432 1359.08 92.3812V122.906C1359.08 123.353 1359.25 123.782 1359.57 124.098C1359.89 124.414 1360.31 124.592 1360.76 124.592H1362.06C1362.33 124.59 1362.59 124.53 1362.83 124.418C1363.08 124.305 1363.29 124.141 1363.46 123.938C1363.64 123.735 1363.76 123.497 1363.84 123.24C1363.91 122.983 1363.93 122.713 1363.89 122.449C1363.21 118.304 1363.04 115.19 1363.4 113.106Z" stroke="#A7A7A7" stroke-width="2"/>
<path d="M1380.59 97.6802C1380.58 97.0575 1380.45 96.442 1380.21 95.8688C1379.97 95.2955 1379.61 94.7758 1379.17 94.3393C1378.72 93.9028 1378.2 93.5581 1377.62 93.3248C1377.04 93.0915 1376.43 92.9743 1375.8 92.9797L1367.94 93.0482C1367.32 93.0536 1366.7 93.1817 1366.13 93.425C1365.56 93.6684 1365.04 94.0223 1364.6 94.4664C1364.16 94.9106 1363.82 95.4364 1363.59 96.0138C1363.35 96.5912 1363.23 97.2089 1363.24 97.8316L1363.27 101.063C1363.27 101.686 1363.4 102.301 1363.65 102.874C1363.89 103.448 1364.24 103.967 1364.69 104.404C1365.13 104.84 1365.66 105.185 1366.23 105.418C1366.81 105.652 1367.43 105.769 1368.05 105.763L1375.92 105.695C1376.54 105.689 1377.15 105.561 1377.73 105.318C1378.3 105.075 1378.82 104.721 1379.25 104.277C1379.69 103.832 1380.04 103.307 1380.27 102.729C1380.5 102.152 1380.62 101.534 1380.61 100.911L1380.59 97.6802Z" stroke="#A7A7A7" stroke-width="2"/>
<path d="M253.023 46.5418C243.005 49.6797 240.617 60.7562 245.86 79.7711C243.73 79.3027 242.396 81.4337 241.858 86.164C239.4 108.059 236.743 130.025 233.887 152.06C232.728 160.842 232.553 172.363 235.959 179.494C238.58 184.974 242.314 187.901 247.16 188.275C273.049 190.289 304.698 190.676 342.105 189.435C353.13 192.081 364.39 193.076 375.883 192.42C376.453 192.387 377.007 192.228 377.505 191.955C378.003 191.681 378.433 191.3 378.762 190.84C380.799 187.936 381.408 183.768 380.588 178.335C380.729 182.831 381.688 186.765 383.467 190.137C383.732 190.653 384.112 191.104 384.58 191.457C385.048 191.809 385.592 192.055 386.171 192.174C397.548 194.376 408.643 194.586 419.458 192.807C419.706 192.763 419.963 192.801 420.195 192.914C420.428 193.027 420.624 193.21 420.757 193.439L421.495 194.704C421.524 194.76 421.538 194.824 421.537 194.887C421.536 194.951 421.519 195.014 421.488 195.07C421.456 195.125 421.412 195.172 421.358 195.206C421.304 195.241 421.242 195.261 421.179 195.266L385.68 197.83C385.547 197.841 385.419 197.879 385.305 197.939C385.19 198 385.09 198.082 385.012 198.181C383.842 199.539 383.514 201.003 384.029 202.572C369.516 197.795 353.996 197.97 337.47 203.099C337.446 201.858 336.44 201.272 334.45 201.342C298.658 202.747 273.19 203.778 258.045 204.433C241.471 205.136 231.78 208.894 224.617 222.875C221.434 229.127 219.034 236.176 217.419 244.02C213.346 263.855 210.233 282.8 208.079 300.854L190.207 382.733C187.304 381.422 183.606 380.731 179.111 380.661C184.191 381.34 186.941 379.748 187.363 375.884C190.453 348.38 192.84 320.806 196.773 293.443C197.85 285.949 198.06 278.233 197.405 270.295C198.201 271.161 198.716 271.536 198.95 271.419C200.12 270.833 200.776 269.955 200.916 268.784C202.11 259.534 203.608 247.802 205.411 233.588C206.92 221.68 202.637 205.347 187.924 204.609C159.179 203.181 131.358 201.776 104.461 200.394C99.9201 200.136 97.5441 201.541 97.3334 204.609C93.0497 200.464 87.2327 198.579 79.8824 198.954C67.1247 199.563 57.2815 199.586 50.3525 199.024C38.5078 197.221 26.2652 195.98 13.6246 195.301C13.5075 195.301 13.2032 195.347 12.7116 195.441C12.2903 195.511 11.9977 195.371 11.8338 195.02C11.8108 194.956 11.8022 194.888 11.8087 194.821C11.8152 194.753 11.8366 194.69 11.8711 194.634C11.9056 194.579 11.9521 194.534 12.0068 194.504C12.0614 194.473 12.1225 194.457 12.1849 194.458L46.2443 193.298C46.8674 193.275 47.4826 193.094 48.0351 192.772C50.2823 191.413 51.2655 189.915 50.9846 188.275C66.6449 191.249 83.2415 191.097 100.774 187.819C100.54 190.301 102.659 191.39 107.13 191.086C139.129 188.908 164.294 187.655 182.622 187.327C212.784 186.8 214.996 169.518 220.825 141.593C225.109 121.032 228.924 100.261 232.272 79.2793C237.445 66.3763 239.177 54.6911 237.469 44.2235C239.669 44.5045 241.038 43.4976 241.577 41.2027C244.222 29.6813 246.34 18.5815 247.932 7.90315C248.073 6.95475 247.932 7.37626 248.002 7.65727C249.852 14.3078 249.29 25.513 246.317 41.2729C245.544 45.3475 247.78 47.1038 253.023 46.5418ZM217.454 207.138C220.731 202.174 225.273 198.509 231.078 196.144C231.326 196.046 231.545 195.887 231.715 195.681C231.885 195.476 232.002 195.23 232.054 194.966C232.106 194.701 232.092 194.427 232.014 194.167C231.936 193.906 231.795 193.668 231.605 193.474L220.685 182.55C220.568 182.436 220.427 182.35 220.272 182.299C220.117 182.247 219.953 182.23 219.791 182.251C219.63 182.271 219.474 182.327 219.337 182.415C219.2 182.504 219.085 182.622 218.999 182.761C216.424 187.046 212.421 190.98 206.991 194.563C206.699 194.754 206.455 195.009 206.275 195.308C206.096 195.607 205.985 195.944 205.951 196.294C205.918 196.643 205.962 196.997 206.081 197.329C206.2 197.662 206.391 197.965 206.64 198.216L215.734 207.314C215.854 207.432 215.999 207.523 216.157 207.579C216.316 207.636 216.484 207.656 216.649 207.639C216.815 207.622 216.973 207.568 217.112 207.482C217.252 207.395 217.369 207.278 217.454 207.138Z" fill="white"/>
<path d="M237.468 44.2237C239.177 54.6913 237.445 66.3765 232.272 79.2795L127.32 79.2444C126.234 79.2449 125.181 79.6185 124.337 80.3026C123.493 80.9868 122.91 81.94 122.685 83.0028L100.774 187.819C83.2413 191.097 66.6447 191.25 50.9844 188.276C62.7355 126.22 95.1914 82.7804 148.352 57.958C175.014 45.4999 204.72 40.9218 237.468 44.2237Z" fill="#A7A7A7"/>
<path d="M253.023 46.542C321.306 65.8145 363.828 109.745 380.588 178.335C381.407 183.768 380.799 187.936 378.762 190.84C378.433 191.3 378.003 191.681 377.505 191.955C377.006 192.228 376.452 192.387 375.883 192.42C364.389 193.076 353.13 192.081 342.105 189.435C344.75 173.37 345.791 160.28 345.23 150.164C342.421 98.388 291.402 77.6988 245.86 79.7712C240.617 60.7563 243.005 49.6799 253.023 46.542Z" fill="#A7A7A7"/>
<path d="M1400.89 107.415C1400.89 111.382 1400.11 115.311 1398.6 118.976C1397.08 122.641 1394.85 125.971 1392.05 128.776C1389.25 131.581 1385.92 133.806 1382.25 135.324C1378.59 136.842 1374.66 137.624 1370.7 137.624C1362.69 137.624 1355.01 134.441 1349.34 128.776C1343.68 123.111 1340.5 115.427 1340.5 107.415C1340.5 99.4037 1343.68 91.72 1349.34 86.0549C1355.01 80.3897 1362.69 77.207 1370.7 77.207C1378.71 77.207 1386.39 80.3897 1392.05 86.0549C1397.71 91.72 1400.89 99.4037 1400.89 107.415ZM1397.8 107.521C1397.8 100.338 1394.95 93.4497 1389.87 88.3708C1384.8 83.2919 1377.91 80.4386 1370.73 80.4386C1363.55 80.4386 1356.67 83.2919 1351.59 88.3708C1346.51 93.4497 1343.66 100.338 1343.66 107.521C1343.66 114.703 1346.51 121.592 1351.59 126.671C1356.67 131.75 1363.55 134.603 1370.73 134.603C1377.91 134.603 1384.8 131.75 1389.87 126.671C1394.95 121.592 1397.8 114.703 1397.8 107.521Z" fill="#A7A7A7"/>
<path d="M1157.32 245.426C1157.36 245.216 1157.36 244.998 1157.31 244.788C1157.26 244.578 1157.16 244.381 1157.03 244.213C1156.89 244.044 1156.71 243.908 1156.51 243.814C1156.32 243.72 1156.1 243.671 1155.88 243.669H1099.45C1099.13 243.671 1098.81 243.601 1098.52 243.462C1098.23 243.324 1097.97 243.121 1097.77 242.869C1097.56 242.617 1097.41 242.322 1097.33 242.005C1097.26 241.688 1097.25 241.356 1097.31 241.035L1104.61 205.944C1104.75 205.271 1105.11 204.667 1105.65 204.232C1106.18 203.796 1106.84 203.558 1107.53 203.555H1207.88C1208.33 203.556 1208.76 203.656 1209.17 203.848C1209.57 204.041 1209.92 204.321 1210.2 204.668C1210.48 205.015 1210.68 205.42 1210.78 205.853C1210.88 206.287 1210.89 206.738 1210.79 207.173L1191.38 300.784C1191.01 302.517 1190.28 304.153 1189.22 305.583C1188.17 307.013 1186.82 308.203 1185.27 309.074C1121.78 344.341 1001.91 358.145 990.18 254.558C980.63 169.975 1032.18 87.1477 1124.59 88.7635C1174.17 89.6416 1208.79 113.317 1219.61 162.528C1219.65 162.73 1219.66 162.939 1219.62 163.142C1219.58 163.344 1219.49 163.537 1219.37 163.705C1219.25 163.874 1219.1 164.016 1218.92 164.122C1218.75 164.228 1218.55 164.295 1218.34 164.32L1176.98 168.746C1176.22 168.823 1175.46 168.639 1174.82 168.224C1174.18 167.808 1173.71 167.187 1173.47 166.462C1160.9 128.596 1124.17 120.447 1090.22 134.638C1046.99 152.658 1031.72 207.7 1037.55 251.257C1045.06 307.739 1112.09 298.325 1147.8 279.568C1148.66 279.106 1149.4 278.464 1149.99 277.687C1150.57 276.911 1150.97 276.018 1151.17 275.072L1157.32 245.426Z" fill="white"/>
<path d="M1363.4 113.106C1363.04 115.19 1363.21 118.305 1363.89 122.45C1363.93 122.714 1363.91 122.983 1363.84 123.24C1363.76 123.497 1363.64 123.735 1363.46 123.938C1363.29 124.142 1363.08 124.305 1362.83 124.418C1362.59 124.531 1362.33 124.59 1362.06 124.592H1360.76C1360.31 124.592 1359.89 124.415 1359.57 124.098C1359.25 123.782 1359.08 123.353 1359.08 122.906V92.3817C1359.08 91.9437 1359.16 91.5101 1359.33 91.1067C1359.5 90.7034 1359.75 90.3385 1360.06 90.0337C1360.37 89.7289 1360.74 89.4906 1361.14 89.3327C1361.55 89.1749 1361.98 89.1008 1362.41 89.115C1369.34 89.2555 1374.06 89.5131 1376.56 89.8878C1386.32 91.3279 1390.26 102.006 1379.62 107.591C1379.27 107.771 1378.97 108.019 1378.72 108.321C1378.47 108.622 1378.29 108.971 1378.18 109.345C1378.07 109.72 1378.04 110.112 1378.09 110.499C1378.14 110.886 1378.26 111.259 1378.46 111.596L1384.08 121.326C1384.2 121.542 1384.28 121.781 1384.32 122.03C1384.35 122.278 1384.33 122.53 1384.27 122.771C1384.2 123.013 1384.09 123.239 1383.94 123.437C1383.78 123.635 1383.59 123.801 1383.37 123.925L1382.5 124.452C1382.31 124.559 1382.11 124.628 1381.9 124.656C1381.69 124.683 1381.47 124.669 1381.27 124.614C1381.06 124.558 1380.87 124.462 1380.7 124.332C1380.53 124.202 1380.39 124.04 1380.28 123.855L1373.09 111.35C1372.55 110.416 1371.73 109.672 1370.76 109.218C1369.78 108.765 1368.68 108.625 1367.62 108.817C1366.56 109.009 1365.59 109.524 1364.83 110.292C1364.07 111.06 1363.57 112.043 1363.4 113.106ZM1380.59 97.6805C1380.58 97.0578 1380.45 96.4422 1380.21 95.869C1379.97 95.2958 1379.61 94.7761 1379.17 94.3396C1378.72 93.9031 1378.2 93.5583 1377.62 93.3251C1377.04 93.0918 1376.43 92.9745 1375.8 92.9799L1367.94 93.0484C1367.32 93.0539 1366.7 93.1819 1366.13 93.4253C1365.56 93.6686 1365.04 94.0225 1364.6 94.4667C1364.16 94.9109 1363.82 95.4367 1363.59 96.0141C1363.35 96.5915 1363.24 97.2092 1363.24 97.8319L1363.27 101.063C1363.27 101.686 1363.4 102.301 1363.65 102.875C1363.89 103.448 1364.24 103.968 1364.69 104.404C1365.13 104.84 1365.66 105.185 1366.23 105.419C1366.81 105.652 1367.43 105.769 1368.05 105.764L1375.92 105.695C1376.54 105.69 1377.15 105.562 1377.73 105.318C1378.3 105.075 1378.82 104.721 1379.26 104.277C1379.69 103.833 1380.04 103.307 1380.27 102.73C1380.5 102.152 1380.62 101.534 1380.61 100.912L1380.59 97.6805Z" fill="#A7A7A7"/>
<path d="M631.854 231.656C638.619 239.267 644.763 248.165 650.288 258.352C661.899 279.779 672.397 302.915 681.784 327.761C681.909 328.091 681.952 328.446 681.91 328.796C681.867 329.146 681.741 329.481 681.54 329.771C681.34 330.061 681.072 330.299 680.76 330.462C680.447 330.626 680.1 330.712 679.748 330.712H633.644C632.77 330.711 631.918 330.44 631.207 329.936C630.496 329.433 629.961 328.722 629.677 327.901C619.588 298.77 608.82 273.398 597.373 251.783C585.68 229.724 564.718 232.007 543.475 232.183C542.577 232.194 541.71 232.51 541.015 233.077C540.32 233.645 539.838 234.432 539.648 235.309L520.265 328.815C520.145 329.361 519.84 329.851 519.399 330.202C518.959 330.553 518.41 330.745 517.842 330.747H473.46C473.147 330.748 472.838 330.679 472.554 330.546C472.271 330.412 472.021 330.217 471.823 329.975C471.625 329.733 471.483 329.449 471.407 329.145C471.332 328.841 471.326 328.524 471.388 328.218L519.984 94.1727C520.081 93.7048 520.337 93.2849 520.708 92.9841C521.08 92.6832 521.543 92.5199 522.021 92.5218C565.186 92.4281 601.715 92.4633 631.608 92.6272C666.334 92.8028 695.689 104.289 700.991 142.331C706.187 179.634 689.86 213.11 653.94 224.104C647.245 226.165 640.058 228.132 632.38 230.005C632.212 230.047 632.057 230.132 631.931 230.25C631.804 230.369 631.71 230.518 631.657 230.684C631.604 230.849 631.595 231.025 631.629 231.195C631.663 231.366 631.741 231.524 631.854 231.656ZM560.68 134.919L548.566 193.369C548.493 193.71 548.497 194.064 548.578 194.404C548.658 194.743 548.813 195.061 549.032 195.333C549.25 195.606 549.527 195.826 549.841 195.978C550.155 196.131 550.499 196.211 550.849 196.214C573.438 196.706 592.867 196.378 609.136 195.23C628.471 193.872 641.896 185.922 649.41 171.38C652.757 164.893 653.998 158.734 653.132 152.903C650.393 134.252 634.733 132.917 616.158 132.776C596.612 132.636 578.95 132.671 563.173 132.882C562.59 132.879 562.024 133.08 561.57 133.451C561.116 133.822 560.801 134.341 560.68 134.919Z" fill="white"/>
<path d="M742.074 92.8379H786.317C786.66 92.8364 787 92.9114 787.312 93.0577C787.623 93.2039 787.898 93.4176 788.116 93.6832C788.335 93.9489 788.492 94.2599 788.575 94.5937C788.658 94.9274 788.667 95.2756 788.599 95.6129L740.143 328.92C740.037 329.447 739.752 329.921 739.336 330.26C738.919 330.6 738.398 330.784 737.861 330.782H693.619C693.275 330.783 692.935 330.708 692.624 330.562C692.312 330.416 692.037 330.202 691.819 329.936C691.6 329.671 691.444 329.36 691.36 329.026C691.277 328.692 691.269 328.344 691.336 328.007L739.792 94.6996C739.898 94.1728 740.183 93.6991 740.6 93.3595C741.016 93.0199 741.537 92.8355 742.074 92.8379Z" fill="white"/>
<path d="M969.64 189.294L962.337 224.561C962.231 225.069 961.954 225.525 961.55 225.852C961.147 226.178 960.643 226.355 960.125 226.352H840.214C839.696 226.35 839.192 226.527 838.789 226.853C838.386 227.18 838.108 227.636 838.002 228.144L825.572 288.104C825.504 288.432 825.511 288.771 825.59 289.096C825.67 289.422 825.822 289.725 826.034 289.984C826.246 290.243 826.513 290.452 826.816 290.595C827.119 290.737 827.45 290.81 827.785 290.809H959.633C959.968 290.807 960.299 290.88 960.602 291.023C960.905 291.165 961.172 291.374 961.384 291.633C961.596 291.892 961.747 292.196 961.827 292.521C961.907 292.846 961.913 293.185 961.845 293.513L954.507 328.956C954.401 329.464 954.123 329.92 953.72 330.246C953.317 330.573 952.813 330.75 952.294 330.747H771.148C770.813 330.749 770.482 330.676 770.179 330.533C769.876 330.39 769.609 330.182 769.397 329.922C769.185 329.663 769.033 329.36 768.953 329.035C768.874 328.709 768.868 328.37 768.936 328.042L817.426 94.4189C817.532 93.9108 817.809 93.4547 818.213 93.1282C818.616 92.8017 819.12 92.6248 819.638 92.6275H991.305C991.64 92.6257 991.971 92.6988 992.273 92.8415C992.576 92.9841 992.844 93.1927 993.056 93.4519C993.268 93.7112 993.419 94.0145 993.499 94.3399C993.579 94.6652 993.585 95.0042 993.517 95.3322L986.178 130.845C986.073 131.353 985.795 131.809 985.392 132.135C984.989 132.462 984.485 132.639 983.966 132.636H860.51C859.991 132.633 859.487 132.81 859.084 133.137C858.681 133.463 858.403 133.919 858.298 134.427L848.045 183.885C847.977 184.213 847.983 184.552 848.062 184.877C848.142 185.203 848.294 185.506 848.506 185.765C848.718 186.024 848.985 186.233 849.288 186.376C849.591 186.518 849.922 186.591 850.257 186.59H967.428C967.763 186.588 968.094 186.661 968.397 186.804C968.7 186.946 968.967 187.155 969.179 187.414C969.391 187.673 969.542 187.977 969.622 188.302C969.702 188.627 969.708 188.966 969.64 189.294Z" fill="white"/>
<path d="M1393.45 293.619L1386.15 328.78C1386.03 329.338 1385.73 329.839 1385.29 330.197C1384.85 330.556 1384.29 330.75 1383.73 330.747H1218.98C1218.61 330.749 1218.25 330.67 1217.92 330.514C1217.59 330.359 1217.29 330.132 1217.06 329.849C1216.83 329.566 1216.66 329.235 1216.58 328.88C1216.49 328.525 1216.48 328.155 1216.55 327.796L1264.94 94.7C1265.05 94.1423 1265.36 93.6413 1265.8 93.2826C1266.24 92.9238 1266.79 92.7296 1267.36 92.733H1311.36C1311.72 92.7308 1312.09 92.8103 1312.42 92.9656C1312.75 93.121 1313.04 93.3483 1313.27 93.631C1313.5 93.9137 1313.67 94.2447 1313.76 94.5997C1313.85 94.9548 1313.85 95.3251 1313.78 95.6835L1273.89 287.718C1273.82 288.076 1273.83 288.446 1273.92 288.801C1274 289.157 1274.17 289.487 1274.4 289.77C1274.63 290.053 1274.93 290.28 1275.26 290.436C1275.59 290.591 1275.95 290.67 1276.32 290.668H1391.03C1391.39 290.666 1391.76 290.746 1392.09 290.901C1392.42 291.056 1392.71 291.284 1392.94 291.566C1393.17 291.849 1393.34 292.18 1393.43 292.535C1393.52 292.89 1393.52 293.26 1393.45 293.619Z" fill="white"/>
<path d="M97.3323 204.609L76.686 303.278C76.6301 303.533 76.4996 303.767 76.3115 303.95C76.1234 304.132 75.8865 304.254 75.632 304.299C75.3775 304.345 75.1173 304.312 74.8855 304.205C74.6538 304.098 74.4613 303.922 74.3334 303.7C55.3257 272.133 47.3317 237.241 50.3514 199.024C57.2803 199.586 67.1236 199.563 79.8813 198.954C87.2315 198.579 93.0485 200.464 97.3323 204.609Z" fill="#A7A7A7"/>
<path d="M384.029 202.572C385.433 259.102 366.917 305.538 328.48 341.882C328.218 342.125 327.901 342.302 327.557 342.398C327.212 342.494 326.85 342.507 326.5 342.435C326.149 342.363 325.821 342.208 325.543 341.983C325.265 341.759 325.044 341.471 324.899 341.144C307.108 300.679 297.101 278.034 294.877 273.211C291.272 265.319 286.298 258.621 279.954 253.118C279.679 252.879 279.472 252.572 279.357 252.226C279.241 251.88 279.219 251.508 279.294 251.148C279.368 250.789 279.537 250.453 279.782 250.176C280.028 249.899 280.342 249.69 280.692 249.571C306.184 241.386 326.584 228.952 337.469 203.099C353.995 197.971 369.515 197.795 384.029 202.572Z" fill="#A7A7A7"/>
<path d="M197.404 270.295C198.06 278.234 197.849 285.95 196.772 293.443C192.84 320.806 190.452 348.38 187.362 375.884C186.941 379.748 184.19 381.34 179.11 380.661C153.853 374.456 131.275 363.18 111.378 346.835C111.174 346.67 111.026 346.445 110.955 346.192C110.884 345.939 110.894 345.671 110.983 345.424C111.071 345.176 111.235 344.963 111.451 344.813C111.666 344.663 111.923 344.584 112.185 344.587H164.047C164.594 344.588 165.126 344.414 165.562 344.091C165.999 343.768 166.318 343.313 166.47 342.795L190.733 259.722C190.849 259.316 191.096 258.96 191.434 258.707C191.773 258.454 192.185 258.32 192.607 258.324C193.029 258.328 193.439 258.47 193.772 258.729C194.106 258.988 194.346 259.349 194.455 259.757L197.404 270.295Z" fill="#A7A7A7"/>
<path d="M190.205 382.733L208.077 300.854L221.877 340.547C222.279 341.717 223.037 342.732 224.044 343.45C225.052 344.168 226.258 344.553 227.495 344.551H321.246C321.525 344.558 321.795 344.649 322.021 344.814C322.246 344.978 322.416 345.207 322.508 345.471C322.599 345.734 322.608 346.02 322.533 346.288C322.458 346.557 322.303 346.797 322.089 346.975C283.816 378.073 239.855 389.993 190.205 382.733Z" fill="#A7A7A7"/>
</g>
<defs>
<clipPath id="clip0_43_227">
<rect width="1401" height="418" fill="white"/>
</clipPath>
</defs>
</svg>
