<svg width="1390" height="369" viewBox="0 0 1390 369" fill="none" xmlns="http://www.w3.org/2000/svg">
<path d="M45.1949 107.127C45.1747 107.149 45.1482 107.164 45.119 107.171C45.0898 107.178 45.0593 107.175 45.0314 107.164C45.0035 107.154 44.9796 107.134 44.9629 107.11C44.9461 107.085 44.9373 107.056 44.9375 107.026V25.3007C44.9382 25.238 44.9551 25.1765 44.9865 25.1221C45.0179 25.0677 45.0628 25.0224 45.1168 24.9903C45.1709 24.9583 45.2323 24.9406 45.2951 24.9391C45.358 24.9375 45.4202 24.9522 45.4757 24.9815C63.9856 35.1174 92.1835 49.8618 111.154 60.6282C111.429 60.7839 111.606 60.9603 111.684 61.1575C111.708 61.2187 111.718 61.2844 111.714 61.3499C111.71 61.4154 111.691 61.4792 111.659 61.5365C111.626 61.5939 111.582 61.6434 111.528 61.6815C111.475 61.7196 111.413 61.7454 111.349 61.757C110.101 61.9646 109.011 62.2215 108.08 62.5277C88.6006 68.823 71.6325 78.9381 57.1761 92.8729C55.2364 94.736 52.3269 97.9927 48.4476 102.643C47.184 104.169 46.4351 105.835 45.1949 107.127Z" fill="white"/>
<path d="M685.399 53.9008L630.408 53.9966C629.641 53.9979 629.021 54.6194 629.022 55.3847L629.108 104.351C629.109 105.116 629.732 105.736 630.498 105.734L685.49 105.639C686.257 105.637 686.877 105.016 686.876 104.25L686.79 55.2841C686.789 54.5188 686.166 53.8995 685.399 53.9008Z" fill="white"/>
<path d="M1191.03 54.8364H1135.87C1135.18 54.8364 1134.62 55.3941 1134.62 56.082V308.092C1134.62 308.78 1135.18 309.337 1135.87 309.337H1191.03C1191.72 309.337 1192.28 308.78 1192.28 308.092V56.082C1192.28 55.3941 1191.72 54.8364 1191.03 54.8364Z" fill="white"/>
<path d="M965.551 54.9297H1021.22C1021.54 54.9297 1021.85 55.056 1022.07 55.2808C1022.3 55.5057 1022.42 55.8106 1022.42 56.1285V139.652C1022.42 139.793 1022.46 139.931 1022.54 140.048C1022.62 140.164 1022.74 140.253 1022.87 140.303C1023 140.353 1023.15 140.361 1023.29 140.327C1023.42 140.293 1023.55 140.217 1023.64 140.111L1025.59 137.908C1025.81 137.655 1026.07 137.43 1026.35 137.238C1035.46 130.876 1044.71 127.204 1054.08 126.223C1059.82 125.626 1066.18 126.272 1073.16 128.161C1079.74 129.936 1085.73 133.164 1091.13 137.846C1101.81 147.063 1108.37 158.709 1112.87 172.449C1115.6 180.784 1117.37 189.342 1118.16 198.123C1118.59 202.877 1118.85 205.605 1118.93 206.305C1119.58 211.895 1118.97 216.122 1119.25 221.571C1119.32 222.89 1119.23 225.256 1118.99 228.671C1118.2 239.533 1116.3 249.952 1113.26 259.927C1106.07 283.608 1089.91 307.376 1063.03 310.521C1052.8 311.712 1041.17 311.54 1031.72 307.189C1021.55 302.492 1013.17 295.288 1006.6 285.578C1006.41 285.313 1006.1 285.02 1005.66 284.698C1005.56 284.624 1005.44 284.573 1005.32 284.55C1005.19 284.526 1005.07 284.531 1004.94 284.564C1004.82 284.597 1004.71 284.657 1004.62 284.74C1004.52 284.822 1004.45 284.925 1004.4 285.041L994.521 308.349C994.396 308.642 994.187 308.892 993.921 309.067C993.655 309.243 993.343 309.337 993.023 309.337H965.59C965.311 309.337 965.043 309.227 964.846 309.029C964.648 308.832 964.537 308.565 964.537 308.286V55.9417C964.537 55.6733 964.644 55.4159 964.834 55.2261C965.024 55.0363 965.282 54.9297 965.551 54.9297ZM1022.77 167.599C1022.46 168.845 1022.3 170.051 1022.31 171.219C1022.41 195.42 1022.39 223.071 1022.24 254.174C1022.22 258.248 1022.67 261.365 1023.6 263.524C1027.19 271.874 1033.54 275.754 1042.66 275.162C1048.6 274.778 1052.72 272.012 1055.04 266.863C1056.62 263.329 1057.68 259.595 1058.22 255.661C1058.77 251.571 1059.21 246.143 1059.53 239.375C1060.12 226.943 1059.84 215.748 1059.89 202.794C1059.94 193.359 1059.37 184.29 1058.21 175.586C1057.78 172.395 1056.81 169.174 1055.28 165.926C1051.6 158.125 1043.33 156.078 1035.56 158.88C1030.73 160.619 1026.68 163.144 1023.42 166.455C1023.1 166.771 1022.88 167.166 1022.77 167.599Z" fill="white"/>
<path d="M203.101 109.914C204.131 108.7 205.66 107.89 207.688 107.485C207.773 107.468 207.853 107.432 207.923 107.38C207.992 107.328 208.049 107.261 208.088 107.184C208.128 107.107 208.15 107.022 208.152 106.935C208.154 106.848 208.137 106.762 208.101 106.683C206.705 103.678 202.477 101.312 198.624 98.6493C191.565 93.7683 184.178 90.7011 175.855 89.0195C171.976 88.2411 169.061 87.7584 167.111 87.5716C165.764 87.4418 164.607 87.4652 163.64 87.6416C163.548 87.6596 163.464 87.7042 163.397 87.7698C163.331 87.8353 163.285 87.9191 163.266 88.0104C163.247 88.1018 163.255 88.1968 163.29 88.2835C163.324 88.3702 163.384 88.4448 163.461 88.498C167.969 91.5262 173.141 93.6904 177.556 96.275C182.542 99.1917 188.338 102.347 194.942 105.741C195.665 106.115 196.468 106.616 197.353 107.244C198.133 107.804 198.902 108.362 199.661 108.918C193.51 109.992 187.184 111.489 180.683 113.409C180.406 113.493 180.112 113.505 179.828 113.446C179.545 113.386 179.281 113.255 179.061 113.067C178.187 112.314 177.127 111.422 175.878 110.389C167.969 103.85 160.962 98.6597 154.857 94.8192C153.507 93.9707 150.98 92.7018 149.225 91.2693C149.199 90.8023 149.319 90.5064 149.584 90.3819C149.969 89.8837 150.484 89.5774 151.128 89.4633C154.316 88.8768 157.87 88.3137 161.791 87.774C161.803 87.7733 161.814 87.7687 161.822 87.7608C161.83 87.753 161.836 87.7423 161.838 87.7303C161.839 87.7183 161.837 87.7055 161.832 87.6938C161.826 87.6821 161.818 87.672 161.807 87.665L140.645 76.1824C140.555 76.1317 140.455 76.1019 140.352 76.0951C140.25 76.0884 140.147 76.1049 140.052 76.1435C136.516 77.5707 133.016 79.4157 129.553 81.6785C129.595 81.3048 129.257 81.2347 128.539 81.4683L117.899 78.4011C117.771 78.3637 117.658 78.2863 117.577 78.1801C117.496 78.0739 117.452 77.9447 117.45 77.8113C117.448 77.6779 117.49 77.5475 117.568 77.4392C117.646 77.331 117.757 77.2506 117.884 77.21C123.516 75.4039 129.371 74.2699 135.45 73.808C135.485 73.8052 135.517 73.7915 135.544 73.7688C135.57 73.7461 135.588 73.7156 135.596 73.6818C135.604 73.648 135.601 73.6126 135.587 73.5807C135.574 73.5488 135.55 73.5221 135.52 73.5044C131.568 71.2987 124.94 67.767 115.637 62.9093C114.743 62.4422 114.098 61.9569 113.703 61.4535C113.669 61.4072 113.646 61.3533 113.637 61.2965C113.628 61.2397 113.633 61.1817 113.652 61.1279C113.67 61.074 113.702 61.0258 113.743 60.9875C113.785 60.9493 113.835 60.9222 113.89 60.9086C125.065 58.0438 136.24 56.6529 147.415 56.7359C150.198 56.7567 152.668 56.8735 154.826 57.0863C158.297 57.4366 161.526 57.5144 164.701 57.9893C186.037 61.2174 205.343 69.2331 222.617 82.0366C224.105 83.142 225.574 84.398 227.025 85.8044C227.357 86.1262 228.907 87.4755 231.674 89.8525C232.958 90.9528 235.55 93.4517 239.45 97.3493C248.358 106.24 255.714 117.022 260.854 128.115C262.919 132.568 264.91 137.659 266.829 143.389C266.848 143.447 266.855 143.509 266.848 143.57C266.841 143.631 266.822 143.69 266.791 143.742C266.76 143.795 266.718 143.84 266.668 143.874C266.618 143.908 266.561 143.931 266.502 143.941C266.158 144.004 265.89 143.983 265.698 143.879C252.589 136.8 245.053 132.7 243.093 131.579C243.053 131.558 243.007 131.551 242.963 131.56C242.919 131.569 242.879 131.593 242.85 131.628C242.822 131.663 242.806 131.707 242.807 131.752C242.807 131.797 242.822 131.84 242.851 131.875C243.803 132.923 244.414 133.785 244.684 134.459C245.324 136.016 246.494 137.083 246.954 138.321C248.21 141.707 250.176 145.304 251.026 148.854C252.44 154.749 253.27 159.371 253.514 162.718C253.582 163.611 253.613 165.941 253.608 169.709C253.608 172.205 253.457 174.53 253.155 176.684C251.85 186.068 248.673 194.761 243.623 202.763C243.015 203.729 242.641 204.663 241.72 205.395C241.64 205.457 241.546 205.5 241.446 205.518C241.346 205.536 241.243 205.531 241.146 205.501C241.048 205.471 240.96 205.418 240.887 205.347C240.815 205.275 240.761 205.188 240.73 205.091C237.365 194.395 232.875 183.634 227.259 172.807C227.203 172.702 227.18 172.582 227.193 172.465C227.205 172.347 227.253 172.236 227.329 172.146C237.542 159.918 241.294 145.716 238.585 129.539C238.575 129.477 238.584 129.413 238.612 129.356C238.639 129.299 238.683 129.252 238.738 129.221C238.793 129.19 238.857 129.176 238.92 129.181C238.983 129.187 239.043 129.211 239.092 129.251C239.716 129.781 240.212 130.069 240.581 130.116C240.625 130.12 240.67 130.11 240.708 130.088C240.747 130.067 240.778 130.034 240.797 129.994C240.817 129.955 240.824 129.91 240.817 129.866C240.811 129.823 240.791 129.782 240.761 129.75C239.294 128.317 237.906 128.738 236.291 127.897C225.288 122.136 214.224 116.142 203.101 109.914ZM146.745 73.5356H137.447C137.379 73.5357 137.313 73.5578 137.259 73.5987C137.205 73.6395 137.166 73.6968 137.147 73.7619C137.129 73.827 137.132 73.8964 137.156 73.9595C137.181 74.0226 137.225 74.076 137.283 74.1116C139.42 75.3883 141.243 75.6426 142.751 74.8745C143.968 74.2518 145.824 74.1428 146.791 73.8158C146.824 73.8067 146.852 73.7862 146.87 73.7581C146.888 73.7299 146.895 73.696 146.889 73.6622C146.883 73.6285 146.866 73.5972 146.839 73.574C146.813 73.5508 146.779 73.5372 146.745 73.5356Z" fill="white"/>
<path d="M402.859 310.077V107.181C402.859 106.944 402.764 106.716 402.596 106.548C402.428 106.38 402.2 106.286 401.962 106.286H346.252C346.135 106.286 346.018 106.263 345.909 106.218C345.8 106.173 345.701 106.107 345.618 106.024C345.535 105.941 345.469 105.842 345.424 105.733C345.379 105.625 345.355 105.508 345.355 105.391V58.1682C345.355 57.9308 345.45 57.7031 345.618 57.5352C345.786 57.3673 346.015 57.2729 346.252 57.2729H523.676C523.914 57.2729 524.142 57.3673 524.311 57.5352C524.479 57.7031 524.573 57.9308 524.573 58.1682V105.321C524.573 105.558 524.479 105.786 524.311 105.954C524.142 106.122 523.914 106.216 523.676 106.216H467.913C467.675 106.216 467.447 106.31 467.278 106.478C467.11 106.646 467.016 106.874 467.016 107.111V310.077C467.016 310.314 466.921 310.542 466.753 310.71C466.585 310.878 466.356 310.972 466.119 310.972H403.756C403.518 310.972 403.29 310.878 403.121 310.71C402.953 310.542 402.859 310.314 402.859 310.077Z" fill="white"/>
<path d="M115.241 95.7377C113.66 98.2237 112.064 101.366 110.452 105.165C106.661 114.094 106.7 126.122 108.712 135.199C109.082 136.865 110.148 140.339 111.911 145.623C112.275 146.723 111.911 147.639 110.818 148.371C99.7838 155.725 89.6331 164.075 80.3664 173.422C80.2748 173.515 80.1638 173.586 80.0414 173.631C79.9189 173.675 79.7881 173.692 79.6583 173.68C79.5284 173.669 79.4029 173.628 79.2906 173.562C79.1784 173.496 79.0823 173.406 79.0092 173.298C78.3955 172.395 77.8911 171.502 77.4959 170.62C73.2422 161.102 70.9229 151.005 70.5381 140.329C70.4133 136.896 70.8345 132.98 71.1465 130.294C71.9318 123.475 74.069 116.741 77.5583 110.093C80.9644 103.595 85.3221 97.9538 90.6315 93.1687C91.2035 92.6549 92.1317 92.3721 93.4162 92.3202C99.4743 92.0918 105.647 92.5381 111.934 93.6592C113.556 93.9446 114.633 94.3754 115.163 94.9514C115.262 95.0554 115.323 95.189 115.337 95.3313C115.351 95.4736 115.317 95.6165 115.241 95.7377Z" fill="white"/>
<path d="M161.277 119.972C161.311 120.069 161.306 120.175 161.264 120.269C161.222 120.363 161.146 120.438 161.051 120.478C149.673 125.138 138.576 130.645 127.759 136.997C127.66 137.056 127.55 137.093 127.436 137.107C127.321 137.121 127.205 137.11 127.095 137.076C126.985 137.043 126.883 136.986 126.796 136.911C126.709 136.836 126.638 136.743 126.589 136.639C125.763 134.932 125.196 133.089 124.889 131.112C124.057 125.766 124.174 120.265 125.24 114.608C126.062 110.238 128.017 106.162 131.106 102.378C131.901 101.408 132.928 101.273 134.187 101.973C143.349 107.054 152.109 112.703 160.466 118.921C160.866 119.222 161.137 119.572 161.277 119.972Z" fill="white"/>
<path d="M44.32 108.544C44.6632 109.408 44.2888 110.358 44.2576 111.432C44.0028 120.888 43.9664 129.461 44.1484 137.153C44.1588 137.62 44.1848 137.874 44.2264 137.916C44.3618 138.043 44.5252 138.136 44.7034 138.188C44.8817 138.241 45.0699 138.251 45.2532 138.217C45.4365 138.184 45.6097 138.108 45.7592 137.997C45.9086 137.885 46.0302 137.74 46.1141 137.573C47.9159 134 51.6054 125.982 55.3418 121.202C55.3661 121.168 55.4015 121.144 55.4419 121.133C55.4823 121.122 55.5251 121.126 55.563 121.144C55.6009 121.161 55.6315 121.191 55.6494 121.229C55.6674 121.267 55.6717 121.309 55.6616 121.35C55.6564 121.386 55.1831 124.355 54.2419 130.256C53.7895 133.11 53.5763 135.692 53.6023 138.001C53.6543 142.174 53.7531 144.764 53.8987 145.771C54.5461 150.294 54.8035 153.657 55.6772 157.549C56.972 163.32 58.5996 168.72 60.5601 173.749C62.1513 177.813 64.2496 181.534 66.0359 185.364C66.6807 186.745 66.5091 187.998 65.521 189.124C57.5076 198.258 50.971 208.353 45.9113 219.407C45.8813 219.473 45.831 219.528 45.7677 219.563C45.7045 219.599 45.6317 219.613 45.5605 219.604C45.4893 219.596 45.4234 219.564 45.3727 219.514C45.322 219.465 45.2893 219.4 45.2795 219.329C45.0819 218.141 44.9727 216.893 44.9519 215.585C44.6866 197.119 44.7906 175.283 45.2639 150.076C45.3107 147.512 45.1937 145.109 44.9129 142.867C44.8979 142.738 44.8408 142.617 44.7505 142.524C44.6601 142.431 44.5415 142.37 44.4129 142.35C44.2843 142.331 44.1528 142.354 44.0388 142.416C43.9247 142.479 43.8344 142.577 43.7818 142.696C42.0294 146.557 40.6539 150.447 39.6555 154.365C37.5338 162.656 35.5994 172.348 35.5292 181.153C35.4096 195.368 37.8328 208.968 42.799 221.953C42.9183 222.263 43.0046 222.587 43.0564 222.918C43.6648 226.816 43.9742 230.885 43.9846 235.125C44.0106 246.428 44.0444 253.829 44.086 257.327C44.0862 257.391 44.0714 257.455 44.0427 257.512C44.014 257.57 43.9722 257.62 43.9207 257.658C43.8691 257.697 43.8093 257.723 43.7459 257.734C43.6826 257.746 43.6174 257.742 43.5556 257.724C43.3528 257.662 43.163 257.503 42.9862 257.249C40.4329 253.549 37.6924 248.943 34.7648 243.431C26.5433 227.963 21.364 211.879 20.4591 195.492C20.3187 192.944 20.1887 191.177 20.0691 190.191C19.8195 188.136 19.7103 186.368 19.7415 184.889C19.8819 177.722 20.2069 171.821 20.7166 167.187C21.3978 160.964 22.7524 154.536 24.7805 147.904C29.081 133.85 35.5162 120.719 44.086 108.513C44.0999 108.493 44.1191 108.477 44.1414 108.467C44.1638 108.457 44.1884 108.454 44.2126 108.457C44.2368 108.46 44.2596 108.47 44.2786 108.485C44.2975 108.5 44.3119 108.521 44.32 108.544Z" fill="white"/>
<path d="M1362.26 226.74C1362.26 226.803 1362.23 226.862 1362.19 226.906C1362.14 226.949 1362.08 226.974 1362.02 226.974H1266.41C1266.23 226.973 1266.06 227.037 1265.94 227.154C1265.81 227.271 1265.73 227.432 1265.71 227.604C1265.15 234.354 1266.38 241.142 1267.85 247.658C1270.21 258.152 1276.78 268.568 1288.55 269.603C1305.2 271.067 1316.03 261.375 1321.15 246.506C1321.2 246.35 1321.29 246.206 1321.4 246.083C1321.5 245.96 1321.64 245.86 1321.79 245.789C1321.94 245.718 1322.1 245.677 1322.26 245.669C1322.43 245.661 1322.59 245.686 1322.75 245.743L1359.18 259.094C1359.33 259.147 1359.46 259.229 1359.58 259.336C1359.69 259.443 1359.78 259.571 1359.84 259.714C1359.91 259.856 1359.94 260.01 1359.94 260.166C1359.94 260.321 1359.91 260.476 1359.85 260.62C1356.74 268.114 1352.59 275.068 1347.41 281.483C1336.02 295.605 1319.56 304.627 1301.55 307.134C1296.76 307.798 1290.89 308.071 1283.93 307.951C1261.45 307.554 1241.5 297.59 1227.69 280.027C1222.51 273.446 1218.31 265.677 1215.08 256.719C1212.48 249.5 1210.58 241.869 1209.39 233.824C1208.33 226.626 1207.82 219.723 1207.86 213.117C1207.91 204.569 1208.84 195.897 1210.64 187.1C1214.5 168.331 1223.46 150.091 1237.69 137.861C1247.36 129.552 1258.92 124.245 1272.36 121.941C1273.94 121.671 1277.72 121.285 1283.71 120.781C1288.69 120.366 1294.6 120.675 1301.44 121.708C1330.89 126.16 1349.83 148.285 1357.45 175.929C1359.1 181.918 1360.29 187.341 1361.02 192.199C1362.66 203.253 1362.49 214.977 1362.26 226.74ZM1308.33 193.507C1308.52 193.507 1308.71 193.44 1308.85 193.317C1309 193.194 1309.09 193.024 1309.12 192.837C1309.35 191.41 1309.42 189.861 1309.34 188.19C1308.8 177.011 1306.61 160.445 1293.26 157.354C1286.02 155.68 1277.19 157.167 1272.9 163.745C1271.18 166.398 1270.04 168.455 1269.49 169.919C1267.29 175.778 1265.96 182.26 1265.5 189.365C1265.42 190.58 1265.5 191.568 1265.74 192.331C1265.84 192.672 1266.05 192.969 1266.34 193.181C1266.63 193.392 1266.98 193.506 1267.33 193.507H1308.33Z" fill="white"/>
<path d="M218.375 156.194C218.313 156.251 218.239 156.293 218.159 156.319C218.079 156.346 217.994 156.354 217.91 156.346C217.826 156.337 217.745 156.311 217.672 156.268C217.599 156.226 217.536 156.169 217.486 156.101C213.04 150.039 210.692 146.842 210.443 146.51C204.936 139.265 199.626 133.011 194.515 127.749C194.432 127.663 194.374 127.557 194.346 127.442C194.317 127.326 194.32 127.206 194.353 127.093C194.387 126.979 194.449 126.877 194.535 126.797C194.621 126.717 194.727 126.661 194.842 126.635C200.999 125.219 207.286 124.183 213.703 123.529C216.909 123.21 219.273 122.572 220.458 125.834C223.968 135.513 223.695 145.028 219.639 154.38C219.317 155.133 218.895 155.738 218.375 156.194Z" fill="white"/>
<path d="M557.428 155.805C557.23 155.789 557.108 156.01 557.061 156.467C557.055 156.522 557.067 156.577 557.096 156.625C557.125 156.672 557.169 156.708 557.221 156.728C557.272 156.748 557.329 156.749 557.382 156.733C557.436 156.717 557.482 156.683 557.514 156.638C557.675 156.404 557.807 156.106 557.911 155.743C558.4 154.99 559.04 153.737 559.83 151.983C561.401 148.505 564.411 144.691 568.863 140.539C573.273 136.418 578.644 133.224 584.978 130.956C589.741 129.254 593.436 128.205 596.062 127.811C601.257 127.032 604.642 126.513 606.218 126.254C608.626 125.87 610.805 125.717 612.755 125.795C613 125.805 613.232 125.909 613.403 126.086C613.573 126.263 613.668 126.499 613.667 126.744V182.631C613.666 182.823 613.619 183.012 613.529 183.182C613.438 183.351 613.308 183.496 613.149 183.604C612.99 183.712 612.807 183.78 612.616 183.802C612.425 183.823 612.232 183.799 612.053 183.729C603.946 180.563 595.612 179.128 587.053 179.424C578.153 179.728 571.406 180.802 564.44 185.582C561.304 187.736 559.31 190.46 558.457 193.756C558.171 194.861 558.039 198.3 558.06 204.071C558.205 239.466 558.208 274.012 558.067 307.71C558.065 308.042 557.95 308.363 557.742 308.62C557.533 308.878 557.244 309.056 556.921 309.127C556.276 309.267 555.566 309.342 554.791 309.353C536.232 309.586 518.455 309.599 501.461 309.392C501.255 309.39 501.058 309.31 500.908 309.168C500.759 309.027 500.67 308.834 500.658 308.629C500.439 304.965 500.33 301.736 500.33 298.944C500.299 224.262 500.33 168.359 500.424 131.236C500.424 131.143 500.442 131.051 500.478 130.965C500.513 130.879 500.566 130.801 500.632 130.735C500.697 130.669 500.776 130.617 500.862 130.582C500.948 130.546 501.04 130.528 501.134 130.528H555.205C555.379 130.528 555.552 130.562 555.714 130.629C555.875 130.695 556.022 130.793 556.145 130.916C556.268 131.039 556.366 131.185 556.432 131.345C556.498 131.506 556.532 131.678 556.531 131.851C556.505 139.465 556.598 146.746 556.812 153.695C556.838 154.567 557.043 155.27 557.428 155.805Z" fill="white"/>
<path d="M797.831 309.407C797.641 309.407 797.459 309.335 797.323 309.204C797.186 309.073 797.105 308.895 797.097 308.707C796.895 304.321 796.793 300.87 796.793 298.353C796.793 251.732 796.822 214.819 796.879 187.614C796.887 184.181 796.863 179.954 796.13 176.334C793.962 165.583 782.659 164.485 774.297 168.269C770.023 170.192 765.124 174.543 764.446 179.44C764.045 182.346 763.85 186.433 763.861 191.701C763.97 237.948 763.975 275.715 763.876 305.001C763.871 306.371 763.829 307.632 763.751 308.784C763.74 308.97 763.657 309.145 763.521 309.272C763.385 309.399 763.205 309.47 763.018 309.47H707.995C707.728 309.469 707.468 309.389 707.248 309.239C707.028 309.089 706.859 308.876 706.763 308.629C706.493 307.939 706.355 307.108 706.35 306.138C705.944 249.628 706.225 193.927 706.357 133.51C706.357 132.388 706.469 131.475 706.693 130.769C706.719 130.683 706.773 130.608 706.844 130.555C706.916 130.502 707.002 130.473 707.091 130.473H762.831C763.133 130.473 763.423 130.593 763.636 130.806C763.85 131.019 763.97 131.309 763.97 131.61V153.322C763.969 153.474 764.016 153.622 764.104 153.746C764.192 153.87 764.317 153.963 764.461 154.012C764.605 154.061 764.761 154.064 764.907 154.02C765.052 153.975 765.18 153.887 765.272 153.766C768.603 149.531 771.637 145.047 775.6 141.8C784.266 134.708 791.91 130.115 801.668 127.663C802.49 127.456 804.736 127.079 808.408 126.534C819.18 124.931 829.819 126.846 838.985 132.63C846.917 137.635 850.786 144.634 852.573 153.337C852.595 153.444 852.646 153.542 852.72 153.621C852.794 153.701 852.888 153.759 852.992 153.789C853.096 153.818 853.205 153.819 853.309 153.79C853.413 153.761 853.506 153.704 853.579 153.625C855.404 151.671 856.753 149.149 858.501 147.11C866.993 137.166 877.414 130.686 889.764 127.671C894.845 126.431 901.098 125.956 908.524 126.246C916.885 126.565 926.09 129.422 932.431 134.74C938.245 139.618 941.932 146.082 943.492 154.131C944.1 157.3 944.264 162.516 944.264 166.346C944.301 207.564 944.256 254.558 944.132 307.329C944.126 308.673 943.573 309.35 942.47 309.361C916.784 309.516 902.237 309.501 888.305 309.337C888.106 309.336 887.915 309.259 887.768 309.123C887.621 308.986 887.529 308.799 887.51 308.598C887.307 306.366 887.206 303.665 887.206 300.494C887.164 256.11 887.198 220.45 887.307 193.515C887.33 188.758 886.987 183.823 886.73 180.055C886.418 175.516 885.053 170.518 880.958 168.238C877.302 166.203 873.477 165.635 869.483 166.533C862.658 168.066 855.147 173.181 854.866 180.826C854.803 182.499 854.601 184.446 854.601 186.119C854.772 234.645 854.814 273.613 854.725 303.024C854.715 305.676 854.642 307.446 854.507 308.333C854.464 308.631 854.314 308.904 854.085 309.101C853.856 309.298 853.563 309.407 853.259 309.407H797.831Z" fill="white"/>
<path d="M685.569 130.497H630.437C629.709 130.497 629.119 131.086 629.119 131.812V308.185C629.119 308.911 629.709 309.501 630.437 309.501H685.569C686.297 309.501 686.888 308.911 686.888 308.185V131.812C686.888 131.086 686.297 130.497 685.569 130.497Z" fill="white"/>
<path d="M136.863 151.648C137.253 151.098 137.963 150.538 138.992 149.967C150.966 143.334 161.925 137.589 174.015 133.136C174.459 132.975 174.938 132.94 175.399 133.035C175.861 133.129 176.286 133.35 176.628 133.673C180.014 136.88 181.862 138.461 184.358 141.294C191.883 149.832 198.581 158.66 204.452 167.778C204.621 168.043 204.683 168.362 204.627 168.671C204.571 168.98 204.399 169.256 204.148 169.444C201.183 171.632 195.388 172.823 192.026 173.321C177.658 175.475 164.203 172.802 151.66 165.303C146.434 162.173 141.553 158.307 137.019 153.703C136.754 153.435 136.594 153.082 136.565 152.706C136.537 152.33 136.642 151.955 136.863 151.648Z" fill="white"/>
<path d="M342.196 186.244C341.353 187.079 340.321 187.795 339.099 188.392C336.837 189.498 328.327 194.062 313.569 202.086C297.056 211.062 281.931 218.885 269.295 225.946C268.304 226.499 266.417 226.841 265.995 227.238C265.965 227.266 265.926 227.284 265.885 227.29C265.844 227.296 265.803 227.289 265.766 227.271C265.729 227.253 265.7 227.225 265.681 227.19C265.662 227.155 265.654 227.115 265.66 227.075C265.738 226.39 266.339 225.79 266.51 225.277C269.032 217.611 270.722 211.209 271.58 206.072C274.18 190.486 274.027 174.652 271.12 158.569C270.839 157.012 270.345 154.998 269.638 152.528C268.562 148.791 267.984 146.803 267.906 146.564C267.858 146.421 267.853 146.267 267.894 146.122C267.934 145.976 268.017 145.846 268.132 145.748C268.247 145.65 268.389 145.588 268.539 145.572C268.689 145.555 268.841 145.583 268.975 145.654L342.063 185.317C342.143 185.361 342.212 185.422 342.264 185.497C342.316 185.572 342.349 185.657 342.362 185.747C342.375 185.837 342.367 185.929 342.338 186.015C342.309 186.101 342.26 186.18 342.196 186.244Z" fill="white"/>
<path d="M557.91 155.743C557.806 156.106 557.674 156.405 557.513 156.638C557.481 156.683 557.435 156.717 557.382 156.733C557.329 156.75 557.272 156.748 557.22 156.728C557.168 156.708 557.124 156.672 557.095 156.625C557.066 156.577 557.054 156.522 557.06 156.467C557.107 156.01 557.229 155.79 557.427 155.805C557.619 155.753 557.78 155.732 557.91 155.743Z" fill="#BDA9A0"/>
<path d="M226.738 218.737C226.796 219.079 226.751 219.429 226.61 219.745C226.468 220.061 226.236 220.328 225.942 220.512C213.217 228.52 199.525 232.929 184.866 233.739C174.913 234.291 165.452 233.848 155.717 231.66C130.122 225.91 108.536 212.743 90.9594 192.16C90.2886 191.376 89.6801 190.543 89.1341 189.661C88.9888 189.429 88.9244 189.155 88.9513 188.883C88.9781 188.611 89.0945 188.356 89.2823 188.159C92.3348 184.925 95.9281 181.57 100.062 178.093C106.438 172.732 112.704 167.703 118.861 163.006C120.738 161.574 122.418 161.732 123.9 163.481C125.218 165.03 126.216 166.494 127.714 167.731C131.333 170.729 134.321 173.749 138.088 176.357C150.054 184.65 163.215 189.368 177.573 190.51C184.12 191.029 190.134 190.733 195.615 189.622C201.59 188.413 207.292 186.467 212.721 183.784C212.986 183.65 213.293 183.627 213.575 183.719C213.857 183.811 214.091 184.01 214.226 184.274C218.574 192.77 222.258 202.106 225.279 212.284C225.846 214.189 226.332 216.34 226.738 218.737Z" fill="white"/>
<path d="M77.7049 201.634C77.5177 201.774 77.5073 201.946 77.6737 202.148C94.9278 222.565 116.23 236.775 141.581 244.778C149.152 247.165 156.017 248.699 162.174 249.379C163.536 249.529 165.634 249.778 168.468 250.126C171.193 250.458 173.294 250.616 174.771 250.601C179.24 250.546 183.164 250.826 187.68 250.173C191.729 249.581 196.417 249.262 201.378 248.141C210.894 245.984 220.067 242.8 228.351 238.277C228.453 238.222 228.568 238.194 228.685 238.197C228.801 238.199 228.915 238.232 229.015 238.291C229.115 238.351 229.198 238.436 229.255 238.537C229.312 238.638 229.342 238.753 229.341 238.869V241.127C229.341 241.187 229.326 241.246 229.298 241.299C229.269 241.352 229.228 241.397 229.178 241.43C228.891 241.622 228.865 241.96 229.099 242.442C229.256 242.769 229.248 243.086 229.076 243.392C228.525 244.383 228.403 245.551 228.709 246.895C228.733 247.007 228.729 247.123 228.696 247.232C228.663 247.34 228.603 247.439 228.522 247.518C228.189 247.835 228.205 247.998 228.569 248.008C228.605 248.009 228.642 247.998 228.678 247.977L264.177 228.819C264.21 228.801 264.246 228.792 264.283 228.792C264.32 228.792 264.356 228.801 264.388 228.818C264.42 228.835 264.446 228.86 264.465 228.89C264.485 228.92 264.495 228.955 264.497 228.99C264.583 230.243 263.748 232.205 262.742 234.424C258.228 244.331 253.236 252.845 247.765 259.966C242.597 266.697 236.934 272.837 230.777 278.385C228.899 280.082 226.078 282.334 222.313 285.142C213.353 291.832 203.718 297.195 193.406 301.233C181.804 305.774 169.859 308.595 157.571 309.695C153.957 310.017 146.329 310.046 134.686 309.781C134.349 309.771 134.011 309.724 133.679 309.641C132.286 309.283 130.876 309.059 129.452 308.971C126.753 308.808 123.492 308.208 120.575 307.562C120.463 307.537 120.361 307.479 120.283 307.394C120.205 307.31 120.155 307.203 120.14 307.09C120.124 306.976 120.144 306.86 120.197 306.758C120.25 306.656 120.333 306.573 120.435 306.519L143.016 294.328C143.09 294.287 143.148 294.223 143.181 294.146C143.213 294.068 143.219 293.982 143.196 293.901C143.174 293.82 143.124 293.749 143.056 293.699C142.988 293.649 142.905 293.624 142.821 293.627C140.029 293.752 136.113 293.705 133.071 292.958C131.815 292.646 130.115 292.678 128.032 292.335C110.357 289.45 94.2648 282.557 79.7564 271.659C71.0305 265.104 63.6515 257.698 57.6194 249.441C56.5741 248.003 56.1139 246.272 56.2387 244.248C56.4961 240.192 57.1669 235.919 58.5632 231.972C60.456 226.631 62.6817 221.872 65.2402 217.694C68.3343 212.629 72.0576 207.315 76.4101 201.751L77.7049 201.634ZM146.246 292.382C146.116 292.453 146.012 292.564 145.949 292.699C145.886 292.833 145.867 292.984 145.896 293.128C145.925 293.273 146 293.404 146.109 293.502C146.218 293.601 146.356 293.661 146.503 293.674C150.689 294.094 154.878 294.006 159.069 293.409C162.267 292.958 168.281 292.265 172.829 291.09C187.379 287.332 200.553 281.128 212.352 272.476C218.101 268.249 222.953 264.465 225.34 258.549C226.437 255.83 227.355 253.069 228.093 250.266C228.148 250.063 228.141 249.849 228.075 249.65C228.009 249.451 227.885 249.275 227.72 249.145C227.555 249.015 227.355 248.936 227.146 248.918C226.936 248.9 226.726 248.944 226.541 249.044L146.246 292.382Z" fill="white"/>
<path d="M44.8828 260.254C44.8836 260.19 44.905 260.129 44.9437 260.078C44.9824 260.028 45.0365 259.991 45.0978 259.973C45.1591 259.956 45.2244 259.959 45.284 259.981C45.3437 260.004 45.3945 260.045 45.4288 260.098C46.8017 262.356 48.3253 264.445 49.9998 266.365C67.5347 286.471 89.4299 299.91 115.685 306.683C116.257 306.828 116.809 307.093 117.339 307.477C117.395 307.516 117.44 307.569 117.47 307.631C117.5 307.693 117.514 307.761 117.51 307.83C117.506 307.898 117.484 307.965 117.448 308.023C117.411 308.081 117.36 308.129 117.3 308.162L45.7018 346.798C45.6177 346.843 45.5231 346.867 45.4272 346.865C45.3314 346.863 45.2376 346.837 45.155 346.788C45.0725 346.74 45.004 346.671 44.9563 346.588C44.9086 346.505 44.8833 346.411 44.8828 346.315V260.254Z" fill="white"/>
</svg>
