<svg width="1000" height="243" viewBox="0 0 1000 243" fill="none" xmlns="http://www.w3.org/2000/svg">
<path d="M205.569 236.85C205.569 237.001 205.509 237.146 205.402 237.253C205.295 237.36 205.15 237.42 204.999 237.42H164.379C164.098 237.42 163.821 237.351 163.572 237.221C163.323 237.09 163.109 236.901 162.949 236.67L43.4493 61.3799C43.2853 61.1366 43.0476 60.9529 42.771 60.8559C42.4945 60.7589 42.1938 60.7536 41.913 60.8409C41.6322 60.9281 41.3861 61.1033 41.2108 61.3407C41.0356 61.5781 40.9404 61.8652 40.9393 62.1599V236.88C40.9393 237.02 40.8835 237.155 40.7841 237.255C40.6847 237.354 40.5499 237.41 40.4093 237.41H3.5893C3.50708 237.41 3.42823 237.377 3.37009 237.319C3.31196 237.261 3.2793 237.182 3.2793 237.1V3.78992C3.2793 3.7077 3.31196 3.62885 3.37009 3.57071C3.42823 3.51258 3.50708 3.47992 3.5893 3.47992C19.3493 3.55325 32.986 3.54325 44.4993 3.44992C46.3193 3.42992 47.1193 4.84992 48.3993 6.73992C94.7526 74.9999 133.623 132.483 165.009 179.19C165.576 180.03 166.273 180.61 167.099 180.93C167.207 180.972 167.323 180.988 167.438 180.975C167.553 180.962 167.663 180.921 167.759 180.856C167.854 180.791 167.933 180.704 167.987 180.602C168.041 180.499 168.069 180.386 168.069 180.27V4.28992C168.069 4.08039 168.153 3.87946 168.301 3.7313C168.449 3.58315 168.65 3.49992 168.859 3.49992H204.909C205.084 3.49992 205.252 3.56945 205.376 3.69323C205.5 3.817 205.569 3.98487 205.569 4.15992V236.85Z" fill="#A7A7A7"/>
<path d="M764.19 3.50001C764.263 3.50077 764.335 3.51885 764.399 3.55274C764.464 3.58664 764.519 3.63538 764.561 3.69495C764.603 3.75452 764.63 3.82322 764.641 3.89538C764.651 3.96754 764.644 4.04111 764.62 4.11001L678.13 236.68C678.039 236.924 677.876 237.133 677.663 237.282C677.451 237.43 677.198 237.51 676.94 237.51H633.65C633.477 237.51 633.308 237.456 633.166 237.355C633.025 237.255 632.918 237.113 632.86 236.95L548.35 3.97001C548.331 3.9184 548.324 3.86284 548.331 3.8081C548.338 3.75337 548.358 3.70111 548.389 3.65584C548.421 3.61056 548.463 3.57363 548.512 3.54822C548.56 3.52282 548.615 3.5097 548.67 3.51001H587.95C588.128 3.50989 588.302 3.56471 588.447 3.66684C588.593 3.76898 588.702 3.91337 588.76 4.08001L654.98 193.16C655.059 193.392 655.209 193.594 655.408 193.737C655.607 193.88 655.846 193.958 656.091 193.959C656.337 193.96 656.576 193.885 656.777 193.743C656.977 193.602 657.129 193.401 657.21 193.17L724.68 4.12001C724.744 3.93817 724.864 3.78082 725.021 3.66974C725.179 3.55866 725.367 3.49934 725.56 3.50001H764.19Z" fill="white"/>
<path d="M991.861 105.39C991.872 105.456 991.87 105.524 991.852 105.588C991.835 105.653 991.804 105.713 991.761 105.765C991.718 105.816 991.665 105.857 991.604 105.886C991.544 105.915 991.478 105.93 991.411 105.93H955.871C955.723 105.931 955.58 105.877 955.47 105.778C955.361 105.68 955.293 105.545 955.281 105.4C954.151 92.16 948.361 81.7 935.271 77.01C920.391 71.67 905.501 71.4667 890.601 76.4C880.671 79.68 873.591 87.92 874.401 98.8C875.521 113.61 890.261 118.72 902.491 121.72C920.357 126.113 937.871 130.36 955.031 134.46C976.341 139.55 995.171 155.25 997.291 178.61C998.917 196.543 992.991 211.32 979.511 222.94C972.237 229.207 963.707 233.763 953.921 236.61C928.954 243.87 904.001 244.043 879.061 237.13C849.921 229.05 830.071 206.09 830.311 175.04C830.313 174.97 830.343 174.904 830.393 174.856C830.444 174.807 830.511 174.78 830.581 174.78H866.021C866.193 174.78 866.358 174.849 866.48 174.97C866.602 175.092 866.671 175.258 866.671 175.43C866.684 190.243 873.184 201.14 886.171 208.12C903.641 217.51 944.481 219.11 957.181 199.71C960.401 194.783 961.684 189.23 961.031 183.05C959.461 168.25 946.501 164.45 934.391 160.98C929.997 159.727 925.871 158.663 922.011 157.79C903.677 153.65 888.701 150.027 877.081 146.92C865.701 143.87 853.621 137.06 846.191 127.33C838.651 117.43 836.771 104.5 838.571 92.26C842.141 67.9 864.821 53.44 886.991 48.51C910.064 43.3767 932.157 44.77 953.271 52.69C972.841 60.04 991.021 78.21 991.421 100.12C991.461 102 991.607 103.757 991.861 105.39Z" fill="white"/>
<path d="M400.34 237.03C400.36 237.08 400.367 237.134 400.36 237.188C400.354 237.242 400.335 237.293 400.304 237.337C400.274 237.382 400.233 237.418 400.185 237.443C400.137 237.468 400.084 237.48 400.03 237.48H363.9C363.585 237.48 363.278 237.382 363.021 237.199C362.765 237.016 362.572 236.758 362.47 236.46C331.53 147.227 314.667 98.61 311.88 90.61C311.8 90.3767 311.697 90.2233 311.57 90.15C311.476 90.0976 311.372 90.0668 311.264 90.0601C311.157 90.0534 311.049 90.0708 310.949 90.1111C310.85 90.1514 310.76 90.2135 310.688 90.2929C310.615 90.3723 310.561 90.467 310.53 90.57C309.457 94.13 307.887 98.8 305.82 104.58C291.84 143.713 276.187 187.863 258.86 237.03C258.807 237.174 258.711 237.299 258.586 237.386C258.461 237.474 258.312 237.521 258.16 237.52H222.54C222.446 237.519 222.353 237.496 222.27 237.452C222.186 237.408 222.115 237.344 222.061 237.267C222.007 237.19 221.972 237.101 221.96 237.007C221.948 236.914 221.958 236.819 221.99 236.73L291.07 50.98C291.15 50.7657 291.293 50.5809 291.481 50.4504C291.668 50.3199 291.891 50.25 292.12 50.25H331.7C331.961 50.2505 332.215 50.3311 332.43 50.4813C332.644 50.6314 332.808 50.8438 332.9 51.09L400.34 237.03Z" fill="#A7A7A7"/>
<path d="M371.88 50.8001C371.86 50.7499 371.853 50.6956 371.86 50.642C371.866 50.5885 371.885 50.5373 371.916 50.4929C371.946 50.4485 371.987 50.4122 372.035 50.3873C372.083 50.3625 372.136 50.3497 372.19 50.3501L408.29 50.3601C408.604 50.359 408.91 50.4557 409.166 50.6367C409.423 50.8177 409.616 51.074 409.72 51.3701C440.62 140.523 457.46 189.097 460.24 197.09C460.32 197.323 460.423 197.477 460.55 197.55C460.644 197.603 460.748 197.633 460.856 197.64C460.963 197.647 461.071 197.629 461.171 197.589C461.27 197.549 461.36 197.487 461.432 197.407C461.505 197.328 461.559 197.233 461.59 197.13C462.663 193.577 464.233 188.913 466.3 183.14C480.267 144.047 495.91 99.9401 513.23 50.8201C513.283 50.6758 513.379 50.5514 513.504 50.4637C513.63 50.3761 513.778 50.3294 513.93 50.3301H549.51C549.604 50.3309 549.697 50.3543 549.78 50.3983C549.864 50.4423 549.935 50.5056 549.989 50.583C550.043 50.6603 550.078 50.7495 550.09 50.8429C550.102 50.9364 550.092 51.0314 550.06 51.1201L481.03 236.69C480.95 236.904 480.807 237.089 480.619 237.22C480.432 237.35 480.209 237.42 479.98 237.42L440.43 237.41C440.17 237.408 439.916 237.326 439.704 237.176C439.491 237.026 439.329 236.814 439.24 236.57L371.88 50.8001Z" fill="#A7A7A7"/>
<path d="M804.33 50.2002H769.17C768.839 50.2002 768.57 50.4688 768.57 50.8002V236.84C768.57 237.172 768.839 237.44 769.17 237.44H804.33C804.662 237.44 804.93 237.172 804.93 236.84V50.8002C804.93 50.4688 804.662 50.2002 804.33 50.2002Z" fill="white"/>
</svg>
