<svg xmlns="http://www.w3.org/2000/svg" width="120.39" height="119.22" viewBox="0 0 120.39 119.22"><g id="Layer_2" data-name="Layer 2"><g id="Layer_3" data-name="Layer 3"><path d="M117.08,119.22H2.14A2.14,2.14,0,0,1,0,117.08V2.14A2.14,2.14,0,0,1,2.14,0H20.89a2.14,2.14,0,1,1,0,4.28H4.28V114.94H114.94V99.79a2.14,2.14,0,0,1,4.28,0v17.29A2.13,2.13,0,0,1,117.08,119.22Z" style="fill:#e55942"></path><path d="M10.76,23.52H3.26a2.14,2.14,0,1,1,0-4.28h7.5a2.14,2.14,0,1,1,0,4.28Z" style="fill:#e55942"></path><path d="M10.76,42.3H3.26a2.14,2.14,0,1,1,0-4.28h7.5a2.14,2.14,0,1,1,0,4.28Z" style="fill:#e55942"></path><path d="M10.66,61.09H3.35a2.15,2.15,0,0,1,0-4.29h7.31a2.15,2.15,0,0,1,0,4.29Z" style="fill:#e55942"></path><path d="M10.76,79.87H3.26a2.15,2.15,0,0,1,0-4.29h7.5a2.15,2.15,0,0,1,0,4.29Z" style="fill:#e55942"></path><path d="M10.76,98.65H3.26a2.14,2.14,0,0,1,0-4.28h7.5a2.14,2.14,0,0,1,0,4.28Z" style="fill:#e55942"></path><path d="M23,117.26a2.14,2.14,0,0,1-2.14-2.14v-7.5a2.14,2.14,0,0,1,4.28,0v7.5A2.14,2.14,0,0,1,23,117.26Z" style="fill:#e55942"></path><path d="M41.82,117.26a2.14,2.14,0,0,1-2.14-2.14v-7.5a2.14,2.14,0,0,1,4.28,0v7.5A2.14,2.14,0,0,1,41.82,117.26Z" style="fill:#e55942"></path><path d="M60.6,117.16A2.14,2.14,0,0,1,58.46,115v-7.31a2.15,2.15,0,0,1,4.29,0V115A2.14,2.14,0,0,1,60.6,117.16Z" style="fill:#e55942"></path><path d="M79.39,117.26a2.14,2.14,0,0,1-2.15-2.14v-7.5a2.15,2.15,0,0,1,4.29,0v7.5A2.14,2.14,0,0,1,79.39,117.26Z" style="fill:#e55942"></path><path d="M98.17,117.26A2.14,2.14,0,0,1,96,115.12v-7.5a2.14,2.14,0,0,1,4.28,0v7.5A2.14,2.14,0,0,1,98.17,117.26Z" style="fill:#e55942"></path><path d="M98.17,99.84H23a2.14,2.14,0,0,1-2.14-2.14V41.35A2.14,2.14,0,0,1,23,39.2H71.27a2.15,2.15,0,0,1,0,4.29H25.18V95.56H96V42.47a2.15,2.15,0,0,1,4.29,0V97.7A2.14,2.14,0,0,1,98.17,99.84Z" style="fill:#e55942"></path><path d="M23,43.49a2.15,2.15,0,0,1-1.53-3.64L59.07,1.14a2.14,2.14,0,0,1,3.07,0L86.73,26.48a2.14,2.14,0,0,1-3.08,3L60.6,5.71l-36,37.13A2.15,2.15,0,0,1,23,43.49Z" style="fill:#e55942"></path><path d="M59.35,69.81a2.14,2.14,0,0,1-2-3l10.86-24a2,2,0,0,1,.44-.64L103.53,7.73a2.12,2.12,0,0,1,1.5-.62h0a2.16,2.16,0,0,1,1.52.63L119.77,21.1a2.13,2.13,0,0,1,.62,1.51,2.1,2.1,0,0,1-.64,1.51L84.93,58.59a2.4,2.4,0,0,1-.65.44L60.22,69.63A2.22,2.22,0,0,1,59.35,69.81ZM72,45,63.62,63.45l18.57-8.18,33-32.68L105,12.28Z" style="fill:#e55942"></path></g></g></svg>