<svg width="518" height="526" viewBox="0 0 518 526" fill="none" xmlns="http://www.w3.org/2000/svg">
<g clip-path="url(#clip0_198_3054)">
<path d="M11.2685 260.71C11.2748 260.601 11.2541 260.493 11.2082 260.394C11.1623 260.295 11.0927 260.209 11.0056 260.144C10.9184 260.078 10.8165 260.036 10.7088 260.019C10.6011 260.003 10.4911 260.013 10.3885 260.05C7.72847 260.99 5.01847 260.86 2.25847 259.66C1.92577 259.52 1.65999 259.25 1.51847 258.91C1.05847 257.81 1.0018 256.64 1.34847 255.4C4.70847 243.52 7.31847 230.18 10.8285 218.6C23.9018 175.447 47.0751 138.36 80.3485 107.34C83.6351 104.28 88.5585 99.9666 95.1185 94.3999C127.432 67.0066 164.368 49.8333 205.928 42.8799C207.815 42.5666 210.888 42.2399 215.148 41.8999C231.988 40.5599 246.668 38.0399 262.878 39.6999C277.178 41.1699 291.758 43.6699 306.428 47.8799C313.695 49.9666 319.905 51.8199 325.058 53.4399C327.872 54.3266 330.842 55.4466 333.968 56.7999C376.978 75.3499 413.818 106.27 438.658 145.53C446.465 157.877 453.615 170.977 460.108 184.83C467.418 200.42 471.808 216.59 476.018 233.68C480.918 253.59 481.758 274.55 480.378 295.22C480.372 295.315 480.386 295.411 480.421 295.5C480.456 295.589 480.51 295.67 480.581 295.735C480.651 295.8 480.734 295.849 480.826 295.877C480.917 295.906 481.014 295.914 481.108 295.9C485.338 295.32 486.498 294.86 489.858 296.64C490.006 296.72 490.133 296.836 490.227 296.977C490.321 297.118 490.38 297.28 490.398 297.45C490.532 298.85 490.492 299.953 490.278 300.76C488.648 306.99 487.138 312.15 485.408 319.79C474.915 366.323 452.958 406.653 419.538 440.78C413.558 446.887 405.092 454.497 394.138 463.61C368.585 484.87 339.662 499.943 307.368 508.83C298.615 511.237 291.002 512.733 284.528 513.32C278.168 513.887 274.818 514.2 274.478 514.26C269.918 515.013 266.585 515.407 264.478 515.44C264.138 515.447 258.148 515.917 246.508 516.85C241.215 517.27 234.808 517.047 227.288 516.18C217.282 515.027 208.298 513.603 200.338 511.91C192.858 510.317 181.075 507.047 164.988 502.1C163.335 501.593 160.988 500.683 157.948 499.37C111.688 479.337 75.4118 447.68 49.1185 404.4C45.7785 398.9 41.7785 391.653 37.1185 382.66C30.3451 369.573 24.7918 355.69 20.4585 341.01C12.7585 314.923 9.69514 288.157 11.2685 260.71ZM196.448 46.4499C194.975 46.7633 193.512 47.0633 192.058 47.3499C189.518 47.8499 186.142 48.8533 181.928 50.3599C181.854 50.3923 181.794 50.4502 181.758 50.5231C181.723 50.5961 181.715 50.6793 181.735 50.7577C181.756 50.8362 181.804 50.9047 181.87 50.9509C181.937 50.9972 182.018 51.0181 182.098 51.0099C185.518 50.4599 190.578 49.0699 196.718 47.7599C202.868 46.4599 208.058 45.6699 211.408 44.7899C211.493 44.7712 211.568 44.7206 211.617 44.6486C211.665 44.5766 211.685 44.4887 211.671 44.4029C211.656 44.3171 211.61 44.24 211.541 44.1874C211.472 44.1347 211.385 44.1106 211.298 44.1199C206.838 44.4599 203.345 44.9166 200.818 45.4899C199.378 45.8233 197.922 46.1433 196.448 46.4499ZM445.388 272.95C442.928 272.883 440.532 272.26 438.198 271.08C437.864 270.91 437.589 270.641 437.41 270.311C437.231 269.98 437.158 269.603 437.198 269.23C438.758 254.81 438.228 238.78 434.648 224.09C427.262 193.763 413.165 166.7 392.358 142.9C387.732 137.607 381.318 131.123 373.118 123.45C369.598 120.157 366.085 117.327 362.578 114.96C355.652 110.293 350.695 106.92 347.708 104.84C344.268 102.44 338.875 99.4866 331.528 95.9799C321.022 90.9533 308.758 86.4833 294.738 82.5699C278.418 78.0099 259.995 75.6366 239.468 75.4499C229.518 75.3499 217.608 77.0799 208.758 78.5199C200.745 79.8133 192.515 82.0233 184.068 85.1499C169.878 90.3999 159.628 93.6299 149.158 100.17C144.425 103.13 136.762 108.127 126.168 115.16C116.198 121.78 109.998 128.42 99.9985 137.99C94.1318 143.597 88.4718 150.527 83.0185 158.78C78.1385 166.167 74.2585 172.283 71.3785 177.13C67.1385 184.26 64.1785 192.25 61.1485 198.6C57.4585 206.36 55.7585 212.04 53.0585 220.79C49.1185 233.53 46.8251 246.437 46.1785 259.51C45.7718 267.77 45.5918 275.39 45.6385 282.37C45.641 282.566 45.7195 282.754 45.8574 282.894C45.9954 283.034 46.1821 283.115 46.3785 283.12C48.9518 283.187 51.3851 283.853 53.6785 285.12C53.9632 285.281 54.1945 285.521 54.3438 285.81C54.4932 286.1 54.5539 286.427 54.5185 286.75C52.8185 301.79 53.5585 318.53 57.5985 334.17C66.2318 367.637 82.7751 396.777 107.228 421.59C113.255 427.703 118.512 432.69 122.998 436.55C127.428 440.37 132.588 443.33 138.068 447.16C147.775 453.94 156.848 459.033 165.288 462.44C175.948 466.74 183.852 469.677 188.998 471.25C207.178 476.81 225.845 479.893 244.998 480.5C252.818 480.753 260.068 480.507 266.748 479.76C278.838 478.42 293.008 476.25 305.658 471.68C311.312 469.633 319.022 466.68 328.788 462.82C333.742 460.867 338.298 458.57 342.458 455.93C350.025 451.143 357.698 446.153 365.478 440.96C375.288 434.42 384.558 425.07 391.758 418.02C403.198 406.84 410.518 394.73 420.518 378.62C422.565 375.327 424.188 372.157 425.388 369.11C428.788 360.47 433.038 353.13 435.778 344.48C441.568 326.27 444.908 312.06 445.558 297.25C445.745 292.997 445.925 285.14 446.098 273.68C446.101 273.491 446.028 273.308 445.895 273.171C445.762 273.035 445.58 272.955 445.388 272.95ZM121.868 113.72L122.628 114.78C122.651 114.811 122.68 114.837 122.713 114.857C122.746 114.877 122.783 114.891 122.821 114.896C122.859 114.902 122.898 114.9 122.935 114.89C122.973 114.88 123.008 114.863 123.038 114.84L125.038 113.39C127.641 111.506 130.09 109.629 131.849 108.17C133.608 106.711 134.535 105.787 134.428 105.6L134.268 105.38C134.137 105.211 132.975 105.798 131.039 107.012C129.102 108.227 126.549 109.97 123.938 111.86L121.928 113.32C121.868 113.366 121.828 113.433 121.817 113.508C121.806 113.582 121.824 113.659 121.868 113.72ZM94.0585 137.84C90.0285 142.18 85.0385 146.81 83.0785 151.6C83.0078 151.772 82.9883 151.96 83.0225 152.142C83.0567 152.325 83.143 152.494 83.271 152.628C83.3991 152.762 83.5633 152.857 83.7439 152.9C83.9245 152.943 84.1136 152.932 84.2885 152.87C84.5151 152.79 84.7585 152.597 85.0185 152.29C89.0785 147.47 92.5885 143.05 95.8685 139.52C99.1385 135.99 103.288 132.17 107.798 127.76C108.085 127.48 108.258 127.227 108.318 127C108.369 126.821 108.366 126.632 108.311 126.455C108.255 126.277 108.15 126.12 108.007 126.002C107.864 125.883 107.69 125.808 107.506 125.787C107.321 125.765 107.135 125.798 106.968 125.88C102.338 128.19 98.0885 133.51 94.0585 137.84ZM64.4185 180.26L66.2685 181.38C66.2979 181.398 66.3307 181.41 66.3648 181.415C66.399 181.42 66.4338 181.419 66.4674 181.41C66.5009 181.402 66.5324 181.387 66.5601 181.366C66.5877 181.346 66.611 181.32 66.6285 181.29L69.0485 177.26C71.8589 172.601 74.4376 168.062 76.2186 164.639C77.9997 161.215 78.8376 159.187 78.5485 159L78.4785 158.96C78.1746 158.798 76.7704 160.487 74.5735 163.659C72.3767 166.83 69.5664 171.225 66.7585 175.88L64.3285 179.9C64.3104 179.929 64.2984 179.962 64.2932 179.996C64.2879 180.03 64.2896 180.065 64.2979 180.099C64.3063 180.132 64.3213 180.164 64.342 180.192C64.3627 180.219 64.3887 180.242 64.4185 180.26ZM61.4485 187.22C61.3698 187.184 61.2805 187.18 61.1988 187.208C61.1171 187.236 61.0491 187.294 61.0085 187.37C60.1618 188.917 59.3751 190.503 58.6485 192.13C53.3751 204.003 49.1718 216.413 46.0385 229.36C45.1285 233.11 44.1585 236.73 43.5585 241.27C43.4385 242.183 43.5018 243.057 43.7485 243.89C43.7774 243.983 43.8347 244.066 43.9122 244.126C43.9898 244.187 44.0838 244.222 44.1809 244.226C44.2781 244.23 44.3735 244.204 44.4538 244.151C44.534 244.098 44.5951 244.021 44.6285 243.93C47.2418 237.197 48.9951 230.1 49.8885 222.64C50.2085 220 51.6551 215.843 54.2285 210.17C54.5418 209.477 55.2085 206.857 56.2285 202.31C56.2684 202.157 56.3152 202.003 56.3685 201.85L61.6985 187.81C61.7419 187.701 61.7411 187.58 61.6963 187.471C61.6515 187.363 61.5661 187.276 61.4585 187.23L61.4485 187.22ZM41.0885 285.24L43.0685 285.26C43.1242 285.26 43.1776 285.238 43.217 285.198C43.2563 285.159 43.2785 285.106 43.2785 285.05V284.91C43.3248 278.279 43.2456 271.917 43.0582 267.216C42.8707 262.516 42.5904 259.86 42.2785 259.83H42.2385C42.0832 259.815 41.9248 260.452 41.7723 261.704C41.6198 262.957 41.4762 264.8 41.3499 267.129C41.2235 269.457 41.1168 272.225 41.0359 275.273C40.955 278.321 40.9015 281.589 40.8785 284.89V285.03C40.8785 285.086 40.9006 285.139 40.94 285.178C40.9794 285.218 41.0328 285.24 41.0885 285.24ZM450.528 270.78L448.868 270.76C448.832 270.759 448.796 270.765 448.762 270.778C448.728 270.791 448.697 270.81 448.671 270.835C448.645 270.861 448.624 270.891 448.61 270.924C448.596 270.958 448.588 270.994 448.588 271.03V271.23C448.498 277.741 448.511 283.989 448.625 288.61C448.739 293.23 448.945 295.847 449.198 295.89H449.478C449.605 295.912 449.739 295.291 449.873 294.064C450.008 292.836 450.139 291.025 450.261 288.736C450.383 286.447 450.492 283.725 450.583 280.725C450.673 277.726 450.743 274.509 450.788 271.26V271.06C450.79 271.024 450.784 270.989 450.772 270.956C450.759 270.923 450.741 270.892 450.717 270.866C450.692 270.84 450.663 270.819 450.631 270.804C450.599 270.789 450.564 270.781 450.528 270.78ZM430.188 368.93C430.267 368.965 430.356 368.97 430.438 368.942C430.52 368.914 430.588 368.856 430.628 368.78C431.468 367.253 432.248 365.683 432.968 364.07C438.202 352.33 442.375 340.057 445.488 327.25C446.398 323.54 447.358 319.96 447.958 315.46C448.078 314.56 448.015 313.697 447.768 312.87C447.742 312.778 447.687 312.696 447.611 312.637C447.536 312.577 447.444 312.543 447.348 312.539C447.252 312.534 447.157 312.56 447.076 312.612C446.996 312.664 446.934 312.741 446.898 312.83C444.305 319.49 442.562 326.51 441.668 333.89C441.348 336.503 439.912 340.617 437.358 346.23C437.052 346.917 436.388 349.507 435.368 354C435.332 354.153 435.289 354.306 435.238 354.46L429.938 368.34C429.894 368.45 429.895 368.573 429.94 368.682C429.985 368.791 430.071 368.876 430.178 368.92L430.188 368.93ZM427.398 375.65L425.468 374.49C425.445 374.475 425.419 374.466 425.391 374.461C425.364 374.457 425.336 374.458 425.309 374.464C425.282 374.471 425.257 374.483 425.234 374.499C425.212 374.516 425.193 374.536 425.178 374.56L422.528 378.98C419.731 383.636 417.164 388.173 415.39 391.6C413.616 395.027 412.777 397.066 413.058 397.27L413.108 397.3C413.253 397.393 413.671 397.029 414.338 396.228C415.005 395.427 415.908 394.205 416.996 392.631C418.084 391.058 419.334 389.164 420.677 387.059C422.019 384.953 423.426 382.677 424.818 380.36L427.478 375.94C427.493 375.916 427.502 375.889 427.505 375.861C427.509 375.833 427.507 375.805 427.5 375.778C427.492 375.751 427.479 375.726 427.462 375.704C427.445 375.682 427.423 375.663 427.398 375.65ZM397.588 418.17C401.628 413.85 406.638 409.24 408.618 404.45C408.689 404.278 408.709 404.09 408.674 403.907C408.64 403.725 408.554 403.556 408.426 403.422C408.298 403.288 408.134 403.193 407.953 403.15C407.772 403.107 407.583 403.118 407.408 403.18C407.182 403.26 406.938 403.453 406.678 403.76C402.598 408.57 399.078 412.97 395.788 416.49C392.498 420.01 388.338 423.82 383.808 428.21C383.522 428.483 383.345 428.737 383.278 428.97C383.228 429.149 383.231 429.338 383.286 429.515C383.341 429.692 383.447 429.85 383.59 429.968C383.733 430.087 383.907 430.161 384.091 430.183C384.275 430.205 384.462 430.172 384.628 430.09C389.278 427.8 393.538 422.5 397.588 418.17ZM369.65 441.726C369.596 441.649 369.527 441.583 369.447 441.532C369.367 441.481 369.279 441.446 369.185 441.429C369.092 441.413 368.997 441.415 368.905 441.435C368.812 441.455 368.725 441.494 368.647 441.548L357.149 449.569C357.071 449.623 357.005 449.692 356.954 449.772C356.903 449.851 356.868 449.94 356.852 450.033C356.835 450.126 356.837 450.222 356.857 450.314C356.878 450.407 356.916 450.494 356.97 450.572L357.027 450.654C357.081 450.731 357.15 450.797 357.23 450.848C357.31 450.899 357.398 450.934 357.492 450.951C357.585 450.967 357.68 450.965 357.772 450.945C357.865 450.925 357.952 450.886 358.03 450.832L369.528 442.811C369.606 442.757 369.672 442.688 369.723 442.608C369.774 442.528 369.809 442.44 369.825 442.346C369.842 442.253 369.84 442.158 369.82 442.066C369.799 441.973 369.761 441.886 369.707 441.808L369.65 441.726Z" fill="#40BB37"/>
<path d="M123.78 357.97C123.877 358.047 123.998 358.088 124.122 358.086C124.247 358.084 124.366 358.04 124.462 357.96C124.557 357.88 124.621 357.77 124.645 357.648C124.668 357.526 124.649 357.399 124.59 357.29C123.916 356.157 123.503 355.077 123.35 354.05C123.324 353.868 123.35 353.682 123.424 353.513C123.498 353.345 123.617 353.2 123.769 353.097C123.92 352.994 124.097 352.935 124.28 352.929C124.462 352.922 124.642 352.968 124.8 353.06L127.52 354.63C127.69 354.728 127.888 354.767 128.083 354.742C128.278 354.717 128.46 354.628 128.6 354.49L130.59 352.49C130.758 352.324 130.958 352.194 131.178 352.108C131.398 352.022 131.633 351.982 131.869 351.99C132.105 351.998 132.337 352.055 132.551 352.157C132.764 352.258 132.954 352.402 133.11 352.58L137.04 357.08C137.513 357.619 138.106 358.034 138.77 358.29L144.14 360.32C144.337 360.395 144.551 360.413 144.757 360.37C144.962 360.328 145.151 360.227 145.3 360.08L146.88 358.49C147.104 358.268 147.374 358.098 147.672 357.993C147.969 357.888 148.286 357.85 148.6 357.883C148.914 357.915 149.217 358.017 149.487 358.181C149.756 358.345 149.986 358.566 150.16 358.83C151.11 360.26 152.36 361.79 153.5 362.86C166.54 375.06 181.143 388.157 197.31 402.15C197.391 402.222 197.489 402.274 197.594 402.302C197.699 402.329 197.81 402.331 197.916 402.308C198.022 402.284 198.121 402.236 198.205 402.167C198.29 402.098 198.356 402.01 198.4 401.91C202.04 393.557 210.56 374 223.96 343.24C225.61 339.46 228.69 333.91 230.65 329C235.25 317.45 240.09 307.68 245.43 296.54C246.543 294.207 247.726 291.51 248.98 288.45C250.43 284.89 252.04 281.97 253.87 277.75C260.523 262.31 265.52 251.43 268.86 245.11C271.04 240.99 273.116 236.317 275.09 231.09C277.003 226.03 279.88 220.02 283.72 213.06C285.28 210.22 286.11 206.87 287.55 203.92C297.436 183.813 306.763 164.433 315.53 145.78C317.15 142.333 319.383 139.323 322.23 136.75C322.602 136.411 322.94 136.032 323.24 135.62C326.76 130.76 328.41 127.21 334.67 130.01C335.976 130.597 337.98 131.047 340.68 131.36C340.96 131.395 341.227 131.496 341.459 131.656C341.691 131.817 341.881 132.03 342.012 132.279C342.143 132.528 342.211 132.805 342.21 133.086C342.21 133.366 342.141 133.642 342.01 133.89L338.94 139.77C338.827 139.985 338.794 140.233 338.845 140.471C338.896 140.708 339.029 140.92 339.22 141.07L339.25 141.09C339.342 141.159 339.448 141.208 339.56 141.233C339.672 141.258 339.788 141.259 339.901 141.235C340.013 141.212 340.118 141.164 340.209 141.096C340.301 141.028 340.376 140.94 340.43 140.84C343.256 135.64 346.21 133.713 349.29 135.06C351.856 136.18 354.45 136.867 357.07 137.12C357.387 137.15 357.691 137.258 357.955 137.436C358.219 137.614 358.434 137.856 358.581 138.138C358.727 138.421 358.8 138.736 358.793 139.054C358.786 139.373 358.699 139.684 358.54 139.96L351.93 151.41C351.835 151.571 351.774 151.75 351.75 151.938C351.726 152.125 351.739 152.316 351.79 152.5L352.62 155.54C352.697 155.822 352.661 156.12 352.52 156.37C346.773 166.69 343.35 173.073 342.25 175.52C336.996 187.22 329.746 202.883 320.5 222.51C317.406 229.077 315.296 233.43 314.17 235.57C311.48 240.68 309.53 246.64 306.55 251.5C305.13 253.813 304.1 255.923 303.46 257.83C302.833 259.703 301.39 262.937 299.13 267.53C295.62 274.64 291.82 283.86 288.14 291.18C285.83 295.78 284.63 299.1 282.6 302.34C279.63 307.07 277.97 313.35 275.21 318.23C273.38 321.47 272.65 324.82 270.67 328.77C268.07 333.93 265.55 338.51 263.58 343.55C261.36 349.24 257.18 354.42 254.23 358.96C253.21 360.533 251.856 363.467 250.17 367.76C246.996 375.853 243.91 383.13 240.91 389.59C240.79 389.856 240.703 390.131 240.65 390.41L240.13 393.43C239.957 394.44 239.665 395.423 239.26 396.36C236.45 402.8 233.56 409.66 230.37 415.37C228.07 419.48 227.03 423.64 224.84 428.56C219.646 440.2 215.67 449.06 212.91 455.14C212.842 455.29 212.74 455.421 212.612 455.524C212.484 455.627 212.333 455.699 212.172 455.733C212.01 455.767 211.843 455.763 211.683 455.72C211.523 455.678 211.374 455.599 211.25 455.49C202.303 447.523 192.066 438.51 180.54 428.45C161.88 412.18 147.91 401.07 128.92 385.58C127.693 384.587 126.193 383.253 124.42 381.58C122.673 379.927 122.583 378.173 124.15 376.32C124.264 376.187 124.35 376.033 124.405 375.866C124.459 375.699 124.479 375.524 124.466 375.349C124.452 375.174 124.403 375.004 124.323 374.848C124.243 374.692 124.133 374.553 124 374.44L119.6 370.7C119.229 370.384 118.964 369.962 118.842 369.493C118.72 369.024 118.747 368.53 118.92 368.08L119.85 365.64C119.914 365.471 119.924 365.285 119.877 365.107C119.831 364.93 119.73 364.771 119.59 364.65L113.67 359.62C112.924 358.985 112.46 358.081 112.38 357.106C112.299 356.131 112.608 355.165 113.24 354.42L113.85 353.71C114.12 353.391 114.452 353.129 114.824 352.938C115.196 352.747 115.603 352.631 116.02 352.598C116.437 352.565 116.857 352.614 117.255 352.743C117.653 352.872 118.022 353.078 118.34 353.35L123.78 357.97Z" fill="#40BB37"/>
</g>
<defs>
<clipPath id="clip0_198_3054">
<rect width="518" height="526" fill="white"/>
</clipPath>
</defs>
</svg>
