<svg xmlns="http://www.w3.org/2000/svg" width="120.48" height="118.17" viewBox="0 0 120.48 118.17"><g id="Layer_2" data-name="Layer 2"><g id="Layer_3" data-name="Layer 3"><path d="M96.86,102.11A2.14,2.14,0,0,1,94.71,100V4.28h-15V100a2.14,2.14,0,0,1-4.28,0V2.14A2.14,2.14,0,0,1,77.61,0H96.86A2.14,2.14,0,0,1,99,2.14V100A2.14,2.14,0,0,1,96.86,102.11Z" style="fill:#e55942"></path><path d="M118.33,31.46H28.89a2.15,2.15,0,1,1,0-4.29h85L95.82,4.28H77.61a2.14,2.14,0,0,1,0-4.28H96.86a2.16,2.16,0,0,1,1.68.81L120,28a2.14,2.14,0,0,1-1.68,3.47Z" style="fill:#e55942"></path><path d="M28,118.16H2.14A2.14,2.14,0,0,1,0,116V99.11A2.14,2.14,0,0,1,2.14,97H28a2.14,2.14,0,0,1,2.14,2.14V116A2.13,2.13,0,0,1,28,118.16ZM4.28,113.88H25.89V101.25H4.28Z" style="fill:#e55942"></path><path d="M53.88,118.17H28A2.14,2.14,0,0,1,25.84,116V99.12A2.14,2.14,0,0,1,28,97H53.88A2.14,2.14,0,0,1,56,99.12V116A2.14,2.14,0,0,1,53.88,118.17Zm-23.75-4.28H51.74V101.26H30.13Z" style="fill:#e55942"></path><path d="M40.83,85.48H14.94a2.14,2.14,0,0,1-2.14-2.14V66.43a2.14,2.14,0,0,1,2.14-2.14H40.83A2.14,2.14,0,0,1,43,66.43V83.34A2.14,2.14,0,0,1,40.83,85.48ZM17.08,81.2H38.69V68.57H17.08Z" style="fill:#e55942"></path><path d="M36.71,68.56H19.17a2.13,2.13,0,0,1-2.07-2.68l9.58-36.74a2.14,2.14,0,0,1,4.17.09L38.8,66a2.14,2.14,0,0,1-2.09,2.59ZM21.94,64.28H34.05L28.56,38.91Z" style="fill:#e55942"></path><path d="M104.48,118.17H68.56A2.14,2.14,0,0,1,66.42,116a20.1,20.1,0,0,1,40.2,0A2.13,2.13,0,0,1,104.48,118.17Zm-33.63-4.28H102.2a15.82,15.82,0,0,0-31.35,0Z" style="fill:#e55942"></path></g></g></svg>