<svg width="187" height="200" viewBox="0 0 187 200" fill="none" xmlns="http://www.w3.org/2000/svg">
<g clip-path="url(#clip0_266_345)">
<path d="M122.085 70.0978C122.108 70.0522 122.119 70.0013 122.117 69.95C122.114 69.8988 122.099 69.8489 122.071 69.805C122.043 69.7611 122.005 69.7248 121.959 69.6994C121.914 69.674 121.862 69.6604 121.81 69.6599H84.8219C84.7491 69.6599 84.6792 69.6888 84.6277 69.7403C84.5762 69.7918 84.5473 69.8616 84.5473 69.9344L84.5539 140.993C84.5538 141.263 84.6096 141.53 84.7176 141.778C84.8256 142.025 84.9835 142.248 85.1815 142.431C85.9465 143.144 87.4765 143.987 88.3527 144.993C91.7331 148.882 91.6154 152.163 91.6481 158.032C91.6612 160.656 91.6524 163.473 91.6219 166.483C91.6211 166.561 91.6356 166.638 91.6648 166.711C91.694 166.783 91.7372 166.848 91.792 166.904C91.8467 166.959 91.9118 167.003 91.9837 167.033C92.0555 167.063 92.1326 167.078 92.2104 167.078H155.921C156.212 167.078 156.499 167.14 156.764 167.258C157.03 167.377 157.267 167.55 157.461 167.767C157.654 167.983 157.8 168.238 157.889 168.515C157.977 168.791 158.006 169.084 157.974 169.372V169.725C157.974 169.999 157.92 170.27 157.815 170.523C157.711 170.776 157.557 171.006 157.363 171.2C157.17 171.393 156.94 171.547 156.687 171.652C156.434 171.756 156.162 171.81 155.888 171.81H35.5219C34.9618 171.81 34.4246 171.588 34.0286 171.192C33.6325 170.796 33.41 170.259 33.41 169.699V169.32C33.41 168.727 33.6449 168.159 34.063 167.739C34.4812 167.32 35.0483 167.085 35.6396 167.085H45.0877C45.2056 167.085 45.3187 167.038 45.4021 166.955C45.4855 166.871 45.5323 166.758 45.5323 166.64C45.5192 160.841 45.4974 157.076 45.4669 155.346C45.4146 152.305 45.7524 149.993 46.4804 148.412C47.605 145.963 49.3072 144.046 51.5869 142.66C51.7862 142.54 51.9511 142.371 52.0657 142.168C52.1803 141.965 52.2406 141.736 52.2408 141.503V69.9671C52.2412 69.9151 52.2222 69.8647 52.1873 69.825C52.1525 69.7854 52.1041 69.7593 52.0512 69.7514C49.9458 69.4638 47.7946 69.673 44.5189 69.7057C38.8892 69.7579 34.6785 67.503 33.4558 61.7057C33.2727 60.8386 33.2073 58.8952 33.2596 55.8756C33.3708 49.6011 37.7189 45.8429 43.7996 45.7449C44.6932 45.7274 45.7328 45.1327 46.9185 43.9606C50.6846 40.222 56.0004 35.7776 59.5508 32.405C62.1444 29.9388 64.6442 27.7536 67.0504 25.8495C67.6912 25.344 68.4496 25.2634 69.3258 25.6076C74.0378 27.4333 77.2482 28.7035 78.9569 29.4181C91.6481 34.7253 104.496 39.6272 117.174 44.954C118.46 45.4943 119.781 45.7993 121.137 45.8691C121.607 45.8952 126.943 45.8996 137.143 45.8821C142.609 45.8756 146.833 47.6861 148.487 53.2285C148.762 54.1566 148.894 56.0281 148.886 58.8429C148.866 63.3266 146.826 67.5227 142.413 69.1305C141.428 69.4921 139.861 69.6643 137.712 69.6468C134.673 69.6294 132.263 69.6599 130.48 69.7383C130.422 69.7418 130.366 69.7592 130.316 69.7889C130.267 69.8187 130.225 69.8599 130.196 69.909C130.166 69.9581 130.149 70.0135 130.146 70.0704C130.143 70.1273 130.155 70.1838 130.179 70.2351C134.146 78.5749 137.574 85.8603 140.464 92.0913C142.138 95.6991 145.27 98.5292 145.433 102.804C145.59 106.856 145.623 110.49 142.759 113.778C140.976 115.825 138.721 116.863 135.992 116.889C127.039 116.971 120.498 116.974 116.37 116.895C110.015 116.784 106.569 111.954 106.523 106.059C106.503 103.163 106.379 100.405 107.955 98.1109C109.847 95.3527 111.484 92.466 112.865 89.4508C115.764 83.1065 118.837 76.6555 122.085 70.0978ZM105.143 45.9083C105.197 45.9077 105.249 45.8887 105.291 45.8544C105.332 45.8201 105.361 45.7726 105.372 45.7198C105.382 45.667 105.375 45.6122 105.35 45.5644C105.325 45.5166 105.284 45.4788 105.235 45.4573L71.1435 31.5815C71.1073 31.5662 71.0678 31.5602 71.0287 31.5641C70.9895 31.5679 70.952 31.5816 70.9195 31.6037C70.887 31.6257 70.8605 31.6556 70.8426 31.6906C70.8246 31.7255 70.8156 31.7644 70.8165 31.8037V45.673C70.8165 45.7354 70.8413 45.7952 70.8855 45.8394C70.9296 45.8835 70.9895 45.9083 71.0519 45.9083H105.143ZM65.7362 45.9148C65.7986 45.9148 65.8585 45.89 65.9026 45.8459C65.9467 45.8018 65.9715 45.7419 65.9715 45.6795V33.7841C65.9705 33.7391 65.9566 33.6954 65.9315 33.6581C65.9064 33.6208 65.8711 33.5915 65.8298 33.5736C65.7885 33.5557 65.743 33.55 65.6986 33.5572C65.6542 33.5644 65.6128 33.5842 65.5792 33.6142L52.4696 45.503C52.4337 45.5347 52.4083 45.5766 52.3968 45.6231C52.3853 45.6696 52.3883 45.7185 52.4053 45.7633C52.4224 45.808 52.4527 45.8465 52.4922 45.8736C52.5318 45.9007 52.5786 45.9151 52.6265 45.9148H65.7362ZM143.884 55.6142C143.884 54.3089 143.365 53.0571 142.442 52.1341C141.518 51.2111 140.266 50.6926 138.96 50.6926H43.1981C41.8923 50.6926 40.64 51.2111 39.7167 52.1341C38.7933 53.0571 38.2746 54.3089 38.2746 55.6142V59.941C38.2746 61.2462 38.7933 62.4981 39.7167 63.421C40.64 64.344 41.8923 64.8625 43.1981 64.8625H138.96C140.266 64.8625 141.518 64.344 142.442 63.421C143.365 62.4981 143.884 61.2462 143.884 59.941V55.6142ZM63.1927 69.6664C63.1351 69.6673 63.0791 69.6863 63.0329 69.7208C62.9867 69.7552 62.9524 69.8033 62.9351 69.8583C62.9177 69.9132 62.9181 69.9722 62.9362 70.027C62.9543 70.0817 62.9891 70.1293 63.0358 70.1632L79.3231 81.6926C79.364 81.7211 79.412 81.7379 79.4618 81.7412C79.5116 81.7445 79.5614 81.7342 79.6058 81.7114C79.6502 81.6885 79.6875 81.654 79.7137 81.6115C79.7399 81.5691 79.7541 81.5203 79.7546 81.4704V69.941C79.7546 69.9049 79.7475 69.8692 79.7337 69.8359C79.7199 69.8026 79.6997 69.7723 79.6742 69.7468C79.6487 69.7214 79.6184 69.7011 79.5851 69.6873C79.5518 69.6735 79.5161 69.6664 79.48 69.6664H63.1927ZM57.8377 72.4638C57.7838 72.4253 57.7203 72.4024 57.6543 72.3976C57.5882 72.3929 57.5221 72.4065 57.4633 72.4369C57.4044 72.4673 57.3551 72.5134 57.3208 72.5701C57.2865 72.6267 57.2685 72.6917 57.2689 72.7579L57.125 100.359C57.1243 100.425 57.1417 100.49 57.1752 100.546C57.2087 100.603 57.257 100.649 57.315 100.68C57.373 100.711 57.4383 100.725 57.504 100.722C57.5696 100.718 57.633 100.697 57.6873 100.66L77.5446 86.9606C77.5922 86.9279 77.6312 86.8843 77.6584 86.8334C77.6856 86.7825 77.7001 86.7258 77.7008 86.6681C77.7014 86.6105 77.6881 86.5535 77.6621 86.502C77.6361 86.4505 77.598 86.406 77.5512 86.3723L57.8377 72.4638ZM116.926 92.3593C116.893 92.4298 116.878 92.5075 116.883 92.5851C116.888 92.6628 116.913 92.738 116.954 92.8037C116.996 92.8695 117.054 92.9237 117.122 92.9614C117.19 92.999 117.266 93.019 117.344 93.0194L134.697 93.0521C134.775 93.0517 134.852 93.0317 134.92 92.994C134.988 92.9563 135.045 92.9021 135.087 92.8364C135.129 92.7707 135.153 92.6955 135.158 92.6178C135.163 92.5402 135.149 92.4625 135.116 92.3919L126.478 73.7122C126.441 73.6316 126.382 73.5633 126.307 73.5154C126.232 73.4676 126.145 73.4421 126.057 73.4421C125.968 73.4421 125.881 73.4676 125.806 73.5154C125.732 73.5633 125.672 73.6316 125.635 73.7122L116.926 92.3593ZM79.31 119.307C79.3552 119.338 79.408 119.356 79.4627 119.359C79.5174 119.362 79.5719 119.35 79.6204 119.325C79.6689 119.299 79.7094 119.261 79.7377 119.214C79.7659 119.167 79.7808 119.113 79.7808 119.059V91.7906C79.7808 91.7359 79.7659 91.6821 79.7377 91.6352C79.7094 91.5883 79.6689 91.55 79.6204 91.5244C79.5719 91.4988 79.5174 91.487 79.4627 91.4901C79.408 91.4933 79.3552 91.5113 79.31 91.5423L59.9104 105.176C59.8699 105.204 59.8368 105.241 59.814 105.284C59.7911 105.327 59.7791 105.376 59.7791 105.425C59.7791 105.474 59.7911 105.522 59.814 105.565C59.8368 105.608 59.8699 105.645 59.9104 105.673L79.31 119.307ZM140.536 103.116C140.541 101.722 139.992 100.384 139.01 99.3947C138.027 98.4058 136.692 97.8474 135.298 97.8426L116.794 97.778C115.4 97.7731 114.061 98.3221 113.071 99.3042C112.082 100.286 111.524 101.621 111.519 103.015L111.505 106.884C111.5 108.277 112.05 109.616 113.032 110.605C114.014 111.594 115.35 112.152 116.744 112.157L135.248 112.222C136.642 112.226 137.981 111.677 138.97 110.695C139.959 109.713 140.518 108.379 140.523 106.985L140.536 103.116ZM57.8181 110.13C57.7636 110.093 57.6999 110.07 57.6336 110.066C57.5674 110.061 57.5012 110.075 57.4421 110.105C57.383 110.135 57.3332 110.181 57.2981 110.237C57.263 110.293 57.2438 110.358 57.2427 110.425L57.1446 138.072C57.1446 138.139 57.1629 138.204 57.1975 138.261C57.2322 138.319 57.2818 138.365 57.3412 138.396C57.4005 138.427 57.4671 138.441 57.5339 138.437C57.6007 138.433 57.6651 138.411 57.72 138.372L77.4858 124.621C77.5343 124.587 77.574 124.542 77.6014 124.49C77.6288 124.437 77.6431 124.379 77.6431 124.32C77.6431 124.261 77.6288 124.203 77.6014 124.15C77.574 124.098 77.5343 124.053 77.4858 124.019L57.8181 110.13ZM62.99 140.634C62.9525 140.66 62.9243 140.698 62.9096 140.741C62.895 140.785 62.8945 140.832 62.9084 140.875C62.9222 140.919 62.9496 140.957 62.9867 140.984C63.0237 141.011 63.0684 141.026 63.1142 141.026H79.5258C79.583 141.026 79.6379 141.003 79.6783 140.963C79.7188 140.922 79.7415 140.867 79.7415 140.81V129.444C79.7416 129.405 79.7307 129.366 79.7102 129.332C79.6897 129.298 79.6603 129.271 79.6252 129.253C79.5901 129.234 79.5507 129.226 79.5113 129.229C79.4718 129.232 79.4339 129.245 79.4015 129.268L62.99 140.634ZM50.6846 167.039L86.2669 167.104C86.3831 167.104 86.4945 167.058 86.5767 166.976C86.6588 166.894 86.705 166.783 86.705 166.666L86.7312 153.974C86.7329 152.902 86.5285 151.84 86.1296 150.849C85.7306 149.857 85.145 148.957 84.4061 148.197C83.6672 147.438 82.7895 146.835 81.8231 146.423C80.8567 146.012 79.8206 145.799 78.7739 145.797L58.2562 145.758C56.1423 145.755 54.1137 146.611 52.6165 148.14C51.1194 149.668 50.2763 151.743 50.2727 153.908L50.2465 166.601C50.2465 166.717 50.2927 166.829 50.3749 166.911C50.457 166.993 50.5684 167.039 50.6846 167.039Z" fill="#FE552E"/>
</g>
<defs>
<clipPath id="clip0_266_345">
<rect width="187" height="200" fill="white"/>
</clipPath>
</defs>
</svg>
