<svg width="512" height="522" viewBox="0 0 512 522" fill="none" xmlns="http://www.w3.org/2000/svg">
<g clip-path="url(#clip0_198_3003)">
<path d="M322.3 490.7L320.71 490.39C320.33 490.313 319.992 490.1 319.76 489.79C319.213 489.063 318.566 488.633 317.82 488.5C317.688 488.474 317.551 488.477 317.42 488.51L285.48 495.95C285.411 495.967 285.352 496.009 285.314 496.069C285.277 496.129 285.265 496.201 285.28 496.27L285.36 496.61C285.379 496.698 285.43 496.775 285.503 496.829C285.577 496.882 285.668 496.907 285.76 496.9L296.1 495.83C296.19 495.82 296.282 495.839 296.362 495.882C296.442 495.926 296.507 495.993 296.548 496.074C296.589 496.155 296.605 496.247 296.592 496.338C296.58 496.428 296.541 496.512 296.48 496.58L296.18 496.91" stroke="#EA474B" stroke-width="2"/>
<path d="M187.32 32.93C188.78 34.91 190.467 35.6466 192.38 35.14C200.814 32.8866 210.627 30.8 221.82 28.88C223.594 28.5733 226.12 27.4366 229.4 25.47" stroke="#EA474B" stroke-width="2"/>
<path d="M480.842 215.041C480.75 215.058 480.674 215.16 480.619 215.342C480.563 215.524 480.53 215.783 480.519 216.103C480.509 216.424 480.522 216.8 480.558 217.21C480.594 217.62 480.652 218.056 480.729 218.493C480.885 219.376 481.108 220.21 481.349 220.811C481.59 221.412 481.83 221.731 482.015 221.699C482.107 221.683 482.183 221.58 482.238 221.398C482.294 221.216 482.328 220.957 482.338 220.637C482.348 220.316 482.335 219.94 482.299 219.53C482.263 219.12 482.205 218.684 482.128 218.247C481.972 217.364 481.749 216.53 481.508 215.929C481.267 215.328 481.027 215.009 480.842 215.041Z" stroke="#EA474B" stroke-width="2"/>
<path d="M484.669 242.19C485.269 247.317 485.576 250.003 485.589 250.25C485.682 253.343 485.912 257.337 486.279 262.23C486.282 262.265 486.295 262.299 486.316 262.326C486.338 262.353 486.367 262.372 486.399 262.38L486.649 262.45C486.704 262.465 486.761 262.468 486.817 262.458C486.872 262.447 486.925 262.424 486.97 262.391C487.016 262.357 487.053 262.313 487.078 262.263C487.104 262.212 487.118 262.157 487.119 262.1C487.159 257.74 487.289 253.61 486.709 248.85C486.439 246.6 486.399 244.35 486.129 242.02C485.859 239.68 485.369 237.49 485.119 235.23C484.589 230.47 483.509 226.48 482.469 222.25C482.456 222.194 482.43 222.142 482.394 222.098C482.357 222.054 482.311 222.019 482.259 221.995C482.207 221.972 482.15 221.961 482.092 221.964C482.035 221.966 481.979 221.982 481.929 222.01L481.699 222.14C481.671 222.156 481.648 222.181 481.633 222.211C481.619 222.241 481.614 222.276 481.619 222.31C482.392 227.157 483.086 231.097 483.699 234.13C483.752 234.37 484.076 237.057 484.669 242.19Z" stroke="#EA474B" stroke-width="2"/>
<path d="M27.0902 302C27.0435 300.713 26.3935 296.243 25.1402 288.59C24.5469 284.95 24.0635 280.46 23.6902 275.12C23.2302 268.427 22.6535 262.39 21.9602 257.01C21.9458 256.919 21.8997 256.836 21.83 256.774C21.7604 256.713 21.6719 256.678 21.5803 256.676C21.4888 256.673 21.4002 256.703 21.3305 256.761C21.2609 256.819 21.2147 256.9 21.2002 256.99C20.7535 259.677 20.7902 262.3 21.3102 264.86C21.3766 265.179 21.4035 265.508 21.3902 265.84C21.2769 269.52 21.3835 273.06 21.7102 276.46C21.7635 277.02 21.9102 277.53 22.1502 277.99C22.2819 278.247 22.3537 278.53 22.3602 278.82C22.5102 285.11 22.7802 297.25 26.7702 302.12C26.794 302.149 26.8264 302.171 26.8629 302.181C26.8994 302.191 26.9381 302.189 26.9736 302.176C27.009 302.162 27.0393 302.138 27.0603 302.107C27.0812 302.075 27.0917 302.038 27.0902 302Z" stroke="#EA474B" stroke-width="2"/>
<path d="M183.271 486.47C184.925 487.69 186.905 488.383 189.211 488.55C189.658 488.582 190.08 488.762 190.411 489.06C191.158 489.727 192.028 490.077 193.021 490.11C193.171 490.109 193.316 490.055 193.43 489.958C193.544 489.86 193.619 489.724 193.642 489.576C193.665 489.428 193.634 489.276 193.555 489.149C193.476 489.021 193.354 488.926 193.211 488.88L190.061 488.01C189.816 487.944 189.577 487.846 189.351 487.72C187.738 486.807 185.785 486.207 183.491 485.92C183.425 485.915 183.359 485.931 183.303 485.965C183.247 486 183.203 486.052 183.178 486.114C183.154 486.175 183.15 486.243 183.166 486.307C183.183 486.371 183.22 486.428 183.271 486.47Z" stroke="#EA474B" stroke-width="2"/>
<path d="M295.949 327.31L296.579 326.24" stroke="#EA474B" stroke-width="2"/>
<path d="M294.518 323.93C294.185 323.71 293.812 323.7 293.398 323.9" stroke="#EA474B" stroke-width="2"/>
<path d="M322.3 490.7L320.71 490.39C320.33 490.313 319.992 490.1 319.76 489.79C319.213 489.063 318.566 488.633 317.82 488.5C317.688 488.474 317.551 488.477 317.42 488.51L285.48 495.95C285.411 495.967 285.352 496.009 285.314 496.069C285.277 496.129 285.265 496.201 285.28 496.27L285.36 496.61C285.379 496.698 285.43 496.775 285.503 496.829C285.577 496.882 285.668 496.907 285.76 496.9L296.1 495.83C296.19 495.82 296.282 495.839 296.362 495.882C296.442 495.926 296.507 495.993 296.548 496.074C296.589 496.155 296.605 496.247 296.592 496.338C296.58 496.428 296.541 496.512 296.48 496.58L296.18 496.91C289.29 498.03 280.27 498.53 275.47 499.01C272.05 499.35 266.47 499.9 258.73 500.66C247.75 501.74 236.03 500.44 221.36 498.23C215.833 497.397 210.106 496.263 204.18 494.83C192.393 491.99 181.596 488.853 171.79 485.42C167.143 483.793 162.023 481.607 156.43 478.86C117.89 459.933 86.9029 432.913 63.4696 397.8C59.2496 391.473 53.5329 381.61 46.3196 368.21C38.3329 353.35 31.8196 336.53 26.7796 317.75C20.4129 294.01 18.0863 269.7 19.7996 244.82C19.8073 244.714 19.7897 244.608 19.7483 244.51C19.707 244.412 19.6429 244.325 19.5613 244.256C19.4796 244.187 19.3827 244.138 19.2782 244.113C19.1737 244.087 19.0646 244.086 18.9596 244.11C15.7396 244.85 13.8596 245.09 10.4796 243.63C10.311 243.555 10.1614 243.443 10.0419 243.301C9.9224 243.159 9.83615 242.991 9.78959 242.81C9.06959 239.9 10.6496 235.9 12.0096 231.13C12.6763 228.817 13.3696 226 14.0896 222.68C24.8963 173.127 48.4629 130.58 84.7896 95.04C87.7096 92.1866 93.1696 87.31 101.17 80.41C122.46 62.05 147.78 46.2 174.25 37.28C178.536 35.8333 182.893 34.3833 187.32 32.93C188.78 34.91 190.466 35.6466 192.38 35.14C200.813 32.8866 210.626 30.8 221.82 28.88C223.593 28.5733 226.12 27.4366 229.4 25.47C239.626 24.2566 248.493 23.4766 256 23.13C262.393 22.8433 269.233 23.1666 276.52 24.1C291.886 26.06 307.71 29.5466 323.99 34.56C330.75 36.65 336.25 38.13 342.27 40.75C385.536 59.5233 420.106 88.5166 445.98 127.73C449.94 133.73 455.04 142.557 461.28 154.21C478.4 186.18 488.28 222.33 489.07 258.43C489.256 266.923 489.176 273.91 488.83 279.39C488.824 279.47 488.837 279.551 488.866 279.626C488.896 279.701 488.942 279.767 489.001 279.821C489.06 279.875 489.13 279.915 489.206 279.937C489.282 279.96 489.362 279.964 489.44 279.95C492.68 279.39 494.85 278.64 498.04 280.48C498.184 280.561 498.308 280.675 498.403 280.811C498.498 280.948 498.562 281.105 498.59 281.27C498.856 282.843 498.866 284.117 498.62 285.09C497.18 290.92 495.7 295.53 494.15 302.52C483.27 351.547 459.85 393.67 423.89 428.89C421.343 431.39 415.183 436.9 405.41 445.42C395.403 454.14 383.286 462.59 369.06 470.77C354.28 479.263 338.693 485.907 322.3 490.7ZM454.28 256.82C451.273 257.06 448.526 256.297 446.04 254.53C445.792 254.357 445.6 254.117 445.486 253.838C445.373 253.56 445.343 253.255 445.4 252.96C447.09 244.08 446.48 234.39 445.72 223.56C445.433 219.547 444.87 215.72 444.03 212.08C435.463 174.8 417.723 142.897 390.81 116.37C382.83 108.51 377.176 103.407 373.85 101.06C369.33 97.8866 363.72 94.0333 357.02 89.5C345.58 81.77 331.83 76.03 316.63 70.73C292.48 62.32 266.16 58.58 242.01 59.61C235.323 59.8966 225.86 61.0766 213.62 63.15C205.98 64.44 197.91 67.19 190.39 69.91C186.07 71.4766 179.933 73.8466 171.98 77.02C166.813 79.08 162.646 81.0766 159.48 83.01C153.466 86.69 144.936 92.2366 133.89 99.65C124 106.27 116.64 113.89 106.57 123.8C102.616 127.687 97.6729 133.83 91.7396 142.23C90.3863 144.143 86.3163 150.577 79.5296 161.53C77.6896 164.497 76.2296 167.297 75.1496 169.93C72.0896 177.43 68.3196 184.72 65.7196 191.71C60.9529 204.503 57.6729 217.14 55.8796 229.62C54.2196 241.24 54.2996 252.84 54.0796 265.55C54.0756 265.771 54.1151 265.99 54.1959 266.195C54.2767 266.401 54.3971 266.588 54.5504 266.747C54.7036 266.906 54.8866 267.033 55.0889 267.121C55.2913 267.209 55.509 267.256 55.7296 267.26C57.1296 267.287 58.8296 267.673 60.8296 268.42C62.5163 269.047 63.1796 270.327 62.8196 272.26C61.7496 277.88 62.0996 282.76 62.2596 292.35C62.3463 297.71 62.7896 302.547 63.5896 306.86C70.0796 341.93 86.3696 373.89 110.56 400.27C116.433 406.677 122.883 412.993 129.91 419.22C135.5 424.19 141.1 427.24 146.98 431.55C159.4 440.66 173.38 446.83 188.74 452.3C213.646 461.153 238.863 465.217 264.39 464.49C272.88 464.25 280.97 463.06 288.74 461.95C304.67 459.68 318.25 454.28 334.78 447.76C348.27 442.43 357.39 435.88 371.1 426.82C377.34 422.7 382.556 418.703 386.75 414.83C394.776 407.423 399.92 402.537 402.18 400.17C413.07 388.81 421.91 374.44 430.01 360.76C433.25 355.3 435.47 348.45 438.33 342.71C442.71 333.9 445.05 326.24 448.04 315.87C451.76 302.957 453.86 288.833 454.34 273.5C454.36 272.667 454.466 267.23 454.66 257.19C454.661 257.139 454.652 257.089 454.633 257.042C454.614 256.995 454.586 256.952 454.55 256.917C454.514 256.882 454.472 256.856 454.425 256.839C454.378 256.822 454.329 256.816 454.28 256.82ZM130.25 97.62L131.02 98.72C131.036 98.7435 131.056 98.7636 131.08 98.7789C131.104 98.7943 131.131 98.8046 131.159 98.8093C131.187 98.8139 131.216 98.8129 131.243 98.8061C131.271 98.7994 131.297 98.7871 131.32 98.77L131.42 98.69C134.623 96.4217 137.653 94.1832 139.847 92.4632C142.041 90.7432 143.221 89.6815 143.13 89.51L142.96 89.27C142.907 89.1898 142.54 89.333 141.88 89.6913C141.221 90.0497 140.281 90.6161 139.116 91.3582C137.95 92.1003 136.581 93.0035 135.087 94.0162C133.593 95.0289 132.004 96.1312 130.41 97.26L130.3 97.33C130.255 97.3621 130.225 97.4105 130.215 97.4647C130.206 97.519 130.218 97.5747 130.25 97.62ZM102.44 121.9C98.2096 126.43 93.5296 130.73 91.3796 135.62C91.3068 135.782 91.2837 135.963 91.3133 136.138C91.3428 136.313 91.4237 136.476 91.5457 136.605C91.6677 136.735 91.8253 136.825 91.9986 136.865C92.172 136.905 92.3532 136.893 92.5196 136.83C93.0196 136.643 93.4996 136.267 93.9596 135.7C97.3296 131.6 100.69 127.43 104.26 123.6C107.84 119.76 111.77 116.12 115.63 112.48C116.163 111.98 116.503 111.477 116.65 110.97C116.699 110.801 116.697 110.621 116.645 110.452C116.593 110.284 116.493 110.134 116.356 110.022C116.22 109.91 116.054 109.841 115.878 109.823C115.703 109.805 115.526 109.838 115.37 109.92C110.63 112.39 106.68 117.36 102.44 121.9ZM87.1696 142.82C87.1794 142.803 87.1858 142.784 87.1884 142.765C87.191 142.745 87.1897 142.725 87.1846 142.706C87.1794 142.687 87.1706 142.669 87.1586 142.654C87.1466 142.638 87.1317 142.625 87.1146 142.615C87.0975 142.605 87.0787 142.599 87.0591 142.596C87.0396 142.594 87.0197 142.595 87.0007 142.6C86.9817 142.605 86.9638 142.614 86.9482 142.626C86.9326 142.638 86.9194 142.653 86.9096 142.67C82.1029 148.923 78.2929 154.437 75.4796 159.21C74.2596 161.27 73.6229 163.14 73.5696 164.82C73.5665 164.922 73.5936 165.023 73.6474 165.11C73.7012 165.196 73.7794 165.265 73.8721 165.308C73.9649 165.351 74.0682 165.365 74.1691 165.349C74.27 165.334 74.3641 165.289 74.4396 165.22C75.1663 164.547 75.6529 164.027 75.8996 163.66C80.5063 156.767 84.2629 149.82 87.1696 142.82ZM69.6096 171.54C69.6016 171.538 69.5935 171.538 69.5863 171.539C69.5792 171.541 69.5733 171.545 69.5696 171.55C65.5963 179.557 62.3429 187.393 59.8096 195.06C57.4696 202.16 55.3229 209.85 53.3696 218.13C52.6829 221.017 52.2163 224.08 51.9696 227.32C51.9662 227.403 51.9903 227.486 52.0384 227.554C52.0864 227.622 52.1556 227.673 52.2353 227.698C52.315 227.723 52.4008 227.721 52.4793 227.693C52.5578 227.664 52.6246 227.61 52.6696 227.54C53.6763 225.847 54.5596 223.703 55.3196 221.11C56.5396 216.977 57.5229 212.05 58.2696 206.33C58.5096 204.517 59.9296 200.437 62.5296 194.09C62.8425 193.331 63.1165 192.556 63.3496 191.77C64.1896 188.95 64.6496 185.57 66.1296 181.9C68.6696 175.56 70.0463 172.24 70.2596 171.94C70.2715 171.922 70.2791 171.902 70.282 171.881C70.2849 171.86 70.2828 171.838 70.2761 171.818C70.2693 171.798 70.258 171.779 70.243 171.764C70.228 171.749 70.2098 171.737 70.1896 171.73L69.6096 171.54ZM480.843 215.041C480.751 215.057 480.675 215.16 480.62 215.342C480.564 215.524 480.531 215.783 480.52 216.103C480.51 216.424 480.523 216.8 480.559 217.21C480.595 217.62 480.653 218.056 480.73 218.493C480.886 219.376 481.109 220.21 481.35 220.811C481.591 221.412 481.831 221.731 482.017 221.699C482.108 221.682 482.184 221.58 482.239 221.398C482.295 221.216 482.329 220.957 482.339 220.637C482.349 220.316 482.336 219.94 482.3 219.53C482.264 219.12 482.206 218.684 482.129 218.247C481.973 217.364 481.75 216.53 481.509 215.929C481.268 215.328 481.028 215.009 480.843 215.041ZM484.67 242.19C485.27 247.317 485.576 250.003 485.59 250.25C485.683 253.343 485.913 257.337 486.28 262.23C486.282 262.265 486.295 262.299 486.317 262.326C486.338 262.353 486.367 262.372 486.4 262.38L486.65 262.45C486.704 262.465 486.761 262.468 486.817 262.458C486.873 262.447 486.925 262.424 486.971 262.391C487.016 262.357 487.053 262.313 487.079 262.263C487.105 262.212 487.119 262.157 487.12 262.1C487.16 257.74 487.29 253.61 486.71 248.85C486.44 246.6 486.4 244.35 486.13 242.02C485.86 239.68 485.37 237.49 485.12 235.23C484.59 230.47 483.51 226.48 482.47 222.25C482.457 222.194 482.431 222.142 482.394 222.098C482.358 222.054 482.312 222.019 482.259 221.995C482.207 221.972 482.15 221.961 482.093 221.964C482.036 221.966 481.98 221.982 481.93 222.01L481.7 222.14C481.671 222.156 481.648 222.181 481.634 222.211C481.62 222.241 481.615 222.276 481.62 222.31C482.393 227.157 483.086 231.097 483.7 234.13C483.753 234.37 484.076 237.057 484.67 242.19ZM49.4996 269.09L51.5596 269.11C51.5885 269.11 51.6171 269.104 51.6438 269.093C51.6705 269.082 51.6947 269.066 51.7152 269.046C51.7356 269.025 51.7518 269.001 51.7628 268.974C51.7739 268.947 51.7796 268.919 51.7796 268.89V268.68C51.8065 265.592 51.8044 262.534 51.7732 259.682C51.742 256.83 51.6824 254.24 51.5979 252.06C51.5133 249.88 51.4055 248.154 51.2805 246.98C51.1555 245.806 51.0159 245.208 50.8696 245.22H50.5896C50.2958 245.243 49.993 247.723 49.7475 252.116C49.5019 256.509 49.3337 262.458 49.2796 268.66V268.87C49.2796 268.928 49.3028 268.984 49.344 269.026C49.3853 269.067 49.4412 269.09 49.4996 269.09ZM458.89 254.73L457.25 254.71C457.212 254.71 457.174 254.717 457.139 254.732C457.103 254.747 457.071 254.768 457.045 254.795C457.018 254.822 456.996 254.854 456.982 254.889C456.967 254.924 456.96 254.962 456.96 255L456.95 255.18C456.927 258.445 456.931 261.678 456.961 264.694C456.991 267.71 457.048 270.449 457.127 272.755C457.206 275.061 457.306 276.888 457.421 278.131C457.537 279.374 457.665 280.009 457.8 280H457.98C458.25 279.981 458.527 277.361 458.75 272.712C458.973 268.064 459.124 261.766 459.17 255.2L459.18 255.02C459.18 254.943 459.149 254.869 459.095 254.815C459.04 254.761 458.967 254.73 458.89 254.73ZM27.0896 302C27.0429 300.713 26.3929 296.243 25.1396 288.59C24.5463 284.95 24.0629 280.46 23.6896 275.12C23.2296 268.427 22.6529 262.39 21.9596 257.01C21.9452 256.919 21.899 256.836 21.8294 256.774C21.7598 256.713 21.6713 256.678 21.5797 256.676C21.4882 256.673 21.3996 256.703 21.3299 256.761C21.2603 256.819 21.214 256.9 21.1996 256.99C20.7529 259.677 20.7896 262.3 21.3096 264.86C21.376 265.179 21.4029 265.508 21.3896 265.84C21.2763 269.52 21.3829 273.06 21.7096 276.46C21.7629 277.02 21.9096 277.53 22.1496 277.99C22.2813 278.247 22.3531 278.53 22.3596 278.82C22.5096 285.11 22.7796 297.25 26.7696 302.12C26.7933 302.149 26.8258 302.171 26.8623 302.181C26.8988 302.191 26.9375 302.189 26.9729 302.176C27.0084 302.162 27.0387 302.138 27.0597 302.107C27.0806 302.075 27.0911 302.038 27.0896 302ZM439.07 352.45C439.078 352.452 439.086 352.452 439.093 352.451C439.1 352.449 439.106 352.445 439.11 352.44C443.07 344.407 446.31 336.543 448.83 328.85C451.15 321.73 453.276 314.017 455.21 305.71C455.89 302.817 456.35 299.747 456.59 296.5C456.593 296.417 456.569 296.334 456.521 296.266C456.473 296.198 456.404 296.147 456.324 296.122C456.244 296.097 456.158 296.099 456.08 296.127C456.001 296.156 455.935 296.21 455.89 296.28C454.883 297.98 454.003 300.13 453.25 302.73C452.043 306.877 451.073 311.817 450.34 317.55C450.1 319.37 448.686 323.463 446.1 329.83C445.79 330.593 445.519 331.371 445.29 332.16C444.45 334.99 444 338.38 442.53 342.06C440.003 348.42 438.633 351.75 438.42 352.05C438.408 352.068 438.4 352.088 438.397 352.109C438.394 352.13 438.396 352.152 438.403 352.172C438.41 352.192 438.421 352.211 438.436 352.226C438.451 352.241 438.469 352.253 438.49 352.26L439.07 352.45ZM435.63 359.82L433.84 358.75C433.813 358.734 433.784 358.723 433.754 358.718C433.724 358.713 433.693 358.715 433.663 358.722C433.633 358.73 433.605 358.743 433.58 358.762C433.556 358.78 433.535 358.803 433.52 358.83L431.74 361.82C428.794 366.761 426.072 371.563 424.172 375.171C422.271 378.78 421.346 380.901 421.6 381.07L421.81 381.2C422.085 381.331 423.514 379.503 425.784 376.115C428.053 372.726 430.978 368.054 433.92 363.12L435.71 360.13C435.739 360.078 435.747 360.017 435.732 359.959C435.717 359.901 435.681 359.851 435.63 359.82ZM406 402.22C410.24 397.7 414.93 393.42 417.08 388.53C417.151 388.369 417.173 388.19 417.144 388.016C417.114 387.842 417.035 387.681 416.914 387.552C416.794 387.423 416.638 387.332 416.467 387.291C416.295 387.25 416.115 387.26 415.95 387.32C415.45 387.507 414.97 387.88 414.51 388.44C411.14 392.54 407.77 396.7 404.19 400.52C400.6 404.35 396.67 407.98 392.81 411.61C392.276 412.103 391.933 412.607 391.78 413.12C391.73 413.289 391.732 413.469 391.784 413.638C391.836 413.806 391.936 413.956 392.073 414.068C392.209 414.18 392.375 414.249 392.551 414.267C392.726 414.285 392.903 414.252 393.06 414.17C397.8 411.71 401.76 406.75 406 402.22ZM378.18 426.47L377.28 425.2C377.269 425.183 377.254 425.169 377.238 425.158C377.221 425.147 377.203 425.14 377.183 425.136C377.163 425.132 377.143 425.132 377.124 425.137C377.104 425.141 377.086 425.149 377.07 425.16L376.99 425.22C373.746 427.517 370.686 429.793 368.482 431.548C366.279 433.303 365.112 434.394 365.24 434.58L365.34 434.71C365.486 434.882 366.906 434.14 369.289 432.646C371.673 431.153 374.826 429.029 378.06 426.74L378.14 426.68C378.156 426.669 378.17 426.655 378.181 426.638C378.192 426.622 378.2 426.603 378.204 426.583C378.207 426.564 378.207 426.544 378.203 426.524C378.199 426.505 378.191 426.486 378.18 426.47ZM183.27 486.47C184.923 487.69 186.903 488.383 189.21 488.55C189.656 488.582 190.079 488.762 190.41 489.06C191.156 489.727 192.026 490.077 193.02 490.11C193.17 490.109 193.315 490.055 193.428 489.958C193.542 489.86 193.617 489.724 193.64 489.576C193.663 489.428 193.632 489.276 193.553 489.149C193.474 489.021 193.353 488.926 193.21 488.88L190.06 488.01C189.814 487.944 189.575 487.846 189.35 487.72C187.736 486.807 185.783 486.207 183.49 485.92C183.424 485.915 183.358 485.931 183.301 485.965C183.245 486 183.201 486.052 183.177 486.114C183.152 486.175 183.148 486.243 183.165 486.307C183.181 486.371 183.218 486.428 183.27 486.47Z" fill="#FF4040"/>
<path d="M295.95 327.31L296.58 326.24C296.313 324.8 295.627 324.03 294.52 323.93C294.187 323.71 293.813 323.7 293.4 323.9C290.753 321.447 288.513 318.617 286.68 315.41C286.448 315.006 286.151 314.644 285.8 314.34C284.213 312.953 282.843 311.297 281.69 309.37C281.392 308.88 281.021 308.441 280.59 308.07C278.283 306.063 276.643 303.947 275.67 301.72C275.492 301.318 275.229 300.963 274.9 300.68C271.76 298 271.04 294.21 269.29 291.49C268.975 290.995 268.489 290.638 267.93 290.49C265.63 289.87 264.157 288.097 263.51 285.17C263.426 284.781 263.218 284.433 262.92 284.18C261.72 283.153 260.607 282.523 259.58 282.29C259.241 282.214 258.889 282.231 258.56 282.339C258.231 282.446 257.937 282.64 257.71 282.9C246.057 296.293 240.093 303.153 239.82 303.48C234.02 310.47 226.15 317.56 220.64 324.66C216.78 329.64 212.72 333.04 208.76 337.76C207.073 339.773 205.51 341.547 204.07 343.08C184.017 364.36 173.22 375.807 171.68 377.42C170.607 378.547 168.077 380.29 164.09 382.65C163.677 382.896 163.283 383.167 162.91 383.46C159.59 386.07 157.71 389.02 153.05 386.69C146.89 383.61 142.43 378.96 136.15 375.91C135.933 375.804 135.745 375.647 135.602 375.453C135.458 375.259 135.364 375.033 135.327 374.794C135.289 374.556 135.31 374.311 135.387 374.083C135.465 373.854 135.596 373.647 135.77 373.48C144.15 365.487 153.413 355.74 163.56 344.24C168.92 338.17 175.26 331.63 181.15 325.09C183.68 322.29 186.7 319.8 189.3 316.49C190.86 314.49 193.38 312.34 195.35 310.84C195.919 310.41 196.406 309.885 196.79 309.29C198.13 307.25 199.5 305.19 201.2 303.63C205.34 299.823 209.143 295.543 212.61 290.79C214.1 288.75 216.44 287.69 217.96 285.49C219.79 282.83 222.1 281.55 224.59 279.72C224.663 279.667 224.724 279.603 224.77 279.53L227.91 274.59C228.114 274.274 228.388 274.011 228.71 273.82C231.66 272.1 232.62 268.77 235.25 266.37C239.05 262.897 241.543 260.78 242.73 260.02C242.892 259.915 243.031 259.78 243.14 259.621C243.249 259.463 243.326 259.284 243.366 259.097C243.406 258.909 243.408 258.715 243.373 258.527C243.338 258.339 243.265 258.16 243.16 258C242.213 256.567 240.823 254.83 238.99 252.79C235.33 248.72 232.13 243.24 228.61 239.66C228.37 239.413 226.733 238.043 223.7 235.55C220.56 232.96 218.44 229.19 215.92 226.5C215.237 225.771 214.667 224.941 214.23 224.04L213.47 222.47C213.247 222.011 212.913 221.618 212.5 221.33C210.487 219.943 209.053 218.72 208.2 217.66C187.893 192.56 175.153 177.203 169.98 171.59C157.85 158.43 149.25 149.36 143.75 142.23C143.427 141.813 143.228 141.314 143.177 140.79C143.125 140.267 143.224 139.739 143.46 139.27C147.07 132.02 151.6 139.59 154.02 142.38C154.043 142.407 154.074 142.427 154.109 142.436C154.144 142.444 154.18 142.442 154.214 142.429C154.247 142.415 154.275 142.392 154.294 142.362C154.313 142.331 154.322 142.296 154.32 142.26L154.24 137.52C154.233 137.189 154.176 136.861 154.07 136.55L153.19 133.92C153.035 133.457 153.057 132.955 153.25 132.51C154.24 130.25 156.7 127.83 159.22 130.41C160.773 131.997 162.303 133.653 163.81 135.38C163.871 135.449 163.954 135.495 164.045 135.51C164.136 135.525 164.229 135.509 164.309 135.463C164.389 135.417 164.451 135.345 164.484 135.259C164.517 135.172 164.519 135.078 164.49 134.99C164.023 133.583 163.83 132.54 163.91 131.86C163.94 131.581 164.055 131.318 164.24 131.108C164.425 130.897 164.671 130.749 164.944 130.683C165.216 130.617 165.503 130.637 165.763 130.741C166.024 130.844 166.246 131.025 166.4 131.26C166.747 131.787 167.143 132.223 167.59 132.57C167.702 132.658 167.838 132.711 167.981 132.722C168.123 132.732 168.266 132.7 168.39 132.63L171.65 130.75C171.92 130.594 172.239 130.548 172.541 130.621C172.843 130.693 173.104 130.879 173.27 131.14C180.95 143.02 189.98 153.58 202.15 168.15C215.957 184.677 235.707 208.2 261.4 238.72C261.478 238.812 261.575 238.887 261.684 238.939C261.793 238.991 261.911 239.02 262.032 239.023C262.152 239.026 262.271 239.003 262.381 238.956C262.491 238.909 262.59 238.839 262.67 238.75L270.45 230.19C270.748 229.865 270.995 229.494 271.18 229.09C273.14 224.803 275.333 221.51 277.76 219.21C280.06 217.03 281.77 214.1 284.64 212.42C285.226 212.082 285.694 211.576 285.98 210.97L287.36 208.07C287.473 207.831 287.621 207.609 287.8 207.41C299.793 193.863 310.647 181.43 320.36 170.11C331.23 157.46 341.33 143.71 351.56 131.08C352.265 130.211 353.219 129.578 354.295 129.265C355.371 128.952 356.517 128.975 357.58 129.33L358.38 129.58C358.823 129.72 359.223 129.969 359.545 130.303C359.866 130.638 360.098 131.049 360.22 131.497C360.341 131.945 360.348 132.416 360.24 132.867C360.131 133.319 359.911 133.736 359.6 134.08L355.65 138.42C355.59 138.485 355.554 138.568 355.547 138.657C355.539 138.745 355.561 138.833 355.609 138.907C355.657 138.981 355.728 139.038 355.812 139.067C355.895 139.097 355.986 139.098 356.07 139.07C360.33 137.683 362.757 136.857 363.35 136.59C366.42 135.17 372.94 136.9 368.83 141.47C366.863 143.657 365.71 145.127 365.37 145.88C365.342 145.945 365.335 146.018 365.35 146.087C365.366 146.157 365.403 146.22 365.456 146.267C365.509 146.315 365.575 146.345 365.646 146.352C365.717 146.36 365.788 146.345 365.85 146.31L368.97 144.5C369.154 144.395 369.363 144.337 369.58 144.33C371.2 144.277 371.283 145.523 369.83 148.07C369.737 148.234 369.713 148.429 369.764 148.612C369.814 148.796 369.935 148.953 370.1 149.05L372.34 150.34C372.525 150.448 372.683 150.599 372.799 150.779C372.915 150.96 372.987 151.165 373.008 151.379C373.03 151.593 373 151.808 372.922 152.008C372.844 152.208 372.72 152.387 372.56 152.53C361.88 162.11 352.77 173.15 340.27 187.77C305.197 228.797 284.737 252.677 278.89 259.41C278.747 259.575 278.666 259.786 278.663 260.007C278.659 260.228 278.732 260.444 278.87 260.62C286.877 270.713 295.273 280.987 304.06 291.44C305.6 293.273 307.77 296.187 310.57 300.18C313.65 304.56 315.62 306.54 319.02 310.26C322.79 314.36 325.71 319.43 329.15 323.44C331.483 326.16 333.773 329.033 336.02 332.06C340.713 338.353 348.773 348.937 360.2 363.81C361.76 365.843 363.11 368.663 364.25 372.27C364.463 372.922 364.724 373.557 365.03 374.17C365.037 374.183 365.78 375.56 367.26 378.3C368.367 380.353 367.943 381.997 365.99 383.23C361.437 386.103 355.87 389.967 349.29 394.82C348.25 395.587 347.26 395.283 346.32 393.91C334.23 376.2 315.48 353.85 305.62 340.64C304.6 339.27 303.01 336.89 301.43 335.12C299.29 332.733 297.463 330.13 295.95 327.31Z" fill="#FF4040"/>
</g>
<defs>
<clipPath id="clip0_198_3003">
<rect width="512" height="522" fill="white"/>
</clipPath>
</defs>
</svg>
