<svg xmlns="http://www.w3.org/2000/svg" width="110.19" height="120.19" viewBox="0 0 110.19 120.19"><g id="Layer_2" data-name="Layer 2"><g id="Layer_3" data-name="Layer 3"><path d="M55.1,110.19a55.28,55.28,0,0,1-10.76-1,2.14,2.14,0,1,1,.83-4.2,51.28,51.28,0,0,0,21.18-.28,2.14,2.14,0,0,1,1,4.17A55.44,55.44,0,0,1,55.1,110.19Z" style="fill:#e55942"></path><path d="M27.69,102.56a2.11,2.11,0,0,1-1.1-.31A55.09,55.09,0,0,1,55.1,0,55.1,55.1,0,0,1,85.32,101.16,2.14,2.14,0,0,1,83,97.59a50.82,50.82,0,1,0-54.16,1,2.14,2.14,0,0,1-1.12,4Z" style="fill:#e55942"></path><path d="M28.41,102.56H28.2a2.15,2.15,0,0,1-1.93-2.33L28.94,72a2.15,2.15,0,0,1,2.13-1.94h9.77A2.15,2.15,0,0,1,43,72.22v28.2a2.15,2.15,0,0,1-4.29,0V74.36H33l-2.48,26.26A2.15,2.15,0,0,1,28.41,102.56Z" style="fill:#e55942"></path><path d="M83,102.56a2.13,2.13,0,0,1-2.13-1.94L78.37,74.36H72.69v26.06a2.14,2.14,0,0,1-4.28,0V72.22a2.14,2.14,0,0,1,2.14-2.15h9.77A2.13,2.13,0,0,1,82.45,72l2.67,28.21a2.14,2.14,0,0,1-1.93,2.33Z" style="fill:#e55942"></path><path d="M84.15,74.21H26a2.14,2.14,0,0,1-2.14-2.14V60.7A2.14,2.14,0,0,1,26,58.56H84.15a2.14,2.14,0,0,1,2.14,2.14V72.07A2.14,2.14,0,0,1,84.15,74.21Zm-56-4.28H82V62.84H28.16Z" style="fill:#e55942"></path><path d="M92,62.86H18.21a2.14,2.14,0,0,1-2.14-2.14V45.13a2.14,2.14,0,0,1,2.73-2.06,141.92,141.92,0,0,0,23,3.94C54.24,48.2,73,48.48,91.35,43.08a2.14,2.14,0,0,1,2.75,2.05V60.72A2.14,2.14,0,0,1,92,62.86Zm-71.6-4.28H89.81V48a123.49,123.49,0,0,1-24.57,3.82,157.33,157.33,0,0,1-24-.5,156.68,156.68,0,0,1-20.9-3.38Z" style="fill:#e55942"></path><path d="M55.11,40.76a9.49,9.49,0,1,1,9.48-9.48A9.49,9.49,0,0,1,55.11,40.76Zm0-14.68a5.2,5.2,0,1,0,5.19,5.2A5.2,5.2,0,0,0,55.11,26.08Z" style="fill:#e55942"></path><path d="M46,120.19H22.26a2.14,2.14,0,0,1-2-2.84l6.15-17.64a2.15,2.15,0,0,1,2-1.43H42.94a2.15,2.15,0,0,1,2.11,1.77l3.06,17.63a2.2,2.2,0,0,1-.47,1.75A2.16,2.16,0,0,1,46,120.19Zm-20.73-4.28H43.45l-2.32-13.35H29.93Z" style="fill:#e55942"></path><path d="M89.14,120.19H65.4a2.16,2.16,0,0,1-1.64-.76,2.12,2.12,0,0,1-.47-1.75l3.06-17.63a2.15,2.15,0,0,1,2.11-1.77H83a2.13,2.13,0,0,1,2,1.43l6.15,17.64a2.13,2.13,0,0,1-.27,1.94A2.15,2.15,0,0,1,89.14,120.19Zm-21.2-4.28H86.12l-4.65-13.35H70.26Z" style="fill:#e55942"></path></g></g></svg>