<svg width="200" height="200" viewBox="0 0 200 200" fill="none" xmlns="http://www.w3.org/2000/svg">
<g clip-path="url(#clip0_222_184)">
<path d="M105.185 45.3841C105.68 44.8096 106.862 44.4346 107.616 43.8721C108.789 42.9971 110.667 41.8163 113.248 40.3296C114.988 39.3283 117.032 38.7777 118.864 37.6208C119.007 37.5309 119.162 37.4637 119.323 37.4213C119.699 37.3229 120.267 37.0969 121.028 36.7431C121.999 36.2884 123.342 35.803 125.055 35.287C126.04 34.9892 126.857 34.6993 127.506 34.4174C128.999 33.7711 130.787 33.0051 132.52 32.8655C132.651 32.8523 132.78 32.8144 132.899 32.7538C133.311 32.5384 133.688 32.3788 134.028 32.2751C138.608 30.8708 143.011 29.8229 147.237 29.1315C147.308 29.1208 147.487 29.0224 147.771 28.8362C147.928 28.7346 148.112 28.678 148.302 28.6727C149.202 28.6487 149.911 28.5955 150.43 28.5131C151.404 28.3588 153.393 28.0237 156.397 27.5078C156.615 27.4714 156.838 27.5035 157.036 27.5995C157.722 27.9386 158.425 27.4799 159.207 27.3881C161.882 27.0743 165.969 26.7498 171.47 26.4147C171.586 26.4073 171.703 26.4268 171.811 26.4718C171.919 26.5167 172.015 26.5859 172.092 26.674L172.256 26.8615C172.324 26.9408 172.415 26.9979 172.516 27.0256C172.616 27.0533 172.723 27.0504 172.823 27.0171C173.012 26.9533 173.215 26.8083 173.433 26.5822C173.481 26.5334 173.538 26.4953 173.601 26.4705C173.663 26.4458 173.73 26.4349 173.797 26.4386L178.475 26.7179C178.562 26.7232 178.652 26.7178 178.742 26.7019C179.796 26.4971 180.485 26.3761 180.81 26.3389C181.912 26.2152 181.912 27.033 182.674 27.061C182.948 27.0716 183.358 27.3442 183.903 27.8788C183.952 27.9259 183.981 27.99 183.984 28.0581C183.987 28.1262 183.964 28.1933 183.919 28.2458C183.597 28.6235 183.625 28.9067 184.003 29.0955C184.122 29.156 184.223 29.2464 184.296 29.3577C184.369 29.469 184.411 29.5974 184.418 29.7299L185.021 41.8376C185.025 41.8886 185.045 41.9369 185.079 41.9745C185.113 42.0122 185.159 42.037 185.209 42.045C185.938 42.1647 186.519 42.178 186.953 42.0849C187.938 41.8775 188.484 41.7764 188.593 41.7817C188.928 41.795 189.26 41.8431 189.583 41.9253L191.08 42.2963C191.422 42.3811 191.774 42.4213 192.126 42.416C194.062 42.3801 195.192 42.5437 196.968 43.3775C197.095 43.4371 197.197 43.5384 197.259 43.6647C197.77 44.7046 198.03 45.3243 198.038 45.5237C198.269 50.5503 198.364 55.9439 198.321 61.7046C198.318 62.0158 198.377 62.5796 198.497 63.3961C198.536 63.6721 198.551 63.9512 198.541 64.2298C198.466 66.0277 198.498 69.4533 198.636 74.5064C198.721 77.5463 198.741 83.5862 198.696 92.6261C198.692 93.9666 198.361 95.5862 198.381 96.811C198.458 101.157 198.542 105.213 198.632 108.979C198.656 110.08 198.457 111.201 198.541 112.178C198.65 113.439 198.679 114.834 198.628 116.363C198.525 119.574 198.936 122.155 198.928 125.203C198.925 126.594 199.001 128.143 199.155 129.851C199.4 132.582 199.477 135.367 199.387 138.205C199.304 140.838 199.315 143.291 199.419 145.565C199.662 150.823 199.722 156.6 199.962 160.701C200.085 162.835 199.566 163.537 198.177 164.814C198.072 164.911 197.932 164.965 197.786 164.965C197.275 164.971 195.551 165.134 192.613 165.456C190.545 165.682 188.814 165.806 187.42 165.827C181.297 165.92 175.445 165.899 169.865 165.763C167.789 165.713 165.032 165.764 161.594 165.919C161.07 165.943 160.6 165.908 160.185 165.815C159.491 165.659 158.932 166.194 158.309 165.959C158.056 165.863 157.278 165.858 155.974 165.943C154.926 166.012 150.637 166.006 143.109 165.927C142.976 165.927 142.846 165.937 142.718 165.959C141.973 166.084 141.244 166.147 140.531 166.15C135.64 166.158 131.494 166.123 128.093 166.046C127.995 166.044 127.898 166.062 127.808 166.1C127.718 166.138 127.637 166.194 127.57 166.266C124.789 169.242 121.432 171.494 117.499 173.024C114.96 174.013 113.136 174.614 112.027 174.827C110.797 175.066 110.218 175.074 109.201 175.445C108.557 175.679 107.657 175.755 106.502 175.673C104.831 175.553 103.415 175.44 102.255 175.334C100.499 175.174 99.3534 174.691 97.6489 174.4C97.1992 174.323 96.5992 174.154 95.8487 173.893C91.2797 172.322 87.163 169.855 83.4987 166.493C83.4006 166.405 83.2754 166.353 83.1435 166.346L61.9162 165.412C61.6034 165.399 61.2909 165.424 60.9861 165.488C58.4195 166.022 56.5195 165.659 53.462 165.336C53.1147 165.302 52.7662 165.31 52.4242 165.36C51.5567 165.493 50.2221 165.537 48.4206 165.492C45.9112 165.428 43.3513 165.332 40.7407 165.205C38.9326 165.113 37.1403 165.536 35.4918 165.396C32.8839 165.173 30.0379 165.05 26.9538 165.029C23.1019 165.005 19.1821 164.586 15.7573 164.654C14.6583 164.675 13.8973 164.573 13.4742 164.347C11.5622 163.326 11.3626 162.256 11.2987 160.142C11.1364 154.483 11.0646 150.005 11.0832 146.71C11.1071 141.923 10.7838 136.014 10.9555 131.028C11.0034 129.642 10.9674 127.58 10.8477 124.84C10.7466 122.59 10.7971 120.362 10.9994 118.154C11.0579 117.516 11.0366 116.186 10.9355 114.165C10.6162 107.842 11.0153 103.581 10.8237 98.2112C10.6747 94.0251 10.7186 89.3841 10.9555 84.2884C10.9914 83.4825 10.8437 82.3296 10.8477 81.7272C10.8823 76.2006 10.8211 70.791 10.6641 65.4985C10.6401 64.7751 10.6854 63.8389 10.7998 62.69C10.9089 61.5809 10.8078 60.4759 10.4964 59.3748C10.4408 59.1788 10.4099 58.9764 10.4046 58.7724C10.2636 54.5437 10.2995 51.2338 10.5124 48.8429C10.555 48.3535 10.8956 46.69 11.5342 43.8522C11.563 43.7162 11.6263 43.591 11.7178 43.4892C12.2075 42.9439 12.5734 42.6394 12.8155 42.5756C15.426 41.8868 18.151 41.7618 20.9903 42.2006C21.8445 42.3336 22.6575 42.3429 23.4292 42.2285C23.5475 42.2109 23.6552 42.1508 23.7318 42.0595C23.8084 41.9683 23.8484 41.8524 23.8443 41.7338C23.7565 38.8096 23.8643 35.1993 23.6048 31.6487C23.4691 29.7737 23.7126 28.7405 24.8143 27.3402C24.9368 27.1841 25.0945 27.0588 25.2747 26.9743C25.4549 26.8898 25.6526 26.8485 25.8521 26.8535C29.8716 26.9652 34.1985 26.8296 38.5494 27.0769C42.0194 27.2737 44.5554 27.3815 46.1573 27.4001C46.2023 27.402 46.2887 27.4168 46.4075 27.4428C46.5262 27.4687 46.6729 27.505 46.8319 27.5477C47.2071 27.6487 47.6342 27.6926 48.1132 27.6793C49.3293 27.6447 50.8076 27.7751 52.5479 28.0703C54.9961 28.4852 56.457 28.7192 56.9307 28.7724C60.1399 29.1288 63.1349 29.6753 65.9158 30.412C66.8578 30.6594 68.0712 31.2737 68.8695 31.2777C68.9212 31.2779 68.9722 31.2906 69.018 31.3149C69.0639 31.3393 69.1034 31.3744 69.133 31.4173C69.2793 31.6328 69.4576 31.6567 69.6678 31.4892C69.7494 31.4237 69.8468 31.3808 69.9505 31.3647C70.0541 31.3486 70.1604 31.3599 70.2586 31.3974C71.7834 31.9998 73.372 31.9519 74.833 32.4666C77.8107 33.5118 81.3353 34.1062 84.3649 35.2631C86.8876 36.2232 88.294 36.7764 88.584 36.9227C90.987 38.1115 92.9522 39.0344 94.4796 39.6913C94.5967 39.7418 94.8921 39.9626 95.3657 40.3535C95.4737 40.4456 95.6001 40.5148 95.737 40.557C96.53 40.8043 97.8951 41.5025 99.8323 42.6514C100.484 43.0397 101.972 43.8136 104.295 44.9732C104.566 45.1088 104.638 45.2126 104.83 45.4001C104.853 45.4236 104.881 45.442 104.912 45.4541C104.943 45.4661 104.976 45.4716 105.01 45.4701C105.043 45.4686 105.076 45.4602 105.106 45.4454C105.136 45.4306 105.163 45.4097 105.185 45.3841ZM108.338 157.481C109.531 157.119 110.721 156.625 111.911 155.997C114.605 154.569 117.112 153.611 119.523 152.582C120.55 152.146 121.964 151.695 123.766 151.23C125.517 150.778 128.335 149.984 132.22 148.848C134.421 148.207 137.017 147.658 140.008 147.201C140.54 147.121 142.154 146.893 144.85 146.518C147.085 146.207 148.7 145.979 149.695 145.832C151.22 145.606 152.555 145.4 153.699 145.214C155.29 144.953 156.631 144.804 157.722 144.767C159.604 144.706 161.21 144.483 162.54 144.097C162.646 144.065 162.759 144.061 162.867 144.086C162.976 144.11 163.076 144.162 163.159 144.237C163.462 144.508 163.774 144.498 164.093 144.209C164.248 144.066 164.448 143.981 164.66 143.965C169.639 143.59 172.196 143.408 172.332 143.419C173.86 143.542 175.218 142.274 176.902 143.479C176.959 143.519 177.023 143.547 177.092 143.562C177.161 143.576 177.232 143.576 177.301 143.562L178.91 143.215C179.006 143.196 179.094 143.146 179.161 143.074C179.227 143.002 179.27 142.91 179.281 142.812C179.353 142.24 179.39 141.501 179.393 140.594C179.411 136.61 179.435 132.459 179.465 128.139C179.477 126.484 179.744 125.143 179.632 123.755C179.579 123.093 179.556 122.218 179.564 121.13C179.588 116.961 179.493 112.154 179.612 107.203C179.628 106.472 179.618 105.601 179.58 104.59C179.511 102.766 179.522 99.0822 179.612 93.5397C179.615 93.4705 179.61 93.1381 179.596 92.5423C179.493 87.3881 179.462 76.8256 179.505 60.8549C179.525 53.8017 180.075 41.1115 179.84 31.6806C179.838 31.6207 179.825 31.5617 179.8 31.5072C179.775 31.4527 179.739 31.4038 179.695 31.3635C179.65 31.3233 179.598 31.2924 179.542 31.2729C179.485 31.2533 179.425 31.2455 179.365 31.2498C169.613 31.9439 162.688 32.3668 153.879 33.5596C150.773 33.9799 146.75 34.7312 141.808 35.8136C140.39 36.1248 139.664 36.2844 139.633 36.2923C137.826 36.7817 134.29 37.8828 129.027 39.5955C126.619 40.3801 124.472 41.178 122.588 41.9892C117.156 44.3229 112.773 46.2697 108.502 49.6607C108.233 49.873 108.057 50.1805 108.011 50.5184C107.862 51.5822 107.782 52.5849 107.772 53.5264C107.74 56.3801 107.701 63.7591 107.656 75.6634C107.651 77.0091 107.72 79.1381 107.863 82.0503C107.951 83.8588 107.941 85.9905 107.832 88.4453C107.738 90.549 107.701 92.6035 107.72 94.6088C107.752 97.5477 107.746 99.6075 107.704 100.788C107.608 103.318 107.971 105.703 107.808 108.408C107.701 110.161 107.675 112.065 107.728 114.121C108.092 127.642 108.172 142.002 107.967 157.202C107.967 157.247 107.976 157.292 107.996 157.333C108.016 157.373 108.046 157.409 108.082 157.436C108.118 157.463 108.16 157.481 108.205 157.489C108.249 157.497 108.295 157.494 108.338 157.481ZM96.3038 155.072L101.664 156.851C101.695 156.861 101.728 156.863 101.759 156.859C101.791 156.854 101.821 156.842 101.848 156.824C101.874 156.806 101.897 156.782 101.912 156.754C101.928 156.727 101.938 156.695 101.94 156.663C102.081 154.408 102.074 152.34 101.92 150.46C101.736 148.197 101.647 146.137 101.653 144.28C101.674 138.775 101.672 123.55 101.649 98.6062C101.649 95.4985 101.461 92.0955 101.469 89.4386C101.49 80.1727 101.465 72.2325 101.393 65.6182C101.369 63.5916 100.934 61.3575 100.874 59.1035C100.848 58.0397 100.84 55.807 100.85 52.4054C100.85 51.3003 100.671 50.1634 100.515 48.9426C100.5 48.8167 100.457 48.6955 100.389 48.5879C100.322 48.4803 100.231 48.3889 100.124 48.3203C95.8607 45.5729 91.4234 43.3243 86.8118 41.5743C86.197 41.3402 85.6103 41.2019 85.0515 41.1594C82.268 40.1567 80.046 39.4107 78.3855 38.9213C77.6031 38.6926 76.5347 38.5251 75.1802 38.4187C75.1356 38.416 75.092 38.4038 75.0525 38.3828L72.8053 37.2219C72.7415 37.19 72.6747 37.1646 72.6057 37.1461C67.0174 35.5822 61.3174 34.6594 55.5057 34.3775C54.5743 34.3349 53.2943 34.283 51.6657 34.2219C50.0252 34.162 48.6361 33.6873 47.0994 33.6674C46.6736 33.6594 45.709 33.5583 44.2055 33.3642C43.7477 33.303 42.3587 33.1408 40.0382 32.8775C39.3543 32.8003 38.8873 32.791 38.6372 32.8495C37.7377 33.065 37.1776 33.1288 36.9567 33.041C36.2303 32.7538 35.396 32.4785 34.6655 32.4147C32.4196 32.2179 30.5289 32.0224 28.9935 31.8283C28.9455 31.8223 28.8968 31.8269 28.8508 31.8417C28.8049 31.8565 28.7628 31.8813 28.7277 31.9141C28.6926 31.9469 28.6653 31.987 28.6477 32.0314C28.6302 32.0759 28.6228 32.1237 28.6262 32.1713C28.762 34.2192 28.9176 37.416 29.0933 41.7618C29.1412 42.9506 29.1279 44.033 29.0533 45.0091C29.0374 45.2371 29.0482 45.4673 29.0853 45.6953C29.3993 47.5969 29.4818 49.5397 29.3328 51.5237C29.233 52.8323 29.7159 54.6873 29.7 56.0596C29.6707 58.7219 29.7066 61.4187 29.8078 64.1501C29.845 65.2192 29.837 67.9107 29.7838 72.2245C29.7572 74.5517 29.7945 77.4267 29.8956 80.8495C29.9195 81.6354 29.8157 82.7046 29.8317 83.6501C29.8342 83.8313 29.7782 84.0077 29.6721 84.1527C29.5789 84.283 29.4592 84.4719 29.3128 84.7192C29.284 84.7682 29.2666 84.8238 29.2626 84.8804C29.2585 84.9371 29.2679 84.9929 29.2897 85.0421C29.3115 85.0914 29.345 85.1324 29.3869 85.1612C29.4288 85.1899 29.4776 85.2054 29.5283 85.2059C29.7705 85.2059 29.8916 85.3854 29.8916 85.7445C29.9129 92.7232 29.9515 97.19 30.0073 99.1447C30.0353 100.142 29.7838 101.175 30.1311 102.225C30.1442 102.264 30.1456 102.305 30.1351 102.344L29.8836 103.358C29.8709 103.405 29.8683 103.456 29.8758 103.505C29.8834 103.554 29.9009 103.602 29.9275 103.645L30.0113 103.784C30.0653 103.861 30.0894 103.955 30.0792 104.048C30.0393 104.492 30.0446 105.171 30.0952 106.086C30.183 107.682 30.2016 109.743 30.151 112.27C30.1457 112.594 30.1404 112.892 30.1351 113.163C30.0433 117.284 30.5781 121.525 30.2668 126.013C30.187 127.198 30.3506 128.072 30.2708 128.997C30.2282 129.516 30.2508 130.263 30.3386 131.239C30.501 133.058 30.4597 135.17 30.2149 137.574C30.1723 137.989 30.1976 138.383 30.2908 138.755C30.5861 139.932 30.5382 140.846 30.6021 142.17C30.6099 142.358 30.552 142.542 30.4384 142.689C30.0872 143.149 30.0898 143.663 30.4464 144.233C30.4831 144.291 30.5341 144.34 30.5948 144.374C30.6554 144.408 30.7238 144.427 30.7937 144.428L36.0307 144.552C36.0891 144.552 36.1478 144.548 36.2063 144.54C36.9541 144.428 37.5022 144.383 37.8508 144.404C41.4153 144.623 43.8063 144.588 46.4248 144.951C47.7553 145.137 48.555 145.23 48.8237 145.23C49.7777 145.234 50.616 145.493 51.6178 145.569C54.7579 145.808 57.3711 146.116 59.4574 146.491C60.9981 146.766 62.9101 146.746 64.4149 147.125C65.4966 147.396 66.5105 147.268 67.5563 147.568C68.2828 147.772 69.0571 147.935 69.8794 148.054C72.1333 148.379 74.0746 148.838 75.7031 149.431C76.1622 149.602 76.8926 149.542 77.2599 149.766C77.3776 149.84 77.521 149.864 77.659 149.834C78.154 149.719 78.7833 149.747 79.547 149.917C82.2254 150.512 84.0775 151.19 86.6202 151.824C86.7878 151.867 87.8682 152.203 89.8613 152.834C92.8391 153.775 94.9866 154.521 96.3038 155.072ZM16.6834 69.4998C16.8776 74.6674 16.9721 77.3602 16.9668 77.5783C16.9029 80.3442 16.8803 83.1102 16.8989 85.8761C16.9894 100.881 17.0746 115.9 17.1544 130.932C17.197 137.778 17.2502 144.622 17.3141 151.465C17.33 153.146 17.4125 154.81 17.5615 156.456C17.4684 157.578 17.6414 158.429 18.0804 159.009C20.4648 159.147 22.9276 159.247 25.4689 159.308C38.1569 159.611 47.0049 159.788 52.013 159.839C56.3505 159.884 60.6748 159.939 64.9857 160.002C73.8816 160.138 78.3709 160.207 78.4533 160.21C80.1351 160.284 81.6559 160.459 83.0157 160.733C83.6886 160.867 84.3312 161.124 84.9117 161.49C87.0233 162.827 89.8254 164.666 92.5637 165.99C95.7929 167.558 98.7426 168.931 101.625 169.294C102.913 169.456 104.87 169.528 107.496 169.509C109.551 169.496 111.529 169.143 113.432 168.452C116.604 167.298 119.48 165.84 122.062 164.08C122.221 163.968 122.369 163.841 122.505 163.701C123.713 162.435 125.013 161.608 126.404 161.219C127.376 160.948 128.471 160.746 129.689 160.613C131.249 160.445 132.352 160.315 132.999 160.222C135.37 159.887 136.787 159.588 138.994 159.588C159.354 159.604 175.935 159.653 188.737 159.735C190.266 159.743 191.99 159.767 193.24 158.754C193.293 158.712 193.334 158.655 193.358 158.592C193.381 158.528 193.388 158.458 193.375 158.391C193.204 157.425 193.603 156.408 193.463 155.407C193.292 154.166 192.916 152.131 193.487 150.915C193.56 150.757 193.578 150.58 193.539 150.412C193.473 150.119 193.433 149.772 193.419 149.371C193.268 143.818 193.264 136.649 193.008 129.783C192.883 126.413 192.821 124.723 192.821 124.713C193.015 98.9041 193.069 78.908 192.984 64.7245C192.976 63.1527 192.966 58.8057 192.952 51.6833C192.952 50.5543 192.621 48.9705 192.469 48.0809C192.458 48.0195 192.426 47.9636 192.379 47.9224C192.332 47.8812 192.272 47.8569 192.21 47.8535L185.356 47.5543C185.313 47.5522 185.27 47.5587 185.23 47.5735C185.19 47.5883 185.153 47.6112 185.122 47.6406C185.09 47.67 185.065 47.7054 185.048 47.7448C185.031 47.7841 185.021 47.8265 185.021 47.8695C184.877 57.6753 184.856 67.0743 184.957 76.0663C185.025 82.2578 185.292 86.1913 185.364 92.2631C185.394 94.7392 185.468 96.9612 185.588 98.9293C185.672 100.318 185.404 101.586 185.548 102.827C185.62 103.455 185.628 104.431 185.572 105.755C185.543 106.433 185.569 108.472 185.652 111.871C185.697 113.826 185.701 119.804 185.664 129.807C185.648 133.118 185.328 137.494 185.428 141.5C185.436 141.764 185.4 142.028 185.32 142.282C185.251 142.51 185.134 142.826 184.969 143.227C184.908 143.376 184.903 143.485 184.953 143.554C185.02 143.65 185.102 143.717 185.201 143.754C185.255 143.774 185.303 143.81 185.337 143.857C185.372 143.905 185.393 143.962 185.396 144.021C185.473 145.577 185.291 147.017 184.849 148.342C184.791 148.519 184.694 148.68 184.564 148.816C184.435 148.951 184.278 149.056 184.103 149.123C182.432 149.762 180.746 150.085 179.046 150.093C175.466 150.112 173.444 150.117 172.978 150.109C171.299 150.085 169.281 150.17 166.923 150.364C162.713 150.71 159.04 151.045 155.902 151.369C153.835 151.581 151.935 152.068 149.899 152.223C149.033 152.287 148.25 152.582 147.456 152.834C147.154 152.932 146.84 152.993 146.522 153.017C144.534 153.161 143.385 153.161 141.652 153.544C138.998 154.13 135.162 154.501 132.232 155.79C132.113 155.843 131.988 155.88 131.861 155.901C127.031 156.718 122.511 158.044 118.301 159.879C116.393 160.709 113.786 161.842 110.478 163.278C108.192 164.272 105.882 164.561 103.549 164.143C101.899 163.851 100.333 163.331 98.8504 162.584C97.4108 161.86 96.2505 161.343 95.3697 161.032C90.0529 159.159 86.2676 157.947 84.0136 157.393C76.2021 155.479 71.2725 154.27 63.9758 153.125C52.9909 151.401 39.8506 150.476 27.7122 149.893C26.0317 149.81 24.3632 149.423 24.1117 147.775C23.968 146.812 23.9401 145.258 24.0279 143.112C24.1024 141.255 24.1171 139.694 24.0718 138.428C23.9162 134.151 24.2754 129.205 24.1756 124.96C24.0745 120.612 24.0226 115.437 24.0199 109.437C24.0199 108.225 23.6767 106.908 23.8842 105.619C24.0146 104.814 24.0559 103.86 24.008 102.759C23.9601 101.671 23.9148 99.7565 23.8723 97.0144C23.8403 94.8602 24.1716 92.2471 24.0718 90.6235C23.7126 84.6753 24.1117 77.8416 23.992 71.8775C23.9175 68.1221 23.8523 60.1421 23.7964 47.9373C23.7965 47.8863 23.7862 47.8359 23.7661 47.789C23.746 47.7422 23.7166 47.6999 23.6796 47.6648C23.6426 47.6297 23.5988 47.6025 23.551 47.5849C23.5031 47.5673 23.4522 47.5596 23.4013 47.5623L16.9668 47.8854C16.8591 47.8908 16.7564 47.9323 16.6753 48.0033C16.5942 48.0742 16.5394 48.1705 16.5197 48.2764C16.416 48.8628 16.3281 49.4213 16.38 50.1075C16.6302 53.5144 16.6994 56.9732 16.5876 60.4838C16.5849 60.6006 16.593 60.7168 16.6115 60.8309C16.7752 61.8841 16.6435 63.0769 16.6554 63.8828C16.6874 65.8003 16.6967 67.6727 16.6834 69.4998Z" fill="white"/>
<path d="M108.335 157.482C108.292 157.495 108.246 157.498 108.201 157.49C108.157 157.482 108.115 157.464 108.078 157.436C108.042 157.409 108.013 157.374 107.993 157.333C107.973 157.292 107.963 157.248 107.964 157.202C108.169 142.003 108.089 127.642 107.724 114.121C107.671 112.065 107.698 110.161 107.804 108.408C107.968 105.704 107.605 103.318 107.701 100.789C107.743 99.6079 107.748 97.5481 107.716 94.6092C107.698 92.6039 107.735 90.5494 107.828 88.4457C107.937 85.9909 107.948 83.8592 107.86 82.0507C107.716 79.1385 107.647 77.0095 107.653 75.6637C107.698 63.7595 107.736 56.3805 107.768 53.5268C107.779 52.5853 107.859 51.5826 108.008 50.5188C108.054 50.1808 108.23 49.8734 108.499 49.6611C112.77 46.2701 117.153 44.3233 122.585 41.9895C124.469 41.1784 126.615 40.3805 129.024 39.5959C134.287 37.8832 137.822 36.7821 139.629 36.2927C139.661 36.2848 140.386 36.1252 141.805 35.814C146.746 34.7316 150.77 33.9802 153.875 33.56C162.685 32.3672 169.61 31.9443 179.362 31.2502C179.421 31.2458 179.482 31.2537 179.538 31.2732C179.595 31.2928 179.647 31.3236 179.691 31.3639C179.736 31.4042 179.772 31.4531 179.797 31.5076C179.822 31.5621 179.835 31.6211 179.837 31.681C180.072 41.1119 179.521 53.802 179.501 60.8552C179.459 76.826 179.489 87.3885 179.593 92.5427C179.606 93.1385 179.612 93.4709 179.609 93.5401C179.519 99.0826 179.508 102.766 179.577 104.591C179.614 105.601 179.625 106.472 179.609 107.204C179.489 112.154 179.585 116.962 179.561 121.131C179.553 122.218 179.576 123.093 179.629 123.755C179.741 125.144 179.473 126.484 179.461 128.14C179.432 132.459 179.408 136.611 179.39 140.595C179.387 141.502 179.35 142.241 179.278 142.813C179.266 142.91 179.224 143.002 179.158 143.074C179.091 143.147 179.003 143.196 178.907 143.216L177.298 143.563C177.229 143.577 177.157 143.576 177.089 143.562C177.02 143.548 176.955 143.519 176.899 143.479C175.214 142.274 173.857 143.543 172.328 143.419C172.193 143.408 169.635 143.591 164.657 143.966C164.445 143.981 164.245 144.067 164.09 144.209C163.77 144.499 163.459 144.508 163.156 144.237C163.073 144.163 162.972 144.111 162.864 144.086C162.756 144.062 162.643 144.066 162.537 144.097C161.207 144.483 159.601 144.706 157.719 144.767C156.628 144.805 155.287 144.954 153.696 145.214C152.551 145.4 151.217 145.607 149.692 145.833C148.697 145.979 147.082 146.208 144.846 146.519C142.151 146.894 140.537 147.121 140.005 147.201C137.013 147.658 134.418 148.208 132.217 148.849C128.332 149.984 125.514 150.778 123.763 151.23C121.961 151.696 120.547 152.146 119.52 152.583C117.109 153.612 114.602 154.569 111.908 155.998C110.718 156.625 109.527 157.12 108.335 157.482Z" fill="#FE552E"/>
<path d="M85.0517 41.1596C85.6105 41.2022 86.1973 41.3405 86.812 41.5745C91.4236 43.3245 95.8609 45.5732 100.124 48.3205C100.231 48.3891 100.322 48.4805 100.39 48.5882C100.457 48.6958 100.5 48.8169 100.515 48.9429C100.671 50.1636 100.85 51.3006 100.85 52.4056C100.84 55.8072 100.848 58.04 100.874 59.1038C100.934 61.3578 101.369 63.5918 101.393 65.6184C101.465 72.2328 101.49 80.1729 101.469 89.4389C101.461 92.0958 101.649 95.4987 101.649 98.6064C101.673 123.551 101.674 138.775 101.653 144.281C101.647 146.137 101.737 148.197 101.92 150.46C102.075 152.34 102.081 154.408 101.94 156.664C101.938 156.696 101.929 156.727 101.913 156.755C101.897 156.783 101.875 156.806 101.848 156.824C101.822 156.843 101.791 156.854 101.76 156.859C101.728 156.864 101.695 156.861 101.665 156.851L96.304 155.072C96.155 154.269 95.6081 153.614 94.6634 153.109C86.9437 148.964 78.4775 145.98 70.0273 144.057C60.0563 141.783 50.9275 140.674 39.8628 139.362C39.1975 139.282 38.5123 139.286 37.8071 139.374C37.6939 139.387 37.5799 139.377 37.4718 139.346C36.5618 139.08 36.116 138.467 36.1346 137.507C36.1666 135.961 36.1945 131.142 36.2185 123.049C36.2265 120.109 35.963 115.505 36.2065 112.079C36.3688 109.842 36.4101 108.055 36.3303 106.717C36.293 106.124 36.2943 103.83 36.3342 99.8352C36.3475 98.3777 36.3209 96.2953 36.2544 93.5878C36.1852 90.7341 36.1945 88.649 36.2824 87.3325C36.3755 85.9389 36.3888 84.6769 36.3223 83.5466C36.2185 81.8152 36.4699 80.3511 36.4699 78.4961C36.4699 76.5679 36.4633 74.6955 36.45 72.8791C36.442 71.5267 36.1227 70.3658 36.1187 69.149C36.1054 65.6623 36.1347 61.0892 36.2065 55.4296C36.2092 55.2439 36.1918 55.0594 36.1546 54.8791C35.9338 53.7487 35.8579 52.5652 35.9271 51.3285C36.1772 46.8578 36.2464 42.4296 36.1346 38.0439C36.1309 37.9012 36.1558 37.7592 36.2079 37.6262C36.26 37.4933 36.3382 37.3721 36.4379 37.2698C36.5376 37.1676 36.6568 37.0863 36.7885 37.0308C36.9201 36.9754 37.0616 36.9468 37.2044 36.9469C38.7106 36.9442 40.423 36.8498 42.3416 36.6636C43.3155 36.5719 44.501 36.6796 45.5269 36.6038C50.7027 36.2235 55.7001 36.3352 60.5193 36.9389C62.0281 37.1251 63.9734 37.3431 66.355 37.5931C68.5065 37.8165 70.9813 38.3751 73.7874 38.8897C77.7896 39.6237 79.8759 40.0147 80.0462 40.0626C82.3134 40.7115 83.9819 41.0772 85.0517 41.1596Z" fill="#FE552E"/>
<path d="M18.0791 159.009L17.8675 155.838C17.8696 155.804 17.8582 155.771 17.8358 155.745C17.8133 155.72 17.7816 155.704 17.7478 155.702C17.7139 155.7 17.6806 155.712 17.6551 155.734C17.6297 155.756 17.6142 155.788 17.6121 155.822C17.5721 156.008 17.5548 156.219 17.5602 156.456C17.4111 154.81 17.3287 153.146 17.3127 151.466C17.2488 144.622 17.1956 137.778 17.153 130.932L17.1929 129.38C17.1934 129.368 17.1965 129.355 17.2019 129.344C17.2074 129.333 17.2151 129.323 17.2246 129.315C17.2341 129.307 17.2451 129.301 17.2569 129.298C17.2686 129.295 17.2809 129.294 17.2927 129.297C17.3539 129.307 17.4005 129.283 17.4324 129.225C17.4936 129.108 17.5242 129.029 17.5242 128.989C17.5535 118.234 17.4936 104.918 17.3446 89.04C17.3207 86.5067 17.0013 83.5706 17.181 81.3644C17.2741 80.2155 17.2634 79.3844 17.149 78.8711C17.1331 78.7916 17.1264 78.7099 17.1291 78.6277C17.2275 76.3777 17.2728 73.7953 17.2648 70.8804C17.2621 70.024 17.0679 69.5639 16.682 69.5001C16.6953 67.673 16.686 65.8006 16.6541 63.8831C16.6421 63.0772 16.7738 61.8844 16.6102 60.8312C16.5916 60.7171 16.5836 60.6009 16.5862 60.4841C16.698 56.9735 16.6288 53.5147 16.3786 50.1078C16.3268 49.4216 16.4146 48.8631 16.5184 48.2767C16.538 48.1707 16.5928 48.0745 16.6739 48.0036C16.755 47.9326 16.8578 47.8911 16.9654 47.8857L23.3999 47.5626C23.4508 47.5599 23.5017 47.5676 23.5496 47.5852C23.5974 47.6028 23.6412 47.63 23.6782 47.6651C23.7152 47.7002 23.7446 47.7425 23.7647 47.7893C23.7848 47.8362 23.7951 47.8866 23.795 47.9376C23.8509 60.1424 23.9161 68.1224 23.9906 71.8777C24.1104 77.8418 23.7112 84.6756 24.0705 90.6237C24.1702 92.2474 23.8389 94.8605 23.8709 97.0147C23.9135 99.7567 23.9587 101.672 24.0066 102.759C24.0545 103.86 24.0133 104.814 23.8829 105.62C23.6753 106.908 24.0186 108.225 24.0186 109.438C24.0212 115.438 24.0731 120.612 24.1742 124.96C24.274 129.205 23.9148 134.152 24.0705 138.428C24.1157 139.694 24.1011 141.255 24.0266 143.112C23.9387 145.258 23.9667 146.813 24.1104 147.775C24.3618 149.423 26.0303 149.81 27.7108 149.894C39.8492 150.476 52.9896 151.402 63.9744 153.125C71.2711 154.27 76.2007 155.479 84.0123 157.394C86.2662 157.947 90.0516 159.16 95.3684 161.032C96.2492 161.343 97.4094 161.86 98.849 162.584C100.331 163.331 101.897 163.851 103.547 164.144C105.881 164.561 108.191 164.273 110.477 163.278C113.784 161.842 116.392 160.709 118.3 159.879C122.51 158.044 127.03 156.718 131.86 155.902C131.987 155.88 132.111 155.843 132.231 155.79C135.161 154.501 138.997 154.13 141.651 153.544C143.383 153.161 144.533 153.161 146.521 153.017C146.839 152.994 147.152 152.932 147.455 152.834C148.249 152.583 149.031 152.287 149.898 152.223C151.933 152.068 153.833 151.581 155.901 151.37C159.038 151.045 162.712 150.71 166.922 150.364C169.279 150.17 171.298 150.085 172.977 150.109C173.443 150.117 175.465 150.112 179.044 150.093C180.745 150.085 182.43 149.762 184.102 149.124C184.276 149.056 184.434 148.951 184.563 148.816C184.692 148.681 184.789 148.519 184.848 148.342C185.29 147.017 185.472 145.577 185.395 144.021C185.391 143.962 185.371 143.905 185.336 143.858C185.301 143.81 185.254 143.774 185.199 143.754C185.101 143.717 185.018 143.65 184.952 143.555C184.901 143.485 184.907 143.376 184.968 143.227C185.133 142.826 185.25 142.511 185.319 142.282C185.398 142.028 185.435 141.764 185.427 141.5C185.327 137.495 185.646 133.118 185.662 129.807C185.7 119.805 185.696 113.826 185.65 111.871C185.568 108.472 185.541 106.434 185.57 105.755C185.626 104.431 185.618 103.455 185.547 102.827C185.403 101.587 185.67 100.318 185.586 98.9296C185.467 96.9615 185.392 94.7394 185.363 92.2634C185.291 86.1916 185.024 82.2581 184.956 76.0666C184.855 67.0745 184.876 57.6756 185.02 47.8698C185.02 47.8268 185.029 47.7844 185.047 47.7451C185.064 47.7057 185.089 47.6703 185.12 47.6409C185.151 47.6114 185.188 47.5886 185.229 47.5738C185.269 47.559 185.312 47.5524 185.355 47.5546L192.208 47.8538C192.271 47.8572 192.33 47.8815 192.378 47.9227C192.425 47.9639 192.456 48.0197 192.468 48.0812C192.62 48.9708 192.951 50.5546 192.951 51.6836C192.964 58.8059 192.975 63.153 192.983 64.7248C193.068 78.9083 193.013 98.9043 192.819 124.713C192.819 124.723 192.882 126.414 193.007 129.783C193.262 136.649 193.266 143.818 193.418 149.371C193.431 149.773 193.471 150.12 193.538 150.412C193.577 150.58 193.558 150.757 193.486 150.915C192.915 152.132 193.29 154.166 193.462 155.407C193.602 156.408 193.202 157.426 193.374 158.391C193.386 158.458 193.38 158.528 193.356 158.592C193.332 158.656 193.292 158.712 193.238 158.754C191.989 159.767 190.265 159.743 188.736 159.735C175.933 159.653 159.352 159.604 138.993 159.588C136.785 159.588 135.368 159.887 132.997 160.222C132.351 160.315 131.247 160.446 129.688 160.613C128.469 160.746 127.374 160.948 126.403 161.219C125.011 161.608 123.711 162.435 122.503 163.701C122.368 163.841 122.219 163.968 122.06 164.08C119.479 165.84 116.602 167.298 113.43 168.452C111.528 169.144 109.549 169.496 107.495 169.509C104.868 169.528 102.911 169.456 101.623 169.294C98.7413 168.931 95.7915 167.559 92.5623 165.991C89.824 164.666 87.0219 162.827 84.9104 161.491C84.3298 161.124 83.6872 160.867 83.0144 160.733C81.6546 160.459 80.1338 160.285 78.452 160.21C78.3695 160.208 73.8803 160.138 64.9843 160.003C60.6734 159.939 56.3492 159.884 52.0116 159.839C47.0035 159.789 38.1555 159.612 25.4675 159.309C22.9262 159.247 20.4634 159.148 18.0791 159.009Z" fill="#FE552E"/>
</g>
<defs>
<clipPath id="clip0_222_184">
<rect width="190" height="150" fill="white" transform="translate(10 26)"/>
</clipPath>
</defs>
</svg>
