<svg width="100" height="100" viewBox="0 0 100 100" fill="none" xmlns="http://www.w3.org/2000/svg">
<mask id="mask0_222_69" style="mask-type:luminance" maskUnits="userSpaceOnUse" x="10" y="13" width="80" height="75">
<path d="M10 13H90V87.203H10V13Z" fill="white"/>
</mask>
<g mask="url(#mask0_222_69)">
<path d="M58.8122 14.6232C47.7972 14.2752 36.7822 20.3042 28.5512 28.8842C19.3912 38.5072 19.5072 51.4932 23.6812 62.9712C25.5362 68.0732 28.7832 72.9422 33.5362 76.0732C37.9422 78.8552 43.2762 80.1302 48.6092 80.5942C70.4062 82.3342 90.0002 71.9002 89.3042 50.6812C88.9572 40.5942 85.4782 30.1592 77.8262 22.8552C71.9132 17.2902 65.3042 14.7392 58.8122 14.6232Z" fill="#FE552E" stroke="#FE552E" stroke-width="0.8" stroke-miterlimit="10"/>
<path d="M41.306 19.0293C47.799 17.2893 54.987 17.6383 61.132 20.3043C64.2124 21.5531 67.0115 23.4062 69.364 25.7543C71.684 28.3043 73.074 31.2033 74.466 34.2173C77.132 40.0143 79.915 46.3913 79.799 52.7683C79.799 55.7833 78.988 58.6813 77.017 61.0003C74.582 63.6673 70.987 65.6383 67.393 64.8263C63.335 64.0153 60.089 60.6523 58.118 57.1743C56.378 54.2753 54.176 49.2903 57.654 46.8553C58.814 45.9283 57.654 43.9573 56.494 44.8843C53.017 47.3193 53.132 51.3773 54.524 54.9713C56.031 58.7973 58.466 62.2753 61.828 64.7113C65.075 67.1453 69.364 68.0723 73.19 66.4493C76.669 64.9423 79.567 62.1593 80.959 58.6813C83.741 51.9573 81.075 44.0723 78.408 37.8113C77.016 34.3333 75.741 30.7393 73.654 27.7253C71.6504 24.5608 68.9042 21.9337 65.654 20.0723C58.35 15.5513 48.958 14.6233 40.727 16.8263C39.335 17.1743 39.914 19.3763 41.306 19.0293ZM15.103 48.4783C17.77 39.0873 21.944 29.8123 29.713 23.6673C30.872 22.7393 29.248 21.1163 28.089 22.0443C20.089 28.4203 15.683 38.1603 13.017 47.7833C12.553 49.2903 14.756 49.8703 15.103 48.4783ZM19.742 73.7543C25.538 80.4783 34.118 84.0723 42.582 86.0443C50.234 87.7833 58.35 86.2753 64.727 81.7543C68.321 79.3193 71.335 75.9573 73.19 72.0143C72.4849 71.857 71.7883 71.6634 71.103 71.4343C71.103 71.8993 70.988 72.3623 71.103 72.8263C71.103 72.9423 70.988 73.1743 70.988 73.1743C71.103 73.4063 72.843 72.9423 72.727 73.1743C72.727 73.0583 72.727 72.5943 73.075 72.2463C72.3996 72.023 71.741 71.752 71.104 71.4353C70.64 75.7253 67.161 79.2033 63.335 80.5953C61.596 81.1743 59.973 81.9853 58.234 82.5653C56.539 83.1819 54.7929 83.6477 53.016 83.9573C45.944 85.4643 38.176 85.3473 31.683 81.8703C27.98 79.9065 24.9508 76.8774 22.987 73.1743C22.292 71.8983 20.321 73.0583 21.017 74.3343C25.075 81.7543 32.263 85.9273 40.495 86.8553C44.553 87.4353 48.727 87.0873 52.785 86.3913C54.7441 85.998 56.6795 85.4948 58.582 84.8843C60.437 84.3043 62.292 83.3773 64.147 82.6813C68.901 80.9423 72.843 76.6523 73.307 71.4353C73.422 70.5073 72.031 69.9273 71.451 70.6233C70.524 71.5513 69.828 73.5223 70.988 74.5653C71.568 75.1453 72.495 75.0293 72.958 74.3333C73.422 73.5223 73.423 72.3633 73.307 71.4353C73.307 70.3913 71.799 69.8123 71.219 70.8553C68.089 77.4643 61.944 82.1013 54.872 83.7253C47.335 85.5803 39.219 83.4933 32.262 80.2463C28.205 78.2763 24.379 75.6093 21.364 72.1303C20.437 71.0873 18.815 72.7103 19.742 73.7543Z" fill="white"/>
<path d="M28.5511 65.2901C32.0301 71.0871 39.6821 71.7831 45.5951 69.5801C52.9001 67.0301 56.6101 60.1881 57.6531 52.8841C58.2331 49.4061 58.5811 45.0001 56.2621 42.1021C55.6821 41.5221 54.5221 41.8701 54.2911 42.6821C53.5951 45.5801 53.7111 48.7101 54.0591 51.7251C54.4071 54.5071 55.1031 57.6381 56.6091 60.0731C58.1171 62.5071 60.5521 64.4781 62.9871 65.8701C65.3051 67.1451 67.8571 67.8401 70.4071 67.2611C79.2181 65.4061 79.2182 53.1161 78.4072 46.2761C77.8272 41.9861 76.7842 38.0441 74.9282 34.1021C72.0302 27.9571 67.9721 22.3921 61.4791 19.6091C55.3341 17.0591 48.1462 16.3621 41.7692 18.2171C35.2762 20.0731 29.5951 24.0151 24.7261 28.6521C20.0881 33.1741 15.4501 38.3921 13.1311 44.5361C10.6971 50.7971 10.9281 57.9861 13.5951 64.1301C14.4071 65.7541 15.2181 67.2611 16.2621 68.7681C17.0741 69.9281 19.0452 68.8841 18.2322 67.6081C14.5222 62.1591 12.9001 56.1311 14.0591 49.6381C15.2191 43.4931 18.8131 38.5081 22.7551 33.9861C26.8131 29.3481 31.5662 25.2901 37.1312 22.5071C42.6972 19.6091 48.7261 18.7971 54.8711 19.9571C57.8851 20.6521 60.9001 21.5801 63.5661 23.2031C66.2331 24.9431 68.3201 27.2611 70.0591 29.9281C72.4941 33.7541 74.4652 38.0441 75.5092 42.5651C76.3192 46.2751 76.6681 50.2181 76.4361 54.1601C76.2041 57.5221 75.3921 61.3481 72.7261 63.6671C69.1311 66.7971 64.3781 64.4781 61.2471 61.9271C59.2771 60.1881 58.0011 58.2171 57.3051 55.7831C56.3781 53.0001 56.0301 49.9861 56.0301 47.0871C56.0301 45.8121 56.1461 44.5371 56.4941 43.2611L54.6391 43.725C56.2621 45.812 55.9141 49.4051 55.5661 51.8411C55.2181 54.9711 54.4061 57.9861 52.7841 60.6521C49.7691 65.9861 44.0882 68.8841 37.9432 68.4201C34.9292 68.1891 32.1462 66.7971 30.4072 64.1301C29.7112 62.8551 27.7402 64.0151 28.5522 65.2901H28.5511Z" fill="white"/>
<path d="M53.1329 41.7541C44.2059 39.6671 33.4229 43.7241 29.0169 51.9571C27.7305 54.3029 27.0532 56.9339 27.0469 59.6091C27.0469 61.1161 29.3649 61.1161 29.3649 59.6091C29.3649 48.3621 42.3509 41.5221 52.5539 43.9561C53.9449 44.3041 54.5229 42.1011 53.1329 41.7541Z" fill="white"/>
<path d="M57.4215 42.5651C55.9145 42.3331 54.5235 41.7541 53.0155 41.2901C51.3925 40.8261 49.7695 40.4781 48.1455 40.0141C46.9875 39.5511 45.9435 39.0871 44.6685 39.2031C43.2765 39.3191 41.7695 39.7831 40.6105 40.3631C38.2905 41.5221 35.9725 43.2611 34.1175 45.1161C33.1895 46.0431 32.4175 47.0861 31.7985 48.2461C31.4505 48.8261 31.2185 49.4061 30.8715 49.8691C30.4075 50.5651 29.9435 51.1451 29.5955 51.8401C28.6685 54.1601 28.0885 56.5941 27.9725 59.0291C27.8565 60.1891 27.9725 61.3481 28.4365 62.3911C28.9005 63.6671 29.8275 64.5941 30.8715 65.6381C31.7985 66.5651 32.8415 67.8411 34.0015 68.6521C34.9295 69.2321 35.9725 69.6961 37.1315 69.9271C39.4515 70.3911 42.1175 70.6231 44.5515 70.1591C47.3345 69.4641 50.0015 67.1451 52.0885 65.1741C53.0155 64.2461 53.8285 63.2031 54.6385 62.0441C55.3345 61.2321 56.1465 60.0721 56.0305 58.9131C55.9145 57.5221 53.5955 57.5221 53.8275 58.9131C53.8275 59.7251 53.1315 60.4201 52.6675 61.0001C52.0402 61.8677 51.3425 62.6821 50.5815 63.4351C48.9585 65.0581 46.8715 66.9131 44.6685 67.7251C42.8135 68.4201 40.4945 68.1881 38.5235 67.8411C37.5955 67.7251 36.6685 67.4931 35.7405 67.0291C34.6975 66.4491 33.8855 65.5221 33.0745 64.5941C32.2625 63.7831 31.1035 62.9711 30.6395 61.9281C30.1755 61.0001 30.1755 59.8411 30.2915 58.7971C30.4075 56.7101 30.8715 54.3911 31.7985 52.5371C32.3785 51.4931 33.0735 50.6811 33.5385 49.7541C34.1175 48.5941 34.8135 47.5511 35.7405 46.7391C37.3635 45.1161 39.2185 43.7251 41.1905 42.5651C42.3495 41.9851 43.7405 41.4051 45.0155 41.4051C46.2915 41.4051 47.6825 42.2171 48.9575 42.5651C50.3495 43.0291 51.8575 43.2611 53.2475 43.7251C54.6395 44.1881 56.0305 44.6521 57.4215 44.8841C58.9295 45.0001 58.9295 42.7971 57.4215 42.5651ZM77.9435 61.5801C78.8715 59.7251 80.1465 57.9861 80.4935 55.8991C80.7265 54.6231 80.6105 53.2321 80.6105 51.9571C80.6105 50.6811 80.3785 49.4061 80.1465 48.0141C79.7985 46.6241 77.5965 47.2031 77.9435 48.7101C78.1755 49.7541 78.2915 50.7971 78.2915 51.9571C78.2915 53.1161 78.4075 54.2751 78.2915 55.4351C78.0595 57.2901 76.7845 58.7971 75.9725 60.4201C75.2765 61.8121 77.2475 62.9711 77.9435 61.5801ZM15.4515 59.7251C14.9875 58.6811 14.5235 57.7541 13.7115 56.9421C13.1315 56.4781 11.9725 56.5941 11.8565 57.4061C11.3925 59.6091 10.9285 62.3911 12.4365 64.2461C12.9005 64.9421 14.2915 65.0581 14.5235 64.0151C14.8715 61.8121 14.4075 59.7251 13.2475 57.9851C12.6675 57.1741 11.7405 57.1741 11.2775 57.9851C10.3495 59.3771 10.8135 61.1161 11.3925 62.6231C12.0885 64.2461 12.6685 65.8701 13.5955 67.3771C14.5235 68.7681 15.6825 70.1591 16.8425 71.4351C17.8855 72.5951 19.1605 73.9851 20.7845 74.4491C22.1745 74.7971 22.7545 72.5941 21.3645 72.2461C20.2045 71.8991 19.2765 70.7391 18.4645 69.8121C17.5375 68.7681 16.4945 67.6091 15.6825 66.3341C14.8715 65.1741 14.2915 63.7831 13.8275 62.3911C13.4795 61.5801 12.6675 59.9571 13.2475 59.0291H11.2775C12.0885 60.4201 12.5525 61.8121 12.3205 63.3191L14.4075 63.0871C13.2475 61.6961 13.5955 59.7251 13.9435 58.1021L12.0885 58.5651C12.7845 59.1451 13.1315 60.0731 13.4795 60.8851C14.1755 62.1601 16.1475 61.0001 15.4515 59.7251Z" fill="white"/>
<path d="M15.3333 57.2903C14.5223 56.2463 13.7103 55.3193 12.8993 54.3913C12.5513 54.0443 11.9713 53.9283 11.6233 54.1603C11.1593 54.2753 10.9283 54.6233 10.9283 55.2033C10.8123 56.1303 10.9283 57.1743 11.1593 58.2173C11.3913 59.4543 11.7003 60.6913 12.0873 61.9273C12.8993 64.0143 14.0583 66.7973 16.2613 67.6093C17.6523 68.0733 18.2313 65.8693 16.8413 65.4063C17.0733 65.5223 16.7253 65.2903 16.8413 65.4063L16.6093 65.1743C16.3773 65.0583 16.7253 65.2903 16.4933 65.1743L16.2613 64.9423C15.9133 64.5943 15.7973 64.4783 15.5653 63.8993C14.9853 62.9713 14.5223 62.0443 14.1743 61.0003C13.7943 59.8692 13.5224 58.7047 13.3623 57.5223C13.2463 56.9423 13.0143 56.0143 13.1303 55.2023L11.2753 55.8993C11.9713 56.8263 12.7833 57.6383 13.3623 58.4493C13.7103 59.0293 14.4063 59.2613 14.9853 58.9133C15.4493 58.5653 15.6813 57.8703 15.3333 57.2903Z" fill="white"/>
<path d="M14.4088 64.8262C15.9158 69.9282 17.5388 76.7682 22.7568 79.3192C23.4518 79.6672 24.4958 79.3192 24.4958 78.3912C24.3798 76.5362 22.9878 74.7972 21.9448 73.4062C20.9018 72.1302 19.3948 70.2762 17.7708 69.9272C16.7278 69.6962 15.9158 70.7392 16.4958 71.5512C18.8148 75.4932 22.1758 78.7392 26.0028 81.0582C27.0468 81.7532 28.3218 80.2462 27.3938 79.3182C24.8438 76.8842 22.2928 74.6812 19.8578 72.2462C18.8148 71.2032 17.6548 70.1592 17.0758 68.8842C16.4958 67.8412 16.0318 66.6812 14.8728 66.1012C13.8288 65.7542 12.7858 66.6812 13.2488 67.7252C14.8672 70.8483 16.8522 73.7672 19.1618 76.4202C21.4818 78.9702 24.2638 81.2902 27.5098 82.4502C28.3218 82.7972 29.2498 81.8702 28.9018 81.0582C27.8578 77.5802 24.7278 75.4932 22.6408 72.8262C22.2928 72.2462 21.5968 72.0142 21.0178 72.3622C20.5538 72.5942 20.3218 73.4062 20.6698 73.8702C21.7128 75.2602 22.8728 76.4202 24.0318 77.6962C25.0758 78.8552 26.2348 80.1302 26.8148 81.6382L28.2048 80.2462C25.1908 79.2032 22.6408 76.8842 20.5538 74.5662C18.4668 72.1302 16.6118 69.4642 15.2198 66.5662C14.7567 67.1061 14.2529 67.6096 13.7128 68.0722C14.6408 68.5362 14.8728 69.8122 15.3358 70.6232C16.1478 71.8982 17.3068 72.9422 18.4658 73.9852C20.7858 76.4202 23.3358 78.6232 25.7708 80.9422C26.2348 80.3242 26.6988 79.7442 27.1618 79.2022C23.5705 77.0022 20.5512 73.9832 18.3508 70.3922C17.9699 71.0026 17.5437 71.5836 17.0758 72.1302C17.4228 72.1302 18.0028 72.5942 18.4658 72.9422C19.0661 73.5411 19.6465 74.1598 20.2058 74.7972C20.7567 75.4306 21.2242 76.132 21.5968 76.8842C21.7518 77.1162 21.9068 77.3862 22.0608 77.6962C22.0608 77.8502 22.0998 78.0052 22.1768 78.1592C22.2928 78.3912 22.1768 78.2752 22.1768 78.3912C22.7828 78.0896 23.3643 77.7408 23.9158 77.3482C21.5968 76.1882 20.2058 73.8702 19.1618 71.5512C18.0028 69.2312 17.3068 66.6812 16.6118 64.2462C16.2638 62.7392 14.0608 63.4352 14.4088 64.8262ZM32.4958 20.5362C31.4518 21.5802 30.6408 22.8552 29.9448 24.1302C29.4808 25.0582 30.5248 26.3332 31.5678 25.7542C32.9588 24.7102 34.5828 23.8982 35.2778 22.1592C35.6258 21.3482 34.5828 20.5362 33.8878 20.7692C29.8288 22.2752 27.3938 25.5222 24.0318 27.9572C24.5728 28.4202 25.0758 28.9232 25.5388 29.4642C25.9222 28.9261 26.3926 28.4556 26.9308 28.0722L25.3068 26.4492C23.3368 28.4202 20.7858 29.5792 19.5098 32.0142C18.9298 33.0582 19.9738 34.1012 21.0178 33.5222C22.1768 32.9422 23.3358 31.8992 24.3798 30.9712C25.5398 30.0442 26.9298 29.0002 27.8578 27.7252C29.1328 26.1012 27.3938 24.9422 25.7708 25.5222C24.0318 26.2172 22.6408 27.7252 21.2488 28.8842C20.4378 29.6962 19.6258 30.5072 18.9298 31.4342C18.1188 32.5942 17.5398 33.9862 17.0758 35.3772C16.6118 36.4202 17.8868 37.1162 18.6988 36.6522C20.2058 35.9562 20.9018 34.3332 21.9448 33.1742C23.2198 31.5512 24.9588 30.5072 26.3508 29.1162C27.3938 28.0722 25.8868 26.5662 24.7278 27.4932C22.6408 29.2322 20.2058 30.6232 18.4668 32.8262C16.7268 35.1452 16.0318 37.9282 14.7568 40.4782C15.4518 40.7102 16.1468 40.9812 16.8438 41.2902C18.5828 36.3042 22.6408 32.4782 25.7708 28.3042C26.5828 27.2612 24.8438 26.1012 24.0318 26.9132C19.5098 30.7392 15.5678 35.4932 14.2918 41.4062C13.9448 42.7972 16.1478 43.3762 16.4958 41.9862C17.3068 38.9712 18.9298 36.3042 19.9738 33.4062C20.3218 32.4782 19.0468 31.5512 18.3508 32.1302C13.0178 35.7252 13.2488 42.5652 11.2778 48.0142C11.9738 48.2462 12.7078 48.4402 13.4808 48.5942C13.9448 45.5802 14.9888 42.7972 16.4958 40.1302C17.0758 39.2032 15.9158 37.8122 14.9888 38.5072C14.4088 39.0872 13.3648 39.5512 13.1328 40.3622C12.9018 41.1742 13.3648 41.8702 14.1768 41.9852C15.4518 42.1012 16.4958 40.7102 16.7268 39.5512C16.8438 38.3912 15.4518 38.1592 14.7568 38.7392C11.3938 41.4062 12.2058 46.3912 12.3218 50.1012C12.4378 51.4932 14.6408 51.4932 14.6408 50.1012C14.4088 46.9712 13.5968 42.5652 16.3798 40.3622C15.731 40.0723 15.0737 39.8018 14.4088 39.5512C14.4088 39.3192 14.2928 39.5512 14.1768 39.6672C13.8288 40.2472 13.5968 38.5072 14.9888 40.0142C15.1428 40.3242 15.2588 40.5942 15.3358 40.8262C15.3358 41.2902 14.9878 41.2902 15.4518 41.0582C15.6838 40.9422 15.9158 40.5942 16.1478 40.4782C15.5877 39.9968 15.0463 39.4941 14.5248 38.9712C13.0168 41.7542 11.8578 44.7672 11.2778 48.0142C11.0458 49.5212 12.9018 49.9842 13.4808 48.5942C15.1038 43.9552 14.8728 37.1152 19.3938 34.1012C18.8718 33.6525 18.3303 33.2271 17.7708 32.8262C16.7278 35.7252 15.1038 38.3912 14.2928 41.4062C14.9888 41.6382 15.7228 41.8312 16.4958 41.9862C17.6558 36.4202 21.3658 32.1302 25.5388 28.5362C24.9744 28.0538 24.3944 27.5899 23.7998 27.1452C20.4378 31.5512 16.4958 35.4932 14.6398 40.7102C14.1768 41.8702 16.1478 42.6812 16.7278 41.5222C17.8878 39.0872 18.5828 36.4202 20.3218 34.2172C21.9448 32.1302 24.2638 30.7392 26.3508 29.1162L24.7278 27.4932C23.3358 28.7682 21.8288 29.8122 20.5538 31.2032C19.6258 32.3632 18.9308 34.1012 17.5388 34.7972C18.0798 35.1842 18.6208 35.6092 19.1618 36.0722C19.6258 34.7972 20.2058 33.5222 21.0178 32.3622C21.5978 31.6672 22.2928 31.0872 22.9878 30.5072C23.6838 29.8122 24.3798 29.1162 25.0758 28.5372C25.5388 28.3042 25.8868 28.0722 26.2348 27.8412C26.9308 27.4932 26.8148 27.8412 26.4668 27.0292C26.1188 26.2172 26.3508 26.1012 26.0028 26.4492C25.7708 26.7592 25.5388 27.0292 25.3068 27.2612C24.6303 27.8635 23.9343 28.4435 23.2198 29.0002C22.1768 29.9272 21.1328 30.9712 19.8578 31.6672C20.3988 32.1302 20.9018 32.6332 21.3648 33.1742C22.6408 30.9712 25.1908 29.8122 26.9308 28.0722C27.9738 27.0292 26.3508 25.5222 25.3068 26.4492C24.6118 27.0292 24.1468 27.6092 23.5678 28.3042C22.9878 29.2322 24.2638 30.5072 25.1908 29.9272C28.3208 27.6092 30.7568 24.3622 34.4668 22.9712L33.0748 21.5802C32.6118 22.5072 31.2198 23.2032 30.4088 23.7832C30.9488 24.2462 31.4518 24.7492 31.9158 25.2902C32.6118 24.1302 33.1908 22.9712 34.1188 22.0442C35.1618 21.1162 33.6548 19.4932 32.4958 20.5362Z" fill="white"/>
<path d="M29.4782 24.1304C30.5222 24.1304 31.4492 24.0144 32.3772 23.5504C33.4202 22.9704 34.6962 22.5074 35.7392 21.8114C36.7832 21.2314 37.3622 21.0004 38.4062 20.8844C39.2172 20.7684 40.1452 20.6524 40.7252 20.0724C41.3052 19.4924 41.0722 18.4494 40.2612 18.2174C38.0582 17.5224 35.7392 18.2174 33.7682 19.1454C32.8412 19.7254 31.7982 20.3054 30.8702 21.0004C30.4062 21.3484 29.3622 22.9704 28.5502 22.8554C28.9372 23.0874 29.2852 23.2804 29.5942 23.4354C29.5942 23.4354 29.5942 24.3624 29.4782 24.2464C29.5942 24.2464 29.7102 24.1304 29.7102 24.1304C29.8262 24.0144 30.0582 23.8984 30.1742 23.7824C30.6382 23.4734 31.1402 23.1644 31.6812 22.8554C32.7152 22.2225 33.8015 21.6795 34.9282 21.2324C36.0872 20.6524 37.3622 20.6524 38.8702 20.3044C39.9132 20.0724 41.5362 20.0724 42.1162 19.0294C42.2206 18.884 42.289 18.7159 42.3159 18.5389C42.3427 18.3619 42.3272 18.1811 42.2705 18.0113C42.2139 17.8415 42.1179 17.6875 41.9902 17.562C41.8626 17.4365 41.707 17.3431 41.5362 17.2894C40.2612 16.9424 38.9862 17.2894 37.8262 17.7534C36.5512 18.3334 35.2762 18.7974 34.0002 19.4934C32.6092 20.1884 31.3332 20.8834 30.0582 21.8124C28.5512 22.8554 26.9282 23.4354 25.3042 24.3624C25.7682 24.9034 26.2322 25.4834 26.6962 26.1024C28.1729 24.8465 29.8107 23.7935 31.5662 22.9714L30.1742 21.1164C26.9272 24.2464 22.9852 26.5664 20.2032 30.2764C17.6532 33.5224 15.1012 37.0004 13.8262 40.9424C13.4782 41.9854 13.0142 42.9124 12.8992 43.9564C12.6672 45.0004 12.6672 46.0434 12.7832 47.0864V54.5074C12.7832 56.5944 12.5512 58.7974 13.0152 60.8844C13.5952 63.2034 14.9852 64.9424 16.2612 66.7974C16.8412 67.8414 17.5362 68.7684 18.2312 69.6954C18.9272 70.6234 19.6232 71.5514 20.2032 72.5954C21.1302 74.4494 21.5942 76.4204 23.2172 77.9274C24.3772 78.8554 25.8842 77.3474 24.8412 76.3044C23.4492 75.1444 23.1012 73.4064 22.4062 71.8984C21.5942 70.1594 20.2032 68.7684 19.1592 67.1454C18.0002 65.5224 16.6092 63.7834 15.7972 61.8124C14.8702 59.9564 14.9852 57.7544 14.9852 55.6674V49.0574C14.9852 46.9714 14.7542 44.8844 15.4492 42.9134C16.1452 40.9424 16.8412 39.0874 18.0002 37.3484C19.1602 35.6084 20.2032 33.9854 21.3622 32.3624C24.2612 28.4204 28.3192 25.9854 31.7972 22.7394C32.8412 21.8114 31.5652 20.4204 30.4062 20.9994C28.5048 21.9576 26.7161 23.1248 25.0732 24.4794C24.0292 25.2894 25.4202 26.7974 26.4632 26.2174C27.8552 25.5224 29.2462 25.0574 30.5222 24.2474C31.6822 23.4354 32.8412 22.6234 34.1162 21.9274C35.2921 21.3386 36.491 20.7972 37.7102 20.3044C38.6382 19.8414 39.9132 19.2614 40.8402 19.4934C40.6128 18.9648 40.419 18.4224 40.2602 17.8694C40.4932 17.6384 40.4932 17.5994 40.2602 17.7534C40.0624 17.7618 39.867 17.8009 39.6812 17.8694C39.4188 17.9512 39.145 17.9903 38.8702 17.9854C38.1742 18.1404 37.4782 18.2554 36.7832 18.3334C35.6232 18.5654 34.6962 18.7974 33.6532 19.2614C31.7972 20.0724 29.8262 21.0004 28.3192 22.3914C27.6232 22.8554 27.1592 23.6674 27.6232 24.4784C28.3192 25.8694 30.0582 24.9424 30.8702 24.1304C31.4502 23.6674 31.7972 23.0874 32.4932 22.6234C33.1882 22.1594 33.9232 21.6954 34.6962 21.2324C36.0872 20.4204 37.9422 19.8404 39.5662 20.4204C39.4198 19.7617 39.2648 19.105 39.1012 18.4504C39.2172 18.3334 39.1012 18.4504 38.9862 18.4504C38.8702 18.4504 38.6382 18.5654 38.4062 18.5654C38.0628 18.638 37.7132 18.6769 37.3622 18.6814C36.4352 18.7974 35.7392 19.1454 34.9282 19.6094C34.1162 20.1894 33.0732 20.5364 32.1452 21.1164C31.2172 21.5804 30.6382 21.8114 29.4782 21.8114C28.0872 21.8114 28.0872 24.1314 29.4782 24.1314V24.1304Z" fill="white"/>
<path d="M27.9717 55.5501C27.9717 58.2181 26.3486 62.1601 29.2466 63.8991C30.2906 64.4791 31.3336 63.3191 30.7546 62.3911C30.5226 61.8111 30.2907 61.0011 30.0587 60.1881C29.8267 59.3771 29.3627 58.5651 28.7837 57.8701C28.0877 57.2901 27.0436 57.5221 26.8126 58.4501C25.8846 61.4641 28.0877 65.2901 30.9857 66.5651C31.4497 66.7971 31.9137 66.7971 32.2617 66.3341C32.6097 65.9861 32.7256 65.4061 32.4936 64.9421C32.2616 64.4781 31.7976 64.1311 31.5656 63.5511C31.3336 62.9711 31.3336 62.2751 31.1016 61.5801C30.8706 61.0001 30.2906 60.6521 29.7116 60.7681C29.1316 61.0001 28.6677 61.5801 28.8987 62.1601C29.1307 62.8551 29.1307 63.6671 29.4787 64.3621C29.7107 65.0581 30.1746 65.5221 30.5226 66.1021C31.0629 65.6388 31.5667 65.1347 32.0296 64.5941C30.9856 64.1311 30.1746 63.3191 29.5946 62.2761C29.2466 61.6961 29.0147 61.2321 28.8987 60.5361C28.7837 60.0731 28.8986 59.4931 29.0156 59.0291L27.1596 59.4931C27.6236 59.9571 27.7397 60.5361 27.9717 61.2321C28.2037 62.0441 28.4357 62.7391 28.8987 63.5511C29.3627 63.0101 29.8656 62.4691 30.4066 61.9281C29.9426 61.6961 29.9426 61.5801 29.8266 61.1161V59.7251C29.8266 58.3331 30.1747 56.9421 30.2907 55.5511C30.2907 54.0441 27.9717 54.0431 27.9717 55.5501ZM43.1607 39.8981L42.8127 40.2461C42.3487 40.9421 42.4646 41.9861 43.3926 42.2171C44.6676 42.5651 46.0587 42.4491 47.4497 42.3331C48.8417 42.2171 50.4647 41.8701 51.6237 42.6811C52.8997 43.4931 53.2466 44.4211 53.7106 45.8111C53.9426 46.5071 54.2906 47.0871 54.5226 47.6671C54.7546 48.4781 54.6387 49.4061 54.6387 50.3331C54.6387 51.7251 56.8417 51.7251 56.9577 50.3331C57.0727 47.4351 55.9137 44.4201 53.8277 42.4491C52.7447 41.4441 51.5077 40.7871 50.1167 40.4791C49.3047 40.3621 48.3767 40.2461 47.5667 40.1301C46.6387 40.0141 45.5947 40.2461 44.7837 40.0141L45.4787 41.6381C45.7107 41.1741 46.6387 41.4061 47.1017 41.5221C48.0297 41.8701 48.6097 42.2171 49.6527 42.2171C51.1597 42.3331 52.0876 43.9571 53.3626 44.6521C54.4066 45.1161 55.7977 43.7251 54.7547 42.9131C53.9427 42.2171 53.1307 41.8701 52.3197 41.4061L49.8846 40.0141C47.9146 39.0871 46.1747 39.5511 44.0877 39.6671C42.6967 39.6671 42.6967 41.8701 44.0877 41.8701C46.6377 41.8701 49.4207 41.2901 51.9717 41.9851C53.2467 42.4491 56.3776 44.1881 55.9136 45.9281C56.5425 45.7701 57.1618 45.5765 57.7687 45.3481C56.7257 44.4201 56.3777 42.9131 55.3337 41.8701C54.5227 40.9421 52.7837 42.1011 53.5947 43.2601C55.2177 45.6961 55.1026 48.4781 54.8706 51.2601C54.6386 52.7681 54.6387 54.2751 54.2907 55.6671C54.1747 56.3621 54.0587 57.8701 53.4787 58.2171C54.0977 58.5271 54.6766 58.8741 55.2186 59.2611C55.2186 58.5651 55.5657 57.8691 55.7987 57.1741C56.0297 56.3621 56.1457 55.4341 56.2617 54.6241C56.4937 52.8841 56.4937 51.2611 56.4937 49.5221C56.4937 48.5941 55.2176 48.0141 54.5226 48.7101C53.9426 49.5221 53.8267 50.4501 53.5947 51.3771C53.4449 52.6587 53.2514 53.9347 53.0147 55.2031C52.6677 56.9421 51.9716 58.4491 51.3916 60.0731C50.8116 61.4631 50.9286 62.9711 49.8846 64.2461C48.9566 65.4061 47.7976 66.1011 46.4066 66.3331C44.8996 66.6811 43.2767 67.0291 41.7687 67.3771C39.5657 67.8411 36.6676 68.1881 34.8126 66.7971C33.5366 65.9851 32.3776 67.9571 33.6526 68.7681C35.7396 70.2751 38.7546 70.1591 41.1886 69.6961C42.9286 69.4641 44.5517 69.0001 46.2907 68.6521C47.7977 68.4201 49.0726 67.9561 50.2326 67.0291C51.3926 66.1011 52.3197 65.0581 52.7827 63.6671C53.1307 62.8551 53.1306 61.9271 53.3626 61.1161L54.4066 58.6811C54.9866 56.9421 55.3337 55.0871 55.5667 53.3481L55.7977 51.7251C55.9137 51.3771 55.9137 50.5651 56.1457 50.3331C55.5421 50.0302 54.9229 49.7595 54.2907 49.5221C54.1747 51.2611 54.1747 53.0001 53.9427 54.8551C53.8267 55.6671 53.7107 56.3621 53.4787 57.1741C53.2467 57.8701 53.0147 58.4491 53.0147 59.2611C53.0147 60.0721 53.9427 60.6521 54.6387 60.1881C55.7987 59.4931 56.1456 58.2181 56.3776 56.9421C56.7256 55.3191 56.8417 53.6961 56.9577 51.9561C57.4207 48.4781 57.5376 45.1161 55.5656 42.1011L53.7106 43.4931C54.7546 44.5361 55.1027 45.9271 56.1457 46.9711C56.8417 47.6671 57.8857 47.3191 58.1167 46.5071C58.9287 43.8411 56.1456 41.5221 54.0586 40.4781C51.0446 38.8551 47.3337 39.5511 44.0877 39.6671V41.8701C45.8277 41.7541 47.4496 41.2901 49.0726 42.2171C49.7686 42.4491 50.3486 42.9131 51.0436 43.2611C51.7396 43.6091 52.5517 43.9561 53.1307 44.4211C53.5947 43.8791 54.0586 43.2991 54.5226 42.6811C53.5946 42.2171 53.0147 41.4061 52.2027 40.8261C51.7397 40.4781 51.3927 40.2461 50.8127 40.1301C50.2327 39.8981 49.4207 40.0141 48.8417 39.7821C46.9866 39.0871 44.6677 38.5071 43.5077 40.4781C43.0447 41.1741 43.5076 41.9851 44.2036 42.2181C44.8996 42.3331 45.4787 42.3331 46.1737 42.3331C46.8707 42.2171 47.6816 42.3331 48.3776 42.4491C49.6526 42.6811 50.9277 43.0291 51.9717 43.8411C53.8267 45.3481 54.7547 47.8981 54.6387 50.3331H56.9577C56.9577 49.4061 56.9577 48.3631 56.8417 47.4351C56.6097 46.6231 56.0297 45.8121 55.7977 44.8841C55.3337 43.4931 54.8707 42.2171 53.5947 41.2901C53.0147 40.8261 52.3197 40.3621 51.6247 40.1301C50.8127 39.8981 50.0006 40.0141 49.0726 40.0141C47.4496 40.1301 45.5947 40.4781 43.9717 40.0141L44.4357 41.8691C44.5127 41.7921 44.5897 41.6761 44.6677 41.5221C45.5947 40.3621 43.9717 38.8551 43.1597 39.8991L43.1607 39.8981Z" fill="white"/>
<path d="M55.1019 45.8121C55.1019 50.1021 55.1019 54.6231 56.6099 58.6821C57.3049 60.4201 57.7699 62.2751 59.2759 63.3191C60.7839 64.5941 62.2909 65.7541 64.1459 66.5651C66.9279 67.9571 70.6389 68.5361 73.4209 66.9131C74.9279 65.9861 76.5509 65.0581 77.0149 63.2031C77.4789 61.3481 77.8269 59.7251 78.9869 58.1011C80.2619 56.4781 79.6819 54.2761 79.6819 52.3041C79.6819 51.1451 79.7979 49.9861 79.6819 48.8261C79.5659 47.6661 78.8709 46.6231 78.8709 45.3481C78.9859 43.9571 76.6679 43.9571 76.6679 45.3481C76.5519 46.1601 76.7839 46.9711 77.0149 47.6671C77.3629 48.5941 77.4789 49.4061 77.4789 50.4491C77.4789 52.0731 77.5949 53.8121 77.5949 55.4351C77.5949 56.3621 77.2469 56.7101 76.7839 57.4051C76.3199 57.9851 76.0879 58.7971 75.7399 59.4931C75.4179 60.2472 75.1467 61.0219 74.9279 61.8121C74.8129 62.7391 74.6969 63.4351 73.8849 64.0151C72.8419 64.8261 71.5659 65.5221 70.1749 65.5221C68.7839 65.6381 67.2759 65.4061 66.0009 64.9421C64.4939 64.3621 62.9869 63.4351 61.7109 62.3921C61.1309 62.0441 60.4359 61.5801 60.0879 61.1161C59.5079 60.4201 59.2759 59.2611 58.9279 58.4491C57.3049 54.5071 57.3049 50.1021 57.3049 45.8121C57.3049 44.3041 55.1019 44.3041 55.1019 45.8121ZM14.7549 38.2751C13.7109 39.5511 13.1309 40.9421 12.6679 42.5651C12.0879 44.3051 11.5079 46.0441 11.0449 47.8991C10.0009 51.8411 9.88494 55.7831 10.6969 59.7251C11.0449 61.5801 11.5079 63.4351 12.3199 65.1741C13.0149 66.7971 14.0589 68.1881 14.8699 69.6961C16.2619 72.2461 17.0739 75.1451 19.0449 77.2321C20.5519 78.9711 24.9569 81.5221 26.9279 79.2021C27.8559 78.0431 26.3479 76.5361 25.3049 77.5801C24.7249 78.3911 22.4069 77.0001 21.7109 76.5361C20.4359 75.8411 19.7409 74.4491 19.0449 73.1741C18.3489 71.7831 17.7689 70.2751 16.9569 68.8841C16.1459 67.2611 15.1029 65.7541 14.2909 64.0141C12.5509 60.1881 11.9719 55.3191 12.6679 51.1441C13.0159 49.0581 13.5949 46.9711 14.2909 44.8841C14.8709 43.2611 15.2179 41.2901 16.3779 39.8981C17.3049 38.7391 15.6819 37.1161 14.7549 38.2751ZM31.7979 82.9131C33.5379 82.9131 34.9279 83.8411 36.5519 84.3041C38.4069 84.8841 40.2619 84.6521 42.1169 84.8841C43.1599 85.0001 44.0869 85.2321 45.1309 85.3481C46.0589 85.4641 46.9859 85.4641 47.9139 85.5801C49.8849 86.0431 51.7399 86.1601 53.7109 86.0431C55.4918 85.8107 57.2416 85.3832 58.9289 84.7681C59.8559 84.5361 60.6679 84.0731 61.4789 83.8411C62.2909 83.4931 63.2189 83.3771 63.9139 83.0291C65.6539 82.4491 66.8129 81.1741 67.8559 79.7831C68.4359 78.9711 68.8989 78.2751 69.5959 77.4631C70.1749 76.7681 70.6389 76.1881 70.8709 75.2611C71.2179 74.4491 70.0589 73.4061 69.2469 73.9861C67.0439 75.6091 65.1889 77.4641 62.9869 79.0871C60.7839 80.5941 58.2329 80.8271 55.7979 81.5221C54.6379 81.7541 53.7109 82.3331 52.5519 82.9131C51.5079 83.3771 50.4649 83.1451 49.4219 83.1451C48.1459 83.1451 46.9869 83.3771 45.7119 83.7251C44.3199 84.0731 42.6969 83.8411 41.3049 83.8411C39.7979 83.8411 39.7979 86.0441 41.3049 86.0441C42.6969 86.0441 44.2039 86.2751 45.5949 86.0441C46.9869 85.8121 48.2619 85.3481 49.6529 85.4641C50.8129 85.4641 51.9719 85.5801 53.0149 85.1161C54.1749 84.6521 55.2179 83.9561 56.4939 83.6091C58.9279 82.9131 61.3639 82.6811 63.5659 81.4061C66.0009 79.7831 67.9719 77.5801 70.4059 75.9561C69.8217 75.5379 69.2423 75.1128 68.6679 74.6811C68.4359 75.4931 67.7399 76.0731 67.2759 76.6521C66.8129 77.3481 66.2329 78.1591 65.7689 78.8551C65.1889 79.5511 64.6089 80.2461 63.7989 80.5951C63.1019 81.0581 62.2909 81.1741 61.5949 81.4051C59.9719 81.8701 58.4649 82.6811 56.8419 83.1451C55.1419 83.6091 53.4409 83.8411 51.7399 83.8411C50.0009 83.8411 48.4939 83.2611 46.7549 83.1451C44.8999 83.1451 43.1599 82.6811 41.3049 82.5651C39.4499 82.4491 37.8269 82.4491 36.0879 81.7541C34.6969 81.1741 33.4209 80.7101 31.7979 80.5941C30.2909 80.5941 30.2909 82.9131 31.7979 82.9131Z" fill="white"/>
</g>
</svg>
