<svg width="200" height="200" viewBox="0 0 200 200" fill="none" xmlns="http://www.w3.org/2000/svg">
<g clip-path="url(#clip0_222_183)">
<path d="M161.523 36.6511C164.977 37.2673 169.24 38.3958 174.311 40.0365C186.155 43.8788 190.155 53.2873 190.124 64.8765C190.069 84.5173 190.152 108.135 190.373 135.731C190.404 138.888 190.062 143.8 188.984 147.081C186.794 153.727 182.508 158.999 176.124 162.897C171.53 164.157 168.597 164.873 167.326 165.047C158.628 166.23 150.238 166.691 142.155 166.428C136.653 166.251 132.311 167.04 126.943 167.186C119.696 167.38 112.021 167.549 103.917 167.695C93.119 167.882 75.5231 168.837 61.3055 168.401L29.3159 167.798C27.3953 167.653 23.6924 167.051 18.2071 165.992C4.60084 163.354 0.777003 152.502 0.631926 140.144C0.34177 115.56 0.331409 91.7069 0.600839 68.5838C0.673378 61.8961 1.31587 51.0754 5.70965 45.665C9.5093 40.9919 13.7476 38.06 18.4247 36.8692C20.5732 36.3223 24.7114 35.8584 30.8392 35.4777C34.701 35.2354 43.606 35.3392 57.5542 35.7892C60.8841 35.8931 63.6855 35.8827 65.9583 35.7581C70.0723 35.5192 73.2744 36.5681 77.1293 36.4642C78.2692 36.4365 83.6751 36.4296 93.3469 36.4434C96.3936 36.4434 99.4402 36.2634 102.487 35.9034C106.311 35.4465 110.383 35.945 114.704 35.7061C119.81 35.4154 125.295 35.36 131.16 35.54C133.917 35.6231 138.052 35.0415 140.155 35.3011C147.34 36.1873 154.463 36.6373 161.523 36.6511ZM25.5335 41.3865C17.2226 41.9888 9.77182 46.1531 7.64747 54.5646C6.54902 58.94 5.96871 62.3842 5.90653 64.8973C5.28477 91.1288 5.23987 116.481 5.77182 140.954C5.834 143.758 6.31413 146.707 7.21223 149.802C8.67683 154.821 11.9411 158.21 17.005 159.968C19.2848 160.765 23.2951 161.305 29.0361 161.588C30.4178 161.838 32.3349 161.987 34.7874 162.035C50.6146 162.353 60.5041 162.443 64.4557 162.305C71.1984 162.077 77.9514 161.993 84.7148 162.056C90.891 162.118 98.5283 161.37 104.414 161.37C119.689 161.377 137.71 161.024 158.476 160.311C168.715 159.958 181.388 156.718 183.865 145.015C184.742 140.888 185.226 136.409 185.316 131.577C185.419 126.565 185.257 104.414 184.829 65.1258C184.715 54.8138 180.269 46.6931 169.761 44.0554C163.62 42.5046 158.193 41.6011 153.482 41.345C142.456 40.7219 127.181 40.6284 113.606 40.9504C87.188 41.5734 60.9773 41.5838 34.9739 40.9815C33.0533 40.94 29.9065 41.075 25.5335 41.3865Z" fill="#FEFEFE"/>
<path d="M176.124 162.897C182.508 158.999 186.795 153.728 188.985 147.081C190.062 143.8 190.404 138.888 190.373 135.731C190.152 108.136 190.069 84.5175 190.124 64.8767C190.156 53.2875 186.156 43.8791 174.311 40.0367C169.24 38.396 164.978 37.2675 161.523 36.6514C166.684 35.9383 171.886 36.0214 177.13 36.9006C183.831 38.0291 189.375 40.691 193.762 44.8864C198.56 49.466 199.368 56.5068 199.327 63.3502C199.257 75.5418 199.254 100.884 199.316 139.376C199.33 147.511 195.831 153.811 188.819 158.276C184.729 160.872 180.498 162.413 176.124 162.897Z" fill="#FE552E"/>
<path d="M29.036 161.589C29.6094 161.381 29.3538 160.907 28.2692 160.166C25.2502 158.124 22.1794 155.05 19.0567 150.944C17.53 148.944 16.4004 146.382 15.6681 143.26C14.6042 138.697 14.0688 135.928 14.0619 134.952C13.7925 107.059 13.827 87.3593 14.1655 75.8532C14.2415 73.2709 14.4004 70.962 14.6422 68.9266C14.6975 68.4697 14.9946 66.1782 15.5334 62.052C16.5352 54.4505 19.8685 47.562 25.5334 41.3866C29.9065 41.0751 33.0533 40.9401 34.9738 40.9816C60.9773 41.5839 87.188 41.5736 113.606 40.9505C127.181 40.6286 142.456 40.722 153.482 41.3451C158.193 41.6013 163.62 42.5047 169.761 44.0555C180.269 46.6932 184.715 54.8139 184.829 65.1259C185.257 104.414 185.419 126.565 185.316 131.577C185.226 136.409 184.742 140.889 183.865 145.015C181.388 156.718 168.715 159.958 158.476 160.311C137.71 161.024 119.689 161.377 104.414 161.37C98.5282 161.37 90.8909 162.118 84.7148 162.056C77.9514 161.994 71.1984 162.077 64.4557 162.305C60.5041 162.444 50.6146 162.354 34.7873 162.035C32.3348 161.987 30.4177 161.838 29.036 161.589ZM73.7303 133.374C74.1241 133.027 74.9013 132.57 76.0619 132.003C89.5127 125.53 103.129 118.669 116.912 111.42C123.205 108.111 128.884 105.328 133.948 103.071C134.839 102.677 135.312 101.922 135.368 100.807C135.492 98.4605 131.782 96.7886 129.844 95.8643C111.986 87.4113 93.1845 79.4601 73.4402 72.0109C72.9061 71.808 72.3205 71.7854 71.7724 71.9466C71.2244 72.1078 70.7438 72.444 70.4039 72.9039C67.5749 76.7255 68.1034 87.2659 68.1137 93.6732C68.1483 112.85 68.2312 124.699 68.3624 129.22C68.4592 132.425 69.9445 133.941 72.8184 133.768C73.1592 133.748 73.4821 133.609 73.7303 133.374Z" fill="#FE552E"/>
<path d="M72.8205 133.768C69.9466 133.941 68.4612 132.425 68.3645 129.22C68.2333 124.699 68.1504 112.85 68.1158 93.6733C68.1055 87.2659 67.577 76.7256 70.406 72.904C70.7459 72.444 71.2264 72.1079 71.7745 71.9467C72.3226 71.7855 72.9082 71.808 73.4422 72.0109C93.1866 79.4602 111.988 87.4113 129.846 95.8644C131.784 96.7886 135.494 98.4606 135.37 100.807C135.314 101.922 134.841 102.677 133.95 103.071C128.886 105.328 123.207 108.111 116.914 111.421C103.131 118.669 89.5148 125.53 76.064 132.003C74.9034 132.571 74.1262 133.027 73.7324 133.374C73.4842 133.609 73.1613 133.748 72.8205 133.768ZM126.582 100.153C125.062 99.0871 124.016 98.4294 123.442 98.1802C105.363 90.2948 88.9621 83.4617 74.2402 77.6809C74.2076 77.6679 74.1724 77.6627 74.1375 77.6655C74.1025 77.6683 74.0687 77.6792 74.0386 77.6973C74.0085 77.7154 73.983 77.7402 73.964 77.7698C73.9451 77.7994 73.9332 77.8329 73.9293 77.8679C73.2661 82.8109 72.9241 88.2525 72.9034 94.1925C72.8896 99.3294 73.0347 110.161 73.3386 126.686C73.3411 126.796 73.3713 126.904 73.4264 126.999C73.4814 127.094 73.5596 127.174 73.6536 127.231C73.7476 127.288 73.8545 127.32 73.9643 127.325C74.0741 127.329 74.1832 127.306 74.2816 127.257L126.52 100.984C126.596 100.945 126.66 100.888 126.707 100.817C126.754 100.747 126.783 100.665 126.789 100.581C126.795 100.497 126.779 100.414 126.743 100.339C126.707 100.263 126.651 100.2 126.582 100.153Z" fill="#FEFEFE"/>
<path d="M126.582 100.153C126.651 100.199 126.707 100.263 126.743 100.338C126.779 100.414 126.795 100.497 126.789 100.581C126.782 100.665 126.754 100.746 126.707 100.817C126.66 100.888 126.595 100.945 126.52 100.984L74.2815 127.257C74.1831 127.306 74.0739 127.329 73.9641 127.325C73.8544 127.32 73.7475 127.288 73.6535 127.231C73.5594 127.174 73.4813 127.094 73.4262 126.999C73.3711 126.903 73.341 126.796 73.3385 126.686C73.0345 110.16 72.8894 99.3292 72.9032 94.1923C72.924 88.2523 73.2659 82.8107 73.9291 77.8677C73.933 77.8327 73.9449 77.7992 73.9639 77.7696C73.9828 77.74 74.0083 77.7152 74.0384 77.6971C74.0685 77.679 74.1023 77.6681 74.1373 77.6653C74.1723 77.6625 74.2074 77.6677 74.24 77.6807C88.962 83.4615 105.363 90.2946 123.442 98.18C124.015 98.4292 125.062 99.0869 126.582 100.153Z" fill="#FE552E"/>
<path d="M61.306 168.401C54.6256 169.197 47.9278 169.408 41.2128 169.034C41.0818 169.028 40.9537 168.995 40.8362 168.938C40.7187 168.88 40.6141 168.8 40.5288 168.702C40.5081 168.674 40.4839 168.584 40.4563 168.432C40.4514 168.405 40.4373 168.381 40.4164 168.364C40.3955 168.347 40.3693 168.338 40.3423 168.338L29.3164 167.798L61.306 168.401Z" fill="#FE552E"/>
</g>
<defs>
<clipPath id="clip0_222_183">
<rect width="200" height="135" fill="white" transform="translate(0 35)"/>
</clipPath>
</defs>
</svg>
