<svg width="100" height="100" viewBox="0 0 100 100" fill="none" xmlns="http://www.w3.org/2000/svg">
<mask id="mask0_222_84" style="mask-type:luminance" maskUnits="userSpaceOnUse" x="4" y="21" width="92" height="70">
<path d="M4 21H96V91H4V21Z" fill="white"/>
</mask>
<g mask="url(#mask0_222_84)">
<path d="M12.4023 24.3249L13.4633 65.0999L43.8063 66.4999C42.6563 72.7999 38.9403 83.9999 38.6753 90.3869C38.7633 89.1619 46.6373 81.6369 47.9633 80.5869C51.0593 78.1369 53.3593 75.5999 55.7483 72.8869C58.9333 69.2119 69.0183 72.2749 73.8833 72.0999L88.5673 71.5749C94.9373 71.3999 95.4673 69.7369 94.9373 63.4369C94.7603 60.3749 93.5213 23.2749 94.3173 23.2749L12.4023 24.3249Z" fill="#FE552E" stroke="#FE552E" stroke-width="0.8" stroke-miterlimit="10"/>
<path d="M25.1415 40.1632C25.0825 40.1042 24.9945 40.0752 24.8765 40.0752V41.0372C25.8495 40.7752 26.7345 41.1252 27.7065 41.2122C28.5035 41.2122 29.3875 41.2122 30.2725 41.1252C31.9525 41.0382 33.6345 40.7752 35.4025 40.6872C37.2605 40.6002 39.1185 40.6002 40.9765 40.6002C42.8345 40.5132 44.6915 40.6002 46.5495 40.6872C49.9995 40.9502 53.5385 40.7752 57.0765 40.4252C58.8465 40.2502 60.5265 40.0752 62.2965 40.2502C64.0645 40.5132 65.8345 40.1632 67.5145 39.9872C68.2225 39.9002 68.1345 38.8502 67.4265 38.9372C65.5685 39.1122 63.7995 39.2872 61.8535 39.1122C60.1735 38.9372 58.4915 39.2002 56.8115 39.3752C53.0955 39.7252 49.3805 39.9002 45.6645 39.5502C43.9845 39.4632 42.3035 39.4632 40.6225 39.4632C38.6765 39.5502 36.8185 39.4632 34.9615 39.6382C33.1035 39.8132 31.3345 40.0752 29.4765 40.1632C27.7965 40.1632 26.1145 39.5502 24.5225 39.9882C23.9925 40.1632 23.9925 40.7752 24.4345 41.0382C24.4935 41.0382 24.5815 41.0672 24.6995 41.1252C25.3195 41.3882 25.7615 40.4252 25.1415 40.1632ZM25.9385 49.5252L25.8495 49.4382C25.7315 49.6132 25.5845 49.7582 25.4075 49.8752C25.9375 49.8752 26.4685 50.0502 26.9995 49.9632C27.7075 49.9632 28.3265 49.8752 29.0345 49.8752C30.6265 49.7882 32.1305 49.6132 33.6345 49.6132C35.1385 49.6132 36.5535 49.7882 37.9685 49.7882C39.5615 49.7882 41.0645 49.8752 42.6575 49.7882C45.7535 49.7002 48.7605 49.6132 51.8575 49.4382C54.8645 49.3502 57.8725 49.7882 60.8805 49.5252C62.4725 49.4382 64.0645 49.5252 65.5685 49.4382C66.4558 49.3794 67.3409 49.2917 68.2225 49.1752C68.9305 49.0882 69.6375 49.2632 70.3455 49.2632C71.0535 49.2632 70.9655 48.2132 70.2575 48.2132C69.6375 48.2132 69.1075 48.0382 68.5765 48.0382C67.8095 48.1542 67.0725 48.2422 66.3645 48.3002C64.8615 48.3882 63.4455 48.3002 61.9415 48.3882C60.4375 48.4752 58.9345 48.5632 57.3415 48.4752C55.9265 48.3882 54.5115 48.3002 53.0075 48.3002C46.9035 48.5632 40.7105 49.0002 34.5185 48.5632C32.9265 48.4752 31.3345 48.7382 29.7415 48.7382C28.9455 48.8252 28.1495 48.8252 27.3535 48.9132C26.6455 48.9132 26.0265 48.8252 25.3185 48.8252C25.0535 48.8252 24.8765 49.0002 24.7885 49.2632C24.7885 49.5252 24.7885 49.6132 24.8765 49.8752C25.1415 50.5752 26.2035 50.1382 25.9385 49.5252Z" fill="white"/>
<path d="M26.7345 39.9002C26.7345 39.8422 26.7045 39.7832 26.6455 39.7252L26.2915 40.6002C26.8225 40.6002 27.4415 40.7752 27.9725 40.7752C28.6805 40.8622 29.3885 40.6872 30.0955 40.6872C31.4225 40.6872 32.7495 40.9502 34.0755 40.8622C36.9075 40.7752 39.7385 40.6872 42.5685 40.5122C43.9845 40.3372 45.3995 40.5122 46.8145 40.4252C48.2305 40.4252 49.7345 40.3372 51.2385 40.2502C54.1575 40.1622 57.0765 39.7252 59.9955 39.5502C61.4105 39.4622 62.8255 39.7252 64.2415 39.8122C65.8345 39.8122 67.3375 39.4622 68.8415 39.6372C69.5495 39.7252 69.7265 38.6752 69.0185 38.5872C67.7805 38.5002 66.6305 38.6752 65.3915 38.7622C64.0645 38.7622 62.8265 38.5872 61.4995 38.4122C60.0845 38.3252 58.5795 38.5872 57.2535 38.7622L52.6535 39.1122C49.8235 39.3752 46.9035 39.3752 43.9835 39.3752C42.5685 39.3752 41.1535 39.5502 39.7385 39.5502C38.2345 39.6372 36.8185 39.6372 35.4035 39.7252C34.5185 39.8122 33.7235 39.8122 32.9265 39.8122C32.1305 39.8122 31.4225 39.6372 30.6265 39.6372C29.9185 39.5502 29.1225 39.7252 28.4145 39.7252C27.6185 39.7252 26.9115 39.5502 26.2035 39.5502C25.7615 39.5502 25.5835 40.0752 25.7615 40.3372C25.8195 40.3962 25.8495 40.4542 25.8495 40.5122C26.2915 41.1252 27.1765 40.5122 26.7345 39.9002ZM25.2295 49.6122C25.7615 50.4872 27.5295 50.1372 28.4145 50.1372C29.2115 50.0502 30.0075 50.1372 30.8035 50.1372C31.5995 50.2252 32.4835 49.9622 33.3685 49.8752C35.1385 49.7872 36.8185 50.0502 38.5885 50.1372C40.4755 50.1372 42.3325 50.1082 44.1605 50.0502C47.7875 49.8752 51.3265 49.0002 55.0415 49.0872C56.8115 49.0872 58.5805 49.1752 60.4375 49.0872C62.2665 48.9122 64.1235 48.7372 66.0105 48.5622C67.0449 48.5015 68.0775 48.4141 69.1075 48.3002C69.5769 48.2419 70.0494 48.2125 70.5225 48.2122C70.9645 48.2122 71.4075 48.3872 71.7615 48.3872C71.8495 48.3872 72.5575 48.4752 71.5845 48.2122C71.4075 48.1252 70.9645 48.2122 70.6995 48.2122C70.2575 48.2122 69.8145 48.1252 69.3725 48.0372C68.4875 47.8622 67.4265 47.8622 66.5425 47.8622C65.8345 47.8622 65.9225 48.9122 66.6305 48.9122C67.6035 49.0002 68.5765 49.0002 69.5495 49.1752C70.1695 49.2622 71.0535 49.4372 71.6725 49.2622C72.5575 49.0872 73.7075 47.9502 72.4685 47.4252C71.1415 46.9002 69.2845 47.1622 67.9575 47.3372L61.9415 47.8622C59.9955 48.0372 58.0495 48.1252 56.1035 48.0372C54.1575 47.9502 52.2115 48.1252 50.2645 48.3002C46.1955 48.6502 42.2145 49.2622 38.1455 49.0002C36.1105 48.9122 33.9885 48.6502 31.9535 49.0002C30.9805 49.1752 29.9185 49.0002 28.9455 49.0002H27.3535C27.1765 49.0002 26.2035 49.1752 26.1145 49.0002C25.7615 48.3872 24.8765 49.0002 25.2305 49.6122H25.2295Z" fill="white"/>
<path d="M69.6345 38.5869C69.2815 38.6749 68.8385 38.7619 68.4845 38.8499C67.9545 38.9369 67.3345 38.9369 66.8045 38.9369C65.6545 39.1119 64.4155 39.0249 63.2655 39.1119C62.5585 39.1999 62.6465 40.2499 63.3545 40.2499C64.5045 40.1619 65.7425 40.1619 66.8925 40.0749C67.4225 39.9869 67.8655 39.9869 68.3965 39.9869C68.8385 39.8999 69.2815 39.7249 69.7235 39.7249C70.4315 39.6369 70.3435 38.5869 69.6345 38.5869Z" fill="white"/>
<path d="M26.9121 41.0382C26.8521 40.9792 26.7641 40.9502 26.6461 40.9502V41.9122C27.6191 41.6502 28.5041 42.0002 29.4761 42.0872C30.2731 42.0872 31.1581 42.0872 32.0421 42.0002C33.7231 41.9132 35.4041 41.6502 37.1731 41.5622C39.0311 41.4752 40.8881 41.4752 42.7461 41.4752C44.6041 41.3882 46.4611 41.4752 48.3191 41.5622C51.7691 41.8252 55.3081 41.6502 58.8461 41.3002C60.6161 41.1252 62.2961 40.9502 64.0661 41.1252C65.8351 41.3882 67.6041 41.0382 69.2851 40.8622C69.9921 40.7752 69.9041 39.7252 69.1961 39.8122C67.3381 39.9872 65.5691 40.1622 63.6231 39.9872C61.9431 39.8122 60.2621 40.0752 58.5811 40.2502C54.8651 40.6002 51.1501 40.7752 47.4351 40.4252C45.7541 40.3382 44.0731 40.3382 42.3921 40.3382C40.4461 40.4252 38.5891 40.3382 36.7311 40.5132C34.8731 40.6882 33.1041 40.9502 31.2461 41.0382C29.5661 41.0382 27.8851 40.4252 26.2921 40.8632C25.7621 41.0382 25.7621 41.6502 26.2041 41.9132C26.2631 41.9132 26.3511 41.9422 26.4691 42.0002C27.0891 42.2632 27.5311 41.3002 26.9111 41.0382H26.9121ZM27.7081 50.4002L27.6191 50.3132C27.5011 50.4882 27.3541 50.6332 27.1771 50.7502C27.7071 50.7502 28.2381 50.9252 28.7691 50.8382C29.4771 50.8382 30.0961 50.7502 30.8041 50.7502C32.3961 50.6632 33.9001 50.4882 35.4041 50.4882C36.9081 50.4882 38.3241 50.6632 39.7381 50.6632C41.3311 50.6632 42.8351 50.7502 44.4271 50.6632C47.5231 50.5752 50.5311 50.4882 53.6271 50.3132C56.6351 50.2252 59.6421 50.6632 62.6501 50.4002C64.2421 50.3132 65.8351 50.4002 67.3381 50.3132C68.2254 50.2545 69.1105 50.1668 69.9921 50.0502C70.7001 49.9632 71.4081 50.1382 72.1151 50.1382C72.8231 50.1382 72.7351 49.0882 72.0271 49.0882C71.4071 49.0882 70.8771 48.9132 70.3471 48.9132C69.5801 49.0292 68.8421 49.1172 68.1351 49.1752C66.6311 49.2632 65.2151 49.1752 63.7111 49.2632C62.2081 49.3502 60.7041 49.4382 59.1111 49.3502C57.6961 49.2632 56.2811 49.1752 54.7771 49.1752C48.6731 49.4382 42.4811 49.8752 36.2881 49.4382C34.6961 49.3502 33.1041 49.6132 31.5121 49.6132C30.7151 49.7002 29.9191 49.7002 29.1231 49.7882C28.4151 49.7882 27.7961 49.7002 27.0881 49.7002C26.8231 49.7002 26.6461 49.8752 26.5581 50.1382C26.5581 50.4002 26.5581 50.4882 26.6461 50.7502C26.9111 51.4502 27.9731 51.0132 27.7081 50.4002Z" fill="white"/>
<path d="M28.504 40.7752C28.504 40.7172 28.474 40.6582 28.415 40.6002L28.061 41.4752C28.592 41.4752 29.211 41.6502 29.742 41.6502C30.45 41.7372 31.158 41.5622 31.865 41.5622C33.192 41.5622 34.519 41.8252 35.846 41.7372C38.676 41.6502 41.508 41.5622 44.339 41.3872C45.754 41.2122 47.169 41.3872 48.585 41.3002C50 41.3002 51.504 41.2122 53.008 41.1252C55.927 41.0372 58.846 40.6002 61.765 40.4252C63.181 40.3372 64.596 40.6002 66.011 40.6872C67.604 40.6872 69.108 40.3372 70.611 40.5122C71.319 40.6002 71.496 39.5502 70.788 39.4622C69.55 39.3752 68.4 39.5502 67.162 39.6372C65.835 39.6372 64.596 39.4622 63.269 39.2872C61.854 39.2002 60.35 39.4622 59.023 39.6372L54.423 39.9872C51.593 40.2502 48.673 40.2502 45.753 40.2502C44.339 40.2502 42.923 40.4252 41.508 40.4252C40.004 40.5122 38.588 40.5122 37.173 40.6002C36.288 40.6872 35.493 40.6872 34.696 40.6872C33.9 40.6872 33.192 40.5122 32.396 40.5122C31.689 40.4252 30.892 40.6002 30.185 40.6002C29.389 40.6002 28.681 40.4252 27.973 40.4252C27.531 40.4252 27.353 40.9502 27.531 41.2122C27.59 41.2712 27.619 41.3292 27.619 41.3872C28.061 42.0002 28.946 41.3872 28.504 40.7752ZM27 50.4872C27.53 51.3622 29.3 51.0122 30.185 51.0122C30.981 50.9252 31.777 51.0122 32.573 51.0122C33.369 51.1002 34.253 50.8372 35.139 50.7502C36.908 50.6622 38.589 50.9252 40.358 51.0122C42.245 51.0122 44.103 50.9832 45.931 50.9252C49.558 50.7502 53.096 49.8752 56.811 49.9622C58.581 49.9622 60.35 50.0502 62.208 49.9622C64.0654 49.7845 65.9231 49.6095 67.781 49.4372C68.8151 49.3764 69.8474 49.2891 70.877 49.1752C71.3464 49.1169 71.819 49.0875 72.292 49.0872C72.735 49.0872 73.177 49.2622 73.531 49.2622C73.619 49.2622 74.327 49.3502 73.354 49.0872C73.177 49.0002 72.734 49.0872 72.469 49.0872C72.027 49.0872 71.585 49.0002 71.142 48.9122C70.258 48.7372 69.196 48.7372 68.312 48.7372C67.604 48.7372 67.692 49.7872 68.4 49.7872C69.373 49.8752 70.346 49.8752 71.32 50.0502C71.939 50.1372 72.823 50.3122 73.442 50.1372C74.327 49.9622 75.477 48.8252 74.239 48.3002C72.911 47.7752 71.054 48.0372 69.727 48.2122L63.711 48.7372C61.765 48.9122 59.819 49.0002 57.873 48.9122C55.927 48.8252 53.981 49.0002 52.035 49.1752C47.965 49.5252 43.985 50.1372 39.915 49.8752C37.881 49.7872 35.758 49.5252 33.723 49.8752C32.75 50.0502 31.689 49.8752 30.715 49.8752H29.123C28.946 49.8752 27.973 50.0502 27.885 49.8752C27.531 49.2622 26.646 49.8752 27 50.4872Z" fill="white"/>
<path d="M71.4082 39.4619C71.0542 39.5499 70.6122 39.6369 70.2582 39.7249C69.7272 39.8119 69.1082 39.8119 68.5772 39.8119C67.4272 39.9869 66.1892 39.8999 65.0392 39.9869C64.3312 40.0749 64.4192 41.1249 65.1272 41.1249C66.2772 41.0369 67.5152 41.0369 68.6652 40.9499C69.1962 40.8619 69.6382 40.8619 70.1692 40.8619C70.6122 40.7749 71.0542 40.5999 71.4962 40.5999C72.2042 40.5119 72.1162 39.4619 71.4082 39.4619ZM4.9732 25.1999C4.9732 30.4499 4.7962 35.7879 4.9732 41.1249C5.1502 43.6629 5.3272 46.1999 5.5032 48.6499C5.5932 51.3629 5.5032 53.9869 5.5032 56.6999C5.5032 57.9249 5.5032 59.1499 5.5932 60.3749C5.7692 61.6879 5.9462 62.9129 5.9462 64.2249C6.0352 65.6249 6.0352 66.9379 7.6262 67.1999C8.6002 67.4629 9.7502 67.3749 10.7232 67.3749C12.0791 67.3167 13.4361 67.2877 14.7932 67.2879C17.3582 67.2879 19.9232 67.1129 22.4882 67.4629C23.7272 67.6379 24.9652 67.8129 26.2042 67.8129C27.6192 67.8129 29.0342 67.6379 30.3612 67.7249C31.6892 67.7249 32.8392 68.1629 34.1652 68.2499C34.8407 68.3375 35.5247 68.3375 36.2002 68.2499C37.3502 68.2499 37.3502 66.4999 36.2002 66.4999C35.0502 66.4999 35.0502 68.2499 36.2002 68.2499V66.4999C35.6417 66.5582 35.0787 66.5582 34.5202 66.4999C33.5462 66.4999 32.6612 66.1499 31.6882 66.0629C29.3882 65.7999 27.1772 66.1499 24.9652 65.9749C23.8152 65.8879 22.6652 65.7129 21.5152 65.6249C20.3652 65.5379 19.1272 65.5379 17.8882 65.5379H10.7232C10.1057 65.5974 9.48558 65.6264 8.8652 65.6249C8.6882 65.6249 7.9812 65.6249 7.8042 65.4499C7.6272 65.1879 7.7152 64.2249 7.7152 63.8749C7.6272 61.5999 7.2732 59.3249 7.2732 57.0499C7.2732 54.5129 7.3622 51.8879 7.2732 49.3499C7.1852 46.9879 7.0082 44.5379 6.8312 42.1749C6.4772 36.4869 6.7422 30.7999 6.7422 25.1999C6.7422 24.0629 4.9732 24.0629 4.9732 25.1999Z" fill="white"/>
<path d="M37.5239 68.8629V68.5129H35.7539C35.7539 70.1749 35.9319 71.7499 35.5779 73.3249C35.2239 74.8999 34.6929 76.3879 34.4279 77.9629C34.2509 79.4499 34.0739 80.9379 33.8079 82.5129C33.4549 83.9129 33.1009 85.4879 33.3659 86.9749C33.3659 87.4999 34.0739 88.1999 34.6929 87.7629C37.7009 85.4879 40.0889 82.5999 42.4779 79.7129C45.2199 76.5629 48.2279 73.4999 51.2359 70.5249C52.0319 69.6499 50.7929 68.4249 49.9079 69.2119C46.9889 72.1869 44.1579 75.1619 41.4159 78.3119C39.0279 81.0249 36.7279 83.9999 33.8089 86.1879C34.2209 86.4789 34.6639 86.7419 35.1359 86.9749C34.8699 85.3999 35.2239 83.9999 35.5779 82.5129C35.9319 80.9379 36.0199 79.3629 36.2849 77.7879C36.5509 76.2999 37.0819 74.8129 37.3469 73.3249C37.7009 71.7499 37.5239 70.1759 37.5239 68.5129C37.5239 67.3759 35.7539 67.3759 35.7539 68.5129V68.8619C35.7539 69.9999 37.5239 70.0009 37.5239 68.8629Z" fill="white"/>
<path d="M50.6174 70.2629C53.8894 70.2629 57.1624 69.8249 60.4364 69.6499C63.7094 69.3879 67.0704 69.2999 70.3434 69.1249C73.5284 68.9499 76.6234 68.6879 79.8084 68.1629C83.0824 67.7249 86.4434 67.8129 89.8054 67.8129C90.9554 67.8129 90.9554 66.0629 89.8054 66.0629C86.5324 66.0629 83.2584 65.9749 79.9854 66.4129C76.7124 66.8499 73.5284 67.1999 70.3434 67.3749C67.0704 67.5499 63.7084 67.6379 60.4354 67.8999C57.1624 68.0749 53.8894 68.5129 50.6164 68.5129C49.4664 68.5129 49.4674 70.2629 50.6174 70.2629Z" fill="white"/>
<path d="M88.9219 65.45V65.8H90.6919C90.6919 62.3 91.2219 58.887 91.3099 55.387C91.3989 51.887 91.3099 48.3 91.2219 44.8C91.1339 37.625 91.2219 30.45 91.2219 23.362C91.2219 22.225 89.4519 22.225 89.4519 23.362V24.675C89.4519 25.812 91.2219 25.812 91.2219 24.675V23.362C91.2219 22.225 89.4519 22.225 89.4519 23.362C89.4519 30.45 89.3639 37.625 89.4519 44.8C89.5419 48.3 89.6299 51.887 89.5419 55.387C89.4519 58.887 88.9219 62.3 88.9219 65.8C88.9219 66.937 90.6919 66.937 90.6919 65.8V65.45C90.6919 64.312 88.9219 64.312 88.9219 65.45Z" fill="white"/>
<path d="M5.85569 24.5869C11.2517 25.0249 16.6477 24.6749 22.0437 24.3249C27.5287 23.8869 32.9237 23.5379 38.3207 23.6249H80.6937C82.1097 23.6249 83.5237 23.6249 84.9397 23.5379C86.0897 23.5379 87.3287 23.2749 88.3897 23.6249C88.2655 23.1305 88.1478 22.6344 88.0367 22.1369C87.9332 22.294 87.8146 22.4407 87.6827 22.5749C86.9747 23.4499 88.2127 24.6749 88.9207 23.7999L89.2747 23.4499C89.7167 22.8369 89.5397 22.1369 88.9207 21.9619C87.9477 21.6119 86.8857 21.6999 85.9127 21.7879C84.7627 21.8749 83.5247 21.7879 82.3747 21.7879H74.0577C68.5147 21.7879 62.9707 21.8169 57.4277 21.8749C46.3697 21.8749 35.2237 21.5249 24.1657 22.3999C18.0617 22.8379 11.9577 23.3629 5.85469 22.8379C4.70469 22.7499 4.70469 24.4999 5.85469 24.5879L5.85569 24.5869ZM7.09369 67.2869C11.8707 68.1619 16.6477 67.9869 21.5137 67.8999C26.5557 67.7249 31.5977 67.8119 36.6397 67.8119C37.7897 67.8119 37.7897 66.0619 36.6397 66.0619C31.6857 66.0619 26.7327 65.9749 21.7787 66.1499C17.0897 66.2369 12.3127 66.4999 7.62469 65.5369C6.47469 65.3619 6.03169 67.0249 7.09369 67.2869Z" fill="white"/>
<path d="M38.0565 67.9001V67.6371H36.2865C36.2865 70.8751 35.5795 74.0251 34.6065 77.0871C34.0755 78.7501 33.7215 80.3251 33.2795 81.9871C32.9255 83.6501 32.2175 85.1371 31.8635 86.8001C31.5985 87.9381 33.3675 88.3751 33.5445 87.3251C33.8985 85.5751 34.6065 84.0001 35.0485 82.2501L36.3755 77.2631C37.4365 74.1131 38.1465 70.9631 38.0565 67.6371C38.0565 66.5001 36.2865 66.5001 36.2865 67.6371V67.9001C36.2865 69.0371 38.0565 69.0371 38.0565 67.9001ZM88.3905 22.2251C88.4795 25.8121 89.0105 29.4001 89.1875 32.9871C89.4525 36.6621 89.5405 40.3371 89.4525 44.1001V63.3501C89.4525 64.0501 89.5405 64.8381 89.3635 65.5371C89.8355 65.4211 90.3375 65.3041 90.8675 65.1871C90.7319 65.0563 90.5839 64.939 90.4255 64.8371C89.5405 64.1371 88.3025 65.3621 89.1865 66.0621C89.3045 66.1791 89.4525 66.2961 89.6295 66.4121C90.0715 66.7621 90.8675 66.6751 91.0445 65.9751C91.3985 64.9251 91.2215 63.7881 91.2215 62.6501C91.1335 61.1631 91.2215 59.6751 91.2215 58.1881V49.4381C91.3095 43.5751 91.3985 37.8001 90.9565 31.9381C90.6905 28.7001 90.2485 25.4621 90.2485 22.2251C90.1605 21.0871 88.3905 21.0871 88.3905 22.2251ZM4.52848 24.1501C4.52848 37.3621 4.61848 50.4871 4.52848 63.6121C4.52848 64.5751 4.08648 65.8881 4.88348 66.5881C5.94448 67.3751 7.09448 66.5001 8.06748 66.3251C9.21748 66.0621 8.77548 64.3121 7.62548 64.5751C7.27148 64.6621 6.91748 64.8381 6.56348 65.0131C6.47548 65.0131 6.29848 65.1001 6.21048 65.1001L6.12148 65.1881C5.94448 65.1291 5.91548 65.1581 6.03348 65.2751C6.38648 65.1001 6.03348 65.5371 6.21048 65.2751V64.8371C6.26928 63.6713 6.29863 62.5043 6.29848 61.3371V24.1501C6.29848 23.0131 4.52848 23.0131 4.52848 24.1501ZM49.5565 69.7371H70.1675C73.5295 69.7371 76.8905 69.9121 80.2525 69.8251C81.7565 69.7371 83.1725 69.2121 84.6755 69.2121C85.3835 69.3001 86.0025 69.3871 86.7095 69.3001C87.4175 69.1251 88.0375 68.7751 88.8335 68.7751C89.9835 68.7751 89.9835 67.0251 88.8335 67.0251C88.0375 67.0251 87.5065 67.2871 86.7985 67.4621C86.0905 67.6371 85.3835 67.5501 84.6755 67.4621C83.1715 67.3751 81.8455 67.9871 80.4295 68.0751C78.7485 68.1621 76.9795 67.9871 75.2985 67.9871H49.5565C48.4065 67.9871 48.4065 69.7371 49.5565 69.7371Z" fill="white"/>
<path d="M36.2859 86.7131C38.6749 84.0881 40.2669 80.8501 42.5669 78.1381C43.8059 76.8251 45.1329 75.6001 46.4589 74.2881C47.6979 72.8881 49.2899 71.8381 50.3519 70.3501C51.0599 69.3881 49.4669 68.5131 48.8479 69.3881C48.3179 70.1751 47.6089 70.7001 46.9019 71.3131C46.2103 71.9098 45.5601 72.553 44.9559 73.2381C43.7169 74.5501 42.3019 75.7751 41.1519 77.0881C38.9399 79.7131 37.3479 82.8631 35.0479 85.4881C34.3399 86.2751 35.5779 87.5881 36.2869 86.7131H36.2859ZM6.38594 25.0251C9.03994 25.1131 11.6939 24.4131 14.3479 24.1501C17.0466 23.801 19.7648 23.6257 22.4859 23.6251C28.1479 23.5381 33.7209 23.6251 39.3829 23.6251C44.9851 23.5668 50.5878 23.5668 56.1899 23.6251C58.9329 23.6251 61.6749 23.4501 64.4169 23.6251C65.5669 23.7131 66.7169 23.8881 67.8669 24.0631C69.2829 24.1501 70.6979 24.0631 72.1129 24.0631C75.1209 24.0631 78.1289 24.1501 81.2249 24.0631C83.4369 23.9751 86.1789 23.3631 88.2129 24.5001C88.3899 23.9171 88.5379 23.3631 88.6559 22.8381H87.8599C86.7099 22.8381 86.7099 24.5881 87.8599 24.5881H88.6559C89.5399 24.6751 89.8939 23.3631 89.0979 22.9251C87.1519 21.9631 84.8519 22.0501 82.7279 22.2251C80.2519 22.4001 77.6869 22.3131 75.2089 22.3131C72.5559 22.3131 69.9019 22.4881 67.2479 22.2251C66.0089 22.0501 64.7709 21.8751 63.4439 21.7881C61.9399 21.7881 60.4359 21.8751 58.9329 21.8751C47.6097 21.8169 36.2863 21.7879 24.9629 21.7881C21.8669 21.7881 18.7709 21.8751 15.6749 22.2251C12.5789 22.4881 9.48294 23.3631 6.38594 23.2751C5.23594 23.2751 5.23594 25.0251 6.38594 25.0251Z" fill="white"/>
</g>
</svg>
