<svg width="24" height="24" viewBox="0 0 24 24" fill="none" xmlns="http://www.w3.org/2000/svg"><path d="M12 8.684L3 3v6.632l9 5.684V8.684z" fill="#2D2E2E"/><path d="M12 8.684L3 3v6.632l9 5.684V8.684z" fill="#2D2E2E"/><path d="M12 15.316L3 21v-6.63l9-5.684v6.631z" fill="#2D2E2E"/><path d="M12 15.316L3 21v-6.63l9-5.684v6.631z" fill="#1F9176"/><path d="M12 8.684L21 3v6.632l-9 5.684V8.684z" fill="#2D2E2E"/><path d="M12 8.684L21 3v6.632l-9 5.684V8.684z" fill="#1F9176"/><path d="M12 15.316L21 21v-6.63l-9-5.684v6.631z" fill="#2D2E2E"/><path d="M12 15.316L21 21v-6.63l-9-5.684v6.631z" fill="#2D2E2E"/></svg>