<svg width="210" height="200" viewBox="0 0 210 200" fill="none" xmlns="http://www.w3.org/2000/svg">
<g clip-path="url(#clip0_266_276)">
<path d="M94.5678 96.6945C94.5731 96.7394 94.59 96.7822 94.6167 96.8188C94.6434 96.8554 94.679 96.8844 94.7202 96.9033C94.7614 96.9221 94.8068 96.93 94.8519 96.9263C94.8971 96.9226 94.9405 96.9073 94.978 96.882C99.8456 93.6829 103.61 91.1459 106.271 89.2709C109.279 87.1552 111.729 85.9121 113.621 85.5417C121.381 84.007 128.578 89.7709 129.072 97.6459C129.178 99.2802 129.241 101.718 129.259 104.958C129.259 105.018 129.275 105.078 129.306 105.129C129.336 105.181 129.381 105.223 129.434 105.251C129.487 105.279 129.547 105.292 129.607 105.288C129.667 105.284 129.725 105.264 129.774 105.229C144.808 95.1552 152.686 89.8565 153.409 89.3334C156.349 87.2084 158.706 85.9653 160.481 85.6042C164.38 84.8079 167.938 85.588 171.155 87.9445C175.202 90.8959 176.384 95.132 176.377 100.174C176.373 102.53 176.37 124.736 176.37 166.792C176.37 166.923 176.417 167.051 176.502 167.152C176.588 167.252 176.706 167.319 176.836 167.34L181.349 168.07C181.66 168.121 181.942 168.28 182.145 168.521C182.349 168.761 182.461 169.066 182.462 169.382V171.222C182.462 171.609 182.308 171.98 182.034 172.253C181.76 172.527 181.389 172.681 181.002 172.681H28.981C28.671 172.68 28.3647 172.613 28.0832 172.484C27.8018 172.354 27.552 172.165 27.351 171.93C27.15 171.695 27.0026 171.419 26.9191 171.122C26.8355 170.825 26.8178 170.513 26.8671 170.208L27.0062 169.347C27.0838 168.867 27.3308 168.43 27.7028 168.114C28.0749 167.799 28.5477 167.625 29.0366 167.625H32.729C32.8687 167.625 33.0028 167.571 33.1028 167.473C33.2028 167.376 33.2608 167.244 33.2645 167.104C33.3016 165.632 33.3108 151.859 33.2923 125.785C33.2876 121.405 33.4244 118.838 33.7025 118.083C34.8708 114.88 35.5012 113 35.5939 112.445C41.129 78.9584 45.5817 51.7501 48.9519 30.8195C49.5221 27.2917 50.0575 24.4028 52.1714 21.8681C54.9251 18.5718 58.5618 16.9908 63.0817 17.1251C64.3148 17.1575 66.9317 17.1737 70.9323 17.1737C75.8555 17.1667 79.5618 19.6042 81.9191 23.6598C82.7025 24.9978 83.4025 27.5765 84.0191 31.3959C87.1204 50.5116 89.9158 67.5603 92.4052 82.5417C93.4529 88.8334 94.1737 93.551 94.5678 96.6945ZM66.5237 48.8959C73.0184 48.9005 77.9694 48.882 81.3767 48.8403C81.426 48.84 81.4746 48.829 81.5191 48.8081C81.5637 48.7872 81.6032 48.7569 81.635 48.7193C81.6667 48.6816 81.6899 48.6376 81.7029 48.5902C81.7159 48.5427 81.7185 48.493 81.7105 48.4445C80.5886 41.3334 79.5178 34.9237 78.4979 29.2153C77.6542 24.4792 74.7847 22.1436 69.8893 22.2084C69.2496 22.2177 68.1347 22.2223 66.5446 22.2223C64.9499 22.2177 63.835 22.2107 63.1999 22.2015C58.3045 22.132 55.4304 24.4653 54.5774 29.2015C53.5529 34.9052 52.4751 41.3126 51.3439 48.4237C51.3359 48.4722 51.3385 48.5219 51.3515 48.5693C51.3646 48.6168 51.3877 48.6608 51.4195 48.6984C51.4512 48.7361 51.4907 48.7664 51.5353 48.7873C51.5799 48.8082 51.6285 48.8192 51.6777 48.8195C55.0804 48.8658 60.029 48.8913 66.5237 48.8959ZM46.7406 76.9862C46.7294 77.0524 46.7329 77.1203 46.7509 77.1851C46.7689 77.2499 46.8009 77.3099 46.8447 77.3609C46.8885 77.4119 46.943 77.4527 47.0043 77.4803C47.0656 77.508 47.1323 77.5218 47.1996 77.5209H85.7645C85.8312 77.5208 85.897 77.5062 85.9575 77.4781C86.018 77.45 86.0716 77.4091 86.1146 77.3582C86.1576 77.3073 86.189 77.2477 86.2066 77.1834C86.2242 77.1192 86.2276 77.0519 86.2164 76.9862L82.4754 54.5487C82.4573 54.442 82.402 54.3451 82.3193 54.2752C82.2366 54.2053 82.1318 54.1669 82.0234 54.1667H50.8224C50.714 54.1669 50.6092 54.2053 50.5265 54.2752C50.4438 54.3451 50.3885 54.442 50.3704 54.5487L46.7406 76.9862ZM42.0539 108.597C43.5559 108.384 44.8794 108.273 46.0244 108.264C55.778 108.176 65.6592 108.174 75.6678 108.257C77.8721 108.271 79.0055 107.826 80.73 106.667C85.8108 103.259 88.7986 101.292 89.6933 100.764C89.8125 100.692 89.9074 100.586 89.9657 100.46C90.0239 100.334 90.0429 100.193 90.0201 100.056L87.2386 83.4028C87.1992 83.1698 87.0784 82.9583 86.8976 82.8057C86.7169 82.6532 86.4879 82.5695 86.2512 82.5695H46.2121C46.0902 82.5695 45.9722 82.6129 45.8792 82.6917C45.7862 82.7706 45.7243 82.8799 45.7045 83.0001L41.6297 108.167C41.6204 108.225 41.6249 108.284 41.6428 108.34C41.6607 108.396 41.6915 108.447 41.7328 108.489C41.7741 108.531 41.8246 108.563 41.8804 108.581C41.9362 108.6 41.9956 108.606 42.0539 108.597ZM123.884 167.097C123.819 144.866 123.808 122.734 123.85 100.701C123.854 98.632 123.697 97.0371 123.377 95.9167C122.111 91.5001 116.659 89.007 112.612 91.4723C104.776 96.257 93.2535 104.688 83.1777 111.181C82.7934 111.43 82.4775 111.771 82.259 112.173C82.0404 112.574 81.9259 113.023 81.9261 113.479V166.924C81.9261 167.11 82 167.288 82.1318 167.42C82.2635 167.551 82.4421 167.625 82.6284 167.625H123.349C123.491 167.625 123.627 167.569 123.728 167.47C123.828 167.371 123.884 167.237 123.884 167.097ZM171.107 167.104C171.065 144.85 171.074 122.697 171.134 100.646C171.144 98.5764 170.988 96.9815 170.668 95.8612C169.403 91.4376 163.951 88.9376 159.897 91.4028C152.054 96.1806 140.51 104.611 130.421 111.097C130.036 111.346 129.719 111.686 129.499 112.088C129.279 112.489 129.163 112.939 129.162 113.396L129.113 166.889C129.113 167.075 129.187 167.253 129.319 167.385C129.451 167.516 129.63 167.59 129.816 167.59L170.571 167.632C170.641 167.632 170.711 167.618 170.776 167.592C170.841 167.565 170.9 167.526 170.95 167.477C170.999 167.428 171.039 167.37 171.066 167.306C171.093 167.242 171.107 167.174 171.107 167.104ZM76.8499 167.139V113.743C76.8499 113.694 76.8401 113.646 76.8212 113.601C76.8022 113.556 76.7745 113.515 76.7395 113.48C76.7045 113.446 76.6631 113.419 76.6176 113.401C76.5721 113.383 76.5234 113.374 76.4744 113.375C70.3227 113.509 60.8959 113.519 48.1939 113.403C44.0009 113.361 41.5671 114.139 39.488 117.458C38.8065 118.551 38.4751 120.861 38.4936 124.389C38.591 144.204 38.5956 158.394 38.5075 166.958C38.5066 167.044 38.5226 167.129 38.5547 167.208C38.5868 167.287 38.6343 167.359 38.6944 167.42C38.7546 167.48 38.8262 167.528 38.9051 167.561C38.984 167.594 39.0687 167.611 39.1542 167.611H76.3701C76.4973 167.611 76.6194 167.561 76.7094 167.473C76.7993 167.384 76.8499 167.264 76.8499 167.139Z" fill="#FE552E"/>
<path d="M114.896 141.118C114.906 142.506 114.642 143.882 114.119 145.168C113.596 146.454 112.825 147.625 111.849 148.613C110.873 149.602 109.712 150.388 108.431 150.928C107.151 151.468 105.777 151.751 104.387 151.761L101.703 151.78C100.313 151.789 98.935 151.526 97.6473 151.003C96.3596 150.481 95.1875 149.711 94.1979 148.736C93.2083 147.762 92.4206 146.602 91.8797 145.323C91.3389 144.045 91.0556 142.672 91.0459 141.284L90.9573 128.618C90.9476 127.23 91.2117 125.854 91.7346 124.568C92.2575 123.282 93.0289 122.111 94.0048 121.123C94.9807 120.135 96.1419 119.348 97.4222 118.808C98.7025 118.268 100.077 117.985 101.467 117.975L104.151 117.956C105.54 117.947 106.919 118.21 108.206 118.733C109.494 119.255 110.666 120.025 111.656 121C112.645 121.974 113.433 123.134 113.974 124.413C114.515 125.691 114.798 127.064 114.808 128.452L114.896 141.118ZM109.661 128.498C109.671 127.097 109.123 125.749 108.137 124.751C107.152 123.753 105.81 123.187 104.406 123.177L101.528 123.157C100.124 123.147 98.7743 123.695 97.775 124.679C96.7757 125.663 96.2088 127.003 96.1989 128.405L96.1092 141.238C96.0995 142.639 96.6476 143.987 97.633 144.985C98.6184 145.983 99.9605 146.549 101.364 146.559L104.243 146.579C105.646 146.589 106.996 146.042 107.995 145.057C108.994 144.073 109.561 142.733 109.571 141.332L109.661 128.498Z" fill="#FE552E"/>
<path d="M163.092 141.257C163.102 144.025 162.01 146.684 160.057 148.648C158.104 150.612 155.449 151.721 152.677 151.731L149.799 151.741C148.426 151.746 147.066 151.48 145.796 150.96C144.526 150.44 143.372 149.675 142.398 148.71C141.424 147.744 140.65 146.596 140.12 145.331C139.591 144.067 139.316 142.71 139.311 141.34L139.266 128.437C139.256 125.669 140.348 123.01 142.301 121.046C144.254 119.082 146.909 117.973 149.68 117.963L152.559 117.953C153.932 117.948 155.292 118.214 156.562 118.734C157.831 119.254 158.986 120.019 159.96 120.984C160.934 121.95 161.708 123.098 162.238 124.363C162.767 125.627 163.042 126.984 163.047 128.354L163.092 141.257ZM157.843 128.405C157.841 127.011 157.284 125.674 156.295 124.69C155.306 123.706 153.966 123.155 152.57 123.157L149.649 123.162C148.253 123.165 146.916 123.721 145.93 124.708C144.945 125.696 144.392 127.034 144.395 128.428L144.417 141.289C144.42 142.684 144.977 144.02 145.966 145.004C146.954 145.988 148.294 146.539 149.69 146.537L152.611 146.532C154.007 146.529 155.345 145.973 156.33 144.986C157.316 143.998 157.868 142.66 157.866 141.266L157.843 128.405Z" fill="#FE552E"/>
</g>
<defs>
<clipPath id="clip0_266_276">
<rect width="210" height="200" fill="white"/>
</clipPath>
</defs>
</svg>
