<svg width="227" height="200" viewBox="0 0 227 200" fill="none" xmlns="http://www.w3.org/2000/svg">
<g clip-path="url(#clip0_266_244)">
<path d="M162.591 93.4724C162.641 93.5591 162.718 93.6271 162.81 93.6659C162.903 93.7047 163.005 93.7123 163.102 93.6874C163.198 93.6626 163.285 93.6067 163.347 93.5283C163.409 93.45 163.444 93.3533 163.446 93.2532V62.356C163.446 62.1587 163.384 61.9665 163.268 61.8067C163.153 61.6468 162.99 61.5275 162.803 61.4656C158.783 60.1322 156.018 57.6391 154.51 53.9861C152.602 49.3765 154.079 43.5135 157.921 40.1847C160.269 38.1573 163.145 37.1779 166.55 37.2464C172.287 37.3697 177.975 42.4519 178.181 48.493C178.413 55.1551 175.357 59.4861 169.012 61.4861C168.855 61.5357 168.718 61.6342 168.62 61.7673C168.523 61.9003 168.471 62.061 168.471 62.2258C168.449 71.7372 168.456 85.4131 168.492 103.253C168.492 104.591 168.77 105.931 169.326 107.274C177.21 126.301 181.298 146.555 183.288 167.157C183.3 167.28 183.357 167.395 183.448 167.478C183.538 167.561 183.657 167.608 183.78 167.609C186.871 167.664 189.585 167.246 188.819 171.513C188.798 171.633 188.748 171.745 188.672 171.838C188.597 171.932 188.499 172.004 188.389 172.048C187.053 172.591 185.964 172.863 185.12 172.863C152.62 172.863 105.554 172.867 43.9223 172.877C43.3389 172.877 42.434 172.73 41.2079 172.438C39.6285 172.061 39.5054 170.829 39.69 169.445C39.7372 169.092 39.8953 168.763 40.1413 168.507C40.3873 168.251 40.7083 168.08 41.0575 168.02C42.3976 167.783 43.8084 167.687 45.2898 167.733C47.4914 167.794 48.5854 167.027 50.2058 165.541C54.3903 161.692 57.7087 158.452 60.161 155.822C60.9633 154.959 61.3667 153.991 61.3712 152.918C61.3986 124.324 61.4168 108.861 61.4259 106.527C61.4258 106.326 61.3602 106.131 61.2391 105.971C61.1181 105.811 60.9483 105.696 60.7559 105.644C54.4017 103.831 50.6799 99.8697 49.5905 93.7601C48.558 87.9656 51.0947 81.856 56.1133 78.7806C61.3325 75.5843 66.636 75.614 72.0238 78.8697C75.3263 80.8628 77.7057 84.356 78.3962 88.4587C79.3854 94.2806 77.594 99.0637 73.0221 102.808C71.4016 104.137 69.4461 104.822 67.4975 105.644C67.2263 105.757 66.9946 105.948 66.8316 106.193C66.6686 106.438 66.5815 106.726 66.5813 107.02V147.65C66.5812 147.682 66.5889 147.714 66.604 147.742C66.619 147.77 66.6409 147.794 66.6677 147.812C66.6945 147.831 66.7255 147.842 66.7581 147.846C66.7906 147.85 66.8238 147.846 66.8548 147.835C67.2012 147.703 67.4018 147.603 67.4565 147.534C76.1946 136.666 82.6559 126.091 86.8404 115.808C90.6191 106.511 91.5376 97.0249 89.5958 87.3491C89.4545 86.6551 89.0124 84.687 88.2694 81.445C88.1466 80.9168 88.0802 80.375 88.0711 79.8286C88.03 77.9793 88.3719 75.6642 88.3856 73.1573C88.4449 59.4313 88.4517 51.582 88.4061 49.6094C88.2785 44.3446 88.5656 40.8765 89.2676 39.2053C91.3872 34.1505 94.9973 31.2532 100.03 29.7806C100.23 29.7217 100.413 29.6122 100.56 29.4623C100.707 29.3125 100.814 29.1274 100.871 28.9245C102.901 21.5478 107.646 20.2806 115.031 20.445C117.406 20.4952 120.141 20.4975 123.236 20.4519C128.952 20.3628 134.025 24.308 134.23 30.1299C134.271 31.3035 134.266 32.6277 134.216 34.1026C134.1 37.5546 131.646 40.9519 128.801 42.4313C127.292 43.2121 125.376 43.5729 123.051 43.5135C118.627 43.4039 113.349 43.7258 107.975 43.2053C107.532 43.1601 107.105 43.0273 106.717 42.8149C103.435 41.0135 102.177 38.7738 100.665 35.4313C100.621 35.3328 100.556 35.2444 100.476 35.172C100.396 35.0995 100.302 35.0444 100.201 35.0103C100.099 34.9761 99.9921 34.9637 99.8861 34.9736C99.7801 34.9836 99.6776 35.0159 99.5852 35.0683C96.5289 36.7806 93.5341 39.7943 93.4726 43.4998C93.3769 49.0523 93.3632 57.3331 93.4316 68.3423C93.4318 68.4138 93.4495 68.4844 93.4832 68.5474C93.5169 68.6105 93.5654 68.6642 93.6244 68.7036C93.6834 68.743 93.7511 68.7669 93.8213 68.7732C93.8915 68.7795 93.9619 68.7679 94.0264 68.7395C96.7067 67.6026 98.7442 67.2395 102.06 67.2327C119.979 67.1916 131.023 67.1962 135.194 67.2464C140.623 67.308 144.363 69.9656 148.541 74.2601C153.942 79.808 158.626 86.2121 162.591 93.4724ZM129.211 30.945C129.211 30.2299 129.071 29.5219 128.798 28.8612C128.524 28.2006 128.124 27.6003 127.619 27.0947C127.115 26.589 126.515 26.188 125.856 25.9143C125.196 25.6407 124.49 25.4998 123.776 25.4998H111.236C110.522 25.4998 109.815 25.6407 109.156 25.9143C108.496 26.188 107.897 26.589 107.392 27.0947C106.888 27.6003 106.487 28.2006 106.214 28.8612C105.941 29.5219 105.8 30.2299 105.8 30.945V33.0957C105.8 34.5399 106.373 35.9249 107.392 36.946C108.412 37.9672 109.794 38.5409 111.236 38.5409H123.776C125.217 38.5409 126.6 37.9672 127.619 36.946C128.639 35.9249 129.211 34.5399 129.211 33.0957V30.945ZM173.162 49.4724C173.162 47.5596 172.403 45.7251 171.053 44.3725C169.703 43.02 167.872 42.2601 165.962 42.2601C164.053 42.2601 162.221 43.02 160.871 44.3725C159.521 45.7251 158.762 47.5596 158.762 49.4724C158.762 51.3852 159.521 53.2197 160.871 54.5723C162.221 55.9249 164.053 56.6847 165.962 56.6847C167.872 56.6847 169.703 55.9249 171.053 54.5723C172.403 53.2197 173.162 51.3852 173.162 49.4724ZM119.4 72.8491C121.355 75.8354 123.311 79.7943 125.266 84.7258C125.496 85.3018 125.493 85.9445 125.258 86.5184C125.023 87.0922 124.575 87.5522 124.008 87.8012L123.837 87.8697C123.532 88.0033 123.204 88.0751 122.871 88.0809C122.538 88.0867 122.207 88.0264 121.898 87.9034C121.589 87.7804 121.308 87.5973 121.07 87.3646C120.832 87.1319 120.644 86.8542 120.514 86.5478C118.522 81.8263 116.189 77.3012 113.513 72.9724C113.431 72.8397 113.317 72.7292 113.183 72.6504C113.048 72.5716 112.896 72.527 112.74 72.5204C107.968 72.3423 103.683 72.34 99.886 72.5135C91.5513 72.9039 93.1923 79.9587 94.4298 85.4519C96.6109 95.171 95.9614 105.466 92.8846 114.575C91.116 119.822 87.7474 126.582 82.779 134.856C78.6538 141.737 74.246 147.874 69.5555 153.267C65.2275 158.253 61.2892 162.74 56.25 167.027C56.1873 167.079 56.1425 167.149 56.1215 167.228C56.1006 167.306 56.1045 167.39 56.1328 167.466C56.1611 167.543 56.2125 167.61 56.2799 167.658C56.3473 167.705 56.4276 167.731 56.5099 167.733H177.695C177.75 167.733 177.805 167.722 177.855 167.7C177.906 167.677 177.951 167.645 177.988 167.604C178.026 167.564 178.054 167.516 178.072 167.464C178.09 167.412 178.096 167.356 178.092 167.301C176.341 146.972 172.041 127.315 164.335 108.493C159.132 95.7669 151.768 83.945 141.908 74.8423C140.527 73.5683 138.093 72.4587 136.541 72.4587C129.731 72.4496 124.088 72.445 119.612 72.445C119.565 72.4458 119.52 72.4592 119.48 72.4837C119.44 72.5082 119.408 72.5429 119.386 72.5842C119.365 72.6255 119.354 72.6719 119.357 72.7185C119.359 72.7651 119.374 72.8102 119.4 72.8491ZM73.5759 91.2121C73.5759 88.6562 72.5623 86.205 70.7582 84.3978C68.9541 82.5905 66.5072 81.5752 63.9557 81.5752C61.4043 81.5752 58.9574 82.5905 57.1533 84.3978C55.3491 86.205 54.3356 88.6562 54.3356 91.2121C54.3356 93.768 55.3491 96.2192 57.1533 98.0265C58.9574 99.8338 61.4043 100.849 63.9557 100.849C66.5072 100.849 68.9541 99.8338 70.7582 98.0265C72.5623 96.2192 73.5759 93.768 73.5759 91.2121Z" fill="#FE552E"/>
<path d="M128.261 100.172L127.691 100.246C126.455 100.404 125.581 101.536 125.74 102.775L128.066 120.968C128.225 122.207 129.355 123.082 130.591 122.923L131.161 122.85C132.397 122.691 133.271 121.559 133.112 120.321L130.786 102.127C130.627 100.889 129.497 100.014 128.261 100.172Z" fill="#FE552E"/>
<path d="M130.614 135.98L130.493 135.958C129.129 135.712 127.824 136.621 127.579 137.987L124.404 155.662C124.159 157.029 125.066 158.335 126.43 158.581L126.551 158.603C127.915 158.849 129.219 157.941 129.465 156.574L132.64 138.899C132.885 137.533 131.978 136.226 130.614 135.98Z" fill="#FE552E"/>
</g>
<defs>
<clipPath id="clip0_266_244">
<rect width="227" height="200" fill="white"/>
</clipPath>
</defs>
</svg>
