<svg width="195" height="200" viewBox="0 0 195 200" fill="none" xmlns="http://www.w3.org/2000/svg">
<g clip-path="url(#clip0_266_166)">
<path d="M21.3218 171.584C21.3784 171.584 21.4326 171.562 21.4729 171.522C21.5131 171.482 21.536 171.428 21.5366 171.371C21.5587 168.341 21.5563 165.448 21.5295 162.693C21.5217 161.868 21.6082 161.302 21.7892 160.993C22.4691 159.837 23.3639 159.624 24.7307 159.66C26.5769 159.709 28.1397 159.711 29.4192 159.667C29.46 159.665 29.4989 159.65 29.5288 159.622C29.5587 159.595 29.5776 159.558 29.5821 159.518C29.6341 159.051 29.6593 158.775 29.6577 158.688C29.6215 156.775 29.6073 154.923 29.6152 153.132C29.6199 152.121 29.6766 150.924 30.1204 150.005C30.868 148.456 32.1129 147.459 33.8551 147.017C33.91 147.003 33.9591 146.972 33.9952 146.928C34.0313 146.884 34.0525 146.83 34.0558 146.773C34.1668 144.946 34.1125 143.106 34.1219 141.251C34.1282 140.368 34.1982 139.051 34.332 137.298C34.4815 135.32 34.5461 132.757 34.5256 129.61C34.5209 128.814 34.5484 127.93 34.6082 126.958C34.8144 123.638 34.9175 120.965 34.9175 118.936C34.9175 114.01 35.2834 110.352 35.3047 105.326C35.3141 102.995 35.4007 100.61 35.5643 98.1703C35.8122 94.5013 35.7296 92.0379 35.7863 87.7448C35.7862 87.6972 35.7729 87.6507 35.7478 87.6106C35.7228 87.5704 35.687 87.5383 35.6446 87.5178C33.4774 86.4666 32.3049 84.8314 32.1271 82.6124C32.0185 81.2459 32.0728 79.3239 32.0586 77.7046C32.0583 77.6748 32.0521 77.6453 32.0403 77.618C32.0285 77.5907 32.0115 77.5661 31.9901 77.5455C31.9687 77.525 31.9435 77.5091 31.9159 77.4986C31.8884 77.4882 31.859 77.4834 31.8296 77.4847C29.557 77.5572 27.5668 77.5517 25.8592 77.4682C24.8063 77.4161 24.0312 76.9701 23.5338 76.1301C23.2915 75.7203 23.1931 74.7952 23.2387 73.3547C23.2498 72.9985 23.2592 69.9709 23.2671 64.2719C23.2671 64.1912 23.2354 64.1138 23.1789 64.0563C23.1223 63.9988 23.0455 63.9659 22.9649 63.9646C21.4556 63.9457 20.3507 63.9465 19.6504 63.967C17.8263 64.019 16.6065 63.35 15.9912 61.9599C15.3585 60.5296 15.6087 58.9741 16.7183 57.9173C16.9386 57.7061 17.4399 57.4098 18.2221 57.0284C36.8974 47.9016 60.8939 36.1514 90.2116 21.7778C91.7626 21.019 92.5676 21.1963 94.1635 21.9883C118.155 33.8496 142.119 45.6163 166.056 57.2885C168.049 58.2625 168.821 60.5887 167.496 62.4729C166.587 63.766 165.457 63.9788 163.717 63.9481C162.58 63.9276 161.614 63.9425 160.818 63.993C160.754 63.9968 160.693 64.022 160.645 64.0645C160.598 64.107 160.566 64.1643 160.556 64.227C160.524 64.4146 160.509 64.6636 160.511 64.9741C160.548 70.2459 160.561 73.3712 160.548 74.35C160.53 75.6754 160.062 76.5998 159.146 77.123C158.603 77.4335 157.541 77.5651 155.959 77.5178C154.84 77.4831 153.357 77.4831 151.509 77.5178C151.487 77.5181 151.464 77.5229 151.444 77.5321C151.423 77.5413 151.405 77.5546 151.389 77.5712C151.374 77.5878 151.362 77.6074 151.355 77.6287C151.348 77.65 151.345 77.6726 151.346 77.6951C151.408 78.6644 151.423 80.1143 151.393 82.045C151.354 84.584 150.186 86.3901 147.89 87.4634C147.805 87.5029 147.733 87.5663 147.683 87.646C147.632 87.7256 147.606 87.8182 147.607 87.9126C147.635 91.3673 147.746 94.4949 147.94 97.2956C147.998 98.1561 148.024 99.1167 148.017 100.177C148.003 102.959 148.091 105.737 148.282 108.511C148.381 109.935 148.425 111.157 148.414 112.175C148.389 114.58 148.47 117.043 148.657 119.563C148.767 121.043 148.83 123.276 148.846 126.262C148.865 129.645 149.233 132.679 149.245 136.036C149.256 139.172 149.367 142.794 149.578 146.901C149.581 146.946 149.6 146.988 149.631 147.021C149.663 147.053 149.705 147.072 149.75 147.076C150.115 147.099 150.46 147.195 150.784 147.362C152.909 148.459 153.984 150.285 154.009 152.842C154.031 155.012 154.024 157.195 153.988 159.393C153.987 159.43 153.994 159.467 154.008 159.502C154.022 159.537 154.043 159.569 154.069 159.595C154.095 159.622 154.127 159.643 154.161 159.658C154.196 159.673 154.233 159.681 154.271 159.681C155.74 159.694 156.992 159.69 158.03 159.671C159.963 159.638 161.245 159.693 161.92 161.39C162.033 161.675 162.09 162.285 162.09 163.218C162.09 167.369 162.084 170.086 162.071 171.369C162.071 171.398 162.076 171.426 162.087 171.453C162.098 171.479 162.114 171.504 162.135 171.524C162.155 171.545 162.179 171.561 162.206 171.572C162.233 171.583 162.262 171.589 162.291 171.589C164.834 171.582 166.435 171.575 167.095 171.567C168.778 171.549 169.73 171.747 170.32 173.312C170.766 174.494 170.291 175.619 169.326 176.359C168.634 176.889 167.808 176.768 166.847 176.768C75.6503 176.746 25.2674 176.749 15.6984 176.778C15.3238 176.779 14.976 176.684 14.655 176.492C13.5895 175.854 13.1283 174.957 13.2715 173.801C13.4368 172.487 14.4567 171.558 15.7574 171.565C18.3622 171.578 20.2169 171.584 21.3218 171.584ZM28.194 58.2979C28.1706 58.3094 28.1518 58.3284 28.1406 58.3519C28.1293 58.3754 28.1263 58.4021 28.1321 58.4275C28.1378 58.4529 28.1519 58.4757 28.1722 58.492C28.1924 58.5084 28.2176 58.5175 28.2436 58.5178H155.508C155.534 58.5175 155.559 58.5084 155.58 58.492C155.6 58.4757 155.614 58.4529 155.62 58.4275C155.625 58.4021 155.622 58.3754 155.611 58.3519C155.6 58.3284 155.581 58.3094 155.558 58.2979L91.9278 27.1608C91.9117 27.1527 91.8939 27.1485 91.8759 27.1485C91.8579 27.1485 91.8401 27.1527 91.824 27.1608L28.194 58.2979ZM155.676 64.227C155.676 64.1518 155.646 64.0796 155.593 64.0264C155.54 63.9732 155.468 63.9433 155.393 63.9433H28.3829C28.3077 63.9433 28.2357 63.9732 28.1825 64.0264C28.1294 64.0796 28.0996 64.1518 28.0996 64.227V71.8724C28.0996 71.9097 28.1069 71.9466 28.1211 71.981C28.1354 72.0154 28.1562 72.0467 28.1825 72.073C28.2089 72.0994 28.2401 72.1203 28.2745 72.1345C28.3088 72.1488 28.3457 72.1561 28.3829 72.1561H155.393C155.43 72.1561 155.467 72.1488 155.501 72.1345C155.535 72.1203 155.567 72.0994 155.593 72.073C155.619 72.0467 155.64 72.0154 155.654 71.981C155.669 71.9466 155.676 71.9097 155.676 71.8724V64.227ZM55.9992 77.6691C55.9992 77.5851 55.9659 77.5045 55.9066 77.4451C55.8472 77.3857 55.7668 77.3523 55.6829 77.3523H37.5899C37.506 77.3523 37.4255 77.3857 37.3662 77.4451C37.3069 77.5045 37.2735 77.5851 37.2735 77.6691V82.4209C37.2735 82.5049 37.3069 82.5855 37.3662 82.6449C37.4255 82.7043 37.506 82.7377 37.5899 82.7377H55.6829C55.7668 82.7377 55.8472 82.7043 55.9066 82.6449C55.9659 82.5855 55.9992 82.5049 55.9992 82.4209V77.6691ZM101.111 77.6502C101.111 77.5712 101.08 77.4954 101.024 77.4396C100.968 77.3837 100.893 77.3523 100.814 77.3523H82.6547C82.5758 77.3523 82.5002 77.3837 82.4444 77.4396C82.3886 77.4954 82.3573 77.5712 82.3573 77.6502V82.4398C82.3573 82.5188 82.3886 82.5946 82.4444 82.6504C82.5002 82.7063 82.5758 82.7377 82.6547 82.7377H100.814C100.893 82.7377 100.968 82.7063 101.024 82.6504C101.08 82.5946 101.111 82.5188 101.111 82.4398V77.6502ZM146.289 77.6384C146.289 77.5619 146.259 77.4885 146.205 77.4344C146.151 77.3803 146.078 77.35 146.001 77.35H127.757C127.681 77.35 127.608 77.3803 127.554 77.4344C127.5 77.4885 127.469 77.5619 127.469 77.6384V82.4516C127.469 82.5281 127.5 82.6015 127.554 82.6555C127.608 82.7096 127.681 82.74 127.757 82.74H146.001C146.078 82.74 146.151 82.7096 146.205 82.6555C146.259 82.6015 146.289 82.5281 146.289 82.4516V77.6384ZM74.8642 159.485C74.8343 157.666 74.8122 155.621 74.7981 153.35C74.791 151.87 74.824 150.385 75.6267 149.246C76.3113 148.279 77.4539 147.312 78.6508 147.064C78.8271 147.026 78.9861 146.984 79.1277 146.939C79.1652 146.927 79.1983 146.904 79.2227 146.873C79.2471 146.843 79.2617 146.805 79.2646 146.766C79.4142 144.511 79.4897 142.115 79.4913 139.579C79.4936 134.811 79.9139 130.482 79.8926 125.934C79.8808 123.026 80.0437 120.097 80.2042 117.236C80.3695 114.338 80.2231 110.442 80.386 107.979C80.5859 104.917 80.6969 101.975 80.7189 99.1537C80.7346 97.2073 80.7748 95.6841 80.8393 94.584C80.9833 92.1656 81.1674 90.0237 81.0895 87.7518C81.0874 87.7093 81.0734 87.6681 81.0493 87.6331C81.0251 87.598 80.9916 87.5703 80.9526 87.5533C78.436 86.4957 77.162 84.558 77.1305 81.74C77.1069 79.6533 77.1108 78.3295 77.1423 77.7684C77.1442 77.7371 77.1398 77.7058 77.1291 77.6763C77.1185 77.6468 77.1019 77.6198 77.0805 77.597C77.059 77.5742 77.0331 77.556 77.0043 77.5436C76.9756 77.5312 76.9446 77.5248 76.9133 77.5249H61.3959C61.367 77.5249 61.3384 77.5307 61.3117 77.5419C61.2851 77.5531 61.2609 77.5696 61.2407 77.5903C61.2204 77.611 61.2045 77.6355 61.1939 77.6624C61.1833 77.6894 61.1781 77.7182 61.1787 77.7471C61.1992 78.77 61.2157 79.8953 61.2283 81.123C61.2567 84.1656 60.3478 86.4705 57.4251 87.5604C57.3867 87.5743 57.3539 87.6008 57.3321 87.6354C57.3103 87.6701 57.3007 87.7111 57.3047 87.7518C57.5502 90.5115 57.6667 93.2822 57.6541 96.0639C57.6447 98.1632 57.6998 100.186 57.8194 102.132C57.9752 104.689 58.057 108.233 58.0649 112.766C58.0665 113.436 58.1774 115.912 58.3978 120.194C58.5087 122.371 58.3954 124.421 58.5111 126.539C58.6433 128.955 58.7495 131.302 58.8298 133.579C58.9148 135.958 58.8085 138.166 58.9313 140.426C59.0556 142.703 59.154 144.851 59.2264 146.87C59.2278 146.91 59.2429 146.949 59.269 146.979C59.2952 147.01 59.3309 147.03 59.3704 147.038C61.2614 147.402 63.2421 149.031 63.5372 151.08C63.9196 153.728 63.6576 157.322 63.7024 159.348C63.7043 159.438 63.7414 159.524 63.8058 159.587C63.8703 159.65 63.9569 159.686 64.0471 159.686H74.6659C74.6921 159.686 74.7181 159.68 74.7423 159.67C74.7665 159.66 74.7885 159.645 74.8069 159.627C74.8254 159.608 74.8399 159.586 74.8497 159.561C74.8596 159.537 74.8645 159.511 74.8642 159.485ZM106.465 77.5225C106.425 77.5225 106.385 77.5386 106.356 77.5674C106.327 77.5961 106.31 77.6352 106.31 77.6762C106.299 79.6983 106.297 80.9607 106.305 81.4634C106.357 84.331 105.311 86.2885 102.728 87.5367C102.684 87.5581 102.647 87.5914 102.621 87.6327C102.595 87.674 102.58 87.7218 102.58 87.7708C102.543 92.0544 102.665 96.3145 102.943 100.551C103.16 103.842 102.986 107.21 103.182 110.757C103.378 114.312 103.47 117.361 103.458 119.903C103.453 121.054 103.485 122.323 103.552 123.712C103.732 127.409 103.838 129.142 103.862 133.236C103.868 134.541 103.951 136.63 104.112 139.501C104.256 142.031 104.223 144.797 104.256 146.749C104.257 146.827 104.285 146.902 104.333 146.961C104.382 147.021 104.45 147.062 104.525 147.078C105.51 147.288 106.352 147.736 107.051 148.423C108.708 150.054 108.72 151.506 108.722 153.917C108.724 155.446 108.717 157.266 108.701 159.378C108.701 159.419 108.708 159.458 108.723 159.496C108.739 159.533 108.761 159.567 108.789 159.596C108.817 159.624 108.85 159.647 108.887 159.662C108.924 159.678 108.963 159.686 109.003 159.686H119.738C119.783 159.686 119.829 159.677 119.871 159.659C119.913 159.641 119.951 159.615 119.983 159.583C120.015 159.55 120.041 159.512 120.058 159.469C120.075 159.427 120.083 159.381 120.082 159.336C120.045 155.933 120.042 153.748 120.075 152.78C120.108 151.822 120.208 151.106 120.373 150.631C121.032 148.737 122.319 147.519 124.233 146.976C124.303 146.957 124.365 146.914 124.41 146.856C124.455 146.798 124.479 146.726 124.481 146.653C124.504 144.149 124.466 142.147 124.613 139.771C124.724 137.972 124.913 134.787 124.891 132.364C124.854 127.667 125.262 122.929 125.293 117.953C125.304 116.178 125.381 114.121 125.524 111.78C125.746 108.161 125.59 103.558 125.805 100.34C126.082 96.186 126.194 91.9827 126.14 87.7306C126.14 87.6905 126.128 87.6513 126.104 87.6183C126.081 87.5853 126.048 87.5602 126.01 87.5462C124.525 87.0087 123.469 86.0544 122.842 84.6833C122.368 83.6384 122.382 82.4067 122.372 81.1443C122.363 79.8645 122.364 78.7219 122.375 77.7164C122.375 77.691 122.37 77.6659 122.361 77.6424C122.351 77.6189 122.337 77.5975 122.32 77.5794C122.302 77.5614 122.281 77.5471 122.257 77.5373C122.234 77.5276 122.209 77.5225 122.184 77.5225H106.465ZM98.9818 147.13C98.992 147.13 99.002 147.128 99.0113 147.124C99.0206 147.12 99.0291 147.114 99.0361 147.107C99.0432 147.1 99.0487 147.091 99.0523 147.082C99.056 147.072 99.0577 147.062 99.0574 147.052L97.2443 87.792C97.2437 87.7724 97.2355 87.7537 97.2214 87.7401C97.2073 87.7264 97.1884 87.7187 97.1688 87.7187H86.3659C86.3462 87.7187 86.3274 87.7264 86.3133 87.7401C86.2992 87.7537 86.2909 87.7724 86.2903 87.792L84.489 147.052C84.4887 147.062 84.4904 147.072 84.4941 147.082C84.4978 147.091 84.5033 147.1 84.5103 147.107C84.5174 147.114 84.5258 147.12 84.5351 147.124C84.5444 147.128 84.5545 147.13 84.5646 147.13H98.9818ZM144.153 147.132C144.181 147.132 144.209 147.127 144.235 147.116C144.261 147.105 144.284 147.089 144.304 147.068C144.324 147.048 144.339 147.024 144.349 146.998C144.359 146.971 144.364 146.943 144.363 146.915L142.337 87.9221C142.336 87.8675 142.313 87.8158 142.273 87.7778C142.234 87.7399 142.182 87.7187 142.127 87.7187H131.669C131.615 87.7187 131.562 87.7399 131.523 87.7778C131.484 87.8158 131.461 87.8675 131.459 87.9221L129.665 146.915C129.664 146.943 129.669 146.971 129.679 146.998C129.689 147.024 129.704 147.048 129.724 147.068C129.743 147.089 129.767 147.105 129.793 147.116C129.819 147.127 129.847 147.132 129.875 147.132H144.153ZM53.7518 147.128C53.7778 147.128 53.8035 147.123 53.8275 147.112C53.8515 147.102 53.8731 147.087 53.8912 147.068C53.9093 147.05 53.9234 147.027 53.9327 147.003C53.942 146.979 53.9463 146.953 53.9453 146.927L52.1393 87.9079C52.1375 87.8577 52.1163 87.8102 52.0802 87.7754C52.0441 87.7405 51.9959 87.7211 51.9458 87.7211H41.2562C41.2056 87.7211 41.1571 87.7409 41.1209 87.7762C41.0848 87.8115 41.0638 87.8596 41.0626 87.9102L39.2684 146.929C39.2678 146.955 39.2723 146.981 39.2818 147.005C39.2912 147.029 39.3054 147.051 39.3234 147.069C39.3414 147.088 39.363 147.102 39.3868 147.113C39.4106 147.123 39.4362 147.128 39.462 147.128H53.7518ZM46.6482 159.681C52.0284 159.679 54.4128 159.629 58.275 159.91C58.2953 159.912 58.3157 159.909 58.335 159.903C58.3543 159.896 58.372 159.886 58.387 159.872C58.4021 159.858 58.4141 159.841 58.4225 159.823C58.4308 159.804 58.4353 159.784 58.4355 159.764L58.4284 152.378C58.4284 152.308 58.4027 152.24 58.3562 152.187C58.3097 152.135 58.2455 152.101 58.1758 152.092C57.8343 152.048 57.455 152.027 57.0379 152.028C56.229 152.032 52.7649 152.034 46.6458 152.036C40.5283 152.036 37.065 152.035 36.2561 152.033C35.839 152.032 35.4589 152.053 35.1158 152.097C35.0465 152.106 34.983 152.14 34.9369 152.193C34.8909 152.246 34.8655 152.313 34.8656 152.383L34.8608 159.768C34.8608 159.789 34.865 159.809 34.8732 159.828C34.8814 159.847 34.8934 159.864 34.9085 159.878C34.9236 159.892 34.9414 159.903 34.9608 159.91C34.9802 159.916 35.0009 159.919 35.0214 159.917C38.8836 159.631 41.2703 159.681 46.6482 159.681ZM91.7531 159.686C97.1381 159.69 99.5272 159.643 103.392 159.932C103.412 159.933 103.433 159.931 103.452 159.924C103.472 159.917 103.49 159.906 103.505 159.892C103.52 159.878 103.532 159.861 103.54 159.842C103.548 159.824 103.552 159.803 103.552 159.783V152.39C103.552 152.32 103.527 152.253 103.481 152.2C103.435 152.147 103.371 152.113 103.302 152.104C102.959 152.06 102.579 152.039 102.162 152.04C101.351 152.04 97.8841 152.038 91.7602 152.033C85.6364 152.028 82.17 152.024 81.361 152.021C80.9439 152.02 80.5631 152.04 80.2184 152.083C80.1491 152.092 80.0856 152.126 80.0395 152.179C79.9935 152.231 79.9681 152.299 79.9682 152.369L79.9564 159.761C79.9563 159.782 79.9604 159.802 79.9685 159.821C79.9766 159.839 79.9884 159.856 80.0032 159.87C80.018 159.884 80.0356 159.895 80.0547 159.902C80.0738 159.909 80.0942 159.912 80.1145 159.91C83.9815 159.629 86.3706 159.681 91.7531 159.686ZM148.544 159.96C148.577 159.963 148.61 159.959 148.642 159.948C148.673 159.938 148.702 159.921 148.727 159.899C148.751 159.876 148.77 159.849 148.784 159.819C148.797 159.789 148.804 159.756 148.804 159.723V152.279C148.803 152.23 148.785 152.183 148.753 152.147C148.721 152.111 148.677 152.088 148.629 152.083C148.322 152.05 148.005 152.033 147.678 152.033C139.091 152.039 132.28 152.036 127.245 152.021C126.71 152.02 126.132 152.05 125.512 152.111C125.447 152.118 125.387 152.148 125.344 152.196C125.3 152.244 125.276 152.307 125.276 152.371V159.345C125.276 159.393 125.286 159.44 125.304 159.484C125.322 159.528 125.349 159.568 125.383 159.601C125.417 159.634 125.457 159.661 125.501 159.679C125.545 159.696 125.592 159.705 125.64 159.705C131.159 159.667 137.104 159.668 143.475 159.707C145.214 159.718 146.904 159.802 148.544 159.96ZM157.125 165.154C157.125 165.121 157.119 165.088 157.106 165.057C157.093 165.026 157.075 164.998 157.051 164.975C157.028 164.951 157 164.933 156.969 164.92C156.939 164.907 156.906 164.901 156.873 164.901H26.6949C26.6279 164.901 26.5637 164.927 26.5163 164.975C26.4689 165.022 26.4423 165.087 26.4423 165.154V171.333C26.4423 171.4 26.4689 171.465 26.5163 171.512C26.5637 171.56 26.6279 171.586 26.6949 171.586H156.873C156.906 171.586 156.939 171.58 156.969 171.567C157 171.554 157.028 171.536 157.051 171.512C157.075 171.489 157.093 171.461 157.106 171.43C157.119 171.4 157.125 171.367 157.125 171.333V165.154Z" fill="#FE552E"/>
</g>
<defs>
<clipPath id="clip0_266_166">
<rect width="195" height="200" fill="white"/>
</clipPath>
</defs>
</svg>
