<svg width="220" height="200" viewBox="0 0 220 200" fill="none" xmlns="http://www.w3.org/2000/svg">
<g clip-path="url(#clip0_266_199)">
<path d="M109.681 51.4194C122.144 51.423 130.924 51.4319 136.021 51.4463C136.045 51.4465 136.07 51.4399 136.091 51.427C136.112 51.4142 136.129 51.3957 136.14 51.3738C136.151 51.3518 136.155 51.3272 136.153 51.303C136.15 51.2787 136.14 51.2557 136.125 51.2366C135.42 50.3119 134.762 49.3387 134.149 48.3172C131.79 44.3925 131.752 38.8603 133.881 34.7151C139.638 23.4732 156.455 24.0861 161.134 35.9248C162.857 40.2796 162.473 44.6129 159.985 48.9248C159.515 49.7366 158.885 50.3925 158.469 51.1076C158.448 51.1439 158.437 51.1851 158.437 51.2271C158.437 51.269 158.449 51.3101 158.471 51.3462C158.492 51.3823 158.523 51.4121 158.561 51.4325C158.598 51.453 158.64 51.4633 158.683 51.4624C161.481 51.4516 164.268 51.4463 167.045 51.4463C171.067 51.4409 174.438 53.1559 176.135 56.7312C176.876 58.2796 177.169 60.8172 177.016 64.3441C176.947 65.957 176.947 67.7581 177.016 69.7473C177.164 74.2043 175.637 77.8387 171.494 79.6613C170.141 80.2563 168.24 80.5251 165.792 80.4678C163.194 80.4068 160.399 80.3925 157.408 80.4248C157.345 80.4262 157.285 80.4512 157.241 80.4944C157.197 80.5376 157.172 80.5956 157.172 80.656V93.4517C157.172 93.5671 157.219 93.6779 157.302 93.7596C157.385 93.8413 157.498 93.8871 157.616 93.8871C162.599 93.9015 165.416 93.8997 166.065 93.8818C170.832 93.7473 174.515 95.2904 176.337 99.6076C176.877 100.894 177.104 103.342 177.016 106.952C176.939 110.027 177.416 114.247 176.496 116.812C175.405 119.848 173.203 121.819 169.891 122.726C169.771 122.759 169.666 122.829 169.591 122.926C169.516 123.023 169.475 123.142 169.475 123.263V159.091C169.475 159.178 169.509 159.261 169.57 159.323C169.632 159.386 169.715 159.422 169.803 159.425C171.222 159.475 172.873 159.495 174.756 159.484C177.169 159.462 177.821 163.177 175.473 163.892C175.079 164.011 174.552 164.07 173.891 164.07C133.135 164.07 111.726 164.07 109.664 164.07C107.603 164.07 86.194 164.063 45.4375 164.048C44.7771 164.048 44.2499 163.989 43.8559 163.871C41.5081 163.156 42.1648 159.441 44.5783 159.462C46.4609 159.477 48.1118 159.459 49.531 159.409C49.6191 159.406 49.7026 159.369 49.7639 159.307C49.8252 159.245 49.8594 159.162 49.8594 159.075L49.8703 123.247C49.8701 123.125 49.8294 123.007 49.7543 122.91C49.6792 122.813 49.5739 122.743 49.4544 122.71C46.1416 121.799 43.9398 119.826 42.8489 116.79C41.9295 114.226 42.4056 110.005 42.3345 106.93C42.2469 103.321 42.4731 100.873 43.0131 99.586C44.8355 95.2688 48.5186 93.7312 53.2852 93.8656C53.9347 93.8835 56.7512 93.8853 61.735 93.871C61.8525 93.871 61.9653 93.8251 62.0484 93.7435C62.1316 93.6618 62.1783 93.551 62.1783 93.4355L62.1837 80.6398C62.1837 80.5794 62.1591 80.5214 62.1151 80.4782C62.0711 80.435 62.0113 80.41 61.9484 80.4086C58.9567 80.3764 56.162 80.3907 53.5643 80.4516C51.1162 80.509 49.2154 80.2402 47.8618 79.6452C43.7191 77.8172 42.1922 74.1828 42.3454 69.7258C42.4147 67.7366 42.4147 65.9355 42.3454 64.3226C42.1922 60.7957 42.4859 58.2581 43.2265 56.7097C44.9285 53.1344 48.2997 51.4248 52.322 51.4301C55.0985 51.4301 57.8859 51.4355 60.6842 51.4463C60.7269 51.4471 60.7691 51.4368 60.8064 51.4164C60.8437 51.396 60.8748 51.3662 60.8965 51.3301C60.9182 51.294 60.9297 51.2529 60.93 51.2109C60.9302 51.169 60.919 51.1277 60.8977 51.0914C60.4817 50.3764 59.8524 49.7205 59.3817 48.9086C56.8935 44.5968 56.5123 40.2635 58.238 35.9086C62.9171 24.0699 79.7345 23.4624 85.4917 34.7097C87.6151 38.8549 87.5768 44.3871 85.2181 48.3119C84.6051 49.3334 83.9466 50.3065 83.2424 51.2312C83.2269 51.2503 83.2172 51.2733 83.2144 51.2976C83.2117 51.3219 83.216 51.3464 83.2269 51.3684C83.2378 51.3903 83.2548 51.4088 83.276 51.4217C83.2971 51.4345 83.3216 51.4412 83.3464 51.4409C88.4396 51.4266 97.2177 51.4194 109.681 51.4194ZM82.5912 41.3172C82.5912 38.6366 81.5072 36.0657 79.5778 34.1701C77.6483 32.2746 75.0313 31.2097 72.3026 31.2097C69.5739 31.2097 66.957 32.2746 65.0275 34.1701C63.0981 36.0657 62.0141 38.6366 62.0141 41.3172C62.0141 42.6446 62.2802 43.9589 62.7973 45.1852C63.3143 46.4115 64.0722 47.5258 65.0275 48.4643C65.9829 49.4029 67.1171 50.1474 68.3654 50.6554C69.6136 51.1633 70.9515 51.4248 72.3026 51.4248C75.0313 51.4248 77.6483 50.3599 79.5778 48.4643C81.5072 46.5688 82.5912 43.9979 82.5912 41.3172ZM157.566 41.3172C157.566 38.638 156.483 36.0685 154.554 34.1739C152.626 32.2794 150.01 31.2151 147.283 31.2151C144.556 31.2151 141.94 32.2794 140.012 34.1739C138.084 36.0685 137 38.638 137 41.3172C137 43.9965 138.084 46.566 140.012 48.4605C141.94 50.3551 144.556 51.4194 147.283 51.4194C150.01 51.4194 152.626 50.3551 154.554 48.4605C156.483 46.566 157.566 43.9965 157.566 41.3172ZM90.4225 75.8925C90.4535 75.8923 90.4838 75.8835 90.5099 75.8671C90.536 75.8506 90.5568 75.8273 90.57 75.7998C90.5832 75.7722 90.5881 75.7416 90.5843 75.7113C90.5805 75.6811 90.568 75.6526 90.5484 75.6291L74.6832 56.0753C74.668 56.057 74.6488 56.0422 74.627 56.0319C74.6053 56.0217 74.5815 56.0163 74.5574 56.0162H57.0449C57.014 56.0164 56.9837 56.0252 56.9576 56.0416C56.9315 56.058 56.9107 56.0814 56.8975 56.1089C56.8843 56.1365 56.8794 56.1671 56.8832 56.1973C56.887 56.2275 56.8994 56.2561 56.9191 56.2796L72.7842 75.8334C72.7995 75.8517 72.8187 75.8665 72.8405 75.8767C72.8622 75.8869 72.886 75.8923 72.9101 75.8925H90.4225ZM128.589 55.9839C128.558 55.9841 128.527 55.993 128.501 56.0094C128.475 56.0258 128.454 56.0491 128.441 56.0767C128.428 56.1042 128.423 56.1349 128.427 56.1651C128.431 56.1953 128.443 56.2238 128.463 56.2473L144.323 75.7957C144.338 75.8141 144.357 75.8289 144.379 75.8391C144.401 75.8493 144.424 75.8547 144.448 75.8549H161.961C161.992 75.8547 162.022 75.8458 162.048 75.8294C162.074 75.813 162.095 75.7897 162.108 75.7621C162.121 75.7346 162.126 75.7039 162.123 75.6737C162.119 75.6435 162.106 75.615 162.087 75.5914L146.227 56.043C146.212 56.0247 146.193 56.0099 146.171 55.9997C146.149 55.9895 146.125 55.9841 146.101 55.9839H128.589ZM80.9439 56.0054C80.9094 56.0048 80.8755 56.014 80.8461 56.0318C80.8168 56.0496 80.7932 56.0753 80.7782 56.1058C80.7633 56.1364 80.7575 56.1705 80.7617 56.2042C80.7658 56.2378 80.7797 56.2696 80.8016 56.2957L96.634 75.8119C96.6512 75.8324 96.673 75.8489 96.6976 75.8601C96.7223 75.8712 96.7491 75.8768 96.7763 75.8764H114.272C114.307 75.8769 114.341 75.8678 114.37 75.85C114.399 75.8322 114.423 75.8065 114.438 75.776C114.453 75.7454 114.459 75.7113 114.455 75.6776C114.45 75.644 114.437 75.6122 114.415 75.5861L98.5768 56.0699C98.5595 56.0494 98.5378 56.0329 98.5131 56.0217C98.4885 56.0106 98.4616 56.005 98.4345 56.0054H80.9439ZM137.936 75.8871C137.987 75.8869 138.037 75.8725 138.081 75.8456C138.124 75.8187 138.159 75.7803 138.181 75.7349C138.204 75.6895 138.212 75.6389 138.207 75.5888C138.201 75.5387 138.181 75.4912 138.149 75.4516L122.443 56.0914C122.417 56.0598 122.385 56.0341 122.348 56.0164C122.311 55.9987 122.271 55.9895 122.23 55.9893H104.996C104.945 55.9895 104.895 56.0039 104.851 56.0308C104.808 56.0577 104.773 56.0961 104.751 56.1415C104.729 56.1869 104.72 56.2375 104.725 56.2876C104.731 56.3377 104.751 56.3852 104.783 56.4248L120.484 75.785C120.509 75.8167 120.542 75.8423 120.579 75.86C120.616 75.8777 120.656 75.8869 120.697 75.8871H137.936ZM152.641 56.0861C152.601 56.0852 152.561 56.0957 152.527 56.1164C152.493 56.1371 152.465 56.1672 152.448 56.2031C152.43 56.239 152.423 56.2794 152.427 56.3195C152.431 56.3597 152.446 56.398 152.471 56.4301L168.046 75.6237C168.139 75.7379 168.263 75.8225 168.405 75.8665C168.546 75.9106 168.698 75.9122 168.84 75.871C171.587 75.0807 172.244 73.0699 172.238 70.1721C172.224 65 172.218 61.9481 172.222 61.0162C172.226 59.3531 171.74 58.095 170.766 57.242C169.393 56.043 167.926 56.0699 165.825 56.0807C159.392 56.1058 154.998 56.1076 152.641 56.0861ZM66.4305 75.828C66.4701 75.8273 66.5088 75.8157 66.5421 75.7946C66.5755 75.7735 66.6021 75.7437 66.6192 75.7085C66.6362 75.6733 66.643 75.6342 66.6386 75.5955C66.6343 75.5568 66.6191 75.52 66.5947 75.4893L51.14 56.4086C51.048 56.2958 50.9239 56.2125 50.7835 56.1694C50.6431 56.1263 50.4928 56.1254 50.3519 56.1667C47.6265 56.9463 46.9698 58.9463 46.9753 61.8226C46.9862 66.9588 46.988 69.9911 46.9808 70.9194C46.9771 72.5681 47.4587 73.8172 48.4255 74.6667C49.7882 75.8603 51.2439 75.8334 53.3345 75.8226C59.7229 75.8047 64.0882 75.8065 66.4305 75.828ZM77.54 80.7796C77.54 80.6826 77.5007 80.5897 77.431 80.5211C77.3612 80.4525 77.2665 80.414 77.1678 80.414H67.2295C67.1308 80.414 67.0362 80.4525 66.9664 80.5211C66.8966 80.5897 66.8574 80.6826 66.8574 80.7796V93.5215C66.8574 93.6185 66.8966 93.7115 66.9664 93.7801C67.0362 93.8486 67.1308 93.8871 67.2295 93.8871H77.1678C77.2665 93.8871 77.3612 93.8486 77.431 93.7801C77.5007 93.7115 77.54 93.6185 77.54 93.5215V80.7796ZM137.29 80.7796C137.29 80.6841 137.252 80.5925 137.183 80.5249C137.114 80.4573 137.021 80.4194 136.924 80.4194H82.5693C82.4721 80.4194 82.3788 80.4573 82.31 80.5249C82.2413 80.5925 82.2026 80.6841 82.2026 80.7796V93.5323C82.2026 93.6278 82.2413 93.7194 82.31 93.787C82.3788 93.8546 82.4721 93.8925 82.5693 93.8925H136.924C137.021 93.8925 137.114 93.8546 137.183 93.787C137.252 93.7194 137.29 93.6278 137.29 93.5323V80.7796ZM152.635 80.7543C152.635 80.7091 152.626 80.6644 152.608 80.6227C152.59 80.5809 152.565 80.543 152.532 80.5111C152.499 80.4793 152.461 80.454 152.418 80.4367C152.376 80.4195 152.33 80.4107 152.284 80.4108L142.225 80.428C142.179 80.4281 142.134 80.4371 142.092 80.4545C142.049 80.4718 142.01 80.4972 141.978 80.5292C141.946 80.5613 141.92 80.5992 141.902 80.641C141.885 80.6828 141.876 80.7275 141.876 80.7727L141.899 93.5684C141.899 93.6135 141.908 93.6583 141.925 93.7C141.943 93.7417 141.969 93.7796 142.002 93.8115C142.034 93.8434 142.073 93.8687 142.115 93.8859C142.158 93.9031 142.203 93.9119 142.249 93.9119L152.308 93.8946C152.354 93.8945 152.4 93.8855 152.442 93.8682C152.485 93.8508 152.523 93.8254 152.556 93.7934C152.588 93.7614 152.614 93.7234 152.631 93.6816C152.649 93.6399 152.658 93.5951 152.658 93.5499L152.635 80.7543ZM90.3733 118.226C90.4063 118.226 90.4386 118.217 90.4666 118.199C90.4945 118.182 90.5169 118.158 90.5312 118.128C90.5455 118.099 90.5511 118.067 90.5474 118.034C90.5437 118.002 90.5307 117.972 90.5101 117.946L74.6723 98.4248C74.6559 98.4046 74.6351 98.3884 74.6114 98.3772C74.5877 98.366 74.5617 98.3602 74.5355 98.3602H57.0395C57.0065 98.3602 56.9741 98.3694 56.9462 98.3866C56.9182 98.4039 56.8958 98.4285 56.8815 98.4577C56.8672 98.487 56.8616 98.5196 56.8654 98.5518C56.8691 98.584 56.882 98.6145 56.9026 98.6398L72.735 118.161C72.7514 118.181 72.7722 118.198 72.7959 118.209C72.8196 118.22 72.8455 118.226 72.8718 118.226H90.3733ZM80.9166 98.3065C80.8815 98.3062 80.8472 98.3157 80.8174 98.3338C80.7876 98.3518 80.7636 98.3778 80.7481 98.4087C80.7327 98.4396 80.7264 98.4742 80.7301 98.5084C80.7338 98.5426 80.7472 98.5751 80.7688 98.6022L96.6285 118.151C96.6455 118.172 96.6671 118.189 96.6917 118.201C96.7163 118.213 96.7433 118.22 96.7708 118.22H114.234C114.269 118.221 114.303 118.211 114.333 118.193C114.363 118.175 114.387 118.149 114.402 118.118C114.418 118.087 114.424 118.053 114.42 118.019C114.417 117.984 114.403 117.952 114.382 117.925L98.522 98.3764C98.5051 98.3551 98.4835 98.3378 98.4589 98.3257C98.4343 98.3137 98.4073 98.3071 98.3798 98.3065H80.9166ZM137.991 118.226C138.034 118.226 138.076 118.214 138.113 118.191C138.149 118.169 138.179 118.137 138.198 118.099C138.216 118.06 138.224 118.018 138.219 117.976C138.215 117.934 138.198 117.894 138.171 117.86L122.405 98.4301C122.383 98.4033 122.356 98.3816 122.324 98.3667C122.293 98.3518 122.259 98.3441 122.224 98.3441H104.881C104.838 98.3441 104.796 98.356 104.759 98.3785C104.723 98.401 104.693 98.4332 104.674 98.4713C104.656 98.5095 104.648 98.5521 104.653 98.5942C104.657 98.6364 104.674 98.6764 104.701 98.7097L120.467 118.14C120.489 118.167 120.516 118.188 120.548 118.203C120.579 118.218 120.613 118.226 120.648 118.226H137.991ZM152.586 98.3549C152.546 98.354 152.507 98.3646 152.472 98.3853C152.438 98.406 152.411 98.436 152.393 98.4719C152.375 98.5078 152.368 98.5482 152.372 98.5883C152.376 98.6285 152.392 98.6668 152.417 98.699L168.019 117.941C168.112 118.056 168.237 118.141 168.38 118.185C168.522 118.23 168.675 118.231 168.818 118.188C171.571 117.398 172.228 115.387 172.222 112.479C172.211 107.296 172.207 104.237 172.211 103.301C172.215 101.634 171.73 100.375 170.755 99.5215C169.376 98.3172 167.91 98.3441 165.803 98.3549C159.356 98.3764 154.95 98.3764 152.586 98.3549ZM66.4141 118.242C66.4552 118.243 66.4957 118.233 66.5308 118.212C66.5659 118.191 66.5942 118.16 66.6121 118.124C66.63 118.087 66.6369 118.047 66.6318 118.007C66.6268 117.967 66.6101 117.929 66.5837 117.898L51.1454 98.7904C51.0542 98.6766 50.9304 98.5922 50.7899 98.5482C50.6495 98.5041 50.4988 98.5023 50.3574 98.543C47.6265 99.3226 46.9698 101.323 46.9698 104.199C46.9735 109.342 46.9716 112.376 46.9643 113.301C46.957 114.953 47.4368 116.204 48.4036 117.054C49.7663 118.247 51.222 118.226 53.3126 118.22C59.7046 118.21 64.0718 118.217 66.4141 118.242ZM128.654 98.3549C128.619 98.3546 128.585 98.3641 128.555 98.3821C128.525 98.4002 128.501 98.4262 128.486 98.4571C128.47 98.488 128.464 98.5225 128.468 98.5568C128.472 98.591 128.485 98.6235 128.507 98.6506L144.317 118.14C144.334 118.161 144.356 118.178 144.38 118.19C144.405 118.203 144.432 118.209 144.459 118.21H161.906C161.941 118.21 161.976 118.201 162.005 118.182C162.035 118.164 162.059 118.138 162.075 118.107C162.09 118.077 162.096 118.042 162.093 118.008C162.089 117.974 162.076 117.941 162.054 117.914L146.238 98.4248C146.221 98.4035 146.199 98.3862 146.175 98.3741C146.15 98.362 146.123 98.3555 146.096 98.3549H128.654ZM70.9673 123.091C70.9673 123.019 70.9379 122.949 70.8856 122.898C70.8332 122.846 70.7622 122.817 70.6882 122.817H54.8504C54.7764 122.817 54.7054 122.846 54.653 122.898C54.6007 122.949 54.5713 123.019 54.5713 123.091V159.167C54.5713 159.239 54.6007 159.309 54.653 159.361C54.7054 159.412 54.7764 159.441 54.8504 159.441H70.6882C70.7622 159.441 70.8332 159.412 70.8856 159.361C70.9379 159.309 70.9673 159.239 70.9673 159.167V123.091ZM164.856 123.167C164.856 123.077 164.82 122.991 164.755 122.927C164.69 122.864 164.603 122.828 164.511 122.828H148.783C148.691 122.828 148.604 122.864 148.539 122.927C148.474 122.991 148.438 123.077 148.438 123.167V159.102C148.438 159.192 148.474 159.278 148.539 159.342C148.604 159.405 148.691 159.441 148.783 159.441H164.511C164.603 159.441 164.69 159.405 164.755 159.342C164.82 159.278 164.856 159.192 164.856 159.102V123.167ZM143.699 123.108C143.699 123.033 143.669 122.962 143.615 122.91C143.562 122.857 143.49 122.828 143.414 122.828H75.827C75.7515 122.828 75.6792 122.857 75.6258 122.91C75.5724 122.962 75.5424 123.033 75.5424 123.108V159.172C75.5424 159.246 75.5724 159.317 75.6258 159.37C75.6792 159.422 75.7515 159.452 75.827 159.452H143.414C143.49 159.452 143.562 159.422 143.615 159.37C143.669 159.317 143.699 159.246 143.699 159.172V123.108Z" fill="#FE552E"/>
</g>
<defs>
<clipPath id="clip0_266_199">
<rect width="220" height="200" fill="white"/>
</clipPath>
</defs>
</svg>
