<svg xmlns="http://www.w3.org/2000/svg" width="122.18" height="119.81" viewBox="0 0 122.18 119.81"><g id="Layer_2" data-name="Layer 2"><g id="Layer_3" data-name="Layer 3"><path d="M120,119.81H2.14a2.14,2.14,0,0,1-1.82-3.27L19,86.39a2.15,2.15,0,0,1,1.82-1H101.4a2.15,2.15,0,0,1,1.82,1l18.64,30.15a2.14,2.14,0,0,1-1.82,3.27ZM6,115.52H116.2l-16-25.86H22Z" style="fill:#e55942"></path><path d="M33,98.87a2.39,2.39,0,0,1-.59-.08,2.14,2.14,0,0,1-1.47-2.65L42.15,56.39a2.14,2.14,0,1,1,4.12,1.17L35,97.31A2.15,2.15,0,0,1,33,98.87Z" style="fill:#e55942"></path><path d="M61.27,106a2.14,2.14,0,0,1-2.14-2.14v-44a2.14,2.14,0,1,1,4.28,0v44A2.14,2.14,0,0,1,61.27,106Z" style="fill:#e55942"></path><path d="M89.63,98.87a2.15,2.15,0,0,1-2.06-1.56L76.3,57.56a2.14,2.14,0,1,1,4.12-1.17L91.69,96.14a2.15,2.15,0,0,1-1.48,2.65A2.32,2.32,0,0,1,89.63,98.87Z" style="fill:#e55942"></path><path d="M61.25,60.22a50.7,50.7,0,0,1-20.34-4.55,78.57,78.57,0,0,1-16.37-9.88,96.29,96.29,0,0,1-15-14.34,2.14,2.14,0,0,1,0-2.68,96.29,96.29,0,0,1,15-14.34A78.57,78.57,0,0,1,40.91,4.55,50.7,50.7,0,0,1,61.25,0,50.78,50.78,0,0,1,81.6,4.55,78.77,78.77,0,0,1,98,14.43a96.29,96.29,0,0,1,15,14.34,2.14,2.14,0,0,1,0,2.68A96.29,96.29,0,0,1,98,45.79,78.77,78.77,0,0,1,81.6,55.67,50.78,50.78,0,0,1,61.25,60.22ZM14,30.11A97.88,97.88,0,0,0,27.24,42.46c8,6.15,20.37,13.48,34,13.48S87.34,48.58,95.34,42.4A97.13,97.13,0,0,0,108.5,30.11,97.88,97.88,0,0,0,95.26,17.76c-8-6.15-20.36-13.48-34-13.48s-26,7.33-34,13.48A97.88,97.88,0,0,0,14,30.11Z" style="fill:#e55942"></path><path d="M61.28,47.35a17.3,17.3,0,1,1,3.53-34.23,2.14,2.14,0,0,1-.88,4.19,13,13,0,1,0,8.88,6.75,2.14,2.14,0,0,1,3.81-2,17.33,17.33,0,0,1-7.41,23.32A17.13,17.13,0,0,1,61.28,47.35Z" style="fill:#e55942"></path></g></g></svg>