<svg xmlns="http://www.w3.org/2000/svg" width="111.68" height="118.7" viewBox="0 0 111.68 118.7"><g id="Layer_2" data-name="Layer 2"><g id="Layer_3" data-name="Layer 3"><path d="M81.47,118.7H30.21a2.15,2.15,0,0,1-1.72-.87,2.12,2.12,0,0,1-.33-1.9L51.55,39.78A2.14,2.14,0,1,1,55.64,41L33.11,114.41H78.57L56.05,41.09a2.14,2.14,0,1,1,4.09-1.26l23.37,76.1a2.14,2.14,0,0,1-2,2.77Z" style="fill:#e55942"></path><path d="M55.84,42h-.06a12,12,0,1,1,.06,0Zm0-19.49a7.6,7.6,0,0,0,0,15.2h0a7.59,7.59,0,0,0,5.4-12.94h0a7.56,7.56,0,0,0-5.36-2.26Z" style="fill:#e55942"></path><path d="M73.6,50.12a2.11,2.11,0,0,1-1.52-.64,2.15,2.15,0,0,1,0-3,23.15,23.15,0,0,0,.17-32.69,2.14,2.14,0,1,1,3-3,27.4,27.4,0,0,1-.2,38.76A2.15,2.15,0,0,1,73.6,50.12Z" style="fill:#e55942"></path><path d="M37.88,50.12a2.13,2.13,0,0,1-1.53-.64,27.4,27.4,0,0,1,.21-38.75,2.14,2.14,0,1,1,3,3,23.15,23.15,0,0,0-.17,32.7,2.15,2.15,0,0,1-1.52,3.65Z" style="fill:#e55942"></path><path d="M27.72,60.23a2.11,2.11,0,0,1-1.52-.64,41.65,41.65,0,0,1,.31-59,2.14,2.14,0,0,1,3,3,37.42,37.42,0,0,0-.28,52.92,2.15,2.15,0,0,1,0,3A2.17,2.17,0,0,1,27.72,60.23Z" style="fill:#e55942"></path><path d="M83.67,60.23a2.12,2.12,0,0,1-1.53-.64,2.15,2.15,0,0,1,0-3,37.4,37.4,0,0,0,.27-52.91,2.14,2.14,0,1,1,3-3A41.72,41.72,0,0,1,94.4,45.86a41.42,41.42,0,0,1-9.23,13.75A2.15,2.15,0,0,1,83.67,60.23Z" style="fill:#e55942"></path><path d="M109.54,118.7H2.14a2.15,2.15,0,0,1,0-4.29h107.4a2.15,2.15,0,0,1,0,4.29Z" style="fill:#e55942"></path><path d="M77.67,118.7a2.14,2.14,0,0,1-1.79-1L43.67,68.23a2.14,2.14,0,1,1,3.59-2.33l32.21,49.49a2.14,2.14,0,0,1-.63,3A2.19,2.19,0,0,1,77.67,118.7Z" style="fill:#e55942"></path><path d="M34,118.7a2.19,2.19,0,0,1-1.17-.35,2.15,2.15,0,0,1-.62-3L64.54,65.89c.64-1,2.68-1.77,3-.62s1.27,2,.62,3L35.8,117.73A2.14,2.14,0,0,1,34,118.7Z" style="fill:#e55942"></path></g></g></svg>