<svg width="214" height="200" viewBox="0 0 214 200" fill="none" xmlns="http://www.w3.org/2000/svg">
<g clip-path="url(#clip0_266_69)">
<path d="M114.476 27.321C114.465 27.3158 114.453 27.3133 114.44 27.314C114.428 27.3147 114.416 27.3184 114.406 27.3248C114.395 27.3312 114.386 27.3401 114.381 27.3507C114.375 27.3613 114.371 27.3731 114.372 27.3852V157.241C114.372 157.265 114.381 157.288 114.398 157.306C114.415 157.323 114.438 157.333 114.462 157.334C115.029 157.356 115.362 157.367 115.462 157.367C130.436 157.363 141.074 157.365 147.376 157.372C148.693 157.373 149.625 157.887 150.17 158.914C150.45 159.44 150.57 160.301 150.529 161.496C150.511 162.021 150.508 169.392 150.52 183.609C150.52 183.643 150.534 183.676 150.559 183.701C150.584 183.725 150.618 183.739 150.654 183.739C163.617 183.739 171.295 183.735 173.69 183.728C174.663 183.725 175.331 183.792 175.693 183.927C178.174 184.852 178.224 188.332 175.789 189.363C175.436 189.514 174.771 189.589 173.794 189.589C144.298 189.583 114.461 189.583 84.2844 189.589C80.3065 189.589 80.2838 183.735 84.3434 183.737C88.1539 183.74 92.0712 183.736 96.0953 183.726C96.1599 183.725 96.2217 183.7 96.2673 183.656C96.3128 183.611 96.3383 183.552 96.3383 183.489C96.3414 178.761 96.3383 175.011 96.3292 172.239C96.3232 170.885 96.8495 169.938 97.9081 169.398C98.4276 169.134 99.5862 169.022 101.384 169.062C102.72 169.092 109.61 169.093 122.055 169.067C123.525 169.064 124.451 169.171 124.831 169.387C126.098 170.106 126.432 171.133 126.412 172.697C126.406 173.075 126.404 176.695 126.405 183.558C126.405 183.605 126.425 183.651 126.46 183.684C126.495 183.718 126.542 183.737 126.591 183.737H144.263C144.318 183.737 144.37 183.716 144.408 183.679C144.446 183.642 144.468 183.592 144.468 183.54V163.392C144.468 163.344 144.449 163.299 144.414 163.265C144.379 163.231 144.333 163.213 144.284 163.213H89.3163C89.2715 163.213 89.2277 163.226 89.1908 163.25C89.1539 163.275 89.1256 163.309 89.1096 163.35C87.4709 167.469 84.7175 170.6 80.8495 172.741C79.0941 173.712 77.2881 174.351 75.4313 174.66C75.3812 174.667 75.3355 174.692 75.3023 174.731C75.269 174.769 75.2504 174.817 75.2496 174.867C75.2329 177.96 75.239 181.483 75.2677 185.436C75.2768 186.753 75.161 187.63 74.9202 188.067C73.6389 190.396 69.7246 190 69.2726 187.162C69.2332 186.92 69.2142 186.331 69.2158 185.394C69.2203 178.437 69.2218 174.907 69.2203 174.806C69.2189 174.768 69.2049 174.733 69.1804 174.705C69.156 174.678 69.1228 174.659 69.0863 174.653C67.0689 174.287 65.1637 173.613 63.3705 172.631C63.3526 172.621 63.3325 172.616 63.3121 172.617C63.2917 172.617 63.2717 172.622 63.2541 172.632C63.2365 172.642 63.2218 172.657 63.2116 172.674C63.2013 172.691 63.1958 172.71 63.1956 172.73C63.1941 173.232 63.2001 177.373 63.2138 185.153C63.2183 187.226 63.216 188.518 61.4532 189.356C61.1275 189.511 60.4725 189.589 59.4881 189.589C47.8506 189.584 38.1123 189.584 30.2732 189.587C28.898 189.587 27.9507 189.066 27.4312 188.025C27.201 187.566 27.0859 186.756 27.0859 185.595C27.0905 138.556 27.0912 108.678 27.0882 95.9626C27.0867 94.737 27.5691 93.8417 28.5353 93.2768C43.2109 84.7016 53.2438 78.8373 58.6339 75.6839C59.8334 74.9825 60.8693 75.3144 62.3573 75.8055C63.8612 76.3011 69.1014 78.0039 78.0779 80.914C78.0995 80.921 78.1225 80.9229 78.1449 80.9196C78.1674 80.9162 78.1888 80.9077 78.2072 80.8947C78.2256 80.8818 78.2406 80.8647 78.2509 80.8449C78.2612 80.8252 78.2666 80.8034 78.2665 80.7812C78.2619 67.4361 78.2596 52.394 78.2596 35.6551C78.2596 33.7901 78.5209 32.644 80.2861 31.9847C80.3451 31.9626 84.0496 30.8963 91.3995 28.7856C92.2923 28.529 92.9807 28.1772 93.903 27.7303C95.7189 26.8498 100.983 24.2827 109.694 20.029C110.825 19.4774 111.91 19.4597 112.947 19.9759C114.618 20.8092 120.271 23.5651 129.906 28.2436C130.297 28.4339 130.615 28.5659 130.862 28.6396C132.718 29.1957 136.149 30.1794 141.156 31.5909C143.325 32.2016 144.493 32.8078 144.491 35.1197C144.474 54.3085 144.473 72.1706 144.488 88.706C144.488 88.7229 144.492 88.7396 144.501 88.7542C144.51 88.7689 144.522 88.781 144.538 88.7892C144.553 88.7974 144.57 88.8014 144.587 88.8008C144.605 88.8001 144.621 88.7949 144.636 88.7856C144.668 88.7679 144.715 88.7119 144.777 88.6175C145.31 87.8195 147.237 84.9936 150.558 80.1396C151.463 78.8188 151.91 78.4228 153.303 78.1971C153.556 78.1558 154.016 78.2237 154.684 78.4007C161.368 80.175 172.015 83.0047 186.627 86.8896C187.561 87.1374 188.383 87.352 188.922 88.0401C189.388 88.6359 189.621 89.178 189.621 89.6662C189.623 95.8402 189.624 112.246 189.624 138.883C189.624 139.843 189.66 140.558 189.226 141.266C187.688 143.768 183.601 142.766 183.599 139.823C183.582 111.157 183.587 95.3107 183.613 92.2856C183.613 92.2565 183.603 92.2282 183.585 92.205C183.567 92.1818 183.541 92.1651 183.513 92.1573L155.07 84.5998C154.995 84.5805 154.916 84.5844 154.844 84.611C154.771 84.6376 154.709 84.6854 154.666 84.748L144.711 99.3033C144.564 99.5182 144.486 99.7707 144.486 100.029C144.474 116.473 144.475 132.524 144.491 148.182C144.492 149.494 144.061 150.426 143.198 150.976C141.237 152.228 138.661 151.104 138.502 148.786C138.475 148.405 138.461 147.261 138.461 145.354C138.461 111.658 138.461 75.5814 138.461 37.1241C138.461 37.0768 138.446 37.0308 138.417 36.9929C138.388 36.955 138.347 36.9273 138.3 36.914C135.159 36.0231 132.05 35.1337 128.974 34.2458C128.513 34.1116 127.989 33.9014 127.402 33.6153C122.995 31.4619 118.686 29.3638 114.476 27.321ZM63.2001 82.383V137.339C63.1999 137.356 63.2047 137.373 63.2139 137.387C63.2232 137.401 63.2365 137.413 63.2524 137.42C63.2682 137.427 63.2858 137.43 63.3032 137.428C63.3205 137.425 63.3368 137.418 63.3501 137.407C67.6187 133.916 72.4962 132.845 77.535 135.098C79.8476 136.131 82.1694 138.111 83.7414 140.022C86.9067 143.875 88.971 148.246 89.9342 153.135C90.225 154.61 90.3492 155.988 90.3068 157.27C90.3065 157.283 90.3087 157.295 90.3134 157.306C90.3181 157.318 90.325 157.328 90.3339 157.337C90.3428 157.346 90.3534 157.353 90.3652 157.358C90.3769 157.363 90.3895 157.365 90.4022 157.365H108.19C108.231 157.365 108.27 157.349 108.299 157.321C108.328 157.293 108.345 157.255 108.345 157.215V27.5334C108.345 27.5067 108.338 27.4804 108.325 27.4571C108.312 27.4337 108.292 27.414 108.269 27.4C108.246 27.386 108.219 27.3781 108.192 27.377C108.164 27.376 108.137 27.3818 108.113 27.394C100.168 31.2613 95.756 33.4051 94.8776 33.8255C94.5535 33.9803 94.2286 34.1057 93.903 34.2016C92.4945 34.6116 89.4079 35.4958 84.6433 36.8542C84.5401 36.8837 84.4494 36.9449 84.3848 37.0286C84.3201 37.1123 84.2849 37.2141 84.2844 37.3188C84.2798 67.0592 84.2813 96.1013 84.2889 124.445C84.2889 125.221 84.2336 125.769 84.1231 126.089C83.1916 128.792 79.2842 128.595 78.4005 125.996C78.2142 125.449 78.2574 124.693 78.2596 124.06C78.2627 113.967 78.2634 101.679 78.2619 87.1971C78.262 87.1499 78.2454 87.104 78.2148 87.067C78.1843 87.03 78.1416 87.0041 78.0938 86.9936C77.7485 86.9162 77.3941 86.8874 77.0306 86.7701C71.8858 85.1035 67.3105 83.6175 63.3046 82.3122C63.2927 82.3083 63.2799 82.3072 63.2675 82.3089C63.255 82.3106 63.2432 82.3151 63.233 82.322C63.2228 82.3289 63.2145 82.3381 63.2088 82.3487C63.203 82.3593 63.2001 82.371 63.2001 82.383ZM56.9914 83.5135L33.4401 97.2812C33.3423 97.338 33.2614 97.4186 33.2053 97.5152C33.1491 97.6117 33.1196 97.7209 33.1197 97.8321V105.697C33.1199 105.713 33.1235 105.728 33.1302 105.742C33.137 105.757 33.1467 105.769 33.1588 105.779C33.1709 105.789 33.185 105.797 33.2003 105.801C33.2155 105.805 33.2314 105.806 33.247 105.803C33.4272 105.772 33.6877 105.683 34.0284 105.536C41.5041 102.295 48.7896 99.1418 55.8851 96.0755C56.2152 95.9324 56.6007 95.8343 57.0414 95.7812C57.0829 95.7763 57.1211 95.7569 57.1488 95.7268C57.1764 95.6966 57.1916 95.6577 57.1913 95.6175V83.6241C57.1915 83.6013 57.1854 83.5789 57.1737 83.5591C57.1619 83.5394 57.145 83.523 57.1247 83.5118C57.1043 83.5005 57.0812 83.4947 57.0578 83.495C57.0344 83.4953 57.0115 83.5017 56.9914 83.5135ZM33.1197 120.821C33.1199 120.845 33.126 120.869 33.1375 120.891C33.149 120.913 33.1657 120.932 33.1861 120.946C33.2064 120.96 33.23 120.969 33.2548 120.973C33.2796 120.977 33.3049 120.975 33.3287 120.967L57.0846 113.257C57.1161 113.247 57.1436 113.227 57.1632 113.201C57.1827 113.175 57.1934 113.143 57.1936 113.111V102.182C57.1935 102.156 57.1869 102.131 57.1743 102.108C57.1618 102.086 57.1436 102.066 57.1215 102.052C57.0994 102.038 57.0741 102.03 57.0478 102.028C57.0216 102.026 56.9951 102.03 56.971 102.04L33.2152 112.328C33.1872 112.34 33.1633 112.359 33.1464 112.384C33.1295 112.408 33.1202 112.437 33.1197 112.467V120.821ZM33.122 135.954C33.1222 135.972 33.1265 135.989 33.1346 136.005C33.1427 136.021 33.1544 136.035 33.1688 136.046C33.1831 136.057 33.1999 136.065 33.2177 136.069C33.2356 136.073 33.2541 136.073 33.2719 136.069L57.0959 130.916C57.1228 130.91 57.1468 130.896 57.1641 130.875C57.1814 130.854 57.191 130.828 57.1913 130.801V119.584C57.1912 119.565 57.1866 119.547 57.1777 119.53C57.1688 119.513 57.156 119.499 57.1402 119.488C57.1245 119.477 57.1063 119.47 57.0871 119.467C57.068 119.464 57.0484 119.466 57.03 119.471L33.2061 127.204C33.1817 127.212 33.1605 127.227 33.1454 127.247C33.1303 127.267 33.1221 127.292 33.122 127.317V135.954ZM57.1891 137.111C57.1889 137.087 57.1834 137.064 57.173 137.043C57.1626 137.022 57.1474 137.004 57.1287 136.989C57.11 136.975 57.0882 136.964 57.0648 136.959C57.0414 136.953 57.0171 136.953 56.9937 136.958L33.2492 142.095C33.2134 142.103 33.1812 142.122 33.1581 142.15C33.1349 142.178 33.1222 142.212 33.122 142.248V150.963C33.1222 150.985 33.1271 151.006 33.1365 151.026C33.1458 151.046 33.1594 151.064 33.1763 151.079C33.1933 151.094 33.2131 151.105 33.2347 151.111C33.2563 151.118 33.279 151.12 33.3015 151.117L55.6579 148.704C55.6862 148.7 55.7131 148.69 55.7358 148.673C55.7586 148.657 55.7763 148.634 55.7874 148.609L57.1754 145.407C57.1839 145.388 57.1886 145.368 57.1891 145.348V137.111ZM72.2418 169.067C77.1828 169.067 81.3901 166.098 83.2848 161.715C85.6361 156.281 83.3938 149.71 80.1588 145.06C78.4505 142.606 75.5199 139.786 72.2395 139.786C68.9568 139.786 66.0262 142.606 64.3201 145.06C61.0851 149.713 58.8429 156.283 61.1942 161.717C63.0911 166.098 67.2984 169.069 72.2418 169.067ZM54.2017 154.781L33.3287 157.038C33.2707 157.044 33.2171 157.071 33.1782 157.114C33.1392 157.156 33.1176 157.211 33.1175 157.268V183.533C33.1175 183.587 33.1392 183.638 33.178 183.676C33.2168 183.714 33.2694 183.735 33.3242 183.735H57.0346C57.0555 183.735 57.0761 183.731 57.0954 183.723C57.1147 183.715 57.1323 183.704 57.147 183.69C57.1618 183.676 57.1735 183.659 57.1815 183.641C57.1895 183.622 57.1936 183.602 57.1936 183.582C57.1921 175.513 57.1936 170.237 57.1981 167.755C57.1997 167.182 57.1247 166.777 56.9732 166.538C54.7401 163.04 53.8314 158.932 54.2585 154.839C54.2592 154.831 54.2581 154.823 54.2555 154.816C54.2529 154.809 54.2487 154.802 54.2433 154.796C54.2379 154.791 54.2314 154.787 54.2242 154.784C54.217 154.781 54.2093 154.78 54.2017 154.781ZM120.403 175.102C120.403 175.058 120.385 175.016 120.353 174.985C120.321 174.954 120.278 174.936 120.233 174.936H102.513C102.468 174.936 102.424 174.954 102.393 174.985C102.361 175.016 102.343 175.058 102.343 175.102V183.571C102.343 183.615 102.361 183.657 102.393 183.688C102.424 183.719 102.468 183.737 102.513 183.737H120.233C120.278 183.737 120.321 183.719 120.353 183.688C120.385 183.657 120.403 183.615 120.403 183.571V175.102Z" fill="#FE552E"/>
<path d="M93.4453 40.6416H93.1908C91.6012 40.6416 90.3125 41.8966 90.3125 43.4447V51.9314C90.3125 53.4795 91.6012 54.7345 93.1908 54.7345H93.4453C95.0349 54.7345 96.3236 53.4795 96.3236 51.9314V43.4447C96.3236 41.8966 95.0349 40.6416 93.4453 40.6416Z" fill="#FE552E"/>
<path d="M126.463 45.9624H126.367C124.736 45.9624 123.414 47.2501 123.414 48.8385V133.954C123.414 135.542 124.736 136.83 126.367 136.83H126.463C128.094 136.83 129.416 135.542 129.416 133.954V48.8385C129.416 47.2501 128.094 45.9624 126.463 45.9624Z" fill="#FE552E"/>
<path d="M99.4512 61.1636L99.2013 61.1641C97.6166 61.1668 96.3343 62.42 96.337 63.9632L96.3523 72.4676C96.355 74.0108 97.6419 75.2597 99.2265 75.257L99.4764 75.2565C101.061 75.2539 102.343 74.0006 102.341 72.4574L102.325 63.953C102.323 62.4098 101.036 61.161 99.4512 61.1636Z" fill="#FE552E"/>
<path d="M93.444 81.6816H93.1986C91.609 81.6816 90.3203 82.9366 90.3203 84.4847V92.9759C90.3203 94.524 91.609 95.779 93.1986 95.779H93.444C95.0336 95.779 96.3223 94.524 96.3223 92.9759V84.4847C96.3223 82.9366 95.0336 81.6816 93.444 81.6816Z" fill="#FE552E"/>
<path d="M159.735 95.8285L159.435 95.8265C157.861 95.8158 156.577 97.0492 156.566 98.5814L156.522 104.696C156.511 106.228 157.778 107.479 159.351 107.49L159.651 107.492C161.224 107.503 162.509 106.269 162.52 104.737L162.563 98.6222C162.574 97.09 161.308 95.8392 159.735 95.8285Z" fill="#FE552E"/>
<path d="M174.728 95.8232H174.433C172.858 95.8232 171.582 97.0663 171.582 98.5998V104.724C171.582 106.257 172.858 107.5 174.433 107.5H174.728C176.303 107.5 177.579 106.257 177.579 104.724V98.5998C177.579 97.0663 176.303 95.8232 174.728 95.8232Z" fill="#FE552E"/>
<path d="M99.4489 102.197L99.2035 102.197C97.6176 102.2 96.3343 103.454 96.337 104.999L96.3523 113.503C96.3551 115.047 97.6429 116.297 99.2288 116.295L99.4741 116.294C101.06 116.291 102.343 115.037 102.341 113.493L102.325 104.988C102.323 103.444 101.035 102.194 99.4489 102.197Z" fill="#FE552E"/>
<path d="M159.642 116.344L159.343 116.346C157.77 116.36 156.507 117.612 156.521 119.143L156.576 125.262C156.589 126.793 157.875 128.023 159.447 128.01L159.747 128.007C161.319 127.994 162.582 126.742 162.568 125.211L162.514 119.092C162.5 117.561 161.214 116.331 159.642 116.344Z" fill="#FE552E"/>
<path d="M174.726 116.336H174.431C172.857 116.336 171.582 117.579 171.582 119.111V125.239C171.582 126.771 172.857 128.013 174.431 128.013H174.726C176.299 128.013 177.575 126.771 177.575 125.239V119.111C177.575 117.579 176.299 116.336 174.726 116.336Z" fill="#FE552E"/>
<path d="M93.457 122.728L93.2025 122.728C91.6129 122.725 90.322 123.978 90.3192 125.526L90.304 133.999C90.3012 135.547 91.5877 136.804 93.1773 136.807L93.4317 136.808C95.0214 136.81 96.3123 135.558 96.3151 134.009L96.3303 125.536C96.333 123.988 95.0466 122.731 93.457 122.728Z" fill="#FE552E"/>
<path d="M159.688 136.858H159.397C157.825 136.858 156.551 138.1 156.551 139.631V145.763C156.551 147.294 157.825 148.535 159.397 148.535H159.688C161.26 148.535 162.535 147.294 162.535 145.763V139.631C162.535 138.1 161.26 136.858 159.688 136.858Z" fill="#FE552E"/>
<path d="M174.726 136.865H174.435C172.86 136.865 171.582 138.109 171.582 139.644V145.759C171.582 147.294 172.86 148.538 174.435 148.538H174.726C176.302 148.538 177.579 147.294 177.579 145.759V139.644C177.579 138.109 176.302 136.865 174.726 136.865Z" fill="#FE552E"/>
<path d="M186.632 148.575C188.272 148.575 189.68 148.762 190.855 149.135C195.951 150.754 199.317 153.971 200.953 158.785C203.729 166.962 198.429 175.688 189.876 177.538C189.807 177.553 189.745 177.59 189.701 177.643C189.657 177.696 189.633 177.762 189.633 177.83C189.624 180.998 189.622 183.51 189.628 185.365C189.631 186.358 189.603 187.001 189.544 187.294C189.256 188.69 188.038 189.593 186.607 189.591C185.176 189.591 183.958 188.686 183.672 187.29C183.613 186.996 183.585 186.353 183.59 185.361C183.599 183.505 183.6 180.993 183.594 177.825C183.594 177.757 183.57 177.692 183.526 177.638C183.482 177.585 183.42 177.548 183.351 177.533C174.8 175.675 169.512 166.942 172.299 158.768C173.941 153.956 177.311 150.744 182.409 149.131C183.585 148.759 184.993 148.574 186.632 148.575ZM195.639 163.219C195.639 160.89 194.689 158.657 192.998 157.01C191.307 155.363 189.014 154.438 186.623 154.438C184.231 154.438 181.938 155.363 180.247 157.01C178.556 158.657 177.606 160.89 177.606 163.219C177.606 165.548 178.556 167.781 180.247 169.428C181.938 171.075 184.231 172 186.623 172C189.014 172 191.307 171.075 192.998 169.428C194.689 167.781 195.639 165.548 195.639 163.219Z" fill="#FE552E"/>
<path d="M159.698 157.378L159.403 157.378C157.832 157.375 156.556 158.613 156.554 160.143L156.543 166.28C156.54 167.81 157.811 169.052 159.382 169.055L159.677 169.055C161.248 169.058 162.524 167.82 162.526 166.29L162.537 160.153C162.54 158.623 161.269 157.381 159.698 157.378Z" fill="#FE552E"/>
</g>
<defs>
<clipPath id="clip0_266_69">
<rect width="214" height="200" fill="white"/>
</clipPath>
</defs>
</svg>
